<?xml version="1.0" encoding="UTF-8"?><svg id="Layer_2" xmlns="http://www.w3.org/2000/svg" width="640" height="630" viewBox="0 0 640 630"><g id="fs_text_4"><circle cx="320" cy="315" r="315" style="fill:#ebd7c1;"/><g><path d="M237.481,244.7197h.1602l19.1201-56.8813h14.9604v1.6802c-7.6802,0-8.4004,1.1201-8.4004,6v48.6411c0,4.8799,.7202,6,8.4004,6v1.6802h-21.6006v-1.6802c7.6001,0,8.3203-1.1201,8.3203-6v-51.6812h-.2402l-20.6401,60.9614h-2.3203l-20.1602-60.1616h-.2402v50.8813c0,4.8799,.7202,6,8.3203,6v1.6802h-19.4404v-1.6802c7.6001,0,8.3203-1.1201,8.3203-6v-48.6411c0-4.8799-.7202-6-8.3203-6v-1.6802h14.9604l18.8003,56.8813Z" style="fill:#4e3e33;"/><path d="M273.6396,230.9595c0-12.4004,5.4404-22.5605,15.0405-22.5605,8.8003,0,14.9604,9.6001,14.9604,22.1606,0,12.3999-5.4404,22.5605-14.9604,22.5605-8.8804,0-15.0405-9.6006-15.0405-22.1606Zm25.3608,3.04c0-10.8804-3.7603-22.8008-11.3604-22.8008-6.5601,0-9.3604,8.2402-9.3604,16.4004,0,10.8804,3.7603,22.7207,11.4404,22.7207,6.48,0,9.2803-8.2402,9.2803-16.3203Z" style="fill:#4e3e33;"/><path d="M341.3193,249.2798l-8.7998,3.8403-1.1201-.9604v-6.3999h-.3203c-1.9199,4.3999-5.2002,7.3604-10,7.3604-7.6001,0-11.6006-9.2803-11.6006-21.2007,0-12.7202,4.6401-23.5205,13.2803-23.5205,3.9199,0,6.8008,1.6001,8.5605,4.3999h.0801v-17.3604c0-4.96,.1602-5.8398-4.6406-3.6802l-.7197-1.52,9.04-4.0801,.7998,.8804v56.8809c0,5.0405-.0801,5.9204,4.7207,3.8403l.7197,1.52Zm-9.9199-7.2002v-15.9204c0-8.6401-2.7998-14.6401-8.0801-14.6401-6.6406,0-9.0405,9.3599-9.0405,18.7202,0,10.7202,2.5601,18.8804,8.3198,18.8804,4.3203,0,6.8008-3.4399,8.8008-7.04Z" style="fill:#4e3e33;"/><path d="M370.6797,234.9595c-1.2803,12.7202-6.4805,18.1606-12.8809,18.1606-8.2402,0-13.04-9.0405-13.04-21.6807,0-12.7202,4.96-23.0405,13.3604-23.0405,7.6807,0,12.0801,8.0801,12.0801,20.0005h-20.7998v1.52c0,10.48,3.5195,19.1201,9.8398,19.1201,3.6797,0,7.9199-3.1196,9.7607-14.0801h1.6797Zm-21.1211-9.2803h15.9209c0-7.2803-1.9199-14.5601-7.2803-14.5601-5.2002,0-7.9199,6.7197-8.6406,14.5601Z" style="fill:#4e3e33;"/><path d="M398.2803,211.519c0,2.3198-1.5195,3.6001-2.8799,3.6001-1.1201,0-1.6797-.48-2.4004-1.2803-.7998-.7998-1.2002-1.1201-2.0801-1.1201-1.8398,0-4,2.4805-6.1602,7.8403v23.4404c0,5.1201,.8809,6.0801,7.9209,6.0801v1.7603h-17.4404v-1.6802c4.5596,0,5.2002-1.04,5.2002-6v-26.6406c0-5.04,0-5.9199-4.6406-4.0801l-.6396-1.52,8.6396-3.52,.96,.8799v7.1201h.2402c2.2402-4.48,5.6807-8,9.6006-8,2.3193,0,3.6797,1.2798,3.6797,3.1201Z" style="fill:#4e3e33;"/><path d="M401.6406,250.1597c4.5596,0,5.2002-1.04,5.2002-6v-26.6406c0-5.04,.0791-5.9199-4.6406-4l-.6396-1.6001,8.6396-3.52,1.04,.8799v6.7202h.2402c3.4404-4.48,6.6406-7.6001,11.4404-7.6001,5.6797,0,8.0801,4.3198,8.0801,10.8003v24.9604c0,4.96,.5596,6,5.1201,6v1.6802h-14.5605v-1.6802c4.4805,0,5.04-1.04,5.04-6v-24.7207c0-4.7998-2-7.04-5.2803-7.04-3.8398,0-6.8799,2.6401-10.0801,6.3203v25.4404c0,4.96,.5605,6,5.04,6v1.6802h-14.6396v-1.6802Z" style="fill:#4e3e33;"/><path d="M244.8799,326.959c0-12.3999,5.4404-22.5601,15.0405-22.5601,8.8003,0,14.9604,9.6001,14.9604,22.1606,0,12.4004-5.4404,22.5605-14.9604,22.5605-8.8804,0-15.0405-9.6006-15.0405-22.1611Zm25.3608,3.04c0-10.8799-3.7603-22.8003-11.3604-22.8003-6.5601,0-9.3604,8.2402-9.3604,16.4009,0,10.8799,3.7603,22.7197,11.4404,22.7197,6.48,0,9.2803-8.2393,9.2803-16.3203Z" style="fill:#4e3e33;"/><path d="M330.2402,340.1602c0,4.96,.5605,6,5.2002,6v1.6797h-14.8804v-1.6797c4.6401,0,5.2007-1.04,5.2007-6v-26.1611c0-2.96,0-5.52-4.1602-5.52h-12.5605v31.6812c0,4.96,.8799,6,7.6802,6v1.6797h-17.8403v-1.6797c5.1201,0,5.7598-1.04,5.7598-6v-31.6812h-15.52v31.6812c0,4.96,.8799,6,7.52,6v1.6797h-17.2002v-1.6797c4.6401,0,5.2798-1.04,5.2798-6v-31.6812h-4.7197v-2l4.7197-.48v-3.7603c0-11.1201,4.0801-18.4004,12.4805-18.4004,4.8003,0,8,2.3198,9.2002,4.96,2.3203-4.96,6.6401-7.04,11.8403-7.04,5.2803,0,10.3203,3.2803,10.3203,6.8003,0,1.6797-1.1201,2.8799-2.8799,2.8799-1.7607,0-2.4805-1.2798-3.6006-2.96-1.4399-2.1602-2.7197-3.6802-5.2798-3.6802-4.2402,0-7.7603,2.96-7.7603,12.8804v8.0801h14c2.7207,0,4.4805-.3999,6.3203-1.3599l.8799,.96v34.8013Zm-41.1206-34.4014h15.52v-7.4399c0-1.52,.0801-2.9604,.3203-4.2402-.3203,.0801-.5601,.0801-.8799,.0801-1.6001,0-2.8003-.96-2.9604-3.04-.0796-2.0801-.3999-4.5601-4.0801-4.5601-5.7598,0-7.9199,5.4399-7.9199,15.1201v4.0801Z" style="fill:#4e3e33;"/><path d="M339.6797,327.3594c0-12.8804,4.96-22.9604,14.1602-22.9604,6.0801,0,9.7607,4.48,9.7607,9.8403,0,2.96-1.1201,4.5596-3.2002,4.5596-1.9199,0-2.7197-1.3594-2.7197-2.7998,0-1.1997,.5596-2.7197,.5596-4.3999,0-2.8804-1.6797-4.48-4.4805-4.48-6.7197,0-9.4395,9.3604-9.4395,18.5605,0,10.5596,3.5195,19.2803,9.8398,19.2803,3.4404,0,7.6807-3.04,9.04-14.1602h1.6807c-.7207,12.8799-6.0801,18.3203-12.1611,18.3203-8.3193,0-13.04-9.2002-13.04-21.7607Z" style="fill:#4e3e33;"/><path d="M394.9609,330.959c-1.2803,12.7207-6.4805,18.1611-12.8809,18.1611-8.2402,0-13.04-9.04-13.04-21.6807,0-12.7202,4.96-23.0405,13.3604-23.0405,7.6807,0,12.0801,8.0801,12.0801,20.0005h-20.7998v1.5195c0,10.4805,3.5195,19.1211,9.8398,19.1211,3.6797,0,7.9199-3.1201,9.7607-14.0811h1.6797Zm-21.1211-9.2793h15.9209c0-7.2808-1.9199-14.5605-7.2803-14.5605-5.2002,0-7.9199,6.7197-8.6406,14.5605Z" style="fill:#4e3e33;"/><path d="M214.3623,442.3193c-1.04-.7998-1.6802-.5596-2.0801,.4004l-.5601,1.6006h-1.6001l-.3999-16.8008h1.52c1.04,10.0801,5.52,14.8799,10.6401,14.8799,4,0,6.0801-3.04,6.0801-7.5195,0-4.0801-1.8398-5.7607-9.1201-12.1602-6.4004-5.5205-8.6401-8.2402-8.6401-12.5605,0-5.6807,3.9199-9.7607,9.6001-9.7607,3.3599,0,5.6001,1.5205,6.8804,2.6406,1.04,.96,1.8398,.5596,2-.4004l.3198-1.6797h1.6001l.1602,13.4404h-1.6001c-.6401-6.2402-3.6802-11.2803-9.0405-11.2803-3.4399,0-5.9199,2.4795-5.9199,6.1602s2.3999,5.7598,7.6001,10.1602c7.1201,6.0801,10.2402,9.4404,10.2402,14.96,0,7.1201-4.5601,10.7207-9.8403,10.7207-3.52,0-6.3198-1.6006-7.8398-2.8008Z" style="fill:#4e3e33;"/><path d="M263.2417,426.959c-1.2803,12.7207-6.4805,18.1611-12.8804,18.1611-8.2402,0-13.0405-9.04-13.0405-21.6807,0-12.7207,4.9604-23.041,13.3604-23.041,7.6802,0,12.0806,8.0811,12.0806,20.001h-20.8008v1.5195c0,10.4805,3.52,19.1211,9.8403,19.1211,3.6802,0,7.9204-3.1201,9.7603-14.0811h1.6802Zm-21.1206-9.2793h15.9204c0-7.2803-1.9199-14.5605-7.2803-14.5605-5.2002,0-7.9199,6.7197-8.6401,14.5605Z" style="fill:#4e3e33;"/><path d="M288.8418,426.7998c0,11.6797-1.9199,18.3203-8.8003,18.3203-5.4399,0-8.0801-3.6006-8.0801-14.2402v-26.4014h-5.7603v-2.3193c5.6802-.0801,7.8403-4.8008,8.1602-11.6807h2v11.2803h9.7603v2.7197h-9.6802v23.6006c0,7.7607,.3999,13.2803,4.8003,13.2803,3.8398,0,5.7598-4.5596,5.7598-14.5596h1.8403Z" style="fill:#4e3e33;"/><path d="M313.9609,426.7998c0,11.6797-1.9199,18.3203-8.8003,18.3203-5.4399,0-8.0801-3.6006-8.0801-14.2402v-26.4014h-5.7603v-2.3193c5.6802-.0801,7.8403-4.8008,8.1602-11.6807h2v11.2803h9.7603v2.7197h-9.6802v23.6006c0,7.7607,.3999,13.2803,4.8003,13.2803,3.8398,0,5.7598-4.5596,5.7598-14.5596h1.8403Z" style="fill:#4e3e33;"/><path d="M326.6006,436.1602c0,4.96,.5605,6,5.2803,6v1.6797h-14.9604v-1.6797c4.6401,0,5.2808-1.04,5.2808-6v-26.6406c0-5.041,0-5.9209-4.4805-4.1602l-.6401-1.6006,5.8403-2.3203,2.7197-1.04,.96,.8809v34.8809Zm-6.8799-49.042c0-2.1592,1.6797-3.7598,3.9199-3.7598,2.1602,0,3.8398,1.6006,3.8398,3.7598,0,2.0801-1.6797,3.7607-3.8398,3.7607-2.2402,0-3.9199-1.6807-3.9199-3.7607Z" style="fill:#4e3e33;"/><path d="M335.7207,442.1602c4.5596,0,5.2002-1.04,5.2002-6v-26.6406c0-5.041,.0791-5.9209-4.6406-4.001l-.6396-1.5996,8.6396-3.5205,1.04,.8809v6.7197h.2402c3.4404-4.4805,6.6406-7.6006,11.4404-7.6006,5.6797,0,8.0801,4.3203,8.0801,10.8008v24.9609c0,4.96,.5596,6,5.1201,6v1.6797h-14.5605v-1.6797c4.4805,0,5.04-1.04,5.04-6v-24.7207c0-4.8008-2-7.04-5.2803-7.04-3.8398,0-6.8799,2.6396-10.0801,6.3193v25.4414c0,4.96,.5605,6,5.04,6v1.6797h-14.6396v-1.6797Z" style="fill:#4e3e33;"/><path d="M394.5195,438.8799c8.0811,0,11.6006,1.9199,11.6006,7.8398,0,8-8.5605,16.001-20.8008,16.001-7.6797,0-14.4795-2.9609-14.4795-9.6807,0-5.1201,3.7598-8.1602,8-10.6406-3.1201-1.1201-4.2402-3.2793-4.2402-5.8398,0-3.1201,2.1602-5.6797,5.2002-8-3.2002-2.7197-5.04-7.1201-5.04-12.5605,0-9.04,5.1201-15.5205,12.8799-15.5205,2.6406,0,4.96,.7207,6.8799,2.0801,3.04-1.5195,6.0801-2.3193,8.6406-2.3193,1.8398,0,2.2402,.7998,2.2402,1.8398,0,1.2002-.8799,2-2.6406,2-2.7197,0-4.6396-.6406-6.7998-.2402,2.7998,2.7197,4.4805,6.96,4.4805,12.0801,0,9.04-5.1201,15.4404-12.8008,15.4404-2.4004,0-4.5596-.6396-6.3203-1.6797-1.9199,1.6797-3.1201,3.1201-3.1201,4.96,0,2.1602,.3203,4.2402,8.0801,4.2402h8.2402Zm8.4805,9.2002c0-3.8398-2.4004-4.7207-8.5605-4.7207h-8.5596c-1.7598,0-3.2803-.0791-4.5605-.3193-3.5996,2.3203-6.6396,5.2803-6.6396,8.6396,0,3.8408,3.6797,7.2803,11.6797,7.2803,10.3203,0,16.6406-5.6797,16.6406-10.8799Zm-23.6006-33.9209c0,6.5605,2.4805,14.6406,9.1201,14.6406,4.96,0,7.2803-4.4805,7.2803-10.6406,0-6.8799-2.7197-15.1201-9.04-15.1201-5.2803,0-7.3604,5.4404-7.3604,11.1201Z" style="fill:#4e3e33;"/><path d="M412.9189,442.3193c-1.04-.7998-1.6807-.5596-2.0801,.4004l-.5605,1.6006h-1.5996l-.4004-16.8008h1.5205c1.04,10.0801,5.5195,14.8799,10.6396,14.8799,4.001,0,6.0811-3.04,6.0811-7.5195,0-4.0801-1.8408-5.7607-9.1211-12.1602-6.3994-5.5205-8.6396-8.2402-8.6396-12.5605,0-5.6807,3.9199-9.7607,9.6006-9.7607,3.3594,0,5.5996,1.5205,6.8799,2.6406,1.04,.96,1.8398,.5596,2-.4004l.3203-1.6797h1.5996l.1602,13.4404h-1.6006c-.6396-6.2402-3.6797-11.2803-9.04-11.2803-3.4395,0-5.9199,2.4795-5.9199,6.1602s2.4004,5.7598,7.6006,10.1602c7.1201,6.0801,10.2402,9.4404,10.2402,14.96,0,7.1201-4.5605,10.7207-9.8408,10.7207-3.5195,0-6.3203-1.6006-7.8398-2.8008Z" style="fill:#4e3e33;"/></g></g></svg>