<?xml version="1.0" encoding="UTF-8"?><svg id="Layer_2" xmlns="http://www.w3.org/2000/svg" width="640" height="630" viewBox="0 0 640 630"><g id="fs_text_3"><circle cx="320" cy="315" r="315" style="fill:#C9CFEB;"/><g><path d="M293.4814,189.4385l1.1997,13.6001-2,.1602c-1.04-11.3604-2.3999-12.5601-8.2402-12.5601h-14.9604c-2.2397,0-3.4399,1.1997-3.4399,3.3599v24.8804h12.4805c4.8799,0,6-.7197,6-9.2002h1.6802v20.9604h-1.6802c0-8.48-1.1201-9.2002-6-9.2002h-12.4805v22.7207c0,4.8799,.7202,6,8.5601,6v1.6802h-21.7603v-1.6802c7.6001,0,8.3203-1.1201,8.3203-6v-48.6411c0-4.8799-.7202-6-8.3203-6v-1.6802h40.481l.1602,1.6001Z" style="fill:#4e3e33;"/><path d="M293.3203,230.9595c0-12.4004,5.4404-22.5605,15.0405-22.5605,8.8003,0,14.9604,9.6001,14.9604,22.1606,0,12.3999-5.4404,22.5605-14.9604,22.5605-8.8804,0-15.0405-9.6006-15.0405-22.1606Zm25.3608,3.04c0-10.8804-3.7603-22.8008-11.3604-22.8008-6.5601,0-9.3604,8.2402-9.3604,16.4004,0,10.8804,3.7603,22.7207,11.4404,22.7207,6.48,0,9.2803-8.2402,9.2803-16.3203Z" style="fill:#4e3e33;"/><path d="M351.0811,252.1597l-.1602-6.3999-.2402-.0801c-2.4805,3.9199-6.6406,7.4404-11.5205,7.4404-5.2002,0-7.5996-4.4004-7.5996-10.7207v-24.3203c0-4.96,0-5.8403-4.8008-4.1602l-.5596-1.6001,8.96-3.1201,.8799,.8804v31.7607c0,4.96,1.6807,7.3599,4.8809,7.3599,3.5195,0,7.2793-2.7998,10-6.2402v-24.8804c0-4.96,0-5.8403-4.8008-4.1602l-.5596-1.6001,8.96-3.1201,.8799,.8804v33.8403c0,5.0405-.0801,5.9204,4.8008,3.8403l.6396,1.6001-6.3203,2.6401-2.3994,1.04-1.04-.8804Z" style="fill:#4e3e33;"/><path d="M387.5605,211.519c0,2.3198-1.5195,3.6001-2.8799,3.6001-1.1201,0-1.6797-.48-2.4004-1.2803-.7998-.7998-1.2002-1.1201-2.0801-1.1201-1.8398,0-4,2.4805-6.1602,7.8403v23.4404c0,5.1201,.8799,6.0801,7.9209,6.0801v1.7603h-17.4404v-1.6802c4.5596,0,5.2002-1.04,5.2002-6v-26.6406c0-5.04,0-5.9199-4.6406-4.0801l-.6396-1.52,8.6396-3.52,.96,.8799v7.1201h.2402c2.2402-4.48,5.6807-8,9.6006-8,2.3193,0,3.6797,1.2798,3.6797,3.1201Z" style="fill:#4e3e33;"/><path d="M166.2402,327.3594c0-12.8804,4.9604-22.9604,14.1606-22.9604,6.0801,0,9.7603,4.48,9.7603,9.8403,0,2.96-1.1201,4.5596-3.2002,4.5596-1.9199,0-2.7202-1.3594-2.7202-2.7998,0-1.1997,.5601-2.7197,.5601-4.3999,0-2.8804-1.6802-4.48-4.48-4.48-6.7202,0-9.4404,9.3604-9.4404,18.5605,0,10.5596,3.52,19.2803,9.8403,19.2803,3.4399,0,7.6802-3.04,9.04-14.1602h1.6802c-.7197,12.8799-6.0801,18.3203-12.1602,18.3203-8.3203,0-13.0405-9.2002-13.0405-21.7607Z" style="fill:#4e3e33;"/><path d="M195.6006,326.959c0-12.3999,5.4404-22.5601,15.0405-22.5601,8.8003,0,14.9604,9.6001,14.9604,22.1606,0,12.4004-5.4404,22.5605-14.9604,22.5605-8.8804,0-15.0405-9.6006-15.0405-22.1611Zm25.3608,3.04c0-10.8799-3.7603-22.8003-11.3604-22.8003-6.5601,0-9.3604,8.2402-9.3604,16.4009,0,10.8799,3.7603,22.7197,11.4404,22.7197,6.48,0,9.2803-8.2393,9.2803-16.3203Z" style="fill:#4e3e33;"/><path d="M230.0015,346.1602c4.5601,0,5.2002-1.04,5.2002-6v-26.6411c0-5.04,.0801-5.9199-4.6401-4l-.6401-1.6001,8.6406-3.52,1.04,.8799v6.7202h.2397c3.4399-4.48,6.6401-7.6001,11.4404-7.6001,5.6802,0,8.0801,4.3198,8.0801,10.8003v24.9609c0,4.96,.5601,6,5.1201,6v1.6797h-14.5605v-1.6797c4.4805,0,5.0405-1.04,5.0405-6v-24.7212c0-4.7998-2.0005-7.04-5.2803-7.04-3.8403,0-6.8804,2.6401-10.0801,6.3203v25.4409c0,4.96,.5596,6,5.04,6v1.6797h-14.6406v-1.6797Z" style="fill:#4e3e33;"/><path d="M288.8813,313.1191c1.3599-4.8003,1.4399-5.6802-4-5.6802v-1.6802h13.2002v1.6802c-3.7603,0-5.04,.8799-6.48,5.6802l-10.5605,35.4404h-2.48l-10.48-35.4404c-1.4404-4.8003-2.6401-5.6802-6.1602-5.6802v-1.6802h15.04v1.6802c-5.4399,0-5.3599,.8799-4,5.6802l7.6001,26.8008h.3999l7.9204-26.8008Z" style="fill:#4e3e33;"/><path d="M323.7607,330.959c-1.2803,12.7207-6.4805,18.1611-12.8804,18.1611-8.2402,0-13.0405-9.04-13.0405-21.6807,0-12.7202,4.9604-23.0405,13.3604-23.0405,7.6802,0,12.0801,8.0801,12.0801,20.0005h-20.8003v1.5195c0,10.4805,3.52,19.1211,9.8403,19.1211,3.6802,0,7.9204-3.1201,9.7607-14.0811h1.6797Zm-21.1206-9.2793h15.9204c0-7.2808-1.9199-14.5605-7.2803-14.5605-5.2002,0-7.9199,6.7197-8.6401,14.5605Z" style="fill:#4e3e33;"/><path d="M328.3213,346.1602c4.5596,0,5.2002-1.04,5.2002-6v-26.6411c0-5.04,.0801-5.9199-4.6406-4l-.6396-1.6001,8.6396-3.52,1.04,.8799v6.7202h.2402c3.4404-4.48,6.6406-7.6001,11.4404-7.6001,5.6797,0,8.0801,4.3198,8.0801,10.8003v24.9609c0,4.96,.5596,6,5.1201,6v1.6797h-14.5605v-1.6797c4.4805,0,5.04-1.04,5.04-6v-24.7212c0-4.7998-2-7.04-5.2803-7.04-3.8398,0-6.8799,2.6401-10.0801,6.3203v25.4409c0,4.96,.5605,6,5.04,6v1.6797h-14.6396v-1.6797Z" style="fill:#4e3e33;"/><path d="M376.5596,340.1602c0,4.96,.5605,6,5.2803,6v1.6797h-14.96v-1.6797c4.6396,0,5.2803-1.04,5.2803-6v-26.6411c0-5.04,0-5.9199-4.4805-4.1602l-.6396-1.6001,5.8398-2.3198,2.7197-1.04,.96,.8799v34.8813Zm-6.8799-49.0415c0-2.1602,1.6797-3.7603,3.9199-3.7603,2.1602,0,3.8398,1.6001,3.8398,3.7603,0,2.0801-1.6797,3.7598-3.8398,3.7598-2.2402,0-3.9199-1.6797-3.9199-3.7598Z" style="fill:#4e3e33;"/><path d="M412,330.959c-1.2803,12.7207-6.4805,18.1611-12.8809,18.1611-8.2402,0-13.04-9.04-13.04-21.6807,0-12.7202,4.96-23.0405,13.3604-23.0405,7.6807,0,12.0801,8.0801,12.0801,20.0005h-20.7998v1.5195c0,10.4805,3.5195,19.1211,9.8398,19.1211,3.6797,0,7.9199-3.1201,9.7607-14.0811h1.6797Zm-21.1211-9.2793h15.9209c0-7.2808-1.9199-14.5605-7.2803-14.5605-5.2002,0-7.9199,6.7197-8.6406,14.5605Z" style="fill:#4e3e33;"/><path d="M416.5605,346.1602c4.5596,0,5.2002-1.04,5.2002-6v-26.6411c0-5.04,.0791-5.9199-4.6406-4l-.6396-1.6001,8.6396-3.52,1.04,.8799v6.7202h.2402c3.4404-4.48,6.6406-7.6001,11.4404-7.6001,5.6797,0,8.0801,4.3198,8.0801,10.8003v24.9609c0,4.96,.5596,6,5.1201,6v1.6797h-14.5605v-1.6797c4.4805,0,5.04-1.04,5.04-6v-24.7212c0-4.7998-2-7.04-5.2803-7.04-3.8398,0-6.8799,2.6401-10.0801,6.3203v25.4409c0,4.96,.5605,6,5.04,6v1.6797h-14.6396v-1.6797Z" style="fill:#4e3e33;"/><path d="M475.2002,330.7998c0,11.6797-1.9199,18.3203-8.8008,18.3203-5.4395,0-8.0801-3.6006-8.0801-14.2402v-26.4009h-5.7598v-2.3203c5.6797-.0796,7.8398-4.7998,8.1602-11.6802h2v11.2803h9.7607v2.7202h-9.6807v23.6001c0,7.7607,.4004,13.2803,4.7998,13.2803,3.8408,0,5.7607-4.5596,5.7607-14.5596h1.8398Z" style="fill:#4e3e33;"/><path d="M202.3218,436.1602c0,4.96,.5601,6,5.2002,6v1.6797h-14.9604v-1.6797c4.7202,0,5.2803-1.04,5.2803-6v-48.8018c0-4.96,.0801-5.8398-4.5601-3.6797l-.7202-1.6006,6.0806-2.7197,2.7998-1.2002,.8799,.8799v57.1221Z" style="fill:#4e3e33;"/><path d="M211.2017,422.959c0-12.4004,5.4404-22.5605,15.0405-22.5605,8.8003,0,14.9604,9.6006,14.9604,22.1611,0,12.4004-5.4404,22.5605-14.9604,22.5605-8.8804,0-15.0405-9.6006-15.0405-22.1611Zm25.3608,3.04c0-10.8799-3.7603-22.7998-11.3604-22.7998-6.5601,0-9.3604,8.2402-9.3604,16.4004,0,10.8799,3.7603,22.7197,11.4404,22.7197,6.48,0,9.2803-8.2393,9.2803-16.3203Z" style="fill:#4e3e33;"/><path d="M247.04,423.3594c0-12.8799,4.9604-22.9609,14.1606-22.9609,6.0801,0,9.7603,4.4805,9.7603,9.8408,0,2.96-1.1201,4.5596-3.2002,4.5596-1.9199,0-2.7202-1.3594-2.7202-2.7998,0-1.2002,.5601-2.7197,.5601-4.4004,0-2.8799-1.6802-4.4795-4.48-4.4795-6.7202,0-9.4404,9.3604-9.4404,18.5605,0,10.5596,3.52,19.2803,9.8403,19.2803,3.4399,0,7.6802-3.04,9.04-14.1602h1.6802c-.7197,12.8799-6.0801,18.3203-12.1602,18.3203-8.3203,0-13.0405-9.2002-13.0405-21.7607Z" style="fill:#4e3e33;"/><path d="M306.8013,435.3594c-.0801,5.4404-1.4399,9.7607-5.7603,9.7607-3.5996,0-5.6797-2.8799-5.6797-8.8008v-3.2002c-2.1602,7.9209-6.2402,12.001-11.4404,12.001-5.2803,0-8.1602-4.2402-8.1602-9.2803,0-9.9199,10.8003-14.5605,19.6006-18.8008v-4.5596c0-6.9609-2.5601-9.4404-6.8003-9.4404-3.4399,0-6.0801,1.6797-6.0801,4.6396,0,1.9199,1.1201,2.6406,1.1201,4.3203s-.9604,2.7998-2.7202,2.7998c-2.1602,0-3.2803-1.8398-3.2803-4.3994,0-5.6006,5.04-10.0811,11.7603-10.0811,6.0005,0,10.4004,3.6006,10.4004,12.0811v24.5605c0,4.3994,1.04,5.3594,2.3198,5.3594,1.6802,0,2.9604-1.5996,3.04-6.96h1.6802Zm-11.4399-6.4795v-9.5205c-7.2002,3.8398-14.9604,7.7598-14.9604,15.3604,0,3.5996,1.6001,6.3203,4.8799,6.3203,3.6001,0,7.6001-3.4404,10.0806-12.1602Z" style="fill:#4e3e33;"/><path d="M329.041,426.7998c0,11.6797-1.9199,18.3203-8.7998,18.3203-5.4399,0-8.0801-3.6006-8.0801-14.2402v-26.4014h-5.7603v-2.3193c5.6802-.0801,7.8403-4.8008,8.1602-11.6807h2v11.2803h9.7603v2.7197h-9.6802v23.6006c0,7.7607,.3999,13.2803,4.8003,13.2803,3.8398,0,5.7598-4.5596,5.7598-14.5596h1.8398Z" style="fill:#4e3e33;"/><path d="M341.6816,436.1602c0,4.96,.5605,6,5.2803,6v1.6797h-14.96v-1.6797c4.6396,0,5.2803-1.04,5.2803-6v-26.6406c0-5.041,0-5.9209-4.4805-4.1602l-.6396-1.6006,5.8398-2.3203,2.7197-1.04,.96,.8809v34.8809Zm-6.8799-49.042c0-2.1592,1.6797-3.7598,3.9199-3.7598,2.1602,0,3.8398,1.6006,3.8398,3.7598,0,2.0801-1.6797,3.7607-3.8398,3.7607-2.2402,0-3.9199-1.6807-3.9199-3.7607Z" style="fill:#4e3e33;"/><path d="M351.2021,422.959c0-12.4004,5.4404-22.5605,15.04-22.5605,8.8008,0,14.9609,9.6006,14.9609,22.1611,0,12.4004-5.4404,22.5605-14.9609,22.5605-8.8799,0-15.04-9.6006-15.04-22.1611Zm25.3604,3.04c0-10.8799-3.7598-22.7998-11.3594-22.7998-6.5605,0-9.3604,8.2402-9.3604,16.4004,0,10.8799,3.7598,22.7197,11.4395,22.7197,6.4805,0,9.2803-8.2393,9.2803-16.3203Z" style="fill:#4e3e33;"/><path d="M385.6016,442.1602c4.5596,0,5.2002-1.04,5.2002-6v-26.6406c0-5.041,.0791-5.9209-4.6406-4.001l-.6396-1.5996,8.6396-3.5205,1.04,.8809v6.7197h.2402c3.4404-4.4805,6.6406-7.6006,11.4404-7.6006,5.6797,0,8.0801,4.3203,8.0801,10.8008v24.9609c0,4.96,.5596,6,5.1201,6v1.6797h-14.5605v-1.6797c4.4805,0,5.04-1.04,5.04-6v-24.7207c0-4.8008-2-7.04-5.2803-7.04-3.8398,0-6.8799,2.6396-10.0801,6.3193v25.4414c0,4.96,.5605,6,5.04,6v1.6797h-14.6396v-1.6797Z" style="fill:#4e3e33;"/><path d="M429.2002,442.3193c-1.04-.7998-1.6807-.5596-2.0801,.4004l-.5605,1.6006h-1.5996l-.4004-16.8008h1.5205c1.04,10.0801,5.5195,14.8799,10.6396,14.8799,4.001,0,6.0811-3.04,6.0811-7.5195,0-4.0801-1.8408-5.7607-9.1211-12.1602-6.3994-5.5205-8.6396-8.2402-8.6396-12.5605,0-5.6807,3.9199-9.7607,9.6006-9.7607,3.3594,0,5.5996,1.5205,6.8799,2.6406,1.04,.96,1.8398,.5596,2-.4004l.3203-1.6797h1.5996l.1602,13.4404h-1.6006c-.6396-6.2402-3.6797-11.2803-9.04-11.2803-3.4395,0-5.9199,2.4795-5.9199,6.1602s2.4004,5.7598,7.6006,10.1602c7.1201,6.0801,10.2402,9.4404,10.2402,14.96,0,7.1201-4.5605,10.7207-9.8408,10.7207-3.5195,0-6.3203-1.6006-7.8398-2.8008Z" style="fill:#4e3e33;"/></g></g></svg>