<?xml version="1.0" encoding="UTF-8"?><svg id="Layer_2" xmlns="http://www.w3.org/2000/svg" width="640" height="630" viewBox="0 0 640 630"><g id="fs_text_1"><g><circle cx="320" cy="315" r="315" style="fill:#FF4E21;"/><g><path d="M227.6025,237.4385l1.2002,13.6001-2,.1602c-1.04-11.3604-2.3999-12.5601-8.2402-12.5601h-14.9604c-2.2397,0-3.4399,1.1997-3.4399,3.3599v24.8804h12.4805c4.8799,0,6-.7197,6-9.2002h1.6802v20.9604h-1.6802c0-8.48-1.1201-9.2002-6-9.2002h-12.4805v22.7207c0,4.8799,.7202,6,8.5601,6v1.6802h-21.7603v-1.6802c7.6001,0,8.3203-1.1201,8.3203-6v-48.6411c0-4.8799-.7202-6-8.3203-6v-1.6802h40.481l.1597,1.6001Z" style="fill:#4e3e33;"/><path d="M238.7222,292.1597c0,4.96,.5596,6,5.2798,6v1.6802h-14.9604v-1.6802c4.6401,0,5.2803-1.04,5.2803-6v-26.6406c0-5.04,0-5.9199-4.48-4.1602l-.6401-1.6001,5.8403-2.3198,2.7197-1.04,.9604,.8799v34.8809Zm-6.8804-49.041c0-2.1602,1.6802-3.7603,3.9199-3.7603,2.1602,0,3.8403,1.6001,3.8403,3.7603,0,2.0801-1.6802,3.7598-3.8403,3.7598-2.2397,0-3.9199-1.6797-3.9199-3.7598Z" style="fill:#4e3e33;"/><path d="M247.8413,298.1597c4.5601,0,5.2002-1.04,5.2002-6v-26.6406c0-5.04,.0801-5.9199-4.6401-4l-.6401-1.6001,8.6406-3.52,1.04,.8799v6.7202h.2397c3.4399-4.48,6.6401-7.6001,11.4404-7.6001,5.6802,0,8.0801,4.3198,8.0801,10.8003v24.9604c0,4.96,.5601,6,5.1201,6v1.6802h-14.5605v-1.6802c4.4805,0,5.0405-1.04,5.0405-6v-24.7207c0-4.7998-2.0005-7.04-5.2803-7.04-3.8403,0-6.8804,2.6401-10.0801,6.3203v25.4404c0,4.96,.5596,6,5.04,6v1.6802h-14.6406v-1.6802Z" style="fill:#4e3e33;"/><path d="M317.042,291.3599c-.0801,5.4399-1.4399,9.7603-5.7603,9.7603-3.6001,0-5.6797-2.8804-5.6797-8.8003v-3.2002c-2.1602,7.9199-6.2402,12.0005-11.4404,12.0005-5.2803,0-8.1602-4.2402-8.1602-9.2803,0-9.9204,10.8003-14.5605,19.6006-18.8008v-4.5601c0-6.96-2.5601-9.4399-6.8003-9.4399-3.4399,0-6.0801,1.6797-6.0801,4.6401,0,1.9199,1.1201,2.6396,1.1201,4.3198s-.9604,2.8003-2.7202,2.8003c-2.1602,0-3.2803-1.8403-3.2803-4.4004,0-5.6001,5.04-10.0801,11.7603-10.0801,6.0005,0,10.4004,3.6001,10.4004,12.0801v24.5605c0,4.4004,1.04,5.3604,2.3198,5.3604,1.6802,0,2.9604-1.6001,3.0405-6.96h1.6797Zm-11.4399-6.4805v-9.52c-7.2002,3.8398-14.9604,7.7603-14.9604,15.3604,0,3.6001,1.6001,6.3198,4.8799,6.3198,3.6001,0,7.6001-3.4399,10.0806-12.1602Z" style="fill:#4e3e33;"/><path d="M319.2017,298.1597c4.5601,0,5.2007-1.04,5.2007-6v-26.6406c0-5.04,.0801-5.9199-4.6406-4l-.6401-1.6001,8.6401-3.52,1.04,.8799v6.7202h.2402c3.4404-4.48,6.6406-7.6001,11.4404-7.6001,5.6797,0,8.0801,4.3198,8.0801,10.8003v24.9604c0,4.96,.5596,6,5.1201,6v1.6802h-14.5605v-1.6802c4.4805,0,5.04-1.04,5.04-6v-24.7207c0-4.7998-2-7.04-5.2803-7.04-3.8398,0-6.8799,2.6401-10.0801,6.3203v25.4404c0,4.96,.5605,6,5.04,6v1.6802h-14.6401v-1.6802Z" style="fill:#4e3e33;"/><path d="M357.1201,279.3594c0-12.8804,4.96-22.9604,14.1602-22.9604,6.0801,0,9.7607,4.48,9.7607,9.8403,0,2.96-1.1201,4.5601-3.2002,4.5601-1.9199,0-2.7197-1.3604-2.7197-2.8003,0-1.1997,.5596-2.7197,.5596-4.3999,0-2.8804-1.6797-4.48-4.4805-4.48-6.7197,0-9.4395,9.3599-9.4395,18.5601,0,10.5605,3.5195,19.2808,9.8398,19.2808,3.4404,0,7.6807-3.04,9.04-14.1606h1.6807c-.7207,12.8804-6.0801,18.3208-12.1611,18.3208-8.3193,0-13.04-9.2007-13.04-21.7607Z" style="fill:#4e3e33;"/><path d="M395.9209,292.1597c0,4.96,.5605,6,5.2803,6v1.6802h-14.96v-1.6802c4.6396,0,5.2803-1.04,5.2803-6v-26.6406c0-5.04,0-5.9199-4.4805-4.1602l-.6396-1.6001,5.8398-2.3198,2.7197-1.04,.96,.8799v34.8809Zm-6.8799-49.041c0-2.1602,1.6797-3.7603,3.9199-3.7603,2.1602,0,3.8398,1.6001,3.8398,3.7603,0,2.0801-1.6797,3.7598-3.8398,3.7598-2.2402,0-3.9199-1.6797-3.9199-3.7598Z" style="fill:#4e3e33;"/><path d="M436.3213,291.3599c-.0801,5.4399-1.4395,9.7603-5.7598,9.7603-3.6006,0-5.6807-2.8804-5.6807-8.8003v-3.2002c-2.1602,7.9199-6.2402,12.0005-11.4404,12.0005-5.2793,0-8.1602-4.2402-8.1602-9.2803,0-9.9204,10.8008-14.5605,19.6006-18.8008v-4.5601c0-6.96-2.5596-9.4399-6.7998-9.4399-3.4404,0-6.0801,1.6797-6.0801,4.6401,0,1.9199,1.1201,2.6396,1.1201,4.3198s-.96,2.8003-2.7207,2.8003c-2.1592,0-3.2793-1.8403-3.2793-4.4004,0-5.6001,5.04-10.0801,11.7598-10.0801,6,0,10.4004,3.6001,10.4004,12.0801v24.5605c0,4.4004,1.04,5.3604,2.3203,5.3604,1.6797,0,2.96-1.6001,3.04-6.96h1.6797Zm-11.4404-6.4805v-9.52c-7.2002,3.8398-14.96,7.7603-14.96,15.3604,0,3.6001,1.5996,6.3198,4.8799,6.3198,3.6006,0,7.6006-3.4399,10.0801-12.1602Z" style="fill:#4e3e33;"/><path d="M447.7607,292.1597c0,4.96,.5596,6,5.2002,6v1.6802h-14.9609v-1.6802c4.7207,0,5.2803-1.04,5.2803-6v-48.8013c0-4.96,.0801-5.8398-4.5596-3.6797l-.7207-1.6001,6.0801-2.7202,2.8008-1.2002,.8799,.8804v57.1211Z" style="fill:#4e3e33;"/><path d="M216.4009,374.959c0-12.4004,5.4404-22.5605,15.0405-22.5605,8.8003,0,14.9604,9.6006,14.9604,22.1611,0,12.4004-5.4404,22.5605-14.9604,22.5605-8.8804,0-15.0405-9.6006-15.0405-22.1611Zm25.3608,3.04c0-10.8799-3.7603-22.7998-11.3604-22.7998-6.5601,0-9.3604,8.2402-9.3604,16.4004,0,10.8799,3.7603,22.7197,11.4404,22.7197,6.48,0,9.2803-8.2393,9.2803-16.3203Z" style="fill:#4e3e33;"/><path d="M280.6406,373.3594c0,11.9199-3.7598,23.5205-12.6401,23.5205-3.6802,0-7.04-2.0801-9.2002-6.0801h-.1602v14.96c0,5.04,.6401,6,5.2803,6v1.6807h-14.9604v-1.6807c4.7202,0,5.2803-.96,5.2803-6v-44.2402c0-5.041,0-5.9209-4.7202-4.0801l-.6401-1.6006,8.8804-3.4404,.8799,.8809v7.04h.3203c3.04-5.3604,6.5601-7.9209,10.48-7.9209,7.7603,0,11.2002,9.2002,11.2002,20.9609Zm-4.8799,.7998c0-10.5605-2.48-17.7598-7.7603-17.7598-3.6001,0-7.04,3.2793-9.3604,7.1201v15.04c0,8.96,3.8403,15.4404,8.7202,15.4404,5.9204,0,8.4004-9.5205,8.4004-19.8408Z" style="fill:#4e3e33;"/><path d="M306.2412,378.7998c0,11.6797-1.9199,18.3203-8.8003,18.3203-5.4399,0-8.0801-3.6006-8.0801-14.2402v-26.4014h-5.7603v-2.3193c5.6802-.0801,7.8403-4.8008,8.1602-11.6807h2v11.2803h9.7603v2.7197h-9.6802v23.6006c0,7.7607,.3999,13.2803,4.8003,13.2803,3.8398,0,5.7598-4.5596,5.7598-14.5596h1.8403Z" style="fill:#4e3e33;"/><path d="M318.8813,388.1602c0,4.96,.5596,6,5.2798,6v1.6797h-14.9604v-1.6797c4.6401,0,5.2803-1.04,5.2803-6v-26.6406c0-5.041,0-5.9209-4.48-4.1602l-.6401-1.6006,5.8403-2.3203,2.7197-1.04,.9604,.8809v34.8809Zm-6.8804-49.042c0-2.1592,1.6802-3.7598,3.9199-3.7598,2.1602,0,3.8403,1.6006,3.8403,3.7598,0,2.0801-1.6802,3.7607-3.8403,3.7607-2.2397,0-3.9199-1.6807-3.9199-3.7607Z" style="fill:#4e3e33;"/><path d="M328.4004,374.959c0-12.4004,5.4404-22.5605,15.041-22.5605,8.7998,0,14.96,9.6006,14.96,22.1611,0,12.4004-5.4404,22.5605-14.96,22.5605-8.8809,0-15.041-9.6006-15.041-22.1611Zm25.3604,3.04c0-10.8799-3.7598-22.7998-11.3594-22.7998-6.5605,0-9.3604,8.2402-9.3604,16.4004,0,10.8799,3.7598,22.7197,11.4395,22.7197,6.4805,0,9.2803-8.2393,9.2803-16.3203Z" style="fill:#4e3e33;"/><path d="M362.8018,394.1602c4.5596,0,5.2002-1.04,5.2002-6v-26.6406c0-5.041,.0801-5.9209-4.6406-4.001l-.6396-1.5996,8.6396-3.5205,1.04,.8809v6.7197h.2402c3.4404-4.4805,6.6406-7.6006,11.4404-7.6006,5.6797,0,8.0801,4.3203,8.0801,10.8008v24.9609c0,4.96,.5596,6,5.1201,6v1.6797h-14.5605v-1.6797c4.4805,0,5.04-1.04,5.04-6v-24.7207c0-4.8008-2-7.04-5.2803-7.04-3.8398,0-6.8799,2.6396-10.0801,6.3193v25.4414c0,4.96,.5605,6,5.04,6v1.6797h-14.6396v-1.6797Z" style="fill:#4e3e33;"/><path d="M406.4004,394.3193c-1.04-.7998-1.6807-.5596-2.0801,.4004l-.5605,1.6006h-1.5996l-.4004-16.8008h1.5205c1.04,10.0801,5.5195,14.8799,10.6396,14.8799,4.001,0,6.0811-3.04,6.0811-7.5195,0-4.0801-1.8408-5.7607-9.1211-12.1602-6.3994-5.5205-8.6396-8.2402-8.6396-12.5605,0-5.6807,3.9199-9.7607,9.5996-9.7607,3.3604,0,5.6006,1.5205,6.8809,2.6406,1.04,.96,1.8398,.5596,2-.4004l.3203-1.6797h1.5996l.1602,13.4404h-1.6006c-.6396-6.2402-3.6797-11.2803-9.04-11.2803-3.4395,0-5.9199,2.4795-5.9199,6.1602s2.4004,5.7598,7.6006,10.1602c7.1201,6.0801,10.2402,9.4404,10.2402,14.96,0,7.1201-4.5605,10.7207-9.8408,10.7207-3.5195,0-6.3203-1.6006-7.8398-2.8008Z" style="fill:#4e3e33;"/></g></g></g></svg>