<?xml version="1.0" encoding="UTF-8"?><svg id="Layer_2" xmlns="http://www.w3.org/2000/svg" width="640" height="630" viewBox="0 0 640 630"><g id="fs_text_2"><circle cx="320" cy="315" r="315" style="fill:#D21C18;"/><g><path d="M101.8828,267.8389c0-18.4004,8.9604-33.2803,23.2007-33.2803,13.7603,0,23.1206,14.96,23.1206,33.2803,0,18.4805-8.8003,33.2812-23.0405,33.2812-13.8403,0-23.2808-14.8804-23.2808-33.2812Zm41.2808,4.4805c0-16.6406-7.04-34.9609-19.6001-34.9609-10.3203,0-16.5605,12.1602-16.5605,25.9204,0,16.8008,6.8804,35.041,19.6006,35.041,10.3999,0,16.5601-12.1602,16.5601-26.0005Z" style="fill:#4e3e33;"/><path d="M178.3633,265.1191c1.3599-4.8003,1.4399-5.6802-4-5.6802v-1.6802h13.2002v1.6802c-3.7603,0-5.04,.8799-6.48,5.6802l-10.5605,35.4409h-2.48l-10.48-35.4409c-1.4404-4.8003-2.6401-5.6802-6.1602-5.6802v-1.6802h15.04v1.6802c-5.4399,0-5.3599,.8799-4,5.6802l7.6001,26.8003h.4004l7.9199-26.8003Z" style="fill:#4e3e33;"/><path d="M213.2432,282.9595c-1.2803,12.7202-6.4805,18.1606-12.8804,18.1606-8.2402,0-13.0405-9.0405-13.0405-21.6807,0-12.7202,4.9604-23.0405,13.3604-23.0405,7.6802,0,12.0806,8.0801,12.0806,20.0005h-20.8008v1.52c0,10.48,3.52,19.1201,9.8403,19.1201,3.6802,0,7.9204-3.1196,9.7603-14.0801h1.6802Zm-21.1206-9.2803h15.9204c0-7.2803-1.9199-14.5601-7.2803-14.5601-5.2002,0-7.9199,6.7197-8.6401,14.5601Z" style="fill:#4e3e33;"/><path d="M240.8438,259.519c0,2.3198-1.52,3.6001-2.8799,3.6001-1.1201,0-1.6802-.48-2.3999-1.2803-.8003-.7998-1.2002-1.1201-2.0801-1.1201-1.8403,0-4.0005,2.4805-6.1602,7.8403v23.4404c0,5.1201,.8799,6.0801,7.9199,6.0801v1.7603h-17.4404v-1.6802c4.5601,0,5.2002-1.04,5.2002-6v-26.6406c0-5.04,0-5.9199-4.6401-4.0801l-.6401-1.52,8.6406-3.52,.96,.8799v7.1201h.2397c2.2402-4.48,5.6802-8,9.6006-8,2.3198,0,3.6797,1.2798,3.6797,3.1201Z" style="fill:#4e3e33;"/><path d="M260.2021,295.5996c0-1.4399,1.04-2.3999,2.4004-2.3999,1.52,0,2.48,1.2002,3.52,2.3999,1.3599,1.4399,3.2798,2.8804,6.2397,2.8804,5.6802,0,12.6406-6.2402,12.6406-21.0405,0-12.1602-4.48-17.0405-10.7202-17.0405-3.04,0-5.7603,1.2002-8.0005,3.4399l-2.3198-1.7598,5.3599-26.2407h19.4404l-1.1196,4.48h-16.5605l-3.9199,19.6807,.3198,.2397c2.5601-2.48,5.7603-3.52,8.8003-3.52,8.96,0,13.9204,8.9604,13.9204,19.2808,0,15.9199-8.5605,25.1206-18.6406,25.1206-6,0-11.3604-2.6401-11.3604-5.5205Z" style="fill:#4e3e33;"/><path d="M297.9614,267.5991c0-18.2402,5.3604-33.0405,16.7207-33.0405s16.7202,14.8003,16.7202,33.0405c0,18.4805-5.3604,33.4409-16.7202,33.4409s-16.7207-14.9604-16.7207-33.4409Zm28.2407,0c0-16.9604-3.2803-30.3208-11.52-30.3208-8.3203,0-11.5205,13.3604-11.5205,30.3208,0,17.2002,3.2002,30.7207,11.5205,30.7207,8.2397,0,11.52-13.5205,11.52-30.7207Z" style="fill:#4e3e33;"/><path d="M339.3203,277.9194v-4.1602h13.6006v-13.5205h4.1602v13.5205h13.4404v4.1602h-13.4404v13.52h-4.1602v-13.52h-13.6006Z" style="fill:#4e3e33;"/><path d="M391.7188,313.8403c0-1.6802,1.1201-2.8003,2.7197-2.8003,1.6006,0,2.4004,1.1201,3.1201,2.2402,.7207,1.3599,1.3604,1.7598,2.5605,1.7598,2.4004,0,4.4795-4,6.4805-11.1201,.3994-1.3599,.6396-3.8398,.5596-5.7603l-10-33.0405c-1.4404-4.8003-2.6406-5.6802-6.2402-5.6802v-1.6802h15.2002v1.6802c-5.4404,0-5.3604,.8799-4,5.6802l7.5996,26.8804h.3203l7.2002-26.8804c1.3604-4.8003,1.3604-5.6802-4-5.6802v-1.6802h12.4004v1.6802c-3.2002,0-4.3203,.8799-5.6807,5.6802l-9.3594,33.6006c-2.96,10.6401-5.9209,19.6807-12.8809,19.7607-3.4395,0-6-1.9199-6-4.6401Z" style="fill:#4e3e33;"/><path d="M451.3203,282.9595c-1.2803,12.7202-6.4805,18.1606-12.8809,18.1606-8.2402,0-13.04-9.0405-13.04-21.6807,0-12.7202,4.96-23.0405,13.3604-23.0405,7.6807,0,12.0801,8.0801,12.0801,20.0005h-20.7998v1.52c0,10.48,3.5195,19.1201,9.8398,19.1201,3.6797,0,7.9199-3.1196,9.7607-14.0801h1.6797Zm-21.1211-9.2803h15.9209c0-7.2803-1.9199-14.5601-7.2803-14.5601-5.2002,0-7.9199,6.7197-8.6406,14.5601Z" style="fill:#4e3e33;"/><path d="M487.3213,291.3599c-.0801,5.4399-1.4395,9.7603-5.7598,9.7603-3.6006,0-5.6807-2.8804-5.6807-8.8003v-3.2002c-2.1602,7.9199-6.2402,12.0005-11.4404,12.0005-5.2793,0-8.1602-4.2402-8.1602-9.2803,0-9.9204,10.8008-14.5605,19.6006-18.8008v-4.5601c0-6.96-2.5596-9.4399-6.7998-9.4399-3.4404,0-6.0801,1.6797-6.0801,4.6401,0,1.9199,1.1201,2.6396,1.1201,4.3198s-.96,2.8003-2.7207,2.8003c-2.1592,0-3.2793-1.8403-3.2793-4.4004,0-5.6001,5.04-10.0801,11.7598-10.0801,6,0,10.4004,3.6001,10.4004,12.0801v24.5605c0,4.4004,1.04,5.3604,2.3203,5.3604,1.6797,0,2.96-1.6001,3.04-6.96h1.6797Zm-11.4404-6.4805v-9.52c-7.2002,3.8398-14.96,7.7603-14.96,15.3604,0,3.6001,1.5996,6.3198,4.8799,6.3198,3.6006,0,7.6006-3.4399,10.0801-12.1602Z" style="fill:#4e3e33;"/><path d="M512.5205,259.519c0,2.3198-1.5195,3.6001-2.8799,3.6001-1.1201,0-1.6797-.48-2.4004-1.2803-.7998-.7998-1.2002-1.1201-2.0801-1.1201-1.8398,0-4,2.4805-6.1602,7.8403v23.4404c0,5.1201,.8809,6.0801,7.9209,6.0801v1.7603h-17.4404v-1.6802c4.5596,0,5.2002-1.04,5.2002-6v-26.6406c0-5.04,0-5.9199-4.6406-4.0801l-.6396-1.52,8.6396-3.52,.96,.8799v7.1201h.2402c2.2402-4.48,5.6807-8,9.6006-8,2.3193,0,3.6797,1.2798,3.6797,3.1201Z" style="fill:#4e3e33;"/><path d="M521.0811,298.3198c-1.04-.7998-1.6807-.5601-2.0801,.3999l-.5605,1.6001h-1.5996l-.4004-16.8003h1.5205c1.04,10.0801,5.5195,14.8804,10.6396,14.8804,4.001,0,6.0811-3.04,6.0811-7.52,0-4.0806-1.8408-5.7603-9.1211-12.1606-6.3994-5.52-8.6396-8.2402-8.6396-12.5601,0-5.6802,3.9199-9.7603,9.6006-9.7603,3.3594,0,5.5996,1.52,6.8799,2.6401,1.04,.96,1.8398,.5601,2-.4004l.3203-1.6797h1.5996l.1602,13.4404h-1.6006c-.6396-6.2402-3.6797-11.2803-9.04-11.2803-3.4395,0-5.9199,2.48-5.9199,6.1602s2.4004,5.7598,7.6006,10.1602c7.1201,6.0801,10.2402,9.4399,10.2402,14.96,0,7.1206-4.5605,10.7207-9.8408,10.7207-3.5195,0-6.3203-1.6001-7.8398-2.8003Z" style="fill:#4e3e33;"/><path d="M133.3213,374.959c0-12.4004,5.4404-22.5605,15.0405-22.5605,8.8003,0,14.9604,9.6006,14.9604,22.1611,0,12.4004-5.4404,22.5605-14.9604,22.5605-8.8804,0-15.0405-9.6006-15.0405-22.1611Zm25.3608,3.04c0-10.8799-3.7603-22.7998-11.3604-22.7998-6.5601,0-9.3604,8.2402-9.3604,16.4004,0,10.8799,3.7603,22.7197,11.4404,22.7197,6.48,0,9.2803-8.2393,9.2803-16.3203Z" style="fill:#4e3e33;"/><path d="M194.3613,335.4385c0,1.4404-.96,2.7197-2.7202,2.7197-1.6001,0-2.3999-1.2793-3.52-2.8799-1.3599-2-2.1602-2.6396-3.7598-2.6396-3.6802,0-6.4004,3.2002-6.4004,13.04v8.0801h8.6401v2.7197h-8.6401v31.6816c0,4.96,.8799,6,7.7603,6v1.6797h-17.8403v-1.6797c5.04,0,5.6802-1.04,5.6802-6v-31.6816h-5.2002v-2l5.2002-.5596v-7.7598c0-11.8408,5.52-16.4004,11.9199-16.4004,4.9604,0,8.8804,2.8799,8.8804,5.6797Z" style="fill:#4e3e33;"/><path d="M233.7197,378.959c-1.2803,12.7207-6.4805,18.1611-12.8804,18.1611-8.2402,0-13.0405-9.04-13.0405-21.6807,0-12.7207,4.9604-23.041,13.3604-23.041,7.6802,0,12.0806,8.0811,12.0806,20.001h-20.8008v1.5195c0,10.4805,3.52,19.1211,9.8403,19.1211,3.6802,0,7.9204-3.1201,9.7603-14.0811h1.6802Zm-21.1206-9.2793h15.9204c0-7.2803-1.9199-14.5605-7.2803-14.5605-5.2002,0-7.9199,6.7197-8.6401,14.5605Z" style="fill:#4e3e33;"/><path d="M260.6001,389.04c2.2402,4.3994,3.9204,5.1201,7.4404,5.1201v1.6797h-14.8003v-1.6797c5.3599,0,4.8799-.7207,2.5601-5.1201l-6.0005-11.9209-5.4399,11.7607c-2.0801,4.5596-2.48,5.2803,2.96,5.2803v1.6797h-13.1201v-1.6797c3.6802,0,5.2798-.7207,7.3599-5.2803l6.8804-14.5605-6.96-13.7607c-2.2402-4.3994-3.8403-5.1201-6.9604-5.1201v-1.6797h13.8403v1.6797c-4.96,0-4.3999,.7207-2.0801,5.1201l5.2002,10.3203,5.2002-10.3203c2.2397-4.3994,2.8799-5.1201-2.1602-5.1201v-1.6797h12.0801v1.6797c-3.1997,0-4.7998,.7207-7.04,5.1201l-6.7202,13.1211,7.7603,15.3604Z" style="fill:#4e3e33;"/><path d="M300.8403,373.3594c0,11.9199-3.7598,23.5205-12.6401,23.5205-3.6802,0-7.04-2.0801-9.2002-6.0801h-.1602v14.96c0,5.04,.6401,6,5.2803,6v1.6807h-14.9604v-1.6807c4.7202,0,5.2803-.96,5.2803-6v-44.2402c0-5.041,0-5.9209-4.7202-4.0801l-.6401-1.6006,8.8804-3.4404,.8799,.8809v7.04h.3203c3.04-5.3604,6.5601-7.9209,10.48-7.9209,7.7603,0,11.2002,9.2002,11.2002,20.9609Zm-4.8799,.7998c0-10.5605-2.48-17.7598-7.7603-17.7598-3.6001,0-7.04,3.2793-9.3604,7.1201v15.04c0,8.96,3.8403,15.4404,8.7202,15.4404,5.9204,0,8.4004-9.5205,8.4004-19.8408Z" style="fill:#4e3e33;"/><path d="M332.7588,378.959c-1.2803,12.7207-6.4805,18.1611-12.8804,18.1611-8.2402,0-13.0405-9.04-13.0405-21.6807,0-12.7207,4.9604-23.041,13.3604-23.041,7.6807,0,12.0801,8.0811,12.0801,20.001h-20.8003v1.5195c0,10.4805,3.52,19.1211,9.8403,19.1211,3.6797,0,7.9199-3.1201,9.7607-14.0811h1.6797Zm-21.1206-9.2793h15.9204c0-7.2803-1.9199-14.5605-7.2803-14.5605-5.2002,0-7.9199,6.7197-8.6401,14.5605Z" style="fill:#4e3e33;"/><path d="M360.3594,355.5186c0,2.3203-1.5195,3.6006-2.8799,3.6006-1.1201,0-1.6797-.4805-2.4004-1.2803-.7998-.7998-1.2002-1.1201-2.0801-1.1201-1.8398,0-4,2.4805-6.1602,7.8408v23.4404c0,5.1201,.8799,6.0801,7.9209,6.0801v1.7598h-17.4404v-1.6797c4.5596,0,5.2002-1.04,5.2002-6v-26.6406c0-5.041,0-5.9209-4.6406-4.0801l-.6396-1.5205,8.6396-3.5205,.96,.8809v7.1201h.2402c2.2402-4.4805,5.6807-8.001,9.6006-8.001,2.3193,0,3.6797,1.2803,3.6797,3.1201Z" style="fill:#4e3e33;"/><path d="M373.3193,388.1602c0,4.96,.5605,6,5.2803,6v1.6797h-14.96v-1.6797c4.6396,0,5.2803-1.04,5.2803-6v-26.6406c0-5.041,0-5.9209-4.4805-4.1602l-.6396-1.6006,5.8398-2.3203,2.7197-1.04,.96,.8809v34.8809Zm-6.8799-49.042c0-2.1592,1.6797-3.7598,3.9199-3.7598,2.1602,0,3.8398,1.6006,3.8398,3.7598,0,2.0801-1.6797,3.7607-3.8398,3.7607-2.2402,0-3.9199-1.6807-3.9199-3.7607Z" style="fill:#4e3e33;"/><path d="M408.7607,378.959c-1.2803,12.7207-6.4805,18.1611-12.8809,18.1611-8.2393,0-13.04-9.04-13.04-21.6807,0-12.7207,4.96-23.041,13.3604-23.041,7.6807,0,12.0801,8.0811,12.0801,20.001h-20.7998v1.5195c0,10.4805,3.5195,19.1211,9.8398,19.1211,3.6797,0,7.9199-3.1201,9.7607-14.0811h1.6797Zm-21.1201-9.2793h15.9199c0-7.2803-1.9199-14.5605-7.2803-14.5605-5.2002,0-7.9199,6.7197-8.6396,14.5605Z" style="fill:#4e3e33;"/><path d="M413.3213,394.1602c4.5596,0,5.2002-1.04,5.2002-6v-26.6406c0-5.041,.0801-5.9209-4.6406-4.001l-.6396-1.5996,8.6396-3.5205,1.04,.8809v6.7197h.2402c3.4404-4.4805,6.6406-7.6006,11.4404-7.6006,5.6797,0,8.0801,4.3203,8.0801,10.8008v24.9609c0,4.96,.5596,6,5.1201,6v1.6797h-14.5605v-1.6797c4.4805,0,5.04-1.04,5.04-6v-24.7207c0-4.8008-2-7.04-5.2803-7.04-3.8398,0-6.8799,2.6396-10.0801,6.3193v25.4414c0,4.96,.5605,6,5.04,6v1.6797h-14.6396v-1.6797Z" style="fill:#4e3e33;"/><path d="M451.2393,375.3594c0-12.8799,4.96-22.9609,14.1602-22.9609,6.0801,0,9.7607,4.4805,9.7607,9.8408,0,2.96-1.1201,4.5596-3.2002,4.5596-1.9199,0-2.7197-1.3594-2.7197-2.7998,0-1.2002,.5596-2.7197,.5596-4.4004,0-2.8799-1.6797-4.4795-4.4805-4.4795-6.7197,0-9.4395,9.3604-9.4395,18.5605,0,10.5596,3.5195,19.2803,9.8398,19.2803,3.4404,0,7.6807-3.04,9.04-14.1602h1.6807c-.7207,12.8799-6.0801,18.3203-12.1611,18.3203-8.3193,0-13.04-9.2002-13.04-21.7607Z" style="fill:#4e3e33;"/><path d="M506.5215,378.959c-1.2803,12.7207-6.4805,18.1611-12.8809,18.1611-8.2402,0-13.04-9.04-13.04-21.6807,0-12.7207,4.96-23.041,13.3604-23.041,7.6807,0,12.0801,8.0811,12.0801,20.001h-20.7998v1.5195c0,10.4805,3.5195,19.1211,9.8398,19.1211,3.6797,0,7.9199-3.1201,9.7607-14.0811h1.6797Zm-21.1211-9.2793h15.9209c0-7.2803-1.9199-14.5605-7.2803-14.5605-5.2002,0-7.9199,6.7197-8.6406,14.5605Z" style="fill:#4e3e33;"/></g></g></svg>