<svg xmlns="http://www.w3.org/2000/svg" xmlns:xlink="http://www.w3.org/1999/xlink" width="1200" zoomAndPan="magnify" viewBox="0 0 525 344.999992" height="1200" preserveAspectRatio="xMidYMid meet" version="1.0"><defs><g/><clipPath id="3934ce78fb"><path d="M 34.496094 0.566406 L 125.253906 0.566406 L 125.253906 337.71875 L 34.496094 337.71875 Z M 34.496094 0.566406 " clip-rule="nonzero"/></clipPath><clipPath id="d8ac406ef3"><path d="M 125.253906 272.929688 C 125.253906 308.671875 104.9375 337.644531 79.875 337.644531 C 54.8125 337.644531 34.496094 308.671875 34.496094 272.929688 L 34.496094 65.28125 C 34.496094 29.539062 54.8125 0.566406 79.875 0.566406 C 104.9375 0.566406 125.253906 29.539062 125.253906 65.28125 Z M 125.253906 272.929688 " clip-rule="nonzero"/></clipPath><clipPath id="36114e36ad"><path d="M 107.253906 0.566406 L 198.011719 0.566406 L 198.011719 337.71875 L 107.253906 337.71875 Z M 107.253906 0.566406 " clip-rule="nonzero"/></clipPath><clipPath id="51be791fe7"><path d="M 198.011719 272.929688 C 198.011719 308.671875 177.695312 337.644531 152.632812 337.644531 C 127.574219 337.644531 107.253906 308.671875 107.253906 272.929688 L 107.253906 65.28125 C 107.253906 29.539062 127.574219 0.566406 152.632812 0.566406 C 177.695312 0.566406 198.011719 29.539062 198.011719 65.28125 Z M 198.011719 272.929688 " clip-rule="nonzero"/></clipPath><clipPath id="116eb0a630"><path d="M 184.59375 0.566406 L 275.351562 0.566406 L 275.351562 337.71875 L 184.59375 337.71875 Z M 184.59375 0.566406 " clip-rule="nonzero"/></clipPath><clipPath id="8f20e11b96"><path d="M 275.351562 272.929688 C 275.351562 308.671875 255.035156 337.644531 229.972656 337.644531 C 204.910156 337.644531 184.59375 308.671875 184.59375 272.929688 L 184.59375 65.28125 C 184.59375 29.539062 204.910156 0.566406 229.972656 0.566406 C 255.035156 0.566406 275.351562 29.539062 275.351562 65.28125 Z M 275.351562 272.929688 " clip-rule="nonzero"/></clipPath><clipPath id="87694d725a"><path d="M 267.238281 0.566406 L 357.996094 0.566406 L 357.996094 337.71875 L 267.238281 337.71875 Z M 267.238281 0.566406 " clip-rule="nonzero"/></clipPath><clipPath id="99139fbce9"><path d="M 357.996094 272.929688 C 357.996094 308.671875 337.679688 337.644531 312.617188 337.644531 C 287.554688 337.644531 267.238281 308.671875 267.238281 272.929688 L 267.238281 65.28125 C 267.238281 29.539062 287.554688 0.566406 312.617188 0.566406 C 337.679688 0.566406 357.996094 29.539062 357.996094 65.28125 Z M 357.996094 272.929688 " clip-rule="nonzero"/></clipPath><clipPath id="ec1144b7e6"><path d="M 347.179688 0.566406 L 437.9375 0.566406 L 437.9375 337.71875 L 347.179688 337.71875 Z M 347.179688 0.566406 " clip-rule="nonzero"/></clipPath><clipPath id="c7747421e5"><path d="M 437.9375 272.929688 C 437.9375 308.671875 417.621094 337.644531 392.558594 337.644531 C 367.496094 337.644531 347.179688 308.671875 347.179688 272.929688 L 347.179688 65.28125 C 347.179688 29.539062 367.496094 0.566406 392.558594 0.566406 C 417.621094 0.566406 437.9375 29.539062 437.9375 65.28125 Z M 437.9375 272.929688 " clip-rule="nonzero"/></clipPath><clipPath id="9a67479791"><path d="M 427.402344 0.566406 L 518.160156 0.566406 L 518.160156 337.71875 L 427.402344 337.71875 Z M 427.402344 0.566406 " clip-rule="nonzero"/></clipPath><clipPath id="b33339d534"><path d="M 518.160156 272.929688 C 518.160156 308.671875 497.84375 337.644531 472.78125 337.644531 C 447.71875 337.644531 427.402344 308.671875 427.402344 272.929688 L 427.402344 65.28125 C 427.402344 29.539062 447.71875 0.566406 472.78125 0.566406 C 497.84375 0.566406 518.160156 29.539062 518.160156 65.28125 Z M 518.160156 272.929688 " clip-rule="nonzero"/></clipPath></defs><g clip-path="url(#3934ce78fb)"><g clip-path="url(#d8ac406ef3)"><path fill="#78c5f8" d="M 125.253906 0.566406 L 125.253906 337.71875 L 34.496094 337.71875 L 34.496094 0.566406 Z M 125.253906 0.566406 " fill-opacity="1" fill-rule="nonzero"/></g></g><g clip-path="url(#36114e36ad)"><g clip-path="url(#51be791fe7)"><path fill="#78c5f8" d="M 198.011719 0.566406 L 198.011719 337.71875 L 107.253906 337.71875 L 107.253906 0.566406 Z M 198.011719 0.566406 " fill-opacity="1" fill-rule="nonzero"/></g></g><g clip-path="url(#116eb0a630)"><g clip-path="url(#8f20e11b96)"><path fill="#78c5f8" d="M 275.351562 0.566406 L 275.351562 337.71875 L 184.59375 337.71875 L 184.59375 0.566406 Z M 275.351562 0.566406 " fill-opacity="1" fill-rule="nonzero"/></g></g><g clip-path="url(#87694d725a)"><g clip-path="url(#99139fbce9)"><path fill="#78c5f8" d="M 357.996094 0.566406 L 357.996094 337.71875 L 267.238281 337.71875 L 267.238281 0.566406 Z M 357.996094 0.566406 " fill-opacity="1" fill-rule="nonzero"/></g></g><g clip-path="url(#ec1144b7e6)"><g clip-path="url(#c7747421e5)"><path fill="#78c5f8" d="M 437.9375 0.566406 L 437.9375 337.71875 L 347.179688 337.71875 L 347.179688 0.566406 Z M 437.9375 0.566406 " fill-opacity="1" fill-rule="nonzero"/></g></g><g clip-path="url(#9a67479791)"><g clip-path="url(#b33339d534)"><path fill="#78c5f8" d="M 518.160156 0.566406 L 518.160156 337.71875 L 427.402344 337.71875 L 427.402344 0.566406 Z M 518.160156 0.566406 " fill-opacity="1" fill-rule="nonzero"/></g></g><g fill="#00bf63" fill-opacity="0.102"><g transform="translate(170.760192, 162.73288)"><g><path d="M 14.8125 -14.9375 C 14.757812 -16.269531 14.257812 -17.316406 13.3125 -18.078125 C 12.375 -18.835938 11.132812 -19.21875 9.59375 -19.21875 C 8.039062 -19.21875 6.847656 -18.898438 6.015625 -18.265625 C 5.179688 -17.628906 4.765625 -16.710938 4.765625 -15.515625 C 4.765625 -14.878906 4.945312 -14.332031 5.3125 -13.875 C 5.675781 -13.414062 6.328125 -13.070312 7.265625 -12.84375 L 13.296875 -11.46875 C 14.921875 -11.113281 16.125 -10.441406 16.90625 -9.453125 C 17.695312 -8.460938 18.09375 -7.253906 18.09375 -5.828125 C 18.09375 -3.742188 17.328125 -2.15625 15.796875 -1.0625 C 14.265625 0.0195312 12.273438 0.5625 9.828125 0.5625 C 7.953125 0.5625 6.476562 0.320312 5.40625 -0.15625 C 4.332031 -0.632812 3.378906 -1.394531 2.546875 -2.4375 C 1.710938 -3.476562 1.296875 -4.9375 1.296875 -6.8125 L 3.96875 -6.8125 C 3.96875 -5.25 4.488281 -4.035156 5.53125 -3.171875 C 6.570312 -2.304688 7.992188 -1.875 9.796875 -1.875 C 11.535156 -1.875 12.890625 -2.179688 13.859375 -2.796875 C 14.835938 -3.421875 15.328125 -4.300781 15.328125 -5.4375 C 15.328125 -6.476562 15.035156 -7.253906 14.453125 -7.765625 C 13.867188 -8.273438 12.738281 -8.726562 11.0625 -9.125 L 6.5 -10.1875 C 4.988281 -10.53125 3.859375 -11.128906 3.109375 -11.984375 C 2.367188 -12.835938 2 -13.890625 2 -15.140625 C 2 -17.035156 2.632812 -18.597656 3.90625 -19.828125 C 5.1875 -21.054688 6.972656 -21.671875 9.265625 -21.671875 C 11.847656 -21.671875 13.835938 -21.128906 15.234375 -20.046875 C 16.640625 -18.972656 17.394531 -17.269531 17.5 -14.9375 Z M 14.8125 -14.9375 "/></g></g></g><g fill="#00bf63" fill-opacity="0.102"><g transform="translate(192.639259, 162.73288)"><g><path d="M 17.96875 0 L 2.390625 0 L 2.390625 -21.109375 L 17.765625 -21.109375 L 17.765625 -18.578125 L 5.234375 -18.578125 L 5.234375 -12.125 L 16.78125 -12.125 L 16.78125 -9.59375 L 5.234375 -9.59375 L 5.234375 -2.53125 L 17.96875 -2.53125 Z M 17.96875 0 "/></g></g></g><g fill="#00bf63" fill-opacity="0.102"><g transform="translate(214.159415, 162.73288)"><g><path d="M 7.46875 -18.578125 L 0.359375 -18.578125 L 0.359375 -21.109375 L 17.5 -21.109375 L 17.5 -18.578125 L 10.328125 -18.578125 L 10.328125 0 L 7.46875 0 Z M 7.46875 -18.578125 "/></g></g></g><g fill="#00bf63" fill-opacity="0.102"><g transform="translate(234.430543, 162.73288)"><g><path d="M 7.46875 -18.578125 L 0.359375 -18.578125 L 0.359375 -21.109375 L 17.5 -21.109375 L 17.5 -18.578125 L 10.328125 -18.578125 L 10.328125 0 L 7.46875 0 Z M 7.46875 -18.578125 "/></g></g></g><g fill="#00bf63" fill-opacity="0.102"><g transform="translate(254.701668, 162.73288)"><g><path d="M 5.234375 0 L 2.390625 0 L 2.390625 -21.109375 L 5.234375 -21.109375 Z M 5.234375 0 "/></g></g></g><g fill="#00bf63" fill-opacity="0.102"><g transform="translate(264.693458, 162.73288)"><g><path d="M 16.359375 -21.109375 L 19.109375 -21.109375 L 19.109375 0 L 15.9375 0 L 5.171875 -17.0625 L 5.109375 -17.0625 L 5.109375 0 L 2.390625 0 L 2.390625 -21.109375 L 5.734375 -21.109375 L 16.296875 -4.0625 L 16.359375 -4.0625 Z M 16.359375 -21.109375 "/></g></g></g><g fill="#00bf63" fill-opacity="0.102"><g transform="translate(288.596816, 162.73288)"><g><path d="M 11.3125 -11.28125 L 20.59375 -11.28125 L 20.59375 0 L 18.734375 0 L 18.046875 -2.734375 C 17.148438 -1.578125 16.09375 -0.738281 14.875 -0.21875 C 13.65625 0.300781 12.390625 0.5625 11.078125 0.5625 C 8.960938 0.5625 7.191406 0.0976562 5.765625 -0.828125 C 4.347656 -1.753906 3.25 -3.03125 2.46875 -4.65625 C 1.6875 -6.28125 1.296875 -8.304688 1.296875 -10.734375 C 1.296875 -13.773438 2.195312 -16.359375 4 -18.484375 C 5.800781 -20.609375 8.226562 -21.671875 11.28125 -21.671875 C 13.5625 -21.671875 15.550781 -21.03125 17.25 -19.75 C 18.957031 -18.476562 19.953125 -16.796875 20.234375 -14.703125 L 17.46875 -14.703125 C 17.132812 -16.085938 16.425781 -17.171875 15.34375 -17.953125 C 14.269531 -18.742188 12.867188 -19.140625 11.140625 -19.140625 C 9.066406 -19.140625 7.394531 -18.351562 6.125 -16.78125 C 4.863281 -15.21875 4.234375 -13.148438 4.234375 -10.578125 C 4.234375 -7.585938 4.859375 -5.390625 6.109375 -3.984375 C 7.367188 -2.578125 9.082031 -1.875 11.25 -1.875 C 12.664062 -1.875 13.863281 -2.15625 14.84375 -2.71875 C 15.832031 -3.28125 16.585938 -4.039062 17.109375 -5 C 17.640625 -5.96875 17.90625 -7.25 17.90625 -8.84375 L 11.3125 -8.84375 Z M 11.3125 -11.28125 "/></g></g></g><g fill="#00bf63" fill-opacity="0.102"><g transform="translate(313.677412, 162.73288)"><g/></g></g><g fill="#00bf63" fill-opacity="0.102"><g transform="translate(321.802591, 162.73288)"><g><path d="M 7.46875 -18.578125 L 0.359375 -18.578125 L 0.359375 -21.109375 L 17.5 -21.109375 L 17.5 -18.578125 L 10.328125 -18.578125 L 10.328125 0 L 7.46875 0 Z M 7.46875 -18.578125 "/></g></g></g><g fill="#00bf63" fill-opacity="0.102"><g transform="translate(342.073715, 162.73288)"><g><path d="M 19.078125 0 L 16.21875 0 L 16.21875 -9.84375 L 5.203125 -9.84375 L 5.203125 0 L 2.390625 0 L 2.390625 -21.109375 L 5.203125 -21.109375 L 5.203125 -12.375 L 16.21875 -12.375 L 16.21875 -21.109375 L 19.078125 -21.109375 Z M 19.078125 0 "/></g></g></g><g fill="#00bf63" fill-opacity="0.102"><g transform="translate(365.948366, 162.73288)"><g><path d="M 17.96875 0 L 2.390625 0 L 2.390625 -21.109375 L 17.765625 -21.109375 L 17.765625 -18.578125 L 5.234375 -18.578125 L 5.234375 -12.125 L 16.78125 -12.125 L 16.78125 -9.59375 L 5.234375 -9.59375 L 5.234375 -2.53125 L 17.96875 -2.53125 Z M 17.96875 0 "/></g></g></g><g fill="#d2f6f1" fill-opacity="1"><g transform="translate(170.266783, 161.624653)"><g><path d="M 14.8125 -14.9375 C 14.757812 -16.269531 14.257812 -17.316406 13.3125 -18.078125 C 12.375 -18.835938 11.132812 -19.21875 9.59375 -19.21875 C 8.039062 -19.21875 6.847656 -18.898438 6.015625 -18.265625 C 5.179688 -17.628906 4.765625 -16.710938 4.765625 -15.515625 C 4.765625 -14.878906 4.945312 -14.332031 5.3125 -13.875 C 5.675781 -13.414062 6.328125 -13.070312 7.265625 -12.84375 L 13.296875 -11.46875 C 14.921875 -11.113281 16.125 -10.441406 16.90625 -9.453125 C 17.695312 -8.460938 18.09375 -7.253906 18.09375 -5.828125 C 18.09375 -3.742188 17.328125 -2.15625 15.796875 -1.0625 C 14.265625 0.0195312 12.273438 0.5625 9.828125 0.5625 C 7.953125 0.5625 6.476562 0.320312 5.40625 -0.15625 C 4.332031 -0.632812 3.378906 -1.394531 2.546875 -2.4375 C 1.710938 -3.476562 1.296875 -4.9375 1.296875 -6.8125 L 3.96875 -6.8125 C 3.96875 -5.25 4.488281 -4.035156 5.53125 -3.171875 C 6.570312 -2.304688 7.992188 -1.875 9.796875 -1.875 C 11.535156 -1.875 12.890625 -2.179688 13.859375 -2.796875 C 14.835938 -3.421875 15.328125 -4.300781 15.328125 -5.4375 C 15.328125 -6.476562 15.035156 -7.253906 14.453125 -7.765625 C 13.867188 -8.273438 12.738281 -8.726562 11.0625 -9.125 L 6.5 -10.1875 C 4.988281 -10.53125 3.859375 -11.128906 3.109375 -11.984375 C 2.367188 -12.835938 2 -13.890625 2 -15.140625 C 2 -17.035156 2.632812 -18.597656 3.90625 -19.828125 C 5.1875 -21.054688 6.972656 -21.671875 9.265625 -21.671875 C 11.847656 -21.671875 13.835938 -21.128906 15.234375 -20.046875 C 16.640625 -18.972656 17.394531 -17.269531 17.5 -14.9375 Z M 14.8125 -14.9375 "/></g></g></g><g fill="#d2f6f1" fill-opacity="1"><g transform="translate(192.14585, 161.624653)"><g><path d="M 17.96875 0 L 2.390625 0 L 2.390625 -21.109375 L 17.765625 -21.109375 L 17.765625 -18.578125 L 5.234375 -18.578125 L 5.234375 -12.125 L 16.78125 -12.125 L 16.78125 -9.59375 L 5.234375 -9.59375 L 5.234375 -2.53125 L 17.96875 -2.53125 Z M 17.96875 0 "/></g></g></g><g fill="#d2f6f1" fill-opacity="1"><g transform="translate(213.666007, 161.624653)"><g><path d="M 7.46875 -18.578125 L 0.359375 -18.578125 L 0.359375 -21.109375 L 17.5 -21.109375 L 17.5 -18.578125 L 10.328125 -18.578125 L 10.328125 0 L 7.46875 0 Z M 7.46875 -18.578125 "/></g></g></g><g fill="#d2f6f1" fill-opacity="1"><g transform="translate(233.937134, 161.624653)"><g><path d="M 7.46875 -18.578125 L 0.359375 -18.578125 L 0.359375 -21.109375 L 17.5 -21.109375 L 17.5 -18.578125 L 10.328125 -18.578125 L 10.328125 0 L 7.46875 0 Z M 7.46875 -18.578125 "/></g></g></g><g fill="#d2f6f1" fill-opacity="1"><g transform="translate(254.208259, 161.624653)"><g><path d="M 5.234375 0 L 2.390625 0 L 2.390625 -21.109375 L 5.234375 -21.109375 Z M 5.234375 0 "/></g></g></g><g fill="#d2f6f1" fill-opacity="1"><g transform="translate(264.200049, 161.624653)"><g><path d="M 16.359375 -21.109375 L 19.109375 -21.109375 L 19.109375 0 L 15.9375 0 L 5.171875 -17.0625 L 5.109375 -17.0625 L 5.109375 0 L 2.390625 0 L 2.390625 -21.109375 L 5.734375 -21.109375 L 16.296875 -4.0625 L 16.359375 -4.0625 Z M 16.359375 -21.109375 "/></g></g></g><g fill="#d2f6f1" fill-opacity="1"><g transform="translate(288.103408, 161.624653)"><g><path d="M 11.3125 -11.28125 L 20.59375 -11.28125 L 20.59375 0 L 18.734375 0 L 18.046875 -2.734375 C 17.148438 -1.578125 16.09375 -0.738281 14.875 -0.21875 C 13.65625 0.300781 12.390625 0.5625 11.078125 0.5625 C 8.960938 0.5625 7.191406 0.0976562 5.765625 -0.828125 C 4.347656 -1.753906 3.25 -3.03125 2.46875 -4.65625 C 1.6875 -6.28125 1.296875 -8.304688 1.296875 -10.734375 C 1.296875 -13.773438 2.195312 -16.359375 4 -18.484375 C 5.800781 -20.609375 8.226562 -21.671875 11.28125 -21.671875 C 13.5625 -21.671875 15.550781 -21.03125 17.25 -19.75 C 18.957031 -18.476562 19.953125 -16.796875 20.234375 -14.703125 L 17.46875 -14.703125 C 17.132812 -16.085938 16.425781 -17.171875 15.34375 -17.953125 C 14.269531 -18.742188 12.867188 -19.140625 11.140625 -19.140625 C 9.066406 -19.140625 7.394531 -18.351562 6.125 -16.78125 C 4.863281 -15.21875 4.234375 -13.148438 4.234375 -10.578125 C 4.234375 -7.585938 4.859375 -5.390625 6.109375 -3.984375 C 7.367188 -2.578125 9.082031 -1.875 11.25 -1.875 C 12.664062 -1.875 13.863281 -2.15625 14.84375 -2.71875 C 15.832031 -3.28125 16.585938 -4.039062 17.109375 -5 C 17.640625 -5.96875 17.90625 -7.25 17.90625 -8.84375 L 11.3125 -8.84375 Z M 11.3125 -11.28125 "/></g></g></g><g fill="#d2f6f1" fill-opacity="1"><g transform="translate(313.184003, 161.624653)"><g/></g></g><g fill="#d2f6f1" fill-opacity="1"><g transform="translate(321.309182, 161.624653)"><g><path d="M 7.46875 -18.578125 L 0.359375 -18.578125 L 0.359375 -21.109375 L 17.5 -21.109375 L 17.5 -18.578125 L 10.328125 -18.578125 L 10.328125 0 L 7.46875 0 Z M 7.46875 -18.578125 "/></g></g></g><g fill="#d2f6f1" fill-opacity="1"><g transform="translate(341.580306, 161.624653)"><g><path d="M 19.078125 0 L 16.21875 0 L 16.21875 -9.84375 L 5.203125 -9.84375 L 5.203125 0 L 2.390625 0 L 2.390625 -21.109375 L 5.203125 -21.109375 L 5.203125 -12.375 L 16.21875 -12.375 L 16.21875 -21.109375 L 19.078125 -21.109375 Z M 19.078125 0 "/></g></g></g><g fill="#d2f6f1" fill-opacity="1"><g transform="translate(365.454957, 161.624653)"><g><path d="M 17.96875 0 L 2.390625 0 L 2.390625 -21.109375 L 17.765625 -21.109375 L 17.765625 -18.578125 L 5.234375 -18.578125 L 5.234375 -12.125 L 16.78125 -12.125 L 16.78125 -9.59375 L 5.234375 -9.59375 L 5.234375 -2.53125 L 17.96875 -2.53125 Z M 17.96875 0 "/></g></g></g><g fill="#00bf63" fill-opacity="0.102"><g transform="translate(191.185972, 203.232877)"><g><path d="M 14.8125 -14.9375 C 14.757812 -16.269531 14.257812 -17.316406 13.3125 -18.078125 C 12.375 -18.835938 11.132812 -19.21875 9.59375 -19.21875 C 8.039062 -19.21875 6.847656 -18.898438 6.015625 -18.265625 C 5.179688 -17.628906 4.765625 -16.710938 4.765625 -15.515625 C 4.765625 -14.878906 4.945312 -14.332031 5.3125 -13.875 C 5.675781 -13.414062 6.328125 -13.070312 7.265625 -12.84375 L 13.296875 -11.46875 C 14.921875 -11.113281 16.125 -10.441406 16.90625 -9.453125 C 17.695312 -8.460938 18.09375 -7.253906 18.09375 -5.828125 C 18.09375 -3.742188 17.328125 -2.15625 15.796875 -1.0625 C 14.265625 0.0195312 12.273438 0.5625 9.828125 0.5625 C 7.953125 0.5625 6.476562 0.320312 5.40625 -0.15625 C 4.332031 -0.632812 3.378906 -1.394531 2.546875 -2.4375 C 1.710938 -3.476562 1.296875 -4.9375 1.296875 -6.8125 L 3.96875 -6.8125 C 3.96875 -5.25 4.488281 -4.035156 5.53125 -3.171875 C 6.570312 -2.304688 7.992188 -1.875 9.796875 -1.875 C 11.535156 -1.875 12.890625 -2.179688 13.859375 -2.796875 C 14.835938 -3.421875 15.328125 -4.300781 15.328125 -5.4375 C 15.328125 -6.476562 15.035156 -7.253906 14.453125 -7.765625 C 13.867188 -8.273438 12.738281 -8.726562 11.0625 -9.125 L 6.5 -10.1875 C 4.988281 -10.53125 3.859375 -11.128906 3.109375 -11.984375 C 2.367188 -12.835938 2 -13.890625 2 -15.140625 C 2 -17.035156 2.632812 -18.597656 3.90625 -19.828125 C 5.1875 -21.054688 6.972656 -21.671875 9.265625 -21.671875 C 11.847656 -21.671875 13.835938 -21.128906 15.234375 -20.046875 C 16.640625 -18.972656 17.394531 -17.269531 17.5 -14.9375 Z M 14.8125 -14.9375 "/></g></g></g><g fill="#00bf63" fill-opacity="0.102"><g transform="translate(212.275281, 203.232877)"><g><path d="M 7.46875 -18.578125 L 0.359375 -18.578125 L 0.359375 -21.109375 L 17.5 -21.109375 L 17.5 -18.578125 L 10.328125 -18.578125 L 10.328125 0 L 7.46875 0 Z M 7.46875 -18.578125 "/></g></g></g><g fill="#00bf63" fill-opacity="0.102"><g transform="translate(229.660219, 203.232877)"><g><path d="M 12.9375 -8.671875 L 9.828125 -17.96875 L 9.765625 -17.96875 L 6.375 -8.671875 Z M 5.5 -6.140625 L 3.28125 0 L 0.359375 0 L 8.296875 -21.109375 L 11.53125 -21.109375 L 19.171875 0 L 16.046875 0 L 13.96875 -6.140625 Z M 5.5 -6.140625 "/></g></g></g><g fill="#00bf63" fill-opacity="0.102"><g transform="translate(251.682853, 203.232877)"><g><path d="M 16.359375 -21.109375 L 19.109375 -21.109375 L 19.109375 0 L 15.9375 0 L 5.171875 -17.0625 L 5.109375 -17.0625 L 5.109375 0 L 2.390625 0 L 2.390625 -21.109375 L 5.734375 -21.109375 L 16.296875 -4.0625 L 16.359375 -4.0625 Z M 16.359375 -21.109375 "/></g></g></g><g fill="#00bf63" fill-opacity="0.102"><g transform="translate(275.586206, 203.232877)"><g><path d="M 5.234375 -2.4375 L 10.765625 -2.4375 C 12.679688 -2.4375 14.179688 -3.171875 15.265625 -4.640625 C 16.347656 -6.109375 16.890625 -8.117188 16.890625 -10.671875 C 16.890625 -13.179688 16.34375 -15.132812 15.25 -16.53125 C 14.15625 -17.9375 12.582031 -18.648438 10.53125 -18.671875 L 5.234375 -18.671875 Z M 2.390625 -21.109375 L 10.9375 -21.109375 C 13.707031 -21.109375 15.875 -20.15625 17.4375 -18.25 C 19 -16.351562 19.78125 -13.890625 19.78125 -10.859375 C 19.78125 -7.597656 19 -4.972656 17.4375 -2.984375 C 15.875 -0.992188 13.671875 0 10.828125 0 L 2.390625 0 Z M 2.390625 -21.109375 "/></g></g></g><g fill="#00bf63" fill-opacity="0.102"><g transform="translate(298.024984, 203.232877)"><g><path d="M 12.9375 -8.671875 L 9.828125 -17.96875 L 9.765625 -17.96875 L 6.375 -8.671875 Z M 5.5 -6.140625 L 3.28125 0 L 0.359375 0 L 8.296875 -21.109375 L 11.53125 -21.109375 L 19.171875 0 L 16.046875 0 L 13.96875 -6.140625 Z M 5.5 -6.140625 "/></g></g></g><g fill="#00bf63" fill-opacity="0.102"><g transform="translate(320.047615, 203.232877)"><g><path d="M 5.234375 -11.5 L 11.84375 -11.5 C 13.375 -11.5 14.472656 -11.8125 15.140625 -12.4375 C 15.804688 -13.0625 16.140625 -13.960938 16.140625 -15.140625 C 16.140625 -16.210938 15.851562 -17.066406 15.28125 -17.703125 C 14.707031 -18.347656 13.71875 -18.671875 12.3125 -18.671875 L 5.234375 -18.671875 Z M 5.234375 0 L 2.390625 0 L 2.390625 -21.109375 L 12.140625 -21.109375 C 14.410156 -21.109375 16.128906 -20.625 17.296875 -19.65625 C 18.460938 -18.6875 19.046875 -17.28125 19.046875 -15.4375 C 19.046875 -14.21875 18.8125 -13.203125 18.34375 -12.390625 C 17.875 -11.578125 17.140625 -10.90625 16.140625 -10.375 C 17.003906 -10.0625 17.625 -9.617188 18 -9.046875 C 18.382812 -8.484375 18.609375 -7.601562 18.671875 -6.40625 L 18.859375 -2.46875 C 18.867188 -1.820312 18.96875 -1.363281 19.15625 -1.09375 C 19.34375 -0.832031 19.601562 -0.625 19.9375 -0.46875 L 19.9375 0 L 16.40625 0 C 16.226562 -0.53125 16.097656 -1.328125 16.015625 -2.390625 C 15.941406 -3.460938 15.90625 -4.429688 15.90625 -5.296875 C 15.90625 -5.722656 15.863281 -6.160156 15.78125 -6.609375 C 15.707031 -7.066406 15.539062 -7.476562 15.28125 -7.84375 C 15.03125 -8.207031 14.65625 -8.5 14.15625 -8.71875 C 13.65625 -8.945312 12.984375 -9.0625 12.140625 -9.0625 L 5.234375 -9.0625 Z M 5.234375 0 "/></g></g></g><g fill="#00bf63" fill-opacity="0.102"><g transform="translate(343.448481, 203.232877)"><g><path d="M 5.234375 -2.4375 L 10.765625 -2.4375 C 12.679688 -2.4375 14.179688 -3.171875 15.265625 -4.640625 C 16.347656 -6.109375 16.890625 -8.117188 16.890625 -10.671875 C 16.890625 -13.179688 16.34375 -15.132812 15.25 -16.53125 C 14.15625 -17.9375 12.582031 -18.648438 10.53125 -18.671875 L 5.234375 -18.671875 Z M 2.390625 -21.109375 L 10.9375 -21.109375 C 13.707031 -21.109375 15.875 -20.15625 17.4375 -18.25 C 19 -16.351562 19.78125 -13.890625 19.78125 -10.859375 C 19.78125 -7.597656 19 -4.972656 17.4375 -2.984375 C 15.875 -0.992188 13.671875 0 10.828125 0 L 2.390625 0 Z M 2.390625 -21.109375 "/></g></g></g><g fill="#d2f6f1" fill-opacity="1"><g transform="translate(190.692563, 202.124651)"><g><path d="M 14.8125 -14.9375 C 14.757812 -16.269531 14.257812 -17.316406 13.3125 -18.078125 C 12.375 -18.835938 11.132812 -19.21875 9.59375 -19.21875 C 8.039062 -19.21875 6.847656 -18.898438 6.015625 -18.265625 C 5.179688 -17.628906 4.765625 -16.710938 4.765625 -15.515625 C 4.765625 -14.878906 4.945312 -14.332031 5.3125 -13.875 C 5.675781 -13.414062 6.328125 -13.070312 7.265625 -12.84375 L 13.296875 -11.46875 C 14.921875 -11.113281 16.125 -10.441406 16.90625 -9.453125 C 17.695312 -8.460938 18.09375 -7.253906 18.09375 -5.828125 C 18.09375 -3.742188 17.328125 -2.15625 15.796875 -1.0625 C 14.265625 0.0195312 12.273438 0.5625 9.828125 0.5625 C 7.953125 0.5625 6.476562 0.320312 5.40625 -0.15625 C 4.332031 -0.632812 3.378906 -1.394531 2.546875 -2.4375 C 1.710938 -3.476562 1.296875 -4.9375 1.296875 -6.8125 L 3.96875 -6.8125 C 3.96875 -5.25 4.488281 -4.035156 5.53125 -3.171875 C 6.570312 -2.304688 7.992188 -1.875 9.796875 -1.875 C 11.535156 -1.875 12.890625 -2.179688 13.859375 -2.796875 C 14.835938 -3.421875 15.328125 -4.300781 15.328125 -5.4375 C 15.328125 -6.476562 15.035156 -7.253906 14.453125 -7.765625 C 13.867188 -8.273438 12.738281 -8.726562 11.0625 -9.125 L 6.5 -10.1875 C 4.988281 -10.53125 3.859375 -11.128906 3.109375 -11.984375 C 2.367188 -12.835938 2 -13.890625 2 -15.140625 C 2 -17.035156 2.632812 -18.597656 3.90625 -19.828125 C 5.1875 -21.054688 6.972656 -21.671875 9.265625 -21.671875 C 11.847656 -21.671875 13.835938 -21.128906 15.234375 -20.046875 C 16.640625 -18.972656 17.394531 -17.269531 17.5 -14.9375 Z M 14.8125 -14.9375 "/></g></g></g><g fill="#d2f6f1" fill-opacity="1"><g transform="translate(211.781872, 202.124651)"><g><path d="M 7.46875 -18.578125 L 0.359375 -18.578125 L 0.359375 -21.109375 L 17.5 -21.109375 L 17.5 -18.578125 L 10.328125 -18.578125 L 10.328125 0 L 7.46875 0 Z M 7.46875 -18.578125 "/></g></g></g><g fill="#d2f6f1" fill-opacity="1"><g transform="translate(229.16681, 202.124651)"><g><path d="M 12.9375 -8.671875 L 9.828125 -17.96875 L 9.765625 -17.96875 L 6.375 -8.671875 Z M 5.5 -6.140625 L 3.28125 0 L 0.359375 0 L 8.296875 -21.109375 L 11.53125 -21.109375 L 19.171875 0 L 16.046875 0 L 13.96875 -6.140625 Z M 5.5 -6.140625 "/></g></g></g><g fill="#d2f6f1" fill-opacity="1"><g transform="translate(251.189444, 202.124651)"><g><path d="M 16.359375 -21.109375 L 19.109375 -21.109375 L 19.109375 0 L 15.9375 0 L 5.171875 -17.0625 L 5.109375 -17.0625 L 5.109375 0 L 2.390625 0 L 2.390625 -21.109375 L 5.734375 -21.109375 L 16.296875 -4.0625 L 16.359375 -4.0625 Z M 16.359375 -21.109375 "/></g></g></g><g fill="#d2f6f1" fill-opacity="1"><g transform="translate(275.092797, 202.124651)"><g><path d="M 5.234375 -2.4375 L 10.765625 -2.4375 C 12.679688 -2.4375 14.179688 -3.171875 15.265625 -4.640625 C 16.347656 -6.109375 16.890625 -8.117188 16.890625 -10.671875 C 16.890625 -13.179688 16.34375 -15.132812 15.25 -16.53125 C 14.15625 -17.9375 12.582031 -18.648438 10.53125 -18.671875 L 5.234375 -18.671875 Z M 2.390625 -21.109375 L 10.9375 -21.109375 C 13.707031 -21.109375 15.875 -20.15625 17.4375 -18.25 C 19 -16.351562 19.78125 -13.890625 19.78125 -10.859375 C 19.78125 -7.597656 19 -4.972656 17.4375 -2.984375 C 15.875 -0.992188 13.671875 0 10.828125 0 L 2.390625 0 Z M 2.390625 -21.109375 "/></g></g></g><g fill="#d2f6f1" fill-opacity="1"><g transform="translate(297.531575, 202.124651)"><g><path d="M 12.9375 -8.671875 L 9.828125 -17.96875 L 9.765625 -17.96875 L 6.375 -8.671875 Z M 5.5 -6.140625 L 3.28125 0 L 0.359375 0 L 8.296875 -21.109375 L 11.53125 -21.109375 L 19.171875 0 L 16.046875 0 L 13.96875 -6.140625 Z M 5.5 -6.140625 "/></g></g></g><g fill="#d2f6f1" fill-opacity="1"><g transform="translate(319.554207, 202.124651)"><g><path d="M 5.234375 -11.5 L 11.84375 -11.5 C 13.375 -11.5 14.472656 -11.8125 15.140625 -12.4375 C 15.804688 -13.0625 16.140625 -13.960938 16.140625 -15.140625 C 16.140625 -16.210938 15.851562 -17.066406 15.28125 -17.703125 C 14.707031 -18.347656 13.71875 -18.671875 12.3125 -18.671875 L 5.234375 -18.671875 Z M 5.234375 0 L 2.390625 0 L 2.390625 -21.109375 L 12.140625 -21.109375 C 14.410156 -21.109375 16.128906 -20.625 17.296875 -19.65625 C 18.460938 -18.6875 19.046875 -17.28125 19.046875 -15.4375 C 19.046875 -14.21875 18.8125 -13.203125 18.34375 -12.390625 C 17.875 -11.578125 17.140625 -10.90625 16.140625 -10.375 C 17.003906 -10.0625 17.625 -9.617188 18 -9.046875 C 18.382812 -8.484375 18.609375 -7.601562 18.671875 -6.40625 L 18.859375 -2.46875 C 18.867188 -1.820312 18.96875 -1.363281 19.15625 -1.09375 C 19.34375 -0.832031 19.601562 -0.625 19.9375 -0.46875 L 19.9375 0 L 16.40625 0 C 16.226562 -0.53125 16.097656 -1.328125 16.015625 -2.390625 C 15.941406 -3.460938 15.90625 -4.429688 15.90625 -5.296875 C 15.90625 -5.722656 15.863281 -6.160156 15.78125 -6.609375 C 15.707031 -7.066406 15.539062 -7.476562 15.28125 -7.84375 C 15.03125 -8.207031 14.65625 -8.5 14.15625 -8.71875 C 13.65625 -8.945312 12.984375 -9.0625 12.140625 -9.0625 L 5.234375 -9.0625 Z M 5.234375 0 "/></g></g></g><g fill="#d2f6f1" fill-opacity="1"><g transform="translate(342.955073, 202.124651)"><g><path d="M 5.234375 -2.4375 L 10.765625 -2.4375 C 12.679688 -2.4375 14.179688 -3.171875 15.265625 -4.640625 C 16.347656 -6.109375 16.890625 -8.117188 16.890625 -10.671875 C 16.890625 -13.179688 16.34375 -15.132812 15.25 -16.53125 C 14.15625 -17.9375 12.582031 -18.648438 10.53125 -18.671875 L 5.234375 -18.671875 Z M 2.390625 -21.109375 L 10.9375 -21.109375 C 13.707031 -21.109375 15.875 -20.15625 17.4375 -18.25 C 19 -16.351562 19.78125 -13.890625 19.78125 -10.859375 C 19.78125 -7.597656 19 -4.972656 17.4375 -2.984375 C 15.875 -0.992188 13.671875 0 10.828125 0 L 2.390625 0 Z M 2.390625 -21.109375 "/></g></g></g></svg>