<svg xmlns="http://www.w3.org/2000/svg" xmlns:xlink="http://www.w3.org/1999/xlink" width="1200" zoomAndPan="magnify" viewBox="0 0 525 344.999992" height="1200" preserveAspectRatio="xMidYMid meet" version="1.0"><defs><g/><clipPath id="47c83a947c"><path d="M 0 0 L 345.4375 0 L 345.4375 229.570312 L 0 229.570312 Z M 0 0 " clip-rule="nonzero"/></clipPath><clipPath id="6872849a1f"><path d="M 0 209.890625 L 525 209.890625 L 525 345 L 0 345 Z M 0 209.890625 " clip-rule="nonzero"/></clipPath><clipPath id="27a181a809"><path d="M 0 102.414062 L 431.011719 102.414062 L 431.011719 263.496094 L 0 263.496094 Z M 0 102.414062 " clip-rule="nonzero"/></clipPath></defs><g clip-path="url(#47c83a947c)"><path fill="#c6abd6" d="M 0 0 L 345.25 0 L 345.25 229.570312 L 0 229.570312 Z M 0 0 " fill-opacity="1" fill-rule="nonzero"/></g><g clip-path="url(#6872849a1f)"><path fill="#c6abd6" d="M 0 209.890625 L 524.828125 209.890625 L 524.828125 351.46875 L 0 351.46875 Z M 0 209.890625 " fill-opacity="1" fill-rule="nonzero"/></g><g clip-path="url(#27a181a809)"><path fill="#c6abd6" d="M -6.117188 102.414062 L 431.191406 102.414062 L 431.191406 263.496094 L -6.117188 263.496094 Z M -6.117188 102.414062 " fill-opacity="1" fill-rule="nonzero"/></g><g fill="#00bf63" fill-opacity="0.102"><g transform="translate(33.528572, 163.216181)"><g><path d="M 4.15625 -6.34375 C 4.15625 -5 4.554688 -3.898438 5.359375 -3.046875 C 6.160156 -2.191406 7.207031 -1.765625 8.5 -1.765625 C 9.738281 -1.765625 10.722656 -2.195312 11.453125 -3.0625 C 12.179688 -3.9375 12.546875 -5.082031 12.546875 -6.5 C 12.546875 -7.738281 12.179688 -8.773438 11.453125 -9.609375 C 10.734375 -10.441406 9.710938 -10.859375 8.390625 -10.859375 C 7.097656 -10.859375 6.066406 -10.453125 5.296875 -9.640625 C 4.535156 -8.828125 4.15625 -7.726562 4.15625 -6.34375 Z M 12.265625 -15.171875 C 12.066406 -16.222656 11.671875 -17.015625 11.078125 -17.546875 C 10.492188 -18.078125 9.703125 -18.34375 8.703125 -18.34375 C 7.109375 -18.34375 5.894531 -17.566406 5.0625 -16.015625 C 4.226562 -14.472656 3.804688 -12.703125 3.796875 -10.703125 L 3.84375 -10.640625 C 4.945312 -12.335938 6.585938 -13.1875 8.765625 -13.1875 C 10.492188 -13.1875 12.003906 -12.609375 13.296875 -11.453125 C 14.585938 -10.304688 15.234375 -8.695312 15.234375 -6.625 C 15.234375 -4.5625 14.617188 -2.847656 13.390625 -1.484375 C 12.171875 -0.117188 10.519531 0.5625 8.4375 0.5625 C 6.050781 0.5625 4.234375 -0.285156 2.984375 -1.984375 C 1.742188 -3.691406 1.125 -6.238281 1.125 -9.625 C 1.125 -12.875 1.757812 -15.523438 3.03125 -17.578125 C 4.300781 -19.640625 6.210938 -20.671875 8.765625 -20.671875 C 10.410156 -20.671875 11.800781 -20.179688 12.9375 -19.203125 C 14.070312 -18.222656 14.691406 -16.878906 14.796875 -15.171875 Z M 12.265625 -15.171875 "/></g></g></g><g fill="#00bf63" fill-opacity="0.102"><g transform="translate(52.291395, 163.216181)"><g><path d="M 12.484375 -10.046875 C 12.484375 -12.816406 12.117188 -14.890625 11.390625 -16.265625 C 10.660156 -17.648438 9.585938 -18.34375 8.171875 -18.34375 C 6.785156 -18.34375 5.71875 -17.648438 4.96875 -16.265625 C 4.21875 -14.890625 3.84375 -12.816406 3.84375 -10.046875 C 3.84375 -7.367188 4.210938 -5.316406 4.953125 -3.890625 C 5.691406 -2.472656 6.765625 -1.765625 8.171875 -1.765625 C 9.585938 -1.765625 10.660156 -2.453125 11.390625 -3.828125 C 12.117188 -5.203125 12.484375 -7.273438 12.484375 -10.046875 Z M 15.265625 -10.046875 C 15.265625 -6.660156 14.648438 -4.046875 13.421875 -2.203125 C 12.203125 -0.359375 10.453125 0.5625 8.171875 0.5625 C 5.804688 0.5625 4.035156 -0.390625 2.859375 -2.296875 C 1.679688 -4.210938 1.09375 -6.796875 1.09375 -10.046875 C 1.09375 -13.390625 1.691406 -15.992188 2.890625 -17.859375 C 4.097656 -19.734375 5.859375 -20.671875 8.171875 -20.671875 C 10.453125 -20.671875 12.203125 -19.738281 13.421875 -17.875 C 14.648438 -16.019531 15.265625 -13.410156 15.265625 -10.046875 Z M 15.265625 -10.046875 "/></g></g></g><g fill="#00bf63" fill-opacity="0.102"><g transform="translate(71.054218, 163.216181)"><g><path d="M 7.546875 -14.84375 L 9.703125 -14.84375 L 9.703125 -8.5 L 16.046875 -8.5 L 16.046875 -6.34375 L 9.703125 -6.34375 L 9.703125 0 L 7.546875 0 L 7.546875 -6.34375 L 1.171875 -6.34375 L 1.171875 -8.5 L 7.546875 -8.5 Z M 7.546875 -14.84375 "/></g></g></g><g fill="#00bf63" fill-opacity="0.102"><g transform="translate(90.692751, 163.216181)"><g/></g></g><g fill="#00bf63" fill-opacity="0.102"><g transform="translate(97.640542, 163.216181)"><g><path d="M 10.96875 0 L 8.109375 0 L 8.109375 -8.5 L 0.140625 -21.109375 L 3.46875 -21.109375 L 9.53125 -10.96875 L 15.578125 -21.109375 L 18.9375 -21.109375 L 10.96875 -8.5 Z M 10.96875 0 "/></g></g></g><g fill="#00bf63" fill-opacity="0.102"><g transform="translate(119.102263, 163.216181)"><g><path d="M 17.96875 0 L 2.390625 0 L 2.390625 -21.109375 L 17.765625 -21.109375 L 17.765625 -18.578125 L 5.234375 -18.578125 L 5.234375 -12.125 L 16.78125 -12.125 L 16.78125 -9.59375 L 5.234375 -9.59375 L 5.234375 -2.53125 L 17.96875 -2.53125 Z M 17.96875 0 "/></g></g></g><g fill="#00bf63" fill-opacity="0.102"><g transform="translate(140.621408, 163.216181)"><g><path d="M 12.9375 -8.671875 L 9.828125 -17.96875 L 9.765625 -17.96875 L 6.375 -8.671875 Z M 5.5 -6.140625 L 3.28125 0 L 0.359375 0 L 8.296875 -21.109375 L 11.53125 -21.109375 L 19.171875 0 L 16.046875 0 L 13.96875 -6.140625 Z M 5.5 -6.140625 "/></g></g></g><g fill="#00bf63" fill-opacity="0.102"><g transform="translate(162.643008, 163.216181)"><g><path d="M 5.234375 -11.5 L 11.84375 -11.5 C 13.375 -11.5 14.472656 -11.8125 15.140625 -12.4375 C 15.804688 -13.0625 16.140625 -13.960938 16.140625 -15.140625 C 16.140625 -16.210938 15.851562 -17.066406 15.28125 -17.703125 C 14.707031 -18.347656 13.71875 -18.671875 12.3125 -18.671875 L 5.234375 -18.671875 Z M 5.234375 0 L 2.390625 0 L 2.390625 -21.109375 L 12.140625 -21.109375 C 14.410156 -21.109375 16.128906 -20.625 17.296875 -19.65625 C 18.460938 -18.6875 19.046875 -17.28125 19.046875 -15.4375 C 19.046875 -14.21875 18.8125 -13.203125 18.34375 -12.390625 C 17.875 -11.578125 17.140625 -10.90625 16.140625 -10.375 C 17.003906 -10.0625 17.625 -9.617188 18 -9.046875 C 18.382812 -8.484375 18.609375 -7.601562 18.671875 -6.40625 L 18.859375 -2.46875 C 18.867188 -1.820312 18.96875 -1.363281 19.15625 -1.09375 C 19.34375 -0.832031 19.601562 -0.625 19.9375 -0.46875 L 19.9375 0 L 16.40625 0 C 16.226562 -0.53125 16.097656 -1.328125 16.015625 -2.390625 C 15.941406 -3.460938 15.90625 -4.429688 15.90625 -5.296875 C 15.90625 -5.722656 15.863281 -6.160156 15.78125 -6.609375 C 15.707031 -7.066406 15.539062 -7.476562 15.28125 -7.84375 C 15.03125 -8.207031 14.65625 -8.5 14.15625 -8.71875 C 13.65625 -8.945312 12.984375 -9.0625 12.140625 -9.0625 L 5.234375 -9.0625 Z M 5.234375 0 "/></g></g></g><g fill="#00bf63" fill-opacity="0.102"><g transform="translate(185.755632, 163.216181)"><g><path d="M 14.8125 -14.9375 C 14.757812 -16.269531 14.257812 -17.316406 13.3125 -18.078125 C 12.375 -18.835938 11.132812 -19.21875 9.59375 -19.21875 C 8.039062 -19.21875 6.847656 -18.898438 6.015625 -18.265625 C 5.179688 -17.628906 4.765625 -16.710938 4.765625 -15.515625 C 4.765625 -14.878906 4.945312 -14.332031 5.3125 -13.875 C 5.675781 -13.414062 6.328125 -13.070312 7.265625 -12.84375 L 13.296875 -11.46875 C 14.921875 -11.113281 16.125 -10.441406 16.90625 -9.453125 C 17.695312 -8.460938 18.09375 -7.253906 18.09375 -5.828125 C 18.09375 -3.742188 17.328125 -2.15625 15.796875 -1.0625 C 14.265625 0.0195312 12.273438 0.5625 9.828125 0.5625 C 7.953125 0.5625 6.476562 0.320312 5.40625 -0.15625 C 4.332031 -0.632812 3.378906 -1.394531 2.546875 -2.4375 C 1.710938 -3.476562 1.296875 -4.9375 1.296875 -6.8125 L 3.96875 -6.8125 C 3.96875 -5.25 4.488281 -4.035156 5.53125 -3.171875 C 6.570312 -2.304688 7.992188 -1.875 9.796875 -1.875 C 11.535156 -1.875 12.890625 -2.179688 13.859375 -2.796875 C 14.835938 -3.421875 15.328125 -4.300781 15.328125 -5.4375 C 15.328125 -6.476562 15.035156 -7.253906 14.453125 -7.765625 C 13.867188 -8.273438 12.738281 -8.726562 11.0625 -9.125 L 6.5 -10.1875 C 4.988281 -10.53125 3.859375 -11.128906 3.109375 -11.984375 C 2.367188 -12.835938 2 -13.890625 2 -15.140625 C 2 -17.035156 2.632812 -18.597656 3.90625 -19.828125 C 5.1875 -21.054688 6.972656 -21.671875 9.265625 -21.671875 C 11.847656 -21.671875 13.835938 -21.128906 15.234375 -20.046875 C 16.640625 -18.972656 17.394531 -17.269531 17.5 -14.9375 Z M 14.8125 -14.9375 "/></g></g></g><g fill="#00bf63" fill-opacity="0.102"><g transform="translate(207.633674, 163.216181)"><g/></g></g><g fill="#00bf63" fill-opacity="0.102"><g transform="translate(217.223101, 163.216181)"><g><path d="M 17.0625 -14.765625 C 16.738281 -16.203125 16.070312 -17.289062 15.0625 -18.03125 C 14.050781 -18.769531 12.742188 -19.140625 11.140625 -19.140625 C 9.066406 -19.140625 7.394531 -18.382812 6.125 -16.875 C 4.863281 -15.363281 4.234375 -13.328125 4.234375 -10.765625 C 4.234375 -7.796875 4.832031 -5.585938 6.03125 -4.140625 C 7.226562 -2.691406 8.960938 -1.96875 11.234375 -1.96875 C 12.722656 -1.96875 14.003906 -2.460938 15.078125 -3.453125 C 16.160156 -4.441406 16.890625 -5.878906 17.265625 -7.765625 L 20.03125 -7.765625 C 19.65625 -5.054688 18.625 -2.988281 16.9375 -1.5625 C 15.257812 -0.144531 13.210938 0.5625 10.796875 0.5625 C 7.910156 0.5625 5.601562 -0.425781 3.875 -2.40625 C 2.15625 -4.394531 1.296875 -7.148438 1.296875 -10.671875 C 1.296875 -14.066406 2.195312 -16.75 4 -18.71875 C 5.800781 -20.6875 8.179688 -21.671875 11.140625 -21.671875 C 13.585938 -21.671875 15.570312 -21.035156 17.09375 -19.765625 C 18.625 -18.503906 19.53125 -16.835938 19.8125 -14.765625 Z M 17.0625 -14.765625 "/></g></g></g><g fill="#00bf63" fill-opacity="0.102"><g transform="translate(240.895635, 163.216181)"><g><path d="M 18.796875 -10.546875 C 18.796875 -13.023438 18.140625 -15.078125 16.828125 -16.703125 C 15.523438 -18.328125 13.726562 -19.140625 11.4375 -19.140625 C 9.1875 -19.140625 7.398438 -18.328125 6.078125 -16.703125 C 4.753906 -15.078125 4.09375 -13.023438 4.09375 -10.546875 C 4.09375 -8.003906 4.757812 -5.9375 6.09375 -4.34375 C 7.4375 -2.757812 9.21875 -1.96875 11.4375 -1.96875 C 13.613281 -1.96875 15.382812 -2.742188 16.75 -4.296875 C 18.113281 -5.847656 18.796875 -7.929688 18.796875 -10.546875 Z M 21.71875 -10.546875 C 21.71875 -7.398438 20.804688 -4.757812 18.984375 -2.625 C 17.171875 -0.5 14.65625 0.5625 11.4375 0.5625 C 8.207031 0.5625 5.6875 -0.5 3.875 -2.625 C 2.0625 -4.757812 1.15625 -7.398438 1.15625 -10.546875 C 1.15625 -13.710938 2.0625 -16.359375 3.875 -18.484375 C 5.6875 -20.609375 8.207031 -21.671875 11.4375 -21.671875 C 14.75 -21.671875 17.289062 -20.585938 19.0625 -18.421875 C 20.832031 -16.253906 21.71875 -13.628906 21.71875 -10.546875 Z M 21.71875 -10.546875 "/></g></g></g><g fill="#00bf63" fill-opacity="0.102"><g transform="translate(266.176025, 163.216181)"><g><path d="M 19.84375 0 L 19.84375 -12.46875 C 19.84375 -12.625 19.851562 -13.414062 19.875 -14.84375 C 19.894531 -16.28125 19.90625 -17.242188 19.90625 -17.734375 L 19.8125 -17.734375 L 13.90625 0 L 11.078125 0 L 5.171875 -17.703125 L 5.078125 -17.703125 C 5.078125 -16.992188 5.085938 -15.984375 5.109375 -14.671875 C 5.128906 -13.359375 5.140625 -12.625 5.140625 -12.46875 L 5.140625 0 L 2.390625 0 L 2.390625 -21.109375 L 6.46875 -21.109375 L 12.46875 -3.265625 L 12.546875 -3.265625 L 18.515625 -21.109375 L 22.609375 -21.109375 L 22.609375 0 Z M 19.84375 0 "/></g></g></g><g fill="#00bf63" fill-opacity="0.102"><g transform="translate(293.581082, 163.216181)"><g><path d="M 2.390625 -21.109375 L 11.640625 -21.109375 C 13.460938 -21.109375 14.914062 -20.613281 16 -19.625 C 17.082031 -18.644531 17.625 -17.367188 17.625 -15.796875 C 17.625 -14.847656 17.382812 -13.984375 16.90625 -13.203125 C 16.4375 -12.421875 15.734375 -11.816406 14.796875 -11.390625 C 16.097656 -10.890625 17.054688 -10.226562 17.671875 -9.40625 C 18.296875 -8.582031 18.609375 -7.523438 18.609375 -6.234375 C 18.609375 -4.410156 17.953125 -2.914062 16.640625 -1.75 C 15.328125 -0.582031 13.59375 0 11.4375 0 L 2.390625 0 Z M 5.203125 -2.4375 L 11.28125 -2.4375 C 12.78125 -2.4375 13.898438 -2.78125 14.640625 -3.46875 C 15.390625 -4.164062 15.765625 -5.101562 15.765625 -6.28125 C 15.765625 -7.476562 15.347656 -8.367188 14.515625 -8.953125 C 13.679688 -9.546875 12.453125 -9.84375 10.828125 -9.84375 L 5.203125 -9.84375 Z M 5.203125 -12.171875 L 10.375 -12.171875 C 11.894531 -12.171875 13.003906 -12.445312 13.703125 -13 C 14.410156 -13.550781 14.765625 -14.410156 14.765625 -15.578125 C 14.765625 -16.585938 14.429688 -17.351562 13.765625 -17.875 C 13.097656 -18.40625 11.976562 -18.671875 10.40625 -18.671875 L 5.203125 -18.671875 Z M 5.203125 -12.171875 "/></g></g></g><g fill="#00bf63" fill-opacity="0.102"><g transform="translate(315.746252, 163.216181)"><g><path d="M 5.234375 0 L 2.390625 0 L 2.390625 -21.109375 L 5.234375 -21.109375 Z M 5.234375 0 "/></g></g></g><g fill="#00bf63" fill-opacity="0.102"><g transform="translate(325.737654, 163.216181)"><g><path d="M 16.359375 -21.109375 L 19.109375 -21.109375 L 19.109375 0 L 15.9375 0 L 5.171875 -17.0625 L 5.109375 -17.0625 L 5.109375 0 L 2.390625 0 L 2.390625 -21.109375 L 5.734375 -21.109375 L 16.296875 -4.0625 L 16.359375 -4.0625 Z M 16.359375 -21.109375 "/></g></g></g><g fill="#00bf63" fill-opacity="0.102"><g transform="translate(349.639881, 163.216181)"><g><path d="M 17.96875 0 L 2.390625 0 L 2.390625 -21.109375 L 17.765625 -21.109375 L 17.765625 -18.578125 L 5.234375 -18.578125 L 5.234375 -12.125 L 16.78125 -12.125 L 16.78125 -9.59375 L 5.234375 -9.59375 L 5.234375 -2.53125 L 17.96875 -2.53125 Z M 17.96875 0 "/></g></g></g><g fill="#00bf63" fill-opacity="0.102"><g transform="translate(371.159037, 163.216181)"><g><path d="M 5.234375 -2.4375 L 10.765625 -2.4375 C 12.679688 -2.4375 14.179688 -3.171875 15.265625 -4.640625 C 16.347656 -6.109375 16.890625 -8.117188 16.890625 -10.671875 C 16.890625 -13.179688 16.34375 -15.132812 15.25 -16.53125 C 14.15625 -17.9375 12.582031 -18.648438 10.53125 -18.671875 L 5.234375 -18.671875 Z M 2.390625 -21.109375 L 10.9375 -21.109375 C 13.707031 -21.109375 15.875 -20.15625 17.4375 -18.25 C 19 -16.351562 19.78125 -13.890625 19.78125 -10.859375 C 19.78125 -7.597656 19 -4.972656 17.4375 -2.984375 C 15.875 -0.992188 13.671875 0 10.828125 0 L 2.390625 0 Z M 2.390625 -21.109375 "/></g></g></g><g fill="#ffde59" fill-opacity="1"><g transform="translate(33.035158, 162.107955)"><g><path d="M 4.15625 -6.34375 C 4.15625 -5 4.554688 -3.898438 5.359375 -3.046875 C 6.160156 -2.191406 7.207031 -1.765625 8.5 -1.765625 C 9.738281 -1.765625 10.722656 -2.195312 11.453125 -3.0625 C 12.179688 -3.9375 12.546875 -5.082031 12.546875 -6.5 C 12.546875 -7.738281 12.179688 -8.773438 11.453125 -9.609375 C 10.734375 -10.441406 9.710938 -10.859375 8.390625 -10.859375 C 7.097656 -10.859375 6.066406 -10.453125 5.296875 -9.640625 C 4.535156 -8.828125 4.15625 -7.726562 4.15625 -6.34375 Z M 12.265625 -15.171875 C 12.066406 -16.222656 11.671875 -17.015625 11.078125 -17.546875 C 10.492188 -18.078125 9.703125 -18.34375 8.703125 -18.34375 C 7.109375 -18.34375 5.894531 -17.566406 5.0625 -16.015625 C 4.226562 -14.472656 3.804688 -12.703125 3.796875 -10.703125 L 3.84375 -10.640625 C 4.945312 -12.335938 6.585938 -13.1875 8.765625 -13.1875 C 10.492188 -13.1875 12.003906 -12.609375 13.296875 -11.453125 C 14.585938 -10.304688 15.234375 -8.695312 15.234375 -6.625 C 15.234375 -4.5625 14.617188 -2.847656 13.390625 -1.484375 C 12.171875 -0.117188 10.519531 0.5625 8.4375 0.5625 C 6.050781 0.5625 4.234375 -0.285156 2.984375 -1.984375 C 1.742188 -3.691406 1.125 -6.238281 1.125 -9.625 C 1.125 -12.875 1.757812 -15.523438 3.03125 -17.578125 C 4.300781 -19.640625 6.210938 -20.671875 8.765625 -20.671875 C 10.410156 -20.671875 11.800781 -20.179688 12.9375 -19.203125 C 14.070312 -18.222656 14.691406 -16.878906 14.796875 -15.171875 Z M 12.265625 -15.171875 "/></g></g></g><g fill="#ffde59" fill-opacity="1"><g transform="translate(51.797981, 162.107955)"><g><path d="M 12.484375 -10.046875 C 12.484375 -12.816406 12.117188 -14.890625 11.390625 -16.265625 C 10.660156 -17.648438 9.585938 -18.34375 8.171875 -18.34375 C 6.785156 -18.34375 5.71875 -17.648438 4.96875 -16.265625 C 4.21875 -14.890625 3.84375 -12.816406 3.84375 -10.046875 C 3.84375 -7.367188 4.210938 -5.316406 4.953125 -3.890625 C 5.691406 -2.472656 6.765625 -1.765625 8.171875 -1.765625 C 9.585938 -1.765625 10.660156 -2.453125 11.390625 -3.828125 C 12.117188 -5.203125 12.484375 -7.273438 12.484375 -10.046875 Z M 15.265625 -10.046875 C 15.265625 -6.660156 14.648438 -4.046875 13.421875 -2.203125 C 12.203125 -0.359375 10.453125 0.5625 8.171875 0.5625 C 5.804688 0.5625 4.035156 -0.390625 2.859375 -2.296875 C 1.679688 -4.210938 1.09375 -6.796875 1.09375 -10.046875 C 1.09375 -13.390625 1.691406 -15.992188 2.890625 -17.859375 C 4.097656 -19.734375 5.859375 -20.671875 8.171875 -20.671875 C 10.453125 -20.671875 12.203125 -19.738281 13.421875 -17.875 C 14.648438 -16.019531 15.265625 -13.410156 15.265625 -10.046875 Z M 15.265625 -10.046875 "/></g></g></g><g fill="#ffde59" fill-opacity="1"><g transform="translate(70.560804, 162.107955)"><g><path d="M 7.546875 -14.84375 L 9.703125 -14.84375 L 9.703125 -8.5 L 16.046875 -8.5 L 16.046875 -6.34375 L 9.703125 -6.34375 L 9.703125 0 L 7.546875 0 L 7.546875 -6.34375 L 1.171875 -6.34375 L 1.171875 -8.5 L 7.546875 -8.5 Z M 7.546875 -14.84375 "/></g></g></g><g fill="#ffde59" fill-opacity="1"><g transform="translate(90.199336, 162.107955)"><g/></g></g><g fill="#ffde59" fill-opacity="1"><g transform="translate(97.147127, 162.107955)"><g><path d="M 10.96875 0 L 8.109375 0 L 8.109375 -8.5 L 0.140625 -21.109375 L 3.46875 -21.109375 L 9.53125 -10.96875 L 15.578125 -21.109375 L 18.9375 -21.109375 L 10.96875 -8.5 Z M 10.96875 0 "/></g></g></g><g fill="#ffde59" fill-opacity="1"><g transform="translate(118.608849, 162.107955)"><g><path d="M 17.96875 0 L 2.390625 0 L 2.390625 -21.109375 L 17.765625 -21.109375 L 17.765625 -18.578125 L 5.234375 -18.578125 L 5.234375 -12.125 L 16.78125 -12.125 L 16.78125 -9.59375 L 5.234375 -9.59375 L 5.234375 -2.53125 L 17.96875 -2.53125 Z M 17.96875 0 "/></g></g></g><g fill="#ffde59" fill-opacity="1"><g transform="translate(140.127994, 162.107955)"><g><path d="M 12.9375 -8.671875 L 9.828125 -17.96875 L 9.765625 -17.96875 L 6.375 -8.671875 Z M 5.5 -6.140625 L 3.28125 0 L 0.359375 0 L 8.296875 -21.109375 L 11.53125 -21.109375 L 19.171875 0 L 16.046875 0 L 13.96875 -6.140625 Z M 5.5 -6.140625 "/></g></g></g><g fill="#ffde59" fill-opacity="1"><g transform="translate(162.149594, 162.107955)"><g><path d="M 5.234375 -11.5 L 11.84375 -11.5 C 13.375 -11.5 14.472656 -11.8125 15.140625 -12.4375 C 15.804688 -13.0625 16.140625 -13.960938 16.140625 -15.140625 C 16.140625 -16.210938 15.851562 -17.066406 15.28125 -17.703125 C 14.707031 -18.347656 13.71875 -18.671875 12.3125 -18.671875 L 5.234375 -18.671875 Z M 5.234375 0 L 2.390625 0 L 2.390625 -21.109375 L 12.140625 -21.109375 C 14.410156 -21.109375 16.128906 -20.625 17.296875 -19.65625 C 18.460938 -18.6875 19.046875 -17.28125 19.046875 -15.4375 C 19.046875 -14.21875 18.8125 -13.203125 18.34375 -12.390625 C 17.875 -11.578125 17.140625 -10.90625 16.140625 -10.375 C 17.003906 -10.0625 17.625 -9.617188 18 -9.046875 C 18.382812 -8.484375 18.609375 -7.601562 18.671875 -6.40625 L 18.859375 -2.46875 C 18.867188 -1.820312 18.96875 -1.363281 19.15625 -1.09375 C 19.34375 -0.832031 19.601562 -0.625 19.9375 -0.46875 L 19.9375 0 L 16.40625 0 C 16.226562 -0.53125 16.097656 -1.328125 16.015625 -2.390625 C 15.941406 -3.460938 15.90625 -4.429688 15.90625 -5.296875 C 15.90625 -5.722656 15.863281 -6.160156 15.78125 -6.609375 C 15.707031 -7.066406 15.539062 -7.476562 15.28125 -7.84375 C 15.03125 -8.207031 14.65625 -8.5 14.15625 -8.71875 C 13.65625 -8.945312 12.984375 -9.0625 12.140625 -9.0625 L 5.234375 -9.0625 Z M 5.234375 0 "/></g></g></g><g fill="#ffde59" fill-opacity="1"><g transform="translate(185.262218, 162.107955)"><g><path d="M 14.8125 -14.9375 C 14.757812 -16.269531 14.257812 -17.316406 13.3125 -18.078125 C 12.375 -18.835938 11.132812 -19.21875 9.59375 -19.21875 C 8.039062 -19.21875 6.847656 -18.898438 6.015625 -18.265625 C 5.179688 -17.628906 4.765625 -16.710938 4.765625 -15.515625 C 4.765625 -14.878906 4.945312 -14.332031 5.3125 -13.875 C 5.675781 -13.414062 6.328125 -13.070312 7.265625 -12.84375 L 13.296875 -11.46875 C 14.921875 -11.113281 16.125 -10.441406 16.90625 -9.453125 C 17.695312 -8.460938 18.09375 -7.253906 18.09375 -5.828125 C 18.09375 -3.742188 17.328125 -2.15625 15.796875 -1.0625 C 14.265625 0.0195312 12.273438 0.5625 9.828125 0.5625 C 7.953125 0.5625 6.476562 0.320312 5.40625 -0.15625 C 4.332031 -0.632812 3.378906 -1.394531 2.546875 -2.4375 C 1.710938 -3.476562 1.296875 -4.9375 1.296875 -6.8125 L 3.96875 -6.8125 C 3.96875 -5.25 4.488281 -4.035156 5.53125 -3.171875 C 6.570312 -2.304688 7.992188 -1.875 9.796875 -1.875 C 11.535156 -1.875 12.890625 -2.179688 13.859375 -2.796875 C 14.835938 -3.421875 15.328125 -4.300781 15.328125 -5.4375 C 15.328125 -6.476562 15.035156 -7.253906 14.453125 -7.765625 C 13.867188 -8.273438 12.738281 -8.726562 11.0625 -9.125 L 6.5 -10.1875 C 4.988281 -10.53125 3.859375 -11.128906 3.109375 -11.984375 C 2.367188 -12.835938 2 -13.890625 2 -15.140625 C 2 -17.035156 2.632812 -18.597656 3.90625 -19.828125 C 5.1875 -21.054688 6.972656 -21.671875 9.265625 -21.671875 C 11.847656 -21.671875 13.835938 -21.128906 15.234375 -20.046875 C 16.640625 -18.972656 17.394531 -17.269531 17.5 -14.9375 Z M 14.8125 -14.9375 "/></g></g></g><g fill="#ffde59" fill-opacity="1"><g transform="translate(207.14026, 162.107955)"><g/></g></g><g fill="#ffde59" fill-opacity="1"><g transform="translate(216.729687, 162.107955)"><g><path d="M 17.0625 -14.765625 C 16.738281 -16.203125 16.070312 -17.289062 15.0625 -18.03125 C 14.050781 -18.769531 12.742188 -19.140625 11.140625 -19.140625 C 9.066406 -19.140625 7.394531 -18.382812 6.125 -16.875 C 4.863281 -15.363281 4.234375 -13.328125 4.234375 -10.765625 C 4.234375 -7.796875 4.832031 -5.585938 6.03125 -4.140625 C 7.226562 -2.691406 8.960938 -1.96875 11.234375 -1.96875 C 12.722656 -1.96875 14.003906 -2.460938 15.078125 -3.453125 C 16.160156 -4.441406 16.890625 -5.878906 17.265625 -7.765625 L 20.03125 -7.765625 C 19.65625 -5.054688 18.625 -2.988281 16.9375 -1.5625 C 15.257812 -0.144531 13.210938 0.5625 10.796875 0.5625 C 7.910156 0.5625 5.601562 -0.425781 3.875 -2.40625 C 2.15625 -4.394531 1.296875 -7.148438 1.296875 -10.671875 C 1.296875 -14.066406 2.195312 -16.75 4 -18.71875 C 5.800781 -20.6875 8.179688 -21.671875 11.140625 -21.671875 C 13.585938 -21.671875 15.570312 -21.035156 17.09375 -19.765625 C 18.625 -18.503906 19.53125 -16.835938 19.8125 -14.765625 Z M 17.0625 -14.765625 "/></g></g></g><g fill="#ffde59" fill-opacity="1"><g transform="translate(240.402221, 162.107955)"><g><path d="M 18.796875 -10.546875 C 18.796875 -13.023438 18.140625 -15.078125 16.828125 -16.703125 C 15.523438 -18.328125 13.726562 -19.140625 11.4375 -19.140625 C 9.1875 -19.140625 7.398438 -18.328125 6.078125 -16.703125 C 4.753906 -15.078125 4.09375 -13.023438 4.09375 -10.546875 C 4.09375 -8.003906 4.757812 -5.9375 6.09375 -4.34375 C 7.4375 -2.757812 9.21875 -1.96875 11.4375 -1.96875 C 13.613281 -1.96875 15.382812 -2.742188 16.75 -4.296875 C 18.113281 -5.847656 18.796875 -7.929688 18.796875 -10.546875 Z M 21.71875 -10.546875 C 21.71875 -7.398438 20.804688 -4.757812 18.984375 -2.625 C 17.171875 -0.5 14.65625 0.5625 11.4375 0.5625 C 8.207031 0.5625 5.6875 -0.5 3.875 -2.625 C 2.0625 -4.757812 1.15625 -7.398438 1.15625 -10.546875 C 1.15625 -13.710938 2.0625 -16.359375 3.875 -18.484375 C 5.6875 -20.609375 8.207031 -21.671875 11.4375 -21.671875 C 14.75 -21.671875 17.289062 -20.585938 19.0625 -18.421875 C 20.832031 -16.253906 21.71875 -13.628906 21.71875 -10.546875 Z M 21.71875 -10.546875 "/></g></g></g><g fill="#ffde59" fill-opacity="1"><g transform="translate(265.682611, 162.107955)"><g><path d="M 19.84375 0 L 19.84375 -12.46875 C 19.84375 -12.625 19.851562 -13.414062 19.875 -14.84375 C 19.894531 -16.28125 19.90625 -17.242188 19.90625 -17.734375 L 19.8125 -17.734375 L 13.90625 0 L 11.078125 0 L 5.171875 -17.703125 L 5.078125 -17.703125 C 5.078125 -16.992188 5.085938 -15.984375 5.109375 -14.671875 C 5.128906 -13.359375 5.140625 -12.625 5.140625 -12.46875 L 5.140625 0 L 2.390625 0 L 2.390625 -21.109375 L 6.46875 -21.109375 L 12.46875 -3.265625 L 12.546875 -3.265625 L 18.515625 -21.109375 L 22.609375 -21.109375 L 22.609375 0 Z M 19.84375 0 "/></g></g></g><g fill="#ffde59" fill-opacity="1"><g transform="translate(293.087668, 162.107955)"><g><path d="M 2.390625 -21.109375 L 11.640625 -21.109375 C 13.460938 -21.109375 14.914062 -20.613281 16 -19.625 C 17.082031 -18.644531 17.625 -17.367188 17.625 -15.796875 C 17.625 -14.847656 17.382812 -13.984375 16.90625 -13.203125 C 16.4375 -12.421875 15.734375 -11.816406 14.796875 -11.390625 C 16.097656 -10.890625 17.054688 -10.226562 17.671875 -9.40625 C 18.296875 -8.582031 18.609375 -7.523438 18.609375 -6.234375 C 18.609375 -4.410156 17.953125 -2.914062 16.640625 -1.75 C 15.328125 -0.582031 13.59375 0 11.4375 0 L 2.390625 0 Z M 5.203125 -2.4375 L 11.28125 -2.4375 C 12.78125 -2.4375 13.898438 -2.78125 14.640625 -3.46875 C 15.390625 -4.164062 15.765625 -5.101562 15.765625 -6.28125 C 15.765625 -7.476562 15.347656 -8.367188 14.515625 -8.953125 C 13.679688 -9.546875 12.453125 -9.84375 10.828125 -9.84375 L 5.203125 -9.84375 Z M 5.203125 -12.171875 L 10.375 -12.171875 C 11.894531 -12.171875 13.003906 -12.445312 13.703125 -13 C 14.410156 -13.550781 14.765625 -14.410156 14.765625 -15.578125 C 14.765625 -16.585938 14.429688 -17.351562 13.765625 -17.875 C 13.097656 -18.40625 11.976562 -18.671875 10.40625 -18.671875 L 5.203125 -18.671875 Z M 5.203125 -12.171875 "/></g></g></g><g fill="#ffde59" fill-opacity="1"><g transform="translate(315.252837, 162.107955)"><g><path d="M 5.234375 0 L 2.390625 0 L 2.390625 -21.109375 L 5.234375 -21.109375 Z M 5.234375 0 "/></g></g></g><g fill="#ffde59" fill-opacity="1"><g transform="translate(325.244239, 162.107955)"><g><path d="M 16.359375 -21.109375 L 19.109375 -21.109375 L 19.109375 0 L 15.9375 0 L 5.171875 -17.0625 L 5.109375 -17.0625 L 5.109375 0 L 2.390625 0 L 2.390625 -21.109375 L 5.734375 -21.109375 L 16.296875 -4.0625 L 16.359375 -4.0625 Z M 16.359375 -21.109375 "/></g></g></g><g fill="#ffde59" fill-opacity="1"><g transform="translate(349.146467, 162.107955)"><g><path d="M 17.96875 0 L 2.390625 0 L 2.390625 -21.109375 L 17.765625 -21.109375 L 17.765625 -18.578125 L 5.234375 -18.578125 L 5.234375 -12.125 L 16.78125 -12.125 L 16.78125 -9.59375 L 5.234375 -9.59375 L 5.234375 -2.53125 L 17.96875 -2.53125 Z M 17.96875 0 "/></g></g></g><g fill="#ffde59" fill-opacity="1"><g transform="translate(370.665622, 162.107955)"><g><path d="M 5.234375 -2.4375 L 10.765625 -2.4375 C 12.679688 -2.4375 14.179688 -3.171875 15.265625 -4.640625 C 16.347656 -6.109375 16.890625 -8.117188 16.890625 -10.671875 C 16.890625 -13.179688 16.34375 -15.132812 15.25 -16.53125 C 14.15625 -17.9375 12.582031 -18.648438 10.53125 -18.671875 L 5.234375 -18.671875 Z M 2.390625 -21.109375 L 10.9375 -21.109375 C 13.707031 -21.109375 15.875 -20.15625 17.4375 -18.25 C 19 -16.351562 19.78125 -13.890625 19.78125 -10.859375 C 19.78125 -7.597656 19 -4.972656 17.4375 -2.984375 C 15.875 -0.992188 13.671875 0 10.828125 0 L 2.390625 0 Z M 2.390625 -21.109375 "/></g></g></g><g fill="#00bf63" fill-opacity="0.102"><g transform="translate(108.979069, 204.091515)"><g><path d="M 17.96875 0 L 2.390625 0 L 2.390625 -21.109375 L 17.765625 -21.109375 L 17.765625 -18.578125 L 5.234375 -18.578125 L 5.234375 -12.125 L 16.78125 -12.125 L 16.78125 -9.59375 L 5.234375 -9.59375 L 5.234375 -2.53125 L 17.96875 -2.53125 Z M 17.96875 0 "/></g></g></g><g fill="#00bf63" fill-opacity="0.102"><g transform="translate(130.498217, 204.091515)"><g><path d="M 18.90625 0 L 15.375 0 L 9.703125 -8.671875 L 3.84375 0 L 0.421875 0 L 7.96875 -10.828125 L 0.875 -21.109375 L 4.46875 -21.109375 L 9.828125 -13.015625 L 15.171875 -21.109375 L 18.578125 -21.109375 L 11.5 -10.828125 Z M 18.90625 0 "/></g></g></g><g fill="#00bf63" fill-opacity="0.102"><g transform="translate(152.347549, 204.091515)"><g><path d="M 5.234375 -11.359375 L 10.90625 -11.359375 C 12.332031 -11.359375 13.40625 -11.671875 14.125 -12.296875 C 14.84375 -12.921875 15.203125 -13.867188 15.203125 -15.140625 C 15.203125 -16.285156 14.859375 -17.160156 14.171875 -17.765625 C 13.484375 -18.367188 12.4375 -18.671875 11.03125 -18.671875 L 5.234375 -18.671875 Z M 5.234375 0 L 2.390625 0 L 2.390625 -21.109375 L 11.875 -21.109375 C 13.757812 -21.109375 15.273438 -20.554688 16.421875 -19.453125 C 17.578125 -18.359375 18.15625 -16.929688 18.15625 -15.171875 C 18.15625 -13.347656 17.597656 -11.847656 16.484375 -10.671875 C 15.367188 -9.503906 13.832031 -8.921875 11.875 -8.921875 L 5.234375 -8.921875 Z M 5.234375 0 "/></g></g></g><g fill="#00bf63" fill-opacity="0.102"><g transform="translate(173.766208, 204.091515)"><g><path d="M 17.96875 0 L 2.390625 0 L 2.390625 -21.109375 L 17.765625 -21.109375 L 17.765625 -18.578125 L 5.234375 -18.578125 L 5.234375 -12.125 L 16.78125 -12.125 L 16.78125 -9.59375 L 5.234375 -9.59375 L 5.234375 -2.53125 L 17.96875 -2.53125 Z M 17.96875 0 "/></g></g></g><g fill="#00bf63" fill-opacity="0.102"><g transform="translate(195.285353, 204.091515)"><g><path d="M 5.234375 -11.5 L 11.84375 -11.5 C 13.375 -11.5 14.472656 -11.8125 15.140625 -12.4375 C 15.804688 -13.0625 16.140625 -13.960938 16.140625 -15.140625 C 16.140625 -16.210938 15.851562 -17.066406 15.28125 -17.703125 C 14.707031 -18.347656 13.71875 -18.671875 12.3125 -18.671875 L 5.234375 -18.671875 Z M 5.234375 0 L 2.390625 0 L 2.390625 -21.109375 L 12.140625 -21.109375 C 14.410156 -21.109375 16.128906 -20.625 17.296875 -19.65625 C 18.460938 -18.6875 19.046875 -17.28125 19.046875 -15.4375 C 19.046875 -14.21875 18.8125 -13.203125 18.34375 -12.390625 C 17.875 -11.578125 17.140625 -10.90625 16.140625 -10.375 C 17.003906 -10.0625 17.625 -9.617188 18 -9.046875 C 18.382812 -8.484375 18.609375 -7.601562 18.671875 -6.40625 L 18.859375 -2.46875 C 18.867188 -1.820312 18.96875 -1.363281 19.15625 -1.09375 C 19.34375 -0.832031 19.601562 -0.625 19.9375 -0.46875 L 19.9375 0 L 16.40625 0 C 16.226562 -0.53125 16.097656 -1.328125 16.015625 -2.390625 C 15.941406 -3.460938 15.90625 -4.429688 15.90625 -5.296875 C 15.90625 -5.722656 15.863281 -6.160156 15.78125 -6.609375 C 15.707031 -7.066406 15.539062 -7.476562 15.28125 -7.84375 C 15.03125 -8.207031 14.65625 -8.5 14.15625 -8.71875 C 13.65625 -8.945312 12.984375 -9.0625 12.140625 -9.0625 L 5.234375 -9.0625 Z M 5.234375 0 "/></g></g></g><g fill="#00bf63" fill-opacity="0.102"><g transform="translate(218.685116, 204.091515)"><g><path d="M 5.234375 0 L 2.390625 0 L 2.390625 -21.109375 L 5.234375 -21.109375 Z M 5.234375 0 "/></g></g></g><g fill="#00bf63" fill-opacity="0.102"><g transform="translate(228.676507, 204.091515)"><g><path d="M 17.96875 0 L 2.390625 0 L 2.390625 -21.109375 L 17.765625 -21.109375 L 17.765625 -18.578125 L 5.234375 -18.578125 L 5.234375 -12.125 L 16.78125 -12.125 L 16.78125 -9.59375 L 5.234375 -9.59375 L 5.234375 -2.53125 L 17.96875 -2.53125 Z M 17.96875 0 "/></g></g></g><g fill="#00bf63" fill-opacity="0.102"><g transform="translate(250.195652, 204.091515)"><g><path d="M 16.359375 -21.109375 L 19.109375 -21.109375 L 19.109375 0 L 15.9375 0 L 5.171875 -17.0625 L 5.109375 -17.0625 L 5.109375 0 L 2.390625 0 L 2.390625 -21.109375 L 5.734375 -21.109375 L 16.296875 -4.0625 L 16.359375 -4.0625 Z M 16.359375 -21.109375 "/></g></g></g><g fill="#00bf63" fill-opacity="0.102"><g transform="translate(274.097869, 204.091515)"><g><path d="M 17.0625 -14.765625 C 16.738281 -16.203125 16.070312 -17.289062 15.0625 -18.03125 C 14.050781 -18.769531 12.742188 -19.140625 11.140625 -19.140625 C 9.066406 -19.140625 7.394531 -18.382812 6.125 -16.875 C 4.863281 -15.363281 4.234375 -13.328125 4.234375 -10.765625 C 4.234375 -7.796875 4.832031 -5.585938 6.03125 -4.140625 C 7.226562 -2.691406 8.960938 -1.96875 11.234375 -1.96875 C 12.722656 -1.96875 14.003906 -2.460938 15.078125 -3.453125 C 16.160156 -4.441406 16.890625 -5.878906 17.265625 -7.765625 L 20.03125 -7.765625 C 19.65625 -5.054688 18.625 -2.988281 16.9375 -1.5625 C 15.257812 -0.144531 13.210938 0.5625 10.796875 0.5625 C 7.910156 0.5625 5.601562 -0.425781 3.875 -2.40625 C 2.15625 -4.394531 1.296875 -7.148438 1.296875 -10.671875 C 1.296875 -14.066406 2.195312 -16.75 4 -18.71875 C 5.800781 -20.6875 8.179688 -21.671875 11.140625 -21.671875 C 13.585938 -21.671875 15.570312 -21.035156 17.09375 -19.765625 C 18.625 -18.503906 19.53125 -16.835938 19.8125 -14.765625 Z M 17.0625 -14.765625 "/></g></g></g><g fill="#00bf63" fill-opacity="0.102"><g transform="translate(297.770393, 204.091515)"><g><path d="M 17.96875 0 L 2.390625 0 L 2.390625 -21.109375 L 17.765625 -21.109375 L 17.765625 -18.578125 L 5.234375 -18.578125 L 5.234375 -12.125 L 16.78125 -12.125 L 16.78125 -9.59375 L 5.234375 -9.59375 L 5.234375 -2.53125 L 17.96875 -2.53125 Z M 17.96875 0 "/></g></g></g><g fill="#ffde59" fill-opacity="1"><g transform="translate(108.485655, 202.983289)"><g><path d="M 17.96875 0 L 2.390625 0 L 2.390625 -21.109375 L 17.765625 -21.109375 L 17.765625 -18.578125 L 5.234375 -18.578125 L 5.234375 -12.125 L 16.78125 -12.125 L 16.78125 -9.59375 L 5.234375 -9.59375 L 5.234375 -2.53125 L 17.96875 -2.53125 Z M 17.96875 0 "/></g></g></g><g fill="#ffde59" fill-opacity="1"><g transform="translate(130.004803, 202.983289)"><g><path d="M 18.90625 0 L 15.375 0 L 9.703125 -8.671875 L 3.84375 0 L 0.421875 0 L 7.96875 -10.828125 L 0.875 -21.109375 L 4.46875 -21.109375 L 9.828125 -13.015625 L 15.171875 -21.109375 L 18.578125 -21.109375 L 11.5 -10.828125 Z M 18.90625 0 "/></g></g></g><g fill="#ffde59" fill-opacity="1"><g transform="translate(151.854135, 202.983289)"><g><path d="M 5.234375 -11.359375 L 10.90625 -11.359375 C 12.332031 -11.359375 13.40625 -11.671875 14.125 -12.296875 C 14.84375 -12.921875 15.203125 -13.867188 15.203125 -15.140625 C 15.203125 -16.285156 14.859375 -17.160156 14.171875 -17.765625 C 13.484375 -18.367188 12.4375 -18.671875 11.03125 -18.671875 L 5.234375 -18.671875 Z M 5.234375 0 L 2.390625 0 L 2.390625 -21.109375 L 11.875 -21.109375 C 13.757812 -21.109375 15.273438 -20.554688 16.421875 -19.453125 C 17.578125 -18.359375 18.15625 -16.929688 18.15625 -15.171875 C 18.15625 -13.347656 17.597656 -11.847656 16.484375 -10.671875 C 15.367188 -9.503906 13.832031 -8.921875 11.875 -8.921875 L 5.234375 -8.921875 Z M 5.234375 0 "/></g></g></g><g fill="#ffde59" fill-opacity="1"><g transform="translate(173.272794, 202.983289)"><g><path d="M 17.96875 0 L 2.390625 0 L 2.390625 -21.109375 L 17.765625 -21.109375 L 17.765625 -18.578125 L 5.234375 -18.578125 L 5.234375 -12.125 L 16.78125 -12.125 L 16.78125 -9.59375 L 5.234375 -9.59375 L 5.234375 -2.53125 L 17.96875 -2.53125 Z M 17.96875 0 "/></g></g></g><g fill="#ffde59" fill-opacity="1"><g transform="translate(194.791939, 202.983289)"><g><path d="M 5.234375 -11.5 L 11.84375 -11.5 C 13.375 -11.5 14.472656 -11.8125 15.140625 -12.4375 C 15.804688 -13.0625 16.140625 -13.960938 16.140625 -15.140625 C 16.140625 -16.210938 15.851562 -17.066406 15.28125 -17.703125 C 14.707031 -18.347656 13.71875 -18.671875 12.3125 -18.671875 L 5.234375 -18.671875 Z M 5.234375 0 L 2.390625 0 L 2.390625 -21.109375 L 12.140625 -21.109375 C 14.410156 -21.109375 16.128906 -20.625 17.296875 -19.65625 C 18.460938 -18.6875 19.046875 -17.28125 19.046875 -15.4375 C 19.046875 -14.21875 18.8125 -13.203125 18.34375 -12.390625 C 17.875 -11.578125 17.140625 -10.90625 16.140625 -10.375 C 17.003906 -10.0625 17.625 -9.617188 18 -9.046875 C 18.382812 -8.484375 18.609375 -7.601562 18.671875 -6.40625 L 18.859375 -2.46875 C 18.867188 -1.820312 18.96875 -1.363281 19.15625 -1.09375 C 19.34375 -0.832031 19.601562 -0.625 19.9375 -0.46875 L 19.9375 0 L 16.40625 0 C 16.226562 -0.53125 16.097656 -1.328125 16.015625 -2.390625 C 15.941406 -3.460938 15.90625 -4.429688 15.90625 -5.296875 C 15.90625 -5.722656 15.863281 -6.160156 15.78125 -6.609375 C 15.707031 -7.066406 15.539062 -7.476562 15.28125 -7.84375 C 15.03125 -8.207031 14.65625 -8.5 14.15625 -8.71875 C 13.65625 -8.945312 12.984375 -9.0625 12.140625 -9.0625 L 5.234375 -9.0625 Z M 5.234375 0 "/></g></g></g><g fill="#ffde59" fill-opacity="1"><g transform="translate(218.191701, 202.983289)"><g><path d="M 5.234375 0 L 2.390625 0 L 2.390625 -21.109375 L 5.234375 -21.109375 Z M 5.234375 0 "/></g></g></g><g fill="#ffde59" fill-opacity="1"><g transform="translate(228.183093, 202.983289)"><g><path d="M 17.96875 0 L 2.390625 0 L 2.390625 -21.109375 L 17.765625 -21.109375 L 17.765625 -18.578125 L 5.234375 -18.578125 L 5.234375 -12.125 L 16.78125 -12.125 L 16.78125 -9.59375 L 5.234375 -9.59375 L 5.234375 -2.53125 L 17.96875 -2.53125 Z M 17.96875 0 "/></g></g></g><g fill="#ffde59" fill-opacity="1"><g transform="translate(249.702238, 202.983289)"><g><path d="M 16.359375 -21.109375 L 19.109375 -21.109375 L 19.109375 0 L 15.9375 0 L 5.171875 -17.0625 L 5.109375 -17.0625 L 5.109375 0 L 2.390625 0 L 2.390625 -21.109375 L 5.734375 -21.109375 L 16.296875 -4.0625 L 16.359375 -4.0625 Z M 16.359375 -21.109375 "/></g></g></g><g fill="#ffde59" fill-opacity="1"><g transform="translate(273.604455, 202.983289)"><g><path d="M 17.0625 -14.765625 C 16.738281 -16.203125 16.070312 -17.289062 15.0625 -18.03125 C 14.050781 -18.769531 12.742188 -19.140625 11.140625 -19.140625 C 9.066406 -19.140625 7.394531 -18.382812 6.125 -16.875 C 4.863281 -15.363281 4.234375 -13.328125 4.234375 -10.765625 C 4.234375 -7.796875 4.832031 -5.585938 6.03125 -4.140625 C 7.226562 -2.691406 8.960938 -1.96875 11.234375 -1.96875 C 12.722656 -1.96875 14.003906 -2.460938 15.078125 -3.453125 C 16.160156 -4.441406 16.890625 -5.878906 17.265625 -7.765625 L 20.03125 -7.765625 C 19.65625 -5.054688 18.625 -2.988281 16.9375 -1.5625 C 15.257812 -0.144531 13.210938 0.5625 10.796875 0.5625 C 7.910156 0.5625 5.601562 -0.425781 3.875 -2.40625 C 2.15625 -4.394531 1.296875 -7.148438 1.296875 -10.671875 C 1.296875 -14.066406 2.195312 -16.75 4 -18.71875 C 5.800781 -20.6875 8.179688 -21.671875 11.140625 -21.671875 C 13.585938 -21.671875 15.570312 -21.035156 17.09375 -19.765625 C 18.625 -18.503906 19.53125 -16.835938 19.8125 -14.765625 Z M 17.0625 -14.765625 "/></g></g></g><g fill="#ffde59" fill-opacity="1"><g transform="translate(297.276979, 202.983289)"><g><path d="M 17.96875 0 L 2.390625 0 L 2.390625 -21.109375 L 17.765625 -21.109375 L 17.765625 -18.578125 L 5.234375 -18.578125 L 5.234375 -12.125 L 16.78125 -12.125 L 16.78125 -9.59375 L 5.234375 -9.59375 L 5.234375 -2.53125 L 17.96875 -2.53125 Z M 17.96875 0 "/></g></g></g></svg>