<svg xmlns="http://www.w3.org/2000/svg" xmlns:xlink="http://www.w3.org/1999/xlink" width="1200" zoomAndPan="magnify" viewBox="0 0 525 344.999992" height="1200" preserveAspectRatio="xMidYMid meet" version="1.0"><defs><g/><clipPath id="0c11f4ee85"><path d="M 34.496094 0.566406 L 125.253906 0.566406 L 125.253906 337.71875 L 34.496094 337.71875 Z M 34.496094 0.566406 " clip-rule="nonzero"/></clipPath><clipPath id="ad12cba3d7"><path d="M 125.253906 272.929688 C 125.253906 308.671875 104.9375 337.644531 79.875 337.644531 C 54.8125 337.644531 34.496094 308.671875 34.496094 272.929688 L 34.496094 65.28125 C 34.496094 29.539062 54.8125 0.566406 79.875 0.566406 C 104.9375 0.566406 125.253906 29.539062 125.253906 65.28125 Z M 125.253906 272.929688 " clip-rule="nonzero"/></clipPath><clipPath id="e79adf1d0c"><path d="M 107.253906 0.566406 L 198.011719 0.566406 L 198.011719 337.71875 L 107.253906 337.71875 Z M 107.253906 0.566406 " clip-rule="nonzero"/></clipPath><clipPath id="f018a06e57"><path d="M 198.011719 272.929688 C 198.011719 308.671875 177.695312 337.644531 152.632812 337.644531 C 127.574219 337.644531 107.253906 308.671875 107.253906 272.929688 L 107.253906 65.28125 C 107.253906 29.539062 127.574219 0.566406 152.632812 0.566406 C 177.695312 0.566406 198.011719 29.539062 198.011719 65.28125 Z M 198.011719 272.929688 " clip-rule="nonzero"/></clipPath><clipPath id="0a1aa3ef58"><path d="M 184.59375 0.566406 L 275.351562 0.566406 L 275.351562 337.71875 L 184.59375 337.71875 Z M 184.59375 0.566406 " clip-rule="nonzero"/></clipPath><clipPath id="c49627cd65"><path d="M 275.351562 272.929688 C 275.351562 308.671875 255.035156 337.644531 229.972656 337.644531 C 204.910156 337.644531 184.59375 308.671875 184.59375 272.929688 L 184.59375 65.28125 C 184.59375 29.539062 204.910156 0.566406 229.972656 0.566406 C 255.035156 0.566406 275.351562 29.539062 275.351562 65.28125 Z M 275.351562 272.929688 " clip-rule="nonzero"/></clipPath><clipPath id="a0d96c2d3b"><path d="M 267.238281 0.566406 L 357.996094 0.566406 L 357.996094 337.71875 L 267.238281 337.71875 Z M 267.238281 0.566406 " clip-rule="nonzero"/></clipPath><clipPath id="bb9f3d552e"><path d="M 357.996094 272.929688 C 357.996094 308.671875 337.679688 337.644531 312.617188 337.644531 C 287.554688 337.644531 267.238281 308.671875 267.238281 272.929688 L 267.238281 65.28125 C 267.238281 29.539062 287.554688 0.566406 312.617188 0.566406 C 337.679688 0.566406 357.996094 29.539062 357.996094 65.28125 Z M 357.996094 272.929688 " clip-rule="nonzero"/></clipPath><clipPath id="394d9d055c"><path d="M 347.179688 0.566406 L 437.9375 0.566406 L 437.9375 337.71875 L 347.179688 337.71875 Z M 347.179688 0.566406 " clip-rule="nonzero"/></clipPath><clipPath id="d8ac830159"><path d="M 437.9375 272.929688 C 437.9375 308.671875 417.621094 337.644531 392.558594 337.644531 C 367.496094 337.644531 347.179688 308.671875 347.179688 272.929688 L 347.179688 65.28125 C 347.179688 29.539062 367.496094 0.566406 392.558594 0.566406 C 417.621094 0.566406 437.9375 29.539062 437.9375 65.28125 Z M 437.9375 272.929688 " clip-rule="nonzero"/></clipPath><clipPath id="857506c917"><path d="M 427.402344 0.566406 L 518.160156 0.566406 L 518.160156 337.71875 L 427.402344 337.71875 Z M 427.402344 0.566406 " clip-rule="nonzero"/></clipPath><clipPath id="8197c8625b"><path d="M 518.160156 272.929688 C 518.160156 308.671875 497.84375 337.644531 472.78125 337.644531 C 447.71875 337.644531 427.402344 308.671875 427.402344 272.929688 L 427.402344 65.28125 C 427.402344 29.539062 447.71875 0.566406 472.78125 0.566406 C 497.84375 0.566406 518.160156 29.539062 518.160156 65.28125 Z M 518.160156 272.929688 " clip-rule="nonzero"/></clipPath></defs><g clip-path="url(#0c11f4ee85)"><g clip-path="url(#ad12cba3d7)"><path fill="#e8662d" d="M 125.253906 0.566406 L 125.253906 337.71875 L 34.496094 337.71875 L 34.496094 0.566406 Z M 125.253906 0.566406 " fill-opacity="1" fill-rule="nonzero"/></g></g><g clip-path="url(#e79adf1d0c)"><g clip-path="url(#f018a06e57)"><path fill="#e8662d" d="M 198.011719 0.566406 L 198.011719 337.71875 L 107.253906 337.71875 L 107.253906 0.566406 Z M 198.011719 0.566406 " fill-opacity="1" fill-rule="nonzero"/></g></g><g clip-path="url(#0a1aa3ef58)"><g clip-path="url(#c49627cd65)"><path fill="#e8662d" d="M 275.351562 0.566406 L 275.351562 337.71875 L 184.59375 337.71875 L 184.59375 0.566406 Z M 275.351562 0.566406 " fill-opacity="1" fill-rule="nonzero"/></g></g><g clip-path="url(#a0d96c2d3b)"><g clip-path="url(#bb9f3d552e)"><path fill="#e8662d" d="M 357.996094 0.566406 L 357.996094 337.71875 L 267.238281 337.71875 L 267.238281 0.566406 Z M 357.996094 0.566406 " fill-opacity="1" fill-rule="nonzero"/></g></g><g clip-path="url(#394d9d055c)"><g clip-path="url(#d8ac830159)"><path fill="#e8662d" d="M 437.9375 0.566406 L 437.9375 337.71875 L 347.179688 337.71875 L 347.179688 0.566406 Z M 437.9375 0.566406 " fill-opacity="1" fill-rule="nonzero"/></g></g><g clip-path="url(#857506c917)"><g clip-path="url(#8197c8625b)"><path fill="#e8662d" d="M 518.160156 0.566406 L 518.160156 337.71875 L 427.402344 337.71875 L 427.402344 0.566406 Z M 518.160156 0.566406 " fill-opacity="1" fill-rule="nonzero"/></g></g><g fill="#00bf63" fill-opacity="0.102"><g transform="translate(105.502454, 166.157031)"><g><path d="M 16.359375 -21.109375 L 19.109375 -21.109375 L 19.109375 0 L 15.9375 0 L 5.171875 -17.0625 L 5.109375 -17.0625 L 5.109375 0 L 2.390625 0 L 2.390625 -21.109375 L 5.734375 -21.109375 L 16.296875 -4.0625 L 16.359375 -4.0625 Z M 16.359375 -21.109375 "/></g></g></g><g fill="#00bf63" fill-opacity="0.102"><g transform="translate(129.404674, 166.157031)"><g><path d="M 18.796875 -10.546875 C 18.796875 -13.023438 18.140625 -15.078125 16.828125 -16.703125 C 15.523438 -18.328125 13.726562 -19.140625 11.4375 -19.140625 C 9.1875 -19.140625 7.398438 -18.328125 6.078125 -16.703125 C 4.753906 -15.078125 4.09375 -13.023438 4.09375 -10.546875 C 4.09375 -8.003906 4.757812 -5.9375 6.09375 -4.34375 C 7.4375 -2.757812 9.21875 -1.96875 11.4375 -1.96875 C 13.613281 -1.96875 15.382812 -2.742188 16.75 -4.296875 C 18.113281 -5.847656 18.796875 -7.929688 18.796875 -10.546875 Z M 21.71875 -10.546875 C 21.71875 -7.398438 20.804688 -4.757812 18.984375 -2.625 C 17.171875 -0.5 14.65625 0.5625 11.4375 0.5625 C 8.207031 0.5625 5.6875 -0.5 3.875 -2.625 C 2.0625 -4.757812 1.15625 -7.398438 1.15625 -10.546875 C 1.15625 -13.710938 2.0625 -16.359375 3.875 -18.484375 C 5.6875 -20.609375 8.207031 -21.671875 11.4375 -21.671875 C 14.75 -21.671875 17.289062 -20.585938 19.0625 -18.421875 C 20.832031 -16.253906 21.71875 -13.628906 21.71875 -10.546875 Z M 21.71875 -10.546875 "/></g></g></g><g fill="#00bf63" fill-opacity="0.102"><g transform="translate(154.685057, 166.157031)"><g/></g></g><g fill="#00bf63" fill-opacity="0.102"><g transform="translate(164.274489, 166.157031)"><g><path d="M 14.8125 -14.9375 C 14.757812 -16.269531 14.257812 -17.316406 13.3125 -18.078125 C 12.375 -18.835938 11.132812 -19.21875 9.59375 -19.21875 C 8.039062 -19.21875 6.847656 -18.898438 6.015625 -18.265625 C 5.179688 -17.628906 4.765625 -16.710938 4.765625 -15.515625 C 4.765625 -14.878906 4.945312 -14.332031 5.3125 -13.875 C 5.675781 -13.414062 6.328125 -13.070312 7.265625 -12.84375 L 13.296875 -11.46875 C 14.921875 -11.113281 16.125 -10.441406 16.90625 -9.453125 C 17.695312 -8.460938 18.09375 -7.253906 18.09375 -5.828125 C 18.09375 -3.742188 17.328125 -2.15625 15.796875 -1.0625 C 14.265625 0.0195312 12.273438 0.5625 9.828125 0.5625 C 7.953125 0.5625 6.476562 0.320312 5.40625 -0.15625 C 4.332031 -0.632812 3.378906 -1.394531 2.546875 -2.4375 C 1.710938 -3.476562 1.296875 -4.9375 1.296875 -6.8125 L 3.96875 -6.8125 C 3.96875 -5.25 4.488281 -4.035156 5.53125 -3.171875 C 6.570312 -2.304688 7.992188 -1.875 9.796875 -1.875 C 11.535156 -1.875 12.890625 -2.179688 13.859375 -2.796875 C 14.835938 -3.421875 15.328125 -4.300781 15.328125 -5.4375 C 15.328125 -6.476562 15.035156 -7.253906 14.453125 -7.765625 C 13.867188 -8.273438 12.738281 -8.726562 11.0625 -9.125 L 6.5 -10.1875 C 4.988281 -10.53125 3.859375 -11.128906 3.109375 -11.984375 C 2.367188 -12.835938 2 -13.890625 2 -15.140625 C 2 -17.035156 2.632812 -18.597656 3.90625 -19.828125 C 5.1875 -21.054688 6.972656 -21.671875 9.265625 -21.671875 C 11.847656 -21.671875 13.835938 -21.128906 15.234375 -20.046875 C 16.640625 -18.972656 17.394531 -17.269531 17.5 -14.9375 Z M 14.8125 -14.9375 "/></g></g></g><g fill="#00bf63" fill-opacity="0.102"><g transform="translate(186.152531, 166.157031)"><g><path d="M 18.859375 -21.109375 L 18.859375 -7.40625 C 18.859375 -5.070312 18.117188 -3.160156 16.640625 -1.671875 C 15.160156 -0.179688 13.066406 0.5625 10.359375 0.5625 C 7.828125 0.5625 5.835938 -0.125 4.390625 -1.5 C 2.953125 -2.875 2.234375 -4.710938 2.234375 -7.015625 L 2.234375 -21.109375 L 5.046875 -21.109375 L 5.046875 -7.828125 C 5.046875 -5.878906 5.53125 -4.414062 6.5 -3.4375 C 7.476562 -2.457031 8.78125 -1.96875 10.40625 -1.96875 C 12.144531 -1.96875 13.503906 -2.457031 14.484375 -3.4375 C 15.472656 -4.414062 15.96875 -5.859375 15.96875 -7.765625 L 15.96875 -21.109375 Z M 18.859375 -21.109375 "/></g></g></g><g fill="#00bf63" fill-opacity="0.102"><g transform="translate(209.609717, 166.157031)"><g><path d="M 5.234375 -11.5 L 11.84375 -11.5 C 13.375 -11.5 14.472656 -11.8125 15.140625 -12.4375 C 15.804688 -13.0625 16.140625 -13.960938 16.140625 -15.140625 C 16.140625 -16.210938 15.851562 -17.066406 15.28125 -17.703125 C 14.707031 -18.347656 13.71875 -18.671875 12.3125 -18.671875 L 5.234375 -18.671875 Z M 5.234375 0 L 2.390625 0 L 2.390625 -21.109375 L 12.140625 -21.109375 C 14.410156 -21.109375 16.128906 -20.625 17.296875 -19.65625 C 18.460938 -18.6875 19.046875 -17.28125 19.046875 -15.4375 C 19.046875 -14.21875 18.8125 -13.203125 18.34375 -12.390625 C 17.875 -11.578125 17.140625 -10.90625 16.140625 -10.375 C 17.003906 -10.0625 17.625 -9.617188 18 -9.046875 C 18.382812 -8.484375 18.609375 -7.601562 18.671875 -6.40625 L 18.859375 -2.46875 C 18.867188 -1.820312 18.96875 -1.363281 19.15625 -1.09375 C 19.34375 -0.832031 19.601562 -0.625 19.9375 -0.46875 L 19.9375 0 L 16.40625 0 C 16.226562 -0.53125 16.097656 -1.328125 16.015625 -2.390625 C 15.941406 -3.460938 15.90625 -4.429688 15.90625 -5.296875 C 15.90625 -5.722656 15.863281 -6.160156 15.78125 -6.609375 C 15.707031 -7.066406 15.539062 -7.476562 15.28125 -7.84375 C 15.03125 -8.207031 14.65625 -8.5 14.15625 -8.71875 C 13.65625 -8.945312 12.984375 -9.0625 12.140625 -9.0625 L 5.234375 -9.0625 Z M 5.234375 0 "/></g></g></g><g fill="#00bf63" fill-opacity="0.102"><g transform="translate(233.009479, 166.157031)"><g><path d="M 5.234375 -11.359375 L 10.90625 -11.359375 C 12.332031 -11.359375 13.40625 -11.671875 14.125 -12.296875 C 14.84375 -12.921875 15.203125 -13.867188 15.203125 -15.140625 C 15.203125 -16.285156 14.859375 -17.160156 14.171875 -17.765625 C 13.484375 -18.367188 12.4375 -18.671875 11.03125 -18.671875 L 5.234375 -18.671875 Z M 5.234375 0 L 2.390625 0 L 2.390625 -21.109375 L 11.875 -21.109375 C 13.757812 -21.109375 15.273438 -20.554688 16.421875 -19.453125 C 17.578125 -18.359375 18.15625 -16.929688 18.15625 -15.171875 C 18.15625 -13.347656 17.597656 -11.847656 16.484375 -10.671875 C 15.367188 -9.503906 13.832031 -8.921875 11.875 -8.921875 L 5.234375 -8.921875 Z M 5.234375 0 "/></g></g></g><g fill="#00bf63" fill-opacity="0.102"><g transform="translate(254.428133, 166.157031)"><g><path d="M 5.234375 -11.5 L 11.84375 -11.5 C 13.375 -11.5 14.472656 -11.8125 15.140625 -12.4375 C 15.804688 -13.0625 16.140625 -13.960938 16.140625 -15.140625 C 16.140625 -16.210938 15.851562 -17.066406 15.28125 -17.703125 C 14.707031 -18.347656 13.71875 -18.671875 12.3125 -18.671875 L 5.234375 -18.671875 Z M 5.234375 0 L 2.390625 0 L 2.390625 -21.109375 L 12.140625 -21.109375 C 14.410156 -21.109375 16.128906 -20.625 17.296875 -19.65625 C 18.460938 -18.6875 19.046875 -17.28125 19.046875 -15.4375 C 19.046875 -14.21875 18.8125 -13.203125 18.34375 -12.390625 C 17.875 -11.578125 17.140625 -10.90625 16.140625 -10.375 C 17.003906 -10.0625 17.625 -9.617188 18 -9.046875 C 18.382812 -8.484375 18.609375 -7.601562 18.671875 -6.40625 L 18.859375 -2.46875 C 18.867188 -1.820312 18.96875 -1.363281 19.15625 -1.09375 C 19.34375 -0.832031 19.601562 -0.625 19.9375 -0.46875 L 19.9375 0 L 16.40625 0 C 16.226562 -0.53125 16.097656 -1.328125 16.015625 -2.390625 C 15.941406 -3.460938 15.90625 -4.429688 15.90625 -5.296875 C 15.90625 -5.722656 15.863281 -6.160156 15.78125 -6.609375 C 15.707031 -7.066406 15.539062 -7.476562 15.28125 -7.84375 C 15.03125 -8.207031 14.65625 -8.5 14.15625 -8.71875 C 13.65625 -8.945312 12.984375 -9.0625 12.140625 -9.0625 L 5.234375 -9.0625 Z M 5.234375 0 "/></g></g></g><g fill="#00bf63" fill-opacity="0.102"><g transform="translate(277.827895, 166.157031)"><g><path d="M 5.234375 0 L 2.390625 0 L 2.390625 -21.109375 L 5.234375 -21.109375 Z M 5.234375 0 "/></g></g></g><g fill="#00bf63" fill-opacity="0.102"><g transform="translate(287.819287, 166.157031)"><g><path d="M 14.8125 -14.9375 C 14.757812 -16.269531 14.257812 -17.316406 13.3125 -18.078125 C 12.375 -18.835938 11.132812 -19.21875 9.59375 -19.21875 C 8.039062 -19.21875 6.847656 -18.898438 6.015625 -18.265625 C 5.179688 -17.628906 4.765625 -16.710938 4.765625 -15.515625 C 4.765625 -14.878906 4.945312 -14.332031 5.3125 -13.875 C 5.675781 -13.414062 6.328125 -13.070312 7.265625 -12.84375 L 13.296875 -11.46875 C 14.921875 -11.113281 16.125 -10.441406 16.90625 -9.453125 C 17.695312 -8.460938 18.09375 -7.253906 18.09375 -5.828125 C 18.09375 -3.742188 17.328125 -2.15625 15.796875 -1.0625 C 14.265625 0.0195312 12.273438 0.5625 9.828125 0.5625 C 7.953125 0.5625 6.476562 0.320312 5.40625 -0.15625 C 4.332031 -0.632812 3.378906 -1.394531 2.546875 -2.4375 C 1.710938 -3.476562 1.296875 -4.9375 1.296875 -6.8125 L 3.96875 -6.8125 C 3.96875 -5.25 4.488281 -4.035156 5.53125 -3.171875 C 6.570312 -2.304688 7.992188 -1.875 9.796875 -1.875 C 11.535156 -1.875 12.890625 -2.179688 13.859375 -2.796875 C 14.835938 -3.421875 15.328125 -4.300781 15.328125 -5.4375 C 15.328125 -6.476562 15.035156 -7.253906 14.453125 -7.765625 C 13.867188 -8.273438 12.738281 -8.726562 11.0625 -9.125 L 6.5 -10.1875 C 4.988281 -10.53125 3.859375 -11.128906 3.109375 -11.984375 C 2.367188 -12.835938 2 -13.890625 2 -15.140625 C 2 -17.035156 2.632812 -18.597656 3.90625 -19.828125 C 5.1875 -21.054688 6.972656 -21.671875 9.265625 -21.671875 C 11.847656 -21.671875 13.835938 -21.128906 15.234375 -20.046875 C 16.640625 -18.972656 17.394531 -17.269531 17.5 -14.9375 Z M 14.8125 -14.9375 "/></g></g></g><g fill="#00bf63" fill-opacity="0.102"><g transform="translate(309.697339, 166.157031)"><g><path d="M 17.96875 0 L 2.390625 0 L 2.390625 -21.109375 L 17.765625 -21.109375 L 17.765625 -18.578125 L 5.234375 -18.578125 L 5.234375 -12.125 L 16.78125 -12.125 L 16.78125 -9.59375 L 5.234375 -9.59375 L 5.234375 -2.53125 L 17.96875 -2.53125 Z M 17.96875 0 "/></g></g></g><g fill="#00bf63" fill-opacity="0.102"><g transform="translate(331.216494, 166.157031)"><g/></g></g><g fill="#00bf63" fill-opacity="0.102"><g transform="translate(340.805932, 166.157031)"><g><path d="M 2.390625 -21.109375 L 11.640625 -21.109375 C 13.460938 -21.109375 14.914062 -20.613281 16 -19.625 C 17.082031 -18.644531 17.625 -17.367188 17.625 -15.796875 C 17.625 -14.847656 17.382812 -13.984375 16.90625 -13.203125 C 16.4375 -12.421875 15.734375 -11.816406 14.796875 -11.390625 C 16.097656 -10.890625 17.054688 -10.226562 17.671875 -9.40625 C 18.296875 -8.582031 18.609375 -7.523438 18.609375 -6.234375 C 18.609375 -4.410156 17.953125 -2.914062 16.640625 -1.75 C 15.328125 -0.582031 13.59375 0 11.4375 0 L 2.390625 0 Z M 5.203125 -2.4375 L 11.28125 -2.4375 C 12.78125 -2.4375 13.898438 -2.78125 14.640625 -3.46875 C 15.390625 -4.164062 15.765625 -5.101562 15.765625 -6.28125 C 15.765625 -7.476562 15.347656 -8.367188 14.515625 -8.953125 C 13.679688 -9.546875 12.453125 -9.84375 10.828125 -9.84375 L 5.203125 -9.84375 Z M 5.203125 -12.171875 L 10.375 -12.171875 C 11.894531 -12.171875 13.003906 -12.445312 13.703125 -13 C 14.410156 -13.550781 14.765625 -14.410156 14.765625 -15.578125 C 14.765625 -16.585938 14.429688 -17.351562 13.765625 -17.875 C 13.097656 -18.40625 11.976562 -18.671875 10.40625 -18.671875 L 5.203125 -18.671875 Z M 5.203125 -12.171875 "/></g></g></g><g fill="#00bf63" fill-opacity="0.102"><g transform="translate(362.971102, 166.157031)"><g><path d="M 5.234375 0 L 2.390625 0 L 2.390625 -21.109375 L 5.234375 -21.109375 Z M 5.234375 0 "/></g></g></g><g fill="#00bf63" fill-opacity="0.102"><g transform="translate(372.962504, 166.157031)"><g><path d="M 5.203125 -2.53125 L 15.9375 -2.53125 L 15.9375 0 L 2.390625 0 L 2.390625 -21.109375 L 5.203125 -21.109375 Z M 5.203125 -2.53125 "/></g></g></g><g fill="#00bf63" fill-opacity="0.102"><g transform="translate(391.725335, 166.157031)"><g><path d="M 5.203125 -2.53125 L 15.9375 -2.53125 L 15.9375 0 L 2.390625 0 L 2.390625 -21.109375 L 5.203125 -21.109375 Z M 5.203125 -2.53125 "/></g></g></g><g fill="#00bf63" fill-opacity="0.102"><g transform="translate(410.488166, 166.157031)"><g><path d="M 14.8125 -14.9375 C 14.757812 -16.269531 14.257812 -17.316406 13.3125 -18.078125 C 12.375 -18.835938 11.132812 -19.21875 9.59375 -19.21875 C 8.039062 -19.21875 6.847656 -18.898438 6.015625 -18.265625 C 5.179688 -17.628906 4.765625 -16.710938 4.765625 -15.515625 C 4.765625 -14.878906 4.945312 -14.332031 5.3125 -13.875 C 5.675781 -13.414062 6.328125 -13.070312 7.265625 -12.84375 L 13.296875 -11.46875 C 14.921875 -11.113281 16.125 -10.441406 16.90625 -9.453125 C 17.695312 -8.460938 18.09375 -7.253906 18.09375 -5.828125 C 18.09375 -3.742188 17.328125 -2.15625 15.796875 -1.0625 C 14.265625 0.0195312 12.273438 0.5625 9.828125 0.5625 C 7.953125 0.5625 6.476562 0.320312 5.40625 -0.15625 C 4.332031 -0.632812 3.378906 -1.394531 2.546875 -2.4375 C 1.710938 -3.476562 1.296875 -4.9375 1.296875 -6.8125 L 3.96875 -6.8125 C 3.96875 -5.25 4.488281 -4.035156 5.53125 -3.171875 C 6.570312 -2.304688 7.992188 -1.875 9.796875 -1.875 C 11.535156 -1.875 12.890625 -2.179688 13.859375 -2.796875 C 14.835938 -3.421875 15.328125 -4.300781 15.328125 -5.4375 C 15.328125 -6.476562 15.035156 -7.253906 14.453125 -7.765625 C 13.867188 -8.273438 12.738281 -8.726562 11.0625 -9.125 L 6.5 -10.1875 C 4.988281 -10.53125 3.859375 -11.128906 3.109375 -11.984375 C 2.367188 -12.835938 2 -13.890625 2 -15.140625 C 2 -17.035156 2.632812 -18.597656 3.90625 -19.828125 C 5.1875 -21.054688 6.972656 -21.671875 9.265625 -21.671875 C 11.847656 -21.671875 13.835938 -21.128906 15.234375 -20.046875 C 16.640625 -18.972656 17.394531 -17.269531 17.5 -14.9375 Z M 14.8125 -14.9375 "/></g></g></g><g fill="#c1ff72" fill-opacity="1"><g transform="translate(105.009043, 165.048804)"><g><path d="M 16.359375 -21.109375 L 19.109375 -21.109375 L 19.109375 0 L 15.9375 0 L 5.171875 -17.0625 L 5.109375 -17.0625 L 5.109375 0 L 2.390625 0 L 2.390625 -21.109375 L 5.734375 -21.109375 L 16.296875 -4.0625 L 16.359375 -4.0625 Z M 16.359375 -21.109375 "/></g></g></g><g fill="#c1ff72" fill-opacity="1"><g transform="translate(128.911263, 165.048804)"><g><path d="M 18.796875 -10.546875 C 18.796875 -13.023438 18.140625 -15.078125 16.828125 -16.703125 C 15.523438 -18.328125 13.726562 -19.140625 11.4375 -19.140625 C 9.1875 -19.140625 7.398438 -18.328125 6.078125 -16.703125 C 4.753906 -15.078125 4.09375 -13.023438 4.09375 -10.546875 C 4.09375 -8.003906 4.757812 -5.9375 6.09375 -4.34375 C 7.4375 -2.757812 9.21875 -1.96875 11.4375 -1.96875 C 13.613281 -1.96875 15.382812 -2.742188 16.75 -4.296875 C 18.113281 -5.847656 18.796875 -7.929688 18.796875 -10.546875 Z M 21.71875 -10.546875 C 21.71875 -7.398438 20.804688 -4.757812 18.984375 -2.625 C 17.171875 -0.5 14.65625 0.5625 11.4375 0.5625 C 8.207031 0.5625 5.6875 -0.5 3.875 -2.625 C 2.0625 -4.757812 1.15625 -7.398438 1.15625 -10.546875 C 1.15625 -13.710938 2.0625 -16.359375 3.875 -18.484375 C 5.6875 -20.609375 8.207031 -21.671875 11.4375 -21.671875 C 14.75 -21.671875 17.289062 -20.585938 19.0625 -18.421875 C 20.832031 -16.253906 21.71875 -13.628906 21.71875 -10.546875 Z M 21.71875 -10.546875 "/></g></g></g><g fill="#c1ff72" fill-opacity="1"><g transform="translate(154.191645, 165.048804)"><g/></g></g><g fill="#c1ff72" fill-opacity="1"><g transform="translate(163.781078, 165.048804)"><g><path d="M 14.8125 -14.9375 C 14.757812 -16.269531 14.257812 -17.316406 13.3125 -18.078125 C 12.375 -18.835938 11.132812 -19.21875 9.59375 -19.21875 C 8.039062 -19.21875 6.847656 -18.898438 6.015625 -18.265625 C 5.179688 -17.628906 4.765625 -16.710938 4.765625 -15.515625 C 4.765625 -14.878906 4.945312 -14.332031 5.3125 -13.875 C 5.675781 -13.414062 6.328125 -13.070312 7.265625 -12.84375 L 13.296875 -11.46875 C 14.921875 -11.113281 16.125 -10.441406 16.90625 -9.453125 C 17.695312 -8.460938 18.09375 -7.253906 18.09375 -5.828125 C 18.09375 -3.742188 17.328125 -2.15625 15.796875 -1.0625 C 14.265625 0.0195312 12.273438 0.5625 9.828125 0.5625 C 7.953125 0.5625 6.476562 0.320312 5.40625 -0.15625 C 4.332031 -0.632812 3.378906 -1.394531 2.546875 -2.4375 C 1.710938 -3.476562 1.296875 -4.9375 1.296875 -6.8125 L 3.96875 -6.8125 C 3.96875 -5.25 4.488281 -4.035156 5.53125 -3.171875 C 6.570312 -2.304688 7.992188 -1.875 9.796875 -1.875 C 11.535156 -1.875 12.890625 -2.179688 13.859375 -2.796875 C 14.835938 -3.421875 15.328125 -4.300781 15.328125 -5.4375 C 15.328125 -6.476562 15.035156 -7.253906 14.453125 -7.765625 C 13.867188 -8.273438 12.738281 -8.726562 11.0625 -9.125 L 6.5 -10.1875 C 4.988281 -10.53125 3.859375 -11.128906 3.109375 -11.984375 C 2.367188 -12.835938 2 -13.890625 2 -15.140625 C 2 -17.035156 2.632812 -18.597656 3.90625 -19.828125 C 5.1875 -21.054688 6.972656 -21.671875 9.265625 -21.671875 C 11.847656 -21.671875 13.835938 -21.128906 15.234375 -20.046875 C 16.640625 -18.972656 17.394531 -17.269531 17.5 -14.9375 Z M 14.8125 -14.9375 "/></g></g></g><g fill="#c1ff72" fill-opacity="1"><g transform="translate(185.65912, 165.048804)"><g><path d="M 18.859375 -21.109375 L 18.859375 -7.40625 C 18.859375 -5.070312 18.117188 -3.160156 16.640625 -1.671875 C 15.160156 -0.179688 13.066406 0.5625 10.359375 0.5625 C 7.828125 0.5625 5.835938 -0.125 4.390625 -1.5 C 2.953125 -2.875 2.234375 -4.710938 2.234375 -7.015625 L 2.234375 -21.109375 L 5.046875 -21.109375 L 5.046875 -7.828125 C 5.046875 -5.878906 5.53125 -4.414062 6.5 -3.4375 C 7.476562 -2.457031 8.78125 -1.96875 10.40625 -1.96875 C 12.144531 -1.96875 13.503906 -2.457031 14.484375 -3.4375 C 15.472656 -4.414062 15.96875 -5.859375 15.96875 -7.765625 L 15.96875 -21.109375 Z M 18.859375 -21.109375 "/></g></g></g><g fill="#c1ff72" fill-opacity="1"><g transform="translate(209.116306, 165.048804)"><g><path d="M 5.234375 -11.5 L 11.84375 -11.5 C 13.375 -11.5 14.472656 -11.8125 15.140625 -12.4375 C 15.804688 -13.0625 16.140625 -13.960938 16.140625 -15.140625 C 16.140625 -16.210938 15.851562 -17.066406 15.28125 -17.703125 C 14.707031 -18.347656 13.71875 -18.671875 12.3125 -18.671875 L 5.234375 -18.671875 Z M 5.234375 0 L 2.390625 0 L 2.390625 -21.109375 L 12.140625 -21.109375 C 14.410156 -21.109375 16.128906 -20.625 17.296875 -19.65625 C 18.460938 -18.6875 19.046875 -17.28125 19.046875 -15.4375 C 19.046875 -14.21875 18.8125 -13.203125 18.34375 -12.390625 C 17.875 -11.578125 17.140625 -10.90625 16.140625 -10.375 C 17.003906 -10.0625 17.625 -9.617188 18 -9.046875 C 18.382812 -8.484375 18.609375 -7.601562 18.671875 -6.40625 L 18.859375 -2.46875 C 18.867188 -1.820312 18.96875 -1.363281 19.15625 -1.09375 C 19.34375 -0.832031 19.601562 -0.625 19.9375 -0.46875 L 19.9375 0 L 16.40625 0 C 16.226562 -0.53125 16.097656 -1.328125 16.015625 -2.390625 C 15.941406 -3.460938 15.90625 -4.429688 15.90625 -5.296875 C 15.90625 -5.722656 15.863281 -6.160156 15.78125 -6.609375 C 15.707031 -7.066406 15.539062 -7.476562 15.28125 -7.84375 C 15.03125 -8.207031 14.65625 -8.5 14.15625 -8.71875 C 13.65625 -8.945312 12.984375 -9.0625 12.140625 -9.0625 L 5.234375 -9.0625 Z M 5.234375 0 "/></g></g></g><g fill="#c1ff72" fill-opacity="1"><g transform="translate(232.516068, 165.048804)"><g><path d="M 5.234375 -11.359375 L 10.90625 -11.359375 C 12.332031 -11.359375 13.40625 -11.671875 14.125 -12.296875 C 14.84375 -12.921875 15.203125 -13.867188 15.203125 -15.140625 C 15.203125 -16.285156 14.859375 -17.160156 14.171875 -17.765625 C 13.484375 -18.367188 12.4375 -18.671875 11.03125 -18.671875 L 5.234375 -18.671875 Z M 5.234375 0 L 2.390625 0 L 2.390625 -21.109375 L 11.875 -21.109375 C 13.757812 -21.109375 15.273438 -20.554688 16.421875 -19.453125 C 17.578125 -18.359375 18.15625 -16.929688 18.15625 -15.171875 C 18.15625 -13.347656 17.597656 -11.847656 16.484375 -10.671875 C 15.367188 -9.503906 13.832031 -8.921875 11.875 -8.921875 L 5.234375 -8.921875 Z M 5.234375 0 "/></g></g></g><g fill="#c1ff72" fill-opacity="1"><g transform="translate(253.934722, 165.048804)"><g><path d="M 5.234375 -11.5 L 11.84375 -11.5 C 13.375 -11.5 14.472656 -11.8125 15.140625 -12.4375 C 15.804688 -13.0625 16.140625 -13.960938 16.140625 -15.140625 C 16.140625 -16.210938 15.851562 -17.066406 15.28125 -17.703125 C 14.707031 -18.347656 13.71875 -18.671875 12.3125 -18.671875 L 5.234375 -18.671875 Z M 5.234375 0 L 2.390625 0 L 2.390625 -21.109375 L 12.140625 -21.109375 C 14.410156 -21.109375 16.128906 -20.625 17.296875 -19.65625 C 18.460938 -18.6875 19.046875 -17.28125 19.046875 -15.4375 C 19.046875 -14.21875 18.8125 -13.203125 18.34375 -12.390625 C 17.875 -11.578125 17.140625 -10.90625 16.140625 -10.375 C 17.003906 -10.0625 17.625 -9.617188 18 -9.046875 C 18.382812 -8.484375 18.609375 -7.601562 18.671875 -6.40625 L 18.859375 -2.46875 C 18.867188 -1.820312 18.96875 -1.363281 19.15625 -1.09375 C 19.34375 -0.832031 19.601562 -0.625 19.9375 -0.46875 L 19.9375 0 L 16.40625 0 C 16.226562 -0.53125 16.097656 -1.328125 16.015625 -2.390625 C 15.941406 -3.460938 15.90625 -4.429688 15.90625 -5.296875 C 15.90625 -5.722656 15.863281 -6.160156 15.78125 -6.609375 C 15.707031 -7.066406 15.539062 -7.476562 15.28125 -7.84375 C 15.03125 -8.207031 14.65625 -8.5 14.15625 -8.71875 C 13.65625 -8.945312 12.984375 -9.0625 12.140625 -9.0625 L 5.234375 -9.0625 Z M 5.234375 0 "/></g></g></g><g fill="#c1ff72" fill-opacity="1"><g transform="translate(277.334484, 165.048804)"><g><path d="M 5.234375 0 L 2.390625 0 L 2.390625 -21.109375 L 5.234375 -21.109375 Z M 5.234375 0 "/></g></g></g><g fill="#c1ff72" fill-opacity="1"><g transform="translate(287.325876, 165.048804)"><g><path d="M 14.8125 -14.9375 C 14.757812 -16.269531 14.257812 -17.316406 13.3125 -18.078125 C 12.375 -18.835938 11.132812 -19.21875 9.59375 -19.21875 C 8.039062 -19.21875 6.847656 -18.898438 6.015625 -18.265625 C 5.179688 -17.628906 4.765625 -16.710938 4.765625 -15.515625 C 4.765625 -14.878906 4.945312 -14.332031 5.3125 -13.875 C 5.675781 -13.414062 6.328125 -13.070312 7.265625 -12.84375 L 13.296875 -11.46875 C 14.921875 -11.113281 16.125 -10.441406 16.90625 -9.453125 C 17.695312 -8.460938 18.09375 -7.253906 18.09375 -5.828125 C 18.09375 -3.742188 17.328125 -2.15625 15.796875 -1.0625 C 14.265625 0.0195312 12.273438 0.5625 9.828125 0.5625 C 7.953125 0.5625 6.476562 0.320312 5.40625 -0.15625 C 4.332031 -0.632812 3.378906 -1.394531 2.546875 -2.4375 C 1.710938 -3.476562 1.296875 -4.9375 1.296875 -6.8125 L 3.96875 -6.8125 C 3.96875 -5.25 4.488281 -4.035156 5.53125 -3.171875 C 6.570312 -2.304688 7.992188 -1.875 9.796875 -1.875 C 11.535156 -1.875 12.890625 -2.179688 13.859375 -2.796875 C 14.835938 -3.421875 15.328125 -4.300781 15.328125 -5.4375 C 15.328125 -6.476562 15.035156 -7.253906 14.453125 -7.765625 C 13.867188 -8.273438 12.738281 -8.726562 11.0625 -9.125 L 6.5 -10.1875 C 4.988281 -10.53125 3.859375 -11.128906 3.109375 -11.984375 C 2.367188 -12.835938 2 -13.890625 2 -15.140625 C 2 -17.035156 2.632812 -18.597656 3.90625 -19.828125 C 5.1875 -21.054688 6.972656 -21.671875 9.265625 -21.671875 C 11.847656 -21.671875 13.835938 -21.128906 15.234375 -20.046875 C 16.640625 -18.972656 17.394531 -17.269531 17.5 -14.9375 Z M 14.8125 -14.9375 "/></g></g></g><g fill="#c1ff72" fill-opacity="1"><g transform="translate(309.203928, 165.048804)"><g><path d="M 17.96875 0 L 2.390625 0 L 2.390625 -21.109375 L 17.765625 -21.109375 L 17.765625 -18.578125 L 5.234375 -18.578125 L 5.234375 -12.125 L 16.78125 -12.125 L 16.78125 -9.59375 L 5.234375 -9.59375 L 5.234375 -2.53125 L 17.96875 -2.53125 Z M 17.96875 0 "/></g></g></g><g fill="#c1ff72" fill-opacity="1"><g transform="translate(330.723083, 165.048804)"><g/></g></g><g fill="#c1ff72" fill-opacity="1"><g transform="translate(340.312521, 165.048804)"><g><path d="M 2.390625 -21.109375 L 11.640625 -21.109375 C 13.460938 -21.109375 14.914062 -20.613281 16 -19.625 C 17.082031 -18.644531 17.625 -17.367188 17.625 -15.796875 C 17.625 -14.847656 17.382812 -13.984375 16.90625 -13.203125 C 16.4375 -12.421875 15.734375 -11.816406 14.796875 -11.390625 C 16.097656 -10.890625 17.054688 -10.226562 17.671875 -9.40625 C 18.296875 -8.582031 18.609375 -7.523438 18.609375 -6.234375 C 18.609375 -4.410156 17.953125 -2.914062 16.640625 -1.75 C 15.328125 -0.582031 13.59375 0 11.4375 0 L 2.390625 0 Z M 5.203125 -2.4375 L 11.28125 -2.4375 C 12.78125 -2.4375 13.898438 -2.78125 14.640625 -3.46875 C 15.390625 -4.164062 15.765625 -5.101562 15.765625 -6.28125 C 15.765625 -7.476562 15.347656 -8.367188 14.515625 -8.953125 C 13.679688 -9.546875 12.453125 -9.84375 10.828125 -9.84375 L 5.203125 -9.84375 Z M 5.203125 -12.171875 L 10.375 -12.171875 C 11.894531 -12.171875 13.003906 -12.445312 13.703125 -13 C 14.410156 -13.550781 14.765625 -14.410156 14.765625 -15.578125 C 14.765625 -16.585938 14.429688 -17.351562 13.765625 -17.875 C 13.097656 -18.40625 11.976562 -18.671875 10.40625 -18.671875 L 5.203125 -18.671875 Z M 5.203125 -12.171875 "/></g></g></g><g fill="#c1ff72" fill-opacity="1"><g transform="translate(362.47769, 165.048804)"><g><path d="M 5.234375 0 L 2.390625 0 L 2.390625 -21.109375 L 5.234375 -21.109375 Z M 5.234375 0 "/></g></g></g><g fill="#c1ff72" fill-opacity="1"><g transform="translate(372.469092, 165.048804)"><g><path d="M 5.203125 -2.53125 L 15.9375 -2.53125 L 15.9375 0 L 2.390625 0 L 2.390625 -21.109375 L 5.203125 -21.109375 Z M 5.203125 -2.53125 "/></g></g></g><g fill="#c1ff72" fill-opacity="1"><g transform="translate(391.231924, 165.048804)"><g><path d="M 5.203125 -2.53125 L 15.9375 -2.53125 L 15.9375 0 L 2.390625 0 L 2.390625 -21.109375 L 5.203125 -21.109375 Z M 5.203125 -2.53125 "/></g></g></g><g fill="#c1ff72" fill-opacity="1"><g transform="translate(409.994755, 165.048804)"><g><path d="M 14.8125 -14.9375 C 14.757812 -16.269531 14.257812 -17.316406 13.3125 -18.078125 C 12.375 -18.835938 11.132812 -19.21875 9.59375 -19.21875 C 8.039062 -19.21875 6.847656 -18.898438 6.015625 -18.265625 C 5.179688 -17.628906 4.765625 -16.710938 4.765625 -15.515625 C 4.765625 -14.878906 4.945312 -14.332031 5.3125 -13.875 C 5.675781 -13.414062 6.328125 -13.070312 7.265625 -12.84375 L 13.296875 -11.46875 C 14.921875 -11.113281 16.125 -10.441406 16.90625 -9.453125 C 17.695312 -8.460938 18.09375 -7.253906 18.09375 -5.828125 C 18.09375 -3.742188 17.328125 -2.15625 15.796875 -1.0625 C 14.265625 0.0195312 12.273438 0.5625 9.828125 0.5625 C 7.953125 0.5625 6.476562 0.320312 5.40625 -0.15625 C 4.332031 -0.632812 3.378906 -1.394531 2.546875 -2.4375 C 1.710938 -3.476562 1.296875 -4.9375 1.296875 -6.8125 L 3.96875 -6.8125 C 3.96875 -5.25 4.488281 -4.035156 5.53125 -3.171875 C 6.570312 -2.304688 7.992188 -1.875 9.796875 -1.875 C 11.535156 -1.875 12.890625 -2.179688 13.859375 -2.796875 C 14.835938 -3.421875 15.328125 -4.300781 15.328125 -5.4375 C 15.328125 -6.476562 15.035156 -7.253906 14.453125 -7.765625 C 13.867188 -8.273438 12.738281 -8.726562 11.0625 -9.125 L 6.5 -10.1875 C 4.988281 -10.53125 3.859375 -11.128906 3.109375 -11.984375 C 2.367188 -12.835938 2 -13.890625 2 -15.140625 C 2 -17.035156 2.632812 -18.597656 3.90625 -19.828125 C 5.1875 -21.054688 6.972656 -21.671875 9.265625 -21.671875 C 11.847656 -21.671875 13.835938 -21.128906 15.234375 -20.046875 C 16.640625 -18.972656 17.394531 -17.269531 17.5 -14.9375 Z M 14.8125 -14.9375 "/></g></g></g></svg>