<svg xmlns="http://www.w3.org/2000/svg" xmlns:xlink="http://www.w3.org/1999/xlink" width="1200" zoomAndPan="magnify" viewBox="0 0 341.25 341.249987" height="1200" preserveAspectRatio="xMidYMid meet" version="1.0"><defs><g/><clipPath id="8ca672d091"><path d="M 6.027344 5.773438 L 331.5625 5.773438 L 331.5625 331.304688 L 6.027344 331.304688 Z M 6.027344 5.773438 " clip-rule="nonzero"/></clipPath></defs><g clip-path="url(#8ca672d091)"><path fill="#eacee4" d="M 172.804688 5.773438 L 331.398438 5.773438 L 331.398438 164.367188 C 331.398438 256.414062 256.667969 331.140625 164.625 331.140625 L 6.027344 331.140625 L 6.027344 172.546875 C 6.027344 80.5 80.757812 5.773438 172.804688 5.773438 Z M 172.804688 5.773438 " fill-opacity="1" fill-rule="nonzero"/></g><g fill="#00bf63" fill-opacity="0.102"><g transform="translate(85.960583, 158.07254)"><g><path d="M 12.671875 -12.78125 C 12.628906 -13.925781 12.203125 -14.820312 11.390625 -15.46875 C 10.585938 -16.125 9.523438 -16.453125 8.203125 -16.453125 C 6.878906 -16.453125 5.859375 -16.175781 5.140625 -15.625 C 4.429688 -15.082031 4.078125 -14.300781 4.078125 -13.28125 C 4.078125 -12.726562 4.234375 -12.253906 4.546875 -11.859375 C 4.859375 -11.472656 5.414062 -11.1875 6.21875 -11 L 11.375 -9.8125 C 12.769531 -9.507812 13.800781 -8.929688 14.46875 -8.078125 C 15.144531 -7.234375 15.484375 -6.203125 15.484375 -4.984375 C 15.484375 -3.203125 14.828125 -1.84375 13.515625 -0.90625 C 12.203125 0.0195312 10.5 0.484375 8.40625 0.484375 C 6.800781 0.484375 5.539062 0.28125 4.625 -0.125 C 3.707031 -0.539062 2.890625 -1.191406 2.171875 -2.078125 C 1.460938 -2.972656 1.109375 -4.222656 1.109375 -5.828125 L 3.390625 -5.828125 C 3.390625 -4.484375 3.832031 -3.441406 4.71875 -2.703125 C 5.613281 -1.972656 6.832031 -1.609375 8.375 -1.609375 C 9.863281 -1.609375 11.023438 -1.867188 11.859375 -2.390625 C 12.691406 -2.921875 13.109375 -3.675781 13.109375 -4.65625 C 13.109375 -5.539062 12.859375 -6.203125 12.359375 -6.640625 C 11.867188 -7.078125 10.898438 -7.460938 9.453125 -7.796875 L 5.5625 -8.703125 C 4.269531 -9.003906 3.300781 -9.519531 2.65625 -10.25 C 2.019531 -10.976562 1.703125 -11.878906 1.703125 -12.953125 C 1.703125 -14.578125 2.25 -15.910156 3.34375 -16.953125 C 4.4375 -18.003906 5.960938 -18.53125 7.921875 -18.53125 C 10.128906 -18.53125 11.832031 -18.066406 13.03125 -17.140625 C 14.238281 -16.222656 14.882812 -14.769531 14.96875 -12.78125 Z M 12.671875 -12.78125 "/></g></g></g><g fill="#00bf63" fill-opacity="0.102"><g transform="translate(104.68019, 158.07254)"><g><path d="M 6.390625 -15.890625 L 0.3125 -15.890625 L 0.3125 -18.0625 L 14.96875 -18.0625 L 14.96875 -15.890625 L 8.828125 -15.890625 L 8.828125 0 L 6.390625 0 Z M 6.390625 -15.890625 "/></g></g></g><g fill="#00bf63" fill-opacity="0.102"><g transform="translate(122.024031, 158.07254)"><g><path d="M 4.484375 0 L 2.03125 0 L 2.03125 -18.0625 L 4.484375 -18.0625 Z M 4.484375 0 "/></g></g></g><g fill="#00bf63" fill-opacity="0.102"><g transform="translate(130.5728, 158.07254)"><g><path d="M 4.453125 -2.15625 L 13.640625 -2.15625 L 13.640625 0 L 2.03125 0 L 2.03125 -18.0625 L 4.453125 -18.0625 Z M 4.453125 -2.15625 "/></g></g></g><g fill="#00bf63" fill-opacity="0.102"><g transform="translate(146.626864, 158.07254)"><g><path d="M 4.453125 -2.15625 L 13.640625 -2.15625 L 13.640625 0 L 2.03125 0 L 2.03125 -18.0625 L 4.453125 -18.0625 Z M 4.453125 -2.15625 "/></g></g></g><g fill="#00bf63" fill-opacity="0.102"><g transform="translate(162.680929, 158.07254)"><g/></g></g><g fill="#00bf63" fill-opacity="0.102"><g transform="translate(170.885754, 158.07254)"><g><path d="M 4.484375 0 L 2.03125 0 L 2.03125 -18.0625 L 14.546875 -18.0625 L 14.546875 -15.890625 L 4.484375 -15.890625 L 4.484375 -10.359375 L 13.328125 -10.359375 L 13.328125 -8.203125 L 4.484375 -8.203125 Z M 4.484375 0 "/></g></g></g><g fill="#00bf63" fill-opacity="0.102"><g transform="translate(187.983927, 158.07254)"><g><path d="M 4.484375 0 L 2.03125 0 L 2.03125 -18.0625 L 4.484375 -18.0625 Z M 4.484375 0 "/></g></g></g><g fill="#00bf63" fill-opacity="0.102"><g transform="translate(196.532693, 158.07254)"><g><path d="M 9.671875 -9.65625 L 17.609375 -9.65625 L 17.609375 0 L 16.03125 0 L 15.4375 -2.328125 C 14.664062 -1.347656 13.757812 -0.632812 12.71875 -0.1875 C 11.6875 0.257812 10.609375 0.484375 9.484375 0.484375 C 7.671875 0.484375 6.15625 0.0859375 4.9375 -0.703125 C 3.726562 -1.492188 2.785156 -2.582031 2.109375 -3.96875 C 1.441406 -5.363281 1.109375 -7.101562 1.109375 -9.1875 C 1.109375 -11.78125 1.878906 -13.984375 3.421875 -15.796875 C 4.960938 -17.617188 7.039062 -18.53125 9.65625 -18.53125 C 11.601562 -18.53125 13.304688 -17.984375 14.765625 -16.890625 C 16.222656 -15.804688 17.070312 -14.367188 17.3125 -12.578125 L 14.953125 -12.578125 C 14.660156 -13.765625 14.050781 -14.691406 13.125 -15.359375 C 12.207031 -16.035156 11.007812 -16.375 9.53125 -16.375 C 7.75 -16.375 6.316406 -15.703125 5.234375 -14.359375 C 4.160156 -13.023438 3.625 -11.253906 3.625 -9.046875 C 3.625 -6.484375 4.160156 -4.601562 5.234375 -3.40625 C 6.304688 -2.207031 7.769531 -1.609375 9.625 -1.609375 C 10.84375 -1.609375 11.867188 -1.847656 12.703125 -2.328125 C 13.546875 -2.804688 14.191406 -3.457031 14.640625 -4.28125 C 15.085938 -5.101562 15.3125 -6.195312 15.3125 -7.5625 L 9.671875 -7.5625 Z M 9.671875 -9.65625 "/></g></g></g><g fill="#00bf63" fill-opacity="0.102"><g transform="translate(217.991552, 158.07254)"><g><path d="M 16.125 -18.0625 L 16.125 -6.34375 C 16.125 -4.34375 15.488281 -2.703125 14.21875 -1.421875 C 12.957031 -0.148438 11.171875 0.484375 8.859375 0.484375 C 6.691406 0.484375 4.992188 -0.101562 3.765625 -1.28125 C 2.535156 -2.457031 1.921875 -4.03125 1.921875 -6 L 1.921875 -18.0625 L 4.328125 -18.0625 L 4.328125 -6.6875 C 4.328125 -5.03125 4.738281 -3.78125 5.5625 -2.9375 C 6.394531 -2.101562 7.507812 -1.6875 8.90625 -1.6875 C 10.394531 -1.6875 11.554688 -2.101562 12.390625 -2.9375 C 13.234375 -3.78125 13.65625 -5.015625 13.65625 -6.640625 L 13.65625 -18.0625 Z M 16.125 -18.0625 "/></g></g></g><g fill="#00bf63" fill-opacity="0.102"><g transform="translate(238.062356, 158.07254)"><g><path d="M 4.484375 -9.84375 L 10.140625 -9.84375 C 11.441406 -9.84375 12.378906 -10.109375 12.953125 -10.640625 C 13.523438 -11.179688 13.8125 -11.953125 13.8125 -12.953125 C 13.8125 -13.867188 13.5625 -14.597656 13.0625 -15.140625 C 12.570312 -15.691406 11.734375 -15.96875 10.546875 -15.96875 L 4.484375 -15.96875 Z M 4.484375 0 L 2.03125 0 L 2.03125 -18.0625 L 10.390625 -18.0625 C 12.328125 -18.0625 13.796875 -17.644531 14.796875 -16.8125 C 15.796875 -15.988281 16.296875 -14.785156 16.296875 -13.203125 C 16.296875 -12.160156 16.09375 -11.289062 15.6875 -10.59375 C 15.289062 -9.90625 14.664062 -9.332031 13.8125 -8.875 C 14.539062 -8.601562 15.066406 -8.222656 15.390625 -7.734375 C 15.722656 -7.253906 15.914062 -6.503906 15.96875 -5.484375 L 16.125 -2.109375 C 16.144531 -1.554688 16.234375 -1.164062 16.390625 -0.9375 C 16.546875 -0.71875 16.769531 -0.539062 17.0625 -0.40625 L 17.0625 0 L 14.046875 0 C 13.890625 -0.445312 13.773438 -1.128906 13.703125 -2.046875 C 13.640625 -2.960938 13.609375 -3.789062 13.609375 -4.53125 C 13.609375 -4.894531 13.570312 -5.269531 13.5 -5.65625 C 13.4375 -6.039062 13.296875 -6.390625 13.078125 -6.703125 C 12.859375 -7.015625 12.535156 -7.265625 12.109375 -7.453125 C 11.679688 -7.648438 11.109375 -7.75 10.390625 -7.75 L 4.484375 -7.75 Z M 4.484375 0 "/></g></g></g><g fill="#00bf63" fill-opacity="0.102"><g transform="translate(258.084026, 158.07254)"><g><path d="M 4.484375 0 L 2.03125 0 L 2.03125 -18.0625 L 4.484375 -18.0625 Z M 4.484375 0 "/></g></g></g><g fill="#00bf63" fill-opacity="0.102"><g transform="translate(266.632792, 158.07254)"><g><path d="M 13.984375 -18.0625 L 16.34375 -18.0625 L 16.34375 0 L 13.640625 0 L 4.421875 -14.59375 L 4.375 -14.59375 L 4.375 0 L 2.03125 0 L 2.03125 -18.0625 L 4.90625 -18.0625 L 13.9375 -3.46875 L 13.984375 -3.46875 Z M 13.984375 -18.0625 "/></g></g></g><g fill="#00bf63" fill-opacity="0.102"><g transform="translate(287.084405, 158.07254)"><g><path d="M 9.671875 -9.65625 L 17.609375 -9.65625 L 17.609375 0 L 16.03125 0 L 15.4375 -2.328125 C 14.664062 -1.347656 13.757812 -0.632812 12.71875 -0.1875 C 11.6875 0.257812 10.609375 0.484375 9.484375 0.484375 C 7.671875 0.484375 6.15625 0.0859375 4.9375 -0.703125 C 3.726562 -1.492188 2.785156 -2.582031 2.109375 -3.96875 C 1.441406 -5.363281 1.109375 -7.101562 1.109375 -9.1875 C 1.109375 -11.78125 1.878906 -13.984375 3.421875 -15.796875 C 4.960938 -17.617188 7.039062 -18.53125 9.65625 -18.53125 C 11.601562 -18.53125 13.304688 -17.984375 14.765625 -16.890625 C 16.222656 -15.804688 17.070312 -14.367188 17.3125 -12.578125 L 14.953125 -12.578125 C 14.660156 -13.765625 14.050781 -14.691406 13.125 -15.359375 C 12.207031 -16.035156 11.007812 -16.375 9.53125 -16.375 C 7.75 -16.375 6.316406 -15.703125 5.234375 -14.359375 C 4.160156 -13.023438 3.625 -11.253906 3.625 -9.046875 C 3.625 -6.484375 4.160156 -4.601562 5.234375 -3.40625 C 6.304688 -2.207031 7.769531 -1.609375 9.625 -1.609375 C 10.84375 -1.609375 11.867188 -1.847656 12.703125 -2.328125 C 13.546875 -2.804688 14.191406 -3.457031 14.640625 -4.28125 C 15.085938 -5.101562 15.3125 -6.195312 15.3125 -7.5625 L 9.671875 -7.5625 Z M 9.671875 -9.65625 "/></g></g></g><g fill="#fa7e55" fill-opacity="1"><g transform="translate(85.538472, 157.124469)"><g><path d="M 12.671875 -12.78125 C 12.628906 -13.925781 12.203125 -14.820312 11.390625 -15.46875 C 10.585938 -16.125 9.523438 -16.453125 8.203125 -16.453125 C 6.878906 -16.453125 5.859375 -16.175781 5.140625 -15.625 C 4.429688 -15.082031 4.078125 -14.300781 4.078125 -13.28125 C 4.078125 -12.726562 4.234375 -12.253906 4.546875 -11.859375 C 4.859375 -11.472656 5.414062 -11.1875 6.21875 -11 L 11.375 -9.8125 C 12.769531 -9.507812 13.800781 -8.929688 14.46875 -8.078125 C 15.144531 -7.234375 15.484375 -6.203125 15.484375 -4.984375 C 15.484375 -3.203125 14.828125 -1.84375 13.515625 -0.90625 C 12.203125 0.0195312 10.5 0.484375 8.40625 0.484375 C 6.800781 0.484375 5.539062 0.28125 4.625 -0.125 C 3.707031 -0.539062 2.890625 -1.191406 2.171875 -2.078125 C 1.460938 -2.972656 1.109375 -4.222656 1.109375 -5.828125 L 3.390625 -5.828125 C 3.390625 -4.484375 3.832031 -3.441406 4.71875 -2.703125 C 5.613281 -1.972656 6.832031 -1.609375 8.375 -1.609375 C 9.863281 -1.609375 11.023438 -1.867188 11.859375 -2.390625 C 12.691406 -2.921875 13.109375 -3.675781 13.109375 -4.65625 C 13.109375 -5.539062 12.859375 -6.203125 12.359375 -6.640625 C 11.867188 -7.078125 10.898438 -7.460938 9.453125 -7.796875 L 5.5625 -8.703125 C 4.269531 -9.003906 3.300781 -9.519531 2.65625 -10.25 C 2.019531 -10.976562 1.703125 -11.878906 1.703125 -12.953125 C 1.703125 -14.578125 2.25 -15.910156 3.34375 -16.953125 C 4.4375 -18.003906 5.960938 -18.53125 7.921875 -18.53125 C 10.128906 -18.53125 11.832031 -18.066406 13.03125 -17.140625 C 14.238281 -16.222656 14.882812 -14.769531 14.96875 -12.78125 Z M 12.671875 -12.78125 "/></g></g></g><g fill="#fa7e55" fill-opacity="1"><g transform="translate(104.258079, 157.124469)"><g><path d="M 6.390625 -15.890625 L 0.3125 -15.890625 L 0.3125 -18.0625 L 14.96875 -18.0625 L 14.96875 -15.890625 L 8.828125 -15.890625 L 8.828125 0 L 6.390625 0 Z M 6.390625 -15.890625 "/></g></g></g><g fill="#fa7e55" fill-opacity="1"><g transform="translate(121.60192, 157.124469)"><g><path d="M 4.484375 0 L 2.03125 0 L 2.03125 -18.0625 L 4.484375 -18.0625 Z M 4.484375 0 "/></g></g></g><g fill="#fa7e55" fill-opacity="1"><g transform="translate(130.150689, 157.124469)"><g><path d="M 4.453125 -2.15625 L 13.640625 -2.15625 L 13.640625 0 L 2.03125 0 L 2.03125 -18.0625 L 4.453125 -18.0625 Z M 4.453125 -2.15625 "/></g></g></g><g fill="#fa7e55" fill-opacity="1"><g transform="translate(146.204754, 157.124469)"><g><path d="M 4.453125 -2.15625 L 13.640625 -2.15625 L 13.640625 0 L 2.03125 0 L 2.03125 -18.0625 L 4.453125 -18.0625 Z M 4.453125 -2.15625 "/></g></g></g><g fill="#fa7e55" fill-opacity="1"><g transform="translate(162.258819, 157.124469)"><g/></g></g><g fill="#fa7e55" fill-opacity="1"><g transform="translate(170.463643, 157.124469)"><g><path d="M 4.484375 0 L 2.03125 0 L 2.03125 -18.0625 L 14.546875 -18.0625 L 14.546875 -15.890625 L 4.484375 -15.890625 L 4.484375 -10.359375 L 13.328125 -10.359375 L 13.328125 -8.203125 L 4.484375 -8.203125 Z M 4.484375 0 "/></g></g></g><g fill="#fa7e55" fill-opacity="1"><g transform="translate(187.561816, 157.124469)"><g><path d="M 4.484375 0 L 2.03125 0 L 2.03125 -18.0625 L 4.484375 -18.0625 Z M 4.484375 0 "/></g></g></g><g fill="#fa7e55" fill-opacity="1"><g transform="translate(196.110582, 157.124469)"><g><path d="M 9.671875 -9.65625 L 17.609375 -9.65625 L 17.609375 0 L 16.03125 0 L 15.4375 -2.328125 C 14.664062 -1.347656 13.757812 -0.632812 12.71875 -0.1875 C 11.6875 0.257812 10.609375 0.484375 9.484375 0.484375 C 7.671875 0.484375 6.15625 0.0859375 4.9375 -0.703125 C 3.726562 -1.492188 2.785156 -2.582031 2.109375 -3.96875 C 1.441406 -5.363281 1.109375 -7.101562 1.109375 -9.1875 C 1.109375 -11.78125 1.878906 -13.984375 3.421875 -15.796875 C 4.960938 -17.617188 7.039062 -18.53125 9.65625 -18.53125 C 11.601562 -18.53125 13.304688 -17.984375 14.765625 -16.890625 C 16.222656 -15.804688 17.070312 -14.367188 17.3125 -12.578125 L 14.953125 -12.578125 C 14.660156 -13.765625 14.050781 -14.691406 13.125 -15.359375 C 12.207031 -16.035156 11.007812 -16.375 9.53125 -16.375 C 7.75 -16.375 6.316406 -15.703125 5.234375 -14.359375 C 4.160156 -13.023438 3.625 -11.253906 3.625 -9.046875 C 3.625 -6.484375 4.160156 -4.601562 5.234375 -3.40625 C 6.304688 -2.207031 7.769531 -1.609375 9.625 -1.609375 C 10.84375 -1.609375 11.867188 -1.847656 12.703125 -2.328125 C 13.546875 -2.804688 14.191406 -3.457031 14.640625 -4.28125 C 15.085938 -5.101562 15.3125 -6.195312 15.3125 -7.5625 L 9.671875 -7.5625 Z M 9.671875 -9.65625 "/></g></g></g><g fill="#fa7e55" fill-opacity="1"><g transform="translate(217.569441, 157.124469)"><g><path d="M 16.125 -18.0625 L 16.125 -6.34375 C 16.125 -4.34375 15.488281 -2.703125 14.21875 -1.421875 C 12.957031 -0.148438 11.171875 0.484375 8.859375 0.484375 C 6.691406 0.484375 4.992188 -0.101562 3.765625 -1.28125 C 2.535156 -2.457031 1.921875 -4.03125 1.921875 -6 L 1.921875 -18.0625 L 4.328125 -18.0625 L 4.328125 -6.6875 C 4.328125 -5.03125 4.738281 -3.78125 5.5625 -2.9375 C 6.394531 -2.101562 7.507812 -1.6875 8.90625 -1.6875 C 10.394531 -1.6875 11.554688 -2.101562 12.390625 -2.9375 C 13.234375 -3.78125 13.65625 -5.015625 13.65625 -6.640625 L 13.65625 -18.0625 Z M 16.125 -18.0625 "/></g></g></g><g fill="#fa7e55" fill-opacity="1"><g transform="translate(237.640246, 157.124469)"><g><path d="M 4.484375 -9.84375 L 10.140625 -9.84375 C 11.441406 -9.84375 12.378906 -10.109375 12.953125 -10.640625 C 13.523438 -11.179688 13.8125 -11.953125 13.8125 -12.953125 C 13.8125 -13.867188 13.5625 -14.597656 13.0625 -15.140625 C 12.570312 -15.691406 11.734375 -15.96875 10.546875 -15.96875 L 4.484375 -15.96875 Z M 4.484375 0 L 2.03125 0 L 2.03125 -18.0625 L 10.390625 -18.0625 C 12.328125 -18.0625 13.796875 -17.644531 14.796875 -16.8125 C 15.796875 -15.988281 16.296875 -14.785156 16.296875 -13.203125 C 16.296875 -12.160156 16.09375 -11.289062 15.6875 -10.59375 C 15.289062 -9.90625 14.664062 -9.332031 13.8125 -8.875 C 14.539062 -8.601562 15.066406 -8.222656 15.390625 -7.734375 C 15.722656 -7.253906 15.914062 -6.503906 15.96875 -5.484375 L 16.125 -2.109375 C 16.144531 -1.554688 16.234375 -1.164062 16.390625 -0.9375 C 16.546875 -0.71875 16.769531 -0.539062 17.0625 -0.40625 L 17.0625 0 L 14.046875 0 C 13.890625 -0.445312 13.773438 -1.128906 13.703125 -2.046875 C 13.640625 -2.960938 13.609375 -3.789062 13.609375 -4.53125 C 13.609375 -4.894531 13.570312 -5.269531 13.5 -5.65625 C 13.4375 -6.039062 13.296875 -6.390625 13.078125 -6.703125 C 12.859375 -7.015625 12.535156 -7.265625 12.109375 -7.453125 C 11.679688 -7.648438 11.109375 -7.75 10.390625 -7.75 L 4.484375 -7.75 Z M 4.484375 0 "/></g></g></g><g fill="#fa7e55" fill-opacity="1"><g transform="translate(257.661916, 157.124469)"><g><path d="M 4.484375 0 L 2.03125 0 L 2.03125 -18.0625 L 4.484375 -18.0625 Z M 4.484375 0 "/></g></g></g><g fill="#fa7e55" fill-opacity="1"><g transform="translate(266.210682, 157.124469)"><g><path d="M 13.984375 -18.0625 L 16.34375 -18.0625 L 16.34375 0 L 13.640625 0 L 4.421875 -14.59375 L 4.375 -14.59375 L 4.375 0 L 2.03125 0 L 2.03125 -18.0625 L 4.90625 -18.0625 L 13.9375 -3.46875 L 13.984375 -3.46875 Z M 13.984375 -18.0625 "/></g></g></g><g fill="#fa7e55" fill-opacity="1"><g transform="translate(286.662294, 157.124469)"><g><path d="M 9.671875 -9.65625 L 17.609375 -9.65625 L 17.609375 0 L 16.03125 0 L 15.4375 -2.328125 C 14.664062 -1.347656 13.757812 -0.632812 12.71875 -0.1875 C 11.6875 0.257812 10.609375 0.484375 9.484375 0.484375 C 7.671875 0.484375 6.15625 0.0859375 4.9375 -0.703125 C 3.726562 -1.492188 2.785156 -2.582031 2.109375 -3.96875 C 1.441406 -5.363281 1.109375 -7.101562 1.109375 -9.1875 C 1.109375 -11.78125 1.878906 -13.984375 3.421875 -15.796875 C 4.960938 -17.617188 7.039062 -18.53125 9.65625 -18.53125 C 11.601562 -18.53125 13.304688 -17.984375 14.765625 -16.890625 C 16.222656 -15.804688 17.070312 -14.367188 17.3125 -12.578125 L 14.953125 -12.578125 C 14.660156 -13.765625 14.050781 -14.691406 13.125 -15.359375 C 12.207031 -16.035156 11.007812 -16.375 9.53125 -16.375 C 7.75 -16.375 6.316406 -15.703125 5.234375 -14.359375 C 4.160156 -13.023438 3.625 -11.253906 3.625 -9.046875 C 3.625 -6.484375 4.160156 -4.601562 5.234375 -3.40625 C 6.304688 -2.207031 7.769531 -1.609375 9.625 -1.609375 C 10.84375 -1.609375 11.867188 -1.847656 12.703125 -2.328125 C 13.546875 -2.804688 14.191406 -3.457031 14.640625 -4.28125 C 15.085938 -5.101562 15.3125 -6.195312 15.3125 -7.5625 L 9.671875 -7.5625 Z M 9.671875 -9.65625 "/></g></g></g><g fill="#00bf63" fill-opacity="0.102"><g transform="translate(80.009956, 192.880505)"><g/></g></g><g fill="#fa7e55" fill-opacity="1"><g transform="translate(79.587846, 191.932434)"><g/></g></g><g fill="#00bf63" fill-opacity="0.102"><g transform="translate(88.221394, 192.880505)"><g><path d="M 4.484375 0 L 2.03125 0 L 2.03125 -18.0625 L 4.484375 -18.0625 Z M 4.484375 0 "/></g></g></g><g fill="#00bf63" fill-opacity="0.102"><g transform="translate(96.770162, 192.880505)"><g><path d="M 6.390625 -15.890625 L 0.3125 -15.890625 L 0.3125 -18.0625 L 14.96875 -18.0625 L 14.96875 -15.890625 L 8.828125 -15.890625 L 8.828125 0 L 6.390625 0 Z M 6.390625 -15.890625 "/></g></g></g><g fill="#00bf63" fill-opacity="0.102"><g transform="translate(114.114003, 192.880505)"><g/></g></g><g fill="#00bf63" fill-opacity="0.102"><g transform="translate(122.31883, 192.880505)"><g><path d="M 16.078125 -9.03125 C 16.078125 -11.144531 15.515625 -12.894531 14.390625 -14.28125 C 13.273438 -15.675781 11.742188 -16.375 9.796875 -16.375 C 7.859375 -16.375 6.320312 -15.675781 5.1875 -14.28125 C 4.0625 -12.894531 3.5 -11.144531 3.5 -9.03125 C 3.5 -6.851562 4.070312 -5.082031 5.21875 -3.71875 C 6.363281 -2.363281 7.890625 -1.6875 9.796875 -1.6875 C 11.648438 -1.6875 13.160156 -2.347656 14.328125 -3.671875 C 15.492188 -4.992188 16.078125 -6.78125 16.078125 -9.03125 Z M 18.578125 -9.03125 C 18.578125 -6.332031 17.800781 -4.070312 16.25 -2.25 C 14.695312 -0.425781 12.546875 0.484375 9.796875 0.484375 C 7.023438 0.484375 4.863281 -0.425781 3.3125 -2.25 C 1.757812 -4.070312 0.984375 -6.332031 0.984375 -9.03125 C 0.984375 -11.726562 1.757812 -13.984375 3.3125 -15.796875 C 4.863281 -17.617188 7.023438 -18.53125 9.796875 -18.53125 C 12.628906 -18.53125 14.800781 -17.601562 16.3125 -15.75 C 17.820312 -13.90625 18.578125 -11.664062 18.578125 -9.03125 Z M 18.578125 -9.03125 "/></g></g></g><g fill="#00bf63" fill-opacity="0.102"><g transform="translate(143.94966, 192.880505)"><g><path d="M 16.125 -18.0625 L 16.125 -6.34375 C 16.125 -4.34375 15.488281 -2.703125 14.21875 -1.421875 C 12.957031 -0.148438 11.171875 0.484375 8.859375 0.484375 C 6.691406 0.484375 4.992188 -0.101562 3.765625 -1.28125 C 2.535156 -2.457031 1.921875 -4.03125 1.921875 -6 L 1.921875 -18.0625 L 4.328125 -18.0625 L 4.328125 -6.6875 C 4.328125 -5.03125 4.738281 -3.78125 5.5625 -2.9375 C 6.394531 -2.101562 7.507812 -1.6875 8.90625 -1.6875 C 10.394531 -1.6875 11.554688 -2.101562 12.390625 -2.9375 C 13.234375 -3.78125 13.65625 -5.015625 13.65625 -6.640625 L 13.65625 -18.0625 Z M 16.125 -18.0625 "/></g></g></g><g fill="#00bf63" fill-opacity="0.102"><g transform="translate(164.020464, 192.880505)"><g><path d="M 6.390625 -15.890625 L 0.3125 -15.890625 L 0.3125 -18.0625 L 14.96875 -18.0625 L 14.96875 -15.890625 L 8.828125 -15.890625 L 8.828125 0 L 6.390625 0 Z M 6.390625 -15.890625 "/></g></g></g><g fill="#fa7e55" fill-opacity="1"><g transform="translate(87.799284, 191.932434)"><g><path d="M 4.484375 0 L 2.03125 0 L 2.03125 -18.0625 L 4.484375 -18.0625 Z M 4.484375 0 "/></g></g></g><g fill="#fa7e55" fill-opacity="1"><g transform="translate(96.348051, 191.932434)"><g><path d="M 6.390625 -15.890625 L 0.3125 -15.890625 L 0.3125 -18.0625 L 14.96875 -18.0625 L 14.96875 -15.890625 L 8.828125 -15.890625 L 8.828125 0 L 6.390625 0 Z M 6.390625 -15.890625 "/></g></g></g><g fill="#fa7e55" fill-opacity="1"><g transform="translate(113.691892, 191.932434)"><g/></g></g><g fill="#fa7e55" fill-opacity="1"><g transform="translate(121.89672, 191.932434)"><g><path d="M 16.078125 -9.03125 C 16.078125 -11.144531 15.515625 -12.894531 14.390625 -14.28125 C 13.273438 -15.675781 11.742188 -16.375 9.796875 -16.375 C 7.859375 -16.375 6.320312 -15.675781 5.1875 -14.28125 C 4.0625 -12.894531 3.5 -11.144531 3.5 -9.03125 C 3.5 -6.851562 4.070312 -5.082031 5.21875 -3.71875 C 6.363281 -2.363281 7.890625 -1.6875 9.796875 -1.6875 C 11.648438 -1.6875 13.160156 -2.347656 14.328125 -3.671875 C 15.492188 -4.992188 16.078125 -6.78125 16.078125 -9.03125 Z M 18.578125 -9.03125 C 18.578125 -6.332031 17.800781 -4.070312 16.25 -2.25 C 14.695312 -0.425781 12.546875 0.484375 9.796875 0.484375 C 7.023438 0.484375 4.863281 -0.425781 3.3125 -2.25 C 1.757812 -4.070312 0.984375 -6.332031 0.984375 -9.03125 C 0.984375 -11.726562 1.757812 -13.984375 3.3125 -15.796875 C 4.863281 -17.617188 7.023438 -18.53125 9.796875 -18.53125 C 12.628906 -18.53125 14.800781 -17.601562 16.3125 -15.75 C 17.820312 -13.90625 18.578125 -11.664062 18.578125 -9.03125 Z M 18.578125 -9.03125 "/></g></g></g><g fill="#fa7e55" fill-opacity="1"><g transform="translate(143.527549, 191.932434)"><g><path d="M 16.125 -18.0625 L 16.125 -6.34375 C 16.125 -4.34375 15.488281 -2.703125 14.21875 -1.421875 C 12.957031 -0.148438 11.171875 0.484375 8.859375 0.484375 C 6.691406 0.484375 4.992188 -0.101562 3.765625 -1.28125 C 2.535156 -2.457031 1.921875 -4.03125 1.921875 -6 L 1.921875 -18.0625 L 4.328125 -18.0625 L 4.328125 -6.6875 C 4.328125 -5.03125 4.738281 -3.78125 5.5625 -2.9375 C 6.394531 -2.101562 7.507812 -1.6875 8.90625 -1.6875 C 10.394531 -1.6875 11.554688 -2.101562 12.390625 -2.9375 C 13.234375 -3.78125 13.65625 -5.015625 13.65625 -6.640625 L 13.65625 -18.0625 Z M 16.125 -18.0625 "/></g></g></g><g fill="#fa7e55" fill-opacity="1"><g transform="translate(163.598354, 191.932434)"><g><path d="M 6.390625 -15.890625 L 0.3125 -15.890625 L 0.3125 -18.0625 L 14.96875 -18.0625 L 14.96875 -15.890625 L 8.828125 -15.890625 L 8.828125 0 L 6.390625 0 Z M 6.390625 -15.890625 "/></g></g></g></svg>