<svg xmlns="http://www.w3.org/2000/svg" xmlns:xlink="http://www.w3.org/1999/xlink" width="1200" zoomAndPan="magnify" viewBox="0 0 525 344.999992" height="1200" preserveAspectRatio="xMidYMid meet" version="1.0"><defs><g/><clipPath id="841492f295"><path d="M 12.246094 2 L 512.496094 2 L 512.496094 343 L 12.246094 343 Z M 12.246094 2 " clip-rule="nonzero"/></clipPath></defs><g clip-path="url(#841492f295)"><path fill="#d5d83a" d="M 70.257812 320.898438 L 172.386719 209.214844 L 206.246094 335.582031 L 320.332031 221.496094 L 362.449219 342.335938 L 512.496094 187.285156 L 485.375 80.753906 L 394.90625 164.890625 L 362.332031 43.324219 L 257.796875 147.863281 L 218.859375 2.550781 L 12.109375 209.300781 " fill-opacity="1" fill-rule="nonzero"/></g><g fill="#00bf63" fill-opacity="0.102"><g transform="translate(201.136178, 176.674315)"><g><path d="M 2.921875 -6.828125 L 9.171875 -6.828125 L 9.171875 -15.640625 L 9.125 -15.640625 Z M 11.609375 -4.71875 L 11.609375 0 L 9.171875 0 L 9.171875 -4.71875 L 0.6875 -4.71875 L 0.6875 -7.09375 L 9.59375 -19.4375 L 11.609375 -19.4375 L 11.609375 -6.828125 L 14.453125 -6.828125 L 14.453125 -4.71875 Z M 11.609375 -4.71875 "/></g></g></g><g fill="#00bf63" fill-opacity="0.102"><g transform="translate(218.77566, 176.674315)"><g/></g></g><g fill="#00bf63" fill-opacity="0.102"><g transform="translate(227.790904, 176.674315)"><g><path d="M 18.65625 0 L 18.65625 -11.71875 C 18.65625 -11.863281 18.660156 -12.609375 18.671875 -13.953125 C 18.691406 -15.304688 18.703125 -16.210938 18.703125 -16.671875 L 18.625 -16.671875 L 13.078125 0 L 10.421875 0 L 4.859375 -16.640625 L 4.78125 -16.640625 C 4.78125 -15.972656 4.785156 -15.019531 4.796875 -13.78125 C 4.816406 -12.550781 4.828125 -11.863281 4.828125 -11.71875 L 4.828125 0 L 2.234375 0 L 2.234375 -19.84375 L 6.078125 -19.84375 L 11.71875 -3.0625 L 11.796875 -3.0625 L 17.40625 -19.84375 L 21.25 -19.84375 L 21.25 0 Z M 18.65625 0 "/></g></g></g><g fill="#00bf63" fill-opacity="0.102"><g transform="translate(253.555252, 176.674315)"><g><path d="M 17.671875 -9.921875 C 17.671875 -12.242188 17.054688 -14.164062 15.828125 -15.6875 C 14.597656 -17.21875 12.90625 -17.984375 10.75 -17.984375 C 8.632812 -17.984375 6.953125 -17.21875 5.703125 -15.6875 C 4.460938 -14.164062 3.84375 -12.242188 3.84375 -9.921875 C 3.84375 -7.523438 4.472656 -5.578125 5.734375 -4.078125 C 6.992188 -2.585938 8.664062 -1.84375 10.75 -1.84375 C 12.800781 -1.84375 14.46875 -2.570312 15.75 -4.03125 C 17.03125 -5.488281 17.671875 -7.453125 17.671875 -9.921875 Z M 20.421875 -9.921875 C 20.421875 -6.960938 19.566406 -4.476562 17.859375 -2.46875 C 16.148438 -0.46875 13.78125 0.53125 10.75 0.53125 C 7.707031 0.53125 5.332031 -0.46875 3.625 -2.46875 C 1.925781 -4.476562 1.078125 -6.960938 1.078125 -9.921875 C 1.078125 -12.890625 1.925781 -15.367188 3.625 -17.359375 C 5.332031 -19.359375 7.707031 -20.359375 10.75 -20.359375 C 13.863281 -20.359375 16.253906 -19.34375 17.921875 -17.3125 C 19.585938 -15.28125 20.421875 -12.816406 20.421875 -9.921875 Z M 20.421875 -9.921875 "/></g></g></g><g fill="#00bf63" fill-opacity="0.102"><g transform="translate(277.322128, 176.674315)"><g><path d="M 4.921875 -2.296875 L 10.125 -2.296875 C 11.925781 -2.296875 13.332031 -2.984375 14.34375 -4.359375 C 15.363281 -5.742188 15.875 -7.632812 15.875 -10.03125 C 15.875 -12.394531 15.359375 -14.234375 14.328125 -15.546875 C 13.304688 -16.859375 11.828125 -17.523438 9.890625 -17.546875 L 4.921875 -17.546875 Z M 2.234375 -19.84375 L 10.28125 -19.84375 C 12.882812 -19.84375 14.921875 -18.945312 16.390625 -17.15625 C 17.859375 -15.375 18.59375 -13.054688 18.59375 -10.203125 C 18.59375 -7.140625 17.859375 -4.671875 16.390625 -2.796875 C 14.921875 -0.929688 12.847656 0 10.171875 0 L 2.234375 0 Z M 2.234375 -19.84375 "/></g></g></g><g fill="#00bf63" fill-opacity="0.102"><g transform="translate(299.496417, 176.674315)"><g><path d="M 16.890625 0 L 2.234375 0 L 2.234375 -19.84375 L 16.6875 -19.84375 L 16.6875 -17.46875 L 4.921875 -17.46875 L 4.921875 -11.390625 L 15.78125 -11.390625 L 15.78125 -9.015625 L 4.921875 -9.015625 L 4.921875 -2.375 L 16.890625 -2.375 Z M 16.890625 0 "/></g></g></g><g fill="#00bf63" fill-opacity="0.102"><g transform="translate(319.727216, 176.674315)"><g><path d="M 4.921875 -10.8125 L 11.140625 -10.8125 C 12.578125 -10.8125 13.609375 -11.101562 14.234375 -11.6875 C 14.859375 -12.28125 15.171875 -13.128906 15.171875 -14.234375 C 15.171875 -15.242188 14.898438 -16.046875 14.359375 -16.640625 C 13.816406 -17.242188 12.890625 -17.546875 11.578125 -17.546875 L 4.921875 -17.546875 Z M 4.921875 0 L 2.234375 0 L 2.234375 -19.84375 L 11.421875 -19.84375 C 13.546875 -19.84375 15.15625 -19.382812 16.25 -18.46875 C 17.351562 -17.5625 17.90625 -16.242188 17.90625 -14.515625 C 17.90625 -13.367188 17.6875 -12.410156 17.25 -11.640625 C 16.8125 -10.878906 16.117188 -10.253906 15.171875 -9.765625 C 15.984375 -9.460938 16.566406 -9.039062 16.921875 -8.5 C 17.285156 -7.96875 17.492188 -7.140625 17.546875 -6.015625 L 17.71875 -2.328125 C 17.738281 -1.710938 17.835938 -1.28125 18.015625 -1.03125 C 18.191406 -0.78125 18.4375 -0.585938 18.75 -0.453125 L 18.75 0 L 15.421875 0 C 15.253906 -0.5 15.132812 -1.25 15.0625 -2.25 C 14.988281 -3.257812 14.953125 -4.171875 14.953125 -4.984375 C 14.953125 -5.390625 14.914062 -5.800781 14.84375 -6.21875 C 14.769531 -6.644531 14.613281 -7.023438 14.375 -7.359375 C 14.132812 -7.703125 13.78125 -7.976562 13.3125 -8.1875 C 12.84375 -8.40625 12.210938 -8.515625 11.421875 -8.515625 L 4.921875 -8.515625 Z M 4.921875 0 "/></g></g></g><g fill="#00bf63" fill-opacity="0.102"><g transform="translate(341.726046, 176.674315)"><g><path d="M 15.375 -19.84375 L 17.96875 -19.84375 L 17.96875 0 L 14.984375 0 L 4.859375 -16.03125 L 4.8125 -16.03125 L 4.8125 0 L 2.234375 0 L 2.234375 -19.84375 L 5.390625 -19.84375 L 15.3125 -3.8125 L 15.375 -3.8125 Z M 15.375 -19.84375 "/></g></g></g><g fill="#00bf63" fill-opacity="1"><g transform="translate(200.672327, 175.632489)"><g><path d="M 2.921875 -6.828125 L 9.171875 -6.828125 L 9.171875 -15.640625 L 9.125 -15.640625 Z M 11.609375 -4.71875 L 11.609375 0 L 9.171875 0 L 9.171875 -4.71875 L 0.6875 -4.71875 L 0.6875 -7.09375 L 9.59375 -19.4375 L 11.609375 -19.4375 L 11.609375 -6.828125 L 14.453125 -6.828125 L 14.453125 -4.71875 Z M 11.609375 -4.71875 "/></g></g></g><g fill="#00bf63" fill-opacity="1"><g transform="translate(218.311809, 175.632489)"><g/></g></g><g fill="#00bf63" fill-opacity="1"><g transform="translate(227.327053, 175.632489)"><g><path d="M 18.65625 0 L 18.65625 -11.71875 C 18.65625 -11.863281 18.660156 -12.609375 18.671875 -13.953125 C 18.691406 -15.304688 18.703125 -16.210938 18.703125 -16.671875 L 18.625 -16.671875 L 13.078125 0 L 10.421875 0 L 4.859375 -16.640625 L 4.78125 -16.640625 C 4.78125 -15.972656 4.785156 -15.019531 4.796875 -13.78125 C 4.816406 -12.550781 4.828125 -11.863281 4.828125 -11.71875 L 4.828125 0 L 2.234375 0 L 2.234375 -19.84375 L 6.078125 -19.84375 L 11.71875 -3.0625 L 11.796875 -3.0625 L 17.40625 -19.84375 L 21.25 -19.84375 L 21.25 0 Z M 18.65625 0 "/></g></g></g><g fill="#00bf63" fill-opacity="1"><g transform="translate(253.091401, 175.632489)"><g><path d="M 17.671875 -9.921875 C 17.671875 -12.242188 17.054688 -14.164062 15.828125 -15.6875 C 14.597656 -17.21875 12.90625 -17.984375 10.75 -17.984375 C 8.632812 -17.984375 6.953125 -17.21875 5.703125 -15.6875 C 4.460938 -14.164062 3.84375 -12.242188 3.84375 -9.921875 C 3.84375 -7.523438 4.472656 -5.578125 5.734375 -4.078125 C 6.992188 -2.585938 8.664062 -1.84375 10.75 -1.84375 C 12.800781 -1.84375 14.46875 -2.570312 15.75 -4.03125 C 17.03125 -5.488281 17.671875 -7.453125 17.671875 -9.921875 Z M 20.421875 -9.921875 C 20.421875 -6.960938 19.566406 -4.476562 17.859375 -2.46875 C 16.148438 -0.46875 13.78125 0.53125 10.75 0.53125 C 7.707031 0.53125 5.332031 -0.46875 3.625 -2.46875 C 1.925781 -4.476562 1.078125 -6.960938 1.078125 -9.921875 C 1.078125 -12.890625 1.925781 -15.367188 3.625 -17.359375 C 5.332031 -19.359375 7.707031 -20.359375 10.75 -20.359375 C 13.863281 -20.359375 16.253906 -19.34375 17.921875 -17.3125 C 19.585938 -15.28125 20.421875 -12.816406 20.421875 -9.921875 Z M 20.421875 -9.921875 "/></g></g></g><g fill="#00bf63" fill-opacity="1"><g transform="translate(276.858277, 175.632489)"><g><path d="M 4.921875 -2.296875 L 10.125 -2.296875 C 11.925781 -2.296875 13.332031 -2.984375 14.34375 -4.359375 C 15.363281 -5.742188 15.875 -7.632812 15.875 -10.03125 C 15.875 -12.394531 15.359375 -14.234375 14.328125 -15.546875 C 13.304688 -16.859375 11.828125 -17.523438 9.890625 -17.546875 L 4.921875 -17.546875 Z M 2.234375 -19.84375 L 10.28125 -19.84375 C 12.882812 -19.84375 14.921875 -18.945312 16.390625 -17.15625 C 17.859375 -15.375 18.59375 -13.054688 18.59375 -10.203125 C 18.59375 -7.140625 17.859375 -4.671875 16.390625 -2.796875 C 14.921875 -0.929688 12.847656 0 10.171875 0 L 2.234375 0 Z M 2.234375 -19.84375 "/></g></g></g><g fill="#00bf63" fill-opacity="1"><g transform="translate(299.032566, 175.632489)"><g><path d="M 16.890625 0 L 2.234375 0 L 2.234375 -19.84375 L 16.6875 -19.84375 L 16.6875 -17.46875 L 4.921875 -17.46875 L 4.921875 -11.390625 L 15.78125 -11.390625 L 15.78125 -9.015625 L 4.921875 -9.015625 L 4.921875 -2.375 L 16.890625 -2.375 Z M 16.890625 0 "/></g></g></g><g fill="#00bf63" fill-opacity="1"><g transform="translate(319.263366, 175.632489)"><g><path d="M 4.921875 -10.8125 L 11.140625 -10.8125 C 12.578125 -10.8125 13.609375 -11.101562 14.234375 -11.6875 C 14.859375 -12.28125 15.171875 -13.128906 15.171875 -14.234375 C 15.171875 -15.242188 14.898438 -16.046875 14.359375 -16.640625 C 13.816406 -17.242188 12.890625 -17.546875 11.578125 -17.546875 L 4.921875 -17.546875 Z M 4.921875 0 L 2.234375 0 L 2.234375 -19.84375 L 11.421875 -19.84375 C 13.546875 -19.84375 15.15625 -19.382812 16.25 -18.46875 C 17.351562 -17.5625 17.90625 -16.242188 17.90625 -14.515625 C 17.90625 -13.367188 17.6875 -12.410156 17.25 -11.640625 C 16.8125 -10.878906 16.117188 -10.253906 15.171875 -9.765625 C 15.984375 -9.460938 16.566406 -9.039062 16.921875 -8.5 C 17.285156 -7.96875 17.492188 -7.140625 17.546875 -6.015625 L 17.71875 -2.328125 C 17.738281 -1.710938 17.835938 -1.28125 18.015625 -1.03125 C 18.191406 -0.78125 18.4375 -0.585938 18.75 -0.453125 L 18.75 0 L 15.421875 0 C 15.253906 -0.5 15.132812 -1.25 15.0625 -2.25 C 14.988281 -3.257812 14.953125 -4.171875 14.953125 -4.984375 C 14.953125 -5.390625 14.914062 -5.800781 14.84375 -6.21875 C 14.769531 -6.644531 14.613281 -7.023438 14.375 -7.359375 C 14.132812 -7.703125 13.78125 -7.976562 13.3125 -8.1875 C 12.84375 -8.40625 12.210938 -8.515625 11.421875 -8.515625 L 4.921875 -8.515625 Z M 4.921875 0 "/></g></g></g><g fill="#00bf63" fill-opacity="1"><g transform="translate(341.262196, 175.632489)"><g><path d="M 15.375 -19.84375 L 17.96875 -19.84375 L 17.96875 0 L 14.984375 0 L 4.859375 -16.03125 L 4.8125 -16.03125 L 4.8125 0 L 2.234375 0 L 2.234375 -19.84375 L 5.390625 -19.84375 L 15.3125 -3.8125 L 15.375 -3.8125 Z M 15.375 -19.84375 "/></g></g></g><g fill="#00bf63" fill-opacity="0.102"><g transform="translate(192.862686, 214.747801)"><g><path d="M 4.890625 -2.375 L 14.984375 -2.375 L 14.984375 0 L 2.234375 0 L 2.234375 -19.84375 L 4.890625 -19.84375 Z M 4.890625 -2.375 "/></g></g></g><g fill="#00bf63" fill-opacity="0.102"><g transform="translate(210.502168, 214.747801)"><g><path d="M 17.671875 -9.921875 C 17.671875 -12.242188 17.054688 -14.164062 15.828125 -15.6875 C 14.597656 -17.21875 12.90625 -17.984375 10.75 -17.984375 C 8.632812 -17.984375 6.953125 -17.21875 5.703125 -15.6875 C 4.460938 -14.164062 3.84375 -12.242188 3.84375 -9.921875 C 3.84375 -7.523438 4.472656 -5.578125 5.734375 -4.078125 C 6.992188 -2.585938 8.664062 -1.84375 10.75 -1.84375 C 12.800781 -1.84375 14.46875 -2.570312 15.75 -4.03125 C 17.03125 -5.488281 17.671875 -7.453125 17.671875 -9.921875 Z M 20.421875 -9.921875 C 20.421875 -6.960938 19.566406 -4.476562 17.859375 -2.46875 C 16.148438 -0.46875 13.78125 0.53125 10.75 0.53125 C 7.707031 0.53125 5.332031 -0.46875 3.625 -2.46875 C 1.925781 -4.476562 1.078125 -6.960938 1.078125 -9.921875 C 1.078125 -12.890625 1.925781 -15.367188 3.625 -17.359375 C 5.332031 -19.359375 7.707031 -20.359375 10.75 -20.359375 C 13.863281 -20.359375 16.253906 -19.34375 17.921875 -17.3125 C 19.585938 -15.28125 20.421875 -12.816406 20.421875 -9.921875 Z M 20.421875 -9.921875 "/></g></g></g><g fill="#00bf63" fill-opacity="0.102"><g transform="translate(234.269044, 214.747801)"><g><path d="M 16.03125 -13.875 C 15.738281 -15.226562 15.113281 -16.25 14.15625 -16.9375 C 13.207031 -17.632812 11.976562 -17.984375 10.46875 -17.984375 C 8.519531 -17.984375 6.953125 -17.273438 5.765625 -15.859375 C 4.578125 -14.441406 3.984375 -12.53125 3.984375 -10.125 C 3.984375 -7.332031 4.546875 -5.253906 5.671875 -3.890625 C 6.796875 -2.523438 8.421875 -1.84375 10.546875 -1.84375 C 11.953125 -1.84375 13.160156 -2.304688 14.171875 -3.234375 C 15.191406 -4.171875 15.875 -5.523438 16.21875 -7.296875 L 18.828125 -7.296875 C 18.472656 -4.753906 17.503906 -2.8125 15.921875 -1.46875 C 14.335938 -0.132812 12.414062 0.53125 10.15625 0.53125 C 7.445312 0.53125 5.28125 -0.398438 3.65625 -2.265625 C 2.03125 -4.128906 1.21875 -6.71875 1.21875 -10.03125 C 1.21875 -13.21875 2.0625 -15.734375 3.75 -17.578125 C 5.445312 -19.429688 7.6875 -20.359375 10.46875 -20.359375 C 12.769531 -20.359375 14.632812 -19.765625 16.0625 -18.578125 C 17.5 -17.390625 18.351562 -15.820312 18.625 -13.875 Z M 16.03125 -13.875 "/></g></g></g><g fill="#00bf63" fill-opacity="0.102"><g transform="translate(256.524311, 214.747801)"><g><path d="M 12.15625 -8.15625 L 9.234375 -16.890625 L 9.171875 -16.890625 L 6 -8.15625 Z M 5.171875 -5.78125 L 3.09375 0 L 0.34375 0 L 7.796875 -19.84375 L 10.84375 -19.84375 L 18.015625 0 L 15.09375 0 L 13.125 -5.78125 Z M 5.171875 -5.78125 "/></g></g></g><g fill="#00bf63" fill-opacity="0.102"><g transform="translate(277.227482, 214.747801)"><g><path d="M 7.015625 -17.46875 L 0.34375 -17.46875 L 0.34375 -19.84375 L 16.453125 -19.84375 L 16.453125 -17.46875 L 9.703125 -17.46875 L 9.703125 0 L 7.015625 0 Z M 7.015625 -17.46875 "/></g></g></g><g fill="#00bf63" fill-opacity="0.102"><g transform="translate(296.28409, 214.747801)"><g><path d="M 4.921875 0 L 2.234375 0 L 2.234375 -19.84375 L 4.921875 -19.84375 Z M 4.921875 0 "/></g></g></g><g fill="#00bf63" fill-opacity="0.102"><g transform="translate(305.677234, 214.747801)"><g><path d="M 17.671875 -9.921875 C 17.671875 -12.242188 17.054688 -14.164062 15.828125 -15.6875 C 14.597656 -17.21875 12.90625 -17.984375 10.75 -17.984375 C 8.632812 -17.984375 6.953125 -17.21875 5.703125 -15.6875 C 4.460938 -14.164062 3.84375 -12.242188 3.84375 -9.921875 C 3.84375 -7.523438 4.472656 -5.578125 5.734375 -4.078125 C 6.992188 -2.585938 8.664062 -1.84375 10.75 -1.84375 C 12.800781 -1.84375 14.46875 -2.570312 15.75 -4.03125 C 17.03125 -5.488281 17.671875 -7.453125 17.671875 -9.921875 Z M 20.421875 -9.921875 C 20.421875 -6.960938 19.566406 -4.476562 17.859375 -2.46875 C 16.148438 -0.46875 13.78125 0.53125 10.75 0.53125 C 7.707031 0.53125 5.332031 -0.46875 3.625 -2.46875 C 1.925781 -4.476562 1.078125 -6.960938 1.078125 -9.921875 C 1.078125 -12.890625 1.925781 -15.367188 3.625 -17.359375 C 5.332031 -19.359375 7.707031 -20.359375 10.75 -20.359375 C 13.863281 -20.359375 16.253906 -19.34375 17.921875 -17.3125 C 19.585938 -15.28125 20.421875 -12.816406 20.421875 -9.921875 Z M 20.421875 -9.921875 "/></g></g></g><g fill="#00bf63" fill-opacity="0.102"><g transform="translate(329.444104, 214.747801)"><g><path d="M 15.375 -19.84375 L 17.96875 -19.84375 L 17.96875 0 L 14.984375 0 L 4.859375 -16.03125 L 4.8125 -16.03125 L 4.8125 0 L 2.234375 0 L 2.234375 -19.84375 L 5.390625 -19.84375 L 15.3125 -3.8125 L 15.375 -3.8125 Z M 15.375 -19.84375 "/></g></g></g><g fill="#00bf63" fill-opacity="0.102"><g transform="translate(351.915315, 214.747801)"><g><path d="M 13.921875 -14.03125 C 13.867188 -15.289062 13.398438 -16.28125 12.515625 -17 C 11.628906 -17.71875 10.460938 -18.078125 9.015625 -18.078125 C 7.554688 -18.078125 6.4375 -17.773438 5.65625 -17.171875 C 4.875 -16.578125 4.484375 -15.71875 4.484375 -14.59375 C 4.484375 -13.988281 4.648438 -13.46875 4.984375 -13.03125 C 5.328125 -12.601562 5.941406 -12.285156 6.828125 -12.078125 L 12.5 -10.78125 C 14.03125 -10.445312 15.160156 -9.8125 15.890625 -8.875 C 16.628906 -7.945312 17 -6.816406 17 -5.484375 C 17 -3.515625 16.28125 -2.019531 14.84375 -1 C 13.40625 0.0195312 11.535156 0.53125 9.234375 0.53125 C 7.472656 0.53125 6.085938 0.304688 5.078125 -0.140625 C 4.066406 -0.597656 3.171875 -1.316406 2.390625 -2.296875 C 1.609375 -3.273438 1.21875 -4.644531 1.21875 -6.40625 L 3.71875 -6.40625 C 3.71875 -4.9375 4.207031 -3.796875 5.1875 -2.984375 C 6.175781 -2.171875 7.515625 -1.765625 9.203125 -1.765625 C 10.835938 -1.765625 12.113281 -2.054688 13.03125 -2.640625 C 13.945312 -3.222656 14.40625 -4.046875 14.40625 -5.109375 C 14.40625 -6.085938 14.128906 -6.816406 13.578125 -7.296875 C 13.035156 -7.773438 11.972656 -8.195312 10.390625 -8.5625 L 6.109375 -9.5625 C 4.691406 -9.894531 3.628906 -10.460938 2.921875 -11.265625 C 2.222656 -12.066406 1.875 -13.054688 1.875 -14.234375 C 1.875 -16.015625 2.472656 -17.476562 3.671875 -18.625 C 4.878906 -19.78125 6.554688 -20.359375 8.703125 -20.359375 C 11.128906 -20.359375 13 -19.851562 14.3125 -18.84375 C 15.632812 -17.832031 16.347656 -16.226562 16.453125 -14.03125 Z M 13.921875 -14.03125 "/></g></g></g><g fill="#00bf63" fill-opacity="1"><g transform="translate(192.398835, 213.705976)"><g><path d="M 4.890625 -2.375 L 14.984375 -2.375 L 14.984375 0 L 2.234375 0 L 2.234375 -19.84375 L 4.890625 -19.84375 Z M 4.890625 -2.375 "/></g></g></g><g fill="#00bf63" fill-opacity="1"><g transform="translate(210.038317, 213.705976)"><g><path d="M 17.671875 -9.921875 C 17.671875 -12.242188 17.054688 -14.164062 15.828125 -15.6875 C 14.597656 -17.21875 12.90625 -17.984375 10.75 -17.984375 C 8.632812 -17.984375 6.953125 -17.21875 5.703125 -15.6875 C 4.460938 -14.164062 3.84375 -12.242188 3.84375 -9.921875 C 3.84375 -7.523438 4.472656 -5.578125 5.734375 -4.078125 C 6.992188 -2.585938 8.664062 -1.84375 10.75 -1.84375 C 12.800781 -1.84375 14.46875 -2.570312 15.75 -4.03125 C 17.03125 -5.488281 17.671875 -7.453125 17.671875 -9.921875 Z M 20.421875 -9.921875 C 20.421875 -6.960938 19.566406 -4.476562 17.859375 -2.46875 C 16.148438 -0.46875 13.78125 0.53125 10.75 0.53125 C 7.707031 0.53125 5.332031 -0.46875 3.625 -2.46875 C 1.925781 -4.476562 1.078125 -6.960938 1.078125 -9.921875 C 1.078125 -12.890625 1.925781 -15.367188 3.625 -17.359375 C 5.332031 -19.359375 7.707031 -20.359375 10.75 -20.359375 C 13.863281 -20.359375 16.253906 -19.34375 17.921875 -17.3125 C 19.585938 -15.28125 20.421875 -12.816406 20.421875 -9.921875 Z M 20.421875 -9.921875 "/></g></g></g><g fill="#00bf63" fill-opacity="1"><g transform="translate(233.805193, 213.705976)"><g><path d="M 16.03125 -13.875 C 15.738281 -15.226562 15.113281 -16.25 14.15625 -16.9375 C 13.207031 -17.632812 11.976562 -17.984375 10.46875 -17.984375 C 8.519531 -17.984375 6.953125 -17.273438 5.765625 -15.859375 C 4.578125 -14.441406 3.984375 -12.53125 3.984375 -10.125 C 3.984375 -7.332031 4.546875 -5.253906 5.671875 -3.890625 C 6.796875 -2.523438 8.421875 -1.84375 10.546875 -1.84375 C 11.953125 -1.84375 13.160156 -2.304688 14.171875 -3.234375 C 15.191406 -4.171875 15.875 -5.523438 16.21875 -7.296875 L 18.828125 -7.296875 C 18.472656 -4.753906 17.503906 -2.8125 15.921875 -1.46875 C 14.335938 -0.132812 12.414062 0.53125 10.15625 0.53125 C 7.445312 0.53125 5.28125 -0.398438 3.65625 -2.265625 C 2.03125 -4.128906 1.21875 -6.71875 1.21875 -10.03125 C 1.21875 -13.21875 2.0625 -15.734375 3.75 -17.578125 C 5.445312 -19.429688 7.6875 -20.359375 10.46875 -20.359375 C 12.769531 -20.359375 14.632812 -19.765625 16.0625 -18.578125 C 17.5 -17.390625 18.351562 -15.820312 18.625 -13.875 Z M 16.03125 -13.875 "/></g></g></g><g fill="#00bf63" fill-opacity="1"><g transform="translate(256.060461, 213.705976)"><g><path d="M 12.15625 -8.15625 L 9.234375 -16.890625 L 9.171875 -16.890625 L 6 -8.15625 Z M 5.171875 -5.78125 L 3.09375 0 L 0.34375 0 L 7.796875 -19.84375 L 10.84375 -19.84375 L 18.015625 0 L 15.09375 0 L 13.125 -5.78125 Z M 5.171875 -5.78125 "/></g></g></g><g fill="#00bf63" fill-opacity="1"><g transform="translate(276.763631, 213.705976)"><g><path d="M 7.015625 -17.46875 L 0.34375 -17.46875 L 0.34375 -19.84375 L 16.453125 -19.84375 L 16.453125 -17.46875 L 9.703125 -17.46875 L 9.703125 0 L 7.015625 0 Z M 7.015625 -17.46875 "/></g></g></g><g fill="#00bf63" fill-opacity="1"><g transform="translate(295.82024, 213.705976)"><g><path d="M 4.921875 0 L 2.234375 0 L 2.234375 -19.84375 L 4.921875 -19.84375 Z M 4.921875 0 "/></g></g></g><g fill="#00bf63" fill-opacity="1"><g transform="translate(305.213383, 213.705976)"><g><path d="M 17.671875 -9.921875 C 17.671875 -12.242188 17.054688 -14.164062 15.828125 -15.6875 C 14.597656 -17.21875 12.90625 -17.984375 10.75 -17.984375 C 8.632812 -17.984375 6.953125 -17.21875 5.703125 -15.6875 C 4.460938 -14.164062 3.84375 -12.242188 3.84375 -9.921875 C 3.84375 -7.523438 4.472656 -5.578125 5.734375 -4.078125 C 6.992188 -2.585938 8.664062 -1.84375 10.75 -1.84375 C 12.800781 -1.84375 14.46875 -2.570312 15.75 -4.03125 C 17.03125 -5.488281 17.671875 -7.453125 17.671875 -9.921875 Z M 20.421875 -9.921875 C 20.421875 -6.960938 19.566406 -4.476562 17.859375 -2.46875 C 16.148438 -0.46875 13.78125 0.53125 10.75 0.53125 C 7.707031 0.53125 5.332031 -0.46875 3.625 -2.46875 C 1.925781 -4.476562 1.078125 -6.960938 1.078125 -9.921875 C 1.078125 -12.890625 1.925781 -15.367188 3.625 -17.359375 C 5.332031 -19.359375 7.707031 -20.359375 10.75 -20.359375 C 13.863281 -20.359375 16.253906 -19.34375 17.921875 -17.3125 C 19.585938 -15.28125 20.421875 -12.816406 20.421875 -9.921875 Z M 20.421875 -9.921875 "/></g></g></g><g fill="#00bf63" fill-opacity="1"><g transform="translate(328.980254, 213.705976)"><g><path d="M 15.375 -19.84375 L 17.96875 -19.84375 L 17.96875 0 L 14.984375 0 L 4.859375 -16.03125 L 4.8125 -16.03125 L 4.8125 0 L 2.234375 0 L 2.234375 -19.84375 L 5.390625 -19.84375 L 15.3125 -3.8125 L 15.375 -3.8125 Z M 15.375 -19.84375 "/></g></g></g><g fill="#00bf63" fill-opacity="1"><g transform="translate(351.451465, 213.705976)"><g><path d="M 13.921875 -14.03125 C 13.867188 -15.289062 13.398438 -16.28125 12.515625 -17 C 11.628906 -17.71875 10.460938 -18.078125 9.015625 -18.078125 C 7.554688 -18.078125 6.4375 -17.773438 5.65625 -17.171875 C 4.875 -16.578125 4.484375 -15.71875 4.484375 -14.59375 C 4.484375 -13.988281 4.648438 -13.46875 4.984375 -13.03125 C 5.328125 -12.601562 5.941406 -12.285156 6.828125 -12.078125 L 12.5 -10.78125 C 14.03125 -10.445312 15.160156 -9.8125 15.890625 -8.875 C 16.628906 -7.945312 17 -6.816406 17 -5.484375 C 17 -3.515625 16.28125 -2.019531 14.84375 -1 C 13.40625 0.0195312 11.535156 0.53125 9.234375 0.53125 C 7.472656 0.53125 6.085938 0.304688 5.078125 -0.140625 C 4.066406 -0.597656 3.171875 -1.316406 2.390625 -2.296875 C 1.609375 -3.273438 1.21875 -4.644531 1.21875 -6.40625 L 3.71875 -6.40625 C 3.71875 -4.9375 4.207031 -3.796875 5.1875 -2.984375 C 6.175781 -2.171875 7.515625 -1.765625 9.203125 -1.765625 C 10.835938 -1.765625 12.113281 -2.054688 13.03125 -2.640625 C 13.945312 -3.222656 14.40625 -4.046875 14.40625 -5.109375 C 14.40625 -6.085938 14.128906 -6.816406 13.578125 -7.296875 C 13.035156 -7.773438 11.972656 -8.195312 10.390625 -8.5625 L 6.109375 -9.5625 C 4.691406 -9.894531 3.628906 -10.460938 2.921875 -11.265625 C 2.222656 -12.066406 1.875 -13.054688 1.875 -14.234375 C 1.875 -16.015625 2.472656 -17.476562 3.671875 -18.625 C 4.878906 -19.78125 6.554688 -20.359375 8.703125 -20.359375 C 11.128906 -20.359375 13 -19.851562 14.3125 -18.84375 C 15.632812 -17.832031 16.347656 -16.226562 16.453125 -14.03125 Z M 13.921875 -14.03125 "/></g></g></g></svg>