<svg xmlns="http://www.w3.org/2000/svg" xmlns:xlink="http://www.w3.org/1999/xlink" width="1200" zoomAndPan="magnify" viewBox="0 0 525 344.999992" height="1200" preserveAspectRatio="xMidYMid meet" version="1.0"><defs><g/><clipPath id="5f8ab12341"><path d="M 12.246094 2 L 512.496094 2 L 512.496094 343 L 12.246094 343 Z M 12.246094 2 " clip-rule="nonzero"/></clipPath></defs><g clip-path="url(#5f8ab12341)"><path fill="#fdb52a" d="M 70.257812 320.898438 L 172.386719 209.214844 L 206.246094 335.582031 L 320.332031 221.496094 L 362.449219 342.335938 L 512.496094 187.285156 L 485.375 80.753906 L 394.90625 164.890625 L 362.332031 43.324219 L 257.796875 147.863281 L 218.859375 2.550781 L 12.109375 209.300781 " fill-opacity="1" fill-rule="nonzero"/></g><g fill="#00bf63" fill-opacity="0.102"><g transform="translate(180.810488, 176.674315)"><g><path d="M 13.921875 -14.03125 C 13.867188 -15.289062 13.398438 -16.28125 12.515625 -17 C 11.628906 -17.71875 10.460938 -18.078125 9.015625 -18.078125 C 7.554688 -18.078125 6.4375 -17.773438 5.65625 -17.171875 C 4.875 -16.578125 4.484375 -15.71875 4.484375 -14.59375 C 4.484375 -13.988281 4.648438 -13.46875 4.984375 -13.03125 C 5.328125 -12.601562 5.941406 -12.285156 6.828125 -12.078125 L 12.5 -10.78125 C 14.03125 -10.445312 15.160156 -9.8125 15.890625 -8.875 C 16.628906 -7.945312 17 -6.816406 17 -5.484375 C 17 -3.515625 16.28125 -2.019531 14.84375 -1 C 13.40625 0.0195312 11.535156 0.53125 9.234375 0.53125 C 7.472656 0.53125 6.085938 0.304688 5.078125 -0.140625 C 4.066406 -0.597656 3.171875 -1.316406 2.390625 -2.296875 C 1.609375 -3.273438 1.21875 -4.644531 1.21875 -6.40625 L 3.71875 -6.40625 C 3.71875 -4.9375 4.207031 -3.796875 5.1875 -2.984375 C 6.175781 -2.171875 7.515625 -1.765625 9.203125 -1.765625 C 10.835938 -1.765625 12.113281 -2.054688 13.03125 -2.640625 C 13.945312 -3.222656 14.40625 -4.046875 14.40625 -5.109375 C 14.40625 -6.085938 14.128906 -6.816406 13.578125 -7.296875 C 13.035156 -7.773438 11.972656 -8.195312 10.390625 -8.5625 L 6.109375 -9.5625 C 4.691406 -9.894531 3.628906 -10.460938 2.921875 -11.265625 C 2.222656 -12.066406 1.875 -13.054688 1.875 -14.234375 C 1.875 -16.015625 2.472656 -17.476562 3.671875 -18.625 C 4.878906 -19.78125 6.554688 -20.359375 8.703125 -20.359375 C 11.128906 -20.359375 13 -19.851562 14.3125 -18.84375 C 15.632812 -17.832031 16.347656 -16.226562 16.453125 -14.03125 Z M 13.921875 -14.03125 "/></g></g></g><g fill="#00bf63" fill-opacity="0.102"><g transform="translate(201.378696, 176.674315)"><g><path d="M 16.890625 0 L 2.234375 0 L 2.234375 -19.84375 L 16.6875 -19.84375 L 16.6875 -17.46875 L 4.921875 -17.46875 L 4.921875 -11.390625 L 15.78125 -11.390625 L 15.78125 -9.015625 L 4.921875 -9.015625 L 4.921875 -2.375 L 16.890625 -2.375 Z M 16.890625 0 "/></g></g></g><g fill="#00bf63" fill-opacity="0.102"><g transform="translate(221.609497, 176.674315)"><g><path d="M 7.015625 -17.46875 L 0.34375 -17.46875 L 0.34375 -19.84375 L 16.453125 -19.84375 L 16.453125 -17.46875 L 9.703125 -17.46875 L 9.703125 0 L 7.015625 0 Z M 7.015625 -17.46875 "/></g></g></g><g fill="#00bf63" fill-opacity="0.102"><g transform="translate(240.666103, 176.674315)"><g><path d="M 7.015625 -17.46875 L 0.34375 -17.46875 L 0.34375 -19.84375 L 16.453125 -19.84375 L 16.453125 -17.46875 L 9.703125 -17.46875 L 9.703125 0 L 7.015625 0 Z M 7.015625 -17.46875 "/></g></g></g><g fill="#00bf63" fill-opacity="0.102"><g transform="translate(259.722706, 176.674315)"><g><path d="M 4.921875 0 L 2.234375 0 L 2.234375 -19.84375 L 4.921875 -19.84375 Z M 4.921875 0 "/></g></g></g><g fill="#00bf63" fill-opacity="0.102"><g transform="translate(269.11585, 176.674315)"><g><path d="M 15.375 -19.84375 L 17.96875 -19.84375 L 17.96875 0 L 14.984375 0 L 4.859375 -16.03125 L 4.8125 -16.03125 L 4.8125 0 L 2.234375 0 L 2.234375 -19.84375 L 5.390625 -19.84375 L 15.3125 -3.8125 L 15.375 -3.8125 Z M 15.375 -19.84375 "/></g></g></g><g fill="#00bf63" fill-opacity="0.102"><g transform="translate(291.587066, 176.674315)"><g><path d="M 10.640625 -10.609375 L 19.359375 -10.609375 L 19.359375 0 L 17.609375 0 L 16.96875 -2.5625 C 16.125 -1.476562 15.128906 -0.691406 13.984375 -0.203125 C 12.835938 0.285156 11.648438 0.53125 10.421875 0.53125 C 8.429688 0.53125 6.765625 0.0976562 5.421875 -0.765625 C 4.085938 -1.640625 3.050781 -2.84375 2.3125 -4.375 C 1.582031 -5.90625 1.21875 -7.8125 1.21875 -10.09375 C 1.21875 -12.945312 2.0625 -15.367188 3.75 -17.359375 C 5.445312 -19.359375 7.734375 -20.359375 10.609375 -20.359375 C 12.753906 -20.359375 14.625 -19.757812 16.21875 -18.5625 C 17.820312 -17.375 18.753906 -15.796875 19.015625 -13.828125 L 16.421875 -13.828125 C 16.109375 -15.128906 15.441406 -16.144531 14.421875 -16.875 C 13.410156 -17.613281 12.09375 -17.984375 10.46875 -17.984375 C 8.519531 -17.984375 6.953125 -17.25 5.765625 -15.78125 C 4.578125 -14.3125 3.984375 -12.367188 3.984375 -9.953125 C 3.984375 -7.128906 4.570312 -5.054688 5.75 -3.734375 C 6.925781 -2.421875 8.535156 -1.765625 10.578125 -1.765625 C 11.910156 -1.765625 13.035156 -2.023438 13.953125 -2.546875 C 14.878906 -3.078125 15.585938 -3.796875 16.078125 -4.703125 C 16.578125 -5.609375 16.828125 -6.8125 16.828125 -8.3125 L 10.640625 -8.3125 Z M 10.640625 -10.609375 "/></g></g></g><g fill="#00bf63" fill-opacity="0.102"><g transform="translate(315.164986, 176.674315)"><g/></g></g><g fill="#00bf63" fill-opacity="0.102"><g transform="translate(322.803354, 176.674315)"><g><path d="M 7.015625 -17.46875 L 0.34375 -17.46875 L 0.34375 -19.84375 L 16.453125 -19.84375 L 16.453125 -17.46875 L 9.703125 -17.46875 L 9.703125 0 L 7.015625 0 Z M 7.015625 -17.46875 "/></g></g></g><g fill="#00bf63" fill-opacity="0.102"><g transform="translate(341.859958, 176.674315)"><g><path d="M 17.9375 0 L 15.25 0 L 15.25 -9.265625 L 4.890625 -9.265625 L 4.890625 0 L 2.234375 0 L 2.234375 -19.84375 L 4.890625 -19.84375 L 4.890625 -11.640625 L 15.25 -11.640625 L 15.25 -19.84375 L 17.9375 -19.84375 Z M 17.9375 0 "/></g></g></g><g fill="#00bf63" fill-opacity="0.102"><g transform="translate(364.304186, 176.674315)"><g><path d="M 16.890625 0 L 2.234375 0 L 2.234375 -19.84375 L 16.6875 -19.84375 L 16.6875 -17.46875 L 4.921875 -17.46875 L 4.921875 -11.390625 L 15.78125 -11.390625 L 15.78125 -9.015625 L 4.921875 -9.015625 L 4.921875 -2.375 L 16.890625 -2.375 Z M 16.890625 0 "/></g></g></g><g fill="#ffec3d" fill-opacity="1"><g transform="translate(180.346638, 175.632489)"><g><path d="M 13.921875 -14.03125 C 13.867188 -15.289062 13.398438 -16.28125 12.515625 -17 C 11.628906 -17.71875 10.460938 -18.078125 9.015625 -18.078125 C 7.554688 -18.078125 6.4375 -17.773438 5.65625 -17.171875 C 4.875 -16.578125 4.484375 -15.71875 4.484375 -14.59375 C 4.484375 -13.988281 4.648438 -13.46875 4.984375 -13.03125 C 5.328125 -12.601562 5.941406 -12.285156 6.828125 -12.078125 L 12.5 -10.78125 C 14.03125 -10.445312 15.160156 -9.8125 15.890625 -8.875 C 16.628906 -7.945312 17 -6.816406 17 -5.484375 C 17 -3.515625 16.28125 -2.019531 14.84375 -1 C 13.40625 0.0195312 11.535156 0.53125 9.234375 0.53125 C 7.472656 0.53125 6.085938 0.304688 5.078125 -0.140625 C 4.066406 -0.597656 3.171875 -1.316406 2.390625 -2.296875 C 1.609375 -3.273438 1.21875 -4.644531 1.21875 -6.40625 L 3.71875 -6.40625 C 3.71875 -4.9375 4.207031 -3.796875 5.1875 -2.984375 C 6.175781 -2.171875 7.515625 -1.765625 9.203125 -1.765625 C 10.835938 -1.765625 12.113281 -2.054688 13.03125 -2.640625 C 13.945312 -3.222656 14.40625 -4.046875 14.40625 -5.109375 C 14.40625 -6.085938 14.128906 -6.816406 13.578125 -7.296875 C 13.035156 -7.773438 11.972656 -8.195312 10.390625 -8.5625 L 6.109375 -9.5625 C 4.691406 -9.894531 3.628906 -10.460938 2.921875 -11.265625 C 2.222656 -12.066406 1.875 -13.054688 1.875 -14.234375 C 1.875 -16.015625 2.472656 -17.476562 3.671875 -18.625 C 4.878906 -19.78125 6.554688 -20.359375 8.703125 -20.359375 C 11.128906 -20.359375 13 -19.851562 14.3125 -18.84375 C 15.632812 -17.832031 16.347656 -16.226562 16.453125 -14.03125 Z M 13.921875 -14.03125 "/></g></g></g><g fill="#ffec3d" fill-opacity="1"><g transform="translate(200.914845, 175.632489)"><g><path d="M 16.890625 0 L 2.234375 0 L 2.234375 -19.84375 L 16.6875 -19.84375 L 16.6875 -17.46875 L 4.921875 -17.46875 L 4.921875 -11.390625 L 15.78125 -11.390625 L 15.78125 -9.015625 L 4.921875 -9.015625 L 4.921875 -2.375 L 16.890625 -2.375 Z M 16.890625 0 "/></g></g></g><g fill="#ffec3d" fill-opacity="1"><g transform="translate(221.145646, 175.632489)"><g><path d="M 7.015625 -17.46875 L 0.34375 -17.46875 L 0.34375 -19.84375 L 16.453125 -19.84375 L 16.453125 -17.46875 L 9.703125 -17.46875 L 9.703125 0 L 7.015625 0 Z M 7.015625 -17.46875 "/></g></g></g><g fill="#ffec3d" fill-opacity="1"><g transform="translate(240.202253, 175.632489)"><g><path d="M 7.015625 -17.46875 L 0.34375 -17.46875 L 0.34375 -19.84375 L 16.453125 -19.84375 L 16.453125 -17.46875 L 9.703125 -17.46875 L 9.703125 0 L 7.015625 0 Z M 7.015625 -17.46875 "/></g></g></g><g fill="#ffec3d" fill-opacity="1"><g transform="translate(259.258856, 175.632489)"><g><path d="M 4.921875 0 L 2.234375 0 L 2.234375 -19.84375 L 4.921875 -19.84375 Z M 4.921875 0 "/></g></g></g><g fill="#ffec3d" fill-opacity="1"><g transform="translate(268.651999, 175.632489)"><g><path d="M 15.375 -19.84375 L 17.96875 -19.84375 L 17.96875 0 L 14.984375 0 L 4.859375 -16.03125 L 4.8125 -16.03125 L 4.8125 0 L 2.234375 0 L 2.234375 -19.84375 L 5.390625 -19.84375 L 15.3125 -3.8125 L 15.375 -3.8125 Z M 15.375 -19.84375 "/></g></g></g><g fill="#ffec3d" fill-opacity="1"><g transform="translate(291.123216, 175.632489)"><g><path d="M 10.640625 -10.609375 L 19.359375 -10.609375 L 19.359375 0 L 17.609375 0 L 16.96875 -2.5625 C 16.125 -1.476562 15.128906 -0.691406 13.984375 -0.203125 C 12.835938 0.285156 11.648438 0.53125 10.421875 0.53125 C 8.429688 0.53125 6.765625 0.0976562 5.421875 -0.765625 C 4.085938 -1.640625 3.050781 -2.84375 2.3125 -4.375 C 1.582031 -5.90625 1.21875 -7.8125 1.21875 -10.09375 C 1.21875 -12.945312 2.0625 -15.367188 3.75 -17.359375 C 5.445312 -19.359375 7.734375 -20.359375 10.609375 -20.359375 C 12.753906 -20.359375 14.625 -19.757812 16.21875 -18.5625 C 17.820312 -17.375 18.753906 -15.796875 19.015625 -13.828125 L 16.421875 -13.828125 C 16.109375 -15.128906 15.441406 -16.144531 14.421875 -16.875 C 13.410156 -17.613281 12.09375 -17.984375 10.46875 -17.984375 C 8.519531 -17.984375 6.953125 -17.25 5.765625 -15.78125 C 4.578125 -14.3125 3.984375 -12.367188 3.984375 -9.953125 C 3.984375 -7.128906 4.570312 -5.054688 5.75 -3.734375 C 6.925781 -2.421875 8.535156 -1.765625 10.578125 -1.765625 C 11.910156 -1.765625 13.035156 -2.023438 13.953125 -2.546875 C 14.878906 -3.078125 15.585938 -3.796875 16.078125 -4.703125 C 16.578125 -5.609375 16.828125 -6.8125 16.828125 -8.3125 L 10.640625 -8.3125 Z M 10.640625 -10.609375 "/></g></g></g><g fill="#ffec3d" fill-opacity="1"><g transform="translate(314.701136, 175.632489)"><g/></g></g><g fill="#ffec3d" fill-opacity="1"><g transform="translate(322.339504, 175.632489)"><g><path d="M 7.015625 -17.46875 L 0.34375 -17.46875 L 0.34375 -19.84375 L 16.453125 -19.84375 L 16.453125 -17.46875 L 9.703125 -17.46875 L 9.703125 0 L 7.015625 0 Z M 7.015625 -17.46875 "/></g></g></g><g fill="#ffec3d" fill-opacity="1"><g transform="translate(341.396107, 175.632489)"><g><path d="M 17.9375 0 L 15.25 0 L 15.25 -9.265625 L 4.890625 -9.265625 L 4.890625 0 L 2.234375 0 L 2.234375 -19.84375 L 4.890625 -19.84375 L 4.890625 -11.640625 L 15.25 -11.640625 L 15.25 -19.84375 L 17.9375 -19.84375 Z M 17.9375 0 "/></g></g></g><g fill="#ffec3d" fill-opacity="1"><g transform="translate(363.840336, 175.632489)"><g><path d="M 16.890625 0 L 2.234375 0 L 2.234375 -19.84375 L 16.6875 -19.84375 L 16.6875 -17.46875 L 4.921875 -17.46875 L 4.921875 -11.390625 L 15.78125 -11.390625 L 15.78125 -9.015625 L 4.921875 -9.015625 L 4.921875 -2.375 L 16.890625 -2.375 Z M 16.890625 0 "/></g></g></g><g fill="#00bf63" fill-opacity="0.102"><g transform="translate(200.012481, 214.747801)"><g><path d="M 13.921875 -14.03125 C 13.867188 -15.289062 13.398438 -16.28125 12.515625 -17 C 11.628906 -17.71875 10.460938 -18.078125 9.015625 -18.078125 C 7.554688 -18.078125 6.4375 -17.773438 5.65625 -17.171875 C 4.875 -16.578125 4.484375 -15.71875 4.484375 -14.59375 C 4.484375 -13.988281 4.648438 -13.46875 4.984375 -13.03125 C 5.328125 -12.601562 5.941406 -12.285156 6.828125 -12.078125 L 12.5 -10.78125 C 14.03125 -10.445312 15.160156 -9.8125 15.890625 -8.875 C 16.628906 -7.945312 17 -6.816406 17 -5.484375 C 17 -3.515625 16.28125 -2.019531 14.84375 -1 C 13.40625 0.0195312 11.535156 0.53125 9.234375 0.53125 C 7.472656 0.53125 6.085938 0.304688 5.078125 -0.140625 C 4.066406 -0.597656 3.171875 -1.316406 2.390625 -2.296875 C 1.609375 -3.273438 1.21875 -4.644531 1.21875 -6.40625 L 3.71875 -6.40625 C 3.71875 -4.9375 4.207031 -3.796875 5.1875 -2.984375 C 6.175781 -2.171875 7.515625 -1.765625 9.203125 -1.765625 C 10.835938 -1.765625 12.113281 -2.054688 13.03125 -2.640625 C 13.945312 -3.222656 14.40625 -4.046875 14.40625 -5.109375 C 14.40625 -6.085938 14.128906 -6.816406 13.578125 -7.296875 C 13.035156 -7.773438 11.972656 -8.195312 10.390625 -8.5625 L 6.109375 -9.5625 C 4.691406 -9.894531 3.628906 -10.460938 2.921875 -11.265625 C 2.222656 -12.066406 1.875 -13.054688 1.875 -14.234375 C 1.875 -16.015625 2.472656 -17.476562 3.671875 -18.625 C 4.878906 -19.78125 6.554688 -20.359375 8.703125 -20.359375 C 11.128906 -20.359375 13 -19.851562 14.3125 -18.84375 C 15.632812 -17.832031 16.347656 -16.226562 16.453125 -14.03125 Z M 13.921875 -14.03125 "/></g></g></g><g fill="#00bf63" fill-opacity="0.102"><g transform="translate(219.838248, 214.747801)"><g><path d="M 7.015625 -17.46875 L 0.34375 -17.46875 L 0.34375 -19.84375 L 16.453125 -19.84375 L 16.453125 -17.46875 L 9.703125 -17.46875 L 9.703125 0 L 7.015625 0 Z M 7.015625 -17.46875 "/></g></g></g><g fill="#00bf63" fill-opacity="0.102"><g transform="translate(236.181587, 214.747801)"><g><path d="M 12.15625 -8.15625 L 9.234375 -16.890625 L 9.171875 -16.890625 L 6 -8.15625 Z M 5.171875 -5.78125 L 3.09375 0 L 0.34375 0 L 7.796875 -19.84375 L 10.84375 -19.84375 L 18.015625 0 L 15.09375 0 L 13.125 -5.78125 Z M 5.171875 -5.78125 "/></g></g></g><g fill="#00bf63" fill-opacity="0.102"><g transform="translate(256.88476, 214.747801)"><g><path d="M 15.375 -19.84375 L 17.96875 -19.84375 L 17.96875 0 L 14.984375 0 L 4.859375 -16.03125 L 4.8125 -16.03125 L 4.8125 0 L 2.234375 0 L 2.234375 -19.84375 L 5.390625 -19.84375 L 15.3125 -3.8125 L 15.375 -3.8125 Z M 15.375 -19.84375 "/></g></g></g><g fill="#00bf63" fill-opacity="0.102"><g transform="translate(279.355972, 214.747801)"><g><path d="M 4.921875 -2.296875 L 10.125 -2.296875 C 11.925781 -2.296875 13.332031 -2.984375 14.34375 -4.359375 C 15.363281 -5.742188 15.875 -7.632812 15.875 -10.03125 C 15.875 -12.394531 15.359375 -14.234375 14.328125 -15.546875 C 13.304688 -16.859375 11.828125 -17.523438 9.890625 -17.546875 L 4.921875 -17.546875 Z M 2.234375 -19.84375 L 10.28125 -19.84375 C 12.882812 -19.84375 14.921875 -18.945312 16.390625 -17.15625 C 17.859375 -15.375 18.59375 -13.054688 18.59375 -10.203125 C 18.59375 -7.140625 17.859375 -4.671875 16.390625 -2.796875 C 14.921875 -0.929688 12.847656 0 10.171875 0 L 2.234375 0 Z M 2.234375 -19.84375 "/></g></g></g><g fill="#00bf63" fill-opacity="0.102"><g transform="translate(300.450356, 214.747801)"><g><path d="M 12.15625 -8.15625 L 9.234375 -16.890625 L 9.171875 -16.890625 L 6 -8.15625 Z M 5.171875 -5.78125 L 3.09375 0 L 0.34375 0 L 7.796875 -19.84375 L 10.84375 -19.84375 L 18.015625 0 L 15.09375 0 L 13.125 -5.78125 Z M 5.171875 -5.78125 "/></g></g></g><g fill="#00bf63" fill-opacity="0.102"><g transform="translate(321.153526, 214.747801)"><g><path d="M 4.921875 -10.8125 L 11.140625 -10.8125 C 12.578125 -10.8125 13.609375 -11.101562 14.234375 -11.6875 C 14.859375 -12.28125 15.171875 -13.128906 15.171875 -14.234375 C 15.171875 -15.242188 14.898438 -16.046875 14.359375 -16.640625 C 13.816406 -17.242188 12.890625 -17.546875 11.578125 -17.546875 L 4.921875 -17.546875 Z M 4.921875 0 L 2.234375 0 L 2.234375 -19.84375 L 11.421875 -19.84375 C 13.546875 -19.84375 15.15625 -19.382812 16.25 -18.46875 C 17.351562 -17.5625 17.90625 -16.242188 17.90625 -14.515625 C 17.90625 -13.367188 17.6875 -12.410156 17.25 -11.640625 C 16.8125 -10.878906 16.117188 -10.253906 15.171875 -9.765625 C 15.984375 -9.460938 16.566406 -9.039062 16.921875 -8.5 C 17.285156 -7.96875 17.492188 -7.140625 17.546875 -6.015625 L 17.71875 -2.328125 C 17.738281 -1.710938 17.835938 -1.28125 18.015625 -1.03125 C 18.191406 -0.78125 18.4375 -0.585938 18.75 -0.453125 L 18.75 0 L 15.421875 0 C 15.253906 -0.5 15.132812 -1.25 15.0625 -2.25 C 14.988281 -3.257812 14.953125 -4.171875 14.953125 -4.984375 C 14.953125 -5.390625 14.914062 -5.800781 14.84375 -6.21875 C 14.769531 -6.644531 14.613281 -7.023438 14.375 -7.359375 C 14.132812 -7.703125 13.78125 -7.976562 13.3125 -8.1875 C 12.84375 -8.40625 12.210938 -8.515625 11.421875 -8.515625 L 4.921875 -8.515625 Z M 4.921875 0 "/></g></g></g><g fill="#00bf63" fill-opacity="0.102"><g transform="translate(343.152356, 214.747801)"><g><path d="M 4.921875 -2.296875 L 10.125 -2.296875 C 11.925781 -2.296875 13.332031 -2.984375 14.34375 -4.359375 C 15.363281 -5.742188 15.875 -7.632812 15.875 -10.03125 C 15.875 -12.394531 15.359375 -14.234375 14.328125 -15.546875 C 13.304688 -16.859375 11.828125 -17.523438 9.890625 -17.546875 L 4.921875 -17.546875 Z M 2.234375 -19.84375 L 10.28125 -19.84375 C 12.882812 -19.84375 14.921875 -18.945312 16.390625 -17.15625 C 17.859375 -15.375 18.59375 -13.054688 18.59375 -10.203125 C 18.59375 -7.140625 17.859375 -4.671875 16.390625 -2.796875 C 14.921875 -0.929688 12.847656 0 10.171875 0 L 2.234375 0 Z M 2.234375 -19.84375 "/></g></g></g><g fill="#ffec3d" fill-opacity="1"><g transform="translate(199.54863, 213.705976)"><g><path d="M 13.921875 -14.03125 C 13.867188 -15.289062 13.398438 -16.28125 12.515625 -17 C 11.628906 -17.71875 10.460938 -18.078125 9.015625 -18.078125 C 7.554688 -18.078125 6.4375 -17.773438 5.65625 -17.171875 C 4.875 -16.578125 4.484375 -15.71875 4.484375 -14.59375 C 4.484375 -13.988281 4.648438 -13.46875 4.984375 -13.03125 C 5.328125 -12.601562 5.941406 -12.285156 6.828125 -12.078125 L 12.5 -10.78125 C 14.03125 -10.445312 15.160156 -9.8125 15.890625 -8.875 C 16.628906 -7.945312 17 -6.816406 17 -5.484375 C 17 -3.515625 16.28125 -2.019531 14.84375 -1 C 13.40625 0.0195312 11.535156 0.53125 9.234375 0.53125 C 7.472656 0.53125 6.085938 0.304688 5.078125 -0.140625 C 4.066406 -0.597656 3.171875 -1.316406 2.390625 -2.296875 C 1.609375 -3.273438 1.21875 -4.644531 1.21875 -6.40625 L 3.71875 -6.40625 C 3.71875 -4.9375 4.207031 -3.796875 5.1875 -2.984375 C 6.175781 -2.171875 7.515625 -1.765625 9.203125 -1.765625 C 10.835938 -1.765625 12.113281 -2.054688 13.03125 -2.640625 C 13.945312 -3.222656 14.40625 -4.046875 14.40625 -5.109375 C 14.40625 -6.085938 14.128906 -6.816406 13.578125 -7.296875 C 13.035156 -7.773438 11.972656 -8.195312 10.390625 -8.5625 L 6.109375 -9.5625 C 4.691406 -9.894531 3.628906 -10.460938 2.921875 -11.265625 C 2.222656 -12.066406 1.875 -13.054688 1.875 -14.234375 C 1.875 -16.015625 2.472656 -17.476562 3.671875 -18.625 C 4.878906 -19.78125 6.554688 -20.359375 8.703125 -20.359375 C 11.128906 -20.359375 13 -19.851562 14.3125 -18.84375 C 15.632812 -17.832031 16.347656 -16.226562 16.453125 -14.03125 Z M 13.921875 -14.03125 "/></g></g></g><g fill="#ffec3d" fill-opacity="1"><g transform="translate(219.374398, 213.705976)"><g><path d="M 7.015625 -17.46875 L 0.34375 -17.46875 L 0.34375 -19.84375 L 16.453125 -19.84375 L 16.453125 -17.46875 L 9.703125 -17.46875 L 9.703125 0 L 7.015625 0 Z M 7.015625 -17.46875 "/></g></g></g><g fill="#ffec3d" fill-opacity="1"><g transform="translate(235.717737, 213.705976)"><g><path d="M 12.15625 -8.15625 L 9.234375 -16.890625 L 9.171875 -16.890625 L 6 -8.15625 Z M 5.171875 -5.78125 L 3.09375 0 L 0.34375 0 L 7.796875 -19.84375 L 10.84375 -19.84375 L 18.015625 0 L 15.09375 0 L 13.125 -5.78125 Z M 5.171875 -5.78125 "/></g></g></g><g fill="#ffec3d" fill-opacity="1"><g transform="translate(256.42091, 213.705976)"><g><path d="M 15.375 -19.84375 L 17.96875 -19.84375 L 17.96875 0 L 14.984375 0 L 4.859375 -16.03125 L 4.8125 -16.03125 L 4.8125 0 L 2.234375 0 L 2.234375 -19.84375 L 5.390625 -19.84375 L 15.3125 -3.8125 L 15.375 -3.8125 Z M 15.375 -19.84375 "/></g></g></g><g fill="#ffec3d" fill-opacity="1"><g transform="translate(278.892121, 213.705976)"><g><path d="M 4.921875 -2.296875 L 10.125 -2.296875 C 11.925781 -2.296875 13.332031 -2.984375 14.34375 -4.359375 C 15.363281 -5.742188 15.875 -7.632812 15.875 -10.03125 C 15.875 -12.394531 15.359375 -14.234375 14.328125 -15.546875 C 13.304688 -16.859375 11.828125 -17.523438 9.890625 -17.546875 L 4.921875 -17.546875 Z M 2.234375 -19.84375 L 10.28125 -19.84375 C 12.882812 -19.84375 14.921875 -18.945312 16.390625 -17.15625 C 17.859375 -15.375 18.59375 -13.054688 18.59375 -10.203125 C 18.59375 -7.140625 17.859375 -4.671875 16.390625 -2.796875 C 14.921875 -0.929688 12.847656 0 10.171875 0 L 2.234375 0 Z M 2.234375 -19.84375 "/></g></g></g><g fill="#ffec3d" fill-opacity="1"><g transform="translate(299.986506, 213.705976)"><g><path d="M 12.15625 -8.15625 L 9.234375 -16.890625 L 9.171875 -16.890625 L 6 -8.15625 Z M 5.171875 -5.78125 L 3.09375 0 L 0.34375 0 L 7.796875 -19.84375 L 10.84375 -19.84375 L 18.015625 0 L 15.09375 0 L 13.125 -5.78125 Z M 5.171875 -5.78125 "/></g></g></g><g fill="#ffec3d" fill-opacity="1"><g transform="translate(320.689676, 213.705976)"><g><path d="M 4.921875 -10.8125 L 11.140625 -10.8125 C 12.578125 -10.8125 13.609375 -11.101562 14.234375 -11.6875 C 14.859375 -12.28125 15.171875 -13.128906 15.171875 -14.234375 C 15.171875 -15.242188 14.898438 -16.046875 14.359375 -16.640625 C 13.816406 -17.242188 12.890625 -17.546875 11.578125 -17.546875 L 4.921875 -17.546875 Z M 4.921875 0 L 2.234375 0 L 2.234375 -19.84375 L 11.421875 -19.84375 C 13.546875 -19.84375 15.15625 -19.382812 16.25 -18.46875 C 17.351562 -17.5625 17.90625 -16.242188 17.90625 -14.515625 C 17.90625 -13.367188 17.6875 -12.410156 17.25 -11.640625 C 16.8125 -10.878906 16.117188 -10.253906 15.171875 -9.765625 C 15.984375 -9.460938 16.566406 -9.039062 16.921875 -8.5 C 17.285156 -7.96875 17.492188 -7.140625 17.546875 -6.015625 L 17.71875 -2.328125 C 17.738281 -1.710938 17.835938 -1.28125 18.015625 -1.03125 C 18.191406 -0.78125 18.4375 -0.585938 18.75 -0.453125 L 18.75 0 L 15.421875 0 C 15.253906 -0.5 15.132812 -1.25 15.0625 -2.25 C 14.988281 -3.257812 14.953125 -4.171875 14.953125 -4.984375 C 14.953125 -5.390625 14.914062 -5.800781 14.84375 -6.21875 C 14.769531 -6.644531 14.613281 -7.023438 14.375 -7.359375 C 14.132812 -7.703125 13.78125 -7.976562 13.3125 -8.1875 C 12.84375 -8.40625 12.210938 -8.515625 11.421875 -8.515625 L 4.921875 -8.515625 Z M 4.921875 0 "/></g></g></g><g fill="#ffec3d" fill-opacity="1"><g transform="translate(342.688506, 213.705976)"><g><path d="M 4.921875 -2.296875 L 10.125 -2.296875 C 11.925781 -2.296875 13.332031 -2.984375 14.34375 -4.359375 C 15.363281 -5.742188 15.875 -7.632812 15.875 -10.03125 C 15.875 -12.394531 15.359375 -14.234375 14.328125 -15.546875 C 13.304688 -16.859375 11.828125 -17.523438 9.890625 -17.546875 L 4.921875 -17.546875 Z M 2.234375 -19.84375 L 10.28125 -19.84375 C 12.882812 -19.84375 14.921875 -18.945312 16.390625 -17.15625 C 17.859375 -15.375 18.59375 -13.054688 18.59375 -10.203125 C 18.59375 -7.140625 17.859375 -4.671875 16.390625 -2.796875 C 14.921875 -0.929688 12.847656 0 10.171875 0 L 2.234375 0 Z M 2.234375 -19.84375 "/></g></g></g></svg>