<svg xmlns="http://www.w3.org/2000/svg" xmlns:xlink="http://www.w3.org/1999/xlink" width="1080" zoomAndPan="magnify" viewBox="0 0 810 809.999993" height="1080" preserveAspectRatio="xMidYMid meet" version="1.0"><defs><g/><clipPath id="2ac9fd1173"><path d="M 139.230469 489.867188 L 670.972656 489.867188 L 670.972656 634.617188 L 139.230469 634.617188 Z M 139.230469 489.867188 " clip-rule="nonzero"/></clipPath><clipPath id="cd406b1d71"><path d="M 404.996094 489.867188 C 258.21875 489.867188 139.230469 522.1875 139.230469 562.054688 C 139.230469 601.921875 258.21875 634.242188 404.996094 634.242188 C 551.769531 634.242188 670.757812 601.921875 670.757812 562.054688 C 670.757812 522.1875 551.769531 489.867188 404.996094 489.867188 Z M 404.996094 489.867188 " clip-rule="nonzero"/></clipPath><clipPath id="4c886a4abb"><path d="M 354.542969 610.914062 L 455.453125 610.914062 L 455.453125 711.824219 L 354.542969 711.824219 Z M 354.542969 610.914062 " clip-rule="nonzero"/></clipPath><clipPath id="5ea413cbf9"><path d="M 405 610.914062 C 377.132812 610.914062 354.542969 633.503906 354.542969 661.371094 C 354.542969 689.234375 377.132812 711.824219 405 711.824219 C 432.867188 711.824219 455.453125 689.234375 455.453125 661.371094 C 455.453125 633.503906 432.867188 610.914062 405 610.914062 Z M 405 610.914062 " clip-rule="nonzero"/></clipPath><clipPath id="0c01627cbe"><path d="M 384.332031 640.816406 L 425.582031 640.816406 L 425.582031 682 L 384.332031 682 Z M 384.332031 640.816406 " clip-rule="nonzero"/></clipPath><clipPath id="3c3c7e7408"><path d="M 614.710938 751.667969 L 670.773438 751.667969 L 670.773438 807.730469 L 614.710938 807.730469 Z M 614.710938 751.667969 " clip-rule="nonzero"/></clipPath><clipPath id="87eea79568"><path d="M 614.710938 779.699219 L 642.742188 751.667969 L 642.742188 765.683594 L 670.773438 765.683594 L 670.773438 793.714844 L 642.742188 793.714844 L 642.742188 807.730469 Z M 614.710938 779.699219 " clip-rule="nonzero"/></clipPath></defs><rect x="-81" width="972" fill="#ffffff" y="-80.999999" height="971.999992" fill-opacity="1"/><rect x="-81" width="972" fill="#eae0d4" y="-80.999999" height="971.999992" fill-opacity="1"/><g fill="#1d1d03" fill-opacity="1"><g transform="translate(48.729176, 264.673111)"><g><path d="M 16.800781 0 L 121.761719 0 C 152.875 0 170.507812 -17.007812 170.507812 -42.9375 C 170.507812 -61.8125 161.796875 -74.46875 144.371094 -80.066406 C 157.855469 -86.914062 164.90625 -98.527344 164.90625 -113.050781 C 164.90625 -138.148438 147.898438 -150.59375 114.085938 -150.59375 L 16.800781 -150.59375 Z M 54.554688 -63.886719 L 104.753906 -63.886719 C 122.796875 -63.886719 131.09375 -59.324219 131.09375 -46.464844 C 131.09375 -32.773438 122.589844 -30.90625 104.753906 -30.90625 L 54.554688 -30.90625 Z M 54.554688 -119.6875 L 99.152344 -119.6875 C 117.199219 -119.6875 125.496094 -117.40625 125.496094 -105.789062 C 125.496094 -92.929688 116.992188 -90.230469 99.152344 -90.230469 L 54.554688 -90.230469 Z M 54.554688 -119.6875 "/></g></g></g><g fill="#1d1d03" fill-opacity="1"><g transform="translate(215.70968, 264.673111)"><g><path d="M 98.945312 -154.535156 C 43.558594 -154.535156 8.710938 -123.007812 8.710938 -75.296875 C 8.710938 -27.589844 43.558594 3.941406 98.945312 3.941406 C 154.328125 3.941406 188.96875 -27.589844 188.96875 -75.296875 C 188.96875 -123.007812 154.328125 -154.535156 98.945312 -154.535156 Z M 98.945312 -123.628906 C 129.019531 -123.628906 147.484375 -105.582031 147.484375 -75.296875 C 147.484375 -45.21875 129.019531 -26.964844 98.945312 -26.964844 C 68.867188 -26.964844 50.199219 -45.21875 50.199219 -75.296875 C 50.199219 -105.375 68.867188 -123.628906 98.945312 -123.628906 Z M 98.945312 -123.628906 "/></g></g></g><g fill="#1d1d03" fill-opacity="1"><g transform="translate(401.151384, 264.673111)"><g><path d="M 98.945312 -154.535156 C 43.558594 -154.535156 8.710938 -123.007812 8.710938 -75.296875 C 8.710938 -27.589844 43.558594 3.941406 98.945312 3.941406 C 154.328125 3.941406 188.96875 -27.589844 188.96875 -75.296875 C 188.96875 -123.007812 154.328125 -154.535156 98.945312 -154.535156 Z M 98.945312 -123.628906 C 129.019531 -123.628906 147.484375 -105.582031 147.484375 -75.296875 C 147.484375 -45.21875 129.019531 -26.964844 98.945312 -26.964844 C 68.867188 -26.964844 50.199219 -45.21875 50.199219 -75.296875 C 50.199219 -105.375 68.867188 -123.628906 98.945312 -123.628906 Z M 98.945312 -123.628906 "/></g></g></g><g fill="#1d1d03" fill-opacity="1"><g transform="translate(586.593087, 264.673111)"><g><path d="M 54.554688 -150.59375 L 16.800781 -150.59375 L 16.800781 0 L 54.554688 0 L 54.554688 -52.066406 L 73.636719 -69.074219 L 128.398438 0 L 174.65625 0 L 100.1875 -92.097656 L 166.566406 -150.59375 L 118.027344 -150.59375 L 54.554688 -92.722656 Z M 54.554688 -150.59375 "/></g></g></g><g fill="#1d1d03" fill-opacity="1"><g transform="translate(118.013415, 444.362412)"><g><path d="M 37.335938 -150.59375 L 5.394531 0 L 26.136719 0 L 53.308594 -128.398438 L 120.722656 0 L 149.558594 0 L 181.5 -150.59375 L 160.757812 -150.59375 L 133.585938 -22.195312 L 65.960938 -150.59375 Z M 37.335938 -150.59375 "/></g></g></g><g fill="#1d1d03" fill-opacity="1"><g transform="translate(284.371629, 444.362412)"><g><path d="M 112.425781 -154.535156 C 46.878906 -154.535156 10.785156 -103.714844 10.785156 -54.96875 C 10.785156 -18.667969 35.054688 3.941406 78.617188 3.941406 C 137.941406 3.941406 180.257812 -39.203125 180.257812 -95.625 C 180.257812 -131.925781 155.988281 -154.535156 112.425781 -154.535156 Z M 108.070312 -134.414062 C 140.429688 -134.414062 157.648438 -118.648438 157.648438 -91.683594 C 157.648438 -48.953125 128.605469 -16.179688 82.972656 -16.179688 C 50.613281 -16.179688 33.394531 -31.945312 33.394531 -58.910156 C 33.394531 -97.078125 59.53125 -134.414062 108.070312 -134.414062 Z M 108.070312 -134.414062 "/></g></g></g><g fill="#1d1d03" fill-opacity="1"><g transform="translate(454.878441, 444.362412)"><g><path d="M 20.742188 -150.59375 L 39.410156 0 L 64.71875 0 L 134 -129.851562 L 148.519531 0 L 173.828125 0 L 256.382812 -150.59375 L 233.773438 -150.59375 L 163.871094 -18.875 L 150.800781 -150.59375 L 126.324219 -150.59375 L 57.25 -18.875 L 43.351562 -150.59375 Z M 20.742188 -150.59375 "/></g></g></g><g clip-path="url(#2ac9fd1173)"><g clip-path="url(#cd406b1d71)"><path stroke-linecap="butt" transform="matrix(0.75, 0, 0, 0.75, 139.232324, 489.866683)" fill="none" stroke-linejoin="miter" d="M 354.35171 0.000672193 C 158.648575 0.000672193 -0.00247433 43.094424 -0.00247433 96.250677 C -0.00247433 149.40693 158.648575 192.500682 354.35171 192.500682 C 550.049637 192.500682 708.700686 149.40693 708.700686 96.250677 C 708.700686 43.094424 550.049637 0.000672193 354.35171 0.000672193 Z M 354.35171 0.000672193 " stroke="#222222" stroke-width="4" stroke-opacity="1" stroke-miterlimit="4"/></g></g><g clip-path="url(#4c886a4abb)"><g clip-path="url(#5ea413cbf9)"><path stroke-linecap="butt" transform="matrix(0.75, 0, 0, 0.75, 354.544644, 610.914661)" fill="none" stroke-linejoin="miter" d="M 67.273811 -0.000798354 C 30.117559 -0.000798354 -0.00223375 30.118995 -0.00223375 67.275247 C -0.00223375 104.42629 30.117559 134.546083 67.273811 134.546083 C 104.430063 134.546083 134.544648 104.42629 134.544648 67.275247 C 134.544648 30.118995 104.430063 -0.000798354 67.273811 -0.000798354 Z M 67.273811 -0.000798354 " stroke="#222222" stroke-width="4" stroke-opacity="1" stroke-miterlimit="4"/></g></g><g clip-path="url(#0c01627cbe)"><path fill="#1d1d03" d="M 401.613281 681.894531 C 397.191406 666.765625 388.9375 664.503906 384.414062 664.503906 L 384.414062 657.457031 C 388.054688 657.457031 395.363281 658.523438 401.472656 666.003906 L 401.472656 640.832031 L 408.519531 640.832031 L 408.519531 666.003906 C 414.628906 658.523438 421.941406 657.457031 425.582031 657.457031 L 425.582031 664.503906 C 421.054688 664.503906 412.804688 666.765625 408.378906 681.894531 Z M 401.613281 681.894531 " fill-opacity="1" fill-rule="nonzero"/></g><path stroke-linecap="butt" transform="matrix(0, -0.75, 0.75, 0, 498.748154, 819.075339)" fill="none" stroke-linejoin="miter" d="M 0.00149339 1.002461 L 105.001499 1.002461 " stroke="#1d1d03" stroke-width="2" stroke-opacity="1" stroke-miterlimit="4"/><path stroke-linecap="butt" transform="matrix(0, -0.75, 0.75, 0, 309.751805, 819.075339)" fill="none" stroke-linejoin="miter" d="M 0.00149339 0.997594 L 105.001499 0.997594 " stroke="#1d1d03" stroke-width="2" stroke-opacity="1" stroke-miterlimit="4"/><path stroke-linecap="butt" transform="matrix(-0.75, 0, 0, -0.75, 820.022122, 740.325343)" fill="none" stroke-linejoin="miter" d="M -0.00175367 1.001499 L 1106.743094 1.001499 " stroke="#1d1d03" stroke-width="2" stroke-opacity="1" stroke-miterlimit="4"/><g clip-path="url(#3c3c7e7408)"><g clip-path="url(#87eea79568)"><path fill="#5f6d34" d="M 614.710938 751.667969 L 670.773438 751.667969 L 670.773438 807.730469 L 614.710938 807.730469 Z M 614.710938 751.667969 " fill-opacity="1" fill-rule="nonzero"/></g></g><path fill="#1d1d03" d="M 349.027344 784.777344 L 467.363281 784.777344 L 467.363281 786.277344 L 349.027344 786.277344 Z M 349.027344 784.777344 " fill-opacity="1" fill-rule="nonzero"/><g fill="#1d1d03" fill-opacity="1"><g transform="translate(349.027604, 783.277997)"><g><path d="M 4.1875 -13 L 5.4375 -13 C 4.007812 -10.820312 3.296875 -8.429688 3.296875 -5.828125 C 3.296875 -3.234375 4.007812 -0.847656 5.4375 1.328125 L 4.1875 1.328125 C 2.613281 -0.566406 1.828125 -2.953125 1.828125 -5.828125 C 1.828125 -8.710938 2.613281 -11.101562 4.1875 -13 Z M 4.1875 -13 "/></g></g></g><g fill="#1d1d03" fill-opacity="1"><g transform="translate(354.643035, 783.277997)"><g><path d="M 5.8125 -7.734375 C 7.03125 -7.734375 7.96875 -7.382812 8.625 -6.6875 C 9.28125 -5.988281 9.609375 -5.082031 9.609375 -3.96875 C 9.609375 -2.675781 9.1875 -1.648438 8.34375 -0.890625 C 7.5 -0.140625 6.460938 0.234375 5.234375 0.234375 C 3.765625 0.234375 2.660156 -0.21875 1.921875 -1.125 C 1.179688 -2.039062 0.8125 -3.460938 0.8125 -5.390625 C 0.8125 -7.441406 1.25 -9.007812 2.125 -10.09375 C 3 -11.1875 4.144531 -11.734375 5.5625 -11.734375 C 6.6875 -11.734375 7.585938 -11.445312 8.265625 -10.875 C 8.941406 -10.300781 9.34375 -9.507812 9.46875 -8.5 L 9.484375 -8.34375 L 7.15625 -8.34375 L 7.125 -8.5 C 6.875 -9.507812 6.304688 -10.015625 5.421875 -10.015625 C 4.015625 -10.015625 3.269531 -8.679688 3.1875 -6.015625 L 3.765625 -7.0625 C 4.304688 -7.507812 4.988281 -7.734375 5.8125 -7.734375 Z M 3.796875 -2.109375 C 4.148438 -1.691406 4.625 -1.484375 5.21875 -1.484375 C 5.8125 -1.484375 6.285156 -1.691406 6.640625 -2.109375 C 6.992188 -2.523438 7.171875 -3.050781 7.171875 -3.6875 C 7.171875 -4.382812 7 -4.945312 6.65625 -5.375 C 6.320312 -5.800781 5.835938 -6.015625 5.203125 -6.015625 C 4.660156 -6.015625 4.203125 -5.8125 3.828125 -5.40625 C 3.460938 -5 3.28125 -4.445312 3.28125 -3.75 C 3.28125 -3.082031 3.453125 -2.535156 3.796875 -2.109375 Z M 3.796875 -2.109375 "/></g></g></g><g fill="#1d1d03" fill-opacity="1"><g transform="translate(364.624445, 783.277997)"><g><path d="M 7.703125 -11.5 L 7.703125 0 L 5.40625 0 L 5.40625 -9.09375 L 2.046875 -7.234375 L 2.046875 -9.40625 L 4.71875 -10.984375 C 5.332031 -11.328125 5.945312 -11.5 6.5625 -11.5 Z M 7.703125 -11.5 "/></g></g></g><g fill="#1d1d03" fill-opacity="1"><g transform="translate(374.605854, 783.277997)"><g><path d="M 5.21875 -11.734375 C 8.195312 -11.734375 9.6875 -9.738281 9.6875 -5.75 C 9.6875 -1.757812 8.195312 0.234375 5.21875 0.234375 C 2.226562 0.234375 0.734375 -1.757812 0.734375 -5.75 C 0.734375 -9.738281 2.226562 -11.734375 5.21875 -11.734375 Z M 3.671875 -2.515625 C 4.003906 -1.828125 4.519531 -1.484375 5.21875 -1.484375 C 5.914062 -1.484375 6.425781 -1.828125 6.75 -2.515625 C 7.082031 -3.210938 7.25 -4.289062 7.25 -5.75 C 7.25 -7.21875 7.082031 -8.296875 6.75 -8.984375 C 6.425781 -9.671875 5.914062 -10.015625 5.21875 -10.015625 C 4.507812 -10.015625 3.988281 -9.671875 3.65625 -8.984375 C 3.332031 -8.296875 3.171875 -7.21875 3.171875 -5.75 C 3.171875 -4.289062 3.335938 -3.210938 3.671875 -2.515625 Z M 3.671875 -2.515625 "/></g></g></g><g fill="#1d1d03" fill-opacity="1"><g transform="translate(384.587265, 783.277997)"><g><path d="M 0.546875 -13 L 1.796875 -13 C 3.367188 -11.101562 4.15625 -8.710938 4.15625 -5.828125 C 4.15625 -2.953125 3.367188 -0.566406 1.796875 1.328125 L 0.546875 1.328125 C 1.972656 -0.847656 2.6875 -3.234375 2.6875 -5.828125 C 2.6875 -8.429688 1.972656 -10.820312 0.546875 -13 Z M 0.546875 -13 "/></g></g></g><g fill="#1d1d03" fill-opacity="1"><g transform="translate(390.186034, 783.277997)"><g/></g></g><g fill="#1d1d03" fill-opacity="1"><g transform="translate(392.985248, 783.277997)"><g><path d="M 9.859375 -2.71875 L 8.4375 -2.71875 L 8.4375 0 L 6.140625 0 L 6.140625 -2.71875 L 0.59375 -2.71875 L 0.59375 -3.953125 L 5.984375 -11.5 L 8.4375 -11.5 L 8.4375 -4.53125 L 9.859375 -4.53125 Z M 6.140625 -4.53125 L 6.140625 -8.90625 C 5.878906 -8.457031 5.625 -8.050781 5.375 -7.6875 L 3.125 -4.53125 Z M 6.140625 -4.53125 "/></g></g></g><g fill="#1d1d03" fill-opacity="1"><g transform="translate(402.966655, 783.277997)"><g><path d="M 7.171875 -6.078125 C 8.765625 -5.710938 9.5625 -4.789062 9.5625 -3.3125 C 9.5625 -2.25 9.144531 -1.390625 8.3125 -0.734375 C 7.488281 -0.0859375 6.421875 0.234375 5.109375 0.234375 C 3.804688 0.234375 2.765625 -0.0664062 1.984375 -0.671875 C 1.210938 -1.285156 0.769531 -2.1875 0.65625 -3.375 L 0.640625 -3.53125 L 2.9375 -3.53125 L 2.96875 -3.375 C 3.050781 -2.78125 3.28125 -2.316406 3.65625 -1.984375 C 4.039062 -1.648438 4.523438 -1.484375 5.109375 -1.484375 C 5.710938 -1.484375 6.203125 -1.644531 6.578125 -1.96875 C 6.953125 -2.289062 7.140625 -2.710938 7.140625 -3.234375 C 7.140625 -4.398438 6.375 -5 4.84375 -5.03125 L 4.46875 -5.03125 L 4.46875 -6.640625 L 4.84375 -6.65625 C 5.457031 -6.675781 5.945312 -6.847656 6.3125 -7.171875 C 6.6875 -7.503906 6.875 -7.9375 6.875 -8.46875 C 6.875 -8.9375 6.722656 -9.3125 6.421875 -9.59375 C 6.128906 -9.875 5.734375 -10.015625 5.234375 -10.015625 C 4.722656 -10.015625 4.3125 -9.847656 4 -9.515625 C 3.6875 -9.191406 3.503906 -8.753906 3.453125 -8.203125 L 3.4375 -8.03125 L 1.15625 -8.03125 L 1.171875 -8.203125 C 1.265625 -9.242188 1.679688 -10.09375 2.421875 -10.75 C 3.171875 -11.40625 4.191406 -11.734375 5.484375 -11.734375 C 6.691406 -11.734375 7.628906 -11.453125 8.296875 -10.890625 C 8.960938 -10.328125 9.296875 -9.609375 9.296875 -8.734375 C 9.296875 -8.066406 9.113281 -7.503906 8.75 -7.046875 C 8.382812 -6.585938 7.859375 -6.265625 7.171875 -6.078125 Z M 7.171875 -6.078125 "/></g></g></g><g fill="#1d1d03" fill-opacity="1"><g transform="translate(412.948066, 783.277997)"><g><path d="M 9.703125 -11.5 L 9.703125 -10.28125 L 4.1875 0 L 1.6875 0 L 6.96875 -9.703125 L 0.90625 -9.703125 L 0.90625 -11.5 Z M 9.703125 -11.5 "/></g></g></g><g fill="#1d1d03" fill-opacity="1"><g transform="translate(422.929476, 783.277997)"><g><path d="M 4.40625 -4.0625 L 0.53125 -4.0625 L 0.53125 -5.375 L 4.40625 -5.375 Z M 4.40625 -4.0625 "/></g></g></g><g fill="#1d1d03" fill-opacity="1"><g transform="translate(427.428423, 783.277997)"><g><path d="M 9.859375 -2.71875 L 8.4375 -2.71875 L 8.4375 0 L 6.140625 0 L 6.140625 -2.71875 L 0.59375 -2.71875 L 0.59375 -3.953125 L 5.984375 -11.5 L 8.4375 -11.5 L 8.4375 -4.53125 L 9.859375 -4.53125 Z M 6.140625 -4.53125 L 6.140625 -8.90625 C 5.878906 -8.457031 5.625 -8.050781 5.375 -7.6875 L 3.125 -4.53125 Z M 6.140625 -4.53125 "/></g></g></g><g fill="#1d1d03" fill-opacity="1"><g transform="translate(437.409834, 783.277997)"><g><path d="M 9.703125 -11.5 L 9.703125 -10.28125 L 4.1875 0 L 1.6875 0 L 6.96875 -9.703125 L 0.90625 -9.703125 L 0.90625 -11.5 Z M 9.703125 -11.5 "/></g></g></g><g fill="#1d1d03" fill-opacity="1"><g transform="translate(447.391239, 783.277997)"><g><path d="M 9.859375 -2.71875 L 8.4375 -2.71875 L 8.4375 0 L 6.140625 0 L 6.140625 -2.71875 L 0.59375 -2.71875 L 0.59375 -3.953125 L 5.984375 -11.5 L 8.4375 -11.5 L 8.4375 -4.53125 L 9.859375 -4.53125 Z M 6.140625 -4.53125 L 6.140625 -8.90625 C 5.878906 -8.457031 5.625 -8.050781 5.375 -7.6875 L 3.125 -4.53125 Z M 6.140625 -4.53125 "/></g></g></g><g fill="#1d1d03" fill-opacity="1"><g transform="translate(457.372649, 783.277997)"><g><path d="M 7.4375 -6.078125 C 8.0625 -5.867188 8.582031 -5.519531 9 -5.03125 C 9.414062 -4.539062 9.625 -3.945312 9.625 -3.25 C 9.625 -2.0625 9.207031 -1.179688 8.375 -0.609375 C 7.550781 -0.0351562 6.488281 0.25 5.1875 0.25 C 3.832031 0.25 2.757812 -0.03125 1.96875 -0.59375 C 1.1875 -1.164062 0.796875 -2.050781 0.796875 -3.25 C 0.796875 -3.9375 1.007812 -4.523438 1.4375 -5.015625 C 1.863281 -5.515625 2.394531 -5.867188 3.03125 -6.078125 C 1.894531 -6.515625 1.328125 -7.335938 1.328125 -8.546875 C 1.328125 -9.515625 1.679688 -10.285156 2.390625 -10.859375 C 3.109375 -11.441406 4.097656 -11.734375 5.359375 -11.734375 C 6.597656 -11.734375 7.570312 -11.441406 8.28125 -10.859375 C 8.988281 -10.285156 9.34375 -9.515625 9.34375 -8.546875 C 9.34375 -7.929688 9.160156 -7.414062 8.796875 -7 C 8.441406 -6.582031 7.988281 -6.273438 7.4375 -6.078125 Z M 5.3125 -10.015625 C 4.820312 -10.015625 4.429688 -9.867188 4.140625 -9.578125 C 3.859375 -9.296875 3.71875 -8.921875 3.71875 -8.453125 C 3.71875 -7.953125 3.851562 -7.5625 4.125 -7.28125 C 4.40625 -7 4.796875 -6.859375 5.296875 -6.859375 C 5.804688 -6.859375 6.210938 -7 6.515625 -7.28125 C 6.816406 -7.570312 6.96875 -7.960938 6.96875 -8.453125 C 6.96875 -8.921875 6.816406 -9.296875 6.515625 -9.578125 C 6.222656 -9.867188 5.820312 -10.015625 5.3125 -10.015625 Z M 5.21875 -1.46875 C 5.882812 -1.46875 6.378906 -1.628906 6.703125 -1.953125 C 7.035156 -2.273438 7.203125 -2.71875 7.203125 -3.28125 C 7.203125 -3.84375 7.03125 -4.296875 6.6875 -4.640625 C 6.351562 -4.984375 5.859375 -5.15625 5.203125 -5.15625 C 4.578125 -5.15625 4.085938 -4.984375 3.734375 -4.640625 C 3.390625 -4.296875 3.21875 -3.847656 3.21875 -3.296875 C 3.21875 -2.734375 3.390625 -2.285156 3.734375 -1.953125 C 4.085938 -1.628906 4.582031 -1.46875 5.21875 -1.46875 Z M 5.21875 -1.46875 "/></g></g></g><g fill="#1d1d03" fill-opacity="1"><g transform="translate(291.849421, 557.8228)"><g><path d="M 6.796875 -12.421875 C 8.378906 -12.421875 9.617188 -12.035156 10.515625 -11.265625 C 11.410156 -10.492188 11.921875 -9.476562 12.046875 -8.21875 L 12.0625 -8.046875 L 9.625 -8.046875 L 9.59375 -8.21875 C 9.28125 -9.8125 8.332031 -10.609375 6.75 -10.609375 C 5.769531 -10.609375 4.976562 -10.207031 4.375 -9.40625 C 3.769531 -8.613281 3.46875 -7.53125 3.46875 -6.15625 C 3.46875 -4.6875 3.769531 -3.550781 4.375 -2.75 C 4.976562 -1.957031 5.757812 -1.5625 6.71875 -1.5625 C 7.5 -1.5625 8.125 -1.78125 8.59375 -2.21875 C 9.0625 -2.65625 9.378906 -3.265625 9.546875 -4.046875 L 9.578125 -4.21875 L 12 -4.21875 L 11.984375 -4.046875 C 11.847656 -2.722656 11.300781 -1.675781 10.34375 -0.90625 C 9.394531 -0.132812 8.148438 0.25 6.609375 0.25 C 4.898438 0.25 3.519531 -0.3125 2.46875 -1.4375 C 1.425781 -2.570312 0.90625 -4.097656 0.90625 -6.015625 C 0.90625 -7.960938 1.457031 -9.515625 2.5625 -10.671875 C 3.664062 -11.835938 5.078125 -12.421875 6.796875 -12.421875 Z M 6.796875 -12.421875 "/></g></g></g><g fill="#1d1d03" fill-opacity="1"><g transform="translate(303.45368, 557.8228)"><g><path d="M 6.921875 -12.421875 C 8.773438 -12.421875 10.238281 -11.847656 11.3125 -10.703125 C 12.394531 -9.554688 12.9375 -8.019531 12.9375 -6.09375 C 12.9375 -4.164062 12.394531 -2.625 11.3125 -1.46875 C 10.238281 -0.320312 8.769531 0.25 6.90625 0.25 C 5.050781 0.25 3.585938 -0.320312 2.515625 -1.46875 C 1.441406 -2.625 0.90625 -4.164062 0.90625 -6.09375 C 0.90625 -8.019531 1.4375 -9.554688 2.5 -10.703125 C 3.570312 -11.847656 5.046875 -12.421875 6.921875 -12.421875 Z M 4.359375 -2.75 C 4.984375 -1.957031 5.832031 -1.5625 6.90625 -1.5625 C 7.988281 -1.5625 8.835938 -1.960938 9.453125 -2.765625 C 10.066406 -3.566406 10.375 -4.675781 10.375 -6.09375 C 10.375 -7.507812 10.066406 -8.613281 9.453125 -9.40625 C 8.835938 -10.207031 7.992188 -10.609375 6.921875 -10.609375 C 5.828125 -10.609375 4.972656 -10.207031 4.359375 -9.40625 C 3.742188 -8.613281 3.4375 -7.503906 3.4375 -6.078125 C 3.4375 -4.660156 3.742188 -3.550781 4.359375 -2.75 Z M 4.359375 -2.75 "/></g></g></g><g fill="#1d1d03" fill-opacity="1"><g transform="translate(315.886868, 557.8228)"><g><path d="M 12.265625 0 L 8.921875 0 L 3.921875 -9.25 C 3.972656 -8.132812 4 -6.882812 4 -5.5 L 4 0 L 1.5625 0 L 1.5625 -12.171875 L 4.796875 -12.171875 L 9.90625 -2.75 C 9.851562 -3.84375 9.828125 -5.117188 9.828125 -6.578125 L 9.828125 -12.171875 L 12.25 -12.171875 Z M 12.265625 0 "/></g></g></g><g fill="#1d1d03" fill-opacity="1"><g transform="translate(328.23187, 557.8228)"><g><path d="M 11.09375 -10.265625 L 6.96875 -10.265625 L 6.96875 0 L 4.53125 0 L 4.53125 -10.265625 L 0.40625 -10.265625 L 0.40625 -12.171875 L 11.09375 -12.171875 Z M 11.09375 -10.265625 "/></g></g></g><g fill="#1d1d03" fill-opacity="1"><g transform="translate(338.160632, 557.8228)"><g><path d="M 8.171875 -3.671875 L 4.078125 -3.671875 L 2.859375 0 L 0.265625 0 L 4.65625 -12.171875 L 7.703125 -12.171875 L 12.015625 0 L 9.359375 0 Z M 6.140625 -10.09375 L 4.6875 -5.59375 L 7.546875 -5.59375 Z M 6.140625 -10.09375 "/></g></g></g><g fill="#1d1d03" fill-opacity="1"><g transform="translate(349.024147, 557.8228)"><g><path d="M 6.796875 -12.421875 C 8.378906 -12.421875 9.617188 -12.035156 10.515625 -11.265625 C 11.410156 -10.492188 11.921875 -9.476562 12.046875 -8.21875 L 12.0625 -8.046875 L 9.625 -8.046875 L 9.59375 -8.21875 C 9.28125 -9.8125 8.332031 -10.609375 6.75 -10.609375 C 5.769531 -10.609375 4.976562 -10.207031 4.375 -9.40625 C 3.769531 -8.613281 3.46875 -7.53125 3.46875 -6.15625 C 3.46875 -4.6875 3.769531 -3.550781 4.375 -2.75 C 4.976562 -1.957031 5.757812 -1.5625 6.71875 -1.5625 C 7.5 -1.5625 8.125 -1.78125 8.59375 -2.21875 C 9.0625 -2.65625 9.378906 -3.265625 9.546875 -4.046875 L 9.578125 -4.21875 L 12 -4.21875 L 11.984375 -4.046875 C 11.847656 -2.722656 11.300781 -1.675781 10.34375 -0.90625 C 9.394531 -0.132812 8.148438 0.25 6.609375 0.25 C 4.898438 0.25 3.519531 -0.3125 2.46875 -1.4375 C 1.425781 -2.570312 0.90625 -4.097656 0.90625 -6.015625 C 0.90625 -7.960938 1.457031 -9.515625 2.5625 -10.671875 C 3.664062 -11.835938 5.078125 -12.421875 6.796875 -12.421875 Z M 6.796875 -12.421875 "/></g></g></g><g fill="#1d1d03" fill-opacity="1"><g transform="translate(360.628404, 557.8228)"><g><path d="M 11.09375 -10.265625 L 6.96875 -10.265625 L 6.96875 0 L 4.53125 0 L 4.53125 -10.265625 L 0.40625 -10.265625 L 0.40625 -12.171875 L 11.09375 -12.171875 Z M 11.09375 -10.265625 "/></g></g></g><g fill="#1d1d03" fill-opacity="1"><g transform="translate(370.557166, 557.8228)"><g/></g></g><g fill="#1d1d03" fill-opacity="1"><g transform="translate(372.919747, 557.8228)"><g><path d="M 11.453125 -12.171875 L 11.453125 -4.953125 C 11.453125 -4.378906 11.4375 -3.90625 11.40625 -3.53125 C 11.332031 -2.425781 10.882812 -1.519531 10.0625 -0.8125 C 9.25 -0.101562 8.039062 0.25 6.4375 0.25 C 4.820312 0.25 3.601562 -0.101562 2.78125 -0.8125 C 1.96875 -1.519531 1.523438 -2.425781 1.453125 -3.53125 C 1.421875 -3.90625 1.40625 -4.378906 1.40625 -4.953125 L 1.40625 -12.171875 L 3.828125 -12.171875 L 3.828125 -4.703125 C 3.828125 -4.296875 3.835938 -4.003906 3.859375 -3.828125 C 3.921875 -3.109375 4.164062 -2.550781 4.59375 -2.15625 C 5.019531 -1.757812 5.632812 -1.5625 6.4375 -1.5625 C 7.226562 -1.5625 7.835938 -1.757812 8.265625 -2.15625 C 8.691406 -2.550781 8.9375 -3.109375 9 -3.828125 C 9.019531 -4.003906 9.03125 -4.296875 9.03125 -4.703125 L 9.03125 -12.171875 Z M 11.453125 -12.171875 "/></g></g></g><g fill="#1d1d03" fill-opacity="1"><g transform="translate(384.241816, 557.8228)"><g><path d="M 5.609375 -12.421875 C 6.992188 -12.421875 8.050781 -12.070312 8.78125 -11.375 C 9.519531 -10.6875 9.960938 -9.757812 10.109375 -8.59375 L 7.625 -8.59375 C 7.550781 -9.226562 7.335938 -9.722656 6.984375 -10.078125 C 6.628906 -10.429688 6.140625 -10.609375 5.515625 -10.609375 C 5.015625 -10.609375 4.601562 -10.484375 4.28125 -10.234375 C 3.96875 -9.984375 3.8125 -9.625 3.8125 -9.15625 C 3.8125 -8.632812 4 -8.226562 4.375 -7.9375 C 4.757812 -7.644531 5.4375 -7.382812 6.40625 -7.15625 C 7.726562 -6.851562 8.703125 -6.390625 9.328125 -5.765625 C 9.960938 -5.140625 10.28125 -4.335938 10.28125 -3.359375 C 10.28125 -2.242188 9.84375 -1.363281 8.96875 -0.71875 C 8.101562 -0.0703125 7.039062 0.25 5.78125 0.25 C 4.300781 0.25 3.117188 -0.078125 2.234375 -0.734375 C 1.359375 -1.390625 0.859375 -2.34375 0.734375 -3.59375 L 3.234375 -3.59375 C 3.359375 -2.945312 3.648438 -2.445312 4.109375 -2.09375 C 4.566406 -1.738281 5.113281 -1.5625 5.75 -1.5625 C 6.3125 -1.5625 6.785156 -1.703125 7.171875 -1.984375 C 7.554688 -2.273438 7.75 -2.648438 7.75 -3.109375 C 7.75 -3.617188 7.5625 -4.03125 7.1875 -4.34375 C 6.820312 -4.664062 6.195312 -4.9375 5.3125 -5.15625 C 3.945312 -5.476562 2.925781 -5.910156 2.25 -6.453125 C 1.582031 -7.003906 1.25 -7.804688 1.25 -8.859375 C 1.25 -9.941406 1.671875 -10.804688 2.515625 -11.453125 C 3.367188 -12.097656 4.398438 -12.421875 5.609375 -12.421875 Z M 5.609375 -12.421875 "/></g></g></g><g fill="#1d1d03" fill-opacity="1"><g transform="translate(393.90603, 557.8228)"><g/></g></g><g fill="#1d1d03" fill-opacity="1"><g transform="translate(396.268617, 557.8228)"><g><path d="M 11.09375 -10.265625 L 6.96875 -10.265625 L 6.96875 0 L 4.53125 0 L 4.53125 -10.265625 L 0.40625 -10.265625 L 0.40625 -12.171875 L 11.09375 -12.171875 Z M 11.09375 -10.265625 "/></g></g></g><g fill="#1d1d03" fill-opacity="1"><g transform="translate(406.197385, 557.8228)"><g><path d="M 6.921875 -12.421875 C 8.773438 -12.421875 10.238281 -11.847656 11.3125 -10.703125 C 12.394531 -9.554688 12.9375 -8.019531 12.9375 -6.09375 C 12.9375 -4.164062 12.394531 -2.625 11.3125 -1.46875 C 10.238281 -0.320312 8.769531 0.25 6.90625 0.25 C 5.050781 0.25 3.585938 -0.320312 2.515625 -1.46875 C 1.441406 -2.625 0.90625 -4.164062 0.90625 -6.09375 C 0.90625 -8.019531 1.4375 -9.554688 2.5 -10.703125 C 3.570312 -11.847656 5.046875 -12.421875 6.921875 -12.421875 Z M 4.359375 -2.75 C 4.984375 -1.957031 5.832031 -1.5625 6.90625 -1.5625 C 7.988281 -1.5625 8.835938 -1.960938 9.453125 -2.765625 C 10.066406 -3.566406 10.375 -4.675781 10.375 -6.09375 C 10.375 -7.507812 10.066406 -8.613281 9.453125 -9.40625 C 8.835938 -10.207031 7.992188 -10.609375 6.921875 -10.609375 C 5.828125 -10.609375 4.972656 -10.207031 4.359375 -9.40625 C 3.742188 -8.613281 3.4375 -7.503906 3.4375 -6.078125 C 3.4375 -4.660156 3.742188 -3.550781 4.359375 -2.75 Z M 4.359375 -2.75 "/></g></g></g><g fill="#1d1d03" fill-opacity="1"><g transform="translate(418.630577, 557.8228)"><g/></g></g><g fill="#1d1d03" fill-opacity="1"><g transform="translate(420.993164, 557.8228)"><g><path d="M 10.359375 -2.03125 L 10.359375 0 L 1.5625 0 L 1.5625 -12.171875 L 4 -12.171875 L 4 -2.03125 Z M 10.359375 -2.03125 "/></g></g></g><g fill="#1d1d03" fill-opacity="1"><g transform="translate(430.586837, 557.8228)"><g><path d="M 10.359375 -1.921875 L 10.359375 0 L 1.5625 0 L 1.5625 -12.171875 L 10.171875 -12.171875 L 10.171875 -10.265625 L 4 -10.265625 L 4 -7.0625 L 9.734375 -7.0625 L 9.734375 -5.140625 L 4 -5.140625 L 4 -1.921875 Z M 10.359375 -1.921875 "/></g></g></g><g fill="#1d1d03" fill-opacity="1"><g transform="translate(440.392146, 557.8228)"><g><path d="M 8.171875 -3.671875 L 4.078125 -3.671875 L 2.859375 0 L 0.265625 0 L 4.65625 -12.171875 L 7.703125 -12.171875 L 12.015625 0 L 9.359375 0 Z M 6.140625 -10.09375 L 4.6875 -5.59375 L 7.546875 -5.59375 Z M 6.140625 -10.09375 "/></g></g></g><g fill="#1d1d03" fill-opacity="1"><g transform="translate(451.255667, 557.8228)"><g><path d="M 10.390625 -3.0625 C 10.546875 -1.625 10.835938 -0.601562 11.265625 0 L 8.609375 0 C 8.316406 -0.8125 8.117188 -1.71875 8.015625 -2.71875 C 7.847656 -4.09375 7.300781 -4.816406 6.375 -4.890625 C 6.144531 -4.898438 5.828125 -4.90625 5.421875 -4.90625 L 4 -4.90625 L 4 0 L 1.5625 0 L 1.5625 -12.171875 L 6.015625 -12.171875 C 6.679688 -12.171875 7.269531 -12.140625 7.78125 -12.078125 C 8.738281 -11.960938 9.507812 -11.644531 10.09375 -11.125 C 10.675781 -10.601562 10.96875 -9.847656 10.96875 -8.859375 C 10.96875 -8.085938 10.753906 -7.453125 10.328125 -6.953125 C 9.910156 -6.453125 9.332031 -6.097656 8.59375 -5.890625 C 9.632812 -5.492188 10.234375 -4.550781 10.390625 -3.0625 Z M 4 -6.71875 L 5.6875 -6.71875 C 6.164062 -6.71875 6.492188 -6.722656 6.671875 -6.734375 C 7.835938 -6.835938 8.421875 -7.421875 8.421875 -8.484375 C 8.421875 -9.035156 8.28125 -9.441406 8 -9.703125 C 7.71875 -9.972656 7.320312 -10.144531 6.8125 -10.21875 C 6.53125 -10.25 6.1875 -10.265625 5.78125 -10.265625 L 4 -10.265625 Z M 4 -6.71875 "/></g></g></g><g fill="#1d1d03" fill-opacity="1"><g transform="translate(461.731176, 557.8228)"><g><path d="M 12.265625 0 L 8.921875 0 L 3.921875 -9.25 C 3.972656 -8.132812 4 -6.882812 4 -5.5 L 4 0 L 1.5625 0 L 1.5625 -12.171875 L 4.796875 -12.171875 L 9.90625 -2.75 C 9.851562 -3.84375 9.828125 -5.117188 9.828125 -6.578125 L 9.828125 -12.171875 L 12.25 -12.171875 Z M 12.265625 0 "/></g></g></g><g fill="#1d1d03" fill-opacity="1"><g transform="translate(474.076181, 557.8228)"><g/></g></g><g fill="#1d1d03" fill-opacity="1"><g transform="translate(476.438767, 557.8228)"><g><path d="M 14.6875 -12.171875 L 14.6875 0 L 12.265625 0 L 12.265625 -5.625 C 12.265625 -7.550781 12.273438 -8.941406 12.296875 -9.796875 C 11.960938 -8.378906 11.585938 -6.992188 11.171875 -5.640625 L 9.453125 0 L 6.8125 0 L 5.0625 -5.65625 C 4.613281 -7.15625 4.25 -8.523438 3.96875 -9.765625 C 3.988281 -8.921875 4 -7.539062 4 -5.625 L 4 0 L 1.5625 0 L 1.5625 -12.171875 L 5.421875 -12.171875 L 8.171875 -2.234375 L 10.921875 -12.171875 Z M 14.6875 -12.171875 "/></g></g></g><g fill="#1d1d03" fill-opacity="1"><g transform="translate(491.199997, 557.8228)"><g><path d="M 6.921875 -12.421875 C 8.773438 -12.421875 10.238281 -11.847656 11.3125 -10.703125 C 12.394531 -9.554688 12.9375 -8.019531 12.9375 -6.09375 C 12.9375 -4.164062 12.394531 -2.625 11.3125 -1.46875 C 10.238281 -0.320312 8.769531 0.25 6.90625 0.25 C 5.050781 0.25 3.585938 -0.320312 2.515625 -1.46875 C 1.441406 -2.625 0.90625 -4.164062 0.90625 -6.09375 C 0.90625 -8.019531 1.4375 -9.554688 2.5 -10.703125 C 3.570312 -11.847656 5.046875 -12.421875 6.921875 -12.421875 Z M 4.359375 -2.75 C 4.984375 -1.957031 5.832031 -1.5625 6.90625 -1.5625 C 7.988281 -1.5625 8.835938 -1.960938 9.453125 -2.765625 C 10.066406 -3.566406 10.375 -4.675781 10.375 -6.09375 C 10.375 -7.507812 10.066406 -8.613281 9.453125 -9.40625 C 8.835938 -10.207031 7.992188 -10.609375 6.921875 -10.609375 C 5.828125 -10.609375 4.972656 -10.207031 4.359375 -9.40625 C 3.742188 -8.613281 3.4375 -7.503906 3.4375 -6.078125 C 3.4375 -4.660156 3.742188 -3.550781 4.359375 -2.75 Z M 4.359375 -2.75 "/></g></g></g><g fill="#1d1d03" fill-opacity="1"><g transform="translate(503.633179, 557.8228)"><g><path d="M 10.390625 -3.0625 C 10.546875 -1.625 10.835938 -0.601562 11.265625 0 L 8.609375 0 C 8.316406 -0.8125 8.117188 -1.71875 8.015625 -2.71875 C 7.847656 -4.09375 7.300781 -4.816406 6.375 -4.890625 C 6.144531 -4.898438 5.828125 -4.90625 5.421875 -4.90625 L 4 -4.90625 L 4 0 L 1.5625 0 L 1.5625 -12.171875 L 6.015625 -12.171875 C 6.679688 -12.171875 7.269531 -12.140625 7.78125 -12.078125 C 8.738281 -11.960938 9.507812 -11.644531 10.09375 -11.125 C 10.675781 -10.601562 10.96875 -9.847656 10.96875 -8.859375 C 10.96875 -8.085938 10.753906 -7.453125 10.328125 -6.953125 C 9.910156 -6.453125 9.332031 -6.097656 8.59375 -5.890625 C 9.632812 -5.492188 10.234375 -4.550781 10.390625 -3.0625 Z M 4 -6.71875 L 5.6875 -6.71875 C 6.164062 -6.71875 6.492188 -6.722656 6.671875 -6.734375 C 7.835938 -6.835938 8.421875 -7.421875 8.421875 -8.484375 C 8.421875 -9.035156 8.28125 -9.441406 8 -9.703125 C 7.71875 -9.972656 7.320312 -10.144531 6.8125 -10.21875 C 6.53125 -10.25 6.1875 -10.265625 5.78125 -10.265625 L 4 -10.265625 Z M 4 -6.71875 "/></g></g></g><g fill="#1d1d03" fill-opacity="1"><g transform="translate(514.108688, 557.8228)"><g><path d="M 10.359375 -1.921875 L 10.359375 0 L 1.5625 0 L 1.5625 -12.171875 L 10.171875 -12.171875 L 10.171875 -10.265625 L 4 -10.265625 L 4 -7.0625 L 9.734375 -7.0625 L 9.734375 -5.140625 L 4 -5.140625 L 4 -1.921875 Z M 10.359375 -1.921875 "/></g></g></g><g fill="#1d1d03" fill-opacity="1"><g transform="translate(58.132822, 783.277997)"><g><path d="M 3.78125 0 L 1.484375 0 L 1.484375 -11.5 L 3.78125 -11.5 Z M 3.78125 0 "/></g></g></g><g fill="#1d1d03" fill-opacity="1"><g transform="translate(62.565118, 783.277997)"><g><path d="M 11.59375 0 L 8.4375 0 L 3.703125 -8.734375 C 3.753906 -7.691406 3.78125 -6.515625 3.78125 -5.203125 L 3.78125 0 L 1.484375 0 L 1.484375 -11.5 L 4.53125 -11.5 L 9.375 -2.59375 C 9.3125 -3.632812 9.28125 -4.84375 9.28125 -6.21875 L 9.28125 -11.5 L 11.5625 -11.5 Z M 11.59375 0 "/></g></g></g><g fill="#1d1d03" fill-opacity="1"><g transform="translate(74.796174, 783.277997)"><g><path d="M 3.78125 -9.703125 L 3.78125 -6.671875 L 9.03125 -6.671875 L 9.03125 -4.84375 L 3.78125 -4.84375 L 3.78125 0 L 1.484375 0 L 1.484375 -11.5 L 9.625 -11.5 L 9.625 -9.703125 Z M 3.78125 -9.703125 "/></g></g></g><g fill="#1d1d03" fill-opacity="1"><g transform="translate(84.244335, 783.277997)"><g><path d="M 6.53125 -11.734375 C 8.289062 -11.734375 9.675781 -11.191406 10.6875 -10.109375 C 11.707031 -9.023438 12.21875 -7.570312 12.21875 -5.75 C 12.21875 -3.9375 11.707031 -2.484375 10.6875 -1.390625 C 9.675781 -0.304688 8.289062 0.234375 6.53125 0.234375 C 4.78125 0.234375 3.394531 -0.304688 2.375 -1.390625 C 1.351562 -2.484375 0.84375 -3.9375 0.84375 -5.75 C 0.84375 -7.570312 1.347656 -9.023438 2.359375 -10.109375 C 3.378906 -11.191406 4.769531 -11.734375 6.53125 -11.734375 Z M 4.125 -2.609375 C 4.707031 -1.859375 5.507812 -1.484375 6.53125 -1.484375 C 7.550781 -1.484375 8.347656 -1.859375 8.921875 -2.609375 C 9.503906 -3.367188 9.796875 -4.414062 9.796875 -5.75 C 9.796875 -7.09375 9.503906 -8.140625 8.921875 -8.890625 C 8.347656 -9.640625 7.550781 -10.015625 6.53125 -10.015625 C 5.5 -10.015625 4.691406 -9.640625 4.109375 -8.890625 C 3.535156 -8.140625 3.25 -7.09375 3.25 -5.75 C 3.25 -4.40625 3.539062 -3.359375 4.125 -2.609375 Z M 4.125 -2.609375 "/></g></g></g><g fill="#1d1d03" fill-opacity="1"><g transform="translate(96.558715, 783.277997)"><g><path d="M 11.1875 -7.8125 L 10.421875 -4.625 C 10.285156 -4.007812 10.21875 -3.59375 10.21875 -3.375 C 10.21875 -2.789062 10.441406 -2.5 10.890625 -2.5 C 11.367188 -2.5 11.78125 -2.769531 12.125 -3.3125 C 12.46875 -3.863281 12.640625 -4.628906 12.640625 -5.609375 C 12.640625 -7.023438 12.222656 -8.128906 11.390625 -8.921875 C 10.554688 -9.710938 9.453125 -10.109375 8.078125 -10.109375 C 7.347656 -10.109375 6.640625 -9.972656 5.953125 -9.703125 C 5.265625 -9.429688 4.644531 -9.050781 4.09375 -8.5625 C 3.539062 -8.070312 3.097656 -7.445312 2.765625 -6.6875 C 2.429688 -5.925781 2.265625 -5.097656 2.265625 -4.203125 C 2.265625 -2.671875 2.703125 -1.46875 3.578125 -0.59375 C 4.460938 0.269531 5.65625 0.703125 7.15625 0.703125 C 8.664062 0.703125 9.96875 0.300781 11.0625 -0.5 L 11.59375 0.640625 C 10.195312 1.554688 8.664062 2.015625 7 2.015625 C 6.382812 2.015625 5.785156 1.941406 5.203125 1.796875 C 4.628906 1.648438 4.070312 1.414062 3.53125 1.09375 C 3 0.769531 2.53125 0.378906 2.125 -0.078125 C 1.726562 -0.546875 1.410156 -1.128906 1.171875 -1.828125 C 0.929688 -2.523438 0.8125 -3.289062 0.8125 -4.125 C 0.8125 -6.25 1.53125 -7.992188 2.96875 -9.359375 C 4.40625 -10.734375 6.128906 -11.421875 8.140625 -11.421875 C 9.960938 -11.421875 11.410156 -10.875 12.484375 -9.78125 C 13.566406 -8.695312 14.109375 -7.34375 14.109375 -5.71875 C 14.109375 -4.1875 13.75 -3.046875 13.03125 -2.296875 C 12.3125 -1.554688 11.425781 -1.1875 10.375 -1.1875 C 9.195312 -1.1875 8.484375 -1.675781 8.234375 -2.65625 L 7.78125 -1.75 C 7.332031 -1.375 6.816406 -1.1875 6.234375 -1.1875 C 5.585938 -1.1875 5.039062 -1.398438 4.59375 -1.828125 C 4.15625 -2.265625 3.9375 -2.96875 3.9375 -3.9375 C 3.9375 -5.101562 4.25 -6.09375 4.875 -6.90625 C 5.507812 -7.71875 6.316406 -8.125 7.296875 -8.125 C 7.921875 -8.125 8.378906 -7.960938 8.671875 -7.640625 L 8.890625 -6.75 L 9.203125 -7.8125 Z M 6.96875 -2.796875 C 7.28125 -2.796875 7.539062 -2.921875 7.75 -3.171875 C 7.96875 -3.429688 8.128906 -3.757812 8.234375 -4.15625 L 8.4375 -5.109375 C 8.550781 -5.566406 8.539062 -5.910156 8.40625 -6.140625 C 8.269531 -6.378906 8.046875 -6.5 7.734375 -6.5 C 7.265625 -6.5 6.882812 -6.265625 6.59375 -5.796875 C 6.300781 -5.335938 6.15625 -4.769531 6.15625 -4.09375 C 6.15625 -3.226562 6.425781 -2.796875 6.96875 -2.796875 Z M 6.96875 -2.796875 "/></g></g></g><g fill="#1d1d03" fill-opacity="1"><g transform="translate(111.039416, 783.277997)"><g><path d="M 3.78125 -9.703125 L 3.78125 -6.671875 L 9.03125 -6.671875 L 9.03125 -4.84375 L 3.78125 -4.84375 L 3.78125 0 L 1.484375 0 L 1.484375 -11.5 L 9.625 -11.5 L 9.625 -9.703125 Z M 3.78125 -9.703125 "/></g></g></g><g fill="#1d1d03" fill-opacity="1"><g transform="translate(120.487578, 783.277997)"><g><path d="M 9.8125 -2.90625 C 9.957031 -1.53125 10.238281 -0.5625 10.65625 0 L 8.140625 0 C 7.859375 -0.769531 7.664062 -1.625 7.5625 -2.5625 C 7.40625 -3.863281 6.890625 -4.550781 6.015625 -4.625 C 5.804688 -4.632812 5.507812 -4.640625 5.125 -4.640625 L 3.78125 -4.640625 L 3.78125 0 L 1.484375 0 L 1.484375 -11.5 L 5.6875 -11.5 C 6.320312 -11.5 6.878906 -11.472656 7.359375 -11.421875 C 8.265625 -11.304688 8.992188 -11 9.546875 -10.5 C 10.097656 -10.007812 10.375 -9.300781 10.375 -8.375 C 10.375 -7.644531 10.171875 -7.046875 9.765625 -6.578125 C 9.367188 -6.109375 8.820312 -5.769531 8.125 -5.5625 C 9.113281 -5.1875 9.675781 -4.300781 9.8125 -2.90625 Z M 3.78125 -6.359375 L 5.375 -6.359375 C 5.820312 -6.359375 6.128906 -6.363281 6.296875 -6.375 C 7.398438 -6.46875 7.953125 -7.015625 7.953125 -8.015625 C 7.953125 -8.535156 7.820312 -8.921875 7.5625 -9.171875 C 7.300781 -9.421875 6.925781 -9.582031 6.4375 -9.65625 C 6.164062 -9.6875 5.84375 -9.703125 5.46875 -9.703125 L 3.78125 -9.703125 Z M 3.78125 -6.359375 "/></g></g></g><g fill="#1d1d03" fill-opacity="1"><g transform="translate(130.952249, 783.277997)"><g><path d="M 9.78125 -1.8125 L 9.78125 0 L 1.484375 0 L 1.484375 -11.5 L 9.625 -11.5 L 9.625 -9.703125 L 3.78125 -9.703125 L 3.78125 -6.671875 L 9.203125 -6.671875 L 9.203125 -4.84375 L 3.78125 -4.84375 L 3.78125 -1.8125 Z M 9.78125 -1.8125 "/></g></g></g><g fill="#1d1d03" fill-opacity="1"><g transform="translate(140.783685, 783.277997)"><g><path d="M 6.625 -4.453125 L 6.625 0 L 4.328125 0 L 4.328125 -4.453125 L 0.265625 -11.5 L 2.875 -11.5 L 5.546875 -6.484375 L 8.15625 -11.5 L 10.6875 -11.5 Z M 6.625 -4.453125 "/></g></g></g><g fill="#1d1d03" fill-opacity="1"><g transform="translate(150.781758, 783.277997)"><g><path d="M 5.296875 -11.734375 C 6.609375 -11.734375 7.613281 -11.40625 8.3125 -10.75 C 9.007812 -10.09375 9.421875 -9.21875 9.546875 -8.125 L 7.203125 -8.125 C 7.140625 -8.71875 6.941406 -9.179688 6.609375 -9.515625 C 6.273438 -9.847656 5.8125 -10.015625 5.21875 -10.015625 C 4.738281 -10.015625 4.347656 -9.894531 4.046875 -9.65625 C 3.742188 -9.425781 3.59375 -9.09375 3.59375 -8.65625 C 3.59375 -8.164062 3.773438 -7.78125 4.140625 -7.5 C 4.503906 -7.21875 5.140625 -6.972656 6.046875 -6.765625 C 7.304688 -6.472656 8.234375 -6.03125 8.828125 -5.4375 C 9.421875 -4.851562 9.71875 -4.097656 9.71875 -3.171875 C 9.71875 -2.117188 9.304688 -1.285156 8.484375 -0.671875 C 7.660156 -0.0664062 6.65625 0.234375 5.46875 0.234375 C 4.070312 0.234375 2.953125 -0.0703125 2.109375 -0.6875 C 1.273438 -1.300781 0.804688 -2.207031 0.703125 -3.40625 L 3.046875 -3.40625 C 3.171875 -2.789062 3.445312 -2.316406 3.875 -1.984375 C 4.3125 -1.648438 4.832031 -1.484375 5.4375 -1.484375 C 5.96875 -1.484375 6.410156 -1.613281 6.765625 -1.875 C 7.128906 -2.144531 7.3125 -2.5 7.3125 -2.9375 C 7.3125 -3.425781 7.132812 -3.816406 6.78125 -4.109375 C 6.4375 -4.410156 5.847656 -4.664062 5.015625 -4.875 C 3.722656 -5.175781 2.757812 -5.585938 2.125 -6.109375 C 1.5 -6.628906 1.1875 -7.382812 1.1875 -8.375 C 1.1875 -9.394531 1.582031 -10.207031 2.375 -10.8125 C 3.175781 -11.425781 4.148438 -11.734375 5.296875 -11.734375 Z M 5.296875 -11.734375 "/></g></g></g><g fill="#1d1d03" fill-opacity="1"><g transform="translate(160.479881, 783.277997)"><g><path d="M 13.890625 -11.5 L 13.890625 0 L 11.59375 0 L 11.59375 -5.3125 C 11.59375 -7.132812 11.601562 -8.445312 11.625 -9.25 C 11.3125 -7.914062 10.953125 -6.609375 10.546875 -5.328125 L 8.9375 0 L 6.4375 0 L 4.78125 -5.359375 C 4.363281 -6.765625 4.019531 -8.054688 3.75 -9.234375 C 3.769531 -8.429688 3.78125 -7.125 3.78125 -5.3125 L 3.78125 0 L 1.484375 0 L 1.484375 -11.5 L 5.125 -11.5 L 7.71875 -2.125 L 10.3125 -11.5 Z M 13.890625 -11.5 "/></g></g></g><g fill="#1d1d03" fill-opacity="1"><g transform="translate(174.993908, 783.277997)"><g><path d="M 3.78125 0 L 1.484375 0 L 1.484375 -11.5 L 3.78125 -11.5 Z M 3.78125 0 "/></g></g></g><g fill="#1d1d03" fill-opacity="1"><g transform="translate(179.426204, 783.277997)"><g><path d="M 9.78125 -1.921875 L 9.78125 0 L 1.484375 0 L 1.484375 -11.5 L 3.78125 -11.5 L 3.78125 -1.921875 Z M 9.78125 -1.921875 "/></g></g></g><g fill="#1d1d03" fill-opacity="1"><g transform="translate(189.057677, 783.277997)"><g><path d="M 9.78125 -1.8125 L 9.78125 0 L 1.484375 0 L 1.484375 -11.5 L 9.625 -11.5 L 9.625 -9.703125 L 3.78125 -9.703125 L 3.78125 -6.671875 L 9.203125 -6.671875 L 9.203125 -4.84375 L 3.78125 -4.84375 L 3.78125 -1.8125 Z M 9.78125 -1.8125 "/></g></g></g><g fill="#1d1d03" fill-opacity="1"><g transform="translate(198.889113, 783.277997)"><g><path d="M 5.296875 -11.734375 C 6.609375 -11.734375 7.613281 -11.40625 8.3125 -10.75 C 9.007812 -10.09375 9.421875 -9.21875 9.546875 -8.125 L 7.203125 -8.125 C 7.140625 -8.71875 6.941406 -9.179688 6.609375 -9.515625 C 6.273438 -9.847656 5.8125 -10.015625 5.21875 -10.015625 C 4.738281 -10.015625 4.347656 -9.894531 4.046875 -9.65625 C 3.742188 -9.425781 3.59375 -9.09375 3.59375 -8.65625 C 3.59375 -8.164062 3.773438 -7.78125 4.140625 -7.5 C 4.503906 -7.21875 5.140625 -6.972656 6.046875 -6.765625 C 7.304688 -6.472656 8.234375 -6.03125 8.828125 -5.4375 C 9.421875 -4.851562 9.71875 -4.097656 9.71875 -3.171875 C 9.71875 -2.117188 9.304688 -1.285156 8.484375 -0.671875 C 7.660156 -0.0664062 6.65625 0.234375 5.46875 0.234375 C 4.070312 0.234375 2.953125 -0.0703125 2.109375 -0.6875 C 1.273438 -1.300781 0.804688 -2.207031 0.703125 -3.40625 L 3.046875 -3.40625 C 3.171875 -2.789062 3.445312 -2.316406 3.875 -1.984375 C 4.3125 -1.648438 4.832031 -1.484375 5.4375 -1.484375 C 5.96875 -1.484375 6.410156 -1.613281 6.765625 -1.875 C 7.128906 -2.144531 7.3125 -2.5 7.3125 -2.9375 C 7.3125 -3.425781 7.132812 -3.816406 6.78125 -4.109375 C 6.4375 -4.410156 5.847656 -4.664062 5.015625 -4.875 C 3.722656 -5.175781 2.757812 -5.585938 2.125 -6.109375 C 1.5 -6.628906 1.1875 -7.382812 1.1875 -8.375 C 1.1875 -9.394531 1.582031 -10.207031 2.375 -10.8125 C 3.175781 -11.425781 4.148438 -11.734375 5.296875 -11.734375 Z M 5.296875 -11.734375 "/></g></g></g><g fill="#1d1d03" fill-opacity="1"><g transform="translate(208.587236, 783.277997)"><g><path d="M 1.03125 -2.171875 C 1.289062 -2.429688 1.625 -2.5625 2.03125 -2.5625 C 2.445312 -2.5625 2.785156 -2.429688 3.046875 -2.171875 C 3.304688 -1.910156 3.4375 -1.570312 3.4375 -1.15625 C 3.4375 -0.75 3.304688 -0.414062 3.046875 -0.15625 C 2.785156 0.101562 2.445312 0.234375 2.03125 0.234375 C 1.625 0.234375 1.289062 0.101562 1.03125 -0.15625 C 0.78125 -0.414062 0.65625 -0.75 0.65625 -1.15625 C 0.65625 -1.570312 0.78125 -1.910156 1.03125 -2.171875 Z M 1.03125 -2.171875 "/></g></g></g><g fill="#1d1d03" fill-opacity="1"><g transform="translate(212.236322, 783.277997)"><g><path d="M 6.421875 -11.734375 C 7.921875 -11.734375 9.09375 -11.367188 9.9375 -10.640625 C 10.78125 -9.910156 11.265625 -8.953125 11.390625 -7.765625 L 11.40625 -7.609375 L 9.109375 -7.609375 L 9.0625 -7.765625 C 8.769531 -9.265625 7.878906 -10.015625 6.390625 -10.015625 C 5.453125 -10.015625 4.695312 -9.640625 4.125 -8.890625 C 3.5625 -8.140625 3.28125 -7.113281 3.28125 -5.8125 C 3.28125 -4.425781 3.5625 -3.359375 4.125 -2.609375 C 4.695312 -1.859375 5.441406 -1.484375 6.359375 -1.484375 C 7.085938 -1.484375 7.671875 -1.6875 8.109375 -2.09375 C 8.554688 -2.507812 8.859375 -3.082031 9.015625 -3.8125 L 9.046875 -3.984375 L 11.34375 -3.984375 L 11.3125 -3.8125 C 11.195312 -2.570312 10.6875 -1.585938 9.78125 -0.859375 C 8.882812 -0.128906 7.707031 0.234375 6.25 0.234375 C 4.625 0.234375 3.316406 -0.296875 2.328125 -1.359375 C 1.335938 -2.429688 0.84375 -3.875 0.84375 -5.6875 C 0.84375 -7.53125 1.363281 -9 2.40625 -10.09375 C 3.457031 -11.1875 4.796875 -11.734375 6.421875 -11.734375 Z M 6.421875 -11.734375 "/></g></g></g><g fill="#1d1d03" fill-opacity="1"><g transform="translate(223.767491, 783.277997)"><g><path d="M 6.53125 -11.734375 C 8.289062 -11.734375 9.675781 -11.191406 10.6875 -10.109375 C 11.707031 -9.023438 12.21875 -7.570312 12.21875 -5.75 C 12.21875 -3.9375 11.707031 -2.484375 10.6875 -1.390625 C 9.675781 -0.304688 8.289062 0.234375 6.53125 0.234375 C 4.78125 0.234375 3.394531 -0.304688 2.375 -1.390625 C 1.351562 -2.484375 0.84375 -3.9375 0.84375 -5.75 C 0.84375 -7.570312 1.347656 -9.023438 2.359375 -10.109375 C 3.378906 -11.191406 4.769531 -11.734375 6.53125 -11.734375 Z M 4.125 -2.609375 C 4.707031 -1.859375 5.507812 -1.484375 6.53125 -1.484375 C 7.550781 -1.484375 8.347656 -1.859375 8.921875 -2.609375 C 9.503906 -3.367188 9.796875 -4.414062 9.796875 -5.75 C 9.796875 -7.09375 9.503906 -8.140625 8.921875 -8.890625 C 8.347656 -9.640625 7.550781 -10.015625 6.53125 -10.015625 C 5.5 -10.015625 4.691406 -9.640625 4.109375 -8.890625 C 3.535156 -8.140625 3.25 -7.09375 3.25 -5.75 C 3.25 -4.40625 3.539062 -3.359375 4.125 -2.609375 Z M 4.125 -2.609375 "/></g></g></g><g fill="#1d1d03" fill-opacity="1"><g transform="translate(236.081871, 783.277997)"><g><path d="M 13.890625 -11.5 L 13.890625 0 L 11.59375 0 L 11.59375 -5.3125 C 11.59375 -7.132812 11.601562 -8.445312 11.625 -9.25 C 11.3125 -7.914062 10.953125 -6.609375 10.546875 -5.328125 L 8.9375 0 L 6.4375 0 L 4.78125 -5.359375 C 4.363281 -6.765625 4.019531 -8.054688 3.75 -9.234375 C 3.769531 -8.429688 3.78125 -7.125 3.78125 -5.3125 L 3.78125 0 L 1.484375 0 L 1.484375 -11.5 L 5.125 -11.5 L 7.71875 -2.125 L 10.3125 -11.5 Z M 13.890625 -11.5 "/></g></g></g></svg>