<?xml version="1.0" encoding="utf-8"?>
<!-- Generator: Adobe Illustrator 26.5.0, SVG Export Plug-In . SVG Version: 6.00 Build 0)  -->
<svg version="1.1" id="Layer_1" xmlns="http://www.w3.org/2000/svg" xmlns:xlink="http://www.w3.org/1999/xlink" x="0px" y="0px"
	 viewBox="0 0 302 248" style="enable-background:new 0 0 302 248;" xml:space="preserve">
<style type="text/css">
	.st0{fill:#663399;}
</style>
<path class="st0" d="M2.8,0v2.3H5v0.6H2.8v2.3H2.2V2.8H0V2.3h2.2V0H2.8z"/>
<path class="st0" d="M20.3,0v2.3h2.2v0.6h-2.2v2.3h-0.6V2.8h-2.2V2.3h2.2V0H20.3z"/>
<path class="st0" d="M37.8,0v2.3H40v0.6h-2.2v2.3h-0.6V2.8H35V2.3h2.2V0H37.8z"/>
<path class="st0" d="M55.2,0v2.3h2.2v0.6h-2.2v2.3h-0.6V2.8h-2.2V2.3h2.2V0H55.2z"/>
<path class="st0" d="M72.7,0v2.3h2.2v0.6h-2.2v2.3h-0.6V2.8h-2.2V2.3h2.2V0H72.7z"/>
<path class="st0" d="M90.1,0v2.3h2.2v0.6h-2.2v2.3h-0.6V2.8h-2.2V2.3h2.2V0H90.1z"/>
<path class="st0" d="M107.6,0v2.3h2.2v0.6h-2.2v2.3H107V2.8h-2.2V2.3h2.2V0H107.6z"/>
<path class="st0" d="M125.1,0v2.3h2.2v0.6h-2.2v2.3h-0.6V2.8h-2.2V2.3h2.2V0H125.1z"/>
<path class="st0" d="M142.6,0v2.3h2.2v0.6h-2.2v2.3H142V2.8h-2.2V2.3h2.2V0H142.6z"/>
<path class="st0" d="M160,0v2.3h2.2v0.6H160v2.3h-0.6V2.8h-2.1V2.3h2.2V0H160z"/>
<path class="st0" d="M177.5,0v2.3h2.2v0.6h-2.2v2.3h-0.6V2.8h-2.2V2.3h2.2V0H177.5z"/>
<path class="st0" d="M194.9,0v2.3h2.2v0.6h-2.2v2.3h-0.6V2.8h-2.2V2.3h2.2V0H194.9z"/>
<path class="st0" d="M212.4,0v2.3h2.2v0.6h-2.2v2.3h-0.6V2.8h-2.2V2.3h2.2V0H212.4z"/>
<path class="st0" d="M229.9,0v2.3h2.2v0.6h-2.2v2.3h-0.6V2.8h-2.2V2.3h2.2V0H229.9z"/>
<path class="st0" d="M247.4,0v2.3h2.2v0.6h-2.2v2.3h-0.6V2.8h-2.2V2.3h2.2V0H247.4z"/>
<path class="st0" d="M264.9,0v2.3h2.2v0.6h-2.2v2.3h-0.6V2.8H262V2.3h2.2V0H264.9z"/>
<path class="st0" d="M282.3,0v2.3h2.2v0.6h-2.2v2.3h-0.6V2.8h-2.2V2.3h2.2V0H282.3z"/>
<path class="st0" d="M299.8,0v2.3h2.2v0.6h-2.2v2.3h-0.6V2.8H297V2.3h2.2V0H299.8z"/>
<path class="st0" d="M2.8,20.2v2.3H5v0.6H2.8v2.3H2.2v-2.3H0v-0.6h2.2v-2.3H2.8z"/>
<path class="st0" d="M20.3,20.2v2.3h2.2v0.6h-2.2v2.3h-0.6v-2.3h-2.2v-0.6h2.2v-2.3H20.3z"/>
<path class="st0" d="M37.8,20.2v2.3H40v0.6h-2.2v2.3h-0.6v-2.3H35v-0.6h2.2v-2.3H37.8z"/>
<path class="st0" d="M55.2,20.2v2.3h2.2v0.6h-2.2v2.3h-0.6v-2.3h-2.2v-0.6h2.2v-2.3H55.2z"/>
<path class="st0" d="M72.7,20.2v2.3h2.2v0.6h-2.2v2.3h-0.6v-2.3h-2.2v-0.6h2.2v-2.3H72.7z"/>
<path class="st0" d="M90.1,20.2v2.3h2.2v0.6h-2.2v2.3h-0.6v-2.3h-2.2v-0.6h2.2v-2.3H90.1z"/>
<path class="st0" d="M107.6,20.2v2.3h2.2v0.6h-2.2v2.3H107v-2.3h-2.2v-0.6h2.2v-2.3H107.6z"/>
<path class="st0" d="M125.1,20.2v2.3h2.2v0.6h-2.2v2.3h-0.6v-2.3h-2.2v-0.6h2.2v-2.3H125.1z"/>
<path class="st0" d="M142.6,20.2v2.3h2.2v0.6h-2.2v2.3H142v-2.3h-2.2v-0.6h2.2v-2.3H142.6z"/>
<path class="st0" d="M160,20.2v2.3h2.2v0.6H160v2.3h-0.6v-2.3h-2.1v-0.6h2.2v-2.3H160z"/>
<path class="st0" d="M177.5,20.2v2.3h2.2v0.6h-2.2v2.3h-0.6v-2.3h-2.2v-0.6h2.2v-2.3H177.5z"/>
<path class="st0" d="M194.9,20.2v2.3h2.2v0.6h-2.2v2.3h-0.6v-2.3h-2.2v-0.6h2.2v-2.3H194.9z"/>
<path class="st0" d="M212.4,20.2v2.3h2.2v0.6h-2.2v2.3h-0.6v-2.3h-2.2v-0.6h2.2v-2.3H212.4z"/>
<path class="st0" d="M229.9,20.2v2.3h2.2v0.6h-2.2v2.3h-0.6v-2.3h-2.2v-0.6h2.2v-2.3H229.9z"/>
<path class="st0" d="M247.4,20.2v2.3h2.2v0.6h-2.2v2.3h-0.6v-2.3h-2.2v-0.6h2.2v-2.3H247.4z"/>
<path class="st0" d="M264.9,20.2v2.3h2.2v0.6h-2.2v2.3h-0.6v-2.3H262v-0.6h2.2v-2.3H264.9z"/>
<path class="st0" d="M282.3,20.2v2.3h2.2v0.6h-2.2v2.3h-0.6v-2.3h-2.2v-0.6h2.2v-2.3H282.3z"/>
<path class="st0" d="M299.8,20.2v2.3h2.2v0.6h-2.2v2.3h-0.6v-2.3H297v-0.6h2.2v-2.3H299.8z"/>
<path class="st0" d="M2.8,40.5v2.3H5v0.6H2.8v2.3H2.2v-2.3H0v-0.6h2.2v-2.3H2.8z"/>
<path class="st0" d="M20.3,40.5v2.3h2.2v0.6h-2.2v2.3h-0.6v-2.3h-2.2v-0.6h2.2v-2.3H20.3z"/>
<path class="st0" d="M37.8,40.5v2.3H40v0.6h-2.2v2.3h-0.6v-2.3H35v-0.6h2.2v-2.3H37.8z"/>
<path class="st0" d="M55.2,40.5v2.3h2.2v0.6h-2.2v2.3h-0.6v-2.3h-2.2v-0.6h2.2v-2.3H55.2z"/>
<path class="st0" d="M72.7,40.5v2.3h2.2v0.6h-2.2v2.3h-0.6v-2.3h-2.2v-0.6h2.2v-2.3H72.7z"/>
<path class="st0" d="M90.1,40.5v2.3h2.2v0.6h-2.2v2.3h-0.6v-2.3h-2.2v-0.6h2.2v-2.3H90.1z"/>
<path class="st0" d="M107.6,40.5v2.3h2.2v0.6h-2.2v2.3H107v-2.3h-2.2v-0.6h2.2v-2.3H107.6z"/>
<path class="st0" d="M125.1,40.5v2.3h2.2v0.6h-2.2v2.3h-0.6v-2.3h-2.2v-0.6h2.2v-2.3H125.1z"/>
<path class="st0" d="M142.6,40.5v2.3h2.2v0.6h-2.2v2.3H142v-2.3h-2.2v-0.6h2.2v-2.3H142.6z"/>
<path class="st0" d="M160,40.5v2.3h2.2v0.6H160v2.3h-0.6v-2.3h-2.1v-0.6h2.2v-2.3H160z"/>
<path class="st0" d="M177.5,40.5v2.3h2.2v0.6h-2.2v2.3h-0.6v-2.3h-2.2v-0.6h2.2v-2.3H177.5z"/>
<path class="st0" d="M194.9,40.5v2.3h2.2v0.6h-2.2v2.3h-0.6v-2.3h-2.2v-0.6h2.2v-2.3H194.9z"/>
<path class="st0" d="M212.4,40.5v2.3h2.2v0.6h-2.2v2.3h-0.6v-2.3h-2.2v-0.6h2.2v-2.3H212.4z"/>
<path class="st0" d="M229.9,40.5v2.3h2.2v0.6h-2.2v2.3h-0.6v-2.3h-2.2v-0.6h2.2v-2.3H229.9z"/>
<path class="st0" d="M247.4,40.5v2.3h2.2v0.6h-2.2v2.3h-0.6v-2.3h-2.2v-0.6h2.2v-2.3H247.4z"/>
<path class="st0" d="M264.9,40.5v2.3h2.2v0.6h-2.2v2.3h-0.6v-2.3H262v-0.6h2.2v-2.3H264.9z"/>
<path class="st0" d="M282.3,40.5v2.3h2.2v0.6h-2.2v2.3h-0.6v-2.3h-2.2v-0.6h2.2v-2.3H282.3z"/>
<path class="st0" d="M299.8,40.5v2.3h2.2v0.6h-2.2v2.3h-0.6v-2.3H297v-0.6h2.2v-2.3H299.8z"/>
<path class="st0" d="M2.8,60.7V63H5v0.6H2.8v2.3H2.2v-2.3H0V63h2.2v-2.3H2.8z"/>
<path class="st0" d="M20.3,60.7V63h2.2v0.6h-2.2v2.3h-0.6v-2.3h-2.2V63h2.2v-2.3H20.3z"/>
<path class="st0" d="M37.8,60.7V63H40v0.6h-2.2v2.3h-0.6v-2.3H35V63h2.2v-2.3H37.8z"/>
<path class="st0" d="M55.2,60.7V63h2.2v0.6h-2.2v2.3h-0.6v-2.3h-2.2V63h2.2v-2.3H55.2z"/>
<path class="st0" d="M72.7,60.7V63h2.2v0.6h-2.2v2.3h-0.6v-2.3h-2.2V63h2.2v-2.3H72.7z"/>
<path class="st0" d="M90.1,60.7V63h2.2v0.6h-2.2v2.3h-0.6v-2.3h-2.2V63h2.2v-2.3H90.1z"/>
<path class="st0" d="M107.6,60.7V63h2.2v0.6h-2.2v2.3H107v-2.3h-2.2V63h2.2v-2.3H107.6z"/>
<path class="st0" d="M125.1,60.7V63h2.2v0.6h-2.2v2.3h-0.6v-2.3h-2.2V63h2.2v-2.3H125.1z"/>
<path class="st0" d="M142.6,60.7V63h2.2v0.6h-2.2v2.3H142v-2.3h-2.2V63h2.2v-2.3H142.6z"/>
<path class="st0" d="M160,60.7V63h2.2v0.6H160v2.3h-0.6v-2.3h-2.1V63h2.2v-2.3H160z"/>
<path class="st0" d="M177.5,60.7V63h2.2v0.6h-2.2v2.3h-0.6v-2.3h-2.2V63h2.2v-2.3H177.5z"/>
<path class="st0" d="M194.9,60.7V63h2.2v0.6h-2.2v2.3h-0.6v-2.3h-2.2V63h2.2v-2.3H194.9z"/>
<path class="st0" d="M212.4,60.7V63h2.2v0.6h-2.2v2.3h-0.6v-2.3h-2.2V63h2.2v-2.3H212.4z"/>
<path class="st0" d="M229.9,60.7V63h2.2v0.6h-2.2v2.3h-0.6v-2.3h-2.2V63h2.2v-2.3H229.9z"/>
<path class="st0" d="M247.4,60.7V63h2.2v0.6h-2.2v2.3h-0.6v-2.3h-2.2V63h2.2v-2.3H247.4z"/>
<path class="st0" d="M264.9,60.7V63h2.2v0.6h-2.2v2.3h-0.6v-2.3H262V63h2.2v-2.3H264.9z"/>
<path class="st0" d="M282.3,60.7V63h2.2v0.6h-2.2v2.3h-0.6v-2.3h-2.2V63h2.2v-2.3H282.3z"/>
<path class="st0" d="M299.8,60.7V63h2.2v0.6h-2.2v2.3h-0.6v-2.3H297V63h2.2v-2.3H299.8z"/>
<path class="st0" d="M2.8,80.9v2.3H5v0.6H2.8V86H2.2v-2.3H0v-0.6h2.2v-2.3h0.6V80.9z"/>
<path class="st0" d="M20.3,80.9v2.3h2.2v0.6h-2.2V86h-0.6v-2.3h-2.2v-0.6h2.2v-2.3h0.6V80.9z"/>
<path class="st0" d="M37.8,80.9v2.3H40v0.6h-2.2V86h-0.6v-2.3H35v-0.6h2.2v-2.3h0.6V80.9z"/>
<path class="st0" d="M55.2,80.9v2.3h2.2v0.6h-2.2V86h-0.6v-2.3h-2.2v-0.6h2.2v-2.3h0.6V80.9z"/>
<path class="st0" d="M72.7,80.9v2.3h2.2v0.6h-2.2V86h-0.6v-2.3h-2.2v-0.6h2.2v-2.3h0.6V80.9z"/>
<path class="st0" d="M90.1,80.9v2.3h2.2v0.6h-2.2V86h-0.6v-2.3h-2.2v-0.6h2.2v-2.3h0.6V80.9z"/>
<path class="st0" d="M107.6,80.9v2.3h2.2v0.6h-2.2V86H107v-2.3h-2.2v-0.6h2.2v-2.3h0.6V80.9z"/>
<path class="st0" d="M125.1,80.9v2.3h2.2v0.6h-2.2V86h-0.6v-2.3h-2.2v-0.6h2.2v-2.3h0.6V80.9z"/>
<path class="st0" d="M142.6,80.9v2.3h2.2v0.6h-2.2V86H142v-2.3h-2.2v-0.6h2.2v-2.3h0.6V80.9z"/>
<path class="st0" d="M160,80.9v2.3h2.2v0.6H160V86h-0.6v-2.3h-2.1v-0.6h2.2v-2.3h0.5V80.9z"/>
<path class="st0" d="M177.5,80.9v2.3h2.2v0.6h-2.2V86h-0.6v-2.3h-2.2v-0.6h2.2v-2.3h0.6V80.9z"/>
<path class="st0" d="M194.9,80.9v2.3h2.2v0.6h-2.2V86h-0.6v-2.3h-2.2v-0.6h2.2v-2.3h0.6V80.9z"/>
<path class="st0" d="M212.4,80.9v2.3h2.2v0.6h-2.2V86h-0.6v-2.3h-2.2v-0.6h2.2v-2.3h0.6V80.9z"/>
<path class="st0" d="M229.9,80.9v2.3h2.2v0.6h-2.2V86h-0.6v-2.3h-2.2v-0.6h2.2v-2.3h0.6V80.9z"/>
<path class="st0" d="M247.4,80.9v2.3h2.2v0.6h-2.2V86h-0.6v-2.3h-2.2v-0.6h2.2v-2.3h0.6V80.9z"/>
<path class="st0" d="M264.9,80.9v2.3h2.2v0.6h-2.2V86h-0.6v-2.3H262v-0.6h2.2v-2.3h0.7V80.9z"/>
<path class="st0" d="M282.3,80.9v2.3h2.2v0.6h-2.2V86h-0.6v-2.3h-2.2v-0.6h2.2v-2.3h0.6V80.9z"/>
<path class="st0" d="M299.8,80.9v2.3h2.2v0.6h-2.2V86h-0.6v-2.3H297v-0.6h2.2v-2.3h0.6V80.9z"/>
<path class="st0" d="M2.8,101.2v2.3H5v0.6H2.8v2.3H2.2V104H0v-0.6h2.2v-2.3L2.8,101.2L2.8,101.2z"/>
<path class="st0" d="M20.3,101.2v2.3h2.2v0.6h-2.2v2.3h-0.6V104h-2.2v-0.6h2.2v-2.3L20.3,101.2L20.3,101.2z"/>
<path class="st0" d="M37.8,101.2v2.3H40v0.6h-2.2v2.3h-0.6V104H35v-0.6h2.2v-2.3L37.8,101.2L37.8,101.2z"/>
<path class="st0" d="M55.2,101.2v2.3h2.2v0.6h-2.2v2.3h-0.6V104h-2.2v-0.6h2.2v-2.3L55.2,101.2L55.2,101.2z"/>
<path class="st0" d="M72.7,101.2v2.3h2.2v0.6h-2.2v2.3h-0.6V104h-2.2v-0.6h2.2v-2.3L72.7,101.2L72.7,101.2z"/>
<path class="st0" d="M90.1,101.2v2.3h2.2v0.6h-2.2v2.3h-0.6V104h-2.2v-0.6h2.2v-2.3L90.1,101.2L90.1,101.2z"/>
<path class="st0" d="M107.6,101.2v2.3h2.2v0.6h-2.2v2.3H107V104h-2.2v-0.6h2.2v-2.3L107.6,101.2L107.6,101.2z"/>
<path class="st0" d="M125.1,101.2v2.3h2.2v0.6h-2.2v2.3h-0.6V104h-2.2v-0.6h2.2v-2.3L125.1,101.2L125.1,101.2z"/>
<path class="st0" d="M142.6,101.2v2.3h2.2v0.6h-2.2v2.3H142V104h-2.2v-0.6h2.2v-2.3L142.6,101.2L142.6,101.2z"/>
<path class="st0" d="M160,101.2v2.3h2.2v0.6H160v2.3h-0.6V104h-2.1v-0.6h2.2v-2.3L160,101.2L160,101.2z"/>
<path class="st0" d="M177.5,101.2v2.3h2.2v0.6h-2.2v2.3h-0.6V104h-2.2v-0.6h2.2v-2.3L177.5,101.2L177.5,101.2z"/>
<path class="st0" d="M194.9,101.2v2.3h2.2v0.6h-2.2v2.3h-0.6V104h-2.2v-0.6h2.2v-2.3L194.9,101.2L194.9,101.2z"/>
<path class="st0" d="M212.4,101.2v2.3h2.2v0.6h-2.2v2.3h-0.6V104h-2.2v-0.6h2.2v-2.3L212.4,101.2L212.4,101.2z"/>
<path class="st0" d="M229.9,101.2v2.3h2.2v0.6h-2.2v2.3h-0.6V104h-2.2v-0.6h2.2v-2.3L229.9,101.2L229.9,101.2z"/>
<path class="st0" d="M247.4,101.2v2.3h2.2v0.6h-2.2v2.3h-0.6V104h-2.2v-0.6h2.2v-2.3L247.4,101.2L247.4,101.2z"/>
<path class="st0" d="M264.9,101.2v2.3h2.2v0.6h-2.2v2.3h-0.6V104H262v-0.6h2.2v-2.3L264.9,101.2L264.9,101.2z"/>
<path class="st0" d="M282.3,101.2v2.3h2.2v0.6h-2.2v2.3h-0.6V104h-2.2v-0.6h2.2v-2.3L282.3,101.2L282.3,101.2z"/>
<path class="st0" d="M299.8,101.2v2.3h2.2v0.6h-2.2v2.3h-0.6V104H297v-0.6h2.2v-2.3L299.8,101.2L299.8,101.2z"/>
<path class="st0" d="M2.8,121.4v2.3H5v0.6H2.8v2.3H2.2v-2.3H0v-0.6h2.2v-2.3H2.8z"/>
<path class="st0" d="M20.3,121.4v2.3h2.2v0.6h-2.2v2.3h-0.6v-2.3h-2.2v-0.6h2.2v-2.3H20.3z"/>
<path class="st0" d="M37.8,121.4v2.3H40v0.6h-2.2v2.3h-0.6v-2.3H35v-0.6h2.2v-2.3H37.8z"/>
<path class="st0" d="M55.2,121.4v2.3h2.2v0.6h-2.2v2.3h-0.6v-2.3h-2.2v-0.6h2.2v-2.3H55.2z"/>
<path class="st0" d="M72.7,121.4v2.3h2.2v0.6h-2.2v2.3h-0.6v-2.3h-2.2v-0.6h2.2v-2.3H72.7z"/>
<path class="st0" d="M90.1,121.4v2.3h2.2v0.6h-2.2v2.3h-0.6v-2.3h-2.2v-0.6h2.2v-2.3H90.1z"/>
<path class="st0" d="M107.6,121.4v2.3h2.2v0.6h-2.2v2.3H107v-2.3h-2.2v-0.6h2.2v-2.3H107.6z"/>
<path class="st0" d="M125.1,121.4v2.3h2.2v0.6h-2.2v2.3h-0.6v-2.3h-2.2v-0.6h2.2v-2.3H125.1z"/>
<path class="st0" d="M142.6,121.4v2.3h2.2v0.6h-2.2v2.3H142v-2.3h-2.2v-0.6h2.2v-2.3H142.6z"/>
<path class="st0" d="M160,121.4v2.3h2.2v0.6H160v2.3h-0.6v-2.3h-2.1v-0.6h2.2v-2.3H160z"/>
<path class="st0" d="M177.5,121.4v2.3h2.2v0.6h-2.2v2.3h-0.6v-2.3h-2.2v-0.6h2.2v-2.3H177.5z"/>
<path class="st0" d="M194.9,121.4v2.3h2.2v0.6h-2.2v2.3h-0.6v-2.3h-2.2v-0.6h2.2v-2.3H194.9z"/>
<path class="st0" d="M212.4,121.4v2.3h2.2v0.6h-2.2v2.3h-0.6v-2.3h-2.2v-0.6h2.2v-2.3H212.4z"/>
<path class="st0" d="M229.9,121.4v2.3h2.2v0.6h-2.2v2.3h-0.6v-2.3h-2.2v-0.6h2.2v-2.3H229.9z"/>
<path class="st0" d="M247.4,121.4v2.3h2.2v0.6h-2.2v2.3h-0.6v-2.3h-2.2v-0.6h2.2v-2.3H247.4z"/>
<path class="st0" d="M264.9,121.4v2.3h2.2v0.6h-2.2v2.3h-0.6v-2.3H262v-0.6h2.2v-2.3H264.9z"/>
<path class="st0" d="M282.3,121.4v2.3h2.2v0.6h-2.2v2.3h-0.6v-2.3h-2.2v-0.6h2.2v-2.3H282.3z"/>
<path class="st0" d="M299.8,121.4v2.3h2.2v0.6h-2.2v2.3h-0.6v-2.3H297v-0.6h2.2v-2.3H299.8z"/>
<path class="st0" d="M2.8,141.6v2.3H5v0.6H2.8v2.3H2.2v-2.3H0v-0.6h2.2v-2.3H2.8z"/>
<path class="st0" d="M20.3,141.6v2.3h2.2v0.6h-2.2v2.3h-0.6v-2.3h-2.2v-0.6h2.2v-2.3H20.3z"/>
<path class="st0" d="M37.8,141.6v2.3H40v0.6h-2.2v2.3h-0.6v-2.3H35v-0.6h2.2v-2.3H37.8z"/>
<path class="st0" d="M55.2,141.6v2.3h2.2v0.6h-2.2v2.3h-0.6v-2.3h-2.2v-0.6h2.2v-2.3H55.2z"/>
<path class="st0" d="M72.7,141.6v2.3h2.2v0.6h-2.2v2.3h-0.6v-2.3h-2.2v-0.6h2.2v-2.3H72.7z"/>
<path class="st0" d="M90.1,141.6v2.3h2.2v0.6h-2.2v2.3h-0.6v-2.3h-2.2v-0.6h2.2v-2.3H90.1z"/>
<path class="st0" d="M107.6,141.6v2.3h2.2v0.6h-2.2v2.3H107v-2.3h-2.2v-0.6h2.2v-2.3H107.6z"/>
<path class="st0" d="M125.1,141.6v2.3h2.2v0.6h-2.2v2.3h-0.6v-2.3h-2.2v-0.6h2.2v-2.3H125.1z"/>
<path class="st0" d="M142.6,141.6v2.3h2.2v0.6h-2.2v2.3H142v-2.3h-2.2v-0.6h2.2v-2.3H142.6z"/>
<path class="st0" d="M160,141.6v2.3h2.2v0.6H160v2.3h-0.6v-2.3h-2.1v-0.6h2.2v-2.3H160z"/>
<path class="st0" d="M177.5,141.6v2.3h2.2v0.6h-2.2v2.3h-0.6v-2.3h-2.2v-0.6h2.2v-2.3H177.5z"/>
<path class="st0" d="M194.9,141.6v2.3h2.2v0.6h-2.2v2.3h-0.6v-2.3h-2.2v-0.6h2.2v-2.3H194.9z"/>
<path class="st0" d="M212.4,141.6v2.3h2.2v0.6h-2.2v2.3h-0.6v-2.3h-2.2v-0.6h2.2v-2.3H212.4z"/>
<path class="st0" d="M229.9,141.6v2.3h2.2v0.6h-2.2v2.3h-0.6v-2.3h-2.2v-0.6h2.2v-2.3H229.9z"/>
<path class="st0" d="M247.4,141.6v2.3h2.2v0.6h-2.2v2.3h-0.6v-2.3h-2.2v-0.6h2.2v-2.3H247.4z"/>
<path class="st0" d="M264.9,141.6v2.3h2.2v0.6h-2.2v2.3h-0.6v-2.3H262v-0.6h2.2v-2.3H264.9z"/>
<path class="st0" d="M282.3,141.6v2.3h2.2v0.6h-2.2v2.3h-0.6v-2.3h-2.2v-0.6h2.2v-2.3H282.3z"/>
<path class="st0" d="M299.8,141.6v2.3h2.2v0.6h-2.2v2.3h-0.6v-2.3H297v-0.6h2.2v-2.3H299.8z"/>
<path class="st0" d="M2.8,161.9v2.3H5v0.6H2.8v2.3H2.2v-2.3H0v-0.6h2.2v-2.3H2.8z"/>
<path class="st0" d="M20.3,161.9v2.3h2.2v0.6h-2.2v2.3h-0.6v-2.3h-2.2v-0.6h2.2v-2.3H20.3z"/>
<path class="st0" d="M37.8,161.9v2.3H40v0.6h-2.2v2.3h-0.6v-2.3H35v-0.6h2.2v-2.3H37.8z"/>
<path class="st0" d="M55.2,161.9v2.3h2.2v0.6h-2.2v2.3h-0.6v-2.3h-2.2v-0.6h2.2v-2.3H55.2z"/>
<path class="st0" d="M72.7,161.9v2.3h2.2v0.6h-2.2v2.3h-0.6v-2.3h-2.2v-0.6h2.2v-2.3H72.7z"/>
<path class="st0" d="M90.1,161.9v2.3h2.2v0.6h-2.2v2.3h-0.6v-2.3h-2.2v-0.6h2.2v-2.3H90.1z"/>
<path class="st0" d="M107.6,161.9v2.3h2.2v0.6h-2.2v2.3H107v-2.3h-2.2v-0.6h2.2v-2.3H107.6z"/>
<path class="st0" d="M125.1,161.9v2.3h2.2v0.6h-2.2v2.3h-0.6v-2.3h-2.2v-0.6h2.2v-2.3H125.1z"/>
<path class="st0" d="M142.6,161.9v2.3h2.2v0.6h-2.2v2.3H142v-2.3h-2.2v-0.6h2.2v-2.3H142.6z"/>
<path class="st0" d="M160,161.9v2.3h2.2v0.6H160v2.3h-0.6v-2.3h-2.1v-0.6h2.2v-2.3H160z"/>
<path class="st0" d="M177.5,161.9v2.3h2.2v0.6h-2.2v2.3h-0.6v-2.3h-2.2v-0.6h2.2v-2.3H177.5z"/>
<path class="st0" d="M194.9,161.9v2.3h2.2v0.6h-2.2v2.3h-0.6v-2.3h-2.2v-0.6h2.2v-2.3H194.9z"/>
<path class="st0" d="M212.4,161.9v2.3h2.2v0.6h-2.2v2.3h-0.6v-2.3h-2.2v-0.6h2.2v-2.3H212.4z"/>
<path class="st0" d="M229.9,161.9v2.3h2.2v0.6h-2.2v2.3h-0.6v-2.3h-2.2v-0.6h2.2v-2.3H229.9z"/>
<path class="st0" d="M247.4,161.9v2.3h2.2v0.6h-2.2v2.3h-0.6v-2.3h-2.2v-0.6h2.2v-2.3H247.4z"/>
<path class="st0" d="M264.9,161.9v2.3h2.2v0.6h-2.2v2.3h-0.6v-2.3H262v-0.6h2.2v-2.3H264.9z"/>
<path class="st0" d="M282.3,161.9v2.3h2.2v0.6h-2.2v2.3h-0.6v-2.3h-2.2v-0.6h2.2v-2.3H282.3z"/>
<path class="st0" d="M299.8,161.9v2.3h2.2v0.6h-2.2v2.3h-0.6v-2.3H297v-0.6h2.2v-2.3H299.8z"/>
<path class="st0" d="M2.8,182.1v2.3H5v0.6H2.8v2.3H2.2V185H0v-0.6h2.2v-2.3H2.8z"/>
<path class="st0" d="M20.3,182.1v2.3h2.2v0.6h-2.2v2.3h-0.6V185h-2.2v-0.6h2.2v-2.3H20.3z"/>
<path class="st0" d="M37.8,182.1v2.3H40v0.6h-2.2v2.3h-0.6V185H35v-0.6h2.2v-2.3H37.8z"/>
<path class="st0" d="M55.2,182.1v2.3h2.2v0.6h-2.2v2.3h-0.6V185h-2.2v-0.6h2.2v-2.3H55.2z"/>
<path class="st0" d="M72.7,182.1v2.3h2.2v0.6h-2.2v2.3h-0.6V185h-2.2v-0.6h2.2v-2.3H72.7z"/>
<path class="st0" d="M90.1,182.1v2.3h2.2v0.6h-2.2v2.3h-0.6V185h-2.2v-0.6h2.2v-2.3H90.1z"/>
<path class="st0" d="M107.6,182.1v2.3h2.2v0.6h-2.2v2.3H107V185h-2.2v-0.6h2.2v-2.3H107.6z"/>
<path class="st0" d="M125.1,182.1v2.3h2.2v0.6h-2.2v2.3h-0.6V185h-2.2v-0.6h2.2v-2.3H125.1z"/>
<path class="st0" d="M142.6,182.1v2.3h2.2v0.6h-2.2v2.3H142V185h-2.2v-0.6h2.2v-2.3H142.6z"/>
<path class="st0" d="M160,182.1v2.3h2.2v0.6H160v2.3h-0.6V185h-2.1v-0.6h2.2v-2.3H160z"/>
<path class="st0" d="M177.5,182.1v2.3h2.2v0.6h-2.2v2.3h-0.6V185h-2.2v-0.6h2.2v-2.3H177.5z"/>
<path class="st0" d="M194.9,182.1v2.3h2.2v0.6h-2.2v2.3h-0.6V185h-2.2v-0.6h2.2v-2.3H194.9z"/>
<path class="st0" d="M212.4,182.1v2.3h2.2v0.6h-2.2v2.3h-0.6V185h-2.2v-0.6h2.2v-2.3H212.4z"/>
<path class="st0" d="M229.9,182.1v2.3h2.2v0.6h-2.2v2.3h-0.6V185h-2.2v-0.6h2.2v-2.3H229.9z"/>
<path class="st0" d="M247.4,182.1v2.3h2.2v0.6h-2.2v2.3h-0.6V185h-2.2v-0.6h2.2v-2.3H247.4z"/>
<path class="st0" d="M264.9,182.1v2.3h2.2v0.6h-2.2v2.3h-0.6V185H262v-0.6h2.2v-2.3H264.9z"/>
<path class="st0" d="M282.3,182.1v2.3h2.2v0.6h-2.2v2.3h-0.6V185h-2.2v-0.6h2.2v-2.3H282.3z"/>
<path class="st0" d="M299.8,182.1v2.3h2.2v0.6h-2.2v2.3h-0.6V185H297v-0.6h2.2v-2.3H299.8z"/>
<path class="st0" d="M2.8,202.4v2.3H5v0.6H2.8v2.3H2.2v-2.3H0v-0.6h2.2v-2.3H2.8z"/>
<path class="st0" d="M20.3,202.4v2.3h2.2v0.6h-2.2v2.3h-0.6v-2.3h-2.2v-0.6h2.2v-2.3H20.3z"/>
<path class="st0" d="M37.8,202.4v2.3H40v0.6h-2.2v2.3h-0.6v-2.3H35v-0.6h2.2v-2.3H37.8z"/>
<path class="st0" d="M55.2,202.4v2.3h2.2v0.6h-2.2v2.3h-0.6v-2.3h-2.2v-0.6h2.2v-2.3H55.2z"/>
<path class="st0" d="M72.7,202.4v2.3h2.2v0.6h-2.2v2.3h-0.6v-2.3h-2.2v-0.6h2.2v-2.3H72.7z"/>
<path class="st0" d="M90.1,202.4v2.3h2.2v0.6h-2.2v2.3h-0.6v-2.3h-2.2v-0.6h2.2v-2.3H90.1z"/>
<path class="st0" d="M107.6,202.4v2.3h2.2v0.6h-2.2v2.3H107v-2.3h-2.2v-0.6h2.2v-2.3H107.6z"/>
<path class="st0" d="M125.1,202.4v2.3h2.2v0.6h-2.2v2.3h-0.6v-2.3h-2.2v-0.6h2.2v-2.3H125.1z"/>
<path class="st0" d="M142.6,202.4v2.3h2.2v0.6h-2.2v2.3H142v-2.3h-2.2v-0.6h2.2v-2.3H142.6z"/>
<path class="st0" d="M160,202.4v2.3h2.2v0.6H160v2.3h-0.6v-2.3h-2.1v-0.6h2.2v-2.3H160z"/>
<path class="st0" d="M177.5,202.4v2.3h2.2v0.6h-2.2v2.3h-0.6v-2.3h-2.2v-0.6h2.2v-2.3H177.5z"/>
<path class="st0" d="M194.9,202.4v2.3h2.2v0.6h-2.2v2.3h-0.6v-2.3h-2.2v-0.6h2.2v-2.3H194.9z"/>
<path class="st0" d="M212.4,202.4v2.3h2.2v0.6h-2.2v2.3h-0.6v-2.3h-2.2v-0.6h2.2v-2.3H212.4z"/>
<path class="st0" d="M229.9,202.4v2.3h2.2v0.6h-2.2v2.3h-0.6v-2.3h-2.2v-0.6h2.2v-2.3H229.9z"/>
<path class="st0" d="M247.4,202.4v2.3h2.2v0.6h-2.2v2.3h-0.6v-2.3h-2.2v-0.6h2.2v-2.3H247.4z"/>
<path class="st0" d="M264.9,202.4v2.3h2.2v0.6h-2.2v2.3h-0.6v-2.3H262v-0.6h2.2v-2.3H264.9z"/>
<path class="st0" d="M282.3,202.4v2.3h2.2v0.6h-2.2v2.3h-0.6v-2.3h-2.2v-0.6h2.2v-2.3H282.3z"/>
<path class="st0" d="M299.8,202.4v2.3h2.2v0.6h-2.2v2.3h-0.6v-2.3H297v-0.6h2.2v-2.3H299.8z"/>
<path class="st0" d="M2.8,222.6v2.3H5v0.6H2.8v2.3H2.2v-2.3H0v-0.6h2.2v-2.3H2.8z"/>
<path class="st0" d="M20.3,222.6v2.3h2.2v0.6h-2.2v2.3h-0.6v-2.3h-2.2v-0.6h2.2v-2.3H20.3z"/>
<path class="st0" d="M37.8,222.6v2.3H40v0.6h-2.2v2.3h-0.6v-2.3H35v-0.6h2.2v-2.3H37.8z"/>
<path class="st0" d="M55.2,222.6v2.3h2.2v0.6h-2.2v2.3h-0.6v-2.3h-2.2v-0.6h2.2v-2.3H55.2z"/>
<path class="st0" d="M72.7,222.6v2.3h2.2v0.6h-2.2v2.3h-0.6v-2.3h-2.2v-0.6h2.2v-2.3H72.7z"/>
<path class="st0" d="M90.1,222.6v2.3h2.2v0.6h-2.2v2.3h-0.6v-2.3h-2.2v-0.6h2.2v-2.3H90.1z"/>
<path class="st0" d="M107.6,222.6v2.3h2.2v0.6h-2.2v2.3H107v-2.3h-2.2v-0.6h2.2v-2.3H107.6z"/>
<path class="st0" d="M125.1,222.6v2.3h2.2v0.6h-2.2v2.3h-0.6v-2.3h-2.2v-0.6h2.2v-2.3H125.1z"/>
<path class="st0" d="M142.6,222.6v2.3h2.2v0.6h-2.2v2.3H142v-2.3h-2.2v-0.6h2.2v-2.3H142.6z"/>
<path class="st0" d="M160,222.6v2.3h2.2v0.6H160v2.3h-0.6v-2.3h-2.1v-0.6h2.2v-2.3H160z"/>
<path class="st0" d="M177.5,222.6v2.3h2.2v0.6h-2.2v2.3h-0.6v-2.3h-2.2v-0.6h2.2v-2.3H177.5z"/>
<path class="st0" d="M194.9,222.6v2.3h2.2v0.6h-2.2v2.3h-0.6v-2.3h-2.2v-0.6h2.2v-2.3H194.9z"/>
<path class="st0" d="M212.4,222.6v2.3h2.2v0.6h-2.2v2.3h-0.6v-2.3h-2.2v-0.6h2.2v-2.3H212.4z"/>
<path class="st0" d="M229.9,222.6v2.3h2.2v0.6h-2.2v2.3h-0.6v-2.3h-2.2v-0.6h2.2v-2.3H229.9z"/>
<path class="st0" d="M247.4,222.6v2.3h2.2v0.6h-2.2v2.3h-0.6v-2.3h-2.2v-0.6h2.2v-2.3H247.4z"/>
<path class="st0" d="M264.9,222.6v2.3h2.2v0.6h-2.2v2.3h-0.6v-2.3H262v-0.6h2.2v-2.3H264.9z"/>
<path class="st0" d="M282.3,222.6v2.3h2.2v0.6h-2.2v2.3h-0.6v-2.3h-2.2v-0.6h2.2v-2.3H282.3z"/>
<path class="st0" d="M299.8,222.6v2.3h2.2v0.6h-2.2v2.3h-0.6v-2.3H297v-0.6h2.2v-2.3H299.8z"/>
<path class="st0" d="M2.8,242.8v2.3H5v0.6H2.8v2.3H2.2v-2.3H0v-0.6h2.2v-2.3H2.8z"/>
<path class="st0" d="M20.3,242.8v2.3h2.2v0.6h-2.2v2.3h-0.6v-2.3h-2.2v-0.6h2.2v-2.3H20.3z"/>
<path class="st0" d="M37.8,242.8v2.3H40v0.6h-2.2v2.3h-0.6v-2.3H35v-0.6h2.2v-2.3H37.8z"/>
<path class="st0" d="M55.2,242.8v2.3h2.2v0.6h-2.2v2.3h-0.6v-2.3h-2.2v-0.6h2.2v-2.3H55.2z"/>
<path class="st0" d="M72.7,242.8v2.3h2.2v0.6h-2.2v2.3h-0.6v-2.3h-2.2v-0.6h2.2v-2.3H72.7z"/>
<path class="st0" d="M90.1,242.8v2.3h2.2v0.6h-2.2v2.3h-0.6v-2.3h-2.2v-0.6h2.2v-2.3H90.1z"/>
<path class="st0" d="M107.6,242.8v2.3h2.2v0.6h-2.2v2.3H107v-2.3h-2.2v-0.6h2.2v-2.3H107.6z"/>
<path class="st0" d="M125.1,242.8v2.3h2.2v0.6h-2.2v2.3h-0.6v-2.3h-2.2v-0.6h2.2v-2.3H125.1z"/>
<path class="st0" d="M142.6,242.8v2.3h2.2v0.6h-2.2v2.3H142v-2.3h-2.2v-0.6h2.2v-2.3H142.6z"/>
<path class="st0" d="M160,242.8v2.3h2.2v0.6H160v2.3h-0.6v-2.3h-2.1v-0.6h2.2v-2.3H160z"/>
<path class="st0" d="M177.5,242.8v2.3h2.2v0.6h-2.2v2.3h-0.6v-2.3h-2.2v-0.6h2.2v-2.3H177.5z"/>
<path class="st0" d="M194.9,242.8v2.3h2.2v0.6h-2.2v2.3h-0.6v-2.3h-2.2v-0.6h2.2v-2.3H194.9z"/>
<path class="st0" d="M212.4,242.8v2.3h2.2v0.6h-2.2v2.3h-0.6v-2.3h-2.2v-0.6h2.2v-2.3H212.4z"/>
<path class="st0" d="M229.9,242.8v2.3h2.2v0.6h-2.2v2.3h-0.6v-2.3h-2.2v-0.6h2.2v-2.3H229.9z"/>
<path class="st0" d="M247.4,242.8v2.3h2.2v0.6h-2.2v2.3h-0.6v-2.3h-2.2v-0.6h2.2v-2.3H247.4z"/>
<path class="st0" d="M264.9,242.8v2.3h2.2v0.6h-2.2v2.3h-0.6v-2.3H262v-0.6h2.2v-2.3H264.9z"/>
<path class="st0" d="M282.3,242.8v2.3h2.2v0.6h-2.2v2.3h-0.6v-2.3h-2.2v-0.6h2.2v-2.3H282.3z"/>
<path class="st0" d="M299.8,242.8v2.3h2.2v0.6h-2.2v2.3h-0.6v-2.3H297v-0.6h2.2v-2.3H299.8z"/>
</svg>
