<svg xmlns="http://www.w3.org/2000/svg" viewBox="0 8.550000190734863 363.3500061035156 36.75" data-asc="0.896"><g fill="#000000"><g fill="#000000" transform="translate(0, 0)"><path d="M15.25 44.80L1.35 10.85L1.25 10.85Q1.30 11.65 1.30 12.33Q1.30 13.00 1.30 13.63Q1.30 14.25 1.30 15.00L1.30 44.80L0 44.80L0 9.10L2.10 9.10L15.70 42.40L15.85 42.40L29.50 9.10L31.50 9.10L31.50 44.80L30.20 44.80L30.20 14.70Q30.20 14.20 30.20 13.63Q30.20 13.05 30.23 12.38Q30.25 11.70 30.25 10.90L30.15 10.90L16.25 44.80L15.25 44.80ZM61.10 44.80L41.85 44.80L41.85 9.10L61.10 9.10L61.10 10.35L43.15 10.35L43.15 25.35L60.10 25.35L60.10 26.60L43.15 26.60L43.15 43.55L61.10 43.55L61.10 44.80ZM88.60 44.80L69.35 44.80L69.35 9.10L88.60 9.10L88.60 10.35L70.65 10.35L70.65 25.35L87.60 25.35L87.60 26.60L70.65 26.60L70.65 43.55L88.60 43.55L88.60 44.80ZM104.95 44.80L103.65 44.80L103.65 10.35L91.80 10.35L91.80 9.10L116.85 9.10L116.85 10.35L104.95 10.35L104.95 44.80ZM164.45 26.90Q164.45 30.95 163.47 34.30Q162.50 37.65 160.55 40.13Q158.60 42.60 155.65 43.95Q152.70 45.30 148.75 45.30Q144.85 45.30 141.92 43.95Q139 42.60 137.02 40.13Q135.05 37.65 134.07 34.28Q133.10 30.90 133.10 26.85Q133.10 21.45 134.95 17.33Q136.80 13.20 140.38 10.88Q143.95 8.55 149.05 8.55Q154 8.55 157.42 10.73Q160.85 12.90 162.65 17.00Q164.45 21.10 164.45 26.90M134.45 26.85Q134.45 31.85 136 35.73Q137.55 39.60 140.75 41.83Q143.95 44.05 148.80 44.05Q153.70 44.05 156.88 41.88Q160.05 39.70 161.57 35.83Q163.10 31.95 163.10 26.90Q163.10 18.75 159.45 14.28Q155.80 9.80 149.05 9.80Q144.15 9.80 140.90 12Q137.65 14.20 136.05 18.05Q134.45 21.90 134.45 26.85ZM198.55 32.20Q198.55 36.65 196.87 39.55Q195.20 42.45 192.25 43.88Q189.30 45.30 185.40 45.30Q179.20 45.30 175.80 41.95Q172.40 38.60 172.40 32.10L172.40 9.10L173.70 9.10L173.70 32Q173.70 38 176.77 41.03Q179.85 44.05 185.45 44.05Q189.00 44.05 191.65 42.78Q194.30 41.50 195.77 38.95Q197.25 36.40 197.25 32.60L197.25 9.10L198.55 9.10L198.55 32.20ZM216.35 9.10Q220.50 9.10 223.32 9.93Q226.15 10.75 227.60 12.80Q229.05 14.85 229.05 18.55Q229.05 21.20 228.10 23.18Q227.15 25.15 225.35 26.45Q223.55 27.75 221.00 28.45L230.80 44.80L229.15 44.80L219.60 28.80L209.70 28.80L209.70 44.80L208.40 44.80L208.40 9.10L216.35 9.10M216.10 10.35L209.70 10.35L209.70 27.55L217.85 27.55Q222.20 27.55 224.95 25.20Q227.70 22.85 227.70 18.60Q227.70 15.40 226.42 13.60Q225.15 11.80 222.57 11.08Q220.00 10.35 216.10 10.35ZM258.35 44.80L257.05 44.80L257.05 10.35L245.20 10.35L245.20 9.10L270.25 9.10L270.25 10.35L258.35 10.35L258.35 44.80ZM294.75 44.80L275.50 44.80L275.50 9.10L294.75 9.10L294.75 10.35L276.80 10.35L276.80 25.35L293.75 25.35L293.75 26.60L276.80 26.60L276.80 43.55L294.75 43.55L294.75 44.80ZM325.30 44.80L320.10 31.25L304.60 31.25L299.25 44.80L297.85 44.80L311.95 9L313.20 9L326.70 44.80L325.30 44.80M314.10 15.10Q313.90 14.50 313.65 13.85Q313.40 13.20 313.12 12.40Q312.85 11.60 312.50 10.70Q312.25 11.45 311.97 12.23Q311.70 13.00 311.40 13.73Q311.10 14.45 310.85 15.15L305.05 30.00L319.60 30.00L314.10 15.10ZM347.10 44.80L333.20 10.85L333.10 10.85Q333.15 11.65 333.15 12.33Q333.15 13.00 333.15 13.63Q333.15 14.25 333.15 15.00L333.15 44.80L331.85 44.80L331.85 9.10L333.95 9.10L347.55 42.40L347.70 42.40L361.35 9.10L363.35 9.10L363.35 44.80L362.05 44.80L362.05 14.70Q362.05 14.20 362.05 13.63Q362.05 13.05 362.07 12.38Q362.10 11.70 362.10 10.90L362 10.90L348.10 44.80L347.10 44.80Z"/></g><g fill="#000000" transform="translate(0, 70.4)"><path d=""/></g></g></svg>