<?xml version="1.0" standalone="no"?>
<!DOCTYPE svg PUBLIC "-//W3C//DTD SVG 20010904//EN"
 "http://www.w3.org/TR/2001/REC-SVG-20010904/DTD/svg10.dtd">
<svg version="1.0" xmlns="http://www.w3.org/2000/svg"
 width="640.000000pt" height="1280.000000pt" viewBox="0 0 640.000000 1280.000000"
 preserveAspectRatio="xMidYMid meet">
<metadata>
Created by potrace 1.15, written by Peter Selinger 2001-2017
</metadata>
<g transform="translate(0.000000,1280.000000) scale(0.100000,-0.100000)"
fill="#000000" stroke="none">
<path d="M3151 12789 c-221 -20 -480 -78 -687 -154 -236 -87 -524 -251 -724
-412 -416 -335 -729 -836 -839 -1344 -53 -248 -51 -121 -51 -3137 0 -1880 3
-2825 10 -2890 111 -1021 879 -1864 1920 -2106 325 -76 717 -87 1055 -30 423
71 855 266 1194 540 440 355 753 880 851 1429 39 219 41 355 37 3180 -3 2501
-5 2739 -20 2832 -48 290 -114 499 -233 734 -358 706 -1047 1200 -1859 1333
-204 34 -449 43 -654 25z"/>
<path d="M2769 1686 c-2 -2 -60 -6 -129 -10 -135 -7 -204 -12 -290 -21 -30 -3
-80 -8 -110 -11 -98 -9 -306 -39 -475 -70 -149 -27 -194 -36 -285 -59 -36 -9
-69 -18 -75 -19 -5 -2 -30 -9 -55 -16 -25 -8 -47 -14 -50 -15 -3 0 -37 -13
-77 -28 -204 -80 -304 -192 -273 -309 17 -62 110 -150 203 -193 74 -34 155
-64 193 -71 12 -2 40 -11 64 -19 40 -14 295 -70 370 -81 19 -3 42 -7 50 -10 9
-2 49 -8 90 -14 41 -5 86 -12 100 -14 25 -4 103 -14 170 -21 19 -2 58 -6 85
-10 28 -3 107 -9 175 -15 69 -5 163 -13 210 -17 110 -10 970 -10 1080 0 47 4
141 12 210 17 68 6 147 12 175 15 27 4 66 8 85 10 67 7 145 17 170 21 14 2 59
9 100 14 41 6 81 12 90 14 8 3 31 7 50 10 75 11 330 67 370 81 24 8 52 17 64
19 38 7 119 37 193 71 93 43 186 131 203 193 31 117 -69 229 -273 309 -40 15
-74 28 -77 28 -3 1 -25 7 -50 15 -25 7 -49 14 -55 16 -5 1 -39 10 -75 19 -190
48 -583 115 -775 130 -38 3 -77 8 -85 10 -8 2 -66 7 -128 10 -63 4 -124 9
-135 12 -25 6 -1021 15 -1028 9z"/>
</g>
</svg>
