<svg xmlns="http://www.w3.org/2000/svg" xmlns:xlink="http://www.w3.org/1999/xlink" width="240" zoomAndPan="magnify" viewBox="0 0 180 42" height="56" preserveAspectRatio="xMidYMid meet" version="1.0"><defs><g/><clipPath id="7261bcd843"><path d="M 9.582031 4.101562 L 170.484375 4.101562 L 170.484375 39.039062 L 9.582031 39.039062 Z M 9.582031 4.101562 " clip-rule="nonzero"/></clipPath><clipPath id="ce134fd679"><path d="M 154.09375 4.101562 C 163.109375 4.101562 170.417969 11.921875 170.417969 21.570312 C 170.417969 31.21875 163.109375 39.039062 154.09375 39.039062 L 25.90625 39.039062 C 16.890625 39.039062 9.582031 31.21875 9.582031 21.570312 C 9.582031 11.921875 16.890625 4.101562 25.90625 4.101562 Z M 154.09375 4.101562 " clip-rule="nonzero"/></clipPath></defs><g clip-path="url(#7261bcd843)"><g clip-path="url(#ce134fd679)"><path fill="#b984fd" d="M 9.582031 4.101562 L 170.484375 4.101562 L 170.484375 39.039062 L 9.582031 39.039062 Z M 9.582031 4.101562 " fill-opacity="1" fill-rule="nonzero"/></g></g><g fill="#343539" fill-opacity="1"><g transform="translate(47.68206, 24.906978)"><g><path d="M 2.46875 0 L 1.125 0 L 1.125 -9.9375 L 2.46875 -9.9375 Z M 2.46875 0 "/></g></g></g><g fill="#343539" fill-opacity="1"><g transform="translate(51.249793, 24.906978)"><g><path d="M 6.8125 0 L 5.59375 0 L 5.59375 -4.453125 C 5.59375 -5.140625 5.472656 -5.628906 5.234375 -5.921875 C 4.992188 -6.210938 4.597656 -6.359375 4.046875 -6.359375 C 3.492188 -6.359375 3.035156 -6.148438 2.671875 -5.734375 C 2.304688 -5.316406 2.125 -4.722656 2.125 -3.953125 L 2.125 0 L 0.90625 0 L 0.90625 -7.234375 L 2.0625 -7.234375 L 2.0625 -6.21875 L 2.09375 -6.21875 C 2.664062 -7.039062 3.394531 -7.453125 4.28125 -7.453125 C 5.101562 -7.453125 5.726562 -7.234375 6.15625 -6.796875 C 6.59375 -6.359375 6.8125 -5.734375 6.8125 -4.921875 Z M 6.8125 0 "/></g></g></g><g fill="#343539" fill-opacity="1"><g transform="translate(58.885283, 24.906978)"><g><path d="M 5 -5.171875 C 4.976562 -5.609375 4.820312 -5.921875 4.53125 -6.109375 C 4.238281 -6.296875 3.820312 -6.390625 3.28125 -6.390625 C 2.882812 -6.390625 2.546875 -6.300781 2.265625 -6.125 C 1.984375 -5.957031 1.84375 -5.707031 1.84375 -5.375 C 1.84375 -5.113281 1.925781 -4.921875 2.09375 -4.796875 C 2.257812 -4.671875 2.617188 -4.539062 3.171875 -4.40625 L 4.375 -4.09375 C 5.101562 -3.90625 5.625 -3.664062 5.9375 -3.375 C 6.25 -3.09375 6.40625 -2.695312 6.40625 -2.1875 C 6.40625 -1.476562 6.144531 -0.898438 5.625 -0.453125 C 5.101562 -0.015625 4.410156 0.203125 3.546875 0.203125 C 2.523438 0.203125 1.753906 -0.00390625 1.234375 -0.421875 C 0.710938 -0.835938 0.453125 -1.472656 0.453125 -2.328125 L 1.625 -2.328125 C 1.644531 -1.828125 1.8125 -1.453125 2.125 -1.203125 C 2.4375 -0.960938 2.90625 -0.84375 3.53125 -0.84375 C 4.039062 -0.84375 4.441406 -0.941406 4.734375 -1.140625 C 5.035156 -1.347656 5.1875 -1.632812 5.1875 -2 C 5.1875 -2.25 5.085938 -2.453125 4.890625 -2.609375 C 4.703125 -2.765625 4.320312 -2.90625 3.75 -3.03125 L 2.34375 -3.375 C 1.769531 -3.519531 1.34375 -3.734375 1.0625 -4.015625 C 0.789062 -4.304688 0.65625 -4.679688 0.65625 -5.140625 C 0.65625 -5.847656 0.910156 -6.410156 1.421875 -6.828125 C 1.929688 -7.242188 2.597656 -7.453125 3.421875 -7.453125 C 4.296875 -7.453125 4.960938 -7.238281 5.421875 -6.8125 C 5.890625 -6.382812 6.140625 -5.835938 6.171875 -5.171875 Z M 5 -5.171875 "/></g></g></g><g fill="#343539" fill-opacity="1"><g transform="translate(65.804523, 24.906978)"><g><path d="M 2.375 -6.234375 L 2.375 -1.515625 C 2.375 -1.335938 2.425781 -1.195312 2.53125 -1.09375 C 2.632812 -1 2.816406 -0.953125 3.078125 -0.953125 L 3.546875 -0.953125 L 3.546875 0 C 3.097656 0.0625 2.789062 0.09375 2.625 0.09375 C 2.113281 0.09375 1.738281 -0.0234375 1.5 -0.265625 C 1.269531 -0.515625 1.15625 -0.910156 1.15625 -1.453125 L 1.15625 -6.234375 L 0.1875 -6.234375 L 0.1875 -7.234375 L 1.15625 -7.234375 L 1.15625 -9.265625 L 2.375 -9.265625 L 2.375 -7.234375 L 3.546875 -7.234375 L 3.546875 -6.234375 Z M 2.375 -6.234375 "/></g></g></g><g fill="#343539" fill-opacity="1"><g transform="translate(69.635788, 24.906978)"><g><path d="M 5.3125 -3.703125 C 5.21875 -3.609375 5.039062 -3.53125 4.78125 -3.46875 C 4.519531 -3.40625 4.03125 -3.328125 3.3125 -3.234375 C 2.78125 -3.171875 2.382812 -3.039062 2.125 -2.84375 C 1.875 -2.644531 1.75 -2.382812 1.75 -2.0625 C 1.75 -1.664062 1.851562 -1.351562 2.0625 -1.125 C 2.28125 -0.90625 2.625 -0.796875 3.09375 -0.796875 C 3.675781 -0.796875 4.191406 -0.960938 4.640625 -1.296875 C 5.085938 -1.628906 5.3125 -2.035156 5.3125 -2.515625 Z M 0.859375 -5.03125 C 0.890625 -5.851562 1.15625 -6.460938 1.65625 -6.859375 C 2.15625 -7.253906 2.882812 -7.453125 3.84375 -7.453125 C 4.613281 -7.453125 5.253906 -7.273438 5.765625 -6.921875 C 6.285156 -6.578125 6.546875 -6.078125 6.546875 -5.421875 L 6.546875 -1.25 C 6.546875 -0.96875 6.675781 -0.828125 6.9375 -0.828125 C 7.039062 -0.828125 7.171875 -0.847656 7.328125 -0.890625 L 7.328125 0 C 7.109375 0.09375 6.878906 0.140625 6.640625 0.140625 C 6.222656 0.140625 5.914062 0.0507812 5.71875 -0.125 C 5.519531 -0.3125 5.414062 -0.59375 5.40625 -0.96875 C 4.707031 -0.1875 3.832031 0.203125 2.78125 0.203125 C 2.09375 0.203125 1.539062 0.0078125 1.125 -0.375 C 0.71875 -0.757812 0.515625 -1.265625 0.515625 -1.890625 C 0.515625 -2.523438 0.691406 -3.035156 1.046875 -3.421875 C 1.410156 -3.816406 1.9375 -4.054688 2.625 -4.140625 L 4.78125 -4.40625 C 5.164062 -4.457031 5.359375 -4.742188 5.359375 -5.265625 C 5.359375 -5.640625 5.21875 -5.925781 4.9375 -6.125 C 4.65625 -6.332031 4.226562 -6.4375 3.65625 -6.4375 C 3.144531 -6.4375 2.753906 -6.320312 2.484375 -6.09375 C 2.210938 -5.875 2.050781 -5.519531 2 -5.03125 Z M 0.859375 -5.03125 "/></g></g></g><g fill="#343539" fill-opacity="1"><g transform="translate(77.237498, 24.906978)"><g><path d="M 6.8125 0 L 5.59375 0 L 5.59375 -4.453125 C 5.59375 -5.140625 5.472656 -5.628906 5.234375 -5.921875 C 4.992188 -6.210938 4.597656 -6.359375 4.046875 -6.359375 C 3.492188 -6.359375 3.035156 -6.148438 2.671875 -5.734375 C 2.304688 -5.316406 2.125 -4.722656 2.125 -3.953125 L 2.125 0 L 0.90625 0 L 0.90625 -7.234375 L 2.0625 -7.234375 L 2.0625 -6.21875 L 2.09375 -6.21875 C 2.664062 -7.039062 3.394531 -7.453125 4.28125 -7.453125 C 5.101562 -7.453125 5.726562 -7.234375 6.15625 -6.796875 C 6.59375 -6.359375 6.8125 -5.734375 6.8125 -4.921875 Z M 6.8125 0 "/></g></g></g><g fill="#343539" fill-opacity="1"><g transform="translate(84.872988, 24.906978)"><g><path d="M 2.375 -6.234375 L 2.375 -1.515625 C 2.375 -1.335938 2.425781 -1.195312 2.53125 -1.09375 C 2.632812 -1 2.816406 -0.953125 3.078125 -0.953125 L 3.546875 -0.953125 L 3.546875 0 C 3.097656 0.0625 2.789062 0.09375 2.625 0.09375 C 2.113281 0.09375 1.738281 -0.0234375 1.5 -0.265625 C 1.269531 -0.515625 1.15625 -0.910156 1.15625 -1.453125 L 1.15625 -6.234375 L 0.1875 -6.234375 L 0.1875 -7.234375 L 1.15625 -7.234375 L 1.15625 -9.265625 L 2.375 -9.265625 L 2.375 -7.234375 L 3.546875 -7.234375 L 3.546875 -6.234375 Z M 2.375 -6.234375 "/></g></g></g><g fill="#343539" fill-opacity="1"><g transform="translate(88.704252, 24.906978)"><g/></g></g><g fill="#343539" fill-opacity="1"><g transform="translate(92.082788, 24.906978)"><g><path d="M 6.96875 -7.03125 C 6.945312 -7.65625 6.710938 -8.144531 6.265625 -8.5 C 5.828125 -8.863281 5.242188 -9.046875 4.515625 -9.046875 C 3.785156 -9.046875 3.222656 -8.894531 2.828125 -8.59375 C 2.441406 -8.300781 2.25 -7.875 2.25 -7.3125 C 2.25 -7.007812 2.332031 -6.75 2.5 -6.53125 C 2.675781 -6.3125 2.984375 -6.148438 3.421875 -6.046875 L 6.265625 -5.40625 C 7.023438 -5.238281 7.585938 -4.921875 7.953125 -4.453125 C 8.328125 -3.984375 8.515625 -3.414062 8.515625 -2.75 C 8.515625 -1.757812 8.15625 -1.007812 7.4375 -0.5 C 6.71875 0.0078125 5.78125 0.265625 4.625 0.265625 C 3.75 0.265625 3.054688 0.15625 2.546875 -0.0625 C 2.035156 -0.289062 1.582031 -0.648438 1.1875 -1.140625 C 0.800781 -1.640625 0.609375 -2.328125 0.609375 -3.203125 L 1.859375 -3.203125 C 1.859375 -2.472656 2.101562 -1.90625 2.59375 -1.5 C 3.09375 -1.09375 3.765625 -0.890625 4.609375 -0.890625 C 5.429688 -0.890625 6.070312 -1.03125 6.53125 -1.3125 C 6.988281 -1.601562 7.21875 -2.019531 7.21875 -2.5625 C 7.21875 -3.050781 7.078125 -3.414062 6.796875 -3.65625 C 6.523438 -3.894531 5.992188 -4.109375 5.203125 -4.296875 L 3.0625 -4.796875 C 2.351562 -4.953125 1.820312 -5.234375 1.46875 -5.640625 C 1.113281 -6.046875 0.9375 -6.539062 0.9375 -7.125 C 0.9375 -8.019531 1.238281 -8.753906 1.84375 -9.328125 C 2.445312 -9.910156 3.285156 -10.203125 4.359375 -10.203125 C 5.578125 -10.203125 6.515625 -9.945312 7.171875 -9.4375 C 7.835938 -8.925781 8.191406 -8.125 8.234375 -7.03125 Z M 6.96875 -7.03125 "/></g></g></g><g fill="#343539" fill-opacity="1"><g transform="translate(101.245375, 24.906978)"><g><path d="M 5.484375 -4.8125 C 5.304688 -5.84375 4.734375 -6.359375 3.765625 -6.359375 C 3.160156 -6.359375 2.675781 -6.117188 2.3125 -5.640625 C 1.945312 -5.160156 1.765625 -4.488281 1.765625 -3.625 C 1.765625 -2.695312 1.929688 -2 2.265625 -1.53125 C 2.609375 -1.070312 3.101562 -0.84375 3.75 -0.84375 C 4.1875 -0.84375 4.5625 -1 4.875 -1.3125 C 5.1875 -1.632812 5.390625 -2.050781 5.484375 -2.5625 L 6.65625 -2.5625 C 6.53125 -1.664062 6.210938 -0.976562 5.703125 -0.5 C 5.191406 -0.03125 4.53125 0.203125 3.71875 0.203125 C 2.769531 0.203125 1.988281 -0.117188 1.375 -0.765625 C 0.769531 -1.421875 0.46875 -2.304688 0.46875 -3.421875 C 0.46875 -4.648438 0.769531 -5.628906 1.375 -6.359375 C 1.988281 -7.085938 2.847656 -7.453125 3.953125 -7.453125 C 4.753906 -7.453125 5.390625 -7.210938 5.859375 -6.734375 C 6.335938 -6.253906 6.601562 -5.613281 6.65625 -4.8125 Z M 5.484375 -4.8125 "/></g></g></g><g fill="#343539" fill-opacity="1"><g transform="translate(108.3403, 24.906978)"><g><path d="M 5.3125 -3.703125 C 5.21875 -3.609375 5.039062 -3.53125 4.78125 -3.46875 C 4.519531 -3.40625 4.03125 -3.328125 3.3125 -3.234375 C 2.78125 -3.171875 2.382812 -3.039062 2.125 -2.84375 C 1.875 -2.644531 1.75 -2.382812 1.75 -2.0625 C 1.75 -1.664062 1.851562 -1.351562 2.0625 -1.125 C 2.28125 -0.90625 2.625 -0.796875 3.09375 -0.796875 C 3.675781 -0.796875 4.191406 -0.960938 4.640625 -1.296875 C 5.085938 -1.628906 5.3125 -2.035156 5.3125 -2.515625 Z M 0.859375 -5.03125 C 0.890625 -5.851562 1.15625 -6.460938 1.65625 -6.859375 C 2.15625 -7.253906 2.882812 -7.453125 3.84375 -7.453125 C 4.613281 -7.453125 5.253906 -7.273438 5.765625 -6.921875 C 6.285156 -6.578125 6.546875 -6.078125 6.546875 -5.421875 L 6.546875 -1.25 C 6.546875 -0.96875 6.675781 -0.828125 6.9375 -0.828125 C 7.039062 -0.828125 7.171875 -0.847656 7.328125 -0.890625 L 7.328125 0 C 7.109375 0.09375 6.878906 0.140625 6.640625 0.140625 C 6.222656 0.140625 5.914062 0.0507812 5.71875 -0.125 C 5.519531 -0.3125 5.414062 -0.59375 5.40625 -0.96875 C 4.707031 -0.1875 3.832031 0.203125 2.78125 0.203125 C 2.09375 0.203125 1.539062 0.0078125 1.125 -0.375 C 0.71875 -0.757812 0.515625 -1.265625 0.515625 -1.890625 C 0.515625 -2.523438 0.691406 -3.035156 1.046875 -3.421875 C 1.410156 -3.816406 1.9375 -4.054688 2.625 -4.140625 L 4.78125 -4.40625 C 5.164062 -4.457031 5.359375 -4.742188 5.359375 -5.265625 C 5.359375 -5.640625 5.21875 -5.925781 4.9375 -6.125 C 4.65625 -6.332031 4.226562 -6.4375 3.65625 -6.4375 C 3.144531 -6.4375 2.753906 -6.320312 2.484375 -6.09375 C 2.210938 -5.875 2.050781 -5.519531 2 -5.03125 Z M 0.859375 -5.03125 "/></g></g></g><g fill="#343539" fill-opacity="1"><g transform="translate(115.94201, 24.906978)"><g><path d="M 6.8125 0 L 5.59375 0 L 5.59375 -4.453125 C 5.59375 -5.140625 5.472656 -5.628906 5.234375 -5.921875 C 4.992188 -6.210938 4.597656 -6.359375 4.046875 -6.359375 C 3.492188 -6.359375 3.035156 -6.148438 2.671875 -5.734375 C 2.304688 -5.316406 2.125 -4.722656 2.125 -3.953125 L 2.125 0 L 0.90625 0 L 0.90625 -7.234375 L 2.0625 -7.234375 L 2.0625 -6.21875 L 2.09375 -6.21875 C 2.664062 -7.039062 3.394531 -7.453125 4.28125 -7.453125 C 5.101562 -7.453125 5.726562 -7.234375 6.15625 -6.796875 C 6.59375 -6.359375 6.8125 -5.734375 6.8125 -4.921875 Z M 6.8125 0 "/></g></g></g><g fill="#343539" fill-opacity="1"><g transform="translate(123.577499, 24.906978)"><g><path d="M 5 -5.171875 C 4.976562 -5.609375 4.820312 -5.921875 4.53125 -6.109375 C 4.238281 -6.296875 3.820312 -6.390625 3.28125 -6.390625 C 2.882812 -6.390625 2.546875 -6.300781 2.265625 -6.125 C 1.984375 -5.957031 1.84375 -5.707031 1.84375 -5.375 C 1.84375 -5.113281 1.925781 -4.921875 2.09375 -4.796875 C 2.257812 -4.671875 2.617188 -4.539062 3.171875 -4.40625 L 4.375 -4.09375 C 5.101562 -3.90625 5.625 -3.664062 5.9375 -3.375 C 6.25 -3.09375 6.40625 -2.695312 6.40625 -2.1875 C 6.40625 -1.476562 6.144531 -0.898438 5.625 -0.453125 C 5.101562 -0.015625 4.410156 0.203125 3.546875 0.203125 C 2.523438 0.203125 1.753906 -0.00390625 1.234375 -0.421875 C 0.710938 -0.835938 0.453125 -1.472656 0.453125 -2.328125 L 1.625 -2.328125 C 1.644531 -1.828125 1.8125 -1.453125 2.125 -1.203125 C 2.4375 -0.960938 2.90625 -0.84375 3.53125 -0.84375 C 4.039062 -0.84375 4.441406 -0.941406 4.734375 -1.140625 C 5.035156 -1.347656 5.1875 -1.632812 5.1875 -2 C 5.1875 -2.25 5.085938 -2.453125 4.890625 -2.609375 C 4.703125 -2.765625 4.320312 -2.90625 3.75 -3.03125 L 2.34375 -3.375 C 1.769531 -3.519531 1.34375 -3.734375 1.0625 -4.015625 C 0.789062 -4.304688 0.65625 -4.679688 0.65625 -5.140625 C 0.65625 -5.847656 0.910156 -6.410156 1.421875 -6.828125 C 1.929688 -7.242188 2.597656 -7.453125 3.421875 -7.453125 C 4.296875 -7.453125 4.960938 -7.238281 5.421875 -6.8125 C 5.890625 -6.382812 6.140625 -5.835938 6.171875 -5.171875 Z M 5 -5.171875 "/></g></g></g></svg>