<svg xmlns="http://www.w3.org/2000/svg" xmlns:xlink="http://www.w3.org/1999/xlink" width="240" zoomAndPan="magnify" viewBox="0 0 180 42" height="56" preserveAspectRatio="xMidYMid meet" version="1.0"><defs><g/><clipPath id="6e8a8c2563"><path d="M 25.351562 2.089844 L 159.476562 2.089844 L 159.476562 38.933594 L 25.351562 38.933594 Z M 25.351562 2.089844 " clip-rule="nonzero"/></clipPath><clipPath id="19af4b0e2f"><path d="M 143.597656 2.089844 C 152.296875 2.089844 159.351562 10.339844 159.351562 20.511719 C 159.351562 30.683594 152.296875 38.933594 143.597656 38.933594 L 41.109375 38.933594 C 32.40625 38.933594 25.351562 30.683594 25.351562 20.511719 C 25.351562 10.339844 32.40625 2.089844 41.109375 2.089844 Z M 143.597656 2.089844 " clip-rule="nonzero"/></clipPath></defs><g clip-path="url(#6e8a8c2563)"><g clip-path="url(#19af4b0e2f)"><path fill="#bdfe00" d="M 25.351562 2.089844 L 159.335938 2.089844 L 159.335938 38.933594 L 25.351562 38.933594 Z M 25.351562 2.089844 " fill-opacity="1" fill-rule="nonzero"/></g></g><g fill="#343539" fill-opacity="1"><g transform="translate(50.645355, 23.441862)"><g><path d="M 9.34375 0 L 9.34375 -5.875 C 9.34375 -5.945312 9.347656 -6.316406 9.359375 -6.984375 C 9.367188 -7.660156 9.375 -8.113281 9.375 -8.34375 L 9.328125 -8.34375 L 6.546875 0 L 5.21875 0 L 2.4375 -8.328125 L 2.390625 -8.328125 C 2.390625 -7.992188 2.394531 -7.519531 2.40625 -6.90625 C 2.414062 -6.289062 2.421875 -5.945312 2.421875 -5.875 L 2.421875 0 L 1.125 0 L 1.125 -9.9375 L 3.046875 -9.9375 L 5.875 -1.53125 L 5.90625 -1.53125 L 8.71875 -9.9375 L 10.640625 -9.9375 L 10.640625 0 Z M 9.34375 0 "/></g></g></g><g fill="#343539" fill-opacity="1"><g transform="translate(62.40942, 23.441862)"><g><path d="M 5.875 -4.203125 C 5.8125 -4.984375 5.601562 -5.535156 5.25 -5.859375 C 4.90625 -6.191406 4.441406 -6.359375 3.859375 -6.359375 C 3.265625 -6.359375 2.785156 -6.148438 2.421875 -5.734375 C 2.066406 -5.316406 1.878906 -4.804688 1.859375 -4.203125 Z M 7.046875 -2.265625 C 6.910156 -1.523438 6.539062 -0.90625 5.9375 -0.40625 C 5.414062 0 4.722656 0.207031 3.859375 0.21875 C 2.847656 0.207031 2.039062 -0.117188 1.4375 -0.765625 C 0.84375 -1.421875 0.546875 -2.304688 0.546875 -3.421875 C 0.546875 -4.691406 0.851562 -5.679688 1.46875 -6.390625 C 2.082031 -7.097656 2.9375 -7.453125 4.03125 -7.453125 C 5.007812 -7.453125 5.769531 -7.085938 6.3125 -6.359375 C 6.863281 -5.628906 7.140625 -4.582031 7.140625 -3.21875 L 1.859375 -3.21875 C 1.859375 -2.46875 2.03125 -1.882812 2.375 -1.46875 C 2.726562 -1.050781 3.257812 -0.84375 3.96875 -0.84375 C 4.457031 -0.84375 4.878906 -0.992188 5.234375 -1.296875 C 5.585938 -1.597656 5.785156 -1.921875 5.828125 -2.265625 Z M 7.046875 -2.265625 "/></g></g></g><g fill="#343539" fill-opacity="1"><g transform="translate(70.078701, 23.441862)"><g><path d="M 5.875 -4.203125 C 5.8125 -4.984375 5.601562 -5.535156 5.25 -5.859375 C 4.90625 -6.191406 4.441406 -6.359375 3.859375 -6.359375 C 3.265625 -6.359375 2.785156 -6.148438 2.421875 -5.734375 C 2.066406 -5.316406 1.878906 -4.804688 1.859375 -4.203125 Z M 7.046875 -2.265625 C 6.910156 -1.523438 6.539062 -0.90625 5.9375 -0.40625 C 5.414062 0 4.722656 0.207031 3.859375 0.21875 C 2.847656 0.207031 2.039062 -0.117188 1.4375 -0.765625 C 0.84375 -1.421875 0.546875 -2.304688 0.546875 -3.421875 C 0.546875 -4.691406 0.851562 -5.679688 1.46875 -6.390625 C 2.082031 -7.097656 2.9375 -7.453125 4.03125 -7.453125 C 5.007812 -7.453125 5.769531 -7.085938 6.3125 -6.359375 C 6.863281 -5.628906 7.140625 -4.582031 7.140625 -3.21875 L 1.859375 -3.21875 C 1.859375 -2.46875 2.03125 -1.882812 2.375 -1.46875 C 2.726562 -1.050781 3.257812 -0.84375 3.96875 -0.84375 C 4.457031 -0.84375 4.878906 -0.992188 5.234375 -1.296875 C 5.585938 -1.597656 5.785156 -1.921875 5.828125 -2.265625 Z M 7.046875 -2.265625 "/></g></g></g><g fill="#343539" fill-opacity="1"><g transform="translate(77.747982, 23.441862)"><g><path d="M 2.375 -6.234375 L 2.375 -1.515625 C 2.375 -1.335938 2.425781 -1.195312 2.53125 -1.09375 C 2.632812 -1 2.816406 -0.953125 3.078125 -0.953125 L 3.546875 -0.953125 L 3.546875 0 C 3.097656 0.0625 2.789062 0.09375 2.625 0.09375 C 2.113281 0.09375 1.738281 -0.0234375 1.5 -0.265625 C 1.269531 -0.515625 1.15625 -0.910156 1.15625 -1.453125 L 1.15625 -6.234375 L 0.1875 -6.234375 L 0.1875 -7.234375 L 1.15625 -7.234375 L 1.15625 -9.265625 L 2.375 -9.265625 L 2.375 -7.234375 L 3.546875 -7.234375 L 3.546875 -6.234375 Z M 2.375 -6.234375 "/></g></g></g><g fill="#343539" fill-opacity="1"><g transform="translate(81.579246, 23.441862)"><g/></g></g><g fill="#343539" fill-opacity="1"><g transform="translate(84.957782, 23.441862)"><g><path d="M 5.453125 -7.234375 L 6.78125 -7.234375 L 4.03125 0 L 2.71875 0 L 0.078125 -7.234375 L 1.5 -7.234375 L 3.375 -1.34375 L 3.40625 -1.34375 Z M 5.453125 -7.234375 "/></g></g></g><g fill="#343539" fill-opacity="1"><g transform="translate(91.822965, 23.441862)"><g><path d="M 0.90625 -8.5625 L 0.90625 -9.9375 L 2.125 -9.9375 L 2.125 -8.5625 Z M 2.125 0 L 0.90625 0 L 0.90625 -7.234375 L 2.125 -7.234375 Z M 2.125 0 "/></g></g></g><g fill="#343539" fill-opacity="1"><g transform="translate(94.87041, 23.441862)"><g><path d="M 2.125 0 L 0.90625 0 L 0.90625 -7.234375 L 2.0625 -7.234375 L 2.0625 -6.03125 L 2.09375 -6.03125 C 2.613281 -6.976562 3.289062 -7.453125 4.125 -7.453125 C 4.25 -7.453125 4.351562 -7.4375 4.4375 -7.40625 L 4.4375 -6.140625 L 3.984375 -6.140625 C 3.441406 -6.140625 2.992188 -5.953125 2.640625 -5.578125 C 2.296875 -5.210938 2.125 -4.757812 2.125 -4.21875 Z M 2.125 0 "/></g></g></g><g fill="#343539" fill-opacity="1"><g transform="translate(99.377382, 23.441862)"><g><path d="M 2.375 -6.234375 L 2.375 -1.515625 C 2.375 -1.335938 2.425781 -1.195312 2.53125 -1.09375 C 2.632812 -1 2.816406 -0.953125 3.078125 -0.953125 L 3.546875 -0.953125 L 3.546875 0 C 3.097656 0.0625 2.789062 0.09375 2.625 0.09375 C 2.113281 0.09375 1.738281 -0.0234375 1.5 -0.265625 C 1.269531 -0.515625 1.15625 -0.910156 1.15625 -1.453125 L 1.15625 -6.234375 L 0.1875 -6.234375 L 0.1875 -7.234375 L 1.15625 -7.234375 L 1.15625 -9.265625 L 2.375 -9.265625 L 2.375 -7.234375 L 3.546875 -7.234375 L 3.546875 -6.234375 Z M 2.375 -6.234375 "/></g></g></g><g fill="#343539" fill-opacity="1"><g transform="translate(103.208646, 23.441862)"><g><path d="M 0.84375 -7.234375 L 2.0625 -7.234375 L 2.0625 -2.4375 C 2.0625 -1.90625 2.179688 -1.503906 2.421875 -1.234375 C 2.660156 -0.972656 3.007812 -0.84375 3.46875 -0.84375 C 4.09375 -0.84375 4.578125 -1.0625 4.921875 -1.5 C 5.273438 -1.945312 5.453125 -2.53125 5.453125 -3.25 L 5.453125 -7.234375 L 6.671875 -7.234375 L 6.671875 0 L 5.515625 0 L 5.515625 -1.046875 L 5.5 -1.078125 C 5.039062 -0.222656 4.273438 0.203125 3.203125 0.203125 C 2.503906 0.203125 1.9375 0.015625 1.5 -0.359375 C 1.0625 -0.734375 0.84375 -1.289062 0.84375 -2.03125 Z M 0.84375 -7.234375 "/></g></g></g><g fill="#343539" fill-opacity="1"><g transform="translate(110.790079, 23.441862)"><g><path d="M 5.3125 -3.703125 C 5.21875 -3.609375 5.039062 -3.53125 4.78125 -3.46875 C 4.519531 -3.40625 4.03125 -3.328125 3.3125 -3.234375 C 2.78125 -3.171875 2.382812 -3.039062 2.125 -2.84375 C 1.875 -2.644531 1.75 -2.382812 1.75 -2.0625 C 1.75 -1.664062 1.851562 -1.351562 2.0625 -1.125 C 2.28125 -0.90625 2.625 -0.796875 3.09375 -0.796875 C 3.675781 -0.796875 4.191406 -0.960938 4.640625 -1.296875 C 5.085938 -1.628906 5.3125 -2.035156 5.3125 -2.515625 Z M 0.859375 -5.03125 C 0.890625 -5.851562 1.15625 -6.460938 1.65625 -6.859375 C 2.15625 -7.253906 2.882812 -7.453125 3.84375 -7.453125 C 4.613281 -7.453125 5.253906 -7.273438 5.765625 -6.921875 C 6.285156 -6.578125 6.546875 -6.078125 6.546875 -5.421875 L 6.546875 -1.25 C 6.546875 -0.96875 6.675781 -0.828125 6.9375 -0.828125 C 7.039062 -0.828125 7.171875 -0.847656 7.328125 -0.890625 L 7.328125 0 C 7.109375 0.09375 6.878906 0.140625 6.640625 0.140625 C 6.222656 0.140625 5.914062 0.0507812 5.71875 -0.125 C 5.519531 -0.3125 5.414062 -0.59375 5.40625 -0.96875 C 4.707031 -0.1875 3.832031 0.203125 2.78125 0.203125 C 2.09375 0.203125 1.539062 0.0078125 1.125 -0.375 C 0.71875 -0.757812 0.515625 -1.265625 0.515625 -1.890625 C 0.515625 -2.523438 0.691406 -3.035156 1.046875 -3.421875 C 1.410156 -3.816406 1.9375 -4.054688 2.625 -4.140625 L 4.78125 -4.40625 C 5.164062 -4.457031 5.359375 -4.742188 5.359375 -5.265625 C 5.359375 -5.640625 5.21875 -5.925781 4.9375 -6.125 C 4.65625 -6.332031 4.226562 -6.4375 3.65625 -6.4375 C 3.144531 -6.4375 2.753906 -6.320312 2.484375 -6.09375 C 2.210938 -5.875 2.050781 -5.519531 2 -5.03125 Z M 0.859375 -5.03125 "/></g></g></g><g fill="#343539" fill-opacity="1"><g transform="translate(118.391789, 23.441862)"><g><path d="M 2.125 0 L 0.90625 0 L 0.90625 -9.9375 L 2.125 -9.9375 Z M 2.125 0 "/></g></g></g><g fill="#343539" fill-opacity="1"><g transform="translate(121.439234, 23.441862)"><g><path d="M 2.125 0 L 0.90625 0 L 0.90625 -9.9375 L 2.125 -9.9375 Z M 2.125 0 "/></g></g></g><g fill="#343539" fill-opacity="1"><g transform="translate(124.486678, 23.441862)"><g><path d="M 5.40625 -7.234375 L 6.71875 -7.234375 L 4.140625 -0.140625 C 4.085938 -0.015625 4.039062 0.101562 4 0.21875 C 3.601562 1.269531 3.265625 1.988281 2.984375 2.375 C 2.703125 2.757812 2.242188 2.953125 1.609375 2.953125 C 1.273438 2.953125 1.003906 2.921875 0.796875 2.859375 L 0.796875 1.75 C 1.023438 1.820312 1.273438 1.859375 1.546875 1.859375 C 1.847656 1.859375 2.066406 1.765625 2.203125 1.578125 C 2.335938 1.390625 2.539062 0.929688 2.8125 0.203125 L 0.125 -7.234375 L 1.5 -7.234375 L 3.4375 -1.34375 L 3.46875 -1.34375 Z M 5.40625 -7.234375 "/></g></g></g></svg>