<svg xmlns="http://www.w3.org/2000/svg" xmlns:xlink="http://www.w3.org/1999/xlink" width="240" zoomAndPan="magnify" viewBox="0 0 180 42" height="56" preserveAspectRatio="xMidYMid meet" version="1.0"><defs><g/><clipPath id="a6557eaed6"><path d="M 3.503906 0.726562 L 176.640625 0.726562 L 176.640625 40.296875 L 3.503906 40.296875 Z M 3.503906 0.726562 " clip-rule="nonzero"/></clipPath><clipPath id="6f574d4eeb"><path d="M 159.570312 0.726562 C 168.917969 0.726562 176.496094 9.582031 176.496094 20.511719 C 176.496094 31.441406 168.917969 40.296875 159.570312 40.296875 L 20.429688 40.296875 C 11.082031 40.296875 3.503906 31.441406 3.503906 20.511719 C 3.503906 9.582031 11.082031 0.726562 20.429688 0.726562 Z M 159.570312 0.726562 " clip-rule="nonzero"/></clipPath></defs><g clip-path="url(#a6557eaed6)"><g clip-path="url(#6f574d4eeb)"><path fill="#b984fd" d="M 3.503906 0.726562 L 176.484375 0.726562 L 176.484375 40.296875 L 3.503906 40.296875 Z M 3.503906 0.726562 " fill-opacity="1" fill-rule="nonzero"/></g></g><g fill="#343539" fill-opacity="1"><g transform="translate(31.565779, 24.906978)"><g><path d="M 2.46875 0 L 1.125 0 L 1.125 -9.9375 L 8 -9.9375 L 8 -8.75 L 2.46875 -8.75 L 2.46875 -5.703125 L 7.328125 -5.703125 L 7.328125 -4.515625 L 2.46875 -4.515625 Z M 2.46875 0 "/></g></g></g><g fill="#343539" fill-opacity="1"><g transform="translate(39.836434, 24.906978)"><g><path d="M 2.125 0 L 0.90625 0 L 0.90625 -7.234375 L 2.0625 -7.234375 L 2.0625 -6.03125 L 2.09375 -6.03125 C 2.613281 -6.976562 3.289062 -7.453125 4.125 -7.453125 C 4.25 -7.453125 4.351562 -7.4375 4.4375 -7.40625 L 4.4375 -6.140625 L 3.984375 -6.140625 C 3.441406 -6.140625 2.992188 -5.953125 2.640625 -5.578125 C 2.296875 -5.210938 2.125 -4.757812 2.125 -4.21875 Z M 2.125 0 "/></g></g></g><g fill="#343539" fill-opacity="1"><g transform="translate(44.343406, 24.906978)"><g><path d="M 5.875 -4.203125 C 5.8125 -4.984375 5.601562 -5.535156 5.25 -5.859375 C 4.90625 -6.191406 4.441406 -6.359375 3.859375 -6.359375 C 3.265625 -6.359375 2.785156 -6.148438 2.421875 -5.734375 C 2.066406 -5.316406 1.878906 -4.804688 1.859375 -4.203125 Z M 7.046875 -2.265625 C 6.910156 -1.523438 6.539062 -0.90625 5.9375 -0.40625 C 5.414062 0 4.722656 0.207031 3.859375 0.21875 C 2.847656 0.207031 2.039062 -0.117188 1.4375 -0.765625 C 0.84375 -1.421875 0.546875 -2.304688 0.546875 -3.421875 C 0.546875 -4.691406 0.851562 -5.679688 1.46875 -6.390625 C 2.082031 -7.097656 2.9375 -7.453125 4.03125 -7.453125 C 5.007812 -7.453125 5.769531 -7.085938 6.3125 -6.359375 C 6.863281 -5.628906 7.140625 -4.582031 7.140625 -3.21875 L 1.859375 -3.21875 C 1.859375 -2.46875 2.03125 -1.882812 2.375 -1.46875 C 2.726562 -1.050781 3.257812 -0.84375 3.96875 -0.84375 C 4.457031 -0.84375 4.878906 -0.992188 5.234375 -1.296875 C 5.585938 -1.597656 5.785156 -1.921875 5.828125 -2.265625 Z M 7.046875 -2.265625 "/></g></g></g><g fill="#343539" fill-opacity="1"><g transform="translate(52.012686, 24.906978)"><g><path d="M 5.875 -4.203125 C 5.8125 -4.984375 5.601562 -5.535156 5.25 -5.859375 C 4.90625 -6.191406 4.441406 -6.359375 3.859375 -6.359375 C 3.265625 -6.359375 2.785156 -6.148438 2.421875 -5.734375 C 2.066406 -5.316406 1.878906 -4.804688 1.859375 -4.203125 Z M 7.046875 -2.265625 C 6.910156 -1.523438 6.539062 -0.90625 5.9375 -0.40625 C 5.414062 0 4.722656 0.207031 3.859375 0.21875 C 2.847656 0.207031 2.039062 -0.117188 1.4375 -0.765625 C 0.84375 -1.421875 0.546875 -2.304688 0.546875 -3.421875 C 0.546875 -4.691406 0.851562 -5.679688 1.46875 -6.390625 C 2.082031 -7.097656 2.9375 -7.453125 4.03125 -7.453125 C 5.007812 -7.453125 5.769531 -7.085938 6.3125 -6.359375 C 6.863281 -5.628906 7.140625 -4.582031 7.140625 -3.21875 L 1.859375 -3.21875 C 1.859375 -2.46875 2.03125 -1.882812 2.375 -1.46875 C 2.726562 -1.050781 3.257812 -0.84375 3.96875 -0.84375 C 4.457031 -0.84375 4.878906 -0.992188 5.234375 -1.296875 C 5.585938 -1.597656 5.785156 -1.921875 5.828125 -2.265625 Z M 7.046875 -2.265625 "/></g></g></g><g fill="#343539" fill-opacity="1"><g transform="translate(59.681967, 24.906978)"><g/></g></g><g fill="#343539" fill-opacity="1"><g transform="translate(63.060502, 24.906978)"><g><path d="M 8.03125 -6.953125 C 7.882812 -7.628906 7.570312 -8.140625 7.09375 -8.484375 C 6.613281 -8.835938 6 -9.015625 5.25 -9.015625 C 4.269531 -9.015625 3.484375 -8.65625 2.890625 -7.9375 C 2.296875 -7.226562 2 -6.269531 2 -5.0625 C 2 -3.664062 2.28125 -2.625 2.84375 -1.9375 C 3.40625 -1.257812 4.21875 -0.921875 5.28125 -0.921875 C 5.988281 -0.921875 6.59375 -1.15625 7.09375 -1.625 C 7.601562 -2.09375 7.945312 -2.769531 8.125 -3.65625 L 9.4375 -3.65625 C 9.257812 -2.382812 8.769531 -1.410156 7.96875 -0.734375 C 7.175781 -0.0664062 6.210938 0.265625 5.078125 0.265625 C 3.722656 0.265625 2.640625 -0.195312 1.828125 -1.125 C 1.015625 -2.0625 0.609375 -3.359375 0.609375 -5.015625 C 0.609375 -6.617188 1.03125 -7.882812 1.875 -8.8125 C 2.726562 -9.738281 3.851562 -10.203125 5.25 -10.203125 C 6.394531 -10.203125 7.328125 -9.90625 8.046875 -9.3125 C 8.765625 -8.71875 9.191406 -7.929688 9.328125 -6.953125 Z M 8.03125 -6.953125 "/></g></g></g><g fill="#343539" fill-opacity="1"><g transform="translate(73.06773, 24.906978)"><g><path d="M 1.75 -3.625 C 1.75 -2.820312 1.929688 -2.160156 2.296875 -1.640625 C 2.671875 -1.117188 3.191406 -0.859375 3.859375 -0.859375 C 4.554688 -0.859375 5.082031 -1.128906 5.4375 -1.671875 C 5.800781 -2.222656 5.984375 -2.875 5.984375 -3.625 C 5.984375 -4.394531 5.800781 -5.046875 5.4375 -5.578125 C 5.082031 -6.109375 4.554688 -6.375 3.859375 -6.375 C 3.210938 -6.375 2.695312 -6.125 2.3125 -5.625 C 1.9375 -5.125 1.75 -4.457031 1.75 -3.625 Z M 0.515625 -3.625 C 0.515625 -4.707031 0.8125 -5.613281 1.40625 -6.34375 C 2.007812 -7.082031 2.828125 -7.453125 3.859375 -7.453125 C 4.910156 -7.453125 5.734375 -7.078125 6.328125 -6.328125 C 6.921875 -5.585938 7.21875 -4.6875 7.21875 -3.625 C 7.21875 -2.5625 6.921875 -1.65625 6.328125 -0.90625 C 5.742188 -0.164062 4.921875 0.203125 3.859375 0.203125 C 2.835938 0.203125 2.023438 -0.15625 1.421875 -0.875 C 0.816406 -1.601562 0.515625 -2.519531 0.515625 -3.625 Z M 0.515625 -3.625 "/></g></g></g><g fill="#343539" fill-opacity="1"><g transform="translate(80.804581, 24.906978)"><g><path d="M 6.8125 0 L 5.59375 0 L 5.59375 -4.453125 C 5.59375 -5.140625 5.472656 -5.628906 5.234375 -5.921875 C 4.992188 -6.210938 4.597656 -6.359375 4.046875 -6.359375 C 3.492188 -6.359375 3.035156 -6.148438 2.671875 -5.734375 C 2.304688 -5.316406 2.125 -4.722656 2.125 -3.953125 L 2.125 0 L 0.90625 0 L 0.90625 -7.234375 L 2.0625 -7.234375 L 2.0625 -6.21875 L 2.09375 -6.21875 C 2.664062 -7.039062 3.394531 -7.453125 4.28125 -7.453125 C 5.101562 -7.453125 5.726562 -7.234375 6.15625 -6.796875 C 6.59375 -6.359375 6.8125 -5.734375 6.8125 -4.921875 Z M 6.8125 0 "/></g></g></g><g fill="#343539" fill-opacity="1"><g transform="translate(88.440071, 24.906978)"><g><path d="M 5 -5.171875 C 4.976562 -5.609375 4.820312 -5.921875 4.53125 -6.109375 C 4.238281 -6.296875 3.820312 -6.390625 3.28125 -6.390625 C 2.882812 -6.390625 2.546875 -6.300781 2.265625 -6.125 C 1.984375 -5.957031 1.84375 -5.707031 1.84375 -5.375 C 1.84375 -5.113281 1.925781 -4.921875 2.09375 -4.796875 C 2.257812 -4.671875 2.617188 -4.539062 3.171875 -4.40625 L 4.375 -4.09375 C 5.101562 -3.90625 5.625 -3.664062 5.9375 -3.375 C 6.25 -3.09375 6.40625 -2.695312 6.40625 -2.1875 C 6.40625 -1.476562 6.144531 -0.898438 5.625 -0.453125 C 5.101562 -0.015625 4.410156 0.203125 3.546875 0.203125 C 2.523438 0.203125 1.753906 -0.00390625 1.234375 -0.421875 C 0.710938 -0.835938 0.453125 -1.472656 0.453125 -2.328125 L 1.625 -2.328125 C 1.644531 -1.828125 1.8125 -1.453125 2.125 -1.203125 C 2.4375 -0.960938 2.90625 -0.84375 3.53125 -0.84375 C 4.039062 -0.84375 4.441406 -0.941406 4.734375 -1.140625 C 5.035156 -1.347656 5.1875 -1.632812 5.1875 -2 C 5.1875 -2.25 5.085938 -2.453125 4.890625 -2.609375 C 4.703125 -2.765625 4.320312 -2.90625 3.75 -3.03125 L 2.34375 -3.375 C 1.769531 -3.519531 1.34375 -3.734375 1.0625 -4.015625 C 0.789062 -4.304688 0.65625 -4.679688 0.65625 -5.140625 C 0.65625 -5.847656 0.910156 -6.410156 1.421875 -6.828125 C 1.929688 -7.242188 2.597656 -7.453125 3.421875 -7.453125 C 4.296875 -7.453125 4.960938 -7.238281 5.421875 -6.8125 C 5.890625 -6.382812 6.140625 -5.835938 6.171875 -5.171875 Z M 5 -5.171875 "/></g></g></g><g fill="#343539" fill-opacity="1"><g transform="translate(95.359311, 24.906978)"><g><path d="M 0.84375 -7.234375 L 2.0625 -7.234375 L 2.0625 -2.4375 C 2.0625 -1.90625 2.179688 -1.503906 2.421875 -1.234375 C 2.660156 -0.972656 3.007812 -0.84375 3.46875 -0.84375 C 4.09375 -0.84375 4.578125 -1.0625 4.921875 -1.5 C 5.273438 -1.945312 5.453125 -2.53125 5.453125 -3.25 L 5.453125 -7.234375 L 6.671875 -7.234375 L 6.671875 0 L 5.515625 0 L 5.515625 -1.046875 L 5.5 -1.078125 C 5.039062 -0.222656 4.273438 0.203125 3.203125 0.203125 C 2.503906 0.203125 1.9375 0.015625 1.5 -0.359375 C 1.0625 -0.734375 0.84375 -1.289062 0.84375 -2.03125 Z M 0.84375 -7.234375 "/></g></g></g><g fill="#343539" fill-opacity="1"><g transform="translate(102.940744, 24.906978)"><g><path d="M 2.125 0 L 0.90625 0 L 0.90625 -9.9375 L 2.125 -9.9375 Z M 2.125 0 "/></g></g></g><g fill="#343539" fill-opacity="1"><g transform="translate(105.988189, 24.906978)"><g><path d="M 2.375 -6.234375 L 2.375 -1.515625 C 2.375 -1.335938 2.425781 -1.195312 2.53125 -1.09375 C 2.632812 -1 2.816406 -0.953125 3.078125 -0.953125 L 3.546875 -0.953125 L 3.546875 0 C 3.097656 0.0625 2.789062 0.09375 2.625 0.09375 C 2.113281 0.09375 1.738281 -0.0234375 1.5 -0.265625 C 1.269531 -0.515625 1.15625 -0.910156 1.15625 -1.453125 L 1.15625 -6.234375 L 0.1875 -6.234375 L 0.1875 -7.234375 L 1.15625 -7.234375 L 1.15625 -9.265625 L 2.375 -9.265625 L 2.375 -7.234375 L 3.546875 -7.234375 L 3.546875 -6.234375 Z M 2.375 -6.234375 "/></g></g></g><g fill="#343539" fill-opacity="1"><g transform="translate(109.819454, 24.906978)"><g><path d="M 5.3125 -3.703125 C 5.21875 -3.609375 5.039062 -3.53125 4.78125 -3.46875 C 4.519531 -3.40625 4.03125 -3.328125 3.3125 -3.234375 C 2.78125 -3.171875 2.382812 -3.039062 2.125 -2.84375 C 1.875 -2.644531 1.75 -2.382812 1.75 -2.0625 C 1.75 -1.664062 1.851562 -1.351562 2.0625 -1.125 C 2.28125 -0.90625 2.625 -0.796875 3.09375 -0.796875 C 3.675781 -0.796875 4.191406 -0.960938 4.640625 -1.296875 C 5.085938 -1.628906 5.3125 -2.035156 5.3125 -2.515625 Z M 0.859375 -5.03125 C 0.890625 -5.851562 1.15625 -6.460938 1.65625 -6.859375 C 2.15625 -7.253906 2.882812 -7.453125 3.84375 -7.453125 C 4.613281 -7.453125 5.253906 -7.273438 5.765625 -6.921875 C 6.285156 -6.578125 6.546875 -6.078125 6.546875 -5.421875 L 6.546875 -1.25 C 6.546875 -0.96875 6.675781 -0.828125 6.9375 -0.828125 C 7.039062 -0.828125 7.171875 -0.847656 7.328125 -0.890625 L 7.328125 0 C 7.109375 0.09375 6.878906 0.140625 6.640625 0.140625 C 6.222656 0.140625 5.914062 0.0507812 5.71875 -0.125 C 5.519531 -0.3125 5.414062 -0.59375 5.40625 -0.96875 C 4.707031 -0.1875 3.832031 0.203125 2.78125 0.203125 C 2.09375 0.203125 1.539062 0.0078125 1.125 -0.375 C 0.71875 -0.757812 0.515625 -1.265625 0.515625 -1.890625 C 0.515625 -2.523438 0.691406 -3.035156 1.046875 -3.421875 C 1.410156 -3.816406 1.9375 -4.054688 2.625 -4.140625 L 4.78125 -4.40625 C 5.164062 -4.457031 5.359375 -4.742188 5.359375 -5.265625 C 5.359375 -5.640625 5.21875 -5.925781 4.9375 -6.125 C 4.65625 -6.332031 4.226562 -6.4375 3.65625 -6.4375 C 3.144531 -6.4375 2.753906 -6.320312 2.484375 -6.09375 C 2.210938 -5.875 2.050781 -5.519531 2 -5.03125 Z M 0.859375 -5.03125 "/></g></g></g><g fill="#343539" fill-opacity="1"><g transform="translate(117.421164, 24.906978)"><g><path d="M 2.375 -6.234375 L 2.375 -1.515625 C 2.375 -1.335938 2.425781 -1.195312 2.53125 -1.09375 C 2.632812 -1 2.816406 -0.953125 3.078125 -0.953125 L 3.546875 -0.953125 L 3.546875 0 C 3.097656 0.0625 2.789062 0.09375 2.625 0.09375 C 2.113281 0.09375 1.738281 -0.0234375 1.5 -0.265625 C 1.269531 -0.515625 1.15625 -0.910156 1.15625 -1.453125 L 1.15625 -6.234375 L 0.1875 -6.234375 L 0.1875 -7.234375 L 1.15625 -7.234375 L 1.15625 -9.265625 L 2.375 -9.265625 L 2.375 -7.234375 L 3.546875 -7.234375 L 3.546875 -6.234375 Z M 2.375 -6.234375 "/></g></g></g><g fill="#343539" fill-opacity="1"><g transform="translate(121.252428, 24.906978)"><g><path d="M 0.90625 -8.5625 L 0.90625 -9.9375 L 2.125 -9.9375 L 2.125 -8.5625 Z M 2.125 0 L 0.90625 0 L 0.90625 -7.234375 L 2.125 -7.234375 Z M 2.125 0 "/></g></g></g><g fill="#343539" fill-opacity="1"><g transform="translate(124.299873, 24.906978)"><g><path d="M 1.75 -3.625 C 1.75 -2.820312 1.929688 -2.160156 2.296875 -1.640625 C 2.671875 -1.117188 3.191406 -0.859375 3.859375 -0.859375 C 4.554688 -0.859375 5.082031 -1.128906 5.4375 -1.671875 C 5.800781 -2.222656 5.984375 -2.875 5.984375 -3.625 C 5.984375 -4.394531 5.800781 -5.046875 5.4375 -5.578125 C 5.082031 -6.109375 4.554688 -6.375 3.859375 -6.375 C 3.210938 -6.375 2.695312 -6.125 2.3125 -5.625 C 1.9375 -5.125 1.75 -4.457031 1.75 -3.625 Z M 0.515625 -3.625 C 0.515625 -4.707031 0.8125 -5.613281 1.40625 -6.34375 C 2.007812 -7.082031 2.828125 -7.453125 3.859375 -7.453125 C 4.910156 -7.453125 5.734375 -7.078125 6.328125 -6.328125 C 6.921875 -5.585938 7.21875 -4.6875 7.21875 -3.625 C 7.21875 -2.5625 6.921875 -1.65625 6.328125 -0.90625 C 5.742188 -0.164062 4.921875 0.203125 3.859375 0.203125 C 2.835938 0.203125 2.023438 -0.15625 1.421875 -0.875 C 0.816406 -1.601562 0.515625 -2.519531 0.515625 -3.625 Z M 0.515625 -3.625 "/></g></g></g><g fill="#343539" fill-opacity="1"><g transform="translate(132.036724, 24.906978)"><g><path d="M 6.8125 0 L 5.59375 0 L 5.59375 -4.453125 C 5.59375 -5.140625 5.472656 -5.628906 5.234375 -5.921875 C 4.992188 -6.210938 4.597656 -6.359375 4.046875 -6.359375 C 3.492188 -6.359375 3.035156 -6.148438 2.671875 -5.734375 C 2.304688 -5.316406 2.125 -4.722656 2.125 -3.953125 L 2.125 0 L 0.90625 0 L 0.90625 -7.234375 L 2.0625 -7.234375 L 2.0625 -6.21875 L 2.09375 -6.21875 C 2.664062 -7.039062 3.394531 -7.453125 4.28125 -7.453125 C 5.101562 -7.453125 5.726562 -7.234375 6.15625 -6.796875 C 6.59375 -6.359375 6.8125 -5.734375 6.8125 -4.921875 Z M 6.8125 0 "/></g></g></g><g fill="#343539" fill-opacity="1"><g transform="translate(139.672214, 24.906978)"><g><path d="M 5 -5.171875 C 4.976562 -5.609375 4.820312 -5.921875 4.53125 -6.109375 C 4.238281 -6.296875 3.820312 -6.390625 3.28125 -6.390625 C 2.882812 -6.390625 2.546875 -6.300781 2.265625 -6.125 C 1.984375 -5.957031 1.84375 -5.707031 1.84375 -5.375 C 1.84375 -5.113281 1.925781 -4.921875 2.09375 -4.796875 C 2.257812 -4.671875 2.617188 -4.539062 3.171875 -4.40625 L 4.375 -4.09375 C 5.101562 -3.90625 5.625 -3.664062 5.9375 -3.375 C 6.25 -3.09375 6.40625 -2.695312 6.40625 -2.1875 C 6.40625 -1.476562 6.144531 -0.898438 5.625 -0.453125 C 5.101562 -0.015625 4.410156 0.203125 3.546875 0.203125 C 2.523438 0.203125 1.753906 -0.00390625 1.234375 -0.421875 C 0.710938 -0.835938 0.453125 -1.472656 0.453125 -2.328125 L 1.625 -2.328125 C 1.644531 -1.828125 1.8125 -1.453125 2.125 -1.203125 C 2.4375 -0.960938 2.90625 -0.84375 3.53125 -0.84375 C 4.039062 -0.84375 4.441406 -0.941406 4.734375 -1.140625 C 5.035156 -1.347656 5.1875 -1.632812 5.1875 -2 C 5.1875 -2.25 5.085938 -2.453125 4.890625 -2.609375 C 4.703125 -2.765625 4.320312 -2.90625 3.75 -3.03125 L 2.34375 -3.375 C 1.769531 -3.519531 1.34375 -3.734375 1.0625 -4.015625 C 0.789062 -4.304688 0.65625 -4.679688 0.65625 -5.140625 C 0.65625 -5.847656 0.910156 -6.410156 1.421875 -6.828125 C 1.929688 -7.242188 2.597656 -7.453125 3.421875 -7.453125 C 4.296875 -7.453125 4.960938 -7.238281 5.421875 -6.8125 C 5.890625 -6.382812 6.140625 -5.835938 6.171875 -5.171875 Z M 5 -5.171875 "/></g></g></g></svg>