<svg xmlns="http://www.w3.org/2000/svg" xmlns:xlink="http://www.w3.org/1999/xlink" width="240" zoomAndPan="magnify" viewBox="0 0 180 42" height="56" preserveAspectRatio="xMidYMid meet" version="1.0"><defs><g/><clipPath id="1bcd09ca46"><path d="M 2.605469 1.527344 L 177.464844 1.527344 L 177.464844 39.496094 L 2.605469 39.496094 Z M 2.605469 1.527344 " clip-rule="nonzero"/></clipPath><clipPath id="b54aca8e0d"><path d="M 159.65625 1.527344 C 169.453125 1.527344 177.394531 10.027344 177.394531 20.511719 C 177.394531 30.996094 169.453125 39.496094 159.65625 39.496094 L 20.34375 39.496094 C 10.546875 39.496094 2.605469 30.996094 2.605469 20.511719 C 2.605469 10.027344 10.546875 1.527344 20.34375 1.527344 Z M 159.65625 1.527344 " clip-rule="nonzero"/></clipPath></defs><g clip-path="url(#1bcd09ca46)"><g clip-path="url(#b54aca8e0d)"><path fill="#bdfe00" d="M 2.605469 1.527344 L 177.464844 1.527344 L 177.464844 39.496094 L 2.605469 39.496094 Z M 2.605469 1.527344 " fill-opacity="1" fill-rule="nonzero"/></g></g><g fill="#343539" fill-opacity="1"><g transform="translate(31.810214, 24.906978)"><g><path d="M 8.453125 0 L 1.125 0 L 1.125 -9.9375 L 8.359375 -9.9375 L 8.359375 -8.75 L 2.46875 -8.75 L 2.46875 -5.703125 L 7.90625 -5.703125 L 7.90625 -4.515625 L 2.46875 -4.515625 L 2.46875 -1.1875 L 8.453125 -1.1875 Z M 8.453125 0 "/></g></g></g><g fill="#343539" fill-opacity="1"><g transform="translate(40.80388, 24.906978)"><g><path d="M 6.78125 0 L 5.21875 0 L 3.4375 -2.71875 L 1.6875 0 L 0.15625 0 L 2.6875 -3.71875 L 0.28125 -7.234375 L 1.828125 -7.234375 L 3.5 -4.6875 L 5.1875 -7.234375 L 6.671875 -7.234375 L 4.234375 -3.71875 Z M 6.78125 0 "/></g></g></g><g fill="#343539" fill-opacity="1"><g transform="translate(47.723121, 24.906978)"><g><path d="M 2.078125 -3.28125 C 2.078125 -2.5 2.265625 -1.894531 2.640625 -1.46875 C 3.015625 -1.050781 3.488281 -0.84375 4.0625 -0.84375 C 4.675781 -0.84375 5.15625 -1.09375 5.5 -1.59375 C 5.84375 -2.101562 6.015625 -2.785156 6.015625 -3.640625 C 6.015625 -4.585938 5.847656 -5.273438 5.515625 -5.703125 C 5.179688 -6.140625 4.6875 -6.359375 4.03125 -6.359375 C 3.382812 -6.359375 2.894531 -6.101562 2.5625 -5.59375 C 2.238281 -5.082031 2.078125 -4.3125 2.078125 -3.28125 Z M 0.90625 -7.234375 L 2.0625 -7.234375 L 2.0625 -6.21875 L 2.09375 -6.21875 C 2.601562 -7.039062 3.320312 -7.453125 4.25 -7.453125 C 5.1875 -7.453125 5.921875 -7.113281 6.453125 -6.4375 C 6.992188 -5.757812 7.265625 -4.890625 7.265625 -3.828125 C 7.265625 -2.648438 6.988281 -1.679688 6.4375 -0.921875 C 5.894531 -0.171875 5.109375 0.203125 4.078125 0.203125 C 3.242188 0.203125 2.601562 -0.117188 2.15625 -0.765625 L 2.125 -0.765625 L 2.125 2.859375 L 0.90625 2.859375 Z M 0.90625 -7.234375 "/></g></g></g><g fill="#343539" fill-opacity="1"><g transform="translate(55.541057, 24.906978)"><g><path d="M 2.125 0 L 0.90625 0 L 0.90625 -7.234375 L 2.0625 -7.234375 L 2.0625 -6.03125 L 2.09375 -6.03125 C 2.613281 -6.976562 3.289062 -7.453125 4.125 -7.453125 C 4.25 -7.453125 4.351562 -7.4375 4.4375 -7.40625 L 4.4375 -6.140625 L 3.984375 -6.140625 C 3.441406 -6.140625 2.992188 -5.953125 2.640625 -5.578125 C 2.296875 -5.210938 2.125 -4.757812 2.125 -4.21875 Z M 2.125 0 "/></g></g></g><g fill="#343539" fill-opacity="1"><g transform="translate(60.048029, 24.906978)"><g><path d="M 5.875 -4.203125 C 5.8125 -4.984375 5.601562 -5.535156 5.25 -5.859375 C 4.90625 -6.191406 4.441406 -6.359375 3.859375 -6.359375 C 3.265625 -6.359375 2.785156 -6.148438 2.421875 -5.734375 C 2.066406 -5.316406 1.878906 -4.804688 1.859375 -4.203125 Z M 7.046875 -2.265625 C 6.910156 -1.523438 6.539062 -0.90625 5.9375 -0.40625 C 5.414062 0 4.722656 0.207031 3.859375 0.21875 C 2.847656 0.207031 2.039062 -0.117188 1.4375 -0.765625 C 0.84375 -1.421875 0.546875 -2.304688 0.546875 -3.421875 C 0.546875 -4.691406 0.851562 -5.679688 1.46875 -6.390625 C 2.082031 -7.097656 2.9375 -7.453125 4.03125 -7.453125 C 5.007812 -7.453125 5.769531 -7.085938 6.3125 -6.359375 C 6.863281 -5.628906 7.140625 -4.582031 7.140625 -3.21875 L 1.859375 -3.21875 C 1.859375 -2.46875 2.03125 -1.882812 2.375 -1.46875 C 2.726562 -1.050781 3.257812 -0.84375 3.96875 -0.84375 C 4.457031 -0.84375 4.878906 -0.992188 5.234375 -1.296875 C 5.585938 -1.597656 5.785156 -1.921875 5.828125 -2.265625 Z M 7.046875 -2.265625 "/></g></g></g><g fill="#343539" fill-opacity="1"><g transform="translate(67.717309, 24.906978)"><g><path d="M 5 -5.171875 C 4.976562 -5.609375 4.820312 -5.921875 4.53125 -6.109375 C 4.238281 -6.296875 3.820312 -6.390625 3.28125 -6.390625 C 2.882812 -6.390625 2.546875 -6.300781 2.265625 -6.125 C 1.984375 -5.957031 1.84375 -5.707031 1.84375 -5.375 C 1.84375 -5.113281 1.925781 -4.921875 2.09375 -4.796875 C 2.257812 -4.671875 2.617188 -4.539062 3.171875 -4.40625 L 4.375 -4.09375 C 5.101562 -3.90625 5.625 -3.664062 5.9375 -3.375 C 6.25 -3.09375 6.40625 -2.695312 6.40625 -2.1875 C 6.40625 -1.476562 6.144531 -0.898438 5.625 -0.453125 C 5.101562 -0.015625 4.410156 0.203125 3.546875 0.203125 C 2.523438 0.203125 1.753906 -0.00390625 1.234375 -0.421875 C 0.710938 -0.835938 0.453125 -1.472656 0.453125 -2.328125 L 1.625 -2.328125 C 1.644531 -1.828125 1.8125 -1.453125 2.125 -1.203125 C 2.4375 -0.960938 2.90625 -0.84375 3.53125 -0.84375 C 4.039062 -0.84375 4.441406 -0.941406 4.734375 -1.140625 C 5.035156 -1.347656 5.1875 -1.632812 5.1875 -2 C 5.1875 -2.25 5.085938 -2.453125 4.890625 -2.609375 C 4.703125 -2.765625 4.320312 -2.90625 3.75 -3.03125 L 2.34375 -3.375 C 1.769531 -3.519531 1.34375 -3.734375 1.0625 -4.015625 C 0.789062 -4.304688 0.65625 -4.679688 0.65625 -5.140625 C 0.65625 -5.847656 0.910156 -6.410156 1.421875 -6.828125 C 1.929688 -7.242188 2.597656 -7.453125 3.421875 -7.453125 C 4.296875 -7.453125 4.960938 -7.238281 5.421875 -6.8125 C 5.890625 -6.382812 6.140625 -5.835938 6.171875 -5.171875 Z M 5 -5.171875 "/></g></g></g><g fill="#343539" fill-opacity="1"><g transform="translate(74.63655, 24.906978)"><g><path d="M 5 -5.171875 C 4.976562 -5.609375 4.820312 -5.921875 4.53125 -6.109375 C 4.238281 -6.296875 3.820312 -6.390625 3.28125 -6.390625 C 2.882812 -6.390625 2.546875 -6.300781 2.265625 -6.125 C 1.984375 -5.957031 1.84375 -5.707031 1.84375 -5.375 C 1.84375 -5.113281 1.925781 -4.921875 2.09375 -4.796875 C 2.257812 -4.671875 2.617188 -4.539062 3.171875 -4.40625 L 4.375 -4.09375 C 5.101562 -3.90625 5.625 -3.664062 5.9375 -3.375 C 6.25 -3.09375 6.40625 -2.695312 6.40625 -2.1875 C 6.40625 -1.476562 6.144531 -0.898438 5.625 -0.453125 C 5.101562 -0.015625 4.410156 0.203125 3.546875 0.203125 C 2.523438 0.203125 1.753906 -0.00390625 1.234375 -0.421875 C 0.710938 -0.835938 0.453125 -1.472656 0.453125 -2.328125 L 1.625 -2.328125 C 1.644531 -1.828125 1.8125 -1.453125 2.125 -1.203125 C 2.4375 -0.960938 2.90625 -0.84375 3.53125 -0.84375 C 4.039062 -0.84375 4.441406 -0.941406 4.734375 -1.140625 C 5.035156 -1.347656 5.1875 -1.632812 5.1875 -2 C 5.1875 -2.25 5.085938 -2.453125 4.890625 -2.609375 C 4.703125 -2.765625 4.320312 -2.90625 3.75 -3.03125 L 2.34375 -3.375 C 1.769531 -3.519531 1.34375 -3.734375 1.0625 -4.015625 C 0.789062 -4.304688 0.65625 -4.679688 0.65625 -5.140625 C 0.65625 -5.847656 0.910156 -6.410156 1.421875 -6.828125 C 1.929688 -7.242188 2.597656 -7.453125 3.421875 -7.453125 C 4.296875 -7.453125 4.960938 -7.238281 5.421875 -6.8125 C 5.890625 -6.382812 6.140625 -5.835938 6.171875 -5.171875 Z M 5 -5.171875 "/></g></g></g><g fill="#343539" fill-opacity="1"><g transform="translate(81.55579, 24.906978)"><g/></g></g><g fill="#343539" fill-opacity="1"><g transform="translate(84.934325, 24.906978)"><g><path d="M 2.375 -6.234375 L 2.375 -1.515625 C 2.375 -1.335938 2.425781 -1.195312 2.53125 -1.09375 C 2.632812 -1 2.816406 -0.953125 3.078125 -0.953125 L 3.546875 -0.953125 L 3.546875 0 C 3.097656 0.0625 2.789062 0.09375 2.625 0.09375 C 2.113281 0.09375 1.738281 -0.0234375 1.5 -0.265625 C 1.269531 -0.515625 1.15625 -0.910156 1.15625 -1.453125 L 1.15625 -6.234375 L 0.1875 -6.234375 L 0.1875 -7.234375 L 1.15625 -7.234375 L 1.15625 -9.265625 L 2.375 -9.265625 L 2.375 -7.234375 L 3.546875 -7.234375 L 3.546875 -6.234375 Z M 2.375 -6.234375 "/></g></g></g><g fill="#343539" fill-opacity="1"><g transform="translate(88.76559, 24.906978)"><g><path d="M 2.125 0 L 0.90625 0 L 0.90625 -7.234375 L 2.0625 -7.234375 L 2.0625 -6.03125 L 2.09375 -6.03125 C 2.613281 -6.976562 3.289062 -7.453125 4.125 -7.453125 C 4.25 -7.453125 4.351562 -7.4375 4.4375 -7.40625 L 4.4375 -6.140625 L 3.984375 -6.140625 C 3.441406 -6.140625 2.992188 -5.953125 2.640625 -5.578125 C 2.296875 -5.210938 2.125 -4.757812 2.125 -4.21875 Z M 2.125 0 "/></g></g></g><g fill="#343539" fill-opacity="1"><g transform="translate(93.272562, 24.906978)"><g><path d="M 5.875 -4.203125 C 5.8125 -4.984375 5.601562 -5.535156 5.25 -5.859375 C 4.90625 -6.191406 4.441406 -6.359375 3.859375 -6.359375 C 3.265625 -6.359375 2.785156 -6.148438 2.421875 -5.734375 C 2.066406 -5.316406 1.878906 -4.804688 1.859375 -4.203125 Z M 7.046875 -2.265625 C 6.910156 -1.523438 6.539062 -0.90625 5.9375 -0.40625 C 5.414062 0 4.722656 0.207031 3.859375 0.21875 C 2.847656 0.207031 2.039062 -0.117188 1.4375 -0.765625 C 0.84375 -1.421875 0.546875 -2.304688 0.546875 -3.421875 C 0.546875 -4.691406 0.851562 -5.679688 1.46875 -6.390625 C 2.082031 -7.097656 2.9375 -7.453125 4.03125 -7.453125 C 5.007812 -7.453125 5.769531 -7.085938 6.3125 -6.359375 C 6.863281 -5.628906 7.140625 -4.582031 7.140625 -3.21875 L 1.859375 -3.21875 C 1.859375 -2.46875 2.03125 -1.882812 2.375 -1.46875 C 2.726562 -1.050781 3.257812 -0.84375 3.96875 -0.84375 C 4.457031 -0.84375 4.878906 -0.992188 5.234375 -1.296875 C 5.585938 -1.597656 5.785156 -1.921875 5.828125 -2.265625 Z M 7.046875 -2.265625 "/></g></g></g><g fill="#343539" fill-opacity="1"><g transform="translate(100.941842, 24.906978)"><g><path d="M 5.3125 -3.703125 C 5.21875 -3.609375 5.039062 -3.53125 4.78125 -3.46875 C 4.519531 -3.40625 4.03125 -3.328125 3.3125 -3.234375 C 2.78125 -3.171875 2.382812 -3.039062 2.125 -2.84375 C 1.875 -2.644531 1.75 -2.382812 1.75 -2.0625 C 1.75 -1.664062 1.851562 -1.351562 2.0625 -1.125 C 2.28125 -0.90625 2.625 -0.796875 3.09375 -0.796875 C 3.675781 -0.796875 4.191406 -0.960938 4.640625 -1.296875 C 5.085938 -1.628906 5.3125 -2.035156 5.3125 -2.515625 Z M 0.859375 -5.03125 C 0.890625 -5.851562 1.15625 -6.460938 1.65625 -6.859375 C 2.15625 -7.253906 2.882812 -7.453125 3.84375 -7.453125 C 4.613281 -7.453125 5.253906 -7.273438 5.765625 -6.921875 C 6.285156 -6.578125 6.546875 -6.078125 6.546875 -5.421875 L 6.546875 -1.25 C 6.546875 -0.96875 6.675781 -0.828125 6.9375 -0.828125 C 7.039062 -0.828125 7.171875 -0.847656 7.328125 -0.890625 L 7.328125 0 C 7.109375 0.09375 6.878906 0.140625 6.640625 0.140625 C 6.222656 0.140625 5.914062 0.0507812 5.71875 -0.125 C 5.519531 -0.3125 5.414062 -0.59375 5.40625 -0.96875 C 4.707031 -0.1875 3.832031 0.203125 2.78125 0.203125 C 2.09375 0.203125 1.539062 0.0078125 1.125 -0.375 C 0.71875 -0.757812 0.515625 -1.265625 0.515625 -1.890625 C 0.515625 -2.523438 0.691406 -3.035156 1.046875 -3.421875 C 1.410156 -3.816406 1.9375 -4.054688 2.625 -4.140625 L 4.78125 -4.40625 C 5.164062 -4.457031 5.359375 -4.742188 5.359375 -5.265625 C 5.359375 -5.640625 5.21875 -5.925781 4.9375 -6.125 C 4.65625 -6.332031 4.226562 -6.4375 3.65625 -6.4375 C 3.144531 -6.4375 2.753906 -6.320312 2.484375 -6.09375 C 2.210938 -5.875 2.050781 -5.519531 2 -5.03125 Z M 0.859375 -5.03125 "/></g></g></g><g fill="#343539" fill-opacity="1"><g transform="translate(108.543552, 24.906978)"><g><path d="M 2.375 -6.234375 L 2.375 -1.515625 C 2.375 -1.335938 2.425781 -1.195312 2.53125 -1.09375 C 2.632812 -1 2.816406 -0.953125 3.078125 -0.953125 L 3.546875 -0.953125 L 3.546875 0 C 3.097656 0.0625 2.789062 0.09375 2.625 0.09375 C 2.113281 0.09375 1.738281 -0.0234375 1.5 -0.265625 C 1.269531 -0.515625 1.15625 -0.910156 1.15625 -1.453125 L 1.15625 -6.234375 L 0.1875 -6.234375 L 0.1875 -7.234375 L 1.15625 -7.234375 L 1.15625 -9.265625 L 2.375 -9.265625 L 2.375 -7.234375 L 3.546875 -7.234375 L 3.546875 -6.234375 Z M 2.375 -6.234375 "/></g></g></g><g fill="#343539" fill-opacity="1"><g transform="translate(112.374817, 24.906978)"><g><path d="M 0.90625 -7.234375 L 2.0625 -7.234375 L 2.0625 -6.21875 L 2.09375 -6.21875 C 2.632812 -7.039062 3.363281 -7.453125 4.28125 -7.453125 C 5.1875 -7.453125 5.828125 -7.054688 6.203125 -6.265625 C 6.546875 -6.691406 6.878906 -6.992188 7.203125 -7.171875 C 7.535156 -7.359375 7.941406 -7.453125 8.421875 -7.453125 C 9.046875 -7.453125 9.570312 -7.242188 10 -6.828125 C 10.4375 -6.421875 10.65625 -5.816406 10.65625 -5.015625 L 10.65625 0 L 9.4375 0 L 9.4375 -4.671875 C 9.4375 -5.234375 9.332031 -5.65625 9.125 -5.9375 C 8.914062 -6.21875 8.570312 -6.359375 8.09375 -6.359375 C 7.613281 -6.359375 7.207031 -6.160156 6.875 -5.765625 C 6.550781 -5.378906 6.390625 -4.925781 6.390625 -4.40625 L 6.390625 0 L 5.171875 0 L 5.171875 -5.015625 C 5.171875 -5.429688 5.070312 -5.757812 4.875 -6 C 4.6875 -6.238281 4.410156 -6.359375 4.046875 -6.359375 C 3.460938 -6.359375 2.992188 -6.140625 2.640625 -5.703125 C 2.296875 -5.273438 2.125 -4.691406 2.125 -3.953125 L 2.125 0 L 0.90625 0 Z M 0.90625 -7.234375 "/></g></g></g><g fill="#343539" fill-opacity="1"><g transform="translate(123.861837, 24.906978)"><g><path d="M 5.875 -4.203125 C 5.8125 -4.984375 5.601562 -5.535156 5.25 -5.859375 C 4.90625 -6.191406 4.441406 -6.359375 3.859375 -6.359375 C 3.265625 -6.359375 2.785156 -6.148438 2.421875 -5.734375 C 2.066406 -5.316406 1.878906 -4.804688 1.859375 -4.203125 Z M 7.046875 -2.265625 C 6.910156 -1.523438 6.539062 -0.90625 5.9375 -0.40625 C 5.414062 0 4.722656 0.207031 3.859375 0.21875 C 2.847656 0.207031 2.039062 -0.117188 1.4375 -0.765625 C 0.84375 -1.421875 0.546875 -2.304688 0.546875 -3.421875 C 0.546875 -4.691406 0.851562 -5.679688 1.46875 -6.390625 C 2.082031 -7.097656 2.9375 -7.453125 4.03125 -7.453125 C 5.007812 -7.453125 5.769531 -7.085938 6.3125 -6.359375 C 6.863281 -5.628906 7.140625 -4.582031 7.140625 -3.21875 L 1.859375 -3.21875 C 1.859375 -2.46875 2.03125 -1.882812 2.375 -1.46875 C 2.726562 -1.050781 3.257812 -0.84375 3.96875 -0.84375 C 4.457031 -0.84375 4.878906 -0.992188 5.234375 -1.296875 C 5.585938 -1.597656 5.785156 -1.921875 5.828125 -2.265625 Z M 7.046875 -2.265625 "/></g></g></g><g fill="#343539" fill-opacity="1"><g transform="translate(131.531118, 24.906978)"><g><path d="M 6.8125 0 L 5.59375 0 L 5.59375 -4.453125 C 5.59375 -5.140625 5.472656 -5.628906 5.234375 -5.921875 C 4.992188 -6.210938 4.597656 -6.359375 4.046875 -6.359375 C 3.492188 -6.359375 3.035156 -6.148438 2.671875 -5.734375 C 2.304688 -5.316406 2.125 -4.722656 2.125 -3.953125 L 2.125 0 L 0.90625 0 L 0.90625 -7.234375 L 2.0625 -7.234375 L 2.0625 -6.21875 L 2.09375 -6.21875 C 2.664062 -7.039062 3.394531 -7.453125 4.28125 -7.453125 C 5.101562 -7.453125 5.726562 -7.234375 6.15625 -6.796875 C 6.59375 -6.359375 6.8125 -5.734375 6.8125 -4.921875 Z M 6.8125 0 "/></g></g></g><g fill="#343539" fill-opacity="1"><g transform="translate(139.166608, 24.906978)"><g><path d="M 2.375 -6.234375 L 2.375 -1.515625 C 2.375 -1.335938 2.425781 -1.195312 2.53125 -1.09375 C 2.632812 -1 2.816406 -0.953125 3.078125 -0.953125 L 3.546875 -0.953125 L 3.546875 0 C 3.097656 0.0625 2.789062 0.09375 2.625 0.09375 C 2.113281 0.09375 1.738281 -0.0234375 1.5 -0.265625 C 1.269531 -0.515625 1.15625 -0.910156 1.15625 -1.453125 L 1.15625 -6.234375 L 0.1875 -6.234375 L 0.1875 -7.234375 L 1.15625 -7.234375 L 1.15625 -9.265625 L 2.375 -9.265625 L 2.375 -7.234375 L 3.546875 -7.234375 L 3.546875 -6.234375 Z M 2.375 -6.234375 "/></g></g></g></svg>