<svg xmlns="http://www.w3.org/2000/svg" width="64" height="64" viewBox="0 0 64 64" fill="none"><path d="M30 48C33.6264 47.8433 37.1131 46.6048 39.979 44.4555C42.8448 42.3061 44.9486 39.3517 46 36" stroke="#ff5722" stroke-miterlimit="10"/><path d="M15.1626 20C13.9065 21.876 12.9959 24.0081 12.4829 26.2743C11.9698 28.5406 11.8643 30.8967 12.1725 33.2082C12.4806 35.5197 13.1963 37.7412 14.2788 39.7459C15.3612 41.7507 16.7891 43.4994 18.481 44.8922C18.9678 45.2934 19.475 45.6632 20 46" stroke="#ff5722" stroke-miterlimit="10"/><path d="M45.9992 26C44.614 21.7276 41.444 18.1372 37.1865 16.0187C32.9291 13.9003 27.9328 13.4272 23.2969 14.7036" stroke="#ff5722" stroke-miterlimit="10"/><path d="M25 52C27.7614 52 30 49.7614 30 47C30 44.2386 27.7614 42 25 42C22.2386 42 20 44.2386 20 47C20 49.7614 22.2386 52 25 52Z" stroke="#ff5722" stroke-miterlimit="10"/><path d="M47 36C49.7614 36 52 33.7614 52 31C52 28.2386 49.7614 26 47 26C44.2386 26 42 28.2386 42 31C42 33.7614 44.2386 36 47 36Z" stroke="#ff5722" stroke-miterlimit="10"/><path d="M19 22C21.7614 22 24 19.7614 24 17C24 14.2386 21.7614 12 19 12C16.2386 12 14 14.2386 14 17C14 19.7614 16.2386 22 19 22Z" stroke="#ff5722" stroke-miterlimit="10"/></svg>