<?xml version="1.0" encoding="UTF-8"?><svg id="Layer_2" xmlns="http://www.w3.org/2000/svg" width="2400" height="1440" viewBox="0 0 2400 1440"><g id="_Layer_"><g id="Layer_16"><g><rect width="480" height="480" style="fill:none;"/><rect width="480" height="480" style="fill:#bbb1ac;"/><path d="M0,240V0H240V480C107.4515,480,0,372.5485,0,240Z" style="fill:#e6e7e9;"/><path d="M480,240v240H240V0c132.5485,0,240,107.4515,240,240Z" style="fill:#bbb1ac;"/><circle cx="360" cy="360" r="120" style="fill:#e6e7e9;"/><circle cx="120" cy="120" r="120" style="fill:#bbb1ac;"/></g><g><rect y="480" width="480" height="480" style="fill:none;"/><rect y="480" width="480" height="480" style="fill:#e6e7e9;"/><path d="M480,719.9995c0-132.548-107.451-239.9995-239.9995-239.9995h-.0005v240h240v-.0005Z" style="fill:#bbb1ac;"/><path d="M240,720v-240H0c0,132.5485,107.4515,240,240,240Z" style="fill:#bbb1ac;"/><circle cx="120" cy="840" r="120" style="fill:#bbb1ac;"/><path d="M240,720c0,132.5485,107.4515,240,240,240v-240H240Z" style="fill:#bbb1ac;"/></g><g><rect y="960" width="480" height="480" style="fill:none;"/><rect y="960" width="480" height="480" style="fill:#e6e7e9;"/><path d="M239.9995,1440c-132.548,0-239.9995-107.451-239.9995-239.9995v-.0005H240v240h-.0005Z" style="fill:#e6e7e9;"/><path d="M240,1200H0v-240c132.5485,0,240,107.4515,240,240Z" style="fill:#bbb1ac;"/><circle cx="360" cy="1080" r="120" style="fill:#e6e7e9;"/><path d="M240,1200c132.5485,0,240,107.4515,240,240H240v-240Z" style="fill:#bbb1ac;"/></g><g><rect x="480" width="480" height="480" style="fill:none;"/><rect x="480" width="480" height="480" style="fill:#bbb1ac;"/><path d="M480,239.9995C480,107.4515,587.451,0,719.9995,0h.0005V240h-240v-.0005Z" style="fill:#bbb1ac;"/><path d="M720,240V0h240c0,132.5485-107.4515,240-240,240Z" style="fill:#e6e7e9;"/><circle cx="840" cy="360" r="120" style="fill:#bbb1ac;"/><path d="M720,240c0,132.5485-107.4515,240-240,240V240h240Z" style="fill:#e6e7e9;"/></g><g><rect x="480" y="480" width="480" height="480" style="fill:none;"/><rect x="480" y="480" width="480" height="480" style="fill:#bbb1ac;"/><path d="M480,720.0005c0,132.548,107.451,239.9995,239.9995,239.9995h.0005v-240h-240v.0005Z" style="fill:#e6e7e9;"/><path d="M720,720v240h240c0-132.5485-107.4515-240-240-240Z" style="fill:#e6e7e9;"/><circle cx="840" cy="600" r="120" style="fill:#e6e7e9;"/><path d="M720,720c0-132.5485-107.4515-240-240-240v240h240Z" style="fill:#e6e7e9;"/></g><g><rect x="480" y="960" width="480" height="480" style="fill:none;"/><rect x="480" y="960" width="480" height="480" style="fill:#e6e7e9;"/><path d="M480,1199.9995c0-132.548,107.451-239.9995,239.9995-239.9995h.0005v240h-240v-.0005Z" style="fill:#bbb1ac;"/><path d="M720,1200v-240h240c0,132.5485-107.4515,240-240,240Z" style="fill:#bbb1ac;"/><circle cx="840" cy="1320" r="120" style="fill:#bbb1ac;"/><path d="M720,1200c0,132.5485-107.4515,240-240,240v-240h240Z" style="fill:#bbb1ac;"/></g><g><rect x="960" width="480" height="480" style="fill:none;"/><rect x="960" width="480" height="480" style="fill:#bbb1ac;"/><path d="M1200.0005,480c132.548,0,239.9995-107.451,239.9995-239.9995v-.0005h-240v240h.0005Z" style="fill:#e6e7e9;"/><path d="M1200,240h240V0c-132.5485,0-240,107.4515-240,240Z" style="fill:#e6e7e9;"/><circle cx="1080" cy="120" r="120" style="fill:#e6e7e9;"/><path d="M1200,240c-132.5485,0-240,107.4515-240,240h240V240Z" style="fill:#e6e7e9;"/></g><g><rect x="960" y="480" width="480" height="480" style="fill:none;"/><rect x="960" y="480" width="480" height="480" style="fill:#e6e7e9;"/><path d="M1199.9995,960c-132.548,0-239.9995-107.451-239.9995-239.9995v-.0005h240v240h-.0005Z" style="fill:#bbb1ac;"/><path d="M1200,720h-240v-240c132.5485,0,240,107.4515,240,240Z" style="fill:#e6e7e9;"/><circle cx="1320" cy="600" r="120" style="fill:#bbb1ac;"/><path d="M1200,720c132.5485,0,240,107.4515,240,240h-240v-240Z" style="fill:#bbb1ac;"/></g><g><rect x="960" y="960" width="480" height="480" style="fill:none;"/><rect x="960" y="960" width="480" height="480" style="fill:#bbb1ac;"/><path d="M1440,1200.0005c0,132.548-107.451,239.9995-239.9995,239.9995h-.0005v-240h240v.0005Z" style="fill:#bbb1ac;"/><path d="M1200,1200v240h-240c0-132.5485,107.4515-240,240-240Z" style="fill:#e6e7e9;"/><circle cx="1080" cy="1080" r="120" style="fill:#bbb1ac;"/><path d="M1200,1200c0-132.5485,107.4515-240,240-240v240h-240Z" style="fill:#e6e7e9;"/></g><g><rect x="1440" width="480" height="480" style="fill:none;"/><rect x="1440" width="480" height="480" style="fill:#bbb1ac;"/><path d="M1440,240.0005c0,132.548,107.451,239.9995,239.9995,239.9995h.0005V240h-240v.0005Z" style="fill:#e6e7e9;"/><path d="M1680,240v240h240c0-132.5485-107.4515-240-240-240Z" style="fill:#bbb1ac;"/><circle cx="1800" cy="120" r="120" style="fill:#e6e7e9;"/><path d="M1680,240c0-132.5485-107.4515-240-240-240V240h240Z" style="fill:#e6e7e9;"/></g><g><rect x="1440" y="480" width="480" height="480" style="fill:none;"/><rect x="1440" y="480" width="480" height="480" style="fill:#bbb1ac;"/><path d="M1680.0005,480c132.548,0,239.9995,107.451,239.9995,239.9995v.0005h-240v-240h.0005Z" style="fill:#e6e7e9;"/><path d="M1680,720h240v240c-132.5485,0-240-107.4515-240-240Z" style="fill:#e6e7e9;"/><circle cx="1560" cy="840" r="120" style="fill:#e6e7e9;"/><path d="M1680,720c-132.5485,0-240-107.4515-240-240h240v240Z" style="fill:#bbb1ac;"/></g><g><rect x="1440" y="960" width="480" height="480" style="fill:none;"/><rect x="1440" y="960" width="480" height="480" style="fill:#e6e7e9;"/><path d="M1680.0005,960c132.548,0,239.9995,107.451,239.9995,239.9995v.0005h-240v-240h.0005Z" style="fill:#bbb1ac;"/><path d="M1680,1200h240v240c-132.5485,0-240-107.4515-240-240Z" style="fill:#bbb1ac;"/><circle cx="1560" cy="1320" r="120" style="fill:#bbb1ac;"/><path d="M1680,1200c-132.5485,0-240-107.4515-240-240h240v240Z" style="fill:#e6e7e9;"/></g><g><rect x="1920" width="480" height="480" style="fill:none;"/><rect x="1920" width="480" height="480" style="fill:#e6e7e9;"/><path d="M1920,239.9995c0-132.548,107.4509-239.9995,239.9994-239.9995h.0006V240h-240v-.0005Z" style="fill:#bbb1ac;"/><path d="M2160,240V0h240c0,132.5485-107.4516,240-240,240Z" style="fill:#e6e7e9;"/><circle cx="2280" cy="360" r="120" style="fill:#bbb1ac;"/><path d="M2160,240c0,132.5485-107.4516,240-240,240V240h240Z" style="fill:#bbb1ac;"/></g><g><rect x="1920" y="480" width="480" height="480" style="fill:none;"/><rect x="1920" y="480" width="480" height="480" style="fill:#e6e7e9;"/><path d="M2160.0004,480c132.548,0,239.9996,107.451,239.9996,239.9995v.0005h-240v-240h.0004Z" style="fill:#bbb1ac;"/><path d="M2160,720h240v240c-132.5486,0-240-107.4515-240-240Z" style="fill:#e6e7e9;"/><circle cx="2040" cy="840" r="120" style="fill:#bbb1ac;"/><path d="M2160,720c-132.5486,0-240-107.4515-240-240h240v240Z" style="fill:#bbb1ac;"/></g><g><rect x="1920" y="960" width="480" height="480" style="fill:none;"/><rect x="1920" y="960" width="480" height="480" style="fill:#e6e7e9;"/><path d="M2400,1200.0005c0,132.548-107.4511,239.9995-239.9996,239.9995h-.0004v-240h240v.0005Z" style="fill:#e6e7e9;"/><path d="M2160,1200v240h-240c0-132.5485,107.4514-240,240-240Z" style="fill:#bbb1ac;"/><circle cx="2040" cy="1080" r="120" style="fill:#e6e7e9;"/><path d="M2160,1200c0-132.5485,107.4514-240,240-240v240h-240Z" style="fill:#bbb1ac;"/></g></g></g></svg>