<?xml version="1.0" encoding="utf-8"?>
<!-- Generator: Adobe Illustrator 25.4.1, SVG Export Plug-In . SVG Version: 6.00 Build 0)  -->
<svg xmlns="http://www.w3.org/2000/svg" viewBox="5.2 9.7 20.8 10.8">
  <path d="M6.6,17.9c1,0.9,2.3,1.3,3.6,1.2c2.8,0,4.7-1.4,4.7-3.3c0-0.9-0.8-1.7-1.7-1.7H7.2c-0.3,0-0.5-0.2-0.5-0.5
		c0-0.3,0.2-0.5,0.5-0.5h6.6c0.3,0,0.5,0.2,0.5,0.5h0.7c0-1-0.4-1.9-1.1-2.6c-1-0.9-2.3-1.3-3.6-1.2c-2.8,0-4.7,1.4-4.7,3.3
		c0,0.9,0.8,1.7,1.7,1.7h6.1c0.3,0,0.5,0.2,0.5,0.5c0,0.3-0.2,0.5-0.5,0.5H6.7c-0.3,0-0.5-0.2-0.5-0.5H5.5
		C5.5,16.3,5.9,17.2,6.6,17.9z"/>
</svg>

