<svg width="384" height="400" viewBox="0 0 384 400" fill="none" xmlns="http://www.w3.org/2000/svg">
<path d="M138.697 155.191H78.3234C35.8951 155.191 1.5 120.786 1.5 78.3456C1.5 35.9048 35.8951 1.49999 78.3234 1.5L289.237 1.50005C331.665 1.50006 366.06 35.9048 366.06 78.3456C366.06 120.786 331.665 155.191 289.237 155.191H272.035C260.385 155.191 250.941 164.638 250.941 176.291C250.941 187.944 260.385 197.391 272.035 197.391H341.692C364.23 197.391 382.5 215.666 382.5 238.21C382.5 260.755 364.23 279.03 341.692 279.03H313.403C303.739 279.03 295.98 287.009 296.247 296.672C296.504 305.965 304.109 313.365 313.403 313.365H324.595C339.451 313.365 351.495 325.412 351.495 340.273V376.707C351.495 388.743 341.741 398.5 329.709 398.5C317.677 398.5 307.922 388.743 307.922 376.707V374.112C307.922 360.091 296.559 348.724 282.542 348.724H212.661C197.509 348.724 185.226 336.438 185.226 321.282C185.226 306.125 197.509 293.839 212.661 293.839H232.583C242.87 293.839 251.208 285.498 251.208 275.208C251.208 264.919 242.87 256.577 232.583 256.577H117.087C100.478 256.577 87.013 243.109 87.013 226.495C87.013 209.88 100.478 196.412 117.087 196.412H144.066C155.445 196.412 164.67 187.184 164.67 175.801C164.67 164.419 155.452 155.191 144.072 155.191H144.062H144.052H144.043H144.033H144.023H144.013H144.003H143.993H143.983H143.973H143.964H143.954H143.944H143.934H143.924H143.914H143.904H143.894H143.884H143.874H143.865H143.855H143.845H143.835H143.825H143.815H143.805H143.795H143.785H143.775H143.765H143.755H143.745H143.736H143.726H143.716H143.706H143.696H143.686H143.676H143.666H143.656H143.646H143.636H143.626H143.616H143.606H143.596H143.586H143.576H143.566H143.556H143.546H143.536H143.526H143.516H143.506H143.496H143.486H143.476H143.466H143.456H143.446H143.436H143.426H143.416H143.406H143.396H143.386H143.376H143.366H143.356H143.346H143.336H143.326H143.316H143.306H143.296H143.286H143.275H143.265H143.255H143.245H143.235H143.225H143.215H143.205H143.195H143.185H143.175H143.165H143.155H143.145H143.134H143.124H143.114H143.104H143.094H143.084H143.074H143.064H143.054H143.044H143.033H143.023H143.013H143.003H142.993H142.983H142.973H142.962H142.952H142.942H142.932H142.922H142.912H142.902H142.891H142.881H142.871H142.861H142.851H142.841H142.831H142.82H142.81H142.8H142.79H142.78H142.769H142.759H142.749H142.739H142.729H142.719H142.708H142.698H142.688H142.678H142.668H142.657H142.647H142.637H142.627H142.616H142.606H142.596H142.586H142.576H142.565H142.555H142.545H142.535H142.524H142.514H142.504H142.494H142.483H142.473H142.463H142.453H142.442H142.432H142.422H142.412H142.401H142.391H142.381H142.37H142.36H142.35H142.34H142.329H142.319H142.309H142.298H142.288H142.278H142.268H142.257H142.247H142.237H142.226H142.216H142.206H142.195H142.185H142.175H142.164H142.154H142.144H142.133H142.123H142.113H142.102H142.092H142.082H142.071H142.061H142.051H142.04H142.03H142.02H142.009H141.999H141.988H141.978H141.968H141.957H141.947H141.937H141.926H141.916H141.905H141.895H141.885H141.874H141.864H141.853H141.843H141.833H141.822H141.812H141.801H141.791H141.78H141.77H141.76H141.749H141.739H141.728H141.718H141.707H141.697H141.687H141.676H141.666H141.655H141.645H141.634H141.624H141.613H141.603H141.592H141.582H141.572H141.561H141.551H141.54H141.53H141.519H141.509H141.498H141.488H141.477H141.467H141.456H141.446H141.435H141.425H141.414H141.404H141.393H141.383H141.372H141.362H141.351H141.341H141.33H141.32H141.309H141.298H141.288H141.277H141.267H141.256H141.246H141.235H141.225H141.214H141.203H141.193H141.182H141.172H141.161H141.151H141.14H141.13H141.119H141.108H141.098H141.087H141.077H141.066H141.055H141.045H141.034H141.024H141.013H141.002H140.992H140.981H140.971H140.96H140.949H140.939H140.928H140.917H140.907H140.896H140.886H140.875H140.864H140.854H140.843H140.832H140.822H140.811H140.8H140.79H140.779H140.768H140.758H140.747H140.736H140.726H140.715H140.704H140.694H140.683H140.672H140.662H140.651H140.64H140.63H140.619H140.608H140.598H140.587H140.576H140.565H140.555H140.544H140.533H140.523H140.512H140.501H140.49H140.48H140.469H140.458H140.447H140.437H140.426H140.415H140.405H140.394H140.383H140.372H140.361H140.351H140.34H140.329H140.318H140.308H140.297H140.286H140.275H140.265H140.254H140.243H140.232H140.221H140.211H140.2H140.189H140.178H140.167H140.157H140.146H140.135H140.124H140.113H140.103H140.092H140.081H140.07H140.059H140.048H140.038H140.027H140.016H140.005H139.994H139.983H139.973H139.962H139.951H139.94H139.929H139.918H139.908H139.897H139.886H139.875H139.864H139.853H139.842H139.831H139.821H139.81H139.799H139.788H139.777H139.766H139.755H139.744H139.733H139.722H139.712H139.701H139.69H139.679H139.668H139.657H139.646H139.635H139.624H139.613H139.602H139.591H139.58H139.57H139.559H139.548H139.537H139.526H139.515H139.504H139.493H139.482H139.471H139.46H139.449H139.438H139.427H139.416H139.405H139.394H139.383H139.372H139.361H139.35H139.339H139.328H139.317H139.306H139.295H139.284H139.273H139.262H139.251H139.24H139.229H139.218H139.207H139.196H139.185H139.174H139.163H139.152H139.141H139.13H139.119H139.108H139.097H139.086H139.075H139.064H139.053H139.042H139.03H139.019H139.008H138.997H138.986H138.975H138.964H138.953H138.942H138.931H138.92H138.909H138.898H138.886H138.875H138.864H138.853H138.842H138.831H138.82H138.809H138.798H138.786H138.775H138.764H138.753H138.742H138.731H138.72H138.709H138.697Z" fill="#0C0B0B" stroke="white"/>
</svg>
