<svg width="135" height="134" viewBox="0 0 135 134" fill="none" xmlns="http://www.w3.org/2000/svg">
<g clip-path="url(#clip0_10507_8481)">
<path d="M134.05 68.145L125.168 67.4929L125.061 68.9531L130.077 69.3215C130.478 69.3509 130.841 69.4294 131.165 69.5568C131.5 69.6966 131.786 69.8845 132.022 70.1206C132.258 70.3567 132.433 70.6402 132.547 70.971C132.66 71.3132 132.7 71.7077 132.667 72.1543C132.626 72.7155 132.433 73.1447 132.089 73.4418C131.745 73.739 131.298 73.8674 130.748 73.827L124.735 73.3855L124.628 74.8458L130.469 75.2747C130.95 75.31 131.389 75.2904 131.786 75.2159C132.194 75.1537 132.549 75.0129 132.853 74.7934C133.157 74.5739 133.404 74.2753 133.593 73.8977C133.782 73.5201 133.898 73.0392 133.941 72.4551C134.037 71.138 133.57 70.1364 132.538 69.4503L132.54 69.416L133.949 69.5194L134.05 68.145Z" fill="#F5FFB1"/>
<path d="M128.197 83.5781L129.346 78.5928C129.677 78.6926 129.973 78.8376 130.236 79.0278C130.51 79.2205 130.734 79.449 130.909 79.7132C131.084 79.9775 131.199 80.2692 131.255 80.5886C131.32 80.9217 131.309 81.2729 131.224 81.6422C131.142 82.0002 131 82.3093 130.798 82.5693C130.606 82.843 130.373 83.0604 130.1 83.2214C129.836 83.3962 129.538 83.5103 129.208 83.5637C128.875 83.6283 128.538 83.6331 128.197 83.5781ZM125.462 84.3971L125.787 82.9872C125.245 82.7325 124.879 82.377 124.69 81.9209C124.498 81.4759 124.471 80.9513 124.611 80.347C124.719 79.877 124.892 79.4866 125.128 79.1758C125.365 78.865 125.638 78.6274 125.947 78.463C126.267 78.3011 126.606 78.2085 126.965 78.1852C127.336 78.1645 127.71 78.2036 128.087 78.3025L126.59 84.7985C127.11 84.9422 127.676 85.0195 128.286 85.0306C128.894 85.0529 129.48 84.9641 130.045 84.7643C130.607 84.5757 131.104 84.2602 131.536 83.8177C131.976 83.3889 132.286 82.7885 132.464 82.0164C132.601 81.4233 132.615 80.8492 132.507 80.294C132.397 79.75 132.183 79.2469 131.865 78.7848C131.545 78.3338 131.134 77.9443 130.632 77.6165C130.13 77.2886 129.549 77.0486 128.889 76.8963C128.224 76.7665 127.592 76.7209 126.994 76.7598C126.393 76.8098 125.851 76.9618 125.368 77.2158C124.885 77.4698 124.474 77.8228 124.134 78.2748C123.791 78.7379 123.54 79.3164 123.38 80.0102C123.153 80.9949 123.211 81.8686 123.554 82.6312C123.896 83.3938 124.533 83.9824 125.462 84.3971Z" fill="#F5FFB1"/>
<path d="M118.973 93.0443L126.023 99.1842L126.624 97.7925L120.726 93.0695L120.74 93.0378L128.167 94.2184L128.802 92.7476L122.823 88.2144L122.836 88.1827L130.325 89.221L130.967 87.7344L121.657 86.8292L121.029 88.2841L126.818 92.7354L126.805 92.7671L119.588 91.621L118.973 93.0443Z" fill="#F5FFB1"/>
<path d="M122.114 105.456L115.334 99.6816L114.384 100.796L118.607 104.393C118.739 104.504 118.874 104.673 119.014 104.898C119.156 105.139 119.259 105.408 119.323 105.704C119.38 106.009 119.378 106.331 119.315 106.67C119.245 107.018 119.073 107.353 118.797 107.677C118.581 107.93 118.367 108.102 118.154 108.193C117.943 108.299 117.726 108.341 117.505 108.318C117.291 108.303 117.078 108.234 116.865 108.113C116.644 108 116.424 107.851 116.206 107.665L111.76 103.878L110.811 104.993L115.033 108.589C115.558 109.036 115.844 109.551 115.89 110.134C115.937 110.717 115.726 111.283 115.257 111.834C115.026 112.105 114.801 112.29 114.58 112.389C114.353 112.497 114.128 112.54 113.906 112.517C113.693 112.501 113.48 112.433 113.267 112.311C113.053 112.19 112.842 112.04 112.632 111.861L108.186 108.075L107.237 109.19L112.207 113.423C112.557 113.721 112.902 113.917 113.244 114.012C113.587 114.123 113.923 114.145 114.251 114.078C114.572 114.019 114.887 113.88 115.195 113.66C115.505 113.456 115.805 113.183 116.095 112.842C116.475 112.396 116.724 111.9 116.843 111.353C116.955 110.814 116.924 110.275 116.75 109.735C117.289 109.952 117.791 109.965 118.257 109.773C118.722 109.581 119.133 109.275 119.49 108.855C120.302 107.902 120.539 106.845 120.202 105.682L120.224 105.656L121.221 106.505L122.114 105.456Z" fill="#F5FFB1"/>
<path d="M104.775 117.801L108.766 114.599C108.963 114.882 109.106 115.18 109.195 115.492C109.29 115.812 109.325 116.131 109.298 116.446C109.272 116.762 109.182 117.063 109.028 117.348C108.873 117.65 108.647 117.919 108.351 118.156C108.065 118.386 107.762 118.541 107.443 118.62C107.122 118.716 106.805 118.742 106.491 118.7C106.175 118.673 105.871 118.579 105.578 118.416C105.277 118.261 105.009 118.056 104.775 117.801ZM102.121 116.751L103.25 115.845C102.982 115.309 102.915 114.804 103.048 114.328C103.173 113.86 103.477 113.432 103.961 113.044C104.337 112.742 104.714 112.542 105.093 112.445C105.471 112.347 105.832 112.329 106.177 112.392C106.528 112.463 106.852 112.6 107.149 112.804C107.452 113.017 107.721 113.28 107.957 113.591L102.758 117.764C103.078 118.199 103.474 118.61 103.946 118.997C104.409 119.391 104.925 119.684 105.492 119.877C106.05 120.077 106.635 120.137 107.249 120.057C107.86 119.994 108.475 119.714 109.093 119.218C109.568 118.837 109.935 118.395 110.194 117.892C110.444 117.397 110.588 116.869 110.624 116.31C110.652 115.757 110.571 115.197 110.38 114.629C110.189 114.061 109.881 113.512 109.457 112.984C109.015 112.47 108.547 112.043 108.053 111.703C107.551 111.37 107.031 111.154 106.495 111.054C105.958 110.955 105.417 110.977 104.87 111.121C104.314 111.273 103.759 111.571 103.203 112.017C102.415 112.65 101.92 113.371 101.716 114.182C101.513 114.993 101.648 115.849 102.121 116.751Z" fill="#F5FFB1"/>
<path d="M102.007 123.948L103.415 126.217L104.659 125.444L103.251 123.176L104.539 122.376L103.857 121.279L102.57 122.078L99.58 117.263C99.362 116.912 99.1521 116.651 98.9506 116.478C98.749 116.306 98.5436 116.204 98.3343 116.172C98.1153 116.145 97.8784 116.177 97.6237 116.268C97.3653 116.374 97.0752 116.528 96.7532 116.727L95.802 117.318L96.4835 118.416L97.0542 118.061C97.2493 117.94 97.4133 117.845 97.5462 117.776C97.6754 117.723 97.7893 117.699 97.8879 117.706C97.9865 117.712 98.0777 117.75 98.1614 117.82C98.2355 117.896 98.3179 118.007 98.4088 118.153L101.326 122.851L99.8182 123.786L100.5 124.884L102.007 123.948Z" fill="#F5FFB1"/>
<path d="M87.6412 121.312C87.8077 121.07 88.0941 120.855 88.5006 120.667C88.8444 120.508 89.164 120.474 89.4593 120.565C89.749 120.671 89.9952 120.943 90.1979 121.381C90.3599 120.774 90.64 120.258 91.0381 119.833C91.4305 119.424 91.9082 119.089 92.4709 118.828C92.8356 118.659 93.204 118.539 93.5761 118.468C93.9377 118.402 94.2794 118.402 94.6011 118.468C94.9229 118.534 95.2218 118.674 95.498 118.888C95.7686 119.117 95.998 119.435 96.1862 119.841C96.3985 120.3 96.4941 120.711 96.4729 121.075C96.4517 121.439 96.3571 121.768 96.189 122.061C96.0154 122.369 95.7888 122.645 95.5091 122.888C95.2191 123.137 94.9166 123.372 94.6017 123.593C94.2707 123.835 93.951 124.047 93.6424 124.227C93.3283 124.424 93.0606 124.611 92.8395 124.789C92.6231 124.978 92.471 125.169 92.383 125.361C92.2999 125.564 92.3162 125.791 92.432 126.041C92.5671 126.333 92.733 126.541 92.9297 126.665C93.1159 126.794 93.3194 126.864 93.5399 126.876C93.7501 126.892 93.9718 126.866 94.2052 126.795C94.4281 126.73 94.6437 126.649 94.8521 126.553C95.4148 126.292 95.8331 125.966 96.1069 125.573C96.3856 125.191 96.403 124.696 96.1592 124.087L97.4878 123.472C97.6986 123.982 97.7898 124.452 97.7615 124.883C97.7332 125.313 97.611 125.705 97.3949 126.059C97.1836 126.422 96.9017 126.743 96.5491 127.02C96.1861 127.302 95.7754 127.549 95.3169 127.761C94.9521 127.93 94.5806 128.071 94.2021 128.183C93.8133 128.299 93.4343 128.342 93.0653 128.31C92.7012 128.289 92.363 128.174 92.0507 127.964C91.7384 127.754 91.4737 127.415 91.2565 126.946L89.331 122.788C89.1862 122.475 89.0644 122.253 88.9656 122.122C88.8564 121.995 88.6975 121.98 88.4891 122.077C88.3745 122.13 88.2511 122.219 88.1189 122.343L87.6412 121.312ZM91.7165 124.455C91.8253 124.253 92.0008 124.058 92.2427 123.87C92.4895 123.692 92.7544 123.512 93.0373 123.331C93.3146 123.164 93.5923 122.985 93.8704 122.793C94.1533 122.611 94.3904 122.413 94.5819 122.198C94.7733 121.983 94.9013 121.74 94.9659 121.469C95.0249 121.214 94.9772 120.92 94.8228 120.587C94.7215 120.368 94.5929 120.199 94.4372 120.082C94.2758 119.979 94.1057 119.913 93.9268 119.881C93.7375 119.855 93.5394 119.865 93.3325 119.91C93.1256 119.955 92.918 120.026 92.7096 120.122C92.2719 120.325 91.9233 120.556 91.6637 120.816C91.409 121.085 91.2237 121.355 91.1077 121.624C90.9966 121.903 90.9424 122.168 90.9451 122.42C90.9527 122.683 90.9999 122.907 91.0868 123.095L91.7165 124.455Z" fill="#F5FFB1"/>
<path d="M90.1699 133.277L86.2851 121.608L84.8959 122.07L88.7807 133.74L90.1699 133.277Z" fill="#F5FFB1"/>
<path d="M64.3929 133.763L65.2501 124.899L63.7927 124.758L63.3086 129.764C63.2699 130.164 63.1831 130.525 63.0482 130.847C62.9007 131.179 62.7062 131.46 62.4647 131.69C62.2232 131.921 61.9358 132.089 61.6025 132.195C61.2577 132.3 60.8624 132.331 60.4166 132.288C59.8565 132.234 59.4319 132.031 59.1428 131.68C58.8537 131.329 58.7357 130.88 58.7887 130.331L59.369 124.33L57.9116 124.189L57.3479 130.019C57.3015 130.499 57.3109 130.938 57.3762 131.337C57.429 131.745 57.5616 132.104 57.774 132.413C57.9864 132.722 58.2792 132.976 58.6523 133.173C59.0255 133.371 59.5036 133.498 60.0865 133.554C61.4011 133.681 62.4132 133.237 63.1229 132.221L63.1572 132.224L63.0213 133.63L64.3929 133.763Z" fill="#F5FFB1"/>
<path d="M49.095 127.536L54.0527 128.799C53.9454 129.127 53.7937 129.421 53.5976 129.679C53.3986 129.948 53.165 130.167 52.8969 130.336C52.6288 130.504 52.3344 130.613 52.0139 130.662C51.6794 130.719 51.3285 130.701 50.9613 130.607C50.6052 130.516 50.2995 130.367 50.0441 130.16C49.7749 129.961 49.5629 129.723 49.4081 129.447C49.2394 129.179 49.1321 128.879 49.0863 128.547C49.0293 128.213 49.0322 127.876 49.095 127.536ZM48.3385 124.784L49.7407 125.141C50.0077 124.605 50.3714 124.247 50.8318 124.068C51.281 123.886 51.8061 123.872 52.4071 124.025C52.8745 124.144 53.2608 124.325 53.5661 124.569C53.8714 124.813 54.1027 125.091 54.2601 125.404C54.4146 125.727 54.4994 126.069 54.5145 126.428C54.5268 126.799 54.4792 127.172 54.3717 127.547L47.9116 125.902C47.756 126.419 47.6658 126.983 47.6408 127.592C47.6046 128.199 47.68 128.787 47.8668 129.356C48.0426 129.923 48.3467 130.427 48.7792 130.869C49.1978 131.319 49.791 131.642 50.5589 131.838C51.1487 131.988 51.7223 132.016 52.2798 131.921C52.8262 131.823 53.334 131.62 53.8033 131.313C54.2615 131.003 54.6602 130.601 54.9994 130.107C55.3387 129.613 55.5919 129.037 55.7592 128.381C55.9042 127.718 55.9641 127.088 55.939 126.489C55.9026 125.887 55.763 125.342 55.5201 124.853C55.2772 124.365 54.9337 123.946 54.4896 123.595C54.0344 123.242 53.4618 122.978 52.7718 122.802C51.7925 122.553 50.9178 122.591 50.1476 122.916C49.3774 123.241 48.7744 123.864 48.3385 124.784Z" fill="#F5FFB1"/>
<path d="M39.9028 118.098L33.6069 125.008L34.9848 125.64L39.8385 119.85L39.8699 119.864L38.5236 127.263L39.9798 127.931L44.6456 122.054L44.6769 122.069L43.4715 129.532L44.9434 130.207L46.0565 120.92L44.6159 120.259L40.0363 125.948L40.005 125.934L41.3121 118.744L39.9028 118.098Z" fill="#F5FFB1"/>
<path d="M27.53 121.002L33.4508 114.349L32.357 113.376L28.6694 117.519C28.5549 117.648 28.3836 117.78 28.1556 117.915C27.9114 118.051 27.6405 118.148 27.3429 118.206C27.0367 118.257 26.7148 118.247 26.3773 118.177C26.0311 118.1 25.6994 117.92 25.382 117.637C25.1332 117.416 24.9659 117.198 24.8802 116.983C24.7783 116.77 24.7413 116.552 24.7691 116.331C24.7892 116.118 24.8623 115.907 24.9883 115.696C25.1057 115.478 25.2599 115.261 25.4508 115.047L29.3331 110.684L28.2393 109.711L24.5517 113.854C24.0936 114.369 23.5727 114.644 22.989 114.678C22.4054 114.711 21.8433 114.488 21.3028 114.007C21.0369 113.77 20.8568 113.541 20.7625 113.319C20.6597 113.089 20.6221 112.863 20.6499 112.642C20.6701 112.429 20.7432 112.218 20.8692 112.007C20.9952 111.796 21.1498 111.588 21.3331 111.382L25.2153 107.02L24.1216 106.046L19.7812 110.923C19.4758 111.266 19.272 111.608 19.1697 111.947C19.0513 112.288 19.022 112.623 19.0819 112.953C19.1332 113.275 19.2655 113.593 19.479 113.906C19.6762 114.22 19.9421 114.525 20.2766 114.823C20.7142 115.213 21.2051 115.473 21.7496 115.604C22.2855 115.727 22.8253 115.708 23.369 115.546C23.1398 116.08 23.1161 116.582 23.298 117.051C23.4799 117.52 23.7767 117.938 24.1885 118.305C25.1235 119.137 26.1758 119.397 27.3452 119.085L27.3709 119.108L26.5006 120.086L27.53 121.002Z" fill="#F5FFB1"/>
<path d="M15.5855 103.417L18.6997 107.476C18.4124 107.668 18.1118 107.804 17.7981 107.886C17.4752 107.974 17.1562 108.002 16.8411 107.968C16.5261 107.935 16.2276 107.838 15.9456 107.678C15.6475 107.516 15.3832 107.285 15.1525 106.984C14.9288 106.693 14.7807 106.387 14.7083 106.066C14.6198 105.743 14.6002 105.425 14.6496 105.112C14.6829 104.797 14.7841 104.495 14.9533 104.206C15.1154 103.908 15.3261 103.645 15.5855 103.417ZM16.6937 100.786L17.5745 101.934C18.116 101.678 18.6231 101.622 19.0955 101.766C19.561 101.901 19.9824 102.215 20.3599 102.707C20.6535 103.089 20.8449 103.471 20.934 103.851C21.0232 104.232 21.0329 104.593 20.9631 104.936C20.8843 105.286 20.7396 105.607 20.5292 105.899C20.3097 106.197 20.0415 106.461 19.7247 106.69L15.6668 101.401C15.2246 101.711 14.805 102.098 14.4081 102.562C14.0042 103.016 13.6997 103.525 13.4946 104.088C13.2824 104.641 13.2095 105.225 13.276 105.84C13.3263 106.453 13.5927 107.074 14.075 107.702C14.4455 108.185 14.8792 108.562 15.376 108.832C15.8658 109.093 16.39 109.248 16.9487 109.297C17.5004 109.337 18.0624 109.268 18.6347 109.089C19.207 108.911 19.7619 108.615 20.2994 108.203C20.823 107.772 21.2602 107.314 21.6109 106.828C21.9546 106.332 22.1821 105.817 22.2934 105.283C22.4047 104.749 22.3942 104.207 22.2618 103.658C22.1225 103.099 21.8361 102.537 21.4027 101.972C20.7876 101.17 20.0768 100.659 19.2705 100.438C18.4641 100.217 17.6052 100.333 16.6937 100.786Z" fill="#F5FFB1"/>
<path d="M9.52336 100.553L7.22449 101.911L7.96922 103.171L10.2681 101.813L11.0391 103.119L12.1515 102.461L11.3804 101.156L16.26 98.2737C16.6159 98.0634 16.8822 97.8594 17.0589 97.6617C17.2355 97.464 17.3423 97.2609 17.3791 97.0524C17.4102 96.834 17.3832 96.5965 17.2983 96.3398C17.1977 96.0792 17.051 95.7857 16.8582 95.4594L16.2887 94.4954L15.1764 95.1525L15.5181 95.7309C15.6349 95.9286 15.7263 96.0947 15.7924 96.2291C15.8427 96.3594 15.8636 96.4738 15.855 96.5722C15.8465 96.6706 15.8065 96.761 15.735 96.8432C15.6577 96.9155 15.5449 96.9955 15.3966 97.0831L10.6357 99.8956L9.73327 98.368L8.62092 99.0251L9.52336 100.553Z" fill="#F5FFB1"/>
<path d="M12.4871 86.2827C12.725 86.4546 12.9335 86.7458 13.1125 87.1563C13.2641 87.5036 13.291 87.8239 13.1934 88.1171C13.0806 88.4043 12.8032 88.6443 12.3611 88.8372C12.9639 89.0128 13.4732 89.3043 13.889 89.7118C14.2897 90.1133 14.614 90.5983 14.862 91.1667C15.0227 91.5351 15.1344 91.9061 15.1971 92.2797C15.2553 92.6427 15.2477 92.9843 15.1744 93.3045C15.101 93.6246 14.9544 93.9204 14.7345 94.1917C14.4994 94.4571 14.1767 94.6794 13.7661 94.8584C13.303 95.0605 12.8896 95.1468 12.526 95.1175C12.1624 95.0882 11.836 94.9862 11.5469 94.8117C11.2426 94.6312 10.972 94.3984 10.7349 94.1135C10.4932 93.818 10.265 93.5103 10.0503 93.1905C9.81596 92.8542 9.6118 92.5298 9.43788 92.2173C9.24884 91.8988 9.06764 91.627 8.89428 91.402C8.7104 91.1815 8.52315 91.0251 8.33256 90.9328C8.13143 90.8452 7.90456 90.8564 7.65194 90.9666C7.35721 91.0952 7.14562 91.2564 7.01719 91.4503C6.88417 91.6336 6.80932 91.8354 6.79264 92.0557C6.77137 92.2654 6.79316 92.4877 6.85801 92.7225C6.91827 92.9468 6.99432 93.1642 7.08615 93.3747C7.3341 93.9431 7.65126 94.3686 8.03761 94.6511C8.41343 94.9382 8.90822 94.9667 9.52198 94.7365L10.1074 96.0786C9.593 96.2779 9.12077 96.3587 8.69076 96.3207C8.26075 96.2828 7.87161 96.1518 7.52334 95.9279C7.16454 95.7085 6.85053 95.4195 6.58131 95.0609C6.30749 94.6917 6.06957 94.2755 5.86753 93.8123C5.70682 93.4439 5.57472 93.0693 5.47123 92.6885C5.36315 92.2971 5.32903 91.9173 5.36888 91.5491C5.3982 91.1855 5.5212 90.8499 5.73787 90.5424C5.95454 90.2349 6.29971 89.9779 6.77338 89.7712L10.9733 87.9391C11.2891 87.8014 11.5137 87.6846 11.6473 87.5887C11.7763 87.4823 11.7949 87.3239 11.7031 87.1133C11.6526 86.9975 11.5666 86.8722 11.4451 86.7373L12.4871 86.2827ZM9.25352 90.2868C9.4533 90.4001 9.64446 90.5798 9.827 90.8259C9.99902 91.0767 10.1727 91.3455 10.3479 91.6324C10.5081 91.9133 10.681 92.1949 10.8668 92.4772C11.0421 92.7641 11.2352 93.0057 11.446 93.2018C11.6569 93.398 11.8968 93.5314 12.1656 93.6021C12.4194 93.6668 12.7147 93.6257 13.0515 93.4787C13.2726 93.3823 13.4437 93.2576 13.5648 93.1045C13.6709 92.9455 13.7414 92.7769 13.7765 92.5987C13.8069 92.41 13.8019 92.2118 13.7613 92.0039C13.7208 91.7961 13.6546 91.5869 13.5627 91.3764C13.3699 90.9343 13.1467 90.5806 12.8931 90.3153C12.6291 90.0547 12.364 89.8633 12.0978 89.7414C11.8211 89.6241 11.5568 89.5639 11.3049 89.561C11.0426 89.5627 10.8166 89.6049 10.6272 89.6876L9.25352 90.2868Z" fill="#F5FFB1"/>
<path d="M0.431641 88.4609L12.1863 84.8414L11.7554 83.442L0.000737633 87.0616L0.431641 88.4609Z" fill="#F5FFB1"/>
<path d="M0.380354 67.9267L9.27816 68.3047L9.3403 66.8418L4.31484 66.6283C3.91327 66.6113 3.5483 66.5441 3.21995 66.4267C2.88062 66.2973 2.58937 66.1183 2.34621 65.8895C2.10305 65.6608 1.91945 65.3829 1.79541 65.0558C1.67186 64.7172 1.61959 64.3242 1.6386 63.8767C1.66248 63.3145 1.84187 62.8796 2.17678 62.572C2.51169 62.2644 2.95451 62.1222 3.50525 62.1456L9.5289 62.4015L9.59104 60.9386L3.73949 60.6901C3.2576 60.6696 2.8194 60.7027 2.42491 60.7894C2.01944 60.8641 1.66816 61.0159 1.37109 61.2446C1.07401 61.4734 0.836873 61.7794 0.659672 62.1627C0.482471 62.546 0.381443 63.0302 0.356587 63.6154C0.300541 64.9348 0.798865 65.9215 1.85156 66.5754L1.85009 66.6098L0.438837 66.5499L0.380354 67.9267Z" fill="#F5FFB1"/>
<path d="M5.74979 52.3203L4.75286 57.3384C4.41942 57.2487 4.11858 57.1129 3.85034 56.9308C3.57083 56.7464 3.33969 56.5249 3.15693 56.2661C2.97417 56.0074 2.84994 55.7192 2.78421 55.4018C2.70947 55.0708 2.70902 54.7195 2.78287 54.3477C2.85447 53.9873 2.98695 53.6741 3.1803 53.4081C3.36462 53.1286 3.59068 52.9042 3.85848 52.7349C4.11724 52.5522 4.411 52.429 4.73974 52.3656C5.07071 52.2908 5.4074 52.2757 5.74979 52.3203ZM8.45803 51.4183L8.17607 52.8375C8.72591 53.0755 9.10247 53.4196 9.30574 53.8698C9.51125 54.3087 9.55359 54.8323 9.43275 55.4406C9.33876 55.9136 9.17824 56.3091 8.95117 56.627C8.72411 56.9448 8.45866 57.1906 8.15484 57.3644C7.83975 57.536 7.50318 57.6389 7.14512 57.6732C6.7758 57.7052 6.40078 57.6775 6.02004 57.5901L7.31907 51.0515C6.79415 50.9238 6.22652 50.8637 5.61618 50.8712C5.00808 50.8675 4.4249 50.9741 3.86663 51.191C3.3106 51.3967 2.82343 51.7273 2.4051 52.1827C1.97775 52.6247 1.68687 53.2343 1.53247 54.0115C1.41386 54.6085 1.41685 55.1828 1.54143 55.7344C1.66824 56.2748 1.89748 56.7711 2.22913 57.2234C2.56302 57.6644 2.98579 58.0411 3.49744 58.3535C4.00908 58.6659 4.59719 58.8881 5.26176 59.0201C5.9308 59.1296 6.5637 59.1558 7.16046 59.0988C7.75946 59.0304 8.29639 58.862 8.77126 58.5933C9.24613 58.3247 9.64655 57.9594 9.97253 57.4972C10.3007 57.0239 10.5342 56.438 10.673 55.7396C10.8699 54.7484 10.7854 53.8769 10.4196 53.1252C10.0538 52.3734 9.39994 51.8044 8.45803 51.4183Z" fill="#F5FFB1"/>
<path d="M14.6672 42.5721L7.43731 36.6458L6.87827 38.0548L12.9143 42.5994L12.9016 42.6314L5.44254 41.6735L4.85173 43.1626L10.964 47.515L10.9513 47.547L3.43505 46.7332L2.83789 48.2383L12.1705 48.8647L12.755 47.3916L6.83485 43.1154L6.84755 43.0834L14.0954 44.0132L14.6672 42.5721Z" fill="#F5FFB1"/>
<path d="M11.0425 30.3905L18.0084 35.9395L18.9207 34.7942L14.5822 31.3382C14.4475 31.2309 14.3063 31.0671 14.1588 30.8468C14.0094 30.6103 13.8977 30.3451 13.8236 30.0511C13.7566 29.7482 13.7487 29.4263 13.8 29.0854C13.8585 28.7355 14.0201 28.3944 14.2848 28.0621C14.4923 27.8016 14.7009 27.6227 14.9106 27.5254C15.1184 27.412 15.3335 27.3631 15.5559 27.3788C15.7694 27.3873 15.9847 27.4488 16.202 27.5631C16.4264 27.6685 16.6508 27.8106 16.8754 27.9895L21.4429 31.628L22.3552 30.4827L18.0168 27.0267C17.4778 26.5973 17.1755 26.0922 17.1097 25.5113C17.0439 24.9303 17.2364 24.3569 17.6872 23.791C17.909 23.5125 18.1283 23.3202 18.3451 23.2139C18.5691 23.0987 18.7923 23.0489 19.0147 23.0645C19.2281 23.0731 19.4435 23.1345 19.6607 23.2488C19.878 23.3632 20.0944 23.5062 20.31 23.6779L24.8775 27.3164L25.7898 26.1712L20.6833 22.1034C20.324 21.8171 19.9721 21.6322 19.6276 21.5487C19.2812 21.4489 18.9449 21.438 18.6187 21.5158C18.2996 21.5846 17.9896 21.7341 17.6888 21.9643C17.3861 22.1784 17.0953 22.4605 16.8162 22.8108C16.4513 23.2689 16.2183 23.7734 16.1172 24.3242C16.0233 24.8661 16.0719 25.404 16.2631 25.9381C15.7175 25.7383 15.2153 25.7421 14.7566 25.9493C14.2979 26.1565 13.8968 26.4757 13.5534 26.9068C12.7734 27.8859 12.5712 28.9507 12.9466 30.1014L12.9252 30.1283L11.9012 29.3126L11.0425 30.3905Z" fill="#F5FFB1"/>
<path d="M27.7904 17.619L23.9074 20.9502C23.7005 20.6738 23.5478 20.3811 23.4493 20.0722C23.3432 19.7547 23.2983 19.4377 23.3143 19.1213C23.3304 18.8049 23.4106 18.5015 23.5549 18.2112C23.7005 17.9048 23.9172 17.6281 24.2048 17.3814C24.4837 17.1421 24.7813 16.9776 25.0977 16.8877C25.4153 16.7817 25.7316 16.7448 26.0468 16.7771C26.3632 16.7931 26.6703 16.8777 26.968 17.0308C27.2745 17.1764 27.5486 17.3724 27.7904 17.619ZM30.4776 18.5819L29.3794 19.524C29.6649 20.0508 29.7485 20.554 29.6304 21.0336C29.521 21.5058 29.231 21.9437 28.7603 22.3475C28.3942 22.6616 28.0238 22.8735 27.6489 22.9833C27.274 23.093 26.9134 23.1225 26.5671 23.0715C26.2133 23.0119 25.8851 22.885 25.5823 22.6908C25.272 22.4879 24.9942 22.2346 24.7486 21.9307L29.8083 17.59C29.4743 17.1654 29.0649 16.7676 28.5802 16.3967C28.1042 16.0182 27.5797 15.7419 27.0066 15.5678C26.4423 15.3862 25.8549 15.3453 25.2446 15.4452C24.6356 15.529 24.0303 15.8288 23.4289 16.3448C22.967 16.7411 22.6147 17.1946 22.372 17.7054C22.1381 18.2088 22.0119 18.7407 21.9934 19.3012C21.9837 19.8543 22.0836 20.4117 22.2931 20.9733C22.5026 21.535 22.828 22.073 23.2691 22.5872C23.7277 23.0865 24.2094 23.498 24.714 23.8216C25.2273 24.1378 25.7537 24.3368 26.293 24.4188C26.8324 24.5008 27.373 24.4607 27.9148 24.2985C28.4653 24.1289 29.0107 23.8122 29.5511 23.3486C30.3181 22.6906 30.7899 21.953 30.9664 21.1358C31.1429 20.3186 30.98 19.4673 30.4776 18.5819Z" fill="#F5FFB1"/>
<path d="M30.5937 11.1859L29.1193 8.95987L27.8986 9.7684L29.373 11.9944L28.1091 12.8315L28.8226 13.9086L30.0864 13.0716L33.2159 17.7965C33.4441 18.1412 33.6616 18.3966 33.8681 18.5629C34.0746 18.7291 34.2829 18.8253 34.4931 18.8514C34.7128 18.8712 34.9486 18.8321 35.2005 18.7341C35.4557 18.6202 35.7412 18.4586 36.0572 18.2494L36.9907 17.6311L36.2773 16.554L35.7172 16.9249C35.5257 17.0518 35.3645 17.1516 35.2337 17.2245C35.1062 17.2814 34.993 17.3082 34.8943 17.3047C34.7956 17.3012 34.7033 17.2659 34.6175 17.1987C34.5413 17.1253 34.4556 17.0167 34.3605 16.8731L31.3071 12.263L32.7863 11.2833L32.0729 10.2062L30.5937 11.1859Z" fill="#F5FFB1"/>
<path d="M44.9706 13.3981C44.8113 13.6446 44.5314 13.8679 44.1307 14.0681C43.7917 14.2375 43.4733 14.2811 43.1754 14.1988C42.8827 14.1012 42.6285 13.8366 42.413 13.4052C42.269 14.0163 42.0044 14.5401 41.6191 14.9765C41.2389 15.3976 40.7715 15.7467 40.2168 16.0239C39.8572 16.2035 39.4925 16.3344 39.1227 16.4165C38.7632 16.4934 38.4217 16.5036 38.0981 16.447C37.7746 16.3905 37.4716 16.2594 37.1892 16.0539C36.9119 15.833 36.6732 15.5222 36.473 15.1216C36.2471 14.6696 36.1394 14.2613 36.1497 13.8966C36.1601 13.532 36.2449 13.2008 36.4042 12.9029C36.5686 12.5897 36.787 12.3073 37.0592 12.0557C37.3418 11.799 37.6371 11.5551 37.9453 11.3241C38.2689 11.0725 38.5823 10.8517 38.8853 10.6618C39.1935 10.4564 39.4555 10.2613 39.6713 10.0765C39.8819 9.88137 40.0283 9.68625 40.1105 9.49111C40.1876 9.2857 40.1645 9.05972 40.0413 8.81317C39.8976 8.52553 39.7256 8.32262 39.5254 8.20445C39.3354 8.08114 39.1299 8.0169 38.9091 8.0117C38.6985 8.00138 38.4777 8.03471 38.2466 8.11169C38.0257 8.18353 37.8125 8.27079 37.6071 8.37346C37.0524 8.65065 36.644 8.98951 36.382 9.39004C36.1148 9.78029 36.1121 10.2759 36.3739 10.8769L35.0641 11.5313C34.8382 11.028 34.7331 10.5606 34.7486 10.1292C34.7641 9.69779 34.8746 9.30236 35.0801 8.9429C35.2805 8.57318 35.5528 8.24455 35.897 7.95703C36.2514 7.66438 36.6546 7.40512 37.1066 7.17926C37.4662 6.9996 37.8334 6.84818 38.2084 6.72501C38.5936 6.59672 38.9711 6.54288 39.3409 6.56352C39.7055 6.57388 40.047 6.67925 40.3654 6.87962C40.6838 7.08 40.9584 7.41132 41.1894 7.8736L43.2376 11.9725C43.3916 12.2807 43.5199 12.499 43.6226 12.6274C43.7356 12.7507 43.8948 12.761 44.1002 12.6583C44.2132 12.6018 44.334 12.5094 44.4624 12.3811L44.9706 13.3981ZM40.8036 10.3772C40.7009 10.5826 40.5313 10.7829 40.295 10.978C40.0536 11.1628 39.7942 11.3502 39.5168 11.5401C39.2446 11.7147 38.9723 11.9021 38.7001 12.1023C38.4227 12.2923 38.1916 12.4976 38.0066 12.7184C37.8217 12.9392 37.7009 13.1857 37.6444 13.4579C37.5929 13.7147 37.6494 14.0074 37.8136 14.3362C37.9214 14.5519 38.0549 14.7163 38.2141 14.8293C38.3784 14.9269 38.5504 14.9886 38.7302 15.0143C38.9202 15.0349 39.1179 15.0195 39.3234 14.9682C39.5288 14.9169 39.7343 14.8399 39.9397 14.7373C40.3712 14.5217 40.7128 14.2804 40.9645 14.0134C41.2111 13.7361 41.3883 13.4614 41.4963 13.1892C41.5991 12.9068 41.6453 12.6397 41.6351 12.3881C41.6198 12.1261 41.5659 11.9027 41.4735 11.7178L40.8036 10.3772Z" fill="#F5FFB1"/>
<path d="M41.877 1.57031L46.1545 13.1018L47.5273 12.5926L43.2498 1.06108L41.877 1.57031Z" fill="#F5FFB1"/>
<path d="M62.1614 0.319969L62.2989 9.22474L63.7629 9.20213L63.6853 4.17274C63.6791 3.77085 63.7251 3.40261 63.8233 3.06802C63.9328 2.72177 64.0947 2.42065 64.3089 2.16466C64.5232 1.90868 64.79 1.70931 65.1094 1.56655C65.4403 1.42362 65.8296 1.34869 66.2774 1.34178C66.8401 1.33309 67.2847 1.48702 67.6111 1.80357C67.9376 2.12012 68.1051 2.55397 68.1136 3.10514L68.2067 9.13351L69.6707 9.1109L69.5803 3.25477C69.5729 2.7725 69.5145 2.33696 69.4051 1.94815C69.307 1.54767 69.1352 1.20577 68.8896 0.922425C68.6441 0.639083 68.3248 0.420048 67.9319 0.26532C67.539 0.110592 67.0498 0.0377484 66.4642 0.0467911C65.1437 0.0671814 64.1875 0.621759 63.5956 1.71052L63.5611 1.71105L63.5393 0.298692L62.1614 0.319969Z" fill="#F5FFB1"/>
<path d="M78.5328 4.82067L73.4685 4.09401C73.5402 3.75625 73.6597 3.44856 73.8272 3.17095C73.9963 2.88196 74.2051 2.63929 74.4537 2.44293C74.7023 2.24657 74.9834 2.10707 75.2969 2.02444C75.6234 1.93207 75.9742 1.9128 76.3493 1.96662C76.7131 2.01882 77.033 2.13432 77.3089 2.31314C77.5979 2.48223 77.8341 2.69594 78.0175 2.95428C78.2138 3.20289 78.3525 3.48962 78.4335 3.81449C78.5259 4.14099 78.559 4.47638 78.5328 4.82067ZM79.5787 7.47669L78.1463 7.27117C77.9381 7.83297 77.6147 8.22742 77.176 8.45452C76.7488 8.68326 76.2282 8.75358 75.6144 8.6655C75.1369 8.597 74.7334 8.45789 74.4039 8.24818C74.0743 8.03847 73.8146 7.78657 73.6248 7.4925C73.4366 7.18705 73.3158 6.85648 73.2624 6.50077C73.2107 6.1337 73.2182 5.75773 73.285 5.37286L79.8839 6.31972C79.9833 5.7887 80.0129 5.21867 79.9726 4.60962C79.9438 4.00219 79.8061 3.42556 79.5596 2.87971C79.3244 2.3355 78.9682 1.86673 78.491 1.47341C78.0267 1.07035 77.4024 0.812551 76.6181 0.700005C76.0156 0.613556 75.4423 0.647308 74.8981 0.801261C74.3653 0.956843 73.882 1.21234 73.4482 1.56774C73.0257 1.92478 72.6722 2.36712 72.3876 2.89477C72.1031 3.42242 71.9127 4.02159 71.8165 4.69228C71.743 5.36623 71.7507 5.99962 71.8396 6.59247C71.94 7.18694 72.137 7.71408 72.4306 8.17388C72.7243 8.63367 73.1106 9.01395 73.5895 9.3147C74.0798 9.61708 74.6774 9.81883 75.3821 9.91996C76.3825 10.0635 77.2482 9.93248 77.9793 9.52691C78.7104 9.12134 79.2435 8.43793 79.5787 7.47669Z" fill="#F5FFB1"/>
<path d="M88.5168 13.1086L94.0265 5.55641L92.5882 5.07761L88.3908 11.36L88.3581 11.3491L88.8945 3.84796L87.3744 3.34196L83.3732 9.68967L83.3405 9.67879L83.7297 2.12863L82.1934 1.61719L82.0935 10.9703L83.5972 11.4709L87.5332 5.31928L87.5659 5.33016L87.0458 12.6189L88.5168 13.1086Z" fill="#F5FFB1"/>
<path d="M100.628 8.85208L95.4687 16.111L96.6621 16.9593L99.8757 12.4383C99.9755 12.2979 100.131 12.148 100.343 11.9886C100.571 11.8266 100.83 11.7005 101.119 11.6104C101.418 11.5269 101.739 11.5015 102.082 11.534C102.435 11.5733 102.784 11.716 103.131 11.9621C103.402 12.1551 103.592 12.3536 103.701 12.5576C103.825 12.7589 103.886 12.971 103.882 13.1939C103.886 13.4075 103.836 13.6259 103.734 13.8491C103.641 14.0789 103.511 14.3108 103.345 14.5449L99.9617 19.3046L101.155 20.1529L104.369 15.6318C104.768 15.0702 105.256 14.7407 105.832 14.6432C106.409 14.5458 106.992 14.7066 107.581 15.1258C107.872 15.332 108.076 15.5405 108.194 15.7511C108.321 15.9684 108.383 16.1886 108.379 16.4115C108.383 16.6251 108.333 16.8435 108.231 17.0667C108.128 17.2898 107.997 17.5138 107.838 17.7384L104.455 22.4981L105.648 23.3464L109.43 18.0251C109.697 17.6507 109.862 17.2892 109.927 16.9406C110.007 16.5893 110 16.2529 109.904 15.9314C109.818 15.6165 109.652 15.3152 109.405 15.0274C109.175 14.7369 108.878 14.4619 108.512 14.2025C108.035 13.8631 107.519 13.6581 106.963 13.5873C106.417 13.5231 105.882 13.6011 105.36 13.8213C105.529 13.2655 105.498 12.7643 105.266 12.3176C105.034 11.871 104.693 11.4879 104.244 11.1686C103.224 10.4434 102.15 10.2997 101.021 10.7375L100.993 10.7175L101.752 9.65047L100.628 8.85208Z" fill="#F5FFB1"/>
<path d="M114.601 25.197L111.076 21.4886C111.342 21.2679 111.626 21.1005 111.93 20.9863C112.241 20.8643 112.556 20.8032 112.872 20.8032C113.189 20.8031 113.496 20.8678 113.794 20.9972C114.107 21.127 114.394 21.3293 114.655 21.604C114.909 21.8704 115.088 22.1592 115.194 22.4706C115.316 22.7824 115.369 23.0965 115.353 23.4128C115.353 23.7296 115.284 24.0406 115.146 24.3458C115.016 24.6593 114.834 24.943 114.601 25.197ZM113.776 27.9297L112.779 26.8809C112.267 27.1928 111.769 27.302 111.284 27.2084C110.807 27.1231 110.355 26.8558 109.927 26.4063C109.595 26.0566 109.365 25.6974 109.236 25.3286C109.107 24.9598 109.06 24.6012 109.093 24.2527C109.134 23.8964 109.244 23.5621 109.423 23.2498C109.61 22.9296 109.849 22.6392 110.14 22.3786L114.732 27.2108C115.139 26.8556 115.516 26.4266 115.861 25.9236C116.215 25.429 116.464 24.8911 116.609 24.3099C116.762 23.7371 116.773 23.1484 116.642 22.544C116.527 21.94 116.197 21.3508 115.651 20.7764C115.232 20.3352 114.761 20.0064 114.239 19.7901C113.724 19.582 113.186 19.483 112.626 19.4931C112.073 19.5116 111.521 19.6397 110.971 19.8775C110.421 20.1153 109.9 20.4676 109.409 20.9344C108.933 21.4178 108.547 21.9197 108.249 22.4401C107.96 22.9689 107.788 23.5047 107.733 24.0476C107.679 24.5904 107.746 25.1283 107.936 25.6611C108.133 26.2022 108.477 26.7308 108.968 27.2469C109.664 27.9795 110.425 28.4131 111.25 28.5478C112.075 28.6825 112.917 28.4765 113.776 27.9297Z" fill="#F5FFB1"/>
<path d="M120.905 27.3442L123.047 25.75L122.173 24.5754L120.031 26.1696L119.126 24.9536L118.089 25.725L118.994 26.941L114.448 30.3248C114.117 30.5716 113.873 30.8027 113.719 31.0181C113.564 31.2334 113.479 31.4467 113.465 31.6579C113.457 31.8784 113.509 32.1117 113.621 32.3579C113.748 32.6064 113.925 32.8827 114.152 33.1867L114.82 34.0849L115.857 33.3135L115.456 32.7746C115.318 32.5903 115.21 32.4349 115.13 32.3083C115.066 32.184 115.033 32.0725 115.031 31.9737C115.029 31.875 115.06 31.7809 115.122 31.6916C115.191 31.6114 115.295 31.5199 115.433 31.4171L119.869 28.1156L120.928 29.5389L121.964 28.7675L120.905 27.3442Z" fill="#F5FFB1"/>
<path d="M119.489 41.8107C119.234 41.6654 118.995 41.3982 118.773 41.0093C118.585 40.6802 118.524 40.3647 118.59 40.0627C118.671 39.765 118.921 39.4966 119.34 39.2574C118.722 39.1476 118.184 38.9124 117.727 38.5519C117.286 38.1956 116.911 37.7483 116.604 37.2097C116.404 36.8607 116.253 36.5038 116.151 36.1392C116.054 35.7844 116.025 35.444 116.064 35.1178C116.102 34.7916 116.216 34.4819 116.406 34.1885C116.611 33.8994 116.908 33.6438 117.297 33.4217C117.736 33.1711 118.138 33.0409 118.502 33.0311C118.867 33.0212 119.202 33.0875 119.508 33.2301C119.83 33.3769 120.124 33.5792 120.391 33.8371C120.663 34.105 120.923 34.3864 121.17 34.6813C121.439 34.9905 121.677 35.2911 121.884 35.5832C122.106 35.8795 122.315 36.1303 122.512 36.3355C122.718 36.5349 122.921 36.6703 123.12 36.7416C123.33 36.8072 123.554 36.7716 123.794 36.635C124.073 36.4755 124.266 36.2925 124.373 36.086C124.485 35.8895 124.538 35.6808 124.531 35.4601C124.53 35.2492 124.484 35.0306 124.394 34.8041C124.31 34.5875 124.212 34.3795 124.098 34.1801C123.79 33.6416 123.429 33.2526 123.015 33.0132C122.61 32.7681 122.115 32.7928 121.53 33.0875L120.804 31.816C121.294 31.5626 121.755 31.4317 122.186 31.4233C122.618 31.4149 123.019 31.5033 123.389 31.6886C123.769 31.8682 124.112 32.1218 124.419 32.4495C124.73 32.7872 125.012 33.1754 125.262 33.6142C125.462 33.9633 125.633 34.3216 125.777 34.6891C125.926 35.0666 126.001 35.4405 126.001 35.8109C126.011 36.1755 125.924 36.5224 125.742 36.8513C125.56 37.1803 125.244 37.473 124.795 37.7292L120.816 40.0014C120.517 40.1722 120.306 40.3125 120.184 40.4221C120.067 40.5417 120.065 40.7013 120.179 40.9007C120.242 41.0104 120.341 41.1258 120.476 41.247L119.489 41.8107ZM122.274 37.4828C122.063 37.3915 121.854 37.2334 121.646 37.0082C121.448 36.7774 121.247 36.5288 121.042 36.2624C120.852 36.0002 120.65 35.7388 120.435 35.4781C120.23 35.2116 120.012 34.9922 119.781 34.8198C119.551 34.6474 119.298 34.5405 119.023 34.4991C118.764 34.462 118.475 34.5345 118.156 34.7168C117.946 34.8363 117.789 34.9787 117.685 35.1439C117.597 35.3134 117.545 35.4886 117.529 35.6695C117.519 35.8604 117.545 36.057 117.608 36.2592C117.671 36.4615 117.759 36.6624 117.873 36.8618C118.112 37.2807 118.372 37.6084 118.652 37.8449C118.943 38.0758 119.227 38.2375 119.505 38.3302C119.793 38.4172 120.062 38.4486 120.312 38.4244C120.573 38.3946 120.793 38.3284 120.973 38.2259L122.274 37.4828Z" fill="#F5FFB1"/>
<path d="M131.283 38.4102L119.992 43.2858L120.572 44.6301L131.864 39.7544L131.283 38.4102Z" fill="#F5FFB1"/>
</g>
<defs>
<clipPath id="clip0_10507_8481">
<rect width="134.255" height="133.969" fill="white"/>
</clipPath>
</defs>
</svg>
