<svg width="1856" height="555" viewBox="0 0 1856 555" fill="none" xmlns="http://www.w3.org/2000/svg">
<g clip-path="url(#clip0_1051_729)">
<path d="M1066.92 0V255.148H1112.32C1122.6 137.78 1213.95 44.3735 1344.76 44.3735V0H1066.92Z" fill="#44698B"/>
<path d="M1344.77 44.3735C1475.52 44.3735 1566.93 137.78 1577.21 255.148H1622.61C1622.61 149.761 1717.08 44.3735 1825.44 44.3735H1847.66V0H1344.77V44.3735Z" fill="#BFDBC0"/>
<path d="M1825.44 299.522H1847.66V255.148H1622.61H1577.21C1577.82 262.47 1578.16 269.847 1578.16 277.335V554.669H1856V507.523H1622.61C1622.61 404.909 1717.08 299.522 1825.44 299.522Z" fill="#F99F19"/>
<path d="M555.688 255.148H511.233V277.334C511.233 404.908 416.766 510.295 277.844 510.295C138.922 510.295 44.4551 404.908 44.4551 277.334C44.4551 149.761 138.922 44.3735 277.844 44.3735H300.072V0H0V554.669H555.688V255.148Z" fill="#9D384B"/>
<path d="M1111.37 554.669V277.335C1111.37 269.847 1111.71 262.47 1112.32 255.148H1066.92V277.335C1066.92 404.909 972.453 510.296 833.531 510.296C694.609 510.296 600.142 404.909 600.142 277.335V255.148H555.687V554.669H1111.37Z" fill="#F79BC9"/>
</g>
<defs>
<clipPath id="clip0_1051_729">
<rect width="1856" height="554.67" fill="white"/>
</clipPath>
</defs>
</svg>
