<svg xmlns="http://www.w3.org/2000/svg" xmlns:xlink="http://www.w3.org/1999/xlink" width="1080" zoomAndPan="magnify" viewBox="0 0 810 1439.999935" height="1920" preserveAspectRatio="xMidYMid meet" version="1.0"><defs><g/></defs><rect x="-81" width="972" fill="#ffffff" y="-143.999994" height="1727.999922" fill-opacity="1"/><rect x="-81" width="972" fill="#1052cf" y="-143.999994" height="1727.999922" fill-opacity="1"/><g fill="#ffffff" fill-opacity="1"><g transform="translate(35.607682, 516.061519)"><g/></g></g><g fill="#ffffff" fill-opacity="1"><g transform="translate(49.506119, 516.061519)"><g><path d="M 66.09375 0 L 52.359375 0 L 42.6875 -25.484375 L 33 0 L 19.28125 0 L 0.40625 -39.21875 L 17.09375 -39.21875 L 26.9375 -14.296875 L 37.484375 -39.21875 L 47.875 -39.21875 L 58.4375 -14.296875 L 68.28125 -39.21875 L 84.953125 -39.21875 Z M 66.09375 0 "/></g></g></g><g fill="#ffffff" fill-opacity="1"><g transform="translate(134.861389, 516.061519)"><g><path d="M 20.84375 0 L 4.375 0 L 4.375 -39.234375 L 20.84375 -39.234375 Z M 20.84375 0 "/></g></g></g><g fill="#ffffff" fill-opacity="1"><g transform="translate(160.068807, 516.061519)"><g><path d="M 50.171875 0 L 4.375 0 L 4.375 -39.234375 L 20.84375 -39.234375 L 20.84375 -9.703125 L 50.171875 -9.703125 Z M 50.171875 0 "/></g></g></g><g fill="#ffffff" fill-opacity="1"><g transform="translate(211.331181, 516.061519)"><g><path d="M 50.171875 0 L 4.375 0 L 4.375 -39.234375 L 20.84375 -39.234375 L 20.84375 -9.703125 L 50.171875 -9.703125 Z M 50.171875 0 "/></g></g></g><g fill="#ffffff" fill-opacity="1"><g transform="translate(262.593555, 516.061519)"><g/></g></g><g fill="#ffffff" fill-opacity="1"><g transform="translate(276.482242, 516.061519)"><g><path d="M 29.671875 0.84375 C 19.972656 0.84375 12.835938 -1.148438 8.265625 -5.140625 C 4.210938 -8.660156 2.1875 -13.472656 2.1875 -19.578125 C 2.1875 -25.679688 4.210938 -30.503906 8.265625 -34.046875 C 12.835938 -38.015625 19.972656 -40 29.671875 -40 C 35.359375 -40 40.0625 -39.347656 43.78125 -38.046875 C 47.5 -36.742188 50.382812 -34.960938 52.4375 -32.703125 C 54.5 -30.441406 55.867188 -27.851562 56.546875 -24.9375 L 39.234375 -24.9375 C 37.503906 -27.976562 34.316406 -29.5 29.671875 -29.5 C 25.691406 -29.5 22.765625 -28.351562 20.890625 -26.0625 C 19.398438 -24.238281 18.65625 -22.078125 18.65625 -19.578125 C 18.65625 -17.078125 19.398438 -14.914062 20.890625 -13.09375 C 22.765625 -10.800781 25.691406 -9.65625 29.671875 -9.65625 C 34.316406 -9.65625 37.503906 -11.1875 39.234375 -14.25 L 56.546875 -14.25 C 55.867188 -11.3125 54.5 -8.710938 52.4375 -6.453125 C 50.382812 -4.191406 47.5 -2.410156 43.78125 -1.109375 C 40.0625 0.191406 35.359375 0.84375 29.671875 0.84375 Z M 29.671875 0.84375 "/></g></g></g><g fill="#ffffff" fill-opacity="1"><g transform="translate(335.208418, 516.061519)"><g><path d="M 29.671875 0.84375 C 19.972656 0.84375 12.835938 -1.148438 8.265625 -5.140625 C 4.210938 -8.679688 2.1875 -13.503906 2.1875 -19.609375 C 2.1875 -25.691406 4.210938 -30.503906 8.265625 -34.046875 C 12.835938 -38.035156 19.972656 -40.03125 29.671875 -40.03125 C 39.367188 -40.03125 46.503906 -38.035156 51.078125 -34.046875 C 55.128906 -30.503906 57.15625 -25.691406 57.15625 -19.609375 C 57.15625 -13.503906 55.128906 -8.679688 51.078125 -5.140625 C 46.503906 -1.148438 39.367188 0.84375 29.671875 0.84375 Z M 29.671875 -9.6875 C 33.640625 -9.6875 36.554688 -10.820312 38.421875 -13.09375 C 39.910156 -14.9375 40.65625 -17.109375 40.65625 -19.609375 C 40.65625 -22.109375 39.910156 -24.269531 38.421875 -26.09375 C 36.554688 -28.382812 33.640625 -29.53125 29.671875 -29.53125 C 25.691406 -29.53125 22.765625 -28.382812 20.890625 -26.09375 C 19.398438 -24.269531 18.65625 -22.109375 18.65625 -19.609375 C 18.65625 -17.109375 19.398438 -14.9375 20.890625 -13.09375 C 22.765625 -10.820312 25.691406 -9.6875 29.671875 -9.6875 Z M 29.671875 -9.6875 "/></g></g></g><g fill="#ffffff" fill-opacity="1"><g transform="translate(394.536072, 516.061519)"><g><path d="M 62.59375 0 L 43.015625 0 L 20.84375 -26.546875 L 20.84375 0 L 4.375 0 L 4.375 -39.234375 L 23.953125 -39.234375 L 46.125 -12.828125 L 46.125 -39.234375 L 62.59375 -39.234375 Z M 62.59375 0 "/></g></g></g><g fill="#ffffff" fill-opacity="1"><g transform="translate(461.491557, 516.061519)"><g><path d="M 25.921875 0.84375 C 20.617188 0.84375 16.34375 0.273438 13.09375 -0.859375 C 9.851562 -2.003906 7.382812 -3.570312 5.6875 -5.5625 C 3.988281 -7.5625 2.847656 -9.863281 2.265625 -12.46875 L 19.75 -12.46875 C 21.039062 -10.613281 23.097656 -9.6875 25.921875 -9.6875 C 28.742188 -9.6875 30.804688 -10.613281 32.109375 -12.46875 C 32.210938 -12.65625 32.265625 -12.820312 32.265625 -12.96875 C 32.265625 -13.457031 31.613281 -13.820312 30.3125 -14.0625 C 29.007812 -14.3125 27.0625 -14.5 24.46875 -14.625 C 21.207031 -14.769531 17.78125 -15.117188 14.1875 -15.671875 C 6.1875 -16.910156 2.1875 -20.128906 2.1875 -25.328125 C 2.1875 -25.765625 2.210938 -26.226562 2.265625 -26.71875 C 2.847656 -29.320312 3.988281 -31.617188 5.6875 -33.609375 C 7.382812 -35.609375 9.851562 -37.175781 13.09375 -38.3125 C 16.34375 -39.457031 20.617188 -40.03125 25.921875 -40.03125 C 31.222656 -40.03125 35.492188 -39.457031 38.734375 -38.3125 C 41.984375 -37.175781 44.457031 -35.609375 46.15625 -33.609375 C 47.851562 -31.617188 48.992188 -29.320312 49.578125 -26.71875 L 32.109375 -26.71875 C 30.804688 -28.570312 28.742188 -29.5 25.921875 -29.5 C 23.097656 -29.5 21.039062 -28.570312 19.75 -26.71875 C 19.65625 -26.570312 19.609375 -26.4375 19.609375 -26.3125 C 19.609375 -25.875 20.234375 -25.546875 21.484375 -25.328125 C 22.734375 -25.117188 24.570312 -24.941406 27 -24.796875 C 29.4375 -24.648438 32.03125 -24.410156 34.78125 -24.078125 C 37.53125 -23.753906 40.101562 -23.1875 42.5 -22.375 C 44.90625 -21.570312 46.78125 -20.375 48.125 -18.78125 C 49.1875 -17.5625 49.71875 -16.015625 49.71875 -14.140625 C 49.71875 -13.609375 49.671875 -13.050781 49.578125 -12.46875 C 48.992188 -9.863281 47.851562 -7.5625 46.15625 -5.5625 C 44.457031 -3.570312 41.984375 -2.003906 38.734375 -0.859375 C 35.492188 0.273438 31.222656 0.84375 25.921875 0.84375 Z M 25.921875 0.84375 "/></g></g></g><g fill="#ffffff" fill-opacity="1"><g transform="translate(513.382726, 516.061519)"><g><path d="M 20.84375 0 L 4.375 0 L 4.375 -39.234375 L 20.84375 -39.234375 Z M 20.84375 0 "/></g></g></g><g fill="#ffffff" fill-opacity="1"><g transform="translate(538.590121, 516.061519)"><g><path d="M 25.921875 0.84375 C 20.617188 0.84375 16.34375 0.273438 13.09375 -0.859375 C 9.851562 -2.003906 7.382812 -3.570312 5.6875 -5.5625 C 3.988281 -7.5625 2.847656 -9.863281 2.265625 -12.46875 L 19.75 -12.46875 C 21.039062 -10.613281 23.097656 -9.6875 25.921875 -9.6875 C 28.742188 -9.6875 30.804688 -10.613281 32.109375 -12.46875 C 32.210938 -12.65625 32.265625 -12.820312 32.265625 -12.96875 C 32.265625 -13.457031 31.613281 -13.820312 30.3125 -14.0625 C 29.007812 -14.3125 27.0625 -14.5 24.46875 -14.625 C 21.207031 -14.769531 17.78125 -15.117188 14.1875 -15.671875 C 6.1875 -16.910156 2.1875 -20.128906 2.1875 -25.328125 C 2.1875 -25.765625 2.210938 -26.226562 2.265625 -26.71875 C 2.847656 -29.320312 3.988281 -31.617188 5.6875 -33.609375 C 7.382812 -35.609375 9.851562 -37.175781 13.09375 -38.3125 C 16.34375 -39.457031 20.617188 -40.03125 25.921875 -40.03125 C 31.222656 -40.03125 35.492188 -39.457031 38.734375 -38.3125 C 41.984375 -37.175781 44.457031 -35.609375 46.15625 -33.609375 C 47.851562 -31.617188 48.992188 -29.320312 49.578125 -26.71875 L 32.109375 -26.71875 C 30.804688 -28.570312 28.742188 -29.5 25.921875 -29.5 C 23.097656 -29.5 21.039062 -28.570312 19.75 -26.71875 C 19.65625 -26.570312 19.609375 -26.4375 19.609375 -26.3125 C 19.609375 -25.875 20.234375 -25.546875 21.484375 -25.328125 C 22.734375 -25.117188 24.570312 -24.941406 27 -24.796875 C 29.4375 -24.648438 32.03125 -24.410156 34.78125 -24.078125 C 37.53125 -23.753906 40.101562 -23.1875 42.5 -22.375 C 44.90625 -21.570312 46.78125 -20.375 48.125 -18.78125 C 49.1875 -17.5625 49.71875 -16.015625 49.71875 -14.140625 C 49.71875 -13.609375 49.671875 -13.050781 49.578125 -12.46875 C 48.992188 -9.863281 47.851562 -7.5625 46.15625 -5.5625 C 44.457031 -3.570312 41.984375 -2.003906 38.734375 -0.859375 C 35.492188 0.273438 31.222656 0.84375 25.921875 0.84375 Z M 25.921875 0.84375 "/></g></g></g><g fill="#ffffff" fill-opacity="1"><g transform="translate(590.481291, 516.061519)"><g><path d="M 33.46875 0 L 17.015625 0 L 17.015625 -29.53125 L 1.640625 -29.53125 L 1.640625 -39.234375 L 48.84375 -39.234375 L 48.84375 -29.53125 L 33.46875 -29.53125 Z M 33.46875 0 "/></g></g></g><g fill="#ffffff" fill-opacity="1"><g transform="translate(640.95083, 516.061519)"><g/></g></g><g fill="#ffffff" fill-opacity="1"><g transform="translate(654.839516, 516.061519)"><g><path d="M 29.671875 0.84375 C 19.972656 0.84375 12.835938 -1.148438 8.265625 -5.140625 C 4.210938 -8.679688 2.1875 -13.503906 2.1875 -19.609375 C 2.1875 -25.691406 4.210938 -30.503906 8.265625 -34.046875 C 12.835938 -38.035156 19.972656 -40.03125 29.671875 -40.03125 C 39.367188 -40.03125 46.503906 -38.035156 51.078125 -34.046875 C 55.128906 -30.503906 57.15625 -25.691406 57.15625 -19.609375 C 57.15625 -13.503906 55.128906 -8.679688 51.078125 -5.140625 C 46.503906 -1.148438 39.367188 0.84375 29.671875 0.84375 Z M 29.671875 -9.6875 C 33.640625 -9.6875 36.554688 -10.820312 38.421875 -13.09375 C 39.910156 -14.9375 40.65625 -17.109375 40.65625 -19.609375 C 40.65625 -22.109375 39.910156 -24.269531 38.421875 -26.09375 C 36.554688 -28.382812 33.640625 -29.53125 29.671875 -29.53125 C 25.691406 -29.53125 22.765625 -28.382812 20.890625 -26.09375 C 19.398438 -24.269531 18.65625 -22.109375 18.65625 -19.609375 C 18.65625 -17.109375 19.398438 -14.9375 20.890625 -13.09375 C 22.765625 -10.820312 25.691406 -9.6875 29.671875 -9.6875 Z M 29.671875 -9.6875 "/></g></g></g><g fill="#ffffff" fill-opacity="1"><g transform="translate(714.167194, 516.061519)"><g><path d="M 20.84375 0 L 4.375 0 L 4.375 -39.234375 L 49.46875 -39.234375 L 49.46875 -29.53125 L 20.84375 -29.53125 L 20.84375 -23.375 L 45.03125 -23.375 L 45.03125 -15.828125 L 20.84375 -15.828125 Z M 20.84375 0 "/></g></g></g><g fill="#ffffff" fill-opacity="1"><g transform="translate(126.240487, 594.061512)"><g><path d="M 65.90625 0 L 49.21875 0 L 45.53125 -6.421875 L 20.78125 -6.421875 L 17.09375 0 L 0.40625 0 L 25.515625 -39.21875 L 40.796875 -39.21875 Z M 39.984375 -16.140625 L 33.171875 -28.03125 L 26.328125 -16.140625 Z M 39.984375 -16.140625 "/></g></g></g><g fill="#ffffff" fill-opacity="1"><g transform="translate(192.539824, 594.061512)"><g/></g></g><g fill="#ffffff" fill-opacity="1"><g transform="translate(206.428511, 594.061512)"><g><path d="M 33.46875 0 L 17.015625 0 L 17.015625 -29.53125 L 1.640625 -29.53125 L 1.640625 -39.234375 L 48.84375 -39.234375 L 48.84375 -29.53125 L 33.46875 -29.53125 Z M 33.46875 0 "/></g></g></g><g fill="#ffffff" fill-opacity="1"><g transform="translate(256.898027, 594.061512)"><g><path d="M 57.96875 0 L 41.515625 0 L 41.515625 -15.828125 L 20.84375 -15.828125 L 20.84375 0 L 4.375 0 L 4.375 -39.234375 L 20.84375 -39.234375 L 20.84375 -23.375 L 41.515625 -23.375 L 41.515625 -39.234375 L 57.96875 -39.234375 Z M 57.96875 0 "/></g></g></g><g fill="#ffffff" fill-opacity="1"><g transform="translate(319.233086, 594.061512)"><g><path d="M 29.671875 0.84375 C 19.972656 0.84375 12.835938 -1.148438 8.265625 -5.140625 C 4.210938 -8.679688 2.1875 -13.503906 2.1875 -19.609375 C 2.1875 -25.691406 4.210938 -30.503906 8.265625 -34.046875 C 12.835938 -38.035156 19.972656 -40.03125 29.671875 -40.03125 C 39.367188 -40.03125 46.503906 -38.035156 51.078125 -34.046875 C 55.128906 -30.503906 57.15625 -25.691406 57.15625 -19.609375 C 57.15625 -13.503906 55.128906 -8.679688 51.078125 -5.140625 C 46.503906 -1.148438 39.367188 0.84375 29.671875 0.84375 Z M 29.671875 -9.6875 C 33.640625 -9.6875 36.554688 -10.820312 38.421875 -13.09375 C 39.910156 -14.9375 40.65625 -17.109375 40.65625 -19.609375 C 40.65625 -22.109375 39.910156 -24.269531 38.421875 -26.09375 C 36.554688 -28.382812 33.640625 -29.53125 29.671875 -29.53125 C 25.691406 -29.53125 22.765625 -28.382812 20.890625 -26.09375 C 19.398438 -24.269531 18.65625 -22.109375 18.65625 -19.609375 C 18.65625 -17.109375 19.398438 -14.9375 20.890625 -13.09375 C 22.765625 -10.820312 25.691406 -9.6875 29.671875 -9.6875 Z M 29.671875 -9.6875 "/></g></g></g><g fill="#ffffff" fill-opacity="1"><g transform="translate(378.56074, 594.061512)"><g><path d="M 57.9375 0 L 42.390625 0 C 41.671875 -0.988281 41.164062 -2.25 40.875 -3.78125 C 40.625 -4.957031 40.242188 -6.113281 39.734375 -7.25 C 39.222656 -8.394531 38.34375 -9.34375 37.09375 -10.09375 C 35.84375 -10.851562 33.988281 -11.265625 31.53125 -11.328125 L 20.84375 -11.328125 L 20.84375 0 L 4.375 0 L 4.375 -39.234375 L 31.140625 -39.234375 C 37.546875 -39.234375 42.710938 -38.753906 46.640625 -37.796875 C 50.566406 -36.847656 53.429688 -35.347656 55.234375 -33.296875 C 57.035156 -31.242188 57.9375 -28.566406 57.9375 -25.265625 C 57.9375 -22.515625 57.3125 -20.195312 56.0625 -18.3125 C 54.820312 -16.4375 52.851562 -14.953125 50.15625 -13.859375 C 52.757812 -12.785156 54.445312 -11.492188 55.21875 -9.984375 C 56 -8.484375 56.476562 -6.832031 56.65625 -5.03125 C 56.84375 -3.425781 57.269531 -1.75 57.9375 0 Z M 20.84375 -21 L 30.25 -21.03125 C 32.875 -21.03125 34.941406 -21.144531 36.453125 -21.375 C 37.960938 -21.613281 39.078125 -21.9375 39.796875 -22.34375 C 40.515625 -22.757812 40.972656 -23.21875 41.171875 -23.71875 C 41.378906 -24.21875 41.484375 -24.734375 41.484375 -25.265625 C 41.484375 -25.796875 41.378906 -26.316406 41.171875 -26.828125 C 40.972656 -27.335938 40.515625 -27.796875 39.796875 -28.203125 C 39.078125 -28.617188 37.960938 -28.941406 36.453125 -29.171875 C 34.941406 -29.410156 32.875 -29.53125 30.25 -29.53125 L 20.84375 -29.53125 Z M 20.84375 -21 "/></g></g></g><g fill="#ffffff" fill-opacity="1"><g transform="translate(438.681241, 594.061512)"><g><path d="M 29.671875 0.84375 C 19.972656 0.84375 12.835938 -1.148438 8.265625 -5.140625 C 4.210938 -8.679688 2.1875 -13.503906 2.1875 -19.609375 C 2.1875 -25.691406 4.210938 -30.503906 8.265625 -34.046875 C 12.835938 -38.035156 19.972656 -40.03125 29.671875 -40.03125 C 39.367188 -40.03125 46.503906 -38.035156 51.078125 -34.046875 C 55.128906 -30.503906 57.15625 -25.691406 57.15625 -19.609375 C 57.15625 -13.503906 55.128906 -8.679688 51.078125 -5.140625 C 46.503906 -1.148438 39.367188 0.84375 29.671875 0.84375 Z M 29.671875 -9.6875 C 33.640625 -9.6875 36.554688 -10.820312 38.421875 -13.09375 C 39.910156 -14.9375 40.65625 -17.109375 40.65625 -19.609375 C 40.65625 -22.109375 39.910156 -24.269531 38.421875 -26.09375 C 36.554688 -28.382812 33.640625 -29.53125 29.671875 -29.53125 C 25.691406 -29.53125 22.765625 -28.382812 20.890625 -26.09375 C 19.398438 -24.269531 18.65625 -22.109375 18.65625 -19.609375 C 18.65625 -17.109375 19.398438 -14.9375 20.890625 -13.09375 C 22.765625 -10.820312 25.691406 -9.6875 29.671875 -9.6875 Z M 29.671875 -9.6875 "/></g></g></g><g fill="#ffffff" fill-opacity="1"><g transform="translate(498.008895, 594.061512)"><g><path d="M 27.59375 0.84375 C 18.019531 0.84375 11.285156 -1.140625 7.390625 -5.109375 C 4.109375 -8.453125 2.46875 -13.273438 2.46875 -19.578125 L 2.46875 -39.21875 L 18.921875 -39.21875 L 18.921875 -19.578125 C 18.921875 -16.847656 19.382812 -14.6875 20.3125 -13.09375 C 21.644531 -10.820312 24.070312 -9.6875 27.59375 -9.6875 C 31.144531 -9.6875 33.578125 -10.820312 34.890625 -13.09375 C 35.816406 -14.738281 36.28125 -16.898438 36.28125 -19.578125 L 36.28125 -39.21875 L 52.75 -39.21875 L 52.75 -19.359375 C 52.75 -13.203125 51.117188 -8.453125 47.859375 -5.109375 C 43.929688 -1.140625 37.175781 0.84375 27.59375 0.84375 Z M 27.59375 0.84375 "/></g></g></g><g fill="#ffffff" fill-opacity="1"><g transform="translate(553.208209, 594.061512)"><g><path d="M 29.671875 0.84375 C 19.972656 0.84375 12.835938 -1.148438 8.265625 -5.140625 C 4.210938 -8.679688 2.1875 -13.492188 2.1875 -19.578125 C 2.1875 -25.679688 4.210938 -30.503906 8.265625 -34.046875 C 12.835938 -38.035156 19.972656 -40.03125 29.671875 -40.03125 C 35.191406 -40.03125 39.785156 -39.410156 43.453125 -38.171875 C 47.117188 -36.929688 49.992188 -35.238281 52.078125 -33.09375 C 54.160156 -30.957031 55.585938 -28.492188 56.359375 -25.703125 L 38.75 -25.703125 C 36.90625 -28.234375 33.878906 -29.5 29.671875 -29.5 C 25.691406 -29.5 22.765625 -28.363281 20.890625 -26.09375 C 19.398438 -24.25 18.65625 -22.078125 18.65625 -19.578125 C 18.65625 -17.078125 19.398438 -14.914062 20.890625 -13.09375 C 22.765625 -10.820312 25.691406 -9.6875 29.671875 -9.6875 C 32.878906 -9.6875 35.289062 -9.960938 36.90625 -10.515625 C 38.519531 -11.066406 39.695312 -11.789062 40.4375 -12.6875 L 34.015625 -12.6875 L 34.015625 -19.578125 L 56.359375 -19.578125 L 56.359375 0.03125 L 49.515625 0.03125 L 48.125 -3.78125 C 43.769531 -0.695312 37.617188 0.84375 29.671875 0.84375 Z M 29.671875 0.84375 "/></g></g></g><g fill="#ffffff" fill-opacity="1"><g transform="translate(612.836591, 594.061512)"><g><path d="M 57.96875 0 L 41.515625 0 L 41.515625 -15.828125 L 20.84375 -15.828125 L 20.84375 0 L 4.375 0 L 4.375 -39.234375 L 20.84375 -39.234375 L 20.84375 -23.375 L 41.515625 -23.375 L 41.515625 -39.234375 L 57.96875 -39.234375 Z M 57.96875 0 "/></g></g></g><g fill="#ffffff" fill-opacity="1"><g transform="translate(93.170177, 672.061506)"><g><path d="M 29.671875 0.84375 C 19.972656 0.84375 12.835938 -1.148438 8.265625 -5.140625 C 4.210938 -8.679688 2.1875 -13.503906 2.1875 -19.609375 C 2.1875 -25.691406 4.210938 -30.503906 8.265625 -34.046875 C 12.835938 -38.035156 19.972656 -40.03125 29.671875 -40.03125 C 39.367188 -40.03125 46.503906 -38.035156 51.078125 -34.046875 C 55.128906 -30.503906 57.15625 -25.691406 57.15625 -19.609375 C 57.15625 -13.503906 55.128906 -8.679688 51.078125 -5.140625 C 46.503906 -1.148438 39.367188 0.84375 29.671875 0.84375 Z M 29.671875 -9.6875 C 33.640625 -9.6875 36.554688 -10.820312 38.421875 -13.09375 C 39.910156 -14.9375 40.65625 -17.109375 40.65625 -19.609375 C 40.65625 -22.109375 39.910156 -24.269531 38.421875 -26.09375 C 36.554688 -28.382812 33.640625 -29.53125 29.671875 -29.53125 C 25.691406 -29.53125 22.765625 -28.382812 20.890625 -26.09375 C 19.398438 -24.269531 18.65625 -22.109375 18.65625 -19.609375 C 18.65625 -17.109375 19.398438 -14.9375 20.890625 -13.09375 C 22.765625 -10.820312 25.691406 -9.6875 29.671875 -9.6875 Z M 29.671875 -9.6875 "/></g></g></g><g fill="#ffffff" fill-opacity="1"><g transform="translate(152.497832, 672.061506)"><g/></g></g><g fill="#ffffff" fill-opacity="1"><g transform="translate(152.497832, 672.061506)"><g><path d="M 57.9375 0 L 42.390625 0 C 41.671875 -0.988281 41.164062 -2.25 40.875 -3.78125 C 40.625 -4.957031 40.242188 -6.113281 39.734375 -7.25 C 39.222656 -8.394531 38.34375 -9.34375 37.09375 -10.09375 C 35.84375 -10.851562 33.988281 -11.265625 31.53125 -11.328125 L 20.84375 -11.328125 L 20.84375 0 L 4.375 0 L 4.375 -39.234375 L 31.140625 -39.234375 C 37.546875 -39.234375 42.710938 -38.753906 46.640625 -37.796875 C 50.566406 -36.847656 53.429688 -35.347656 55.234375 -33.296875 C 57.035156 -31.242188 57.9375 -28.566406 57.9375 -25.265625 C 57.9375 -22.515625 57.3125 -20.195312 56.0625 -18.3125 C 54.820312 -16.4375 52.851562 -14.953125 50.15625 -13.859375 C 52.757812 -12.785156 54.445312 -11.492188 55.21875 -9.984375 C 56 -8.484375 56.476562 -6.832031 56.65625 -5.03125 C 56.84375 -3.425781 57.269531 -1.75 57.9375 0 Z M 20.84375 -21 L 30.25 -21.03125 C 32.875 -21.03125 34.941406 -21.144531 36.453125 -21.375 C 37.960938 -21.613281 39.078125 -21.9375 39.796875 -22.34375 C 40.515625 -22.757812 40.972656 -23.21875 41.171875 -23.71875 C 41.378906 -24.21875 41.484375 -24.734375 41.484375 -25.265625 C 41.484375 -25.796875 41.378906 -26.316406 41.171875 -26.828125 C 40.972656 -27.335938 40.515625 -27.796875 39.796875 -28.203125 C 39.078125 -28.617188 37.960938 -28.941406 36.453125 -29.171875 C 34.941406 -29.410156 32.875 -29.53125 30.25 -29.53125 L 20.84375 -29.53125 Z M 20.84375 -21 "/></g></g></g><g fill="#ffffff" fill-opacity="1"><g transform="translate(212.618344, 672.061506)"><g><path d="M 33.46875 0 L 17.015625 0 L 17.015625 -29.53125 L 1.640625 -29.53125 L 1.640625 -39.234375 L 48.84375 -39.234375 L 48.84375 -29.53125 L 33.46875 -29.53125 Z M 33.46875 0 "/></g></g></g><g fill="#ffffff" fill-opacity="1"><g transform="translate(263.08786, 672.061506)"><g><path d="M 57.96875 0 L 41.515625 0 L 41.515625 -15.828125 L 20.84375 -15.828125 L 20.84375 0 L 4.375 0 L 4.375 -39.234375 L 20.84375 -39.234375 L 20.84375 -23.375 L 41.515625 -23.375 L 41.515625 -39.234375 L 57.96875 -39.234375 Z M 57.96875 0 "/></g></g></g><g fill="#ffffff" fill-opacity="1"><g transform="translate(325.422919, 672.061506)"><g><path d="M 29.671875 0.84375 C 19.972656 0.84375 12.835938 -1.148438 8.265625 -5.140625 C 4.210938 -8.679688 2.1875 -13.503906 2.1875 -19.609375 C 2.1875 -25.691406 4.210938 -30.503906 8.265625 -34.046875 C 12.835938 -38.035156 19.972656 -40.03125 29.671875 -40.03125 C 39.367188 -40.03125 46.503906 -38.035156 51.078125 -34.046875 C 55.128906 -30.503906 57.15625 -25.691406 57.15625 -19.609375 C 57.15625 -13.503906 55.128906 -8.679688 51.078125 -5.140625 C 46.503906 -1.148438 39.367188 0.84375 29.671875 0.84375 Z M 29.671875 -9.6875 C 33.640625 -9.6875 36.554688 -10.820312 38.421875 -13.09375 C 39.910156 -14.9375 40.65625 -17.109375 40.65625 -19.609375 C 40.65625 -22.109375 39.910156 -24.269531 38.421875 -26.09375 C 36.554688 -28.382812 33.640625 -29.53125 29.671875 -29.53125 C 25.691406 -29.53125 22.765625 -28.382812 20.890625 -26.09375 C 19.398438 -24.269531 18.65625 -22.109375 18.65625 -19.609375 C 18.65625 -17.109375 19.398438 -14.9375 20.890625 -13.09375 C 22.765625 -10.820312 25.691406 -9.6875 29.671875 -9.6875 Z M 29.671875 -9.6875 "/></g></g></g><g fill="#ffffff" fill-opacity="1"><g transform="translate(384.750573, 672.061506)"><g><path d="M 30.625 0 L 4.375 0 L 4.375 -39.234375 L 30.625 -39.234375 C 41.363281 -39.234375 49.082031 -37.734375 53.78125 -34.734375 C 57.570312 -32.304688 59.734375 -29.003906 60.265625 -24.828125 C 60.503906 -23.023438 60.625 -21.285156 60.625 -19.609375 C 60.625 -17.953125 60.507812 -16.210938 60.28125 -14.390625 C 60.050781 -12.578125 59.441406 -10.816406 58.453125 -9.109375 C 57.472656 -7.410156 55.910156 -5.878906 53.765625 -4.515625 C 51.628906 -3.148438 48.695312 -2.054688 44.96875 -1.234375 C 41.238281 -0.410156 36.457031 0 30.625 0 Z M 29.0625 -9.703125 C 37.4375 -9.703125 42.171875 -11.816406 43.265625 -16.046875 C 43.554688 -17.234375 43.703125 -18.421875 43.703125 -19.609375 C 43.703125 -20.804688 43.550781 -21.992188 43.25 -23.171875 C 42.945312 -24.347656 42.304688 -25.414062 41.328125 -26.375 C 40.359375 -27.332031 38.894531 -28.097656 36.9375 -28.671875 C 34.988281 -29.242188 32.363281 -29.53125 29.0625 -29.53125 L 20.84375 -29.53125 L 20.84375 -9.703125 Z M 29.0625 -9.703125 "/></g></g></g><g fill="#ffffff" fill-opacity="1"><g transform="translate(447.550411, 672.061506)"><g><path d="M 29.671875 0.84375 C 19.972656 0.84375 12.835938 -1.148438 8.265625 -5.140625 C 4.210938 -8.679688 2.1875 -13.503906 2.1875 -19.609375 C 2.1875 -25.691406 4.210938 -30.503906 8.265625 -34.046875 C 12.835938 -38.035156 19.972656 -40.03125 29.671875 -40.03125 C 39.367188 -40.03125 46.503906 -38.035156 51.078125 -34.046875 C 55.128906 -30.503906 57.15625 -25.691406 57.15625 -19.609375 C 57.15625 -13.503906 55.128906 -8.679688 51.078125 -5.140625 C 46.503906 -1.148438 39.367188 0.84375 29.671875 0.84375 Z M 29.671875 -9.6875 C 33.640625 -9.6875 36.554688 -10.820312 38.421875 -13.09375 C 39.910156 -14.9375 40.65625 -17.109375 40.65625 -19.609375 C 40.65625 -22.109375 39.910156 -24.269531 38.421875 -26.09375 C 36.554688 -28.382812 33.640625 -29.53125 29.671875 -29.53125 C 25.691406 -29.53125 22.765625 -28.382812 20.890625 -26.09375 C 19.398438 -24.269531 18.65625 -22.109375 18.65625 -19.609375 C 18.65625 -17.109375 19.398438 -14.9375 20.890625 -13.09375 C 22.765625 -10.820312 25.691406 -9.6875 29.671875 -9.6875 Z M 29.671875 -9.6875 "/></g></g></g><g fill="#ffffff" fill-opacity="1"><g transform="translate(506.878089, 672.061506)"><g><path d="M 62.59375 0 L 43.015625 0 L 20.84375 -26.546875 L 20.84375 0 L 4.375 0 L 4.375 -39.234375 L 23.953125 -39.234375 L 46.125 -12.828125 L 46.125 -39.234375 L 62.59375 -39.234375 Z M 62.59375 0 "/></g></g></g><g fill="#ffffff" fill-opacity="1"><g transform="translate(573.833573, 672.061506)"><g><path d="M 33.46875 0 L 17.015625 0 L 17.015625 -29.53125 L 1.640625 -29.53125 L 1.640625 -39.234375 L 48.84375 -39.234375 L 48.84375 -29.53125 L 33.46875 -29.53125 Z M 33.46875 0 "/></g></g></g><g fill="#ffffff" fill-opacity="1"><g transform="translate(624.303067, 672.061506)"><g><path d="M 20.84375 0 L 4.375 0 L 4.375 -39.234375 L 20.84375 -39.234375 Z M 20.84375 0 "/></g></g></g><g fill="#ffffff" fill-opacity="1"><g transform="translate(649.510462, 672.061506)"><g><path d="M 29.671875 0.84375 C 19.972656 0.84375 12.835938 -1.148438 8.265625 -5.140625 C 4.210938 -8.660156 2.1875 -13.472656 2.1875 -19.578125 C 2.1875 -25.679688 4.210938 -30.503906 8.265625 -34.046875 C 12.835938 -38.015625 19.972656 -40 29.671875 -40 C 35.359375 -40 40.0625 -39.347656 43.78125 -38.046875 C 47.5 -36.742188 50.382812 -34.960938 52.4375 -32.703125 C 54.5 -30.441406 55.867188 -27.851562 56.546875 -24.9375 L 39.234375 -24.9375 C 37.503906 -27.976562 34.316406 -29.5 29.671875 -29.5 C 25.691406 -29.5 22.765625 -28.351562 20.890625 -26.0625 C 19.398438 -24.238281 18.65625 -22.078125 18.65625 -19.578125 C 18.65625 -17.078125 19.398438 -14.914062 20.890625 -13.09375 C 22.765625 -10.800781 25.691406 -9.65625 29.671875 -9.65625 C 34.316406 -9.65625 37.503906 -11.1875 39.234375 -14.25 L 56.546875 -14.25 C 55.867188 -11.3125 54.5 -8.710938 52.4375 -6.453125 C 50.382812 -4.191406 47.5 -2.410156 43.78125 -1.109375 C 40.0625 0.191406 35.359375 0.84375 29.671875 0.84375 Z M 29.671875 0.84375 "/></g></g></g><g fill="#ffffff" fill-opacity="1"><g transform="translate(90.299084, 750.061499)"><g><path d="M 51.625 0 L 4.375 0 L 4.375 -39.234375 L 49.46875 -39.234375 L 49.46875 -29.53125 L 20.84375 -29.53125 L 20.84375 -23.375 L 45.03125 -23.375 L 45.03125 -15.828125 L 20.84375 -15.828125 L 20.84375 -9.703125 L 51.625 -9.703125 Z M 51.625 0 "/></g></g></g><g fill="#ffffff" fill-opacity="1"><g transform="translate(144.104072, 750.061499)"><g><path d="M 56.546875 0 L 39.875 0 L 28.5 -12.03125 L 17.09375 0 L 0.40625 0 L 20.84375 -20.078125 L 0.40625 -39.21875 L 17.09375 -39.21875 L 28.5 -27.96875 L 39.875 -39.21875 L 56.546875 -39.21875 L 36.125 -20.078125 Z M 56.546875 0 "/></g></g></g><g fill="#ffffff" fill-opacity="1"><g transform="translate(201.053152, 750.061499)"><g><path d="M 65.90625 0 L 49.21875 0 L 45.53125 -6.421875 L 20.78125 -6.421875 L 17.09375 0 L 0.40625 0 L 25.515625 -39.21875 L 40.796875 -39.21875 Z M 39.984375 -16.140625 L 33.171875 -28.03125 L 26.328125 -16.140625 Z M 39.984375 -16.140625 "/></g></g></g><g fill="#ffffff" fill-opacity="1"><g transform="translate(267.35249, 750.061499)"><g><path d="M 78.96875 0 L 62.515625 0 L 62.515625 -25.015625 L 47.796875 0 L 35.515625 0 L 20.84375 -25.015625 L 20.84375 0 L 4.375 0 L 4.375 -39.234375 L 23.921875 -39.234375 L 41.671875 -11.21875 L 59.390625 -39.234375 L 78.96875 -39.234375 Z M 78.96875 0 "/></g></g></g><g fill="#ffffff" fill-opacity="1"><g transform="translate(350.684605, 750.061499)"><g><path d="M 20.84375 0 L 4.375 0 L 4.375 -39.234375 L 20.84375 -39.234375 Z M 20.84375 0 "/></g></g></g><g fill="#ffffff" fill-opacity="1"><g transform="translate(375.892023, 750.061499)"><g><path d="M 62.59375 0 L 43.015625 0 L 20.84375 -26.546875 L 20.84375 0 L 4.375 0 L 4.375 -39.234375 L 23.953125 -39.234375 L 46.125 -12.828125 L 46.125 -39.234375 L 62.59375 -39.234375 Z M 62.59375 0 "/></g></g></g><g fill="#ffffff" fill-opacity="1"><g transform="translate(442.84753, 750.061499)"><g><path d="M 65.90625 0 L 49.21875 0 L 45.53125 -6.421875 L 20.78125 -6.421875 L 17.09375 0 L 0.40625 0 L 25.515625 -39.21875 L 40.796875 -39.21875 Z M 39.984375 -16.140625 L 33.171875 -28.03125 L 26.328125 -16.140625 Z M 39.984375 -16.140625 "/></g></g></g><g fill="#ffffff" fill-opacity="1"><g transform="translate(509.146856, 750.061499)"><g><path d="M 33.46875 0 L 17.015625 0 L 17.015625 -29.53125 L 1.640625 -29.53125 L 1.640625 -39.234375 L 48.84375 -39.234375 L 48.84375 -29.53125 L 33.46875 -29.53125 Z M 33.46875 0 "/></g></g></g><g fill="#ffffff" fill-opacity="1"><g transform="translate(559.616396, 750.061499)"><g><path d="M 20.84375 0 L 4.375 0 L 4.375 -39.234375 L 20.84375 -39.234375 Z M 20.84375 0 "/></g></g></g><g fill="#ffffff" fill-opacity="1"><g transform="translate(584.823791, 750.061499)"><g><path d="M 29.671875 0.84375 C 19.972656 0.84375 12.835938 -1.148438 8.265625 -5.140625 C 4.210938 -8.679688 2.1875 -13.503906 2.1875 -19.609375 C 2.1875 -25.691406 4.210938 -30.503906 8.265625 -34.046875 C 12.835938 -38.035156 19.972656 -40.03125 29.671875 -40.03125 C 39.367188 -40.03125 46.503906 -38.035156 51.078125 -34.046875 C 55.128906 -30.503906 57.15625 -25.691406 57.15625 -19.609375 C 57.15625 -13.503906 55.128906 -8.679688 51.078125 -5.140625 C 46.503906 -1.148438 39.367188 0.84375 29.671875 0.84375 Z M 29.671875 -9.6875 C 33.640625 -9.6875 36.554688 -10.820312 38.421875 -13.09375 C 39.910156 -14.9375 40.65625 -17.109375 40.65625 -19.609375 C 40.65625 -22.109375 39.910156 -24.269531 38.421875 -26.09375 C 36.554688 -28.382812 33.640625 -29.53125 29.671875 -29.53125 C 25.691406 -29.53125 22.765625 -28.382812 20.890625 -26.09375 C 19.398438 -24.269531 18.65625 -22.109375 18.65625 -19.609375 C 18.65625 -17.109375 19.398438 -14.9375 20.890625 -13.09375 C 22.765625 -10.820312 25.691406 -9.6875 29.671875 -9.6875 Z M 29.671875 -9.6875 "/></g></g></g><g fill="#ffffff" fill-opacity="1"><g transform="translate(644.151423, 750.061499)"><g><path d="M 62.59375 0 L 43.015625 0 L 20.84375 -26.546875 L 20.84375 0 L 4.375 0 L 4.375 -39.234375 L 23.953125 -39.234375 L 46.125 -12.828125 L 46.125 -39.234375 L 62.59375 -39.234375 Z M 62.59375 0 "/></g></g></g><g fill="#ffffff" fill-opacity="1"><g transform="translate(164.736577, 828.061492)"><g><path d="M 20.84375 0 L 4.375 0 L 4.375 -39.234375 L 20.84375 -39.234375 Z M 20.84375 0 "/></g></g></g><g fill="#ffffff" fill-opacity="1"><g transform="translate(189.943996, 828.061492)"><g><path d="M 62.59375 0 L 43.015625 0 L 20.84375 -26.546875 L 20.84375 0 L 4.375 0 L 4.375 -39.234375 L 23.953125 -39.234375 L 46.125 -12.828125 L 46.125 -39.234375 L 62.59375 -39.234375 Z M 62.59375 0 "/></g></g></g><g fill="#ffffff" fill-opacity="1"><g transform="translate(256.899491, 828.061492)"><g><path d="M 29.671875 0.84375 C 19.972656 0.84375 12.835938 -1.148438 8.265625 -5.140625 C 4.210938 -8.660156 2.1875 -13.472656 2.1875 -19.578125 C 2.1875 -25.679688 4.210938 -30.503906 8.265625 -34.046875 C 12.835938 -38.015625 19.972656 -40 29.671875 -40 C 35.359375 -40 40.0625 -39.347656 43.78125 -38.046875 C 47.5 -36.742188 50.382812 -34.960938 52.4375 -32.703125 C 54.5 -30.441406 55.867188 -27.851562 56.546875 -24.9375 L 39.234375 -24.9375 C 37.503906 -27.976562 34.316406 -29.5 29.671875 -29.5 C 25.691406 -29.5 22.765625 -28.351562 20.890625 -26.0625 C 19.398438 -24.238281 18.65625 -22.078125 18.65625 -19.578125 C 18.65625 -17.078125 19.398438 -14.914062 20.890625 -13.09375 C 22.765625 -10.800781 25.691406 -9.65625 29.671875 -9.65625 C 34.316406 -9.65625 37.503906 -11.1875 39.234375 -14.25 L 56.546875 -14.25 C 55.867188 -11.3125 54.5 -8.710938 52.4375 -6.453125 C 50.382812 -4.191406 47.5 -2.410156 43.78125 -1.109375 C 40.0625 0.191406 35.359375 0.84375 29.671875 0.84375 Z M 29.671875 0.84375 "/></g></g></g><g fill="#ffffff" fill-opacity="1"><g transform="translate(315.625668, 828.061492)"><g><path d="M 50.171875 0 L 4.375 0 L 4.375 -39.234375 L 20.84375 -39.234375 L 20.84375 -9.703125 L 50.171875 -9.703125 Z M 50.171875 0 "/></g></g></g><g fill="#ffffff" fill-opacity="1"><g transform="translate(366.888042, 828.061492)"><g><path d="M 27.59375 0.84375 C 18.019531 0.84375 11.285156 -1.140625 7.390625 -5.109375 C 4.109375 -8.453125 2.46875 -13.273438 2.46875 -19.578125 L 2.46875 -39.21875 L 18.921875 -39.21875 L 18.921875 -19.578125 C 18.921875 -16.847656 19.382812 -14.6875 20.3125 -13.09375 C 21.644531 -10.820312 24.070312 -9.6875 27.59375 -9.6875 C 31.144531 -9.6875 33.578125 -10.820312 34.890625 -13.09375 C 35.816406 -14.738281 36.28125 -16.898438 36.28125 -19.578125 L 36.28125 -39.21875 L 52.75 -39.21875 L 52.75 -19.359375 C 52.75 -13.203125 51.117188 -8.453125 47.859375 -5.109375 C 43.929688 -1.140625 37.175781 0.84375 27.59375 0.84375 Z M 27.59375 0.84375 "/></g></g></g><g fill="#ffffff" fill-opacity="1"><g transform="translate(422.087355, 828.061492)"><g><path d="M 30.625 0 L 4.375 0 L 4.375 -39.234375 L 30.625 -39.234375 C 41.363281 -39.234375 49.082031 -37.734375 53.78125 -34.734375 C 57.570312 -32.304688 59.734375 -29.003906 60.265625 -24.828125 C 60.503906 -23.023438 60.625 -21.285156 60.625 -19.609375 C 60.625 -17.953125 60.507812 -16.210938 60.28125 -14.390625 C 60.050781 -12.578125 59.441406 -10.816406 58.453125 -9.109375 C 57.472656 -7.410156 55.910156 -5.878906 53.765625 -4.515625 C 51.628906 -3.148438 48.695312 -2.054688 44.96875 -1.234375 C 41.238281 -0.410156 36.457031 0 30.625 0 Z M 29.0625 -9.703125 C 37.4375 -9.703125 42.171875 -11.816406 43.265625 -16.046875 C 43.554688 -17.234375 43.703125 -18.421875 43.703125 -19.609375 C 43.703125 -20.804688 43.550781 -21.992188 43.25 -23.171875 C 42.945312 -24.347656 42.304688 -25.414062 41.328125 -26.375 C 40.359375 -27.332031 38.894531 -28.097656 36.9375 -28.671875 C 34.988281 -29.242188 32.363281 -29.53125 29.0625 -29.53125 L 20.84375 -29.53125 L 20.84375 -9.703125 Z M 29.0625 -9.703125 "/></g></g></g><g fill="#ffffff" fill-opacity="1"><g transform="translate(484.887169, 828.061492)"><g><path d="M 20.84375 0 L 4.375 0 L 4.375 -39.234375 L 20.84375 -39.234375 Z M 20.84375 0 "/></g></g></g><g fill="#ffffff" fill-opacity="1"><g transform="translate(510.094588, 828.061492)"><g><path d="M 62.59375 0 L 43.015625 0 L 20.84375 -26.546875 L 20.84375 0 L 4.375 0 L 4.375 -39.234375 L 23.953125 -39.234375 L 46.125 -12.828125 L 46.125 -39.234375 L 62.59375 -39.234375 Z M 62.59375 0 "/></g></g></g><g fill="#ffffff" fill-opacity="1"><g transform="translate(577.050095, 828.061492)"><g><path d="M 29.671875 0.84375 C 19.972656 0.84375 12.835938 -1.148438 8.265625 -5.140625 C 4.210938 -8.679688 2.1875 -13.492188 2.1875 -19.578125 C 2.1875 -25.679688 4.210938 -30.503906 8.265625 -34.046875 C 12.835938 -38.035156 19.972656 -40.03125 29.671875 -40.03125 C 35.191406 -40.03125 39.785156 -39.410156 43.453125 -38.171875 C 47.117188 -36.929688 49.992188 -35.238281 52.078125 -33.09375 C 54.160156 -30.957031 55.585938 -28.492188 56.359375 -25.703125 L 38.75 -25.703125 C 36.90625 -28.234375 33.878906 -29.5 29.671875 -29.5 C 25.691406 -29.5 22.765625 -28.363281 20.890625 -26.09375 C 19.398438 -24.25 18.65625 -22.078125 18.65625 -19.578125 C 18.65625 -17.078125 19.398438 -14.914062 20.890625 -13.09375 C 22.765625 -10.820312 25.691406 -9.6875 29.671875 -9.6875 C 32.878906 -9.6875 35.289062 -9.960938 36.90625 -10.515625 C 38.519531 -11.066406 39.695312 -11.789062 40.4375 -12.6875 L 34.015625 -12.6875 L 34.015625 -19.578125 L 56.359375 -19.578125 L 56.359375 0.03125 L 49.515625 0.03125 L 48.125 -3.78125 C 43.769531 -0.695312 37.617188 0.84375 29.671875 0.84375 Z M 29.671875 0.84375 "/></g></g></g><g fill="#ffffff" fill-opacity="1"><g transform="translate(83.900647, 906.061485)"><g><path d="M 20.84375 0 L 4.375 0 L 4.375 -39.234375 L 31.140625 -39.234375 C 37.546875 -39.234375 42.710938 -38.753906 46.640625 -37.796875 C 50.566406 -36.847656 53.429688 -35.347656 55.234375 -33.296875 C 57.035156 -31.242188 57.9375 -28.566406 57.9375 -25.265625 C 57.9375 -21.984375 57.035156 -19.316406 55.234375 -17.265625 C 53.429688 -15.210938 50.566406 -13.707031 46.640625 -12.75 C 42.710938 -11.800781 37.546875 -11.328125 31.140625 -11.328125 L 20.84375 -11.328125 Z M 20.84375 -21 L 30.25 -21.03125 C 32.875 -21.03125 34.941406 -21.132812 36.453125 -21.34375 C 37.960938 -21.550781 39.078125 -21.847656 39.796875 -22.234375 C 40.515625 -22.617188 40.972656 -23.066406 41.171875 -23.578125 C 41.378906 -24.097656 41.484375 -24.660156 41.484375 -25.265625 C 41.484375 -25.890625 41.378906 -26.457031 41.171875 -26.96875 C 40.972656 -27.488281 40.515625 -27.941406 39.796875 -28.328125 C 39.078125 -28.710938 37.960938 -29.007812 36.453125 -29.21875 C 34.941406 -29.425781 32.875 -29.53125 30.25 -29.53125 L 20.84375 -29.53125 Z M 20.84375 -21 "/></g></g></g><g fill="#ffffff" fill-opacity="1"><g transform="translate(144.021159, 906.061485)"><g><path d="M 57.96875 0 L 41.515625 0 L 41.515625 -15.828125 L 20.84375 -15.828125 L 20.84375 0 L 4.375 0 L 4.375 -39.234375 L 20.84375 -39.234375 L 20.84375 -23.375 L 41.515625 -23.375 L 41.515625 -39.234375 L 57.96875 -39.234375 Z M 57.96875 0 "/></g></g></g><g fill="#ffffff" fill-opacity="1"><g transform="translate(206.356206, 906.061485)"><g><path d="M 29.671875 0.84375 C 19.972656 0.84375 12.835938 -1.148438 8.265625 -5.140625 C 4.210938 -8.679688 2.1875 -13.503906 2.1875 -19.609375 C 2.1875 -25.691406 4.210938 -30.503906 8.265625 -34.046875 C 12.835938 -38.035156 19.972656 -40.03125 29.671875 -40.03125 C 39.367188 -40.03125 46.503906 -38.035156 51.078125 -34.046875 C 55.128906 -30.503906 57.15625 -25.691406 57.15625 -19.609375 C 57.15625 -13.503906 55.128906 -8.679688 51.078125 -5.140625 C 46.503906 -1.148438 39.367188 0.84375 29.671875 0.84375 Z M 29.671875 -9.6875 C 33.640625 -9.6875 36.554688 -10.820312 38.421875 -13.09375 C 39.910156 -14.9375 40.65625 -17.109375 40.65625 -19.609375 C 40.65625 -22.109375 39.910156 -24.269531 38.421875 -26.09375 C 36.554688 -28.382812 33.640625 -29.53125 29.671875 -29.53125 C 25.691406 -29.53125 22.765625 -28.382812 20.890625 -26.09375 C 19.398438 -24.269531 18.65625 -22.109375 18.65625 -19.609375 C 18.65625 -17.109375 19.398438 -14.9375 20.890625 -13.09375 C 22.765625 -10.820312 25.691406 -9.6875 29.671875 -9.6875 Z M 29.671875 -9.6875 "/></g></g></g><g fill="#ffffff" fill-opacity="1"><g transform="translate(265.68386, 906.061485)"><g><path d="M 33.46875 0 L 17.015625 0 L 17.015625 -29.53125 L 1.640625 -29.53125 L 1.640625 -39.234375 L 48.84375 -39.234375 L 48.84375 -29.53125 L 33.46875 -29.53125 Z M 33.46875 0 "/></g></g></g><g fill="#ffffff" fill-opacity="1"><g transform="translate(316.153388, 906.061485)"><g><path d="M 29.671875 0.84375 C 19.972656 0.84375 12.835938 -1.148438 8.265625 -5.140625 C 4.210938 -8.679688 2.1875 -13.503906 2.1875 -19.609375 C 2.1875 -25.691406 4.210938 -30.503906 8.265625 -34.046875 C 12.835938 -38.035156 19.972656 -40.03125 29.671875 -40.03125 C 39.367188 -40.03125 46.503906 -38.035156 51.078125 -34.046875 C 55.128906 -30.503906 57.15625 -25.691406 57.15625 -19.609375 C 57.15625 -13.503906 55.128906 -8.679688 51.078125 -5.140625 C 46.503906 -1.148438 39.367188 0.84375 29.671875 0.84375 Z M 29.671875 -9.6875 C 33.640625 -9.6875 36.554688 -10.820312 38.421875 -13.09375 C 39.910156 -14.9375 40.65625 -17.109375 40.65625 -19.609375 C 40.65625 -22.109375 39.910156 -24.269531 38.421875 -26.09375 C 36.554688 -28.382812 33.640625 -29.53125 29.671875 -29.53125 C 25.691406 -29.53125 22.765625 -28.382812 20.890625 -26.09375 C 19.398438 -24.269531 18.65625 -22.109375 18.65625 -19.609375 C 18.65625 -17.109375 19.398438 -14.9375 20.890625 -13.09375 C 22.765625 -10.820312 25.691406 -9.6875 29.671875 -9.6875 Z M 29.671875 -9.6875 "/></g></g></g><g fill="#ffffff" fill-opacity="1"><g transform="translate(375.481042, 906.061485)"><g><path d="M 25.921875 0.84375 C 20.617188 0.84375 16.34375 0.273438 13.09375 -0.859375 C 9.851562 -2.003906 7.382812 -3.570312 5.6875 -5.5625 C 3.988281 -7.5625 2.847656 -9.863281 2.265625 -12.46875 L 19.75 -12.46875 C 21.039062 -10.613281 23.097656 -9.6875 25.921875 -9.6875 C 28.742188 -9.6875 30.804688 -10.613281 32.109375 -12.46875 C 32.210938 -12.65625 32.265625 -12.820312 32.265625 -12.96875 C 32.265625 -13.457031 31.613281 -13.820312 30.3125 -14.0625 C 29.007812 -14.3125 27.0625 -14.5 24.46875 -14.625 C 21.207031 -14.769531 17.78125 -15.117188 14.1875 -15.671875 C 6.1875 -16.910156 2.1875 -20.128906 2.1875 -25.328125 C 2.1875 -25.765625 2.210938 -26.226562 2.265625 -26.71875 C 2.847656 -29.320312 3.988281 -31.617188 5.6875 -33.609375 C 7.382812 -35.609375 9.851562 -37.175781 13.09375 -38.3125 C 16.34375 -39.457031 20.617188 -40.03125 25.921875 -40.03125 C 31.222656 -40.03125 35.492188 -39.457031 38.734375 -38.3125 C 41.984375 -37.175781 44.457031 -35.609375 46.15625 -33.609375 C 47.851562 -31.617188 48.992188 -29.320312 49.578125 -26.71875 L 32.109375 -26.71875 C 30.804688 -28.570312 28.742188 -29.5 25.921875 -29.5 C 23.097656 -29.5 21.039062 -28.570312 19.75 -26.71875 C 19.65625 -26.570312 19.609375 -26.4375 19.609375 -26.3125 C 19.609375 -25.875 20.234375 -25.546875 21.484375 -25.328125 C 22.734375 -25.117188 24.570312 -24.941406 27 -24.796875 C 29.4375 -24.648438 32.03125 -24.410156 34.78125 -24.078125 C 37.53125 -23.753906 40.101562 -23.1875 42.5 -22.375 C 44.90625 -21.570312 46.78125 -20.375 48.125 -18.78125 C 49.1875 -17.5625 49.71875 -16.015625 49.71875 -14.140625 C 49.71875 -13.609375 49.671875 -13.050781 49.578125 -12.46875 C 48.992188 -9.863281 47.851562 -7.5625 46.15625 -5.5625 C 44.457031 -3.570312 41.984375 -2.003906 38.734375 -0.859375 C 35.492188 0.273438 31.222656 0.84375 25.921875 0.84375 Z M 25.921875 0.84375 "/></g></g></g><g fill="#ffffff" fill-opacity="1"><g transform="translate(427.372235, 906.061485)"><g/></g></g><g fill="#ffffff" fill-opacity="1"><g transform="translate(441.260921, 906.061485)"><g><path d="M 65.90625 0 L 49.21875 0 L 45.53125 -6.421875 L 20.78125 -6.421875 L 17.09375 0 L 0.40625 0 L 25.515625 -39.21875 L 40.796875 -39.21875 Z M 39.984375 -16.140625 L 33.171875 -28.03125 L 26.328125 -16.140625 Z M 39.984375 -16.140625 "/></g></g></g><g fill="#ffffff" fill-opacity="1"><g transform="translate(507.560247, 906.061485)"><g><path d="M 62.59375 0 L 43.015625 0 L 20.84375 -26.546875 L 20.84375 0 L 4.375 0 L 4.375 -39.234375 L 23.953125 -39.234375 L 46.125 -12.828125 L 46.125 -39.234375 L 62.59375 -39.234375 Z M 62.59375 0 "/></g></g></g><g fill="#ffffff" fill-opacity="1"><g transform="translate(574.515732, 906.061485)"><g><path d="M 30.625 0 L 4.375 0 L 4.375 -39.234375 L 30.625 -39.234375 C 41.363281 -39.234375 49.082031 -37.734375 53.78125 -34.734375 C 57.570312 -32.304688 59.734375 -29.003906 60.265625 -24.828125 C 60.503906 -23.023438 60.625 -21.285156 60.625 -19.609375 C 60.625 -17.953125 60.507812 -16.210938 60.28125 -14.390625 C 60.050781 -12.578125 59.441406 -10.816406 58.453125 -9.109375 C 57.472656 -7.410156 55.910156 -5.878906 53.765625 -4.515625 C 51.628906 -3.148438 48.695312 -2.054688 44.96875 -1.234375 C 41.238281 -0.410156 36.457031 0 30.625 0 Z M 29.0625 -9.703125 C 37.4375 -9.703125 42.171875 -11.816406 43.265625 -16.046875 C 43.554688 -17.234375 43.703125 -18.421875 43.703125 -19.609375 C 43.703125 -20.804688 43.550781 -21.992188 43.25 -23.171875 C 42.945312 -24.347656 42.304688 -25.414062 41.328125 -26.375 C 40.359375 -27.332031 38.894531 -28.097656 36.9375 -28.671875 C 34.988281 -29.242188 32.363281 -29.53125 29.0625 -29.53125 L 20.84375 -29.53125 L 20.84375 -9.703125 Z M 29.0625 -9.703125 "/></g></g></g><g fill="#ffffff" fill-opacity="1"><g transform="translate(637.315546, 906.061485)"><g/></g></g><g fill="#ffffff" fill-opacity="1"><g transform="translate(651.204232, 906.061485)"><g><path d="M 65.90625 0 L 49.21875 0 L 45.53125 -6.421875 L 20.78125 -6.421875 L 17.09375 0 L 0.40625 0 L 25.515625 -39.21875 L 40.796875 -39.21875 Z M 39.984375 -16.140625 L 33.171875 -28.03125 L 26.328125 -16.140625 Z M 39.984375 -16.140625 "/></g></g></g><g fill="#ffffff" fill-opacity="1"><g transform="translate(230.267822, 984.061479)"><g><path d="M 30.625 0 L 4.375 0 L 4.375 -39.234375 L 30.625 -39.234375 C 41.363281 -39.234375 49.082031 -37.734375 53.78125 -34.734375 C 57.570312 -32.304688 59.734375 -29.003906 60.265625 -24.828125 C 60.503906 -23.023438 60.625 -21.285156 60.625 -19.609375 C 60.625 -17.953125 60.507812 -16.210938 60.28125 -14.390625 C 60.050781 -12.578125 59.441406 -10.816406 58.453125 -9.109375 C 57.472656 -7.410156 55.910156 -5.878906 53.765625 -4.515625 C 51.628906 -3.148438 48.695312 -2.054688 44.96875 -1.234375 C 41.238281 -0.410156 36.457031 0 30.625 0 Z M 29.0625 -9.703125 C 37.4375 -9.703125 42.171875 -11.816406 43.265625 -16.046875 C 43.554688 -17.234375 43.703125 -18.421875 43.703125 -19.609375 C 43.703125 -20.804688 43.550781 -21.992188 43.25 -23.171875 C 42.945312 -24.347656 42.304688 -25.414062 41.328125 -26.375 C 40.359375 -27.332031 38.894531 -28.097656 36.9375 -28.671875 C 34.988281 -29.242188 32.363281 -29.53125 29.0625 -29.53125 L 20.84375 -29.53125 L 20.84375 -9.703125 Z M 29.0625 -9.703125 "/></g></g></g><g fill="#ffffff" fill-opacity="1"><g transform="translate(293.067648, 984.061479)"><g><path d="M 20.84375 0 L 4.375 0 L 4.375 -39.234375 L 20.84375 -39.234375 Z M 20.84375 0 "/></g></g></g><g fill="#ffffff" fill-opacity="1"><g transform="translate(318.275066, 984.061479)"><g><path d="M 29.671875 0.84375 C 19.972656 0.84375 12.835938 -1.148438 8.265625 -5.140625 C 4.210938 -8.679688 2.1875 -13.492188 2.1875 -19.578125 C 2.1875 -25.679688 4.210938 -30.503906 8.265625 -34.046875 C 12.835938 -38.035156 19.972656 -40.03125 29.671875 -40.03125 C 35.191406 -40.03125 39.785156 -39.410156 43.453125 -38.171875 C 47.117188 -36.929688 49.992188 -35.238281 52.078125 -33.09375 C 54.160156 -30.957031 55.585938 -28.492188 56.359375 -25.703125 L 38.75 -25.703125 C 36.90625 -28.234375 33.878906 -29.5 29.671875 -29.5 C 25.691406 -29.5 22.765625 -28.363281 20.890625 -26.09375 C 19.398438 -24.25 18.65625 -22.078125 18.65625 -19.578125 C 18.65625 -17.078125 19.398438 -14.914062 20.890625 -13.09375 C 22.765625 -10.820312 25.691406 -9.6875 29.671875 -9.6875 C 32.878906 -9.6875 35.289062 -9.960938 36.90625 -10.515625 C 38.519531 -11.066406 39.695312 -11.789062 40.4375 -12.6875 L 34.015625 -12.6875 L 34.015625 -19.578125 L 56.359375 -19.578125 L 56.359375 0.03125 L 49.515625 0.03125 L 48.125 -3.78125 C 43.769531 -0.695312 37.617188 0.84375 29.671875 0.84375 Z M 29.671875 0.84375 "/></g></g></g><g fill="#ffffff" fill-opacity="1"><g transform="translate(377.90346, 984.061479)"><g><path d="M 20.84375 0 L 4.375 0 L 4.375 -39.234375 L 20.84375 -39.234375 Z M 20.84375 0 "/></g></g></g><g fill="#ffffff" fill-opacity="1"><g transform="translate(403.110879, 984.061479)"><g><path d="M 33.46875 0 L 17.015625 0 L 17.015625 -29.53125 L 1.640625 -29.53125 L 1.640625 -39.234375 L 48.84375 -39.234375 L 48.84375 -29.53125 L 33.46875 -29.53125 Z M 33.46875 0 "/></g></g></g><g fill="#ffffff" fill-opacity="1"><g transform="translate(453.580395, 984.061479)"><g><path d="M 65.90625 0 L 49.21875 0 L 45.53125 -6.421875 L 20.78125 -6.421875 L 17.09375 0 L 0.40625 0 L 25.515625 -39.21875 L 40.796875 -39.21875 Z M 39.984375 -16.140625 L 33.171875 -28.03125 L 26.328125 -16.140625 Z M 39.984375 -16.140625 "/></g></g></g><g fill="#ffffff" fill-opacity="1"><g transform="translate(519.879721, 984.061479)"><g><path d="M 50.171875 0 L 4.375 0 L 4.375 -39.234375 L 20.84375 -39.234375 L 20.84375 -9.703125 L 50.171875 -9.703125 Z M 50.171875 0 "/></g></g></g><g fill="#ffffff" fill-opacity="1"><g transform="translate(47.15065, 1062.061472)"><g><path d="M 57.9375 0 L 42.390625 0 C 41.671875 -0.988281 41.164062 -2.25 40.875 -3.78125 C 40.625 -4.957031 40.242188 -6.113281 39.734375 -7.25 C 39.222656 -8.394531 38.34375 -9.34375 37.09375 -10.09375 C 35.84375 -10.851562 33.988281 -11.265625 31.53125 -11.328125 L 20.84375 -11.328125 L 20.84375 0 L 4.375 0 L 4.375 -39.234375 L 31.140625 -39.234375 C 37.546875 -39.234375 42.710938 -38.753906 46.640625 -37.796875 C 50.566406 -36.847656 53.429688 -35.347656 55.234375 -33.296875 C 57.035156 -31.242188 57.9375 -28.566406 57.9375 -25.265625 C 57.9375 -22.515625 57.3125 -20.195312 56.0625 -18.3125 C 54.820312 -16.4375 52.851562 -14.953125 50.15625 -13.859375 C 52.757812 -12.785156 54.445312 -11.492188 55.21875 -9.984375 C 56 -8.484375 56.476562 -6.832031 56.65625 -5.03125 C 56.84375 -3.425781 57.269531 -1.75 57.9375 0 Z M 20.84375 -21 L 30.25 -21.03125 C 32.875 -21.03125 34.941406 -21.144531 36.453125 -21.375 C 37.960938 -21.613281 39.078125 -21.9375 39.796875 -22.34375 C 40.515625 -22.757812 40.972656 -23.21875 41.171875 -23.71875 C 41.378906 -24.21875 41.484375 -24.734375 41.484375 -25.265625 C 41.484375 -25.796875 41.378906 -26.316406 41.171875 -26.828125 C 40.972656 -27.335938 40.515625 -27.796875 39.796875 -28.203125 C 39.078125 -28.617188 37.960938 -28.941406 36.453125 -29.171875 C 34.941406 -29.410156 32.875 -29.53125 30.25 -29.53125 L 20.84375 -29.53125 Z M 20.84375 -21 "/></g></g></g><g fill="#ffffff" fill-opacity="1"><g transform="translate(107.271162, 1062.061472)"><g><path d="M 65.90625 0 L 49.21875 0 L 45.53125 -6.421875 L 20.78125 -6.421875 L 17.09375 0 L 0.40625 0 L 25.515625 -39.21875 L 40.796875 -39.21875 Z M 39.984375 -16.140625 L 33.171875 -28.03125 L 26.328125 -16.140625 Z M 39.984375 -16.140625 "/></g></g></g><g fill="#ffffff" fill-opacity="1"><g transform="translate(173.5705, 1062.061472)"><g><path d="M 30.625 0 L 4.375 0 L 4.375 -39.234375 L 30.625 -39.234375 C 41.363281 -39.234375 49.082031 -37.734375 53.78125 -34.734375 C 57.570312 -32.304688 59.734375 -29.003906 60.265625 -24.828125 C 60.503906 -23.023438 60.625 -21.285156 60.625 -19.609375 C 60.625 -17.953125 60.507812 -16.210938 60.28125 -14.390625 C 60.050781 -12.578125 59.441406 -10.816406 58.453125 -9.109375 C 57.472656 -7.410156 55.910156 -5.878906 53.765625 -4.515625 C 51.628906 -3.148438 48.695312 -2.054688 44.96875 -1.234375 C 41.238281 -0.410156 36.457031 0 30.625 0 Z M 29.0625 -9.703125 C 37.4375 -9.703125 42.171875 -11.816406 43.265625 -16.046875 C 43.554688 -17.234375 43.703125 -18.421875 43.703125 -19.609375 C 43.703125 -20.804688 43.550781 -21.992188 43.25 -23.171875 C 42.945312 -24.347656 42.304688 -25.414062 41.328125 -26.375 C 40.359375 -27.332031 38.894531 -28.097656 36.9375 -28.671875 C 34.988281 -29.242188 32.363281 -29.53125 29.0625 -29.53125 L 20.84375 -29.53125 L 20.84375 -9.703125 Z M 29.0625 -9.703125 "/></g></g></g><g fill="#ffffff" fill-opacity="1"><g transform="translate(236.370326, 1062.061472)"><g><path d="M 20.84375 0 L 4.375 0 L 4.375 -39.234375 L 20.84375 -39.234375 Z M 20.84375 0 "/></g></g></g><g fill="#ffffff" fill-opacity="1"><g transform="translate(261.577756, 1062.061472)"><g><path d="M 29.671875 0.84375 C 19.972656 0.84375 12.835938 -1.148438 8.265625 -5.140625 C 4.210938 -8.679688 2.1875 -13.503906 2.1875 -19.609375 C 2.1875 -25.691406 4.210938 -30.503906 8.265625 -34.046875 C 12.835938 -38.035156 19.972656 -40.03125 29.671875 -40.03125 C 39.367188 -40.03125 46.503906 -38.035156 51.078125 -34.046875 C 55.128906 -30.503906 57.15625 -25.691406 57.15625 -19.609375 C 57.15625 -13.503906 55.128906 -8.679688 51.078125 -5.140625 C 46.503906 -1.148438 39.367188 0.84375 29.671875 0.84375 Z M 29.671875 -9.6875 C 33.640625 -9.6875 36.554688 -10.820312 38.421875 -13.09375 C 39.910156 -14.9375 40.65625 -17.109375 40.65625 -19.609375 C 40.65625 -22.109375 39.910156 -24.269531 38.421875 -26.09375 C 36.554688 -28.382812 33.640625 -29.53125 29.671875 -29.53125 C 25.691406 -29.53125 22.765625 -28.382812 20.890625 -26.09375 C 19.398438 -24.269531 18.65625 -22.109375 18.65625 -19.609375 C 18.65625 -17.109375 19.398438 -14.9375 20.890625 -13.09375 C 22.765625 -10.820312 25.691406 -9.6875 29.671875 -9.6875 Z M 29.671875 -9.6875 "/></g></g></g><g fill="#ffffff" fill-opacity="1"><g transform="translate(320.90541, 1062.061472)"><g><path d="M 29.671875 0.84375 C 19.972656 0.84375 12.835938 -1.148438 8.265625 -5.140625 C 4.210938 -8.679688 2.1875 -13.492188 2.1875 -19.578125 C 2.1875 -25.679688 4.210938 -30.503906 8.265625 -34.046875 C 12.835938 -38.035156 19.972656 -40.03125 29.671875 -40.03125 C 35.191406 -40.03125 39.785156 -39.410156 43.453125 -38.171875 C 47.117188 -36.929688 49.992188 -35.238281 52.078125 -33.09375 C 54.160156 -30.957031 55.585938 -28.492188 56.359375 -25.703125 L 38.75 -25.703125 C 36.90625 -28.234375 33.878906 -29.5 29.671875 -29.5 C 25.691406 -29.5 22.765625 -28.363281 20.890625 -26.09375 C 19.398438 -24.25 18.65625 -22.078125 18.65625 -19.578125 C 18.65625 -17.078125 19.398438 -14.914062 20.890625 -13.09375 C 22.765625 -10.820312 25.691406 -9.6875 29.671875 -9.6875 C 32.878906 -9.6875 35.289062 -9.960938 36.90625 -10.515625 C 38.519531 -11.066406 39.695312 -11.789062 40.4375 -12.6875 L 34.015625 -12.6875 L 34.015625 -19.578125 L 56.359375 -19.578125 L 56.359375 0.03125 L 49.515625 0.03125 L 48.125 -3.78125 C 43.769531 -0.695312 37.617188 0.84375 29.671875 0.84375 Z M 29.671875 0.84375 "/></g></g></g><g fill="#ffffff" fill-opacity="1"><g transform="translate(380.533815, 1062.061472)"><g><path d="M 57.9375 0 L 42.390625 0 C 41.671875 -0.988281 41.164062 -2.25 40.875 -3.78125 C 40.625 -4.957031 40.242188 -6.113281 39.734375 -7.25 C 39.222656 -8.394531 38.34375 -9.34375 37.09375 -10.09375 C 35.84375 -10.851562 33.988281 -11.265625 31.53125 -11.328125 L 20.84375 -11.328125 L 20.84375 0 L 4.375 0 L 4.375 -39.234375 L 31.140625 -39.234375 C 37.546875 -39.234375 42.710938 -38.753906 46.640625 -37.796875 C 50.566406 -36.847656 53.429688 -35.347656 55.234375 -33.296875 C 57.035156 -31.242188 57.9375 -28.566406 57.9375 -25.265625 C 57.9375 -22.515625 57.3125 -20.195312 56.0625 -18.3125 C 54.820312 -16.4375 52.851562 -14.953125 50.15625 -13.859375 C 52.757812 -12.785156 54.445312 -11.492188 55.21875 -9.984375 C 56 -8.484375 56.476562 -6.832031 56.65625 -5.03125 C 56.84375 -3.425781 57.269531 -1.75 57.9375 0 Z M 20.84375 -21 L 30.25 -21.03125 C 32.875 -21.03125 34.941406 -21.144531 36.453125 -21.375 C 37.960938 -21.613281 39.078125 -21.9375 39.796875 -22.34375 C 40.515625 -22.757812 40.972656 -23.21875 41.171875 -23.71875 C 41.378906 -24.21875 41.484375 -24.734375 41.484375 -25.265625 C 41.484375 -25.796875 41.378906 -26.316406 41.171875 -26.828125 C 40.972656 -27.335938 40.515625 -27.796875 39.796875 -28.203125 C 39.078125 -28.617188 37.960938 -28.941406 36.453125 -29.171875 C 34.941406 -29.410156 32.875 -29.53125 30.25 -29.53125 L 20.84375 -29.53125 Z M 20.84375 -21 "/></g></g></g><g fill="#ffffff" fill-opacity="1"><g transform="translate(440.654339, 1062.061472)"><g><path d="M 65.90625 0 L 49.21875 0 L 45.53125 -6.421875 L 20.78125 -6.421875 L 17.09375 0 L 0.40625 0 L 25.515625 -39.21875 L 40.796875 -39.21875 Z M 39.984375 -16.140625 L 33.171875 -28.03125 L 26.328125 -16.140625 Z M 39.984375 -16.140625 "/></g></g></g><g fill="#ffffff" fill-opacity="1"><g transform="translate(506.953665, 1062.061472)"><g><path d="M 20.84375 0 L 4.375 0 L 4.375 -39.234375 L 31.140625 -39.234375 C 37.546875 -39.234375 42.710938 -38.753906 46.640625 -37.796875 C 50.566406 -36.847656 53.429688 -35.347656 55.234375 -33.296875 C 57.035156 -31.242188 57.9375 -28.566406 57.9375 -25.265625 C 57.9375 -21.984375 57.035156 -19.316406 55.234375 -17.265625 C 53.429688 -15.210938 50.566406 -13.707031 46.640625 -12.75 C 42.710938 -11.800781 37.546875 -11.328125 31.140625 -11.328125 L 20.84375 -11.328125 Z M 20.84375 -21 L 30.25 -21.03125 C 32.875 -21.03125 34.941406 -21.132812 36.453125 -21.34375 C 37.960938 -21.550781 39.078125 -21.847656 39.796875 -22.234375 C 40.515625 -22.617188 40.972656 -23.066406 41.171875 -23.578125 C 41.378906 -24.097656 41.484375 -24.660156 41.484375 -25.265625 C 41.484375 -25.890625 41.378906 -26.457031 41.171875 -26.96875 C 40.972656 -27.488281 40.515625 -27.941406 39.796875 -28.328125 C 39.078125 -28.710938 37.960938 -29.007812 36.453125 -29.21875 C 34.941406 -29.425781 32.875 -29.53125 30.25 -29.53125 L 20.84375 -29.53125 Z M 20.84375 -21 "/></g></g></g><g fill="#ffffff" fill-opacity="1"><g transform="translate(567.07419, 1062.061472)"><g><path d="M 57.96875 0 L 41.515625 0 L 41.515625 -15.828125 L 20.84375 -15.828125 L 20.84375 0 L 4.375 0 L 4.375 -39.234375 L 20.84375 -39.234375 L 20.84375 -23.375 L 41.515625 -23.375 L 41.515625 -39.234375 L 57.96875 -39.234375 Z M 57.96875 0 "/></g></g></g><g fill="#ffffff" fill-opacity="1"><g transform="translate(629.409236, 1062.061472)"><g/></g></g><g fill="#ffffff" fill-opacity="1"><g transform="translate(643.297923, 1062.061472)"><g><path d="M 29.671875 0.84375 C 19.972656 0.84375 12.835938 -1.148438 8.265625 -5.140625 C 4.210938 -8.679688 2.1875 -13.503906 2.1875 -19.609375 C 2.1875 -25.691406 4.210938 -30.503906 8.265625 -34.046875 C 12.835938 -38.035156 19.972656 -40.03125 29.671875 -40.03125 C 39.367188 -40.03125 46.503906 -38.035156 51.078125 -34.046875 C 55.128906 -30.503906 57.15625 -25.691406 57.15625 -19.609375 C 57.15625 -13.503906 55.128906 -8.679688 51.078125 -5.140625 C 46.503906 -1.148438 39.367188 0.84375 29.671875 0.84375 Z M 29.671875 -9.6875 C 33.640625 -9.6875 36.554688 -10.820312 38.421875 -13.09375 C 39.910156 -14.9375 40.65625 -17.109375 40.65625 -19.609375 C 40.65625 -22.109375 39.910156 -24.269531 38.421875 -26.09375 C 36.554688 -28.382812 33.640625 -29.53125 29.671875 -29.53125 C 25.691406 -29.53125 22.765625 -28.382812 20.890625 -26.09375 C 19.398438 -24.269531 18.65625 -22.109375 18.65625 -19.609375 C 18.65625 -17.109375 19.398438 -14.9375 20.890625 -13.09375 C 22.765625 -10.820312 25.691406 -9.6875 29.671875 -9.6875 Z M 29.671875 -9.6875 "/></g></g></g><g fill="#ffffff" fill-opacity="1"><g transform="translate(702.6256, 1062.061472)"><g><path d="M 20.84375 0 L 4.375 0 L 4.375 -39.234375 L 49.46875 -39.234375 L 49.46875 -29.53125 L 20.84375 -29.53125 L 20.84375 -23.375 L 45.03125 -23.375 L 45.03125 -15.828125 L 20.84375 -15.828125 Z M 20.84375 0 "/></g></g></g><g fill="#ffffff" fill-opacity="1"><g transform="translate(136.365486, 1140.061465)"><g><path d="M 38.28125 0 L 21.828125 0 L 21.828125 -18.59375 L 0.40625 -39.234375 L 18.65625 -39.234375 L 30.046875 -27.515625 L 41.421875 -39.234375 L 59.671875 -39.234375 L 38.28125 -18.59375 Z M 38.28125 0 "/></g></g></g><g fill="#ffffff" fill-opacity="1"><g transform="translate(196.431319, 1140.061465)"><g><path d="M 29.671875 0.84375 C 19.972656 0.84375 12.835938 -1.148438 8.265625 -5.140625 C 4.210938 -8.679688 2.1875 -13.503906 2.1875 -19.609375 C 2.1875 -25.691406 4.210938 -30.503906 8.265625 -34.046875 C 12.835938 -38.035156 19.972656 -40.03125 29.671875 -40.03125 C 39.367188 -40.03125 46.503906 -38.035156 51.078125 -34.046875 C 55.128906 -30.503906 57.15625 -25.691406 57.15625 -19.609375 C 57.15625 -13.503906 55.128906 -8.679688 51.078125 -5.140625 C 46.503906 -1.148438 39.367188 0.84375 29.671875 0.84375 Z M 29.671875 -9.6875 C 33.640625 -9.6875 36.554688 -10.820312 38.421875 -13.09375 C 39.910156 -14.9375 40.65625 -17.109375 40.65625 -19.609375 C 40.65625 -22.109375 39.910156 -24.269531 38.421875 -26.09375 C 36.554688 -28.382812 33.640625 -29.53125 29.671875 -29.53125 C 25.691406 -29.53125 22.765625 -28.382812 20.890625 -26.09375 C 19.398438 -24.269531 18.65625 -22.109375 18.65625 -19.609375 C 18.65625 -17.109375 19.398438 -14.9375 20.890625 -13.09375 C 22.765625 -10.820312 25.691406 -9.6875 29.671875 -9.6875 Z M 29.671875 -9.6875 "/></g></g></g><g fill="#ffffff" fill-opacity="1"><g transform="translate(255.758973, 1140.061465)"><g><path d="M 27.59375 0.84375 C 18.019531 0.84375 11.285156 -1.140625 7.390625 -5.109375 C 4.109375 -8.453125 2.46875 -13.273438 2.46875 -19.578125 L 2.46875 -39.21875 L 18.921875 -39.21875 L 18.921875 -19.578125 C 18.921875 -16.847656 19.382812 -14.6875 20.3125 -13.09375 C 21.644531 -10.820312 24.070312 -9.6875 27.59375 -9.6875 C 31.144531 -9.6875 33.578125 -10.820312 34.890625 -13.09375 C 35.816406 -14.738281 36.28125 -16.898438 36.28125 -19.578125 L 36.28125 -39.21875 L 52.75 -39.21875 L 52.75 -19.359375 C 52.75 -13.203125 51.117188 -8.453125 47.859375 -5.109375 C 43.929688 -1.140625 37.175781 0.84375 27.59375 0.84375 Z M 27.59375 0.84375 "/></g></g></g><g fill="#ffffff" fill-opacity="1"><g transform="translate(310.958298, 1140.061465)"><g><path d="M 57.9375 0 L 42.390625 0 C 41.671875 -0.988281 41.164062 -2.25 40.875 -3.78125 C 40.625 -4.957031 40.242188 -6.113281 39.734375 -7.25 C 39.222656 -8.394531 38.34375 -9.34375 37.09375 -10.09375 C 35.84375 -10.851562 33.988281 -11.265625 31.53125 -11.328125 L 20.84375 -11.328125 L 20.84375 0 L 4.375 0 L 4.375 -39.234375 L 31.140625 -39.234375 C 37.546875 -39.234375 42.710938 -38.753906 46.640625 -37.796875 C 50.566406 -36.847656 53.429688 -35.347656 55.234375 -33.296875 C 57.035156 -31.242188 57.9375 -28.566406 57.9375 -25.265625 C 57.9375 -22.515625 57.3125 -20.195312 56.0625 -18.3125 C 54.820312 -16.4375 52.851562 -14.953125 50.15625 -13.859375 C 52.757812 -12.785156 54.445312 -11.492188 55.21875 -9.984375 C 56 -8.484375 56.476562 -6.832031 56.65625 -5.03125 C 56.84375 -3.425781 57.269531 -1.75 57.9375 0 Z M 20.84375 -21 L 30.25 -21.03125 C 32.875 -21.03125 34.941406 -21.144531 36.453125 -21.375 C 37.960938 -21.613281 39.078125 -21.9375 39.796875 -22.34375 C 40.515625 -22.757812 40.972656 -23.21875 41.171875 -23.71875 C 41.378906 -24.21875 41.484375 -24.734375 41.484375 -25.265625 C 41.484375 -25.796875 41.378906 -26.316406 41.171875 -26.828125 C 40.972656 -27.335938 40.515625 -27.796875 39.796875 -28.203125 C 39.078125 -28.617188 37.960938 -28.941406 36.453125 -29.171875 C 34.941406 -29.410156 32.875 -29.53125 30.25 -29.53125 L 20.84375 -29.53125 Z M 20.84375 -21 "/></g></g></g><g fill="#ffffff" fill-opacity="1"><g transform="translate(371.078799, 1140.061465)"><g/></g></g><g fill="#ffffff" fill-opacity="1"><g transform="translate(384.967485, 1140.061465)"><g><path d="M 33.46875 0 L 17.015625 0 L 17.015625 -29.53125 L 1.640625 -29.53125 L 1.640625 -39.234375 L 48.84375 -39.234375 L 48.84375 -29.53125 L 33.46875 -29.53125 Z M 33.46875 0 "/></g></g></g><g fill="#ffffff" fill-opacity="1"><g transform="translate(435.437001, 1140.061465)"><g><path d="M 51.625 0 L 4.375 0 L 4.375 -39.234375 L 49.46875 -39.234375 L 49.46875 -29.53125 L 20.84375 -29.53125 L 20.84375 -23.375 L 45.03125 -23.375 L 45.03125 -15.828125 L 20.84375 -15.828125 L 20.84375 -9.703125 L 51.625 -9.703125 Z M 51.625 0 "/></g></g></g><g fill="#ffffff" fill-opacity="1"><g transform="translate(489.241989, 1140.061465)"><g><path d="M 51.625 0 L 4.375 0 L 4.375 -39.234375 L 49.46875 -39.234375 L 49.46875 -29.53125 L 20.84375 -29.53125 L 20.84375 -23.375 L 45.03125 -23.375 L 45.03125 -15.828125 L 20.84375 -15.828125 L 20.84375 -9.703125 L 51.625 -9.703125 Z M 51.625 0 "/></g></g></g><g fill="#ffffff" fill-opacity="1"><g transform="translate(543.047, 1140.061465)"><g><path d="M 33.46875 0 L 17.015625 0 L 17.015625 -29.53125 L 1.640625 -29.53125 L 1.640625 -39.234375 L 48.84375 -39.234375 L 48.84375 -29.53125 L 33.46875 -29.53125 Z M 33.46875 0 "/></g></g></g><g fill="#ffffff" fill-opacity="1"><g transform="translate(593.51654, 1140.061465)"><g><path d="M 57.96875 0 L 41.515625 0 L 41.515625 -15.828125 L 20.84375 -15.828125 L 20.84375 0 L 4.375 0 L 4.375 -39.234375 L 20.84375 -39.234375 L 20.84375 -23.375 L 41.515625 -23.375 L 41.515625 -39.234375 L 57.96875 -39.234375 Z M 57.96875 0 "/></g></g></g><g fill="#ffffff" fill-opacity="1"><g transform="translate(655.851587, 1140.061465)"><g><path d="M 8.375 0 L 0.828125 0 L 0.828125 -7.546875 L 8.375 -7.546875 Z M 8.375 0 "/></g></g></g><g fill="#ffffff" fill-opacity="1"><g transform="translate(117.421883, 299.591512)"><g><path d="M 45.125 0 L 25.71875 0 L 25.71875 -21.921875 L 0.484375 -46.25 L 21.984375 -46.25 L 35.421875 -32.421875 L 48.828125 -46.25 L 70.3125 -46.25 L 45.125 -21.921875 Z M 45.125 0 "/></g></g><g transform="translate(188.223635, 299.591512)"><g><path d="M 34.96875 1 C 23.539062 1 15.128906 -1.351562 9.734375 -6.0625 C 4.960938 -10.226562 2.578125 -15.910156 2.578125 -23.109375 C 2.578125 -30.285156 4.960938 -35.957031 9.734375 -40.125 C 15.128906 -44.832031 23.539062 -47.1875 34.96875 -47.1875 C 46.394531 -47.1875 54.804688 -44.832031 60.203125 -40.125 C 64.972656 -35.957031 67.359375 -30.285156 67.359375 -23.109375 C 67.359375 -15.910156 64.972656 -10.226562 60.203125 -6.0625 C 54.804688 -1.351562 46.394531 1 34.96875 1 Z M 34.96875 -11.40625 C 39.644531 -11.40625 43.082031 -12.75 45.28125 -15.4375 C 47.039062 -17.601562 47.921875 -20.160156 47.921875 -23.109375 C 47.921875 -26.046875 47.039062 -28.59375 45.28125 -30.75 C 43.082031 -33.457031 39.644531 -34.8125 34.96875 -34.8125 C 30.28125 -34.8125 26.832031 -33.457031 24.625 -30.75 C 22.863281 -28.59375 21.984375 -26.046875 21.984375 -23.109375 C 21.984375 -20.160156 22.863281 -17.601562 24.625 -15.4375 C 26.832031 -12.75 30.28125 -11.40625 34.96875 -11.40625 Z M 34.96875 -11.40625 "/></g></g><g transform="translate(258.155269, 299.591512)"><g><path d="M 32.515625 1 C 21.234375 1 13.296875 -1.34375 8.703125 -6.03125 C 4.835938 -9.957031 2.90625 -15.640625 2.90625 -23.078125 L 2.90625 -46.21875 L 22.296875 -46.21875 L 22.296875 -23.078125 C 22.296875 -19.847656 22.84375 -17.300781 23.9375 -15.4375 C 25.507812 -12.75 28.367188 -11.40625 32.515625 -11.40625 C 36.703125 -11.40625 39.570312 -12.75 41.125 -15.4375 C 42.21875 -17.375 42.765625 -19.921875 42.765625 -23.078125 L 42.765625 -46.21875 L 62.171875 -46.21875 L 62.171875 -22.8125 C 62.171875 -15.550781 60.242188 -9.957031 56.390625 -6.03125 C 51.773438 -1.34375 43.816406 1 32.515625 1 Z M 32.515625 1 "/></g></g><g transform="translate(323.220693, 299.591512)"><g><path d="M 68.28125 0 L 49.953125 0 C 49.109375 -1.15625 48.515625 -2.640625 48.171875 -4.453125 C 47.878906 -5.847656 47.429688 -7.21875 46.828125 -8.5625 C 46.222656 -9.90625 45.1875 -11.019531 43.71875 -11.90625 C 42.25 -12.800781 40.0625 -13.28125 37.15625 -13.34375 L 24.5625 -13.34375 L 24.5625 0 L 5.15625 0 L 5.15625 -46.25 L 36.703125 -46.25 C 44.242188 -46.25 50.328125 -45.679688 54.953125 -44.546875 C 59.585938 -43.421875 62.96875 -41.648438 65.09375 -39.234375 C 67.21875 -36.816406 68.28125 -33.664062 68.28125 -29.78125 C 68.28125 -26.53125 67.546875 -23.796875 66.078125 -21.578125 C 64.609375 -19.367188 62.285156 -17.625 59.109375 -16.34375 C 62.179688 -15.070312 64.171875 -13.550781 65.078125 -11.78125 C 65.992188 -10.007812 66.5625 -8.0625 66.78125 -5.9375 C 66.988281 -4.039062 67.488281 -2.0625 68.28125 0 Z M 24.5625 -24.75 L 35.640625 -24.78125 C 38.734375 -24.78125 41.171875 -24.921875 42.953125 -25.203125 C 44.742188 -25.484375 46.0625 -25.863281 46.90625 -26.34375 C 47.75 -26.832031 48.289062 -27.367188 48.53125 -27.953125 C 48.769531 -28.546875 48.890625 -29.15625 48.890625 -29.78125 C 48.890625 -30.40625 48.769531 -31.015625 48.53125 -31.609375 C 48.289062 -32.210938 47.75 -32.753906 46.90625 -33.234375 C 46.0625 -33.722656 44.742188 -34.109375 42.953125 -34.390625 C 41.171875 -34.671875 38.734375 -34.8125 35.640625 -34.8125 L 24.5625 -34.8125 Z M 24.5625 -24.75 "/></g></g><g transform="translate(394.086898, 299.591512)"><g/></g><g transform="translate(410.457991, 299.591512)"><g><path d="M 24.5625 0 L 5.15625 0 L 5.15625 -46.25 L 58.296875 -46.25 L 58.296875 -34.8125 L 24.5625 -34.8125 L 24.5625 -27.546875 L 53.078125 -27.546875 L 53.078125 -18.65625 L 24.5625 -18.65625 Z M 24.5625 0 "/></g></g><g transform="translate(471.333962, 299.591512)"><g><path d="M 24.5625 0 L 5.15625 0 L 5.15625 -46.25 L 24.5625 -46.25 Z M 24.5625 0 "/></g></g><g transform="translate(501.04685, 299.591512)"><g><path d="M 68.28125 0 L 49.953125 0 C 49.109375 -1.15625 48.515625 -2.640625 48.171875 -4.453125 C 47.878906 -5.847656 47.429688 -7.21875 46.828125 -8.5625 C 46.222656 -9.90625 45.1875 -11.019531 43.71875 -11.90625 C 42.25 -12.800781 40.0625 -13.28125 37.15625 -13.34375 L 24.5625 -13.34375 L 24.5625 0 L 5.15625 0 L 5.15625 -46.25 L 36.703125 -46.25 C 44.242188 -46.25 50.328125 -45.679688 54.953125 -44.546875 C 59.585938 -43.421875 62.96875 -41.648438 65.09375 -39.234375 C 67.21875 -36.816406 68.28125 -33.664062 68.28125 -29.78125 C 68.28125 -26.53125 67.546875 -23.796875 66.078125 -21.578125 C 64.609375 -19.367188 62.285156 -17.625 59.109375 -16.34375 C 62.179688 -15.070312 64.171875 -13.550781 65.078125 -11.78125 C 65.992188 -10.007812 66.5625 -8.0625 66.78125 -5.9375 C 66.988281 -4.039062 67.488281 -2.0625 68.28125 0 Z M 24.5625 -24.75 L 35.640625 -24.78125 C 38.734375 -24.78125 41.171875 -24.921875 42.953125 -25.203125 C 44.742188 -25.484375 46.0625 -25.863281 46.90625 -26.34375 C 47.75 -26.832031 48.289062 -27.367188 48.53125 -27.953125 C 48.769531 -28.546875 48.890625 -29.15625 48.890625 -29.78125 C 48.890625 -30.40625 48.769531 -31.015625 48.53125 -31.609375 C 48.289062 -32.210938 47.75 -32.753906 46.90625 -33.234375 C 46.0625 -33.722656 44.742188 -34.109375 42.953125 -34.390625 C 41.171875 -34.671875 38.734375 -34.8125 35.640625 -34.8125 L 24.5625 -34.8125 Z M 24.5625 -24.75 "/></g></g><g transform="translate(571.913055, 299.591512)"><g><path d="M 30.546875 1 C 24.296875 1 19.257812 0.328125 15.4375 -1.015625 C 11.613281 -2.359375 8.703125 -4.207031 6.703125 -6.5625 C 4.703125 -8.914062 3.359375 -11.628906 2.671875 -14.703125 L 23.265625 -14.703125 C 24.796875 -12.503906 27.222656 -11.40625 30.546875 -11.40625 C 33.878906 -11.40625 36.304688 -12.503906 37.828125 -14.703125 C 37.960938 -14.910156 38.03125 -15.101562 38.03125 -15.28125 C 38.03125 -15.851562 37.257812 -16.285156 35.71875 -16.578125 C 34.1875 -16.867188 31.894531 -17.085938 28.84375 -17.234375 C 25 -17.410156 20.957031 -17.820312 16.71875 -18.46875 C 7.289062 -19.925781 2.578125 -23.71875 2.578125 -29.84375 C 2.578125 -30.351562 2.609375 -30.898438 2.671875 -31.484375 C 3.359375 -34.554688 4.703125 -37.269531 6.703125 -39.625 C 8.703125 -41.976562 11.613281 -43.828125 15.4375 -45.171875 C 19.257812 -46.515625 24.296875 -47.1875 30.546875 -47.1875 C 36.796875 -47.1875 41.832031 -46.515625 45.65625 -45.171875 C 49.488281 -43.828125 52.398438 -41.976562 54.390625 -39.625 C 56.390625 -37.269531 57.734375 -34.554688 58.421875 -31.484375 L 37.828125 -31.484375 C 36.304688 -33.671875 33.878906 -34.765625 30.546875 -34.765625 C 27.222656 -34.765625 24.796875 -33.671875 23.265625 -31.484375 C 23.160156 -31.316406 23.109375 -31.15625 23.109375 -31 C 23.109375 -30.488281 23.84375 -30.109375 25.3125 -29.859375 C 26.78125 -29.609375 28.945312 -29.394531 31.8125 -29.21875 C 34.6875 -29.050781 37.742188 -28.773438 40.984375 -28.390625 C 44.234375 -28.003906 47.269531 -27.332031 50.09375 -26.375 C 52.914062 -25.414062 55.125 -24.003906 56.71875 -22.140625 C 57.96875 -20.703125 58.59375 -18.875 58.59375 -16.65625 C 58.59375 -16.039062 58.535156 -15.390625 58.421875 -14.703125 C 57.734375 -11.628906 56.390625 -8.914062 54.390625 -6.5625 C 52.398438 -4.207031 49.488281 -2.359375 45.65625 -1.015625 C 41.832031 0.328125 36.796875 1 30.546875 1 Z M 30.546875 1 "/></g></g><g transform="translate(633.079065, 299.591512)"><g><path d="M 39.453125 0 L 20.046875 0 L 20.046875 -34.8125 L 1.9375 -34.8125 L 1.9375 -46.25 L 57.5625 -46.25 L 57.5625 -34.8125 L 39.453125 -34.8125 Z M 39.453125 0 "/></g></g></g><g fill="#ffffff" fill-opacity="1"><g transform="translate(25.992204, 387.341505)"><g><path d="M 77.671875 0 L 58.015625 0 L 53.65625 -7.578125 L 24.5 -7.578125 L 20.140625 0 L 0.484375 0 L 30.0625 -46.21875 L 48.078125 -46.21875 Z M 47.109375 -19.015625 L 39.09375 -33.03125 L 31.03125 -19.015625 Z M 47.109375 -19.015625 "/></g></g><g transform="translate(104.141611, 387.341505)"><g><path d="M 24.5625 0 L 5.15625 0 L 5.15625 -46.25 L 36.703125 -46.25 C 44.242188 -46.25 50.328125 -45.679688 54.953125 -44.546875 C 59.585938 -43.421875 62.96875 -41.648438 65.09375 -39.234375 C 67.21875 -36.816406 68.28125 -33.664062 68.28125 -29.78125 C 68.28125 -25.914062 67.21875 -22.769531 65.09375 -20.34375 C 62.96875 -17.925781 59.585938 -16.15625 54.953125 -15.03125 C 50.328125 -13.90625 44.242188 -13.34375 36.703125 -13.34375 L 24.5625 -13.34375 Z M 24.5625 -24.75 L 35.640625 -24.78125 C 38.734375 -24.78125 41.171875 -24.90625 42.953125 -25.15625 C 44.742188 -25.40625 46.0625 -25.753906 46.90625 -26.203125 C 47.75 -26.648438 48.289062 -27.179688 48.53125 -27.796875 C 48.769531 -28.410156 48.890625 -29.070312 48.890625 -29.78125 C 48.890625 -30.507812 48.769531 -31.175781 48.53125 -31.78125 C 48.289062 -32.394531 47.75 -32.925781 46.90625 -33.375 C 46.0625 -33.832031 44.742188 -34.1875 42.953125 -34.4375 C 41.171875 -34.6875 38.734375 -34.8125 35.640625 -34.8125 L 24.5625 -34.8125 Z M 24.5625 -24.75 "/></g></g><g transform="translate(175.007816, 387.341505)"><g><path d="M 24.5625 0 L 5.15625 0 L 5.15625 -46.25 L 36.703125 -46.25 C 44.242188 -46.25 50.328125 -45.679688 54.953125 -44.546875 C 59.585938 -43.421875 62.96875 -41.648438 65.09375 -39.234375 C 67.21875 -36.816406 68.28125 -33.664062 68.28125 -29.78125 C 68.28125 -25.914062 67.21875 -22.769531 65.09375 -20.34375 C 62.96875 -17.925781 59.585938 -16.15625 54.953125 -15.03125 C 50.328125 -13.90625 44.242188 -13.34375 36.703125 -13.34375 L 24.5625 -13.34375 Z M 24.5625 -24.75 L 35.640625 -24.78125 C 38.734375 -24.78125 41.171875 -24.90625 42.953125 -25.15625 C 44.742188 -25.40625 46.0625 -25.753906 46.90625 -26.203125 C 47.75 -26.648438 48.289062 -27.179688 48.53125 -27.796875 C 48.769531 -28.410156 48.890625 -29.070312 48.890625 -29.78125 C 48.890625 -30.507812 48.769531 -31.175781 48.53125 -31.78125 C 48.289062 -32.394531 47.75 -32.925781 46.90625 -33.375 C 46.0625 -33.832031 44.742188 -34.1875 42.953125 -34.4375 C 41.171875 -34.6875 38.734375 -34.8125 35.640625 -34.8125 L 24.5625 -34.8125 Z M 24.5625 -24.75 "/></g></g><g transform="translate(245.87402, 387.341505)"><g><path d="M 34.96875 1 C 23.539062 1 15.128906 -1.351562 9.734375 -6.0625 C 4.960938 -10.226562 2.578125 -15.910156 2.578125 -23.109375 C 2.578125 -30.285156 4.960938 -35.957031 9.734375 -40.125 C 15.128906 -44.832031 23.539062 -47.1875 34.96875 -47.1875 C 46.394531 -47.1875 54.804688 -44.832031 60.203125 -40.125 C 64.972656 -35.957031 67.359375 -30.285156 67.359375 -23.109375 C 67.359375 -15.910156 64.972656 -10.226562 60.203125 -6.0625 C 54.804688 -1.351562 46.394531 1 34.96875 1 Z M 34.96875 -11.40625 C 39.644531 -11.40625 43.082031 -12.75 45.28125 -15.4375 C 47.039062 -17.601562 47.921875 -20.160156 47.921875 -23.109375 C 47.921875 -26.046875 47.039062 -28.59375 45.28125 -30.75 C 43.082031 -33.457031 39.644531 -34.8125 34.96875 -34.8125 C 30.28125 -34.8125 26.832031 -33.457031 24.625 -30.75 C 22.863281 -28.59375 21.984375 -26.046875 21.984375 -23.109375 C 21.984375 -20.160156 22.863281 -17.601562 24.625 -15.4375 C 26.832031 -12.75 30.28125 -11.40625 34.96875 -11.40625 Z M 34.96875 -11.40625 "/></g></g><g transform="translate(315.805655, 387.341505)"><g><path d="M 24.5625 0 L 5.15625 0 L 5.15625 -46.25 L 24.5625 -46.25 Z M 24.5625 0 "/></g></g><g transform="translate(345.518543, 387.341505)"><g><path d="M 73.765625 0 L 50.6875 0 L 24.5625 -31.296875 L 24.5625 0 L 5.15625 0 L 5.15625 -46.25 L 28.234375 -46.25 L 54.359375 -15.109375 L 54.359375 -46.25 L 73.765625 -46.25 Z M 73.765625 0 "/></g></g><g transform="translate(424.441387, 387.341505)"><g><path d="M 39.453125 0 L 20.046875 0 L 20.046875 -34.8125 L 1.9375 -34.8125 L 1.9375 -46.25 L 57.5625 -46.25 L 57.5625 -34.8125 L 39.453125 -34.8125 Z M 39.453125 0 "/></g></g><g transform="translate(483.931617, 387.341505)"><g><path d="M 93.078125 0 L 73.671875 0 L 73.671875 -29.484375 L 56.328125 0 L 41.859375 0 L 24.5625 -29.484375 L 24.5625 0 L 5.15625 0 L 5.15625 -46.25 L 28.203125 -46.25 L 49.109375 -13.21875 L 70 -46.25 L 93.078125 -46.25 Z M 93.078125 0 "/></g></g><g transform="translate(582.158171, 387.341505)"><g><path d="M 60.84375 0 L 5.15625 0 L 5.15625 -46.25 L 58.296875 -46.25 L 58.296875 -34.8125 L 24.5625 -34.8125 L 24.5625 -27.546875 L 53.078125 -27.546875 L 53.078125 -18.65625 L 24.5625 -18.65625 L 24.5625 -11.4375 L 60.84375 -11.4375 Z M 60.84375 0 "/></g></g><g transform="translate(645.58004, 387.341505)"><g><path d="M 73.765625 0 L 50.6875 0 L 24.5625 -31.296875 L 24.5625 0 L 5.15625 0 L 5.15625 -46.25 L 28.234375 -46.25 L 54.359375 -15.109375 L 54.359375 -46.25 L 73.765625 -46.25 Z M 73.765625 0 "/></g></g><g transform="translate(724.502885, 387.341505)"><g><path d="M 39.453125 0 L 20.046875 0 L 20.046875 -34.8125 L 1.9375 -34.8125 L 1.9375 -46.25 L 57.5625 -46.25 L 57.5625 -34.8125 L 39.453125 -34.8125 Z M 39.453125 0 "/></g></g></g></svg>