<svg xmlns="http://www.w3.org/2000/svg" xmlns:xlink="http://www.w3.org/1999/xlink" width="1920" zoomAndPan="magnify" viewBox="0 0 1440 809.999993" height="1080" preserveAspectRatio="xMidYMid meet" version="1.0"><defs><clipPath id="03cbb8d380"><path d="M 0 0 L 556.5 0 L 556.5 405 L 0 405 Z M 0 0 " clip-rule="nonzero"/></clipPath><clipPath id="4978c62e7b"><path d="M 0 405 L 556.5 405 L 556.5 810 L 0 810 Z M 0 405 " clip-rule="nonzero"/></clipPath><clipPath id="44f9412226"><path d="M 556.699219 0 L 1113.199219 0 L 1113.199219 405 L 556.699219 405 Z M 556.699219 0 " clip-rule="nonzero"/></clipPath><clipPath id="82469840e0"><path d="M 556.699219 405 L 1113.199219 405 L 1113.199219 810 L 556.699219 810 Z M 556.699219 405 " clip-rule="nonzero"/></clipPath><clipPath id="ac25fb6b1b"><path d="M 1113.402344 0 L 1440 0 L 1440 405 L 1113.402344 405 Z M 1113.402344 0 " clip-rule="nonzero"/></clipPath><clipPath id="981d848471"><path d="M 1113.402344 405 L 1440 405 L 1440 810 L 1113.402344 810 Z M 1113.402344 405 " clip-rule="nonzero"/></clipPath></defs><g clip-path="url(#03cbb8d380)"><path fill="#b0fe03" d="M 556.6875 405.003906 L 0 405.003906 L 0 0.0429688 L 556.6875 0.0429688 Z M 2.851562 402.148438 L 553.835938 402.148438 L 553.835938 2.894531 L 2.851562 2.894531 Z M 2.851562 402.148438 " fill-opacity="1" fill-rule="nonzero"/></g><path fill="#b0fe03" d="M 1.425781 268.109375 L 555.261719 268.109375 L 555.261719 270.964844 L 1.425781 270.964844 Z M 1.425781 268.109375 " fill-opacity="1" fill-rule="nonzero"/><path fill="#b0fe03" d="M 1.425781 134.082031 L 555.261719 134.082031 L 555.261719 136.933594 L 1.425781 136.933594 Z M 1.425781 134.082031 " fill-opacity="1" fill-rule="nonzero"/><path fill="#b0fe03" d="M 369.226562 1.46875 L 372.078125 1.46875 L 372.078125 403.574219 L 369.226562 403.574219 Z M 369.226562 1.46875 " fill-opacity="1" fill-rule="nonzero"/><path fill="#b0fe03" d="M 184.609375 1.46875 L 187.460938 1.46875 L 187.460938 403.574219 L 184.609375 403.574219 Z M 184.609375 1.46875 " fill-opacity="1" fill-rule="nonzero"/><g clip-path="url(#4978c62e7b)"><path fill="#b0fe03" d="M 556.6875 810.003906 L 0 810.003906 L 0 405.042969 L 556.6875 405.042969 Z M 2.851562 807.148438 L 553.835938 807.148438 L 553.835938 407.894531 L 2.851562 407.894531 Z M 2.851562 807.148438 " fill-opacity="1" fill-rule="nonzero"/></g><path fill="#b0fe03" d="M 1.425781 673.109375 L 555.261719 673.109375 L 555.261719 675.964844 L 1.425781 675.964844 Z M 1.425781 673.109375 " fill-opacity="1" fill-rule="nonzero"/><path fill="#b0fe03" d="M 1.425781 539.082031 L 555.261719 539.082031 L 555.261719 541.933594 L 1.425781 541.933594 Z M 1.425781 539.082031 " fill-opacity="1" fill-rule="nonzero"/><path fill="#b0fe03" d="M 369.226562 406.46875 L 372.078125 406.46875 L 372.078125 808.574219 L 369.226562 808.574219 Z M 369.226562 406.46875 " fill-opacity="1" fill-rule="nonzero"/><path fill="#b0fe03" d="M 184.609375 406.46875 L 187.460938 406.46875 L 187.460938 808.574219 L 184.609375 808.574219 Z M 184.609375 406.46875 " fill-opacity="1" fill-rule="nonzero"/><g clip-path="url(#44f9412226)"><path fill="#b0fe03" d="M 1113.390625 405.003906 L 556.699219 405.003906 L 556.699219 0.0429688 L 1113.390625 0.0429688 Z M 559.554688 402.148438 L 1110.535156 402.148438 L 1110.535156 2.894531 L 559.554688 2.894531 Z M 559.554688 402.148438 " fill-opacity="1" fill-rule="nonzero"/></g><path fill="#b0fe03" d="M 558.128906 268.109375 L 1111.960938 268.109375 L 1111.960938 270.964844 L 558.128906 270.964844 Z M 558.128906 268.109375 " fill-opacity="1" fill-rule="nonzero"/><path fill="#b0fe03" d="M 558.128906 134.082031 L 1111.960938 134.082031 L 1111.960938 136.933594 L 558.128906 136.933594 Z M 558.128906 134.082031 " fill-opacity="1" fill-rule="nonzero"/><path fill="#b0fe03" d="M 925.929688 1.46875 L 928.78125 1.46875 L 928.78125 403.574219 L 925.929688 403.574219 Z M 925.929688 1.46875 " fill-opacity="1" fill-rule="nonzero"/><path fill="#b0fe03" d="M 741.308594 1.46875 L 744.160156 1.46875 L 744.160156 403.574219 L 741.308594 403.574219 Z M 741.308594 1.46875 " fill-opacity="1" fill-rule="nonzero"/><g clip-path="url(#82469840e0)"><path fill="#b0fe03" d="M 1113.390625 810.003906 L 556.699219 810.003906 L 556.699219 405.042969 L 1113.390625 405.042969 Z M 559.554688 807.148438 L 1110.535156 807.148438 L 1110.535156 407.894531 L 559.554688 407.894531 Z M 559.554688 807.148438 " fill-opacity="1" fill-rule="nonzero"/></g><path fill="#b0fe03" d="M 558.128906 673.109375 L 1111.960938 673.109375 L 1111.960938 675.964844 L 558.128906 675.964844 Z M 558.128906 673.109375 " fill-opacity="1" fill-rule="nonzero"/><path fill="#b0fe03" d="M 558.128906 539.082031 L 1111.960938 539.082031 L 1111.960938 541.933594 L 558.128906 541.933594 Z M 558.128906 539.082031 " fill-opacity="1" fill-rule="nonzero"/><path fill="#b0fe03" d="M 925.929688 406.46875 L 928.78125 406.46875 L 928.78125 808.574219 L 925.929688 808.574219 Z M 925.929688 406.46875 " fill-opacity="1" fill-rule="nonzero"/><path fill="#b0fe03" d="M 741.308594 406.46875 L 744.160156 406.46875 L 744.160156 808.574219 L 741.308594 808.574219 Z M 741.308594 406.46875 " fill-opacity="1" fill-rule="nonzero"/><g clip-path="url(#ac25fb6b1b)"><path fill="#b0fe03" d="M 1670.089844 405.003906 L 1113.402344 405.003906 L 1113.402344 0.0429688 L 1670.089844 0.0429688 Z M 1116.253906 402.148438 L 1667.238281 402.148438 L 1667.238281 2.894531 L 1116.253906 2.894531 Z M 1116.253906 402.148438 " fill-opacity="1" fill-rule="nonzero"/></g><path fill="#b0fe03" d="M 1114.828125 268.109375 L 1668.664062 268.109375 L 1668.664062 270.964844 L 1114.828125 270.964844 Z M 1114.828125 268.109375 " fill-opacity="1" fill-rule="nonzero"/><path fill="#b0fe03" d="M 1114.828125 134.082031 L 1668.664062 134.082031 L 1668.664062 136.933594 L 1114.828125 136.933594 Z M 1114.828125 134.082031 " fill-opacity="1" fill-rule="nonzero"/><path fill="#b0fe03" d="M 1298.007812 1.46875 L 1300.863281 1.46875 L 1300.863281 403.574219 L 1298.007812 403.574219 Z M 1298.007812 1.46875 " fill-opacity="1" fill-rule="nonzero"/><g clip-path="url(#981d848471)"><path fill="#b0fe03" d="M 1670.089844 810.003906 L 1113.402344 810.003906 L 1113.402344 405.042969 L 1670.089844 405.042969 Z M 1116.253906 807.148438 L 1667.238281 807.148438 L 1667.238281 407.894531 L 1116.253906 407.894531 Z M 1116.253906 807.148438 " fill-opacity="1" fill-rule="nonzero"/></g><path fill="#b0fe03" d="M 1114.828125 673.109375 L 1668.664062 673.109375 L 1668.664062 675.964844 L 1114.828125 675.964844 Z M 1114.828125 673.109375 " fill-opacity="1" fill-rule="nonzero"/><path fill="#b0fe03" d="M 1114.828125 539.082031 L 1668.664062 539.082031 L 1668.664062 541.933594 L 1114.828125 541.933594 Z M 1114.828125 539.082031 " fill-opacity="1" fill-rule="nonzero"/><path fill="#b0fe03" d="M 1298.007812 406.46875 L 1300.863281 406.46875 L 1300.863281 808.574219 L 1298.007812 808.574219 Z M 1298.007812 406.46875 " fill-opacity="1" fill-rule="nonzero"/></svg>