<svg xmlns="http://www.w3.org/2000/svg" xmlns:xlink="http://www.w3.org/1999/xlink" width="1920" zoomAndPan="magnify" viewBox="0 0 1440 809.999993" height="1080" preserveAspectRatio="xMidYMid meet" version="1.0"><defs><clipPath id="a3536d50c8"><path d="M 579.230469 228.300781 L 903.230469 228.300781 L 903.230469 552.300781 L 579.230469 552.300781 Z M 579.230469 228.300781 " clip-rule="nonzero"/></clipPath></defs><path fill="#3f4143" d="M 741.230469 370.050781 C 730.046875 370.050781 720.980469 379.117188 720.980469 390.300781 C 720.980469 401.484375 730.046875 410.550781 741.230469 410.550781 C 752.414062 410.550781 761.480469 401.484375 761.480469 390.300781 C 761.480469 379.117188 752.414062 370.050781 741.230469 370.050781 Z M 741.230469 390.261719 C 741.238281 390.261719 741.242188 390.261719 741.246094 390.261719 C 741.253906 390.265625 741.265625 390.277344 741.269531 390.285156 C 741.269531 390.289062 741.269531 390.296875 741.269531 390.300781 C 741.269531 390.308594 741.269531 390.3125 741.269531 390.320312 C 741.265625 390.328125 741.253906 390.335938 741.246094 390.34375 C 741.242188 390.34375 741.238281 390.34375 741.230469 390.34375 C 741.222656 390.34375 741.21875 390.34375 741.214844 390.34375 C 741.207031 390.335938 741.195312 390.328125 741.1875 390.320312 C 741.1875 390.3125 741.1875 390.308594 741.1875 390.300781 C 741.1875 390.296875 741.1875 390.289062 741.1875 390.285156 C 741.195312 390.277344 741.207031 390.265625 741.214844 390.261719 C 741.21875 390.261719 741.222656 390.261719 741.230469 390.261719 " fill-opacity="1" fill-rule="nonzero"/><path fill="#565a5b" d="M 741.230469 349.800781 C 718.863281 349.800781 700.730469 367.933594 700.730469 390.300781 C 700.730469 412.667969 718.863281 430.800781 741.230469 430.800781 C 763.597656 430.800781 781.730469 412.667969 781.730469 390.300781 C 781.730469 367.933594 763.597656 349.800781 741.230469 349.800781 Z M 741.230469 370.011719 C 752.417969 370.011719 761.519531 379.113281 761.519531 390.300781 C 761.519531 401.492188 752.417969 410.59375 741.230469 410.59375 C 730.042969 410.59375 720.9375 401.492188 720.9375 390.300781 C 720.9375 379.113281 730.042969 370.011719 741.230469 370.011719 " fill-opacity="1" fill-rule="nonzero"/><path fill="#6f7375" d="M 741.230469 329.550781 C 707.679688 329.550781 680.480469 356.75 680.480469 390.300781 C 680.480469 423.851562 707.679688 451.050781 741.230469 451.050781 C 774.78125 451.050781 801.980469 423.851562 801.980469 390.300781 C 801.980469 356.75 774.78125 329.550781 741.230469 329.550781 Z M 741.230469 349.761719 C 752.058594 349.761719 762.238281 353.976562 769.898438 361.636719 C 777.554688 369.292969 781.769531 379.472656 781.769531 390.300781 C 781.769531 401.132812 777.554688 411.3125 769.898438 418.96875 C 762.238281 426.625 752.058594 430.84375 741.230469 430.84375 C 730.402344 430.84375 720.21875 426.625 712.5625 418.96875 C 704.90625 411.3125 700.6875 401.132812 700.6875 390.300781 C 700.6875 379.472656 704.90625 369.292969 712.5625 361.636719 C 720.21875 353.976562 730.402344 349.761719 741.230469 349.761719 " fill-opacity="1" fill-rule="nonzero"/><path fill="#8a8d8d" d="M 741.230469 309.300781 C 696.496094 309.300781 660.230469 345.566406 660.230469 390.300781 C 660.230469 435.035156 696.496094 471.300781 741.230469 471.300781 C 785.964844 471.300781 822.230469 435.035156 822.230469 390.300781 C 822.230469 345.566406 785.964844 309.300781 741.230469 309.300781 Z M 741.230469 329.511719 C 757.46875 329.511719 772.734375 335.832031 784.214844 347.316406 C 795.699219 358.800781 802.019531 374.0625 802.019531 390.300781 C 802.019531 406.539062 795.699219 421.808594 784.214844 433.289062 C 772.734375 444.769531 757.46875 451.09375 741.230469 451.09375 C 724.992188 451.09375 709.726562 444.769531 698.242188 433.289062 C 686.761719 421.808594 680.4375 406.539062 680.4375 390.300781 C 680.4375 374.0625 686.761719 358.800781 698.242188 347.316406 C 709.726562 335.832031 724.992188 329.511719 741.230469 329.511719 " fill-opacity="1" fill-rule="nonzero"/><path fill="#a6a9a7" d="M 741.230469 289.050781 C 685.3125 289.050781 639.980469 334.382812 639.980469 390.300781 C 639.980469 446.222656 685.3125 491.550781 741.230469 491.550781 C 797.148438 491.550781 842.480469 446.222656 842.480469 390.300781 C 842.480469 334.382812 797.148438 289.050781 741.230469 289.050781 Z M 741.230469 309.261719 C 752.179688 309.261719 762.789062 311.402344 772.769531 315.621094 C 782.417969 319.703125 791.085938 325.546875 798.535156 332.996094 C 805.984375 340.449219 811.832031 349.113281 815.910156 358.765625 C 820.132812 368.742188 822.269531 379.351562 822.269531 390.300781 C 822.269531 401.25 820.132812 411.863281 815.910156 421.839844 C 811.832031 431.488281 805.984375 440.15625 798.535156 447.609375 C 791.085938 455.054688 782.417969 460.902344 772.769531 464.984375 C 762.789062 469.203125 752.179688 471.34375 741.230469 471.34375 C 730.28125 471.34375 719.667969 469.203125 709.691406 464.984375 C 700.042969 460.902344 691.375 455.054688 683.925781 447.609375 C 676.476562 440.15625 670.628906 431.488281 666.550781 421.839844 C 662.328125 411.863281 660.1875 401.25 660.1875 390.300781 C 660.1875 379.351562 662.328125 368.742188 666.550781 358.765625 C 670.628906 349.113281 676.476562 340.449219 683.925781 332.996094 C 691.375 325.546875 700.042969 319.703125 709.691406 315.621094 C 719.667969 311.402344 730.28125 309.261719 741.230469 309.261719 " fill-opacity="1" fill-rule="nonzero"/><path fill="#c2c3c1" d="M 741.230469 268.800781 C 674.128906 268.800781 619.730469 323.199219 619.730469 390.300781 C 619.730469 457.40625 674.128906 511.800781 741.230469 511.800781 C 808.332031 511.800781 862.730469 457.40625 862.730469 390.300781 C 862.730469 323.199219 808.332031 268.800781 741.230469 268.800781 Z M 741.230469 289.011719 C 754.914062 289.011719 768.175781 291.6875 780.652344 296.964844 C 792.710938 302.0625 803.542969 309.371094 812.855469 318.679688 C 822.164062 327.988281 829.46875 338.820312 834.570312 350.882812 C 839.847656 363.355469 842.519531 376.617188 842.519531 390.300781 C 842.519531 403.984375 839.847656 417.25 834.570312 429.722656 C 829.46875 441.78125 822.164062 452.617188 812.855469 461.925781 C 803.542969 471.234375 792.710938 478.542969 780.652344 483.640625 C 768.175781 488.917969 754.914062 491.59375 741.230469 491.59375 C 727.546875 491.59375 714.28125 488.917969 701.808594 483.640625 C 689.75 478.542969 678.914062 471.234375 669.605469 461.925781 C 660.296875 452.617188 652.992188 441.78125 647.890625 429.722656 C 642.613281 417.25 639.9375 403.984375 639.9375 390.300781 C 639.9375 376.617188 642.613281 363.355469 647.890625 350.882812 C 652.992188 338.820312 660.296875 327.988281 669.605469 318.679688 C 678.914062 309.371094 689.75 302.0625 701.808594 296.964844 C 714.28125 291.6875 727.546875 289.011719 741.230469 289.011719 " fill-opacity="1" fill-rule="nonzero"/><path fill="#e1e1df" d="M 741.230469 248.550781 C 662.945312 248.550781 599.480469 312.015625 599.480469 390.300781 C 599.480469 468.589844 662.945312 532.050781 741.230469 532.050781 C 819.515625 532.050781 882.980469 468.589844 882.980469 390.300781 C 882.980469 312.015625 819.515625 248.550781 741.230469 248.550781 Z M 741.230469 268.761719 C 757.648438 268.761719 773.5625 271.972656 788.53125 278.304688 C 803.003906 284.425781 816.003906 293.191406 827.171875 304.359375 C 838.339844 315.527344 847.109375 328.527344 853.230469 343 C 859.5625 357.96875 862.769531 373.886719 862.769531 390.300781 C 862.769531 406.71875 859.5625 422.632812 853.230469 437.605469 C 847.109375 452.074219 838.339844 465.078125 827.171875 476.246094 C 816.003906 487.414062 803.003906 496.179688 788.53125 502.300781 C 773.5625 508.632812 757.648438 511.84375 741.230469 511.84375 C 724.8125 511.84375 708.898438 508.632812 693.925781 502.300781 C 679.457031 496.179688 666.457031 487.414062 655.285156 476.246094 C 644.117188 465.078125 635.351562 452.074219 629.230469 437.605469 C 622.898438 422.632812 619.6875 406.71875 619.6875 390.300781 C 619.6875 373.886719 622.898438 357.96875 629.230469 343 C 635.351562 328.527344 644.117188 315.527344 655.285156 304.359375 C 666.457031 293.191406 679.457031 284.425781 693.925781 278.304688 C 708.898438 271.972656 724.8125 268.761719 741.230469 268.761719 " fill-opacity="1" fill-rule="nonzero"/><g clip-path="url(#a3536d50c8)"><path fill="#efefed" d="M 741.230469 228.300781 C 651.761719 228.300781 579.230469 300.832031 579.230469 390.300781 C 579.230469 479.773438 651.761719 552.300781 741.230469 552.300781 C 830.699219 552.300781 903.230469 479.773438 903.230469 390.300781 C 903.230469 300.832031 830.699219 228.300781 741.230469 228.300781 Z M 741.230469 248.511719 C 760.382812 248.511719 778.949219 252.257812 796.414062 259.644531 C 813.296875 266.785156 828.464844 277.011719 841.492188 290.042969 C 854.519531 303.070312 864.746094 318.234375 871.886719 335.117188 C 879.273438 352.585938 883.019531 371.152344 883.019531 390.300781 C 883.019531 409.453125 879.273438 428.019531 871.886719 445.488281 C 864.746094 462.371094 854.519531 477.535156 841.492188 490.5625 C 828.464844 503.59375 813.296875 513.820312 796.414062 520.960938 C 778.949219 528.347656 760.382812 532.09375 741.230469 532.09375 C 722.078125 532.09375 703.511719 528.347656 686.042969 520.960938 C 669.164062 513.820312 653.996094 503.59375 640.96875 490.5625 C 627.941406 477.535156 617.714844 462.371094 610.574219 445.488281 C 603.183594 428.019531 599.4375 409.453125 599.4375 390.300781 C 599.4375 371.152344 603.183594 352.585938 610.574219 335.117188 C 617.714844 318.234375 627.941406 303.070312 640.96875 290.042969 C 653.996094 277.011719 669.164062 266.785156 686.042969 259.644531 C 703.511719 252.257812 722.078125 248.511719 741.230469 248.511719 " fill-opacity="1" fill-rule="nonzero"/></g></svg>