
<svg xmlns="http://www.w3.org/2000/svg" width="500.936" height="235.479" viewBox="0 0 500.936 235.479">
  <g id="LetteringSa_Black" transform="translate(0.5 0.5)">
    <g id="Group_3299" data-name="Group 3299" transform="translate(-1165.462)" opacity="0.5">
      <path id="Path_13714" data-name="Path 13714" d="M1202.063,117.239c-12.318,0-22.876-9.986-22.876-22.3h0a22.3,22.3,0,0,1,22.3-22.3h179.577a22.3,22.3,0,0,1,22.3,22.3h0v0c0-23.95-9.369-47.142-26.657-63.718C1355.812,11.173,1324.3,0,1284.417,0c-65.7,0-118.955,30.311-118.955,80.638h0A36.6,36.6,0,0,0,1202.063,117.239Z" fill="none" stroke="#000" stroke-miterlimit="10" stroke-width="1"/>
      <path id="Path_13715" data-name="Path 13715" d="M1366.771,136.911c12.318,0,22.876,9.986,22.876,22.3h0a22.3,22.3,0,0,1-22.3,22.3H1187.766a22.3,22.3,0,0,1-22.3-22.3h0v0c0,23.951,9.368,47.142,26.656,63.718,20.9,20.042,52.411,31.215,92.3,31.215,65.7,0,118.955-30.31,118.955-80.638h0A36.6,36.6,0,0,0,1366.771,136.911Z" transform="translate(0 -19.672)" fill="none" stroke="#000" stroke-miterlimit="10" stroke-width="1"/>
      <line id="Line_6" data-name="Line 6" x2="164.707" transform="translate(1202.063 117.239)" fill="none" stroke="#000" stroke-miterlimit="10" stroke-width="1"/>



    </g>
  </g>
</svg>
