<svg width="377" height="736" viewBox="0 0 377 736" fill="none" xmlns="http://www.w3.org/2000/svg">
<g clip-path="url(#clip0)">
<path d="M259.138 -5.83109C272.755 12.1509 285.714 30.6698 298.199 49.4849C316.676 77.2783 334.714 105.989 348.159 136.68C353.278 148.444 358.271 161.012 359.395 173.918C360.121 182.224 358.729 191.675 350.725 195.935C340.301 201.5 326.119 197.676 315.602 194.533C291.685 187.392 269.371 175.332 247.523 163.431C202.959 139.167 157.772 114.718 109.942 97.5452C91.6507 90.9608 72.4359 85.0518 52.9228 84.003C39.7285 83.2813 24.9569 84.9949 15.1472 94.865C4.33051 105.753 3.13276 122.731 4.23725 137.248C6.44184 166.307 17.1348 194.543 27.7706 221.359C52.8492 284.602 86.8225 343.554 126.874 398.318C159.347 442.702 195.787 483.938 229.042 527.74C244.502 548.099 259.518 569.229 271.239 592.045C288.398 625.45 298.587 664.287 294.276 702.038C292.556 717.118 288.344 731.895 280.898 745.131C280.677 745.529 281.293 746.912 281.623 746.328C297.441 718.214 298.664 683.884 292.925 652.732C286.92 620.135 272.801 590.337 254.885 562.757C226.653 519.268 191.935 480.376 159.767 439.878C119.186 388.788 82.0425 335.058 53.0173 276.363C36.8043 243.568 21.89 209.272 11.9746 173.956C6.38837 154.044 0.664945 129.981 7.64322 109.644C19.2638 75.7673 63.5281 84.8319 89.4547 92.2694C112.202 98.7911 134.179 108.002 155.671 117.869C179.923 129.005 203.663 141.248 227.205 153.837C250.584 166.337 273.586 179.752 298.187 189.732C311.828 195.271 327.86 201.524 342.906 199.808C366.106 197.163 360.879 170.23 355.734 154.405C345.826 123.935 328.609 95.639 311.635 68.7269C296.847 45.2743 281.096 22.4145 264.636 0.124349C262.866 -2.26343 261.084 -4.65085 259.289 -7.03792C258.787 -7.69762 258.858 -6.18883 259.122 -5.83585L259.138 -5.83109Z" fill="#F8863F"/>
</g>
<defs>
<clipPath id="clip0">
<rect width="753.999" height="354.73" fill="white" transform="translate(354.675 -10) rotate(88.3216)"/>
</clipPath>
</defs>
</svg>
