<svg width="77" height="31" viewBox="0 0 77 31" fill="none" xmlns="http://www.w3.org/2000/svg">
<path d="M60.781 30.6086C59.2358 30.6086 57.7468 30.426 56.314 30.0607C54.9093 29.6955 53.603 29.1617 52.3949 28.4594L51.0464 30.0607H44.1353L48.3494 25.1724C47.2256 23.852 46.3547 22.3489 45.7366 20.6633C45.1185 18.9776 44.8095 17.1936 44.8095 15.3113C44.8095 13.12 45.2028 11.0972 45.9895 9.24301C46.7761 7.3888 47.8718 5.77339 49.2765 4.39678C50.7093 2.99208 52.3949 1.91045 54.3334 1.15191C56.3 0.39337 58.4492 0.0140991 60.781 0.0140991C62.27 0.0140991 63.6747 0.182666 64.9951 0.519796C66.3436 0.856926 67.5938 1.32048 68.7457 1.91045L69.9256 0.561935H76.9211L72.9177 5.15532C74.1257 6.47575 75.0669 8.00687 75.7411 9.74871C76.4154 11.4624 76.7525 13.3167 76.7525 15.3113C76.7525 17.5027 76.3592 19.5255 75.5726 21.3797C74.7859 23.2339 73.6762 24.8633 72.2434 26.268C70.8387 27.6447 69.1531 28.7122 67.1865 29.4708C65.248 30.2293 63.1128 30.6086 60.781 30.6086ZM60.781 23.276C61.8205 23.276 62.7616 23.0794 63.6045 22.686C64.4473 22.2646 65.1637 21.6887 65.7537 20.9583C66.3436 20.2278 66.7931 19.385 67.1022 18.4298C67.4112 17.4465 67.5657 16.407 67.5657 15.3113C67.5657 14.6652 67.4955 14.0612 67.355 13.4993C67.2427 12.9093 67.0741 12.3474 66.8493 11.8136L57.6204 22.4753C58.098 22.7282 58.5897 22.9248 59.0954 23.0653C59.6292 23.2058 60.191 23.276 60.781 23.276ZM54.5863 18.3034L63.5202 7.93664C63.0988 7.73998 62.6633 7.59951 62.2138 7.51523C61.7643 7.40285 61.2867 7.34666 60.781 7.34666C59.7415 7.34666 58.8004 7.55737 57.9576 7.97878C57.1147 8.3721 56.3983 8.93398 55.8084 9.66443C55.2184 10.3949 54.7689 11.2517 54.4598 12.235C54.1508 13.1902 53.9963 14.2157 53.9963 15.3113C53.9963 15.8451 54.0384 16.3649 54.1227 16.8706C54.2351 17.3763 54.3896 17.8539 54.5863 18.3034Z" fill="black"/>
<path d="M22.5877 30.6086C20.7896 30.6086 19.0899 30.2434 17.4886 29.5129C15.9153 28.7825 14.637 27.7008 13.6537 26.268C12.6704 24.8352 12.1788 23.0794 12.1788 21.0004V9.58014C12.1788 9.21492 12.0945 8.90589 11.9259 8.65304C11.7855 8.3721 11.5888 8.16139 11.336 8.02092C11.0831 7.88045 10.7881 7.81022 10.451 7.81022C10.1139 7.81022 9.80484 7.88045 9.5239 8.02092C9.27105 8.16139 9.06035 8.3721 8.89178 8.65304C8.75131 8.90589 8.68108 9.21492 8.68108 9.58014V17.9803H0L0 9.66443C0 7.61356 0.4776 5.87172 1.4328 4.43892C2.41609 3.00612 3.70842 1.91045 5.30979 1.15191C6.91115 0.39337 8.62489 0.0140991 10.451 0.0140991C12.2771 0.0140991 13.9768 0.39337 15.5501 1.15191C17.1234 1.91045 18.4016 3.00612 19.3849 4.43892C20.3682 5.87172 20.8599 7.61356 20.8599 9.66443V21.0847C20.8599 21.4499 20.9442 21.773 21.1127 22.0539C21.2813 22.3068 21.492 22.5034 21.7448 22.6439C21.9977 22.7844 22.2646 22.8546 22.5455 22.8546C22.8546 22.8546 23.1495 22.7844 23.4305 22.6439C23.7114 22.5034 23.9362 22.3068 24.1047 22.0539C24.2733 21.773 24.3576 21.4499 24.3576 21.0847V9.66443C24.3576 7.61356 24.8492 5.87172 25.8325 4.43892C26.8158 3.00612 28.0941 1.91045 29.6674 1.15191C31.2687 0.39337 32.9684 0.0140991 34.7664 0.0140991C36.5645 0.0140991 38.2501 0.39337 39.8234 1.15191C41.3967 1.91045 42.6749 3.00612 43.6582 4.43892C44.6415 5.87172 45.1332 7.61356 45.1332 9.66443V30.0607H36.4942V9.45372C36.4942 9.11659 36.41 8.83565 36.2414 8.6109C36.0728 8.35805 35.8621 8.16139 35.6093 8.02092C35.3564 7.88045 35.0755 7.81022 34.7664 7.81022C34.4574 7.81022 34.1624 7.88045 33.8815 8.02092C33.6005 8.16139 33.3758 8.35805 33.2072 8.6109C33.0668 8.83565 32.9965 9.11659 32.9965 9.45372V21.0004C32.9965 23.0794 32.4908 24.8352 31.4794 26.268C30.4961 27.7008 29.2179 28.7825 27.6446 29.5129C26.0713 30.2434 24.3857 30.6086 22.5877 30.6086Z" fill="black"/>
</svg>
