<?xml version="1.0" encoding="UTF-8"?><svg id="Layer_2" xmlns="http://www.w3.org/2000/svg" width="1106" height="1543" xmlns:xlink="http://www.w3.org/1999/xlink" viewBox="0 0 1106 1543"><defs><clipPath id="clippath"><rect width="1106" height="1543" style="fill:none;"/></clipPath><linearGradient id="linear-gradient" x1="807.0262" y1="1452.3077" x2="533.2285" y2="943.8272" gradientUnits="userSpaceOnUse"><stop offset=".0007" stop-color="#bdb8ff"/><stop offset="1" stop-color="#ffd07a"/></linearGradient><linearGradient id="linear-gradient-2" x1="171.3698" y1="1118.5116" x2="943.2114" y2="1118.5116" xlink:href="#linear-gradient"/><linearGradient id="linear-gradient-3" x1="171.6598" y1="769.2902" x2="943.2121" y2="769.2902" xlink:href="#linear-gradient"/><linearGradient id="linear-gradient-4" x1="1051.4327" y1="937.8587" x2="96.5883" y2="826.2528" xlink:href="#linear-gradient"/><linearGradient id="linear-gradient-5" x1="807.1713" y1="1003.8735" x2="533.3736" y2="495.3931" xlink:href="#linear-gradient"/><linearGradient id="linear-gradient-6" x1="171.5149" y1="670.0774" x2="943.3565" y2="670.0774" xlink:href="#linear-gradient"/></defs><g id="Design"><g style="clip-path:url(#clippath);"><g style="isolation:isolate;"><path d="M829.3273,862.4609c151.1476,69.7661,151.9441,182.8776,1.7851,252.6419-150.1651,69.7671-394.4217,69.768-545.5692,.0019-151.1476-69.7661-151.9438-182.8774-1.7786-252.6446,150.159-69.7643,394.4151-69.7653,545.5627,.0008Z" style="fill:url(#linear-gradient);"/><path d="M943.0963,993.6159c-.0086,.1697-.0155,.3394-.0251,.5091-.0714,1.2479-.1732,2.4953-.3007,3.7424-.0188,.1847-.0368,.3692-.0569,.5538-.1347,1.2369-.2983,2.4733-.4883,3.7089-.0295,.1917-.0591,.3834-.0899,.5751-.1981,1.2323-.4238,2.4638-.6769,3.6944-.0394,.1914-.0799,.3828-.1206,.5742-.2624,1.2337-.5512,2.4665-.8689,3.698-.0468,.1814-.0957,.3626-.1437,.544-.328,1.2391-.6819,2.477-1.066,3.7132-.053,.1704-.1086,.3407-.1626,.5111-.3956,1.2479-.8169,2.4943-1.2698,3.7388-.0559,.1538-.115,.3075-.1718,.4613-.466,1.2604-.9578,2.5192-1.4825,3.7755-.0555,.133-.1142,.2657-.1704,.3985-.5397,1.2767-1.1059,2.5516-1.7062,3.8236-.0516,.1092-.1063,.2182-.1583,.3273-.6238,1.3099-1.2747,2.6177-1.9628,3.922-.0135,.0254-.0279,.0508-.0413,.0763-.693,1.3109-1.4212,2.6186-2.1792,3.9233-.0447,.077-.087,.1543-.1319,.2311-.739,1.2652-1.5135,2.5267-2.3137,3.7853-.0883,.1391-.174,.2784-.2631,.4173-.7827,1.2203-1.5981,2.4369-2.4383,3.6506-.1188,.1716-.2359,.3435-.3558,.515-.8309,1.1877-1.692,2.3722-2.5783,3.5532-.1666,.2221-.3351,.4441-.5037,.6658-.9001,1.1844-1.8234,2.3657-2.7791,3.5428-.1284,.158-.2612,.3155-.3906,.4734-.973,1.1881-1.9704,2.3728-3.0002,3.5528-.0568,.0651-.1111,.1305-.1681,.1955-1.049,1.198-2.1351,2.3905-3.2427,3.5797-.1833,.1968-.3643,.3938-.5491,.5903-1.0616,1.1283-2.1523,2.2522-3.2667,3.3722-.2806,.282-.5661,.5631-.8501,.8446-1.0188,1.0098-2.0572,2.0165-3.1191,3.0191-.1914,.1808-.3773,.3625-.5701,.5429-1.2191,1.1411-2.471,2.2766-3.7462,3.4079-.3088,.274-.6228,.547-.9349,.8204-1.1243,.9848-2.2683,1.9659-3.4352,2.9427-.2222,.1861-.4389,.3732-.6628,.5591-1.3454,1.1167-2.7232,2.2272-4.1245,3.3331-.3385,.2671-.6823,.5332-1.0241,.7996-1.228,.9575-2.4757,1.911-3.7459,2.86-.2544,.1902-.5034,.3813-.7595,.5712-1.4951,1.1076-3.0216,2.2086-4.5743,3.304-.1909,.1347-.3797,.2698-.5715,.4044-1.5564,1.0916-3.1443,2.1762-4.7581,3.255-.2147,.1436-.4278,.2875-.6435,.4307-1.608,1.0683-3.2466,2.1297-4.9111,3.185-.2364,.1499-.4718,.3-.7093,.4497-1.6631,1.0475-3.3556,2.0881-5.0745,3.1223-.2535,.1525-.5065,.3051-.7611,.4573-1.722,1.0292-3.4727,2.0514-5.2502,3.0669-.2661,.1519-.5326,.304-.7999,.4557-1.7839,1.0122-3.5956,2.0175-5.4349,3.0157-.2767,.1501-.5544,.3001-.8324,.45-1.8488,.9965-3.7246,1.986-5.6287,2.9678-.2825,.1457-.5665,.291-.8503,.4363-1.9186,.9829-3.8638,1.9585-5.8381,2.926-.2821,.1382-.5662,.2758-.8494,.4138-2.1046,1.0247-4.2335,2.0429-6.4009,3.0498-2.0882,.9702-4.2013,1.9219-6.3254,2.8651-.5584,.248-1.1187,.4945-1.6795,.7406-1.9021,.8347-3.8159,1.6602-5.7456,2.4733-.2555,.1079-.5078,.2182-.7639,.3254-2.1522,.9021-4.3251,1.7876-6.5104,2.6632-.5616,.225-1.1261,.4477-1.6899,.671-1.8572,.7354-3.7254,1.4618-5.6055,2.1783-.4109,.1566-.8185,.3159-1.2305,.4716-2.2172,.8378-4.4517,1.6609-6.6995,2.4724-.5418,.1955-1.0873,.3878-1.6309,.582-1.8732,.6687-3.7565,1.3285-5.65,1.979-.513,.1763-1.0236,.3546-1.5381,.5296-2.2841,.7765-4.5824,1.5404-6.8948,2.2905-.4897,.1589-.9832,.3143-1.4742,.4719-1.9376,.6224-3.885,1.2354-5.8417,1.8394-.5854,.1808-1.1696,.3628-1.7567,.5419-2.3522,.7173-4.7154,1.4238-7.0938,2.1148-.3849,.1119-.7733,.2202-1.1589,.3314-2.0643,.5951-4.1389,1.1793-6.222,1.7545-.6315,.1743-1.2628,.3489-1.896,.5214-2.4114,.6571-4.8317,1.3048-7.2671,1.9355-2.8478,.7375-5.7114,1.4571-8.5905,2.1584-.6714,.1637-1.3511,.3172-2.0241,.4787-2.2129,.5313-4.4284,1.0595-6.6586,1.5695-1.0806,.2472-2.1714,.4814-3.2561,.7236-1.8363,.4098-3.6712,.8218-5.5187,1.2174-1.2112,.2594-2.4317,.5065-3.6475,.7598-1.7336,.3611-3.4658,.724-5.2084,1.0726-1.2829,.2566-2.5737,.5019-3.8614,.7519-1.6887,.3277-3.3768,.6562-5.0734,.9723-1.3286,.2473-2.6637,.4848-3.9969,.7252-1.6683,.3007-3.3366,.6011-5.012,.8907-1.3585,.2348-2.7223,.4609-4.0854,.6884-1.6624,.2773-3.3257,.553-4.9947,.8195-1.3836,.2208-2.7713,.4347-4.1592,.648-1.6585,.2549-3.3186,.5069-4.9831,.7512-1.9437,.2852-3.8894,.5667-5.8409,.8373-.4823,.0668-.9631,.1364-1.4458,.2023-2.6191,.358-5.2455,.7012-7.8774,1.0328-.6304,.0796-1.2622,.1558-1.8933,.2338-2.2091,.2727-4.4223,.5364-6.6397,.7907-.5704,.0654-1.1396,.133-1.7105,.1972-2.645,.2973-5.2956,.5814-7.9512,.8525-.5817,.0594-1.1648,.1153-1.747,.1734-2.2287,.2225-4.4609,.4356-6.6963,.6396-.6305,.0576-1.2605,.1168-1.8915,.1728-2.6132,.2323-5.2306,.4523-7.852,.6594-3.3162,.2618-6.638,.5056-9.9656,.7272-.5521,.0367-1.1061,.0657-1.6585,.1014-2.7818,.1795-5.5662,.3482-8.3545,.4996-1.1523,.0625-2.3065,.115-3.4597,.1728-2.2005,.1101-4.4019,.216-6.6057,.3087-1.2949,.0545-2.5909,.1023-3.8869,.1507-2.0848,.078-4.1705,.1491-6.2575,.2114-1.3768,.0411-2.754,.08-4.1316,.1143-1.7604,.0437-3.5213,.0804-5.2825,.113-1.435,.0267-2.8698,.0522-4.3053,.0714-1.7738,.0238-3.5481,.0386-5.3225,.0512-1.4241,.0099-2.8481,.0208-4.2724,.0235-1.7955,.0035-3.5911-.0038-5.3867-.0118-1.4017-.0063-2.8035-.0098-4.205-.0232-1.84-.0174-3.6794-.0475-5.5188-.0772-1.3596-.0218-2.7194-.039-4.0786-.0675-1.6987-.0357-3.3962-.0843-5.0941-.1304-1.4309-.0386-2.8623-.0726-4.2924-.1186-1.7226-.0556-3.4434-.125-5.1647-.1912-1.402-.0539-2.8047-.102-4.2056-.163-1.7622-.0766-3.5217-.1683-5.2819-.2561-1.3584-.0679-2.718-.1289-4.0752-.2034-1.8115-.0994-3.6197-.2147-5.4287-.326-1.304-.0803-2.6097-.1528-3.9122-.2391-1.8724-.1243-3.7405-.2654-5.6098-.4022-1.2307-.0902-2.4637-.1719-3.693-.2675-2.1065-.164-4.2077-.3462-6.3094-.5264-.9857-.0845-1.9742-.16-2.9588-.248-3.0843-.276-6.1629-.5689-9.235-.8798-.3456-.035-.6891-.0754-1.0345-.1108-2.7252-.2794-5.4468-.5682-8.1611-.8753-.7495-.0848-1.4948-.1798-2.2434-.2667-2.374-.2755-4.7467-.5542-7.1114-.8509-1.1445-.1436-2.2832-.2998-3.4254-.4483-1.9597-.2548-3.9199-.5085-5.8725-.7781-1.2705-.1753-2.5349-.3624-3.8023-.5438-1.8166-.2602-3.6336-.5196-5.4434-.7924-1.326-.2-2.6464-.4103-3.9686-.617-1.7416-.2723-3.4829-.5449-5.2177-.829-1.2445-.2038-2.4838-.4162-3.7246-.6261-1.9984-.338-3.9935-.6815-5.9822-1.0353-1.2618-.2245-2.521-.4531-3.7788-.6838-1.9623-.3602-3.9187-.7293-5.8708-1.1049-1.2283-.2364-2.4569-.4723-3.681-.7147-2.0451-.4051-4.0809-.8231-6.1137-1.2453-1.1006-.2286-2.2049-.4521-3.3018-.6857-2.5146-.5354-5.0164-1.0881-7.511-1.6499-.611-.1376-1.2276-.2677-1.8373-.4069-.3085-.0705-.6144-.1441-.9225-.2148-2.2335-.5133-4.4573-1.0386-6.6735-1.5729-.7093-.1711-1.4173-.3435-2.1248-.5167-2.1264-.5206-4.2451-1.0503-6.3548-1.5905-.3983-.1021-.7994-.201-1.1971-.3037-2.4566-.6344-4.8994-1.2844-7.332-1.9454-.634-.1724-1.2649-.3481-1.8974-.5223-1.9274-.5307-3.847-1.0698-5.7587-1.6174-.6221-.1781-1.2457-.3545-1.866-.5345-2.4017-.6967-4.7926-1.4047-7.1681-2.1281-.3932-.1197-.7826-.2434-1.1751-.3638-1.9069-.5855-3.8028-1.1816-5.6921-1.7844-1.1185-.3567-2.2314-.7188-3.3435-1.0816-1.433-.4676-2.8619-.939-4.2841-1.4166-1.1109-.3731-2.2181-.7495-3.3224-1.1286-1.4124-.485-2.8185-.9758-4.2199-1.4708-1.0908-.3854-2.1801-.7721-3.2641-1.1637-1.4046-.5071-2.8004-1.0219-4.1932-1.5392-1.0611-.3942-2.1229-.7877-3.1769-1.1879-1.4108-.5353-2.8101-1.0803-4.2083-1.6264-1.0155-.3966-2.0342-.7905-3.043-1.1927-1.4487-.5776-2.8831-1.1669-4.3177-1.7561-.9385-.3854-1.883-.7661-2.8154-1.1566-1.5713-.6579-3.125-1.3298-4.6785-2.0018-.7761-.3358-1.5607-.6647-2.3323-1.0039-2.3145-1.0176-4.6109-2.0491-6.8839-3.0983-76.0593-35.1072-114.0462-81.1903-113.883-127.2031l-.2898,81.7008c-.1631,46.0128,37.8238,92.096,113.8832,127.2032,2.2729,1.0492,4.5693,2.0807,6.8838,3.0983,.7716,.3391,1.5562,.6681,2.3323,1.0038,1.5535,.6722,3.1072,1.3439,4.6785,2.0019,.9324,.3905,1.8769,.7711,2.8154,1.1566,1.4346,.5891,2.869,1.1783,4.3177,1.756,1.0088,.4023,2.0275,.7961,3.043,1.1927,1.3982,.5462,2.7975,1.0911,4.2083,1.6265,1.0542,.4001,2.1158,.7936,3.1769,1.1878,1.3928,.5174,2.7886,1.0322,4.1932,1.5394,1.0841,.3915,2.1732,.7781,3.2641,1.1635,1.4014,.495,2.8074,.9857,4.2199,1.4708,1.1047,.3794,2.2122,.7558,3.3235,1.129,1.4203,.4769,2.8469,.9477,4.2779,1.4146,1.1153,.3639,2.2312,.7268,3.3528,1.0847,.524,.1671,1.0411,.3408,1.5664,.5068,1.3656,.431,2.741,.8523,4.1157,1.2743,.3949,.1213,.7867,.2456,1.1823,.3661,2.3751,.7233,4.7654,1.431,7.1666,2.1277,.6204,.1799,1.244,.3563,1.8661,.5345,1.9131,.5479,3.8341,1.0875,5.7629,1.6186,.6299,.1734,1.258,.3485,1.8896,.5201,2.4344,.6615,4.8787,1.312,7.3369,1.9467,.3957,.1023,.7947,.2006,1.1909,.302,2.1135,.5413,4.2359,1.072,6.3662,1.5936,.7027,.172,1.406,.3431,2.1105,.5131,2.2247,.5364,4.4571,1.0638,6.6991,1.5789,.3008,.0691,.5994,.141,.9005,.2096,.0867,.0199,.1726,.0408,.2593,.0605,.5298,.1207,1.0672,.2315,1.5979,.3509,2.4908,.5609,4.9884,1.1126,7.4991,1.6473,1.0913,.2323,2.1895,.4546,3.2844,.6821,2.0395,.4235,4.0818,.8429,6.1335,1.2493,1.2189,.2414,2.4419,.4762,3.6649,.7116,1.958,.3767,3.9201,.7468,5.8884,1.1081,1.2532,.23,2.5075,.4577,3.7647,.6813,1.9941,.3548,3.9943,.6992,5.9982,1.0382,.8049,.1361,1.6029,.2834,2.4093,.4169,.4319,.0716,.8682,.1358,1.3005,.2066,1.7392,.2849,3.4849,.5582,5.2309,.8311,1.3197,.2063,2.6371,.4162,3.9606,.6157,1.8079,.2726,3.6228,.5315,5.4375,.7915,1.2697,.1818,2.5364,.3694,3.8093,.545,1.9463,.2686,3.9001,.5214,5.8534,.7756,1.1496,.1495,2.2955,.3065,3.4473,.4511,2.3738,.2978,4.7555,.5777,7.1387,.8542,.6906,.0801,1.3774,.1692,2.0687,.2475,.0464,.0052,.093,.0097,.1394,.015,2.7927,.3159,5.5928,.6138,8.3969,.9005,.2667,.0274,.5319,.0585,.7987,.0855,3.075,.3112,6.1566,.6045,9.2438,.8807,.9437,.0843,1.8911,.1567,2.8358,.2378,2.1425,.1839,4.2845,.3693,6.432,.5364,1.2067,.094,2.417,.1742,3.6251,.2627,1.8919,.1387,3.7826,.2814,5.6777,.407,.1192,.0079,.2378,.0178,.3569,.0256,1.1798,.0777,2.3629,.1402,3.5438,.2129,1.8099,.1113,3.6189,.2266,5.4314,.3262,1.3698,.0751,2.7421,.1369,4.1131,.2052,1.7477,.0872,3.4945,.1782,5.2441,.2544,1.403,.0609,2.8077,.1091,4.2119,.1632,1.7221,.0662,3.4436,.1357,5.167,.1912,1.4253,.046,2.8516,.0796,4.2776,.1182,1.7016,.0461,3.4028,.0949,5.1052,.1307,.3017,.0063,.6029,.0171,.9046,.0231,1.0542,.021,2.1092,.0273,3.1636,.0443,1.8444,.0297,3.6886,.0598,5.5335,.0773,1.3981,.0134,2.7961,.0169,4.1944,.0231,1.7979,.0082,3.5956,.0154,5.3935,.0119,1.4226-.0028,2.8448-.0136,4.2672-.0235,1.7758-.0126,3.5513-.0274,5.3265-.0512,1.4369-.0192,2.8732-.0448,4.3096-.0714,1.7601-.0327,3.5196-.0694,5.2787-.113,.6814-.017,1.3637-.0252,2.045-.0438,.6947-.019,1.3878-.0496,2.0824-.0704,2.089-.0622,4.1766-.1335,6.2635-.2115,1.2954-.0485,2.5904-.0962,3.8848-.1506,2.2014-.0926,4.4003-.1985,6.5985-.3085,1.157-.0579,2.3148-.1106,3.4708-.1734,2.7758-.1507,5.5475-.3187,8.3167-.4973,.565-.0364,1.1315-.0661,1.6963-.1038,3.3263-.2215,6.6467-.4651,9.9617-.7269,.1693-.0134,.3394-.0236,.5086-.0372,2.4497-.195,4.8948-.4045,7.3374-.6215,.637-.0567,1.2727-.1164,1.9091-.1745,2.2269-.2032,4.4505-.4156,6.6706-.6372,.5891-.0587,1.1788-.1153,1.7674-.1755,2.6534-.2708,5.3017-.5546,7.9445-.8517,.5716-.0643,1.1417-.132,1.7128-.1976,2.2131-.2537,4.422-.5168,6.6269-.789,.6372-.0787,1.2749-.1557,1.9114-.236,2.6274-.331,5.2493-.6738,7.8638-1.031,.4904-.0671,.9789-.1376,1.4688-.2057,1.3324-.1846,2.6658-.3675,3.9947-.5591,.6093-.0878,1.2133-.1854,1.8219-.2747,1.6696-.2449,3.3347-.4977,4.9983-.7534,1.385-.2129,2.7696-.4261,4.1504-.6466,1.671-.2667,3.3362-.5429,5.0008-.8206,1.3598-.2269,2.72-.4525,4.0753-.6867,1.6803-.2903,3.3534-.5916,5.0265-.8931,1.33-.2398,2.6617-.4766,3.987-.7236,1.6961-.3158,3.3834-.6444,5.0715-.9719,1.289-.2501,2.5809-.4957,3.865-.7526,1.744-.3489,3.4774-.712,5.2123-1.0734,1.2134-.2528,2.4312-.4993,3.64-.7582,1.8557-.3973,3.6986-.8109,5.5431-1.2228,1.0766-.2404,2.1591-.4728,3.2317-.7181,2.2456-.5135,4.4764-1.0452,6.7044-1.5802,.6579-.1581,1.3223-.3082,1.9786-.468,2.8799-.7015,5.7442-1.4213,8.5928-2.159,.0446-.0116,.09-.0222,.1346-.0339,2.3909-.6197,4.7663-1.2569,7.1342-1.9021,.6323-.1722,1.2624-.3465,1.8931-.5207,2.0801-.5743,4.1515-1.1577,6.2128-1.7519,.3903-.1124,.7834-.2221,1.1731-.3353,2.3769-.6906,4.7387-1.3966,7.0895-2.1137,.5877-.1792,1.1723-.3613,1.7583-.5422,1.9536-.6031,3.898-1.2152,5.8326-1.8365,.495-.159,.9925-.3156,1.4861-.4757,2.3104-.7496,4.6062-1.5126,6.8882-2.2885,.5176-.1759,1.0312-.3553,1.5473-.5327,1.8892-.6491,3.7683-1.3072,5.6373-1.9745,.5465-.195,1.0947-.3885,1.6395-.5852,2.2459-.8107,4.4783-1.6331,6.6937-2.4702,.4157-.157,.8268-.3178,1.2413-.4757,1.8775-.7155,3.743-1.4409,5.5976-2.1753,.5637-.2232,1.128-.4457,1.6895-.6708,2.1856-.8756,4.3587-1.7612,6.5112-2.6635,.2567-.1076,.5098-.2182,.7661-.3262,1.928-.8125,3.8401-1.6373,5.7406-2.4712,.5622-.2467,1.1239-.4939,1.6836-.7424,2.1237-.943,4.2363-1.8945,6.3242-2.8646,1.5858-.7368,3.1549-1.4784,4.7071-2.2249,.5669-.2726,1.1242-.5476,1.6865-.8215,.2875-.1399,.5758-.2797,.8622-.4199,1.9702-.9656,3.9114-1.9392,5.826-2.92,.2879-.1475,.5759-.2947,.8624-.4424,1.9015-.9805,3.7746-1.9687,5.6208-2.9638,.2796-.1507,.5588-.3015,.8371-.4526,1.8378-.9972,3.6479-2.0017,5.4304-3.013,.2688-.1526,.5367-.3054,.8043-.4584,1.7767-1.0149,3.5265-2.0367,5.2477-3.0653,.2552-.1526,.5086-.3054,.7626-.4583,1.7179-1.0336,3.4094-2.0734,5.0715-3.1204,.239-.1505,.4758-.3016,.7137-.4525,1.6637-1.0546,3.3013-2.1155,4.9085-3.1833,.2157-.1432,.4287-.2869,.6433-.4305,1.6145-1.0793,3.2032-2.1646,4.7603-3.2565,.1901-.1334,.3772-.2675,.5666-.4009,1.438-1.0145,2.8581-2.0329,4.2467-3.0577,.1118-.0826,.2191-.1659,.3305-.2485,.2561-.1898,.5048-.3808,.7591-.5708,1.2711-.9498,2.5197-1.904,3.7486-2.8622,.3404-.2655,.683-.5305,1.0202-.7966,1.4019-1.1063,2.7801-2.2171,4.126-3.3343,.2242-.1861,.4414-.3736,.6641-.56,1.1657-.976,2.3085-1.9561,3.4316-2.9398,.3135-.2745,.6287-.5487,.9388-.8238,1.2743-1.1304,2.5253-2.265,3.7436-3.4054,.1944-.182,.3816-.365,.5746-.5473,1.0606-1.0014,2.0977-2.0068,3.1152-3.0154,.2841-.2816,.5699-.563,.8507-.8451,.2053-.2065,.4185-.4115,.622-.6182,.901-.9148,1.7785-1.8334,2.6443-2.7536,.1852-.1969,.3666-.3942,.5501-.5913,1.1067-1.1883,2.1919-2.3798,3.2401-3.5768,.0594-.0679,.1161-.1361,.1753-.2039,1.0276-1.1776,2.0229-2.3598,2.9939-3.5454,.1298-.1585,.2631-.3164,.3919-.475,.956-1.1774,1.8797-2.3592,2.78-3.544,.1679-.2209,.3356-.4419,.5017-.6631,.7671-1.0224,1.5213-2.0464,2.247-3.0739,.1125-.1593,.2193-.3193,.3308-.4787,.1211-.173,.2392-.3465,.3592-.5198,.8394-1.2126,1.654-2.4281,2.436-3.6473,.0893-.1391,.175-.2788,.2636-.418,.7997-1.2581,1.5739-2.5189,2.3125-3.7833,.0459-.0786,.0891-.1575,.1347-.236,.7577-1.3043,1.4856-2.6114,2.1782-3.9218,.0131-.0247,.0271-.0491,.04-.0738,.6883-1.3044,1.3391-2.6122,1.963-3.9222,.0521-.1093,.1069-.2183,.1585-.3276,.0323-.0685,.067-.1367,.0991-.2052,.565-1.2038,1.0965-2.4104,1.6071-3.6184,.0562-.1329,.1149-.2657,.1704-.3986,.5248-1.2567,1.0167-2.5157,1.4828-3.7765,.0567-.1533,.1155-.3064,.1712-.4598,.4532-1.2452,.8748-2.4925,1.2707-3.7412,.0536-.1691,.1088-.3382,.1614-.5074,.3846-1.2377,.7389-2.477,1.0673-3.7176,.0476-.1798,.096-.3596,.1425-.5394,.0519-.2014,.1089-.4026,.1594-.6041,.2586-1.0315,.4905-2.0643,.7103-3.0974,.0406-.1907,.0809-.3812,.1201-.5719,.2532-1.2309,.4789-2.4626,.677-3.6953,.0308-.1917,.0605-.3833,.0899-.5751,.19-1.2356,.3537-2.4719,.4884-3.7089,.0201-.1845,.0381-.3691,.0569-.5537,.1275-1.2472,.2294-2.4949,.3007-3.743,.0097-.169,.0164-.338,.025-.5071,.0212-.4143,.0465-.8285,.0615-1.2429,.0326-.9029,.0504-1.806,.0537-2.7092l.2897-81.7008c-.0047,1.3171-.0479,2.634-.1151,3.9506Z" style="fill:url(#linear-gradient-2);"/></g><g style="isolation:isolate;"><path d="M829.3275,642.9685c151.1476,69.7661,151.9441,182.8775,1.7852,252.6418-150.1652,69.7672-394.4217,69.7681-545.5693,.002-151.1476-69.7661-151.9437-182.8774-1.7785-252.6446,150.1589-69.7643,394.415-69.7653,545.5626,.0008Z" style="fill:url(#linear-gradient-3);"/><path d="M943.0966,774.1234c-.0087,.1698-.0155,.3395-.0252,.5091-.0713,1.248-.1732,2.4954-.3006,3.7425-.0189,.1847-.0368,.3691-.057,.5538-.1347,1.2369-.2983,2.4732-.4883,3.7088-.0295,.1918-.059,.3834-.0899,.5752-.1981,1.2323-.4238,2.4638-.6769,3.6944-.0393,.1914-.0798,.3828-.1205,.5741-.2625,1.2338-.5513,2.4666-.869,3.6981-.0468,.1814-.0956,.3626-.1436,.544-.328,1.2391-.682,2.477-1.0661,3.7131-.0529,.1705-.1085,.3408-.1626,.5111-.3956,1.248-.8169,2.4944-1.2697,3.7389-.056,.1538-.115,.3075-.1719,.4613-.466,1.2604-.9578,2.5192-1.4825,3.7755-.0555,.133-.1141,.2656-.1703,.3985-.5397,1.2767-1.1059,2.5516-1.7063,3.8236-.0516,.1092-.1063,.2181-.1583,.3273-.6238,1.3099-1.2747,2.6176-1.9628,3.922-.0134,.0254-.0278,.0507-.0413,.0762-.6929,1.311-1.4211,2.6187-2.1791,3.9234-.0447,.077-.087,.1542-.132,.2311-.7389,1.2651-1.5135,2.5266-2.3136,3.7853-.0884,.1391-.174,.2783-.2632,.4173-.7827,1.2202-1.5981,2.4369-2.4382,3.6505-.1188,.1717-.2359,.3436-.3559,.515-.8309,1.1877-1.692,2.3722-2.5782,3.5532-.1667,.2222-.3351,.4441-.5038,.6659-.9001,1.1844-1.8234,2.3657-2.7791,3.5428-.1284,.158-.2612,.3155-.3905,.4734-.9731,1.1881-1.9704,2.3728-3.0002,3.5527-.0569,.0651-.1112,.1305-.1681,.1956-1.0491,1.198-2.1352,2.3905-3.2428,3.5797-.1832,.1967-.3643,.3938-.5491,.5902-1.0615,1.1284-2.1523,2.2523-3.2667,3.3723-.2806,.282-.5661,.5631-.85,.8446-1.0188,1.0097-2.0573,2.0164-3.1192,3.0191-.1913,.1807-.3772,.3624-.57,.5429-1.2192,1.1411-2.4711,2.2766-3.7463,3.4078-.3088,.2741-.6227,.5471-.9349,.8204-1.1243,.9848-2.2683,1.966-3.4351,2.9428-.2223,.1861-.439,.3732-.6629,.559-1.3454,1.1167-2.7231,2.2273-4.1245,3.3332-.3384,.2671-.6823,.5332-1.0241,.7996-1.2279,.9574-2.4757,1.911-3.7458,2.8599-.2545,.1902-.5034,.3814-.7596,.5712-1.4951,1.1077-3.0215,2.2087-4.5742,3.3041-.1909,.1346-.3797,.2698-.5716,.4044-1.5564,1.0915-3.1443,2.1761-4.7581,3.255-.2146,.1435-.4278,.2875-.6434,.4307-1.6081,1.0683-3.2467,2.1297-4.9112,3.185-.2364,.1499-.4718,.2999-.7093,.4496-1.663,1.0475-3.3556,2.0881-5.0745,3.1224-.2534,.1525-.5064,.3051-.7611,.4572-1.722,1.0293-3.4726,2.0514-5.2501,3.0669-.2662,.152-.5326,.3041-.7999,.4558-1.784,1.0122-3.5956,2.0174-5.4349,3.0156-.2768,.1502-.5545,.3002-.8325,.45-1.8487,.9966-3.7245,1.9861-5.6287,2.9679-.2825,.1457-.5665,.291-.8503,.4362-1.9186,.9829-3.8637,1.9585-5.8381,2.926-.2821,.1383-.5662,.2759-.8494,.4138-2.1045,1.0248-4.2334,2.0429-6.4009,3.0499-2.0882,.9702-4.2013,1.9219-6.3253,2.8651-.5584,.248-1.1187,.4945-1.6795,.7406-1.9021,.8346-3.816,1.6602-5.7456,2.4733-.2556,.1078-.5079,.2181-.764,.3254-2.1521,.9021-4.3251,1.7876-6.5104,2.6631-.5615,.225-1.1261,.4477-1.6899,.671-1.8572,.7354-3.7253,1.4619-5.6054,2.1784-.411,.1565-.8186,.3159-1.2306,.4716-2.2172,.8378-4.4516,1.6608-6.6994,2.4723-.5419,.1956-1.0873,.3879-1.6309,.582-1.8733,.6687-3.7566,1.3286-5.6501,1.9791-.513,.1763-1.0236,.3546-1.538,.5295-2.2842,.7765-4.5824,1.5405-6.8948,2.2906-.4898,.1589-.9833,.3143-1.4743,.4719-1.9376,.6223-3.885,1.2354-5.8416,1.8394-.5855,.1807-1.1697,.3627-1.7568,.5419-2.3521,.7173-4.7154,1.4238-7.0937,2.1147-.385,.112-.7733,.2203-1.159,.3314-2.0643,.5951-4.1388,1.1793-6.222,1.7546-.6315,.1743-1.2627,.3488-1.896,.5214-2.4114,.6571-4.8317,1.3048-7.2671,1.9354-2.8478,.7376-5.7113,1.4572-8.5905,2.1585-.6713,.1636-1.351,.3171-2.0241,.4787-2.2128,.5312-4.4283,1.0594-6.6586,1.5695-1.0806,.2471-2.1714,.4813-3.256,.7235-1.8364,.4099-3.6713,.8219-5.5188,1.2175-1.2112,.2594-2.4317,.5065-3.6475,.7598-1.7335,.3611-3.4658,.7239-5.2084,1.0726-1.2829,.2566-2.5737,.5019-3.8614,.7519-1.6886,.3276-3.3767,.6561-5.0734,.9722-1.3285,.2474-2.6636,.4848-3.9969,.7252-1.6682,.3007-3.3366,.6012-5.012,.8908-1.3585,.2347-2.7223,.4609-4.0854,.6884-1.6624,.2773-3.3257,.553-4.9946,.8195-1.3836,.2208-2.7714,.4346-4.1593,.648-1.6585,.2549-3.3186,.5068-4.983,.7512-1.9438,.2852-3.8894,.5667-5.841,.8373-.4823,.0668-.9631,.1364-1.4458,.2023-2.619,.358-5.2454,.7012-7.8774,1.0328-.6304,.0795-1.2622,.1558-1.8933,.2338-2.2091,.2727-4.4223,.5364-6.6397,.7907-.5703,.0653-1.1396,.133-1.7104,.1971-2.6451,.2974-5.2957,.5815-7.9513,.8526-.5817,.0594-1.1647,.1152-1.7469,.1733-2.2288,.2226-4.461,.4357-6.6964,.6397-.6305,.0575-1.2604,.1168-1.8914,.1728-2.6133,.2323-5.2307,.4523-7.852,.6593-3.3163,.2618-6.638,.5057-9.9656,.7272-.5522,.0367-1.1062,.0658-1.6586,.1014-2.7818,.1796-5.5662,.3483-8.3545,.4997-1.1522,.0625-2.3064,.1149-3.4596,.1728-2.2006,.1101-4.402,.216-6.6057,.3087-1.295,.0545-2.591,.1023-3.8869,.1507-2.0848,.0779-4.1706,.1491-6.2575,.2114-1.3769,.0411-2.754,.08-4.1317,.1143-1.7603,.0437-3.5212,.0804-5.2825,.113-1.4349,.0266-2.8698,.0522-4.3052,.0714-1.7738,.0238-3.5482,.0386-5.3226,.0511-1.4241,.01-2.8481,.0209-4.2724,.0235-1.7955,.0036-3.5911-.0037-5.3867-.0117-1.4017-.0063-2.8034-.0099-4.205-.0233-1.8399-.0173-3.6793-.0475-5.5188-.0771-1.3596-.0219-2.7193-.0391-4.0785-.0676-1.6988-.0356-3.3963-.0843-5.0942-.1303-1.4309-.0387-2.8623-.0726-4.2923-.1187-1.7226-.0555-3.4434-.1249-5.1647-.1911-1.402-.0539-2.8048-.102-4.2057-.163-1.7621-.0767-3.5216-.1683-5.2818-.2562-1.3585-.0678-2.7181-.1288-4.0752-.2034-1.8116-.0994-3.6197-.2146-5.4288-.3259-1.304-.0803-2.6097-.1528-3.9121-.2392-1.8725-.1242-3.7406-.2653-5.6098-.4022-1.2308-.0901-2.4638-.1718-3.693-.2674-2.1066-.164-4.2077-.3462-6.3094-.5264-.9858-.0845-1.9742-.16-2.9588-.248-3.0843-.2761-6.163-.5689-9.2351-.8799-.3455-.035-.689-.0753-1.0345-.1108-2.7251-.2793-5.4468-.5681-8.161-.8752-.7495-.0848-1.4948-.1798-2.2434-.2667-2.374-.2756-4.7468-.5543-7.1115-.851-1.1445-.1435-2.2832-.2997-3.4254-.4483-1.9597-.2548-3.9198-.5085-5.8725-.778-1.2705-.1753-2.5348-.3625-3.8022-.5439-1.8166-.2602-3.6336-.5196-5.4435-.7924-1.326-.1999-2.6463-.4102-3.9686-.617-1.7415-.2723-3.4828-.5449-5.2176-.8289-1.2445-.2038-2.4839-.4162-3.7247-.6261-1.9984-.338-3.9935-.6815-5.9821-1.0354-1.2619-.2244-2.5211-.453-3.7789-.6838-1.9623-.3601-3.9187-.7292-5.8707-1.1048-1.2284-.2364-2.457-.4723-3.6811-.7147-2.045-.4051-4.0808-.8232-6.1137-1.2454-1.1006-.2285-2.2048-.4521-3.3017-.6856-2.5147-.5354-5.0165-1.0881-7.511-1.6499-.611-.1376-1.2277-.2678-1.8374-.4069-.3085-.0705-.6144-.1441-.9225-.2148-2.2334-.5133-4.4573-1.0386-6.6735-1.5729-.7092-.1711-1.4173-.3436-2.1247-.5168-2.1264-.5205-4.2452-1.0502-6.3548-1.5905-.3984-.1021-.7995-.2009-1.1972-.3036-2.4565-.6344-4.8993-1.2844-7.332-1.9455-.634-.1723-1.2649-.3481-1.8973-.5222-1.9275-.5307-3.8471-1.0698-5.7588-1.6174-.622-.1782-1.2456-.3545-1.866-.5345-2.4017-.6967-4.7925-1.4047-7.168-2.1282-.3933-.1196-.7826-.2433-1.1752-.3638-1.9069-.5854-3.8028-1.1816-5.6921-1.7843-1.1184-.3567-2.2314-.7188-3.3435-1.0816-1.433-.4676-2.8618-.939-4.2841-1.4167-1.1109-.373-2.2181-.7494-3.3224-1.1285-1.4124-.485-2.8185-.9758-4.2198-1.4709-1.0909-.3854-2.1802-.7721-3.2642-1.1636-1.4045-.5072-2.8004-1.022-4.1932-1.5393-1.061-.3942-2.1228-.7877-3.1769-1.1878-1.4108-.5353-2.8101-1.0804-4.2083-1.6264-1.0154-.3966-2.0342-.7905-3.043-1.1927-1.4486-.5776-2.8831-1.1669-4.3177-1.7562-.9385-.3854-1.883-.7661-2.8153-1.1565-1.5713-.6579-3.1251-1.3298-4.6786-2.0018-.776-.3358-1.5607-.6647-2.3323-1.004-2.3144-1.0175-4.6108-2.0491-6.8838-3.0982-76.0593-35.1072-114.0463-81.1903-113.8831-127.2031l-.2897,81.7008c-.1632,46.0128,37.8238,92.096,113.8831,127.2031,2.273,1.0492,4.5694,2.0808,6.8839,3.0984,.7715,.3391,1.5561,.6681,2.3322,1.0038,1.5535,.6721,3.1073,1.3439,4.6786,2.0019,.9324,.3904,1.8768,.771,2.8153,1.1565,1.4347,.5892,2.869,1.1784,4.3177,1.7561,1.0089,.4023,2.0275,.7961,3.043,1.1927,1.3982,.5461,2.7975,1.0911,4.2083,1.6264,1.0542,.4001,2.1158,.7937,3.1769,1.1878,1.3929,.5174,2.7886,1.0323,4.1932,1.5394,1.0841,.3915,2.1733,.7782,3.2642,1.1636,1.4014,.495,2.8074,.9857,4.2198,1.4708,1.1047,.3794,2.2123,.7558,3.3236,1.1289,1.4203,.477,2.8469,.9477,4.2779,1.4147,1.1152,.3639,2.2312,.7268,3.3527,1.0846,.524,.1671,1.0411,.3409,1.5664,.5068,1.3656,.431,2.741,.8523,4.1158,1.2744,.3949,.1212,.7867,.2456,1.1823,.366,2.3751,.7234,4.7653,1.4311,7.1665,2.1277,.6204,.18,1.244,.3564,1.8661,.5345,1.9132,.548,3.8341,1.0876,5.763,1.6186,.6298,.1734,1.258,.3485,1.8895,.5202,2.4344,.6614,4.8787,1.312,7.337,1.9467,.3956,.1022,.7946,.2006,1.1909,.302,2.1135,.5413,4.2359,1.072,6.3661,1.5936,.7027,.172,1.406,.3431,2.1105,.5131,2.2248,.5364,4.4571,1.0638,6.6992,1.5789,.3008,.0691,.5993,.141,.9004,.2096,.0867,.0199,.1726,.0407,.2593,.0604,.5298,.1207,1.0672,.2315,1.5979,.351,2.4908,.5609,4.9884,1.1126,7.4991,1.6473,1.0913,.2323,2.1896,.4546,3.2845,.6821,2.0395,.4235,4.0818,.8428,6.1335,1.2492,1.2188,.2415,2.4418,.4762,3.6649,.7117,1.9579,.3767,3.92,.7468,5.8883,1.1081,1.2532,.2299,2.5076,.4576,3.7648,.6813,1.994,.3548,3.9942,.6992,5.9981,1.0381,.8049,.1361,1.603,.2834,2.4093,.417,.432,.0715,.8682,.1358,1.3006,.2066,1.7392,.2848,3.4848,.5581,5.2308,.8311,1.3198,.2063,2.6372,.4162,3.9606,.6157,1.8079,.2726,3.6229,.5315,5.4375,.7915,1.2698,.1818,2.5364,.3693,3.8093,.545,1.9463,.2686,3.9001,.5214,5.8535,.7756,1.1495,.1495,2.2954,.3065,3.4472,.451,2.3738,.2979,4.7556,.5777,7.1387,.8543,.6907,.0801,1.3774,.1691,2.0687,.2475,.0464,.0052,.0931,.0097,.1394,.0149,2.7927,.3159,5.5928,.6139,8.397,.9006,.2666,.0273,.5318,.0585,.7986,.0855,3.075,.3112,6.1566,.6044,9.2438,.8807,.9437,.0843,1.8911,.1566,2.8358,.2378,2.1425,.1839,4.2846,.3693,6.4321,.5364,1.2066,.094,2.4169,.1741,3.625,.2627,1.8919,.1386,3.7826,.2814,5.6778,.407,.1191,.0079,.2377,.0177,.3569,.0256,1.1797,.0777,2.3629,.1402,3.5437,.2128,1.81,.1114,3.6189,.2267,5.4314,.3263,1.3699,.0751,2.7421,.1368,4.1132,.2052,1.7476,.0871,3.4945,.1781,5.244,.2543,1.4031,.061,2.8077,.1092,4.2119,.1633,1.7221,.0661,3.4436,.1357,5.1671,.1911,1.4252,.046,2.8515,.0797,4.2776,.1183,1.7016,.0461,3.4027,.0949,5.1051,.1306,.3017,.0064,.603,.0172,.9046,.0232,1.0542,.021,2.1092,.0273,3.1636,.0442,1.8445,.0298,3.6886,.0599,5.5335,.0774,1.3981,.0133,2.7961,.0169,4.1944,.0231,1.798,.0081,3.5956,.0154,5.3936,.0118,1.4226-.0027,2.8447-.0135,4.2672-.0235,1.7758-.0125,3.5512-.0273,5.3265-.0511,1.4369-.0192,2.8731-.0448,4.3095-.0714,1.7601-.0327,3.5196-.0694,5.2787-.1131,.6815-.0169,1.3637-.0251,2.045-.0438,.6947-.019,1.3879-.0496,2.0824-.0703,2.0891-.0622,4.1766-.1335,6.2636-.2115,1.2953-.0485,2.5903-.0962,3.8847-.1507,2.2014-.0925,4.4003-.1984,6.5985-.3084,1.1571-.0579,2.3148-.1106,3.4709-.1734,2.7757-.1507,5.5474-.3187,8.3166-.4973,.565-.0364,1.1316-.0662,1.6964-.1038,3.3263-.2215,6.6467-.4651,9.9617-.7269,.1692-.0134,.3393-.0237,.5086-.0372,2.4496-.195,4.8947-.4045,7.3374-.6215,.6369-.0567,1.2726-.1164,1.9091-.1745,2.2269-.2033,4.4504-.4156,6.6706-.6372,.589-.0587,1.1788-.1154,1.7674-.1755,2.6534-.2709,5.3016-.5547,7.9444-.8517,.5717-.0644,1.1417-.132,1.7128-.1976,2.2131-.2537,4.422-.5168,6.627-.7891,.6372-.0786,1.2749-.1557,1.9114-.236,2.6274-.331,5.2492-.6737,7.8638-1.0309,.4903-.0671,.9788-.1377,1.4687-.2057,1.3325-.1847,2.6659-.3675,3.9947-.5592,.6093-.0877,1.2133-.1853,1.822-.2746,1.6696-.245,3.3346-.4977,4.9982-.7535,1.3851-.2128,2.7696-.4261,4.1504-.6465,1.6711-.2668,3.3363-.5429,5.0008-.8207,1.3598-.2268,2.7201-.4525,4.0753-.6866,1.6804-.2903,3.3534-.5916,5.0265-.8932,1.3301-.2397,2.6617-.4766,3.9871-.7235,1.696-.3159,3.3833-.6445,5.0714-.9719,1.289-.2502,2.5809-.4957,3.8651-.7527,1.744-.3488,3.4773-.712,5.2122-1.0734,1.2134-.2527,2.4313-.4992,3.6401-.7581,1.8556-.3974,3.6986-.811,5.543-1.2228,1.0766-.2404,2.1591-.4729,3.2318-.7181,2.2456-.5135,4.4763-1.0453,6.7043-1.5802,.6579-.1581,1.3224-.3082,1.9787-.468,2.8798-.7015,5.7441-1.4213,8.5927-2.1591,.0446-.0115,.09-.0221,.1346-.0338,2.391-.6198,4.7664-1.2569,7.1342-1.9021,.6323-.1722,1.2625-.3466,1.8931-.5207,2.0801-.5743,4.1515-1.1577,6.2128-1.7519,.3904-.1124,.7834-.2221,1.1731-.3353,2.377-.6907,4.7388-1.3967,7.0896-2.1137,.5876-.1792,1.1723-.3613,1.7582-.5423,1.9536-.603,3.898-1.2151,5.8326-1.8364,.495-.1591,.9925-.3156,1.4862-.4757,2.3103-.7496,4.6061-1.5126,6.8882-2.2885,.5175-.176,1.0312-.3554,1.5472-.5327,1.8893-.6491,3.7683-1.3073,5.6373-1.9745,.5465-.195,1.0947-.3885,1.6395-.5852,2.2459-.8107,4.4784-1.6331,6.6938-2.4703,.4156-.1569,.8268-.3177,1.2413-.4756,1.8775-.7155,3.7429-1.4409,5.5976-2.1754,.5636-.2232,1.1279-.4457,1.6894-.6707,2.1856-.8756,4.3588-1.7612,6.5112-2.6635,.2568-.1076,.5098-.2182,.7662-.3262,1.928-.8125,3.8401-1.6373,5.7405-2.4713,.5623-.2467,1.1239-.4938,1.6837-.7424,2.1237-.943,4.2363-1.8944,6.3241-2.8645,1.5859-.7368,3.155-1.4785,4.7072-2.2249,.5668-.2726,1.1241-.5477,1.6865-.8215,.2874-.14,.5758-.2797,.8621-.4199,1.9703-.9656,3.9114-1.9392,5.8261-2.92,.2878-.1475,.5758-.2948,.8623-.4425,1.9015-.9805,3.7747-1.9686,5.6208-2.9637,.2797-.1508,.5588-.3016,.8372-.4526,1.8377-.9972,3.6478-2.0017,5.4303-3.0131,.2689-.1525,.5367-.3054,.8043-.4583,1.7767-1.0149,3.5265-2.0367,5.2477-3.0654,.2552-.1525,.5087-.3054,.7627-.4582,1.7178-1.0336,3.4094-2.0735,5.0714-3.1204,.2391-.1506,.4758-.3017,.7138-.4525,1.6636-1.0547,3.3013-2.1155,4.9085-3.1833,.2156-.1432,.4286-.287,.6432-.4305,1.6145-1.0793,3.2032-2.1646,4.7603-3.2565,.1902-.1335,.3773-.2675,.5666-.4009,1.438-1.0145,2.8582-2.0329,4.2467-3.0577,.1118-.0826,.2191-.166,.3306-.2486,.256-.1897,.5048-.3808,.7591-.5708,1.271-.9497,2.5196-1.9039,3.7485-2.8621,.3405-.2656,.683-.5305,1.0202-.7966,1.4019-1.1063,2.7802-2.2172,4.126-3.3344,.2243-.1861,.4414-.3735,.6641-.56,1.1658-.9759,2.3086-1.956,3.4317-2.9397,.3134-.2746,.6286-.5487,.9388-.8238,1.2742-1.1305,2.5253-2.265,3.7435-3.4054,.1944-.182,.3817-.3651,.5747-.5473,1.0606-1.0015,2.0977-2.0068,3.1152-3.0154,.2841-.2816,.5698-.563,.8506-.8452,.2054-.2064,.4185-.4114,.6221-.6181,.901-.9148,1.7784-1.8334,2.6442-2.7537,.1852-.1969,.3666-.3942,.5501-.5912,1.1068-1.1883,2.1919-2.3799,3.2402-3.5769,.0594-.0678,.116-.136,.1752-.2039,1.0276-1.1775,2.0229-2.3597,2.994-3.5453,.1297-.1585,.263-.3164,.3919-.4751,.956-1.1774,1.8796-2.3592,2.7799-3.5439,.1679-.2209,.3357-.4419,.5017-.6631,.7671-1.0224,1.5213-2.0464,2.247-3.074,.1125-.1592,.2193-.3192,.3308-.4786,.1212-.173,.2393-.3465,.3592-.5198,.8394-1.2126,1.6541-2.4281,2.4361-3.6473,.0893-.1392,.175-.2788,.2636-.4181,.7996-1.258,1.5738-2.5188,2.3124-3.7833,.0459-.0785,.0891-.1574,.1348-.236,.7576-1.3042,1.4855-2.6113,2.1782-3.9218,.013-.0246,.027-.0491,.04-.0737,.6882-1.3045,1.3391-2.6122,1.9629-3.9222,.0521-.1094,.1069-.2183,.1585-.3277,.0323-.0684,.0671-.1367,.0992-.2051,.5649-1.2039,1.0964-2.4104,1.607-3.6184,.0562-.133,.1149-.2657,.1704-.3986,.5248-1.2567,1.0167-2.5157,1.4828-3.7765,.0567-.1533,.1155-.3064,.1713-.4598,.4531-1.2452,.8748-2.4926,1.2706-3.7413,.0537-.1691,.1088-.3381,.1614-.5073,.3847-1.2377,.739-2.4771,1.0673-3.7177,.0476-.1797,.096-.3595,.1425-.5393,.0519-.2014,.109-.4026,.1595-.6041,.2585-1.0316,.4905-2.0643,.7102-3.0974,.0406-.1907,.081-.3813,.1202-.572,.2531-1.2308,.4789-2.4626,.677-3.6952,.0308-.1918,.0604-.3833,.0899-.5752,.19-1.2356,.3536-2.4718,.4883-3.7089,.0201-.1845,.0381-.369,.0569-.5536,.1275-1.2473,.2294-2.4949,.3007-3.743,.0097-.169,.0165-.338,.0251-.5071,.0211-.4144,.0465-.8285,.0614-1.2429,.0326-.903,.0505-1.806,.0537-2.7092l.2897-81.7008c-.0046,1.317-.0478,2.634-.115,3.9505Z" style="fill:url(#linear-gradient-4);"/></g><g style="isolation:isolate;"><path d="M829.4724,414.0268c151.1476,69.7661,151.9441,182.8775,1.7851,252.6418-150.1651,69.7672-394.4217,69.7681-545.5692,.002-151.1476-69.7661-151.9438-182.8774-1.7786-252.6446,150.159-69.7643,394.4151-69.7653,545.5627,.0008Z" style="fill:url(#linear-gradient-5);"/><path d="M943.2414,545.1817c-.0086,.1698-.0155,.3395-.0251,.5091-.0714,1.248-.1732,2.4954-.3007,3.7425-.0188,.1847-.0368,.3691-.0569,.5538-.1347,1.2369-.2983,2.4732-.4883,3.7088-.0295,.1918-.0591,.3834-.0899,.5752-.1981,1.2323-.4238,2.4638-.6769,3.6944-.0394,.1914-.0799,.3828-.1206,.5741-.2624,1.2338-.5512,2.4666-.8689,3.6981-.0468,.1814-.0957,.3626-.1437,.544-.328,1.2391-.6819,2.477-1.066,3.7132-.053,.1704-.1086,.3407-.1626,.511-.3956,1.248-.8169,2.4944-1.2698,3.7389-.0559,.1538-.115,.3075-.1718,.4613-.466,1.2604-.9578,2.5192-1.4825,3.7755-.0555,.133-.1142,.2656-.1704,.3985-.5397,1.2767-1.1059,2.5516-1.7062,3.8236-.0516,.1092-.1063,.2181-.1583,.3273-.6238,1.3099-1.2747,2.6177-1.9628,3.922-.0135,.0254-.0279,.0507-.0413,.0763-.693,1.3109-1.4212,2.6186-2.1792,3.9233-.0447,.077-.087,.1542-.1319,.2311-.739,1.2651-1.5135,2.5266-2.3137,3.7853-.0883,.1391-.174,.2783-.2631,.4173-.7827,1.2202-1.5981,2.4369-2.4383,3.6505-.1188,.1717-.2359,.3436-.3558,.515-.8309,1.1878-1.692,2.3722-2.5783,3.5533-.1666,.2221-.3351,.444-.5037,.6658-.9001,1.1844-1.8234,2.3657-2.7791,3.5428-.1284,.158-.2612,.3155-.3906,.4734-.973,1.1881-1.9704,2.3728-3.0002,3.5528-.0568,.0651-.1111,.1304-.1681,.1955-1.049,1.198-2.1351,2.3905-3.2427,3.5797-.1833,.1967-.3643,.3938-.5491,.5902-1.0616,1.1284-2.1523,2.2523-3.2667,3.3723-.2806,.282-.5661,.5631-.8501,.8446-1.0188,1.0097-2.0572,2.0164-3.1191,3.0191-.1914,.1807-.3773,.3625-.5701,.5429-1.2191,1.1411-2.471,2.2766-3.7462,3.4079-.3088,.274-.6228,.547-.9349,.8203-1.1243,.9848-2.2683,1.966-3.4352,2.9428-.2222,.1861-.4389,.3732-.6628,.559-1.3454,1.1167-2.7232,2.2273-4.1245,3.3332-.3385,.2671-.6823,.5332-1.0241,.7996-1.228,.9574-2.4757,1.911-3.7459,2.8599-.2544,.1902-.5034,.3814-.7595,.5712-1.4951,1.1077-3.0216,2.2087-4.5743,3.3041-.1909,.1347-.3797,.2698-.5715,.4044-1.5564,1.0915-3.1443,2.1761-4.7581,3.255-.2147,.1436-.4278,.2875-.6435,.4307-1.608,1.0683-3.2466,2.1297-4.9111,3.185-.2364,.1499-.4718,.3-.7093,.4496-1.6631,1.0475-3.3556,2.0882-5.0745,3.1224-.2535,.1525-.5065,.3051-.7611,.4572-1.722,1.0293-3.4727,2.0515-5.2502,3.0669-.2661,.152-.5326,.3041-.7999,.4558-1.7839,1.0122-3.5956,2.0175-5.4349,3.0156-.2767,.1502-.5544,.3002-.8324,.45-1.8488,.9966-3.7246,1.9861-5.6287,2.9679-.2825,.1457-.5665,.291-.8503,.4362-1.9186,.9829-3.8638,1.9586-5.8381,2.926-.2821,.1383-.5662,.2759-.8494,.4138-2.1046,1.0248-4.2335,2.0429-6.4009,3.0499-2.0882,.9702-4.2013,1.9219-6.3254,2.8651-.5584,.248-1.1187,.4945-1.6795,.7406-1.9021,.8346-3.8159,1.6602-5.7456,2.4733-.2555,.1078-.5078,.2181-.7639,.3254-2.1522,.9021-4.3251,1.7876-6.5104,2.6631-.5616,.225-1.1261,.4477-1.6899,.671-1.8572,.7354-3.7254,1.4619-5.6055,2.1784-.4109,.1565-.8185,.3159-1.2305,.4716-2.2172,.8378-4.4517,1.6608-6.6995,2.4723-.5418,.1956-1.0873,.3879-1.6309,.5821-1.8732,.6687-3.7565,1.3285-5.65,1.979-.513,.1763-1.0236,.3546-1.5381,.5295-2.2841,.7766-4.5824,1.5405-6.8948,2.2906-.4897,.1589-.9832,.3143-1.4742,.4719-1.9376,.6223-3.885,1.2354-5.8417,1.8394-.5854,.1808-1.1696,.3627-1.7567,.5419-2.3522,.7173-4.7154,1.4238-7.0938,2.1148-.3849,.1119-.7733,.2202-1.1589,.3313-2.0643,.5951-4.1389,1.1793-6.222,1.7546-.6315,.1743-1.2628,.3488-1.896,.5214-2.4114,.6571-4.8317,1.3048-7.2671,1.9354-2.8478,.7376-5.7114,1.4572-8.5905,2.1585-.6714,.1637-1.3511,.3172-2.0241,.4787-2.2129,.5312-4.4284,1.0594-6.6586,1.5695-1.0806,.2472-2.1714,.4813-3.2561,.7235-1.8363,.4099-3.6712,.8219-5.5187,1.2175-1.2112,.2594-2.4317,.5065-3.6475,.7598-1.7336,.3611-3.4658,.7239-5.2084,1.0726-1.2829,.2566-2.5737,.5019-3.8614,.7519-1.6887,.3276-3.3768,.6562-5.0734,.9723-1.3286,.2473-2.6637,.4848-3.9969,.7251-1.6683,.3007-3.3366,.6012-5.012,.8908-1.3585,.2347-2.7223,.4609-4.0854,.6884-1.6624,.2773-3.3257,.553-4.9947,.8195-1.3836,.2208-2.7713,.4346-4.1592,.648-1.6585,.2549-3.3186,.5068-4.9831,.7512-1.9437,.2852-3.8894,.5667-5.8409,.8373-.4823,.0668-.9631,.1364-1.4458,.2023-2.6191,.358-5.2455,.7012-7.8774,1.0328-.6304,.0795-1.2622,.1558-1.8933,.2338-2.2091,.2727-4.4223,.5364-6.6397,.7907-.5704,.0653-1.1396,.133-1.7105,.1972-2.645,.2973-5.2956,.5814-7.9512,.8525-.5817,.0594-1.1648,.1152-1.747,.1734-2.2287,.2225-4.4609,.4356-6.6963,.6396-.6305,.0575-1.2605,.1168-1.8915,.1728-2.6132,.2323-5.2306,.4523-7.852,.6593-3.3162,.2618-6.638,.5057-9.9656,.7272-.5522,.0367-1.1061,.0658-1.6585,.1015-2.7818,.1795-5.5662,.3482-8.3545,.4996-1.1523,.0625-2.3065,.115-3.4597,.1728-2.2005,.1101-4.4019,.216-6.6057,.3087-1.2949,.0545-2.5909,.1023-3.8869,.1507-2.0848,.078-4.1705,.1491-6.2575,.2114-1.3768,.0411-2.754,.08-4.1316,.1143-1.7604,.0437-3.5213,.0804-5.2825,.113-1.435,.0267-2.8698,.0522-4.3053,.0714-1.7738,.0238-3.5481,.0386-5.3225,.0511-1.4241,.01-2.8481,.0209-4.2724,.0235-1.7955,.0036-3.5911-.0037-5.3867-.0117-1.4017-.0063-2.8035-.0099-4.205-.0232-1.84-.0174-3.6794-.0475-5.5188-.0772-1.3596-.0219-2.7194-.0391-4.0786-.0676-1.6987-.0356-3.3962-.0843-5.0941-.1303-1.4309-.0386-2.8623-.0726-4.2924-.1187-1.7226-.0555-3.4434-.1249-5.1647-.1911-1.402-.0539-2.8047-.102-4.2056-.163-1.7622-.0766-3.5217-.1683-5.2819-.2562-1.3584-.0678-2.718-.1288-4.0752-.2034-1.8115-.0994-3.6197-.2146-5.4287-.3259-1.304-.0803-2.6097-.1528-3.9122-.2391-1.8724-.1243-3.7405-.2654-5.6098-.4023-1.2307-.0901-2.4637-.1718-3.693-.2674-2.1065-.164-4.2077-.3462-6.3094-.5264-.9857-.0845-1.9742-.16-2.9588-.248-3.0843-.2761-6.1629-.5689-9.235-.8799-.3456-.0349-.6891-.0753-1.0345-.1107-2.7252-.2794-5.4468-.5682-8.1611-.8753-.7495-.0848-1.4948-.1798-2.2434-.2667-2.374-.2755-4.7467-.5543-7.1114-.851-1.1445-.1435-2.2832-.2997-3.4254-.4482-1.9597-.2549-3.9199-.5085-5.8725-.7781-1.2705-.1753-2.5349-.3624-3.8023-.5439-1.8166-.2601-3.6336-.5196-5.4434-.7924-1.3261-.1999-2.6464-.4102-3.9686-.6169-1.7416-.2724-3.4829-.545-5.2177-.829-1.2445-.2038-2.4838-.4162-3.7246-.6261-1.9984-.338-3.9935-.6815-5.9822-1.0354-1.2619-.2244-2.521-.453-3.7788-.6838-1.9623-.3601-3.9187-.7292-5.8708-1.1048-1.2283-.2364-2.4569-.4723-3.681-.7147-2.0451-.4051-4.0809-.8232-6.1137-1.2454-1.1006-.2285-2.2049-.4521-3.3018-.6856-2.5146-.5354-5.0164-1.0881-7.511-1.6499-.611-.1376-1.2276-.2678-1.8373-.4069-.3085-.0705-.6144-.1441-.9225-.2148-2.2335-.5133-4.4573-1.0386-6.6735-1.5729-.7093-.1711-1.4173-.3436-2.1248-.5168-2.1264-.5205-4.2451-1.0502-6.3548-1.5905-.3983-.1021-.7994-.2009-1.1971-.3036-2.4566-.6344-4.8994-1.2844-7.332-1.9454-.634-.1724-1.2649-.3482-1.8974-.5223-1.9274-.5307-3.847-1.0698-5.7587-1.6174-.6221-.1781-1.2457-.3545-1.866-.5345-2.4017-.6967-4.7926-1.4047-7.1681-2.1282-.3932-.1196-.7826-.2433-1.1752-.3637-1.9068-.5855-3.8027-1.1816-5.692-1.7844-1.1185-.3567-2.2314-.7188-3.3436-1.0816-1.4329-.4676-2.8618-.939-4.284-1.4167-1.1109-.373-2.2181-.7494-3.3224-1.1285-1.4124-.485-2.8185-.9758-4.2199-1.4708-1.0908-.3854-2.1801-.7722-3.2641-1.1637-1.4046-.5071-2.8004-1.022-4.1932-1.5393-1.0611-.3941-2.1229-.7877-3.1769-1.1878-1.4108-.5353-2.8101-1.0804-4.2083-1.6264-1.0155-.3966-2.0342-.7905-3.043-1.1927-1.4487-.5776-2.8831-1.1669-4.3177-1.7562-.9385-.3854-1.883-.7661-2.8154-1.1565-1.5713-.6579-3.125-1.3298-4.6785-2.0018-.7761-.3358-1.5607-.6647-2.3323-1.0039-2.3145-1.0176-4.6109-2.0492-6.8839-3.0983-76.0593-35.1072-114.0462-81.1903-113.883-127.2031l-.2898,81.7008c-.1631,46.0128,37.8238,92.096,113.8832,127.2031,2.2729,1.0493,4.5693,2.0808,6.8838,3.0984,.7716,.3391,1.5562,.6681,2.3323,1.0038,1.5535,.6721,3.1072,1.3439,4.6785,2.0019,.9324,.3904,1.8769,.7711,2.8154,1.1565,1.4346,.5892,2.869,1.1784,4.3177,1.7561,1.0088,.4023,2.0275,.7961,3.043,1.1927,1.3982,.5462,2.7975,1.0911,4.2083,1.6264,1.0542,.4002,2.1158,.7937,3.1769,1.1879,1.3928,.5174,2.7886,1.0322,4.1932,1.5393,1.0841,.3915,2.1732,.7782,3.2641,1.1636,1.4014,.495,2.8074,.9857,4.2199,1.4708,1.1047,.3794,2.2122,.7558,3.3235,1.1289,1.4203,.477,2.8469,.9478,4.2779,1.4147,1.1153,.3639,2.2312,.7268,3.3528,1.0847,.524,.167,1.0411,.3408,1.5664,.5067,1.3656,.431,2.741,.8524,4.1157,1.2744,.3949,.1213,.7867,.2456,1.1823,.366,2.3751,.7234,4.7654,1.4311,7.1666,2.1277,.6204,.18,1.244,.3564,1.8661,.5345,1.9131,.548,3.8341,1.0876,5.7629,1.6186,.6299,.1734,1.258,.3485,1.8896,.5202,2.4344,.6614,4.8787,1.312,7.3369,1.9467,.3957,.1022,.7947,.2006,1.1909,.302,2.1135,.5413,4.2359,1.072,6.3662,1.5936,.7027,.172,1.406,.3431,2.1105,.5131,2.2247,.5364,4.4571,1.0638,6.6991,1.5789,.3008,.0691,.5994,.141,.9005,.2096,.0867,.0199,.1726,.0407,.2593,.0604,.5298,.1208,1.0672,.2315,1.5979,.351,2.4908,.5609,4.9884,1.1126,7.4991,1.6473,1.0913,.2323,2.1895,.4546,3.2844,.6821,2.0395,.4235,4.0818,.8428,6.1335,1.2493,1.2189,.2414,2.4419,.4762,3.6649,.7116,1.958,.3767,3.9201,.7468,5.8884,1.1081,1.2532,.23,2.5075,.4576,3.7647,.6813,1.9941,.3548,3.9943,.6992,5.9982,1.0381,.8049,.1361,1.6029,.2834,2.4093,.417,.4319,.0716,.8682,.1358,1.3005,.2066,1.7392,.2849,3.4849,.5581,5.2309,.8311,1.3197,.2063,2.6371,.4162,3.9606,.6157,1.8079,.2726,3.6228,.5315,5.4375,.7915,1.2697,.1818,2.5364,.3693,3.8093,.545,1.9463,.2686,3.9001,.5214,5.8534,.7756,1.1496,.1495,2.2955,.3065,3.4473,.451,2.3738,.2979,4.7555,.5777,7.1387,.8543,.6906,.0801,1.3774,.1691,2.0687,.2475,.0464,.0052,.093,.0097,.1394,.0149,2.7927,.3159,5.5928,.6139,8.3969,.9006,.2667,.0274,.5319,.0585,.7987,.0855,3.075,.3112,6.1566,.6044,9.2438,.8807,.9437,.0843,1.8911,.1566,2.8358,.2378,2.1425,.1839,4.2845,.3693,6.432,.5364,1.2067,.094,2.417,.1742,3.6251,.2627,1.8919,.1387,3.7826,.2814,5.6777,.407,.1192,.0079,.2378,.0177,.3569,.0256,1.1798,.0777,2.3629,.1402,3.5438,.2128,1.8099,.1114,3.6189,.2267,5.4314,.3263,1.3698,.0751,2.7421,.1368,4.1131,.2052,1.7477,.0872,3.4945,.1782,5.2441,.2543,1.403,.061,2.8077,.1092,4.2118,.1633,1.7222,.0661,3.4437,.1357,5.1671,.1912,1.4253,.0459,2.8516,.0796,4.2776,.1182,1.7016,.0461,3.4028,.0949,5.1052,.1307,.3017,.0063,.6029,.0171,.9046,.0231,1.0542,.021,2.1092,.0273,3.1636,.0442,1.8444,.0298,3.6886,.0599,5.5335,.0774,1.3981,.0134,2.7961,.0169,4.1944,.0231,1.7979,.0081,3.5956,.0154,5.3935,.0119,1.4226-.0028,2.8448-.0136,4.2672-.0236,1.7758-.0125,3.5513-.0273,5.3265-.0511,1.4369-.0192,2.8732-.0448,4.3096-.0714,1.7601-.0327,3.5196-.0694,5.2787-.1131,.6814-.0169,1.3637-.0251,2.045-.0437,.6947-.0191,1.3878-.0497,2.0824-.0704,2.089-.0622,4.1766-.1335,6.2635-.2115,1.2954-.0485,2.5904-.0962,3.8848-.1507,2.2014-.0925,4.4003-.1984,6.5985-.3084,1.157-.0579,2.3148-.1106,3.4708-.1734,2.7758-.1507,5.5475-.3187,8.3167-.4973,.565-.0364,1.1315-.0662,1.6963-.1038,3.3263-.2215,6.6467-.4651,9.9617-.7269,.1693-.0134,.3394-.0236,.5086-.0372,2.4497-.195,4.8948-.4045,7.3374-.6215,.637-.0567,1.2727-.1164,1.9091-.1745,2.2269-.2032,4.4505-.4156,6.6706-.6372,.5891-.0587,1.1788-.1154,1.7674-.1755,2.6534-.2709,5.3017-.5547,7.9445-.8517,.5716-.0644,1.1417-.132,1.7128-.1976,2.2131-.2537,4.422-.5168,6.6269-.789,.6372-.0787,1.2749-.1558,1.9114-.236,2.6274-.331,5.2493-.6738,7.8638-1.031,.4904-.0671,.9789-.1376,1.4688-.2057,1.3324-.1847,2.6658-.3675,3.9947-.5592,.6093-.0877,1.2133-.1853,1.8219-.2746,1.6696-.245,3.3347-.4977,4.9983-.7535,1.385-.2128,2.7696-.4261,4.1504-.6465,1.671-.2668,3.3362-.5429,5.0008-.8207,1.3598-.2268,2.72-.4525,4.0753-.6866,1.6803-.2903,3.3534-.5916,5.0265-.8932,1.33-.2397,2.6617-.4765,3.987-.7235,1.6961-.3158,3.3834-.6445,5.0715-.9719,1.289-.2502,2.5809-.4957,3.865-.7527,1.744-.3488,3.4774-.712,5.2123-1.0734,1.2134-.2527,2.4312-.4992,3.64-.7581,1.8557-.3974,3.6986-.811,5.5431-1.2228,1.0766-.2404,2.1591-.4729,3.2317-.7181,2.2456-.5135,4.4764-1.0452,6.7044-1.5802,.6579-.1581,1.3223-.3082,1.9786-.468,2.8799-.7015,5.7442-1.4213,8.5928-2.159,.0446-.0116,.09-.0222,.1346-.0339,2.3909-.6197,4.7663-1.2569,7.1342-1.9021,.6323-.1722,1.2624-.3466,1.8931-.5207,2.0801-.5743,4.1515-1.1577,6.2128-1.7519,.3903-.1124,.7834-.2221,1.1731-.3353,2.3769-.6907,4.7387-1.3967,7.0895-2.1137,.5877-.1792,1.1723-.3613,1.7583-.5423,1.9536-.603,3.898-1.2151,5.8326-1.8364,.495-.1591,.9925-.3156,1.4861-.4757,2.3104-.7496,4.6062-1.5126,6.8882-2.2885,.5176-.176,1.0312-.3554,1.5473-.5327,1.8892-.6491,3.7683-1.3073,5.6373-1.9745,.5465-.195,1.0947-.3885,1.6395-.5852,2.2459-.8107,4.4783-1.6331,6.6937-2.4703,.4157-.1569,.8268-.3177,1.2413-.4756,1.8775-.7155,3.743-1.4409,5.5976-2.1754,.5637-.2232,1.128-.4457,1.6895-.6707,2.1856-.8756,4.3587-1.7612,6.5112-2.6635,.2567-.1076,.5098-.2182,.7661-.3262,1.928-.8125,3.8401-1.6373,5.7406-2.4712,.5622-.2467,1.1238-.4939,1.6836-.7424,2.1237-.9431,4.2363-1.8945,6.3242-2.8646,1.5858-.7368,3.1549-1.4785,4.7071-2.2249,.5669-.2726,1.1242-.5477,1.6865-.8215,.2875-.14,.5758-.2797,.8622-.4199,1.9702-.9656,3.9114-1.9392,5.826-2.92,.2879-.1475,.5759-.2948,.8624-.4424,1.9015-.9805,3.7746-1.9687,5.6208-2.9638,.2796-.1507,.5588-.3016,.8371-.4526,1.8378-.9972,3.6479-2.0017,5.4304-3.0131,.2688-.1525,.5367-.3054,.8043-.4583,1.7767-1.0149,3.5265-2.0367,5.2477-3.0654,.2552-.1525,.5086-.3053,.7626-.4582,1.7179-1.0336,3.4094-2.0735,5.0715-3.1204,.239-.1505,.4758-.3017,.7137-.4525,1.6637-1.0547,3.3013-2.1155,4.9085-3.1833,.2157-.1432,.4287-.2869,.6433-.4305,1.6145-1.0793,3.2032-2.1646,4.7603-3.2565,.1901-.1335,.3772-.2675,.5666-.4009,1.438-1.0145,2.8581-2.0329,4.2467-3.0577,.1118-.0826,.2191-.166,.3305-.2485,.2561-.1898,.5048-.3809,.7591-.5709,1.2711-.9497,2.5197-1.9039,3.7486-2.8621,.3404-.2656,.683-.5305,1.0202-.7966,1.4019-1.1063,2.7801-2.2172,4.126-3.3343,.2242-.1861,.4414-.3736,.6641-.5601,1.1657-.9759,2.3085-1.956,3.4316-2.9397,.3135-.2746,.6287-.5487,.9388-.8238,1.2743-1.1304,2.5253-2.265,3.7436-3.4054,.1944-.182,.3816-.3651,.5746-.5473,1.0606-1.0015,2.0977-2.0068,3.1152-3.0154,.2841-.2816,.5699-.563,.8507-.8452,.2053-.2064,.4185-.4114,.622-.6181,.901-.9148,1.7785-1.8334,2.6443-2.7537,.1852-.1969,.3666-.3941,.5501-.5912,1.1067-1.1883,2.1919-2.3799,3.2401-3.5769,.0594-.0678,.1161-.136,.1753-.2038,1.0276-1.1776,2.0229-2.3598,2.9939-3.5454,.1298-.1585,.2631-.3164,.3919-.4751,.956-1.1774,1.8797-2.3592,2.78-3.5439,.1679-.2209,.3356-.4419,.5017-.6631,.7671-1.0224,1.5213-2.0464,2.247-3.0739,.1125-.1593,.2193-.3193,.3308-.4787,.1211-.173,.2392-.3465,.3592-.5198,.8394-1.2126,1.654-2.4281,2.436-3.6473,.0893-.1392,.175-.2788,.2636-.4181,.7997-1.258,1.5739-2.5188,2.3125-3.7833,.0459-.0785,.0891-.1574,.1347-.236,.7577-1.3042,1.4856-2.6113,2.1782-3.9217,.0131-.0247,.0271-.0492,.04-.0738,.6883-1.3045,1.3391-2.6122,1.963-3.9222,.0521-.1094,.1069-.2183,.1585-.3277,.0323-.0684,.067-.1366,.0991-.2051,.565-1.2039,1.0965-2.4104,1.6071-3.6184,.0562-.1329,.1149-.2657,.1704-.3986,.5248-1.2567,1.0167-2.5157,1.4828-3.7765,.0567-.1533,.1155-.3064,.1712-.4598,.4532-1.2452,.8748-2.4926,1.2707-3.7413,.0536-.169,.1088-.3381,.1614-.5073,.3846-1.2377,.7389-2.4771,1.0673-3.7176,.0476-.1798,.096-.3596,.1425-.5394,.0519-.2014,.1089-.4026,.1594-.6041,.2586-1.0315,.4905-2.0643,.7103-3.0974,.0406-.1907,.0809-.3813,.1201-.572,.2532-1.2308,.4789-2.4626,.677-3.6952,.0308-.1918,.0605-.3833,.0899-.5751,.19-1.2356,.3537-2.4719,.4884-3.709,.0201-.1844,.0381-.369,.0569-.5536,.1275-1.2473,.2294-2.4949,.3007-3.743,.0097-.169,.0164-.338,.025-.5071,.0212-.4144,.0465-.8285,.0615-1.2429,.0326-.903,.0504-1.806,.0537-2.7092l.2897-81.7008c-.0047,1.317-.0479,2.634-.1151,3.9505Z" style="fill:url(#linear-gradient-6);"/></g></g></g></svg>