<svg xmlns="http://www.w3.org/2000/svg" width="525" height="375" fill="none"><g clip-path="url(#a)"><circle cx="50.961" cy="50.961" r="50.461" stroke="#252324" transform="matrix(-1 0 0 1 203.922 272.804)"/><path stroke="#252324" d="M495.366 5.835 398.35 33.638l27.803 97.016 97.016-27.803z"/><mask id="b" fill="#fff"><path fill-rule="evenodd" d="M466.91 264.655c18.965-10.149 26.112-33.75 15.963-52.715-10.148-18.965-33.75-26.113-52.715-15.964-18.873 10.099-26.042 33.52-16.112 52.437-10.23-18.756-33.692-25.784-52.564-15.685-18.965 10.149-26.113 33.75-15.964 52.716 10.111 18.895 33.577 26.059 52.506 16.075-18.81 10.209-25.869 33.708-15.757 52.604 10.149 18.965 33.75 26.112 52.715 15.963 18.966-10.148 26.113-33.75 15.964-52.715h.001c10.149 18.965 33.75 26.112 52.715 15.963 18.965-10.148 26.113-33.75 15.964-52.715-10.149-18.965-33.75-26.112-52.715-15.964h-.001z" clip-rule="evenodd"/></mask><path fill="#252324" d="m466.91 264.655-.881.472-.472-.882.881-.472.472.882zm-52.864-16.242.886-.465-1.763.944.877-.479zm-16.022 53.106-.467-.885.944 1.764-.477-.879zm52.922 15.852-.881.472-.472-.882.882-.471.471.881zm.001 0-.472-.882.882-.472.472.882-.882.472zm15.964-52.716.471.882-.881.472-.472-.882.882-.472zm-.473-.882c18.478-9.888 25.442-32.883 15.554-51.361l1.763-.944c10.409 19.452 3.079 43.659-16.373 54.068l-.944-1.763zm15.554-51.361c-9.889-18.479-32.884-25.442-51.362-15.554l-.944-1.764c19.452-10.409 43.66-3.078 54.069 16.374l-1.763.944zm-51.362-15.554c-18.388 9.839-25.374 32.659-15.698 51.09l-1.771.93c-10.186-19.403-2.832-43.425 16.525-53.784l.944 1.764zm-17.461 52.034c-9.968-18.275-32.828-25.122-51.215-15.282l-.944-1.763c19.356-10.359 43.421-3.151 53.914 16.087l-1.755.958zm-51.215-15.282c-18.479 9.888-25.442 32.884-15.554 51.362l-1.764.943c-10.409-19.452-3.078-43.659 16.374-54.068l.944 1.763zM346.4 284.972c9.852 18.41 32.714 25.39 51.157 15.662l.933 1.769c-19.415 10.241-43.483 2.893-53.854-16.488l1.764-.943zm52.101 17.426c-18.327 9.947-25.204 32.842-15.352 51.253l-1.764.943c-10.371-19.381-3.131-43.483 16.162-53.954l.954 1.758zm-15.352 51.253c9.888 18.478 32.883 25.442 51.362 15.554l.943 1.763c-19.452 10.409-43.659 3.079-54.069-16.374l1.764-.943zm51.362 15.554c18.478-9.888 25.442-32.884 15.554-51.362l1.763-.944c10.409 19.453 3.078 43.66-16.374 54.069l-.943-1.763zm15.964-52.715v-.001l.944 1.764h-.001l-.943-1.763zm1.354.409c9.888 18.478 32.883 25.442 51.361 15.554l.944 1.763c-19.452 10.409-43.659 3.079-54.069-16.373l1.764-.944zm51.361 15.554c18.479-9.888 25.442-32.884 15.554-51.362l1.764-.944c10.409 19.452 3.078 43.66-16.374 54.069l-.944-1.763zm15.554-51.362c-9.888-18.478-32.883-25.442-51.362-15.554l-.943-1.763c19.452-10.41 43.659-3.079 54.069 16.373l-1.764.944zm-52.715-15.964 1.763-.944-1.763.944z" mask="url(#b)"/><mask id="c" fill="#fff"><path fill-rule="evenodd" d="M405.842 107.048c-6.76-8.044-18.762-9.085-26.806-2.325l-48.897 41.091c-8.044 6.76-9.085 18.761-2.325 26.806 4.305 5.122 10.735 7.405 16.915 6.641-1.816 5.957-.675 12.685 3.63 17.807 4.305 5.123 10.735 7.405 16.915 6.642-1.816 5.957-.675 12.684 3.63 17.807 6.76 8.044 18.762 9.085 26.806 2.325l48.897-41.091c8.044-6.76 9.085-18.762 2.325-26.806-4.305-5.122-10.735-7.405-16.915-6.642 1.816-5.956.675-12.684-3.63-17.807-4.305-5.122-10.735-7.405-16.915-6.642 1.816-5.956.675-12.684-3.63-17.806z" clip-rule="evenodd"/></mask><path fill="#252324" d="m379.036 104.723-.643-.766.643.766zm-48.897 41.091.643.766-.643-.766zm14.59 33.447-.123-.992 1.529-.189-.449 1.473-.957-.292zm20.545 24.449-.122-.992 1.528-.189-.449 1.473-.957-.292zm64.743-54.407.123.993-1.529.188.449-1.472.957.291zm-20.545-24.449.122.993-1.528.189.449-1.473.957.291zm-31.079-20.897c8.467-7.115 21.099-6.02 28.214 2.447l-1.531 1.287c-6.405-7.621-17.775-8.608-25.396-2.203l-1.287-1.531zm-48.897 41.091 48.897-41.091 1.287 1.531-48.898 41.092-1.286-1.532zm-2.448 28.215c-7.115-8.467-6.019-21.099 2.448-28.215l1.286 1.532c-7.621 6.404-8.607 17.775-2.203 25.396l-1.531 1.287zm17.804 6.991c-6.502.803-13.272-1.599-17.804-6.991l1.531-1.287c4.078 4.853 10.169 7.017 16.027 6.293l.246 1.985zm2.742 17.458c-4.532-5.393-5.732-12.475-3.821-18.742l1.913.583c-1.722 5.647-.639 12.019 3.439 16.872l-1.531 1.287zm17.803 6.991c-6.502.803-13.272-1.599-17.803-6.991l1.531-1.287c4.077 4.852 10.168 7.016 16.027 6.293l.245 1.985zm.834-.701c-1.722 5.646-.639 12.019 3.439 16.872l-1.531 1.286c-4.532-5.392-5.732-12.475-3.821-18.741l1.913.583zm3.439 16.872c6.405 7.621 17.775 8.607 25.396 2.203l1.287 1.531c-8.467 7.115-21.099 6.019-28.214-2.448l1.531-1.286zm25.396 2.203 48.898-41.092 1.286 1.531-48.897 41.092-1.287-1.531zm48.898-41.092c7.621-6.405 8.607-17.775 2.203-25.396l1.531-1.287c7.115 8.467 6.019 21.099-2.448 28.214l-1.286-1.531zm2.203-25.396c-4.078-4.853-10.169-7.017-16.027-6.293l-.246-1.985c6.502-.803 13.272 1.598 17.804 6.991l-1.531 1.287zm-19.014-25.736c4.531 5.393 5.731 12.475 3.821 18.742l-1.914-.583c1.722-5.647.639-12.02-3.439-16.872l1.532-1.287zm-17.804-6.991c6.502-.803 13.272 1.599 17.804 6.991l-1.532 1.287c-4.077-4.853-10.168-7.017-16.027-6.293l-.245-1.985zm-2.742-17.458c4.532 5.393 5.732 12.475 3.821 18.742l-1.913-.583c1.722-5.647.639-12.019-3.439-16.872l1.531-1.287z" mask="url(#c)"/><mask id="d" fill="#fff"><path fill-rule="evenodd" d="M344.857 288.346c0-10.928-8.858-19.787-19.786-19.787-6.959 0-13.079 3.593-16.606 9.025-3.528-5.432-9.648-9.025-16.607-9.025s-13.08 3.594-16.607 9.026c-3.527-5.432-9.648-9.026-16.607-9.026-10.928 0-19.787 8.859-19.787 19.787 0 6.959 3.593 13.079 9.025 16.606-5.432 3.527-9.025 9.647-9.025 16.607 0 6.959 3.593 13.079 9.025 16.606-5.432 3.527-9.025 9.647-9.025 16.607 0 10.927 8.859 19.786 19.787 19.786 6.959 0 13.08-3.593 16.607-9.026 3.527 5.433 9.648 9.026 16.607 9.026s13.079-3.593 16.607-9.025c3.527 5.432 9.647 9.025 16.606 9.025 10.928 0 19.786-8.859 19.786-19.786 0-6.96-3.592-13.08-9.024-16.607 5.432-3.527 9.024-9.647 9.024-16.606 0-6.96-3.592-13.08-9.024-16.607 5.432-3.527 9.024-9.647 9.024-16.606z" clip-rule="evenodd"/></mask><path fill="#252324" d="m308.465 277.584.838.544-.838 1.292-.839-1.292.839-.544zm-33.214.001.839.545-.839 1.292-.839-1.292.839-.545zm-27.369 27.367.544-.839 1.292.839-1.292.839-.544-.839zm0 33.213.545-.839 1.291.839-1.291.839-.545-.839zm27.369 27.367-.839-.545.839-1.291.839 1.291-.839.545zm33.214.001-.839-.544.839-1.292.838 1.292-.838.544zm27.368-27.368-.545.839-1.291-.839 1.291-.839.545.839zm0-33.213-.545.839-1.291-.839 1.291-.839.545.839zm-10.762-37.393c11.48 0 20.786 9.307 20.786 20.787h-2c0-10.376-8.41-18.787-18.786-18.787v-2zm-17.445 9.48c3.704-5.704 10.133-9.48 17.445-9.48v2c-6.606 0-12.417 3.41-15.768 8.569l-1.677-1.089zm-15.768-9.48c7.312 0 13.741 3.776 17.445 9.48l-1.677 1.089c-3.351-5.159-9.161-8.569-15.768-8.569v-2zm-17.446 9.482c3.704-5.705 10.134-9.482 17.446-9.482v2c-6.607 0-12.418 3.41-15.768 8.571l-1.678-1.089zm-15.768-9.482c7.312 0 13.742 3.777 17.446 9.482l-1.678 1.089c-3.35-5.161-9.161-8.571-15.768-8.571v-2zm-20.787 20.787c0-11.48 9.307-20.787 20.787-20.787v2c-10.376 0-18.787 8.411-18.787 18.787h-2zm9.48 17.445c-5.704-3.704-9.48-10.133-9.48-17.445h2c0 6.606 3.41 12.417 8.569 15.767l-1.089 1.678zm-9.48 15.768c0-7.312 3.776-13.742 9.48-17.446l1.089 1.678c-5.159 3.351-8.569 9.161-8.569 15.768h-2zm9.48 17.445c-5.703-3.704-9.48-10.134-9.48-17.445h2c0 6.606 3.41 12.417 8.57 15.767l-1.09 1.678zm-9.48 15.768c0-7.312 3.777-13.742 9.48-17.446l1.09 1.678c-5.16 3.35-8.57 9.161-8.57 15.768h-2zm20.787 20.786c-11.48 0-20.787-9.307-20.787-20.786h2c0 10.375 8.411 18.786 18.787 18.786v2zm17.446-9.481c-3.704 5.704-10.134 9.481-17.446 9.481v-2c6.607 0 12.418-3.41 15.768-8.571l1.678 1.09zm0-1.09c3.35 5.161 9.161 8.571 15.768 8.571v2c-7.312 0-13.742-3.777-17.446-9.481l1.678-1.09zm15.768 8.571c6.607 0 12.417-3.409 15.768-8.569l1.677 1.089c-3.704 5.704-10.133 9.48-17.445 9.48v-2zm33.213 2c-7.312 0-13.741-3.776-17.445-9.48l1.677-1.089c3.351 5.16 9.162 8.569 15.768 8.569v2zm20.786-20.786c0 11.479-9.306 20.786-20.786 20.786v-2c10.376 0 18.786-8.411 18.786-18.786h2zm-9.479-17.446c5.703 3.704 9.479 10.134 9.479 17.446h-2c0-6.607-3.409-12.418-8.569-15.768l1.09-1.678zm9.479-15.767c0 7.311-3.776 13.741-9.479 17.445l-1.09-1.678c5.16-3.35 8.569-9.161 8.569-15.767h2zm-9.479-17.446c5.703 3.704 9.479 10.134 9.479 17.446h-2c0-6.607-3.409-12.417-8.569-15.768l1.09-1.678zm9.479-15.767c0 7.312-3.776 13.741-9.479 17.445l-1.09-1.678c5.16-3.35 8.569-9.161 8.569-15.767h2z" mask="url(#d)"/></g><defs><clipPath id="a"><path fill="#fff" d="M0 0h525v375H0z"/></clipPath></defs></svg>