<svg xmlns="http://www.w3.org/2000/svg" xmlns:xlink="http://www.w3.org/1999/xlink" width="1080" zoomAndPan="magnify" viewBox="0 0 810 809.999993" height="1080" preserveAspectRatio="xMidYMid meet" version="1.0"><defs><clipPath id="11f85a2a8a"><path d="M 334 264.03125 L 477 264.03125 L 477 321 L 334 321 Z M 334 264.03125 " clip-rule="nonzero"/></clipPath></defs><g clip-path="url(#11f85a2a8a)"><path fill="#fdb3fd" d="M 467.644531 315.859375 C 460.601562 315.515625 454.351562 306.144531 447.421875 301.632812 C 446.175781 300.808594 444.894531 300.070312 443.589844 299.386719 C 445.09375 308.105469 441.601562 314.582031 435.097656 314.269531 C 428.054688 313.925781 421.808594 304.554688 414.878906 300.039062 C 414.851562 300.011719 414.824219 300.011719 414.792969 299.984375 C 410.761719 297.371094 406.53125 295.953125 402.582031 295.753906 L 396.761719 295.46875 C 394.207031 295.355469 391.765625 295.753906 389.664062 296.71875 C 387.25 297.824219 385.003906 299.300781 383.046875 301.007812 C 376.03125 307.054688 374.300781 320.855469 363.535156 320.34375 C 352.601562 319.804688 340.25 306.882812 335.960938 291.492188 C 331.675781 276.074219 337.070312 264.03125 348.03125 264.570312 C 358.765625 265.082031 368.363281 279.453125 378.898438 286.351562 C 381.910156 288.3125 385.003906 290.042969 388.128906 291.40625 C 390.855469 292.628906 393.554688 293.28125 396.136719 293.394531 L 401.957031 293.679688 C 405.90625 293.851562 409.457031 292.828125 412.125 290.527344 C 412.152344 290.5 412.152344 290.5 412.183594 290.46875 C 416.78125 286.523438 417.917969 277.492188 424.933594 277.832031 C 431.4375 278.144531 438.675781 285.132812 442.054688 293.964844 C 442.992188 293.394531 443.902344 292.742188 444.726562 292.03125 C 449.328125 288.085938 450.460938 279.054688 457.476562 279.394531 C 464.632812 279.734375 472.699219 288.171875 475.507812 298.222656 C 478.320312 308.304688 474.800781 316.171875 467.644531 315.859375 Z M 467.644531 315.859375 " fill-opacity="1" fill-rule="nonzero"/></g></svg>