<svg xmlns="http://www.w3.org/2000/svg" xmlns:xlink="http://www.w3.org/1999/xlink" width="1920" zoomAndPan="magnify" viewBox="0 0 1440 809.999993" height="1080" preserveAspectRatio="xMidYMid meet" version="1.0"><path fill="#405eb4" d="M 720 384.75 C 708.816406 384.75 699.75 393.816406 699.75 405 C 699.75 416.183594 708.816406 425.25 720 425.25 C 731.183594 425.25 740.25 416.183594 740.25 405 C 740.25 393.816406 731.183594 384.75 720 384.75 Z M 720 404.957031 C 720.007812 404.957031 720.011719 404.957031 720.015625 404.957031 C 720.023438 404.964844 720.035156 404.976562 720.042969 404.984375 C 720.042969 404.988281 720.042969 404.992188 720.042969 405 C 720.042969 405.007812 720.042969 405.011719 720.042969 405.015625 C 720.035156 405.023438 720.023438 405.035156 720.015625 405.042969 C 720.011719 405.042969 720.007812 405.042969 720 405.042969 C 719.992188 405.042969 719.988281 405.042969 719.984375 405.042969 C 719.976562 405.035156 719.964844 405.023438 719.957031 405.015625 C 719.957031 405.011719 719.957031 405.007812 719.957031 405 C 719.957031 404.992188 719.957031 404.988281 719.957031 404.984375 C 719.964844 404.976562 719.976562 404.964844 719.984375 404.957031 C 719.988281 404.957031 719.992188 404.957031 720 404.957031 " fill-opacity="1" fill-rule="nonzero"/><path fill="#5e70c0" d="M 720 364.5 C 697.632812 364.5 679.5 382.632812 679.5 405 C 679.5 427.367188 697.632812 445.5 720 445.5 C 742.367188 445.5 760.5 427.367188 760.5 405 C 760.5 382.632812 742.367188 364.5 720 364.5 Z M 720 384.707031 C 731.1875 384.707031 740.292969 393.8125 740.292969 405 C 740.292969 416.1875 731.1875 425.292969 720 425.292969 C 708.8125 425.292969 699.707031 416.1875 699.707031 405 C 699.707031 393.8125 708.8125 384.707031 720 384.707031 " fill-opacity="1" fill-rule="nonzero"/><path fill="#7884ca" d="M 720 344.25 C 686.449219 344.25 659.25 371.449219 659.25 405 C 659.25 438.550781 686.449219 465.75 720 465.75 C 753.550781 465.75 780.75 438.550781 780.75 405 C 780.75 371.449219 753.550781 344.25 720 344.25 Z M 720 364.457031 C 730.828125 364.457031 741.007812 368.675781 748.667969 376.332031 C 756.324219 383.992188 760.542969 394.171875 760.542969 405 C 760.542969 415.828125 756.324219 426.007812 748.667969 433.667969 C 741.007812 441.324219 730.828125 445.542969 720 445.542969 C 709.171875 445.542969 698.992188 441.324219 691.332031 433.667969 C 683.675781 426.007812 679.457031 415.828125 679.457031 405 C 679.457031 394.171875 683.675781 383.992188 691.332031 376.332031 C 698.992188 368.675781 709.171875 364.457031 720 364.457031 " fill-opacity="1" fill-rule="nonzero"/><path fill="#979bd5" d="M 720 324 C 675.265625 324 639 360.265625 639 405 C 639 449.734375 675.265625 486 720 486 C 764.734375 486 801 449.734375 801 405 C 801 360.265625 764.734375 324 720 324 Z M 720 344.207031 C 736.238281 344.207031 751.503906 350.53125 762.984375 362.015625 C 774.46875 373.496094 780.792969 388.761719 780.792969 405 C 780.792969 421.238281 774.46875 436.503906 762.984375 447.984375 C 751.503906 459.46875 736.238281 465.792969 720 465.792969 C 703.761719 465.792969 688.496094 459.46875 677.015625 447.984375 C 665.53125 436.503906 659.207031 421.238281 659.207031 405 C 659.207031 388.761719 665.53125 373.496094 677.015625 362.015625 C 688.496094 350.53125 703.761719 344.207031 720 344.207031 " fill-opacity="1" fill-rule="nonzero"/><path fill="#b0aede" d="M 720 303.75 C 664.082031 303.75 618.75 349.082031 618.75 405 C 618.75 460.917969 664.082031 506.25 720 506.25 C 775.917969 506.25 821.25 460.917969 821.25 405 C 821.25 349.082031 775.917969 303.75 720 303.75 Z M 720 323.957031 C 730.949219 323.957031 741.5625 326.097656 751.539062 330.320312 C 761.1875 334.398438 769.855469 340.246094 777.304688 347.695312 C 784.753906 355.144531 790.601562 363.8125 794.679688 373.460938 C 798.902344 383.4375 801.042969 394.050781 801.042969 405 C 801.042969 415.949219 798.902344 426.5625 794.679688 436.539062 C 790.601562 446.1875 784.753906 454.855469 777.304688 462.304688 C 769.855469 469.753906 761.1875 475.601562 751.539062 479.679688 C 741.5625 483.902344 730.949219 486.042969 720 486.042969 C 709.050781 486.042969 698.4375 483.902344 688.460938 479.679688 C 678.8125 475.601562 670.144531 469.753906 662.695312 462.304688 C 655.246094 454.855469 649.398438 446.1875 645.320312 436.539062 C 641.097656 426.5625 638.957031 415.949219 638.957031 405 C 638.957031 394.050781 641.097656 383.4375 645.320312 373.460938 C 649.398438 363.8125 655.246094 355.144531 662.695312 347.695312 C 670.144531 340.246094 678.8125 334.398438 688.460938 330.320312 C 698.4375 326.097656 709.050781 323.957031 720 323.957031 " fill-opacity="1" fill-rule="nonzero"/><path fill="#c0bae3" d="M 720 283.5 C 652.898438 283.5 598.5 337.898438 598.5 405 C 598.5 472.101562 652.898438 526.5 720 526.5 C 787.101562 526.5 841.5 472.101562 841.5 405 C 841.5 337.898438 787.101562 283.5 720 283.5 Z M 720 303.707031 C 733.683594 303.707031 746.945312 306.382812 759.421875 311.660156 C 771.480469 316.761719 782.316406 324.066406 791.625 333.375 C 800.933594 342.683594 808.238281 353.519531 813.339844 365.578125 C 818.617188 378.054688 821.292969 391.316406 821.292969 405 C 821.292969 418.683594 818.617188 431.945312 813.339844 444.421875 C 808.238281 456.480469 800.933594 467.316406 791.625 476.625 C 782.316406 485.933594 771.480469 493.238281 759.421875 498.339844 C 746.945312 503.617188 733.683594 506.292969 720 506.292969 C 706.316406 506.292969 693.054688 503.617188 680.578125 498.339844 C 668.519531 493.238281 657.683594 485.933594 648.375 476.625 C 639.066406 467.316406 631.761719 456.480469 626.660156 444.421875 C 621.382812 431.945312 618.707031 418.683594 618.707031 405 C 618.707031 391.316406 621.382812 378.054688 626.660156 365.578125 C 631.761719 353.519531 639.066406 342.683594 648.375 333.375 C 657.683594 324.066406 668.519531 316.761719 680.578125 311.660156 C 693.054688 306.382812 706.316406 303.707031 720 303.707031 " fill-opacity="1" fill-rule="nonzero"/><path fill="#d4cdeb" d="M 720 263.25 C 641.714844 263.25 578.25 326.714844 578.25 405 C 578.25 483.285156 641.714844 546.75 720 546.75 C 798.285156 546.75 861.75 483.285156 861.75 405 C 861.75 326.714844 798.285156 263.25 720 263.25 Z M 720 283.457031 C 736.417969 283.457031 752.332031 286.667969 767.304688 293 C 781.773438 299.121094 794.773438 307.886719 805.945312 319.054688 C 817.113281 330.226562 825.878906 343.226562 832 357.695312 C 838.332031 372.667969 841.542969 388.582031 841.542969 405 C 841.542969 421.417969 838.332031 437.332031 832 452.304688 C 825.878906 466.773438 817.113281 479.773438 805.945312 490.945312 C 794.773438 502.113281 781.773438 510.878906 767.304688 517 C 752.332031 523.332031 736.417969 526.542969 720 526.542969 C 703.582031 526.542969 687.667969 523.332031 672.695312 517 C 658.226562 510.878906 645.226562 502.113281 634.054688 490.945312 C 622.886719 479.773438 614.121094 466.773438 608 452.304688 C 601.667969 437.332031 598.457031 421.417969 598.457031 405 C 598.457031 388.582031 601.667969 372.667969 608 357.695312 C 614.121094 343.226562 622.886719 330.226562 634.054688 319.054688 C 645.226562 307.886719 658.226562 299.121094 672.695312 293 C 687.667969 286.667969 703.582031 283.457031 720 283.457031 " fill-opacity="1" fill-rule="nonzero"/><path fill="#ebe6f5" d="M 720 243 C 630.53125 243 558 315.53125 558 405 C 558 494.46875 630.53125 567 720 567 C 809.46875 567 882 494.46875 882 405 C 882 315.53125 809.46875 243 720 243 Z M 720 263.207031 C 739.152344 263.207031 757.71875 266.953125 775.183594 274.34375 C 792.066406 281.484375 807.234375 291.710938 820.261719 304.738281 C 833.289062 317.765625 843.515625 332.933594 850.65625 349.816406 C 858.046875 367.28125 861.792969 385.847656 861.792969 405 C 861.792969 424.152344 858.046875 442.71875 850.65625 460.183594 C 843.515625 477.066406 833.289062 492.234375 820.261719 505.261719 C 807.234375 518.289062 792.066406 528.515625 775.183594 535.65625 C 757.71875 543.046875 739.152344 546.792969 720 546.792969 C 700.847656 546.792969 682.28125 543.046875 664.816406 535.65625 C 647.933594 528.515625 632.765625 518.289062 619.738281 505.261719 C 606.710938 492.234375 596.484375 477.066406 589.34375 460.183594 C 581.953125 442.71875 578.207031 424.152344 578.207031 405 C 578.207031 385.847656 581.953125 367.28125 589.34375 349.816406 C 596.484375 332.933594 606.710938 317.765625 619.738281 304.738281 C 632.765625 291.710938 647.933594 281.484375 664.816406 274.34375 C 682.28125 266.953125 700.847656 263.207031 720 263.207031 " fill-opacity="1" fill-rule="nonzero"/></svg>