<svg xmlns="http://www.w3.org/2000/svg" xmlns:xlink="http://www.w3.org/1999/xlink" width="1080" zoomAndPan="magnify" viewBox="0 0 810 809.999993" height="1080" preserveAspectRatio="xMidYMid meet" version="1.0"><path fill="#cefd3b" d="M 629.242188 663.457031 C 630.921875 662.136719 632.625 660.839844 634.285156 659.484375 C 644.621094 651.050781 656.140625 644.773438 668.777344 640.570312 C 675.164062 638.449219 681.648438 636.625 688.066406 634.597656 C 691.480469 633.523438 694.890625 632.410156 698.230469 631.132812 C 702.253906 629.597656 706.164062 627.800781 709.378906 624.804688 C 709.6875 624.515625 710.0625 624.277344 710.4375 624.082031 C 711.128906 623.71875 711.90625 623.695312 712.417969 624.28125 C 712.855469 624.773438 713.355469 625.519531 713.285156 626.089844 C 713.144531 627.199219 712.703125 628.292969 712.253906 629.335938 C 709.898438 634.804688 706.398438 639.503906 702.367188 643.828125 C 698.050781 648.457031 693.207031 652.492188 688.292969 656.460938 C 682.234375 661.351562 676.824219 666.847656 672.605469 673.449219 C 670.269531 677.101562 668.441406 680.984375 667.511719 685.222656 C 667.113281 687.023438 666.882812 688.910156 666.929688 690.75 C 667.007812 694.132812 668.699219 696.015625 672 696.703125 C 676.226562 697.578125 680.046875 696.523438 683.195312 693.703125 C 685.417969 691.710938 687.492188 689.457031 689.230469 687.027344 C 691.730469 683.527344 694.019531 679.882812 696.09375 676.121094 C 698.929688 670.976562 701.472656 665.671875 704.148438 660.441406 C 708.597656 651.746094 713.46875 643.3125 719.734375 635.769531 C 731.710938 621.359375 746.0625 609.878906 762.699219 601.265625 C 769.476562 597.757812 776.71875 595.476562 783.988281 593.269531 C 788.238281 591.980469 792.511719 590.765625 796.71875 589.351562 C 800.003906 588.246094 803.351562 587.675781 806.769531 587.234375 C 810.601562 586.738281 814.394531 585.941406 818.191406 585.257812 C 818.613281 585.183594 819.015625 585.011719 819.410156 584.835938 C 820.097656 584.527344 820.773438 584.027344 820.496094 583.238281 C 820.292969 582.640625 819.738281 581.988281 819.167969 581.738281 C 818.582031 581.480469 817.78125 581.589844 817.097656 581.710938 C 813.710938 582.300781 810.335938 582.929688 806.96875 583.597656 C 805.257812 583.941406 803.976562 583.515625 802.777344 582.171875 C 796.910156 575.574219 795.503906 568.097656 798.121094 559.757812 C 799.519531 555.300781 802.046875 551.488281 804.9375 547.902344 C 812.285156 538.800781 821.1875 531.785156 832.167969 527.539062 C 836.714844 525.785156 841.234375 523.980469 845.730469 522.097656 C 848.765625 520.824219 851.777344 519.472656 854.714844 517.988281 C 859.832031 515.398438 863.011719 511.0625 865.136719 505.871094 C 866.3125 502.996094 866.378906 500.035156 865.8125 496.996094 C 865.199219 493.761719 864.769531 490.496094 864.179688 487.257812 C 863.382812 482.875 864.214844 478.722656 865.765625 474.640625 C 867.691406 469.601562 870.636719 465.234375 874.433594 461.4375 C 881.472656 454.390625 889.296875 448.414062 898.207031 443.890625 C 902.808594 441.554688 907.375 439.15625 911.890625 436.664062 C 919.964844 432.222656 927.355469 426.785156 934.359375 420.835938 C 940.976562 415.214844 946.265625 408.449219 950.652344 400.980469 C 951.519531 399.507812 952.027344 397.824219 952.851562 396.324219 C 953.320312 395.480469 954.015625 394.714844 954.757812 394.097656 C 955.535156 393.453125 956.925781 394.03125 957.195312 395.003906 C 957.339844 395.554688 957.421875 396.125 957.488281 396.691406 C 958.664062 405.863281 958.546875 415.011719 956.375 424.027344 C 953.511719 435.882812 947.402344 445.988281 939.082031 454.78125 C 935.632812 458.421875 931.972656 461.867188 928.394531 465.382812 C 924.699219 469.011719 921.324219 472.910156 918.507812 477.257812 C 917.574219 478.695312 916.640625 480.167969 915.945312 481.726562 C 913.375 487.488281 913.425781 493.046875 917.15625 498.433594 C 920.09375 502.675781 922.859375 507.035156 925.53125 511.445312 C 928.214844 515.875 930.25 520.605469 931.503906 525.660156 C 933.496094 533.664062 933.292969 541.550781 930.492188 549.339844 C 925.449219 563.367188 916.488281 574.207031 903.796875 581.953125 C 902.109375 582.984375 900.195312 583.738281 898.285156 584.292969 C 888.242188 587.207031 878.117188 589.78125 867.75 591.292969 C 866.203125 591.519531 864.667969 591.925781 863.183594 592.414062 C 862.796875 592.542969 862.363281 593.324219 862.414062 593.753906 C 862.46875 594.183594 863.070312 594.851562 863.476562 594.882812 C 865.171875 595.023438 866.925781 595.21875 868.578125 594.925781 C 874.074219 593.949219 879.554688 592.859375 885.003906 591.65625 C 888.777344 590.828125 892.496094 589.777344 896.238281 588.78125 C 897.636719 588.410156 898.824219 588.667969 899.695312 589.816406 C 900.820312 591.289062 902.105469 592.714844 902.878906 594.363281 C 906.382812 601.800781 907.066406 609.449219 904.332031 617.332031 C 902.378906 622.972656 899.484375 628.007812 895.375 632.351562 C 891.421875 636.53125 887.128906 640.335938 882.425781 643.640625 C 872.683594 650.472656 862.871094 657.191406 853.121094 664.015625 C 848.660156 667.136719 844.226562 670.304688 839.898438 673.605469 C 835.898438 676.652344 832.269531 680.128906 828.949219 683.914062 C 826.289062 686.949219 824.058594 690.265625 822.339844 693.929688 C 820.964844 696.859375 820.632812 699.929688 820.683594 703.136719 C 820.738281 706.765625 824.703125 710.535156 829.019531 710.035156 C 830.707031 709.839844 832.410156 709.386719 833.992188 708.75 C 841.355469 705.789062 848.214844 701.929688 854.144531 696.609375 C 856.371094 694.613281 858.28125 692.25 860.292969 690.027344 C 860.96875 689.285156 861.503906 688.417969 862.183594 687.683594 C 863.601562 686.164062 865.453125 686.492188 866.289062 688.457031 C 866.734375 689.515625 867.042969 690.621094 867.210938 691.753906 C 868.476562 700.324219 866.71875 708.28125 862.207031 715.644531 C 859.03125 720.832031 855.054688 725.335938 850.203125 729.007812 C 847.460938 731.082031 844.597656 732.992188 841.765625 734.9375 C 838.214844 737.367188 834.605469 739.699219 831.097656 742.191406 C 828.046875 744.351562 825.453125 747.105469 823.484375 750.289062 C 821.71875 753.128906 820.597656 756.167969 820.371094 759.558594 C 820.078125 764 819.152344 768.339844 817.921875 772.625 C 817.195312 775.15625 816.03125 777.457031 814.285156 779.382812 C 812.273438 781.613281 810.085938 783.683594 807.945312 785.804688 C 806.550781 787.1875 804.835938 787.714844 802.875 787.742188 C 795.273438 787.847656 787.679688 788.09375 780.085938 788.15625 C 765.316406 788.273438 750.542969 788.277344 735.777344 788.367188 C 714.988281 788.492188 694.199219 788.644531 673.40625 788.792969 C 652.90625 788.9375 632.402344 789.089844 611.90625 789.25 C 591.828125 789.402344 571.757812 789.574219 551.683594 789.71875 C 533.046875 789.859375 514.40625 789.96875 495.769531 790.109375 C 473.402344 790.273438 451.039062 790.457031 428.671875 790.628906 C 407.882812 790.78125 387.089844 790.925781 366.300781 791.078125 C 345.941406 791.230469 325.585938 791.394531 305.222656 791.542969 C 284.722656 791.691406 264.21875 791.824219 243.714844 791.972656 C 222.925781 792.121094 202.140625 792.28125 181.347656 792.4375 C 161.277344 792.59375 141.203125 792.757812 121.132812 792.90625 C 102.347656 793.042969 83.570312 793.148438 64.789062 793.28125 C 41.988281 793.449219 19.195312 793.613281 -3.601562 793.804688 C -19.945312 793.945312 -36.289062 794.136719 -52.632812 794.28125 C -54.351562 794.296875 -56.074219 794.210938 -57.785156 794.03125 C -58.632812 793.9375 -59.453125 793.671875 -60.195312 793.246094 C -62.09375 792.144531 -62.261719 789.535156 -60.566406 788.160156 C -60.015625 787.714844 -59.359375 787.402344 -58.738281 787.054688 C -47.757812 780.878906 -38.957031 772.433594 -32.382812 761.691406 C -28.484375 755.324219 -25.320312 748.566406 -22.136719 741.832031 C -20.976562 739.386719 -20.234375 736.738281 -19.367188 734.15625 C -10.820312 708.707031 1.441406 685.136719 16.558594 662.996094 C 24.324219 651.621094 32.398438 640.496094 41.425781 630.070312 C 49.988281 620.179688 59.449219 611.226562 69.21875 602.554688 C 86.230469 587.460938 105.632812 576.234375 126.289062 567.007812 C 128.640625 565.957031 131.042969 565.015625 133.4375 564.058594 C 142.347656 560.492188 151.3125 557.058594 160.160156 553.347656 C 170.339844 549.082031 180.25 544.230469 190.050781 539.15625 C 195.207031 536.484375 199.503906 532.71875 203.757812 528.859375 C 211.683594 521.664062 218.03125 513.203125 223.785156 504.242188 C 229.046875 496.039062 234.351562 487.859375 239.691406 479.707031 C 244.90625 471.753906 251.183594 464.683594 258.054688 458.136719 C 259.917969 456.363281 261.925781 454.714844 264.007812 453.203125 C 270.863281 448.222656 278.082031 443.835938 285.714844 440.136719 C 294.496094 435.882812 303.558594 432.332031 312.78125 429.167969 C 317.523438 427.539062 322.242188 425.84375 327 424.277344 C 333.707031 422.070312 340.027344 419.050781 346.074219 415.445312 C 351.957031 411.9375 356.921875 407.5 360.21875 401.367188 C 361.78125 398.464844 363.519531 395.660156 365.09375 392.765625 C 371.191406 381.535156 379.296875 371.933594 388.90625 363.601562 C 398.488281 355.292969 409.652344 349.882812 421.804688 346.453125 C 426.078125 345.242188 430.421875 344.308594 434.8125 343.644531 C 438.769531 343.050781 442.679688 342.09375 446.558594 341.101562 C 448.519531 340.601562 449.902344 341.238281 451.179688 342.539062 C 451.832031 343.207031 451.65625 344.78125 450.808594 345.1875 C 449.917969 345.617188 448.960938 345.972656 447.996094 346.15625 C 434.855469 348.65625 424.167969 355.601562 414.574219 364.542969 C 410.417969 368.417969 407.40625 373.101562 404.996094 378.191406 C 402.105469 384.296875 399.816406 390.585938 398.578125 397.277344 C 397.503906 403.050781 395.953125 408.730469 393.875 414.238281 C 391.0625 421.695312 386.75 428.257812 381.828125 434.472656 C 376.402344 441.324219 369.792969 446.742188 362.109375 450.832031 C 357.050781 453.523438 351.871094 455.980469 346.746094 458.535156 C 341.746094 461.03125 336.714844 463.464844 331.746094 466.015625 C 328.019531 467.929688 324.761719 470.515625 321.847656 473.519531 C 320.949219 474.441406 320.136719 475.449219 319.3125 476.4375 C 315.765625 480.726562 314.6875 485.570312 316.136719 490.941406 C 317.300781 495.242188 317.691406 499.714844 317.289062 504.152344 C 316.605469 511.871094 313.453125 518.183594 306.722656 522.402344 C 305.144531 523.390625 303.523438 524.308594 301.921875 525.257812 C 299.335938 526.789062 296.691406 528.234375 294.167969 529.871094 C 292.46875 530.972656 290.722656 531.828125 288.789062 532.464844 C 282.746094 534.449219 277.1875 537.398438 272.359375 541.585938 C 270.964844 542.796875 269.765625 544.246094 268.542969 545.644531 C 268.1875 546.050781 267.894531 546.664062 267.890625 547.183594 C 267.886719 547.675781 268.214844 548.253906 268.570312 548.625 C 268.804688 548.871094 269.480469 549.042969 269.734375 548.882812 C 271.175781 547.96875 272.65625 547.070312 273.921875 545.9375 C 276.828125 543.332031 280.050781 541.222656 283.484375 539.40625 C 283.988281 539.140625 284.527344 538.941406 285.066406 538.746094 C 285.664062 538.53125 285.808594 539.011719 285.832031 539.40625 C 286.480469 549.804688 282.257812 558.109375 274.574219 564.742188 C 271.328125 567.542969 267.71875 569.929688 264.199219 572.394531 C 259.503906 575.6875 254.683594 578.796875 250.402344 582.648438 C 246.109375 586.511719 242.433594 590.886719 239.464844 595.84375 C 238.207031 597.945312 237.171875 600.140625 237.15625 602.683594 C 237.144531 604.90625 238.3125 606.582031 240.492188 607.035156 C 241.585938 607.265625 242.773438 607.300781 243.878906 607.148438 C 246.742188 606.753906 249.414062 605.695312 252.027344 604.507812 C 266.636719 597.863281 278.324219 587.8125 287.105469 574.386719 C 288.832031 571.746094 290.53125 569.089844 292.128906 566.371094 C 299.605469 553.625 309.164062 542.667969 320.386719 533.089844 C 326.617188 527.777344 332.988281 522.6875 340.027344 518.480469 C 340.761719 518.039062 341.472656 517.453125 342.269531 517.273438 C 342.859375 517.140625 343.78125 517.359375 344.167969 517.78125 C 344.558594 518.207031 344.621094 519.089844 344.539062 519.738281 C 344.476562 520.246094 344.03125 520.746094 343.652344 521.160156 C 343.074219 521.792969 342.4375 522.375 341.777344 522.929688 C 336.210938 527.597656 332.003906 533.382812 328.140625 539.445312 C 325.265625 543.957031 323.246094 548.855469 321.980469 554.039062 C 320.6875 559.324219 319.566406 564.648438 318.386719 569.964844 C 317.363281 574.59375 315.96875 579.097656 314.007812 583.421875 C 311.851562 588.175781 308.886719 592.359375 305.324219 596.152344 C 301.636719 600.082031 297.257812 602.996094 292.359375 605.1875 C 287.78125 607.230469 283.195312 609.253906 278.648438 611.371094 C 277.097656 612.09375 275.613281 612.988281 274.191406 613.941406 C 273.511719 614.398438 272.941406 615.125 272.542969 615.851562 C 272.320312 616.261719 272.367188 617.058594 272.632812 617.4375 C 272.894531 617.804688 273.679688 618.136719 274.085938 618.007812 C 275.582031 617.546875 277.035156 616.929688 278.464844 616.289062 C 280.949219 615.179688 283.402344 614 285.875 612.863281 C 286.109375 612.757812 286.472656 612.648438 286.644531 612.757812 C 286.8125 612.863281 286.9375 613.273438 286.875 613.488281 C 284.71875 621.0625 282.519531 628.617188 280.359375 636.1875 C 277.824219 645.078125 272.59375 652.066406 265.300781 657.609375 C 261.292969 660.65625 257.054688 663.386719 252.398438 665.277344 C 248.96875 666.671875 245.363281 667.726562 241.753906 668.585938 C 230.722656 671.214844 219.589844 673.148438 208.179688 672.917969 C 206.921875 672.894531 205.648438 673.199219 204.410156 673.472656 C 204.109375 673.539062 203.75 674.074219 203.71875 674.417969 C 203.6875 674.761719 203.953125 675.253906 204.246094 675.46875 C 204.6875 675.796875 205.25 676.074219 205.785156 676.136719 C 208.058594 676.386719 210.3125 676.625 212.628906 676.558594 C 220.96875 676.320312 229.171875 675.0625 237.3125 673.390625 C 238.988281 673.046875 240.101562 673.511719 241.117188 674.640625 C 242.699219 676.394531 243.664062 678.417969 243.808594 680.820312 C 244.003906 684.039062 243.507812 687.089844 242.039062 689.992188 C 240.46875 693.09375 238.539062 695.949219 235.972656 698.277344 C 232.578125 701.359375 229.042969 704.285156 225.558594 707.261719 C 223.265625 709.214844 220.90625 711.085938 218.65625 713.089844 C 215.640625 715.769531 212.972656 718.777344 210.992188 722.308594 C 209.171875 725.550781 208.402344 728.976562 209.789062 732.632812 C 210.746094 735.144531 212.246094 737.234375 214.777344 738.257812 C 216.613281 739 218.578125 739.769531 220.519531 739.871094 C 233.722656 740.566406 245.417969 736.746094 255.175781 727.644531 C 258.476562 724.566406 260.832031 720.757812 262.328125 716.527344 C 263.953125 711.941406 265.285156 707.253906 266.71875 702.601562 C 267.902344 698.769531 268.914062 694.882812 270.242188 691.101562 C 273.566406 681.664062 278.738281 673.292969 285.238281 665.699219 C 297.117188 651.824219 311.859375 641.867188 328.207031 634.074219 C 337.140625 630.953125 344.777344 625.621094 352.085938 619.816406 C 355.328125 617.242188 358.179688 614.179688 361.199219 611.328125 C 361.824219 610.738281 362.363281 610.0625 363.011719 609.503906 C 363.597656 608.996094 364.789062 609.039062 365.449219 609.488281 C 366.105469 609.929688 366.300781 610.597656 366.304688 611.34375 C 366.304688 611.628906 366.296875 611.925781 366.210938 612.195312 C 364.148438 619.046875 362.46875 626.03125 358.847656 632.320312 C 355.257812 638.550781 351.277344 644.480469 346.492188 649.871094 C 344.019531 652.65625 341.664062 655.550781 339.371094 658.484375 C 334.550781 664.65625 332.191406 671.753906 331.445312 679.503906 C 331.089844 683.203125 330.433594 686.878906 329.742188 690.535156 C 328.199219 698.640625 324.378906 705.597656 318.777344 711.605469 C 317.703125 712.757812 316.5625 713.847656 315.476562 714.996094 C 315.304688 715.179688 315.265625 715.496094 315.164062 715.75 C 315.417969 715.804688 315.707031 715.96875 315.917969 715.898438 C 317.277344 715.453125 318.675781 715.074219 319.953125 714.457031 C 326.566406 711.265625 332.707031 707.339844 338.230469 702.46875 C 349.453125 692.582031 357.410156 680.507812 362.523438 666.503906 C 366.601562 655.332031 370.621094 644.140625 374.785156 633.003906 C 378.648438 622.667969 382.648438 612.378906 387.867188 602.625 C 391.796875 595.277344 396.253906 588.269531 401.199219 581.570312 C 408.785156 571.296875 418.082031 562.859375 428.835938 556.023438 C 433.191406 553.253906 437.558594 550.484375 442.097656 548.046875 C 445.371094 546.292969 447.410156 543.75 448.53125 540.371094 C 449.203125 538.339844 449.695312 536.238281 450.125 534.136719 C 453.441406 518.027344 460.742188 503.929688 471.679688 491.722656 C 478.242188 484.402344 485.855469 478.363281 494.769531 474.078125 C 498.773438 472.152344 502.792969 470.261719 506.804688 468.351562 C 509.261719 467.183594 511.730469 466.03125 514.175781 464.839844 C 518.996094 462.488281 523.195312 459.304688 526.9375 455.472656 C 529.769531 452.566406 532.117188 449.351562 533.71875 445.609375 C 534.675781 443.371094 535.710938 441.164062 536.636719 438.910156 C 540.519531 429.460938 546.484375 421.492188 553.878906 414.519531 C 566.753906 402.378906 581.753906 394.046875 598.785156 389.335938 C 603.226562 388.105469 607.753906 387.476562 612.359375 387.320312 C 614.355469 387.253906 616.347656 386.941406 618.351562 386.804688 C 620.347656 386.664062 622.355469 386.640625 624.359375 386.5 C 626.511719 386.355469 627.8125 387.625 628.953125 389.167969 C 629.527344 389.9375 629.296875 391.316406 628.40625 391.828125 C 627.300781 392.460938 626.117188 392.976562 624.925781 393.449219 C 621.726562 394.707031 618.441406 395.761719 615.3125 397.167969 C 603.691406 402.398438 593.414062 409.601562 584.273438 418.476562 C 577.875 424.691406 573.25 431.988281 570.46875 440.464844 C 568.417969 446.726562 566.476562 453.03125 564.226562 459.21875 C 560.972656 468.171875 556.246094 476.367188 550.59375 484 C 544.425781 492.328125 536.445312 498.636719 527.371094 503.464844 C 522.1875 506.226562 519.058594 510.265625 517.464844 515.777344 C 515.824219 521.464844 515.066406 527.261719 514.996094 533.160156 C 514.957031 536.460938 514.984375 539.757812 514.9375 543.054688 C 514.910156 544.917969 514.824219 546.777344 514.726562 548.640625 C 514.550781 551.992188 513.574219 555.085938 511.886719 558 C 507.535156 565.496094 502.277344 572.273438 495.917969 578.152344 C 491.074219 582.632812 485.953125 586.800781 480.441406 590.445312 C 478.054688 592.019531 475.5 593.339844 473.058594 594.835938 C 472.21875 595.347656 471.449219 596 470.757812 596.695312 C 470.546875 596.910156 470.566406 597.546875 470.722656 597.871094 C 470.882812 598.199219 471.332031 598.566406 471.667969 598.585938 C 472.359375 598.617188 473.132812 598.578125 473.746094 598.296875 C 475.945312 597.269531 478.183594 596.273438 480.246094 595.003906 C 486.855469 590.925781 492.828125 586 498.585938 580.808594 C 499.226562 580.230469 499.847656 579.636719 500.453125 579.023438 C 501.21875 578.25 502.148438 578.046875 503.199219 578.101562 C 506.183594 578.257812 508.785156 579.320312 510.960938 581.359375 C 513.414062 583.65625 515.164062 586.410156 516.253906 589.59375 C 518.0625 594.878906 518.207031 600.277344 517.300781 605.722656 C 516.074219 613.140625 513.351562 620.0625 510.183594 626.832031 C 505.355469 637.148438 499.019531 646.519531 492.128906 655.53125 C 489.167969 659.402344 486.070312 663.167969 483.035156 666.984375 C 480.699219 669.917969 477.933594 672.417969 475.023438 674.75 C 469.203125 679.417969 463.1875 683.8125 456.722656 687.5625 C 455.109375 688.5 453.5625 689.539062 452.007812 690.566406 C 451.535156 690.875 451.066406 691.25 450.753906 691.703125 C 450.550781 692 450.46875 692.578125 450.628906 692.871094 C 450.800781 693.179688 451.332031 693.5 451.679688 693.46875 C 452.519531 693.398438 453.402344 693.253906 454.160156 692.90625 C 456.105469 692.003906 458.09375 691.125 459.886719 689.964844 C 464.332031 687.082031 468.894531 684.3125 472.996094 680.980469 C 476.074219 678.472656 479.230469 678.332031 482.652344 679.070312 C 487.34375 680.082031 489.914062 683.664062 489.65625 688.507812 C 489.507812 691.273438 488.5625 693.824219 487.386719 696.296875 C 484.773438 701.777344 481.226562 706.636719 477.292969 711.214844 C 474.394531 714.582031 471.363281 717.835938 468.316406 721.070312 C 465.664062 723.886719 462.851562 726.554688 460.214844 729.390625 C 459.035156 730.660156 457.226562 731.503906 457.066406 733.558594 C 458.882812 733.851562 460.359375 732.847656 461.9375 732.269531 C 466.277344 730.683594 470.273438 728.417969 473.96875 725.6875 C 479.152344 721.851562 484.21875 717.851562 489.339844 713.933594 C 495.15625 709.488281 501.128906 705.277344 507.800781 702.175781 C 509.875 701.210938 511.992188 700.320312 514.148438 699.558594 C 515.621094 699.035156 517.179688 698.613281 518.730469 698.46875 C 521.578125 698.203125 524.09375 698.882812 525.832031 701.492188 C 527.136719 703.453125 527.226562 703.386719 528.605469 701.417969 C 531.519531 697.242188 533.425781 692.632812 534.347656 687.636719 C 535.285156 682.566406 536.082031 677.472656 537.019531 672.402344 C 538.867188 662.449219 542.402344 653.097656 547.304688 644.265625 C 548.972656 641.261719 550.808594 638.34375 552.636719 635.433594 C 560.433594 623.023438 570.890625 613.382812 583.632812 606.261719 C 591.007812 602.136719 598.574219 598.351562 606.078125 594.460938 C 614.726562 589.980469 623.46875 585.664062 632.058594 581.074219 C 641.3125 576.128906 649.953125 570.226562 657.96875 563.441406 C 659.378906 562.238281 660.679688 560.898438 662.015625 559.613281 C 662.113281 559.527344 662.214844 559.332031 662.175781 559.25 C 662.128906 559.144531 661.945312 559.058594 661.808594 559.050781 C 661.535156 559.035156 661.242188 559.03125 660.964844 559.097656 C 657.285156 559.988281 653.5625 559.730469 649.839844 559.574219 C 649.410156 559.554688 648.980469 559.515625 648.558594 559.4375 C 640.671875 558.039062 637.175781 552.261719 637.8125 545.761719 C 638.09375 542.878906 638.925781 540.15625 640.121094 537.523438 C 642.652344 531.925781 646.621094 527.433594 651.003906 523.253906 C 655.6875 518.78125 660.859375 514.925781 666.304688 511.445312 C 672.222656 507.664062 678.25 504.050781 684.125 500.207031 C 688.796875 497.148438 693.433594 494.003906 697.875 490.621094 C 703.136719 486.613281 707.890625 482.035156 711.640625 476.515625 C 713.023438 474.480469 714.117188 472.332031 714.730469 469.9375 C 718.417969 455.582031 725.894531 443.320312 735.699219 432.394531 C 743.015625 424.242188 751.414062 417.332031 760.4375 411.140625 C 769.433594 404.964844 778.972656 399.703125 788.507812 394.429688 C 796.90625 389.785156 805.363281 385.226562 813.578125 380.261719 C 822.820312 374.671875 831.09375 367.8125 838.179688 359.597656 C 841.566406 355.671875 844.527344 351.449219 846.980469 346.890625 C 847.980469 345.027344 849.007812 343.15625 848.394531 340.804688 C 848.042969 339.457031 849.054688 338.375 849.988281 337.460938 C 850.765625 336.699219 852.515625 337.125 852.914062 338.15625 C 853.117188 338.683594 853.265625 339.253906 853.289062 339.816406 C 853.398438 342.394531 853.46875 344.972656 853.527344 347.550781 C 853.640625 352.921875 852.519531 358.078125 850.898438 363.160156 C 847.792969 372.929688 843.171875 381.957031 837.6875 390.578125 C 832.667969 398.464844 826.878906 405.75 820.640625 412.695312 C 811.726562 422.628906 802.0625 431.820312 792.382812 440.996094 C 788.742188 444.449219 785.214844 448.015625 781.71875 451.613281 C 775.78125 457.722656 772.175781 465.15625 769.847656 473.253906 C 768.898438 476.558594 768.070312 479.894531 767.253906 483.234375 C 764.132812 496.042969 757.839844 507.152344 749.363281 517.144531 C 743.957031 523.515625 737.996094 529.261719 731.25 534.210938 C 729.144531 535.757812 726.914062 536.9375 724.363281 537.589844 C 717.570312 539.328125 710.824219 541.289062 703.804688 541.96875 C 702.980469 542.050781 702.152344 542.410156 701.390625 542.785156 C 701.09375 542.933594 700.824219 543.476562 700.839844 543.824219 C 700.859375 544.183594 701.15625 544.699219 701.464844 544.839844 C 702.09375 545.121094 702.816406 545.277344 703.511719 545.335938 C 706.988281 545.625 710.351562 544.820312 713.71875 544.117188 C 716.378906 543.558594 719 542.828125 721.632812 542.140625 C 722.824219 541.828125 723.851562 542.011719 724.875 542.726562 C 730.75 546.828125 734.136719 552.421875 734.855469 559.539062 C 735.636719 567.273438 734.339844 574.667969 730.984375 581.703125 C 727.554688 588.90625 722.761719 595.128906 717.242188 600.824219 C 712.441406 605.777344 707.128906 610.152344 701.554688 614.207031 C 693.1875 620.292969 684.277344 625.484375 675.09375 630.222656 C 668.980469 633.378906 662.839844 636.46875 656.773438 639.722656 C 648.910156 643.945312 641.558594 648.917969 635.347656 655.410156 C 633.476562 657.375 631.765625 659.511719 630.066406 661.632812 C 629.652344 662.148438 629.566406 662.925781 629.332031 663.585938 C 629.21875 663.664062 629.109375 663.746094 629 663.824219 C 629.089844 663.6875 629.167969 663.574219 629.242188 663.457031 Z M 629.242188 663.457031 " fill-opacity="1" fill-rule="nonzero"/><path fill="#cefd3b" d="M 603.921875 492.34375 C 602.347656 492.332031 600.773438 492.308594 599.199219 492.316406 C 598.195312 492.324219 597.167969 492.253906 596.203125 492.464844 C 595.59375 492.601562 594.960938 493.089844 594.550781 493.59375 C 594.167969 494.0625 595.058594 495.0625 596.085938 495.304688 C 600.023438 496.222656 604.007812 496.429688 608.035156 496.054688 C 613.457031 495.542969 618.839844 494.796875 624.148438 493.585938 C 625.082031 493.375 625.84375 493.464844 626.558594 494.039062 C 630.394531 497.113281 633.28125 500.824219 633.324219 505.953125 C 633.351562 508.347656 632.878906 510.800781 632.265625 513.128906 C 631.121094 517.46875 628.851562 521.304688 626.328125 524.984375 C 622.136719 531.082031 616.835938 536.066406 610.921875 540.445312 C 604.804688 544.976562 598.296875 548.871094 591.605469 552.488281 C 583.414062 556.914062 575.230469 561.351562 567.085938 565.867188 C 564.582031 567.253906 562.230469 568.90625 559.804688 570.429688 C 549.574219 576.867188 542.820312 586.0625 538.546875 597.226562 C 538.089844 598.429688 537.6875 599.65625 537.179688 600.835938 C 536.828125 601.648438 535.886719 602.066406 535.042969 601.929688 C 534.199219 601.792969 533.441406 601.097656 533.429688 600.175781 C 533.394531 597.746094 533.222656 595.277344 533.539062 592.878906 C 534.234375 587.632812 534.902344 582.347656 536.101562 577.203125 C 539.417969 562.953125 545.796875 550.324219 556.519531 540.089844 C 563.585938 533.347656 571.742188 528.476562 581.023438 525.453125 C 582.65625 524.921875 584.28125 524.371094 585.890625 523.753906 C 586.683594 523.453125 587.492188 523.089844 588.144531 522.558594 C 588.492188 522.273438 588.628906 521.574219 588.605469 521.074219 C 588.601562 520.828125 588 520.394531 587.683594 520.414062 C 586.128906 520.503906 584.523438 520.519531 583.042969 520.941406 C 580.566406 521.640625 578.171875 522.609375 575.753906 523.492188 C 574.679688 523.882812 573.59375 524.277344 572.570312 524.78125 C 571.40625 525.355469 570.378906 525.148438 569.3125 524.578125 C 562.714844 521.0625 559.023438 515.71875 558.652344 508.128906 C 558.183594 498.53125 561.820312 490.507812 567.921875 483.425781 C 573.414062 477.050781 580.113281 472.171875 587.34375 467.972656 C 594.4375 463.859375 602.027344 460.847656 609.585938 457.761719 C 613.5625 456.140625 617.535156 454.503906 621.496094 452.835938 C 626.53125 450.714844 631.28125 448.082031 635.71875 444.882812 C 639.234375 442.347656 642.269531 439.328125 644.878906 435.875 C 648 431.753906 650.800781 427.433594 653.25 422.875 C 655.621094 418.453125 658.128906 414.113281 661.207031 410.125 C 667.070312 402.515625 674.460938 396.671875 682.640625 391.785156 C 689.046875 387.964844 695.625 384.492188 702.820312 382.335938 C 703.5 382.132812 704.171875 381.828125 704.863281 381.714844 C 706.515625 381.445312 707.953125 383.097656 707.449219 384.726562 C 707.203125 385.535156 706.820312 386.34375 706.320312 387.019531 C 705.300781 388.402344 704.222656 389.75 703.050781 391.007812 C 694.292969 400.4375 687.269531 411.023438 682.066406 422.785156 C 680.277344 426.839844 678.859375 431.058594 677.316406 435.21875 C 676.621094 437.097656 676.0625 439.027344 675.410156 440.921875 C 671.011719 453.683594 663.613281 464.421875 653.429688 473.230469 C 648.871094 477.167969 644.203125 480.96875 639.125 484.230469 C 636.445312 485.941406 633.609375 487.238281 630.550781 488.113281 C 621.839844 490.597656 613.023438 492.363281 603.921875 492.34375 Z M 333.292969 578.734375 C 332.8125 578.640625 332.53125 578.59375 332.253906 578.53125 C 331.421875 578.34375 330.878906 577.164062 331.390625 576.488281 C 331.808594 575.933594 332.308594 575.371094 332.898438 575.039062 C 333.632812 574.625 334.480469 574.296875 335.3125 574.179688 C 338.710938 573.714844 340.964844 571.566406 342.984375 569.085938 C 346.707031 564.527344 349.910156 559.59375 352.789062 554.480469 C 356.089844 548.621094 359.171875 542.636719 362.320312 536.695312 C 366.621094 528.585938 371.390625 520.78125 376.921875 513.445312 C 386.371094 500.914062 397.863281 490.75 411.628906 483.195312 C 415.265625 481.199219 418.921875 479.222656 422.671875 477.449219 C 426.460938 475.65625 429.898438 473.390625 433.050781 470.648438 C 433.695312 470.085938 434.359375 469.535156 435.066406 469.0625 C 435.820312 468.5625 436.976562 468.703125 437.359375 469.441406 C 437.65625 470.015625 437.769531 470.789062 437.671875 471.429688 C 437.59375 471.9375 437.132812 472.4375 436.734375 472.832031 C 434.707031 474.835938 432.710938 476.828125 430.304688 478.46875 C 424.933594 482.128906 420.464844 486.792969 416.820312 492.171875 C 414.652344 495.367188 412.667969 498.6875 410.882812 502.113281 C 407.582031 508.460938 404.449219 514.898438 401.324219 521.339844 C 396.558594 531.164062 390.910156 540.433594 384.105469 548.984375 C 378.441406 556.101562 371.820312 562.171875 364.292969 567.261719 C 360.359375 569.921875 356.167969 572.113281 351.671875 573.613281 C 346.929688 575.195312 342.113281 576.5625 337.308594 577.957031 C 335.941406 578.351562 334.507812 578.503906 333.292969 578.734375 Z M -13.023438 781.714844 L 825.101562 781.714844 L 825.101562 864.398438 L -13.023438 864.398438 Z M -13.023438 781.714844 " fill-opacity="1" fill-rule="nonzero"/></svg>