<svg width="1440" height="968" viewBox="0 0 1440 968" fill="none" xmlns="http://www.w3.org/2000/svg">
<g clip-path="url(#clip0)">
<path d="M1118.65 707.48C1121.64 705.13 1124.67 702.823 1127.62 700.418C1145.99 685.424 1166.47 674.261 1188.94 666.794C1200.29 663.02 1211.82 659.776 1223.23 656.176C1229.3 654.262 1235.36 652.283 1241.3 650.014C1248.45 647.282 1255.4 644.088 1261.12 638.764C1261.67 638.251 1262.33 637.824 1263 637.476C1264.23 636.835 1265.61 636.794 1266.52 637.83C1267.3 638.71 1268.19 640.037 1268.06 641.047C1267.81 643.018 1267.03 644.968 1266.23 646.822C1262.04 656.541 1255.82 664.894 1248.65 672.585C1240.98 680.81 1232.37 687.987 1223.63 695.039C1212.86 703.733 1203.24 713.505 1195.74 725.241C1191.59 731.739 1188.34 738.638 1186.69 746.176C1185.98 749.376 1185.57 752.731 1185.65 756C1185.79 762.015 1188.8 765.364 1194.67 766.581C1202.18 768.138 1208.97 766.266 1214.57 761.252C1218.52 757.708 1222.21 753.7 1225.3 749.381C1229.74 743.157 1233.81 736.683 1237.5 729.99C1242.54 720.847 1247.06 711.416 1251.82 702.119C1259.73 686.662 1268.39 671.669 1279.53 658.26C1300.82 632.636 1326.33 612.23 1355.91 596.92C1367.96 590.68 1380.83 586.625 1393.76 582.7C1401.31 580.409 1408.91 578.252 1416.39 575.736C1422.23 573.772 1428.18 572.758 1434.26 571.97C1441.07 571.09 1447.81 569.675 1454.56 568.459C1455.31 568.327 1456.03 568.021 1456.73 567.707C1457.95 567.163 1459.15 566.271 1458.66 564.87C1458.3 563.804 1457.31 562.643 1456.3 562.199C1455.26 561.746 1453.83 561.936 1452.62 562.15C1446.6 563.201 1440.6 564.32 1434.61 565.508C1431.57 566.115 1429.29 565.36 1427.16 562.969C1416.73 551.242 1414.23 537.952 1418.88 523.125C1421.37 515.198 1425.86 508.424 1431 502.049C1444.06 485.868 1459.89 473.399 1479.41 465.848C1487.49 462.726 1495.53 459.519 1503.52 456.172C1508.92 453.912 1514.27 451.508 1519.49 448.866C1528.59 444.263 1534.24 436.554 1538.02 427.325C1540.11 422.214 1540.23 416.948 1539.22 411.549C1538.13 405.798 1537.37 399.992 1536.32 394.236C1534.9 386.441 1536.38 379.06 1539.14 371.805C1542.56 362.848 1547.8 355.086 1554.55 348.333C1567.06 335.808 1580.97 325.18 1596.81 317.136C1604.99 312.984 1613.11 308.719 1621.14 304.295C1635.49 296.393 1648.63 286.732 1661.08 276.156C1672.85 266.158 1682.25 254.132 1690.05 240.854C1691.59 238.234 1692.49 235.244 1693.96 232.577C1694.79 231.079 1696.03 229.717 1697.35 228.62C1698.73 227.474 1701.2 228.497 1701.68 230.232C1701.94 231.208 1702.08 232.224 1702.2 233.227C1704.29 249.538 1704.08 265.797 1700.22 281.826C1695.13 302.906 1684.27 320.869 1669.48 336.498C1663.35 342.973 1656.84 349.094 1650.48 355.348C1643.91 361.8 1637.91 368.73 1632.9 376.46C1631.24 379.016 1629.58 381.629 1628.35 384.4C1623.78 394.643 1623.87 404.528 1630.5 414.107C1635.72 421.646 1640.64 429.396 1645.39 437.239C1650.16 445.112 1653.78 453.52 1656.01 462.509C1659.55 476.735 1659.19 490.757 1654.21 504.607C1645.24 529.545 1629.31 548.813 1606.75 562.584C1603.75 564.417 1600.35 565.757 1596.95 566.741C1579.1 571.923 1561.1 576.498 1542.67 579.19C1539.92 579.59 1537.19 580.312 1534.55 581.181C1533.86 581.408 1533.09 582.801 1533.18 583.561C1533.28 584.325 1534.35 585.516 1535.07 585.571C1538.08 585.817 1541.2 586.165 1544.14 585.646C1553.91 583.909 1563.65 581.97 1573.34 579.833C1580.05 578.362 1586.66 576.491 1593.31 574.725C1595.8 574.062 1597.91 574.523 1599.46 576.562C1601.46 579.18 1603.74 581.713 1605.12 584.645C1611.35 597.866 1612.56 611.467 1607.7 625.478C1604.23 635.508 1599.08 644.461 1591.78 652.179C1584.75 659.613 1577.12 666.378 1568.76 672.248C1551.44 684.395 1533.99 696.342 1516.66 708.471C1508.73 714.021 1500.85 719.653 1493.15 725.523C1486.04 730.94 1479.59 737.117 1473.69 743.846C1468.96 749.24 1464.99 755.14 1461.94 761.651C1459.49 766.861 1458.9 772.321 1458.99 778.024C1459.09 784.474 1466.14 791.172 1473.81 790.284C1476.81 789.938 1479.84 789.131 1482.65 788C1495.74 782.739 1507.94 775.872 1518.48 766.419C1522.44 762.866 1525.83 758.666 1529.41 754.716C1530.61 753.398 1531.56 751.851 1532.77 750.55C1535.29 747.848 1538.58 748.43 1540.07 751.926C1540.86 753.803 1541.41 755.772 1541.71 757.786C1543.96 773.021 1540.83 787.17 1532.81 800.258C1527.17 809.48 1520.1 817.488 1511.47 824.017C1506.6 827.704 1501.51 831.096 1496.47 834.554C1490.16 838.878 1483.74 843.02 1477.51 847.448C1472.08 851.294 1467.47 856.19 1463.97 861.846C1460.83 866.896 1458.84 872.298 1458.44 878.327C1457.92 886.225 1456.27 893.941 1454.08 901.557C1452.79 906.058 1450.72 910.144 1447.62 913.572C1444.04 917.535 1440.15 921.218 1436.35 924.983C1433.87 927.442 1430.82 928.384 1427.33 928.434C1413.82 928.621 1400.32 929.056 1386.82 929.165C1360.56 929.372 1334.3 929.384 1308.05 929.544C1271.09 929.764 1234.13 930.032 1197.17 930.296C1160.72 930.555 1124.27 930.827 1087.83 931.109C1052.14 931.384 1016.46 931.685 980.774 931.947C947.639 932.192 914.503 932.39 881.368 932.636C841.604 932.931 801.844 933.26 762.08 933.56C725.124 933.836 688.163 934.087 651.203 934.359C615.008 934.629 578.817 934.921 542.621 935.187C506.174 935.451 469.722 935.685 433.274 935.948C396.314 936.216 359.358 936.497 322.397 936.778C286.715 937.053 251.028 937.35 215.346 937.612C181.954 937.855 148.566 938.042 115.179 938.281C74.649 938.573 34.125 938.866 -6.40398 939.21C-35.457 939.458 -64.514 939.801 -93.568 940.057C-96.6266 940.08 -99.6841 939.931 -102.726 939.61C-104.236 939.446 -105.696 938.972 -107.015 938.218C-110.387 936.255 -110.689 931.619 -107.671 929.173C-106.694 928.383 -105.525 927.826 -104.422 927.208C-84.901 916.231 -69.26 901.216 -57.568 882.117C-50.639 870.798 -45.016 858.785 -39.353 846.815C-37.293 842.465 -35.974 837.755 -34.433 833.165C-19.236 787.921 2.56501 746.022 29.437 706.66C43.242 686.435 57.597 666.658 73.644 648.123C88.869 630.542 105.689 614.623 123.057 599.211C153.3 572.372 187.793 552.419 224.511 536.013C228.695 534.145 232.967 532.471 237.222 530.768C253.06 524.428 268.999 518.327 284.729 511.731C302.826 504.148 320.444 495.524 337.868 486.498C347.037 481.751 354.677 475.056 362.237 468.192C376.327 455.402 387.608 440.358 397.838 424.43C407.195 409.846 416.622 395.307 426.12 380.814C435.391 366.677 446.548 354.102 458.765 342.467C462.078 339.315 465.645 336.382 469.345 333.692C481.532 324.839 494.366 317.041 507.937 310.467C523.547 302.903 539.662 296.592 556.057 290.965C564.485 288.071 572.872 285.056 581.335 282.271C593.257 278.35 604.49 272.977 615.24 266.57C625.701 260.335 634.527 252.443 640.39 241.541C643.166 236.381 646.259 231.396 649.056 226.248C659.893 206.286 674.305 189.212 691.387 174.403C708.425 159.633 728.27 150.014 749.877 143.915C757.471 141.767 765.194 140.101 772.998 138.925C780.032 137.868 786.986 136.169 793.884 134.405C797.367 133.516 799.828 134.648 802.094 136.955C803.26 138.145 802.943 140.943 801.437 141.668C799.856 142.429 798.153 143.06 796.438 143.387C773.074 147.835 754.077 160.182 737.022 176.077C729.631 182.967 724.278 191.295 719.995 200.341C714.853 211.194 710.788 222.377 708.58 234.27C706.676 244.532 703.919 254.63 700.225 264.423C695.224 277.679 687.559 289.347 678.806 300.394C669.158 312.574 657.408 322.21 643.747 329.48C634.757 334.261 625.551 338.634 616.437 343.176C607.548 347.608 598.607 351.936 589.771 356.472C583.143 359.873 577.355 364.475 572.173 369.811C570.578 371.45 569.132 373.24 567.668 375.003C561.361 382.622 559.444 391.236 562.021 400.788C564.09 408.433 564.784 416.384 564.071 424.271C562.856 437.996 557.248 449.213 545.284 456.712C542.482 458.469 539.6 460.105 536.753 461.793C532.15 464.512 527.45 467.085 522.965 469.99C519.943 471.949 516.842 473.469 513.4 474.601C502.657 478.135 492.775 483.375 484.197 490.821C481.715 492.975 479.58 495.548 477.409 498.035C476.776 498.757 476.254 499.848 476.249 500.774C476.243 501.644 476.825 502.674 477.456 503.334C477.877 503.774 479.079 504.077 479.525 503.795C482.089 502.17 484.724 500.567 486.972 498.553C492.142 493.926 497.868 490.171 503.971 486.944C504.867 486.472 505.825 486.117 506.783 485.774C507.849 485.392 508.104 486.246 508.148 486.945C509.297 505.428 501.792 520.195 488.129 531.986C482.361 536.962 475.945 541.208 469.69 545.593C461.343 551.442 452.772 556.975 445.163 563.818C437.525 570.687 430.993 578.464 425.717 587.275C423.478 591.014 421.641 594.915 421.612 599.436C421.587 603.388 423.667 606.366 427.543 607.174C429.485 607.58 431.598 607.645 433.565 607.373C438.65 606.675 443.403 604.79 448.05 602.678C474.02 590.871 494.802 573.002 510.411 549.133C513.477 544.439 516.503 539.712 519.338 534.881C532.635 512.221 549.622 492.744 569.577 475.717C580.651 466.268 591.98 457.222 604.495 449.74C605.797 448.96 607.063 447.919 608.482 447.599C609.527 447.361 611.169 447.752 611.853 448.498C612.546 449.258 612.663 450.826 612.516 451.979C612.406 452.88 611.609 453.773 610.941 454.504C609.911 455.63 608.776 456.669 607.606 457.652C597.71 465.948 590.229 476.237 583.361 487.017C578.253 495.034 574.658 503.744 572.407 512.957C570.114 522.352 568.121 531.822 566.024 541.268C564.199 549.499 561.725 557.508 558.236 565.196C554.401 573.643 549.131 581.08 542.8 587.825C536.24 594.811 528.457 599.995 519.751 603.886C511.613 607.521 503.456 611.121 495.375 614.881C492.616 616.164 489.977 617.755 487.452 619.453C486.246 620.267 485.226 621.553 484.524 622.845C484.125 623.579 484.206 624.991 484.681 625.665C485.147 626.322 486.539 626.907 487.267 626.683C489.925 625.858 492.507 624.763 495.05 623.626C499.464 621.651 503.824 619.555 508.22 617.538C508.64 617.347 509.286 617.155 509.588 617.344C509.889 617.533 510.108 618.262 509.998 618.649C506.164 632.108 502.256 645.542 498.417 659C493.911 674.808 484.609 687.228 471.647 697.083C464.518 702.501 456.985 707.352 448.705 710.718C442.609 713.197 436.204 715.07 429.787 716.6C410.176 721.271 390.381 724.708 370.095 724.302C367.864 724.26 365.6 724.799 363.395 725.287C362.862 725.404 362.222 726.353 362.166 726.966C362.114 727.575 362.586 728.449 363.107 728.836C363.889 729.417 364.889 729.913 365.842 730.018C369.879 730.468 373.891 730.888 378.006 730.772C392.835 730.348 407.414 728.109 421.892 725.141C424.865 724.53 426.845 725.357 428.652 727.364C431.468 730.48 433.179 734.078 433.435 738.349C433.782 744.067 432.904 749.495 430.289 754.654C427.5 760.167 424.067 765.242 419.506 769.382C413.473 774.86 407.19 780.062 400.991 785.355C396.919 788.826 392.721 792.155 388.724 795.713C383.364 800.481 378.617 805.827 375.094 812.106C371.863 817.871 370.495 823.959 372.96 830.455C374.657 834.923 377.329 838.636 381.826 840.456C385.092 841.777 388.581 843.148 392.034 843.329C415.509 844.565 436.298 837.768 453.647 821.592C459.515 816.12 463.699 809.344 466.363 801.824C469.249 793.672 471.616 785.337 474.167 777.07C476.268 770.258 478.068 763.345 480.431 756.627C486.338 739.844 495.533 724.968 507.087 711.468C528.206 686.798 554.415 669.094 583.48 655.245C599.363 649.696 612.94 640.214 625.932 629.894C631.694 625.318 636.767 619.874 642.134 614.805C643.243 613.757 644.202 612.554 645.355 611.562C646.399 610.663 648.513 610.733 649.689 611.532C650.851 612.322 651.204 613.51 651.206 614.836C651.206 615.34 651.193 615.871 651.045 616.35C647.378 628.53 644.388 640.943 637.949 652.128C631.57 663.203 624.491 673.745 615.987 683.329C611.593 688.281 607.405 693.427 603.327 698.642C594.756 709.613 590.563 722.232 589.235 736.009C588.602 742.583 587.441 749.121 586.207 755.617C583.467 770.028 576.677 782.398 566.717 793.076C564.804 795.126 562.777 797.064 560.85 799.101C560.54 799.429 560.47 799.99 560.291 800.444C560.74 800.545 561.255 800.832 561.632 800.711C564.047 799.918 566.532 799.242 568.806 798.145C580.566 792.469 591.482 785.491 601.302 776.835C621.247 759.26 635.393 737.793 644.486 712.894C651.737 693.035 658.88 673.137 666.284 653.338C673.156 634.964 680.263 616.675 689.543 599.33C696.528 586.271 704.452 573.81 713.246 561.902C726.73 543.64 743.258 528.64 762.378 516.483C770.116 511.565 777.883 506.638 785.951 502.309C791.768 499.188 795.396 494.664 797.386 488.662C798.583 485.049 799.457 481.312 800.222 477.576C806.116 448.938 819.094 423.873 838.541 402.177C850.208 389.159 863.745 378.425 879.593 370.803C886.708 367.381 893.853 364.02 900.985 360.628C905.355 358.55 909.742 356.502 914.089 354.38C922.658 350.203 930.128 344.544 936.776 337.726C941.812 332.56 945.987 326.849 948.833 320.197C950.535 316.215 952.377 312.292 954.023 308.288C960.925 291.483 971.526 277.322 984.671 264.923C1007.56 243.338 1034.23 228.529 1064.51 220.152C1072.4 217.967 1080.45 216.845 1088.64 216.571C1092.19 216.451 1095.73 215.896 1099.29 215.651C1102.84 215.404 1106.41 215.358 1109.97 215.111C1113.8 214.851 1116.11 217.114 1118.14 219.854C1119.16 221.223 1118.75 223.674 1117.17 224.582C1115.2 225.711 1113.1 226.628 1110.98 227.462C1105.29 229.699 1099.45 231.576 1093.89 234.077C1073.23 243.373 1054.96 256.179 1038.71 271.955C1027.33 283.005 1019.11 295.978 1014.17 311.05C1010.52 322.182 1007.07 333.386 1003.07 344.39C997.286 360.303 988.884 374.877 978.83 388.447C967.865 403.25 953.68 414.462 937.552 423.052C928.333 427.96 922.774 435.138 919.941 444.938C917.019 455.046 915.676 465.355 915.552 475.841C915.482 481.706 915.525 487.57 915.446 493.43C915.399 496.743 915.243 500.052 915.07 503.362C914.757 509.32 913.024 514.82 910.018 519.999C902.288 533.324 892.939 545.372 881.634 555.826C873.022 563.794 863.918 571.201 854.12 577.679C849.878 580.482 845.333 582.823 840.99 585.483C839.502 586.395 838.134 587.554 836.905 588.794C836.53 589.171 836.565 590.305 836.843 590.885C837.122 591.466 837.923 592.12 838.523 592.15C839.753 592.205 841.126 592.142 842.213 591.638C846.128 589.815 850.105 588.044 853.768 585.785C865.521 578.535 876.139 569.777 886.376 560.548C887.512 559.524 888.619 558.467 889.693 557.378C891.056 555.998 892.709 555.637 894.579 555.735C899.88 556.014 904.504 557.906 908.376 561.531C912.738 565.612 915.846 570.504 917.783 576.17C921.002 585.564 921.258 595.16 919.649 604.84C917.465 618.025 912.626 630.331 906.994 642.37C898.408 660.71 887.145 677.368 874.894 693.39C869.633 700.27 864.127 706.965 858.727 713.747C854.574 718.962 849.663 723.409 844.484 727.559C834.136 735.854 823.444 743.669 811.948 750.335C809.084 751.997 806.33 753.845 803.567 755.671C802.732 756.221 801.894 756.889 801.34 757.697C800.979 758.222 800.831 759.253 801.118 759.768C801.422 760.322 802.37 760.888 802.983 760.836C804.477 760.706 806.048 760.454 807.395 759.831C810.856 758.229 814.39 756.67 817.577 754.606C825.482 749.478 833.593 744.553 840.879 738.63C846.355 734.173 851.965 733.924 858.052 735.239C866.387 737.037 870.955 743.403 870.499 752.014C870.238 756.928 868.554 761.463 866.463 765.861C861.821 775.606 855.514 784.246 848.52 792.38C843.369 798.368 837.982 804.154 832.564 809.905C827.845 814.912 822.845 819.656 818.16 824.697C816.066 826.948 812.848 828.452 812.565 832.102C815.79 832.623 818.419 830.841 821.223 829.815C828.938 826.996 836.043 822.966 842.611 818.109C851.828 811.293 860.83 804.178 869.937 797.214C880.276 789.311 890.896 781.826 902.754 776.314C906.444 774.598 910.209 773.016 914.04 771.659C916.663 770.729 919.43 769.976 922.188 769.719C927.253 769.248 931.719 770.46 934.812 775.099C937.131 778.58 937.295 778.465 939.741 774.968C944.923 767.541 948.313 759.345 949.954 750.464C951.62 741.452 953.033 732.395 954.704 723.383C957.986 705.69 964.268 689.064 972.984 673.362C975.949 668.018 979.215 662.836 982.468 657.658C996.326 635.594 1014.92 618.46 1037.57 605.797C1050.68 598.466 1064.13 591.733 1077.47 584.822C1092.85 576.856 1108.39 569.184 1123.66 561.019C1140.11 552.227 1155.47 541.735 1169.72 529.671C1172.23 527.538 1174.54 525.154 1176.92 522.87C1177.09 522.712 1177.27 522.367 1177.2 522.22C1177.12 522.038 1176.79 521.88 1176.55 521.869C1176.06 521.838 1175.54 521.834 1175.05 521.951C1168.51 523.534 1161.89 523.074 1155.27 522.797C1154.51 522.764 1153.74 522.692 1152.99 522.559C1138.97 520.068 1132.76 509.799 1133.89 498.24C1134.39 493.119 1135.87 488.278 1137.99 483.596C1142.49 473.644 1149.55 465.658 1157.34 458.227C1165.67 450.279 1174.86 443.423 1184.54 437.238C1195.06 430.515 1205.78 424.091 1216.22 417.255C1224.53 411.82 1232.77 406.228 1240.67 400.213C1250.02 393.087 1258.47 384.951 1265.14 375.138C1267.6 371.523 1269.54 367.699 1270.63 363.444C1277.19 337.921 1290.48 316.127 1307.91 296.699C1320.92 282.205 1335.85 269.922 1351.89 258.916C1367.88 247.937 1384.84 238.584 1401.79 229.21C1416.72 220.952 1431.76 212.845 1446.36 204.02C1462.79 194.08 1477.5 181.886 1490.1 167.282C1496.12 160.309 1501.38 152.802 1505.74 144.695C1507.52 141.385 1509.35 138.055 1508.26 133.877C1507.63 131.478 1509.43 129.555 1511.09 127.933C1512.47 126.579 1515.58 127.332 1516.29 129.169C1516.65 130.101 1516.92 131.121 1516.96 132.116C1517.15 136.7 1517.28 141.286 1517.38 145.871C1517.58 155.415 1515.59 164.581 1512.71 173.621C1507.19 190.988 1498.97 207.038 1489.22 222.362C1480.3 236.379 1470.01 249.334 1458.92 261.682C1443.07 279.341 1425.89 295.681 1408.68 311.995C1402.21 318.129 1395.94 324.47 1389.72 330.866C1379.17 341.732 1372.76 354.942 1368.62 369.343C1366.93 375.212 1365.46 381.149 1364.01 387.085C1358.46 409.852 1347.27 429.604 1332.2 447.366C1322.59 458.693 1311.99 468.907 1300 477.707C1296.26 480.458 1292.29 482.559 1287.76 483.717C1275.68 486.806 1263.69 490.289 1251.21 491.502C1249.74 491.645 1248.27 492.287 1246.92 492.954C1246.39 493.215 1245.91 494.179 1245.94 494.801C1245.97 495.435 1246.5 496.357 1247.05 496.605C1248.17 497.104 1249.45 497.381 1250.69 497.484C1256.87 498.003 1262.85 496.568 1268.83 495.316C1273.56 494.326 1278.22 493.028 1282.9 491.803C1285.02 491.251 1286.85 491.576 1288.67 492.848C1299.11 500.14 1305.13 510.081 1306.41 522.738C1307.8 536.485 1305.49 549.632 1299.53 562.138C1293.43 574.946 1284.91 586.008 1275.1 596.129C1266.56 604.94 1257.12 612.715 1247.21 619.924C1232.33 630.742 1216.49 639.972 1200.17 648.398C1189.3 654.007 1178.38 659.502 1167.6 665.284C1153.62 672.795 1140.55 681.634 1129.51 693.177C1126.18 696.669 1123.14 700.462 1120.12 704.234C1119.38 705.153 1119.23 706.536 1118.81 707.709C1118.61 707.85 1118.42 707.99 1118.22 708.131C1118.38 707.886 1118.52 707.685 1118.65 707.48V707.48Z" fill="#CEFD3B"/>
<path d="M1073.64 403.276C1070.84 403.259 1068.04 403.212 1065.24 403.23C1063.46 403.24 1061.63 403.12 1059.92 403.495C1058.83 403.734 1057.71 404.604 1056.98 405.501C1056.3 406.332 1057.88 408.111 1059.71 408.539C1066.71 410.174 1073.79 410.543 1080.95 409.872C1090.59 408.968 1100.16 407.639 1109.6 405.489C1111.26 405.111 1112.61 405.274 1113.88 406.289C1120.7 411.755 1125.83 418.356 1125.91 427.475C1125.96 431.726 1125.12 436.093 1124.03 440.231C1121.99 447.946 1117.96 454.765 1113.47 461.304C1106.02 472.145 1096.6 481.006 1086.08 488.794C1075.21 496.85 1063.64 503.768 1051.74 510.198C1037.18 518.07 1022.63 525.96 1008.15 533.984C1003.7 536.45 999.518 539.388 995.206 542.1C977.019 553.545 965.014 569.891 957.42 589.735C956.602 591.872 955.889 594.056 954.985 596.154C954.362 597.598 952.69 598.337 951.188 598.097C949.691 597.857 948.342 596.616 948.32 594.982C948.259 590.657 947.954 586.269 948.515 582.009C949.748 572.679 950.938 563.288 953.068 554.138C958.962 528.804 970.305 506.351 989.367 488.162C1001.93 476.171 1016.43 467.517 1032.93 462.137C1035.83 461.192 1038.72 460.212 1041.58 459.12C1042.99 458.582 1044.43 457.936 1045.59 456.992C1046.21 456.487 1046.45 455.242 1046.41 454.351C1046.4 453.916 1045.33 453.143 1044.77 453.178C1042.01 453.343 1039.15 453.371 1036.52 454.118C1032.12 455.358 1027.86 457.083 1023.56 458.652C1021.65 459.35 1019.72 460.048 1017.9 460.945C1015.83 461.966 1014.01 461.598 1012.11 460.583C1000.38 454.331 993.817 444.83 993.16 431.337C992.327 414.278 998.793 400.011 1009.64 387.421C1019.4 376.092 1031.31 367.42 1044.17 359.952C1056.78 352.639 1070.27 347.283 1083.71 341.801C1090.78 338.919 1097.84 336.01 1104.88 333.045C1113.83 329.274 1122.28 324.593 1130.17 318.905C1136.42 314.394 1141.81 309.026 1146.45 302.889C1152 295.563 1156.98 287.885 1161.33 279.778C1165.55 271.919 1170.01 264.202 1175.48 257.111C1185.9 243.582 1199.04 233.191 1213.58 224.51C1224.97 217.715 1236.67 211.543 1249.46 207.71C1250.67 207.348 1251.86 206.804 1253.09 206.603C1256.03 206.123 1258.58 209.063 1257.69 211.96C1257.25 213.394 1256.57 214.834 1255.68 216.037C1253.87 218.49 1251.95 220.888 1249.87 223.126C1234.3 239.892 1221.81 258.711 1212.56 279.621C1209.38 286.823 1206.86 294.325 1204.12 301.724C1202.88 305.064 1201.89 308.493 1200.73 311.862C1192.91 334.552 1179.76 353.637 1161.65 369.302C1153.55 376.301 1145.25 383.058 1136.22 388.851C1131.46 391.898 1126.42 394.199 1120.98 395.756C1105.49 400.171 1089.82 403.31 1073.64 403.276V403.276ZM592.519 556.863C591.665 556.696 591.169 556.608 590.677 556.499C589.196 556.168 588.232 554.067 589.14 552.869C589.884 551.885 590.771 550.882 591.818 550.291C593.125 549.555 594.629 548.969 596.109 548.765C602.154 547.939 606.157 544.12 609.751 539.709C616.367 531.601 622.06 522.835 627.182 513.743C633.049 503.328 638.527 492.69 644.128 482.125C651.771 467.71 660.248 453.835 670.085 440.789C686.88 418.514 707.313 400.443 731.787 387.014C738.253 383.466 744.753 379.949 751.418 376.796C758.156 373.608 764.266 369.581 769.865 364.706C771.013 363.71 772.192 362.731 773.454 361.891C774.795 360.997 776.849 361.25 777.529 362.562C778.059 363.583 778.257 364.96 778.083 366.1C777.947 366.997 777.128 367.886 776.417 368.587C772.811 372.155 769.262 375.696 764.987 378.612C755.441 385.119 747.492 393.412 741.014 402.971C737.158 408.654 733.633 414.556 730.459 420.648C724.59 431.933 719.022 443.376 713.468 454.823C704.993 472.292 694.95 488.77 682.853 503.974C672.788 516.622 661.012 527.415 647.631 536.465C640.64 541.194 633.19 545.093 625.196 547.757C616.764 550.568 608.202 553.002 599.663 555.479C597.23 556.181 594.68 556.454 592.519 556.863V556.863ZM-23.1538 917.714H1466.85V1064.71H-23.1538V917.714Z" fill="#CEFD3B"/>
</g>
<defs>
<clipPath id="clip0">
<rect width="1440" height="968" fill="white"/>
</clipPath>
</defs>
</svg>
