<svg xmlns="http://www.w3.org/2000/svg" xmlns:xlink="http://www.w3.org/1999/xlink" width="1200" zoomAndPan="magnify" viewBox="0 0 525 344.999992" height="1200" preserveAspectRatio="xMidYMid meet" version="1.0"><defs><g/><clipPath id="36185c87d9"><path d="M 0 0 L 345.4375 0 L 345.4375 223.507812 L 0 223.507812 Z M 0 0 " clip-rule="nonzero"/></clipPath><clipPath id="ffd3c87fff"><path d="M 0 209.890625 L 525 209.890625 L 525 345 L 0 345 Z M 0 209.890625 " clip-rule="nonzero"/></clipPath><clipPath id="6e9361b3d4"><path d="M 0 102.414062 L 431.011719 102.414062 L 431.011719 263.496094 L 0 263.496094 Z M 0 102.414062 " clip-rule="nonzero"/></clipPath></defs><g clip-path="url(#36185c87d9)"><path fill="#fdb52a" d="M 0 -6.0625 L 345.25 -6.0625 L 345.25 223.507812 L 0 223.507812 Z M 0 -6.0625 " fill-opacity="1" fill-rule="nonzero"/></g><g clip-path="url(#ffd3c87fff)"><path fill="#fdb52a" d="M 0 209.890625 L 524.828125 209.890625 L 524.828125 351.46875 L 0 351.46875 Z M 0 209.890625 " fill-opacity="1" fill-rule="nonzero"/></g><g clip-path="url(#6e9361b3d4)"><path fill="#fdb52a" d="M -6.117188 102.414062 L 431.191406 102.414062 L 431.191406 263.496094 L -6.117188 263.496094 Z M -6.117188 102.414062 " fill-opacity="1" fill-rule="nonzero"/></g><g fill="#ff66c4" fill-opacity="1"><g transform="translate(126.92069, 152.125052)"><g><path d="M 3.109375 -7.265625 L 9.765625 -7.265625 L 9.765625 -16.640625 L 9.703125 -16.640625 Z M 12.34375 -5.03125 L 12.34375 0 L 9.765625 0 L 9.765625 -5.03125 L 0.734375 -5.03125 L 0.734375 -7.546875 L 10.203125 -20.671875 L 12.34375 -20.671875 L 12.34375 -7.265625 L 15.375 -7.265625 L 15.375 -5.03125 Z M 12.34375 -5.03125 "/></g></g></g><g fill="#ff66c4" fill-opacity="1"><g transform="translate(145.683513, 152.125052)"><g/></g></g><g fill="#ff66c4" fill-opacity="1"><g transform="translate(155.272943, 152.125052)"><g><path d="M 19.84375 0 L 19.84375 -12.46875 C 19.84375 -12.625 19.851562 -13.414062 19.875 -14.84375 C 19.894531 -16.28125 19.90625 -17.242188 19.90625 -17.734375 L 19.8125 -17.734375 L 13.90625 0 L 11.078125 0 L 5.171875 -17.703125 L 5.078125 -17.703125 C 5.078125 -16.992188 5.085938 -15.984375 5.109375 -14.671875 C 5.128906 -13.359375 5.140625 -12.625 5.140625 -12.46875 L 5.140625 0 L 2.390625 0 L 2.390625 -21.109375 L 6.46875 -21.109375 L 12.46875 -3.265625 L 12.546875 -3.265625 L 18.515625 -21.109375 L 22.609375 -21.109375 L 22.609375 0 Z M 19.84375 0 "/></g></g></g><g fill="#ff66c4" fill-opacity="1"><g transform="translate(182.677995, 152.125052)"><g><path d="M 18.796875 -10.546875 C 18.796875 -13.023438 18.140625 -15.078125 16.828125 -16.703125 C 15.523438 -18.328125 13.726562 -19.140625 11.4375 -19.140625 C 9.1875 -19.140625 7.398438 -18.328125 6.078125 -16.703125 C 4.753906 -15.078125 4.09375 -13.023438 4.09375 -10.546875 C 4.09375 -8.003906 4.757812 -5.9375 6.09375 -4.34375 C 7.4375 -2.757812 9.21875 -1.96875 11.4375 -1.96875 C 13.613281 -1.96875 15.382812 -2.742188 16.75 -4.296875 C 18.113281 -5.847656 18.796875 -7.929688 18.796875 -10.546875 Z M 21.71875 -10.546875 C 21.71875 -7.398438 20.804688 -4.757812 18.984375 -2.625 C 17.171875 -0.5 14.65625 0.5625 11.4375 0.5625 C 8.207031 0.5625 5.6875 -0.5 3.875 -2.625 C 2.0625 -4.757812 1.15625 -7.398438 1.15625 -10.546875 C 1.15625 -13.710938 2.0625 -16.359375 3.875 -18.484375 C 5.6875 -20.609375 8.207031 -21.671875 11.4375 -21.671875 C 14.75 -21.671875 17.289062 -20.585938 19.0625 -18.421875 C 20.832031 -16.253906 21.71875 -13.628906 21.71875 -10.546875 Z M 21.71875 -10.546875 "/></g></g></g><g fill="#ff66c4" fill-opacity="1"><g transform="translate(207.958374, 152.125052)"><g><path d="M 5.234375 -2.4375 L 10.765625 -2.4375 C 12.679688 -2.4375 14.179688 -3.171875 15.265625 -4.640625 C 16.347656 -6.109375 16.890625 -8.117188 16.890625 -10.671875 C 16.890625 -13.179688 16.34375 -15.132812 15.25 -16.53125 C 14.15625 -17.9375 12.582031 -18.648438 10.53125 -18.671875 L 5.234375 -18.671875 Z M 2.390625 -21.109375 L 10.9375 -21.109375 C 13.707031 -21.109375 15.875 -20.15625 17.4375 -18.25 C 19 -16.351562 19.78125 -13.890625 19.78125 -10.859375 C 19.78125 -7.597656 19 -4.972656 17.4375 -2.984375 C 15.875 -0.992188 13.671875 0 10.828125 0 L 2.390625 0 Z M 2.390625 -21.109375 "/></g></g></g><g fill="#ff66c4" fill-opacity="1"><g transform="translate(231.544763, 152.125052)"><g><path d="M 17.96875 0 L 2.390625 0 L 2.390625 -21.109375 L 17.765625 -21.109375 L 17.765625 -18.578125 L 5.234375 -18.578125 L 5.234375 -12.125 L 16.78125 -12.125 L 16.78125 -9.59375 L 5.234375 -9.59375 L 5.234375 -2.53125 L 17.96875 -2.53125 Z M 17.96875 0 "/></g></g></g><g fill="#ff66c4" fill-opacity="1"><g transform="translate(253.063908, 152.125052)"><g><path d="M 5.234375 -11.5 L 11.84375 -11.5 C 13.375 -11.5 14.472656 -11.8125 15.140625 -12.4375 C 15.804688 -13.0625 16.140625 -13.960938 16.140625 -15.140625 C 16.140625 -16.210938 15.851562 -17.066406 15.28125 -17.703125 C 14.707031 -18.347656 13.71875 -18.671875 12.3125 -18.671875 L 5.234375 -18.671875 Z M 5.234375 0 L 2.390625 0 L 2.390625 -21.109375 L 12.140625 -21.109375 C 14.410156 -21.109375 16.128906 -20.625 17.296875 -19.65625 C 18.460938 -18.6875 19.046875 -17.28125 19.046875 -15.4375 C 19.046875 -14.21875 18.8125 -13.203125 18.34375 -12.390625 C 17.875 -11.578125 17.140625 -10.90625 16.140625 -10.375 C 17.003906 -10.0625 17.625 -9.617188 18 -9.046875 C 18.382812 -8.484375 18.609375 -7.601562 18.671875 -6.40625 L 18.859375 -2.46875 C 18.867188 -1.820312 18.96875 -1.363281 19.15625 -1.09375 C 19.34375 -0.832031 19.601562 -0.625 19.9375 -0.46875 L 19.9375 0 L 16.40625 0 C 16.226562 -0.53125 16.097656 -1.328125 16.015625 -2.390625 C 15.941406 -3.460938 15.90625 -4.429688 15.90625 -5.296875 C 15.90625 -5.722656 15.863281 -6.160156 15.78125 -6.609375 C 15.707031 -7.066406 15.539062 -7.476562 15.28125 -7.84375 C 15.03125 -8.207031 14.65625 -8.5 14.15625 -8.71875 C 13.65625 -8.945312 12.984375 -9.0625 12.140625 -9.0625 L 5.234375 -9.0625 Z M 5.234375 0 "/></g></g></g><g fill="#ff66c4" fill-opacity="1"><g transform="translate(276.463671, 152.125052)"><g><path d="M 16.359375 -21.109375 L 19.109375 -21.109375 L 19.109375 0 L 15.9375 0 L 5.171875 -17.0625 L 5.109375 -17.0625 L 5.109375 0 L 2.390625 0 L 2.390625 -21.109375 L 5.734375 -21.109375 L 16.296875 -4.0625 L 16.359375 -4.0625 Z M 16.359375 -21.109375 "/></g></g></g><g fill="#ff66c4" fill-opacity="1"><g transform="translate(124.744858, 193.000386)"><g><path d="M 5.203125 -2.53125 L 15.9375 -2.53125 L 15.9375 0 L 2.390625 0 L 2.390625 -21.109375 L 5.203125 -21.109375 Z M 5.203125 -2.53125 "/></g></g></g><g fill="#ff66c4" fill-opacity="1"><g transform="translate(143.220543, 193.000386)"><g><path d="M 18.796875 -10.546875 C 18.796875 -13.023438 18.140625 -15.078125 16.828125 -16.703125 C 15.523438 -18.328125 13.726562 -19.140625 11.4375 -19.140625 C 9.1875 -19.140625 7.398438 -18.328125 6.078125 -16.703125 C 4.753906 -15.078125 4.09375 -13.023438 4.09375 -10.546875 C 4.09375 -8.003906 4.757812 -5.9375 6.09375 -4.34375 C 7.4375 -2.757812 9.21875 -1.96875 11.4375 -1.96875 C 13.613281 -1.96875 15.382812 -2.742188 16.75 -4.296875 C 18.113281 -5.847656 18.796875 -7.929688 18.796875 -10.546875 Z M 21.71875 -10.546875 C 21.71875 -7.398438 20.804688 -4.757812 18.984375 -2.625 C 17.171875 -0.5 14.65625 0.5625 11.4375 0.5625 C 8.207031 0.5625 5.6875 -0.5 3.875 -2.625 C 2.0625 -4.757812 1.15625 -7.398438 1.15625 -10.546875 C 1.15625 -13.710938 2.0625 -16.359375 3.875 -18.484375 C 5.6875 -20.609375 8.207031 -21.671875 11.4375 -21.671875 C 14.75 -21.671875 17.289062 -20.585938 19.0625 -18.421875 C 20.832031 -16.253906 21.71875 -13.628906 21.71875 -10.546875 Z M 21.71875 -10.546875 "/></g></g></g><g fill="#ff66c4" fill-opacity="1"><g transform="translate(168.500925, 193.000386)"><g><path d="M 17.0625 -14.765625 C 16.738281 -16.203125 16.070312 -17.289062 15.0625 -18.03125 C 14.050781 -18.769531 12.742188 -19.140625 11.140625 -19.140625 C 9.066406 -19.140625 7.394531 -18.382812 6.125 -16.875 C 4.863281 -15.363281 4.234375 -13.328125 4.234375 -10.765625 C 4.234375 -7.796875 4.832031 -5.585938 6.03125 -4.140625 C 7.226562 -2.691406 8.960938 -1.96875 11.234375 -1.96875 C 12.722656 -1.96875 14.003906 -2.460938 15.078125 -3.453125 C 16.160156 -4.441406 16.890625 -5.878906 17.265625 -7.765625 L 20.03125 -7.765625 C 19.65625 -5.054688 18.625 -2.988281 16.9375 -1.5625 C 15.257812 -0.144531 13.210938 0.5625 10.796875 0.5625 C 7.910156 0.5625 5.601562 -0.425781 3.875 -2.40625 C 2.15625 -4.394531 1.296875 -7.148438 1.296875 -10.671875 C 1.296875 -14.066406 2.195312 -16.75 4 -18.71875 C 5.800781 -20.6875 8.179688 -21.671875 11.140625 -21.671875 C 13.585938 -21.671875 15.570312 -21.035156 17.09375 -19.765625 C 18.625 -18.503906 19.53125 -16.835938 19.8125 -14.765625 Z M 17.0625 -14.765625 "/></g></g></g><g fill="#ff66c4" fill-opacity="1"><g transform="translate(191.670967, 193.000386)"><g><path d="M 12.9375 -8.671875 L 9.828125 -17.96875 L 9.765625 -17.96875 L 6.375 -8.671875 Z M 5.5 -6.140625 L 3.28125 0 L 0.359375 0 L 8.296875 -21.109375 L 11.53125 -21.109375 L 19.171875 0 L 16.046875 0 L 13.96875 -6.140625 Z M 5.5 -6.140625 "/></g></g></g><g fill="#ff66c4" fill-opacity="1"><g transform="translate(210.806871, 193.000386)"><g><path d="M 7.46875 -18.578125 L 0.359375 -18.578125 L 0.359375 -21.109375 L 17.5 -21.109375 L 17.5 -18.578125 L 10.328125 -18.578125 L 10.328125 0 L 7.46875 0 Z M 7.46875 -18.578125 "/></g></g></g><g fill="#ff66c4" fill-opacity="1"><g transform="translate(231.077056, 193.000386)"><g><path d="M 5.234375 0 L 2.390625 0 L 2.390625 -21.109375 L 5.234375 -21.109375 Z M 5.234375 0 "/></g></g></g><g fill="#ff66c4" fill-opacity="1"><g transform="translate(241.068447, 193.000386)"><g><path d="M 18.796875 -10.546875 C 18.796875 -13.023438 18.140625 -15.078125 16.828125 -16.703125 C 15.523438 -18.328125 13.726562 -19.140625 11.4375 -19.140625 C 9.1875 -19.140625 7.398438 -18.328125 6.078125 -16.703125 C 4.753906 -15.078125 4.09375 -13.023438 4.09375 -10.546875 C 4.09375 -8.003906 4.757812 -5.9375 6.09375 -4.34375 C 7.4375 -2.757812 9.21875 -1.96875 11.4375 -1.96875 C 13.613281 -1.96875 15.382812 -2.742188 16.75 -4.296875 C 18.113281 -5.847656 18.796875 -7.929688 18.796875 -10.546875 Z M 21.71875 -10.546875 C 21.71875 -7.398438 20.804688 -4.757812 18.984375 -2.625 C 17.171875 -0.5 14.65625 0.5625 11.4375 0.5625 C 8.207031 0.5625 5.6875 -0.5 3.875 -2.625 C 2.0625 -4.757812 1.15625 -7.398438 1.15625 -10.546875 C 1.15625 -13.710938 2.0625 -16.359375 3.875 -18.484375 C 5.6875 -20.609375 8.207031 -21.671875 11.4375 -21.671875 C 14.75 -21.671875 17.289062 -20.585938 19.0625 -18.421875 C 20.832031 -16.253906 21.71875 -13.628906 21.71875 -10.546875 Z M 21.71875 -10.546875 "/></g></g></g><g fill="#ff66c4" fill-opacity="1"><g transform="translate(266.348827, 193.000386)"><g><path d="M 16.359375 -21.109375 L 19.109375 -21.109375 L 19.109375 0 L 15.9375 0 L 5.171875 -17.0625 L 5.109375 -17.0625 L 5.109375 0 L 2.390625 0 L 2.390625 -21.109375 L 5.734375 -21.109375 L 16.296875 -4.0625 L 16.359375 -4.0625 Z M 16.359375 -21.109375 "/></g></g></g><g fill="#ff66c4" fill-opacity="1"><g transform="translate(290.251044, 193.000386)"><g><path d="M 14.8125 -14.9375 C 14.757812 -16.269531 14.257812 -17.316406 13.3125 -18.078125 C 12.375 -18.835938 11.132812 -19.21875 9.59375 -19.21875 C 8.039062 -19.21875 6.847656 -18.898438 6.015625 -18.265625 C 5.179688 -17.628906 4.765625 -16.710938 4.765625 -15.515625 C 4.765625 -14.878906 4.945312 -14.332031 5.3125 -13.875 C 5.675781 -13.414062 6.328125 -13.070312 7.265625 -12.84375 L 13.296875 -11.46875 C 14.921875 -11.113281 16.125 -10.441406 16.90625 -9.453125 C 17.695312 -8.460938 18.09375 -7.253906 18.09375 -5.828125 C 18.09375 -3.742188 17.328125 -2.15625 15.796875 -1.0625 C 14.265625 0.0195312 12.273438 0.5625 9.828125 0.5625 C 7.953125 0.5625 6.476562 0.320312 5.40625 -0.15625 C 4.332031 -0.632812 3.378906 -1.394531 2.546875 -2.4375 C 1.710938 -3.476562 1.296875 -4.9375 1.296875 -6.8125 L 3.96875 -6.8125 C 3.96875 -5.25 4.488281 -4.035156 5.53125 -3.171875 C 6.570312 -2.304688 7.992188 -1.875 9.796875 -1.875 C 11.535156 -1.875 12.890625 -2.179688 13.859375 -2.796875 C 14.835938 -3.421875 15.328125 -4.300781 15.328125 -5.4375 C 15.328125 -6.476562 15.035156 -7.253906 14.453125 -7.765625 C 13.867188 -8.273438 12.738281 -8.726562 11.0625 -9.125 L 6.5 -10.1875 C 4.988281 -10.53125 3.859375 -11.128906 3.109375 -11.984375 C 2.367188 -12.835938 2 -13.890625 2 -15.140625 C 2 -17.035156 2.632812 -18.597656 3.90625 -19.828125 C 5.1875 -21.054688 6.972656 -21.671875 9.265625 -21.671875 C 11.847656 -21.671875 13.835938 -21.128906 15.234375 -20.046875 C 16.640625 -18.972656 17.394531 -17.269531 17.5 -14.9375 Z M 14.8125 -14.9375 "/></g></g></g></svg>