<svg width="100%" height="100%" viewBox="0 0 200 200" xmlns="http://www.w3.org/2000/svg" xmlns:xlink="http://www.w3.org/1999/xlink">
  <defs>
    <clipPath id="clip0_224_605">
      <path d="M50 50.5H50.5V50V49.5C23.2199 49.5 1.04241 27.6526 0.509799 0.5H199.491C198.957 27.6526 176.781 49.5 149.5 49.5V50V50.5H150C177.338 50.5 199.5 72.6619 199.5 100C199.5 125.033 180.918 145.726 156.795 149.038L156.791 150.028C180.949 153.556 199.5 174.363 199.5 199.5H0.5C0.5 174.363 19.0509 153.556 43.2094 150.028L43.2051 149.038C19.0823 145.726 0.5 125.033 0.5 100C0.5 72.6619 22.6619 50.5 50 50.5Z"/>
    </clipPath>
  </defs>


<image href="https://peekinsights.co/wp-content/uploads/2024/09/store-front.jpg.webp" width="200" loading="lazy" height="200" clip-path="url(#clip0_224_605)" preserveAspectRatio="xMidYMid slice"/>
	
	
	

  <path d="M50 50.5H50.5V50V49.5C23.2199 49.5 1.04241 27.6526 0.509799 0.5H199.491C198.957 27.6526 176.781 49.5 149.5 49.5V50V50.5H150C177.338 50.5 199.5 72.6619 199.5 100C199.5 125.033 180.918 145.726 156.795 149.038L156.791 150.028C180.949 153.556 199.5 174.363 199.5 199.5H0.5C0.5 174.363 19.0509 153.556 43.2094 150.028L43.2051 149.038C19.0823 145.726 0.5 125.033 0.5 100C0.5 72.6619 22.6619 50.5 50 50.5Z" fill="none" stroke="black" vector-effect="non-scaling-stroke"/>
</svg>