<svg xmlns="http://www.w3.org/2000/svg" xmlns:xlink="http://www.w3.org/1999/xlink" width="1080" zoomAndPan="magnify" viewBox="0 0 810 809.999993" height="1080" preserveAspectRatio="xMidYMid meet" version="1.0"><defs><clipPath id="582b49a346"><path d="M 20.605469 290 L 773 290 L 773 418 L 20.605469 418 Z M 20.605469 290 " clip-rule="nonzero"/></clipPath><clipPath id="709344729e"><path d="M 668 499 L 703 499 L 703 533.636719 L 668 533.636719 Z M 668 499 " clip-rule="nonzero"/></clipPath><clipPath id="9d5bf4167f"><path d="M 755 276.386719 L 789.355469 276.386719 L 789.355469 311 L 755 311 Z M 755 276.386719 " clip-rule="nonzero"/></clipPath></defs><g clip-path="url(#582b49a346)"><path fill="#000000" d="M 772.582031 299.679688 L 692.507812 299.328125 L 652.484375 299.246094 C 639.140625 299.246094 625.820312 299.246094 612.507812 299.484375 C 599.144531 299.714844 585.757812 299.722656 572.414062 299.722656 L 532.363281 299.640625 L 452.277344 299.289062 L 454.046875 298.691406 L 298.371094 416.578125 L 297.785156 417.023438 L 297.074219 417.023438 L 20.855469 414.882812 L 297.070312 412.742188 L 295.773438 413.183594 L 450.492188 294.058594 L 451.261719 293.46875 L 452.257812 293.46875 L 532.332031 293 L 572.359375 292.671875 C 585.703125 292.53125 599.023438 292.386719 612.335938 292.023438 C 625.699219 291.65625 639.082031 291.515625 652.425781 291.371094 L 692.476562 291.046875 L 772.566406 290.578125 Z M 772.582031 299.679688 " fill-opacity="1" fill-rule="nonzero"/></g><path fill="#000000" d="M 685.425781 519.539062 L 357.890625 520.390625 L 356.617188 520.390625 L 355.914062 519.347656 L 253.96875 367.0625 L 255.578125 367.914062 L 190.835938 367.765625 L 158.476562 367.746094 L 142.292969 367.773438 L 138.253906 367.804688 L 136.242188 367.835938 L 135.464844 367.835938 C 134.550781 368.765625 137.152344 366.78125 135.535156 365.84375 L 135.464844 365.84375 C 135.558594 365.84375 135.746094 365.863281 135.902344 365.871094 L 136.394531 365.890625 C 139.070312 365.976562 141.777344 366.019531 144.472656 366.074219 C 147.167969 366.132812 149.875 366.175781 152.574219 366.261719 L 153.089844 366.28125 C 153.269531 366.28125 153.421875 366.28125 153.65625 366.316406 C 153.71875 366.320312 153.777344 366.332031 153.835938 366.34375 C 155.296875 367.148438 152.957031 368.949219 153.722656 368.121094 C 153.636719 368.121094 153.589844 368.121094 153.539062 368.136719 L 153.253906 368.136719 L 152.738281 368.152344 L 150.703125 368.183594 L 146.652344 368.210938 L 130.460938 368.238281 L 98.089844 368.207031 L 33.34375 368.058594 L 98.082031 367.246094 L 130.449219 366.796875 L 146.628906 366.527344 L 150.667969 366.4375 L 152.679688 366.378906 L 153.171875 366.355469 L 153.402344 366.34375 L 153.46875 366.34375 C 154.253906 365.511719 152.027344 367.292969 153.410156 368.078125 L 153.464844 368.078125 C 153.359375 368.078125 153.179688 368.0625 153.019531 368.058594 L 152.519531 368.058594 C 149.84375 368.011719 147.136719 368.007812 144.441406 367.992188 C 141.746094 367.972656 139.039062 367.972656 136.335938 367.925781 L 135.820312 367.925781 C 135.640625 367.925781 135.492188 367.925781 135.253906 367.898438 C 135.1875 367.890625 135.121094 367.882812 135.054688 367.867188 C 133.351562 366.898438 136.078125 364.894531 135.183594 365.824219 C 135.28125 365.824219 135.324219 365.808594 135.378906 365.804688 L 135.660156 365.789062 L 136.183594 365.765625 L 138.21875 365.707031 L 142.269531 365.617188 L 158.457031 365.347656 L 190.828125 364.898438 L 255.558594 364.050781 L 256.582031 364.050781 L 257.164062 364.902344 L 359.835938 516.703125 L 357.863281 515.660156 L 685.394531 513.238281 Z M 685.425781 519.539062 " fill-opacity="1" fill-rule="nonzero"/><path fill="#000000" d="M 514.476562 448.90625 C 514.476562 449.464844 514.449219 450.023438 514.394531 450.578125 C 514.339844 451.136719 514.257812 451.6875 514.148438 452.238281 C 514.039062 452.785156 513.902344 453.328125 513.742188 453.859375 C 513.578125 454.394531 513.390625 454.921875 513.175781 455.4375 C 512.960938 455.953125 512.722656 456.460938 512.460938 456.953125 C 512.195312 457.445312 511.910156 457.925781 511.597656 458.390625 C 511.289062 458.855469 510.957031 459.300781 510.601562 459.734375 C 510.246094 460.167969 509.871094 460.582031 509.476562 460.976562 C 509.082031 461.371094 508.667969 461.746094 508.234375 462.101562 C 507.800781 462.457031 507.355469 462.789062 506.890625 463.097656 C 506.425781 463.410156 505.945312 463.695312 505.453125 463.960938 C 504.960938 464.222656 504.453125 464.460938 503.9375 464.675781 C 503.421875 464.890625 502.894531 465.078125 502.359375 465.242188 C 501.828125 465.402344 501.285156 465.539062 500.738281 465.648438 C 500.1875 465.757812 499.636719 465.839844 499.078125 465.894531 C 498.523438 465.949219 497.964844 465.976562 497.40625 465.976562 C 496.847656 465.976562 496.289062 465.949219 495.734375 465.894531 C 495.175781 465.839844 494.625 465.757812 494.078125 465.648438 C 493.527344 465.539062 492.988281 465.402344 492.453125 465.242188 C 491.917969 465.078125 491.390625 464.890625 490.875 464.675781 C 490.359375 464.460938 489.851562 464.222656 489.359375 463.960938 C 488.867188 463.695312 488.386719 463.410156 487.921875 463.097656 C 487.457031 462.789062 487.011719 462.457031 486.578125 462.101562 C 486.144531 461.746094 485.730469 461.371094 485.335938 460.976562 C 484.941406 460.582031 484.566406 460.167969 484.210938 459.734375 C 483.855469 459.300781 483.523438 458.855469 483.214844 458.390625 C 482.902344 457.925781 482.617188 457.445312 482.351562 456.953125 C 482.089844 456.460938 481.851562 455.953125 481.636719 455.4375 C 481.421875 454.921875 481.234375 454.394531 481.074219 453.859375 C 480.910156 453.328125 480.773438 452.785156 480.664062 452.238281 C 480.554688 451.6875 480.472656 451.136719 480.417969 450.578125 C 480.363281 450.023438 480.335938 449.464844 480.335938 448.90625 C 480.335938 448.347656 480.363281 447.789062 480.417969 447.234375 C 480.472656 446.675781 480.554688 446.125 480.664062 445.578125 C 480.773438 445.027344 480.910156 444.488281 481.074219 443.953125 C 481.234375 443.417969 481.421875 442.890625 481.636719 442.375 C 481.851562 441.859375 482.089844 441.351562 482.351562 440.859375 C 482.617188 440.367188 482.902344 439.886719 483.214844 439.421875 C 483.523438 438.957031 483.855469 438.511719 484.210938 438.078125 C 484.566406 437.644531 484.941406 437.230469 485.335938 436.835938 C 485.730469 436.441406 486.144531 436.066406 486.578125 435.710938 C 487.011719 435.355469 487.457031 435.023438 487.921875 434.714844 C 488.386719 434.402344 488.867188 434.117188 489.359375 433.851562 C 489.851562 433.589844 490.359375 433.351562 490.875 433.136719 C 491.390625 432.921875 491.917969 432.734375 492.453125 432.574219 C 492.988281 432.410156 493.527344 432.273438 494.078125 432.164062 C 494.625 432.054688 495.175781 431.972656 495.734375 431.917969 C 496.289062 431.863281 496.847656 431.835938 497.40625 431.835938 C 497.964844 431.835938 498.523438 431.863281 499.078125 431.917969 C 499.636719 431.972656 500.1875 432.054688 500.734375 432.164062 C 501.285156 432.273438 501.828125 432.410156 502.359375 432.574219 C 502.894531 432.734375 503.421875 432.921875 503.9375 433.136719 C 504.453125 433.351562 504.960938 433.589844 505.453125 433.851562 C 505.945312 434.117188 506.425781 434.402344 506.890625 434.714844 C 507.355469 435.023438 507.800781 435.355469 508.234375 435.710938 C 508.667969 436.066406 509.082031 436.441406 509.476562 436.835938 C 509.871094 437.230469 510.246094 437.644531 510.601562 438.078125 C 510.957031 438.511719 511.289062 438.957031 511.597656 439.421875 C 511.910156 439.886719 512.195312 440.367188 512.460938 440.859375 C 512.722656 441.351562 512.960938 441.859375 513.175781 442.375 C 513.390625 442.890625 513.578125 443.417969 513.742188 443.953125 C 513.902344 444.488281 514.039062 445.027344 514.148438 445.578125 C 514.257812 446.125 514.339844 446.675781 514.394531 447.234375 C 514.449219 447.789062 514.476562 448.347656 514.476562 448.90625 Z M 514.476562 448.90625 " fill-opacity="1" fill-rule="nonzero"/><g clip-path="url(#709344729e)"><path fill="#000000" d="M 702.429688 516.527344 C 702.429688 517.085938 702.402344 517.644531 702.347656 518.203125 C 702.292969 518.757812 702.210938 519.308594 702.101562 519.859375 C 701.992188 520.40625 701.859375 520.949219 701.695312 521.484375 C 701.53125 522.019531 701.34375 522.542969 701.132812 523.058594 C 700.917969 523.578125 700.679688 524.082031 700.414062 524.574219 C 700.152344 525.066406 699.863281 525.546875 699.554688 526.011719 C 699.242188 526.476562 698.910156 526.925781 698.554688 527.355469 C 698.203125 527.789062 697.828125 528.203125 697.429688 528.597656 C 697.035156 528.992188 696.621094 529.367188 696.191406 529.722656 C 695.757812 530.078125 695.308594 530.410156 694.84375 530.71875 C 694.378906 531.03125 693.902344 531.316406 693.40625 531.582031 C 692.914062 531.84375 692.410156 532.085938 691.894531 532.296875 C 691.375 532.511719 690.851562 532.699219 690.316406 532.863281 C 689.78125 533.023438 689.238281 533.160156 688.691406 533.269531 C 688.144531 533.378906 687.589844 533.460938 687.035156 533.515625 C 686.476562 533.570312 685.921875 533.597656 685.363281 533.597656 C 684.800781 533.597656 684.246094 533.570312 683.6875 533.515625 C 683.132812 533.460938 682.578125 533.378906 682.03125 533.269531 C 681.484375 533.160156 680.941406 533.023438 680.40625 532.863281 C 679.871094 532.699219 679.347656 532.511719 678.828125 532.296875 C 678.3125 532.085938 677.808594 531.84375 677.316406 531.582031 C 676.820312 531.316406 676.34375 531.03125 675.878906 530.71875 C 675.414062 530.410156 674.964844 530.078125 674.53125 529.722656 C 674.101562 529.367188 673.6875 528.992188 673.292969 528.597656 C 672.898438 528.203125 672.523438 527.789062 672.167969 527.355469 C 671.8125 526.925781 671.480469 526.476562 671.167969 526.011719 C 670.859375 525.546875 670.570312 525.066406 670.308594 524.574219 C 670.042969 524.082031 669.804688 523.578125 669.589844 523.058594 C 669.378906 522.542969 669.191406 522.019531 669.027344 521.484375 C 668.863281 520.949219 668.730469 520.40625 668.621094 519.859375 C 668.511719 519.308594 668.429688 518.757812 668.375 518.203125 C 668.320312 517.644531 668.292969 517.085938 668.292969 516.527344 C 668.292969 515.96875 668.320312 515.410156 668.375 514.855469 C 668.429688 514.300781 668.511719 513.746094 668.621094 513.199219 C 668.730469 512.648438 668.863281 512.109375 669.027344 511.574219 C 669.191406 511.039062 669.378906 510.511719 669.589844 509.996094 C 669.804688 509.480469 670.042969 508.976562 670.308594 508.480469 C 670.570312 507.988281 670.859375 507.511719 671.167969 507.046875 C 671.480469 506.582031 671.8125 506.132812 672.167969 505.699219 C 672.523438 505.269531 672.898438 504.855469 673.292969 504.457031 C 673.6875 504.0625 674.101562 503.6875 674.53125 503.332031 C 674.964844 502.980469 675.414062 502.648438 675.878906 502.335938 C 676.34375 502.023438 676.820312 501.738281 677.316406 501.476562 C 677.808594 501.210938 678.3125 500.972656 678.828125 500.757812 C 679.347656 500.542969 679.871094 500.355469 680.40625 500.195312 C 680.941406 500.03125 681.484375 499.894531 682.03125 499.789062 C 682.578125 499.679688 683.132812 499.597656 683.6875 499.542969 C 684.246094 499.488281 684.800781 499.460938 685.363281 499.460938 C 685.921875 499.460938 686.476562 499.488281 687.035156 499.542969 C 687.589844 499.597656 688.144531 499.679688 688.691406 499.789062 C 689.238281 499.894531 689.78125 500.03125 690.316406 500.195312 C 690.851562 500.355469 691.375 500.542969 691.894531 500.757812 C 692.410156 500.972656 692.914062 501.210938 693.40625 501.476562 C 693.902344 501.738281 694.378906 502.023438 694.84375 502.335938 C 695.308594 502.648438 695.757812 502.980469 696.191406 503.332031 C 696.621094 503.6875 697.035156 504.0625 697.429688 504.457031 C 697.828125 504.855469 698.203125 505.269531 698.554688 505.699219 C 698.910156 506.132812 699.242188 506.582031 699.554688 507.046875 C 699.863281 507.511719 700.152344 507.988281 700.414062 508.480469 C 700.679688 508.976562 700.917969 509.480469 701.132812 509.996094 C 701.34375 510.511719 701.53125 511.039062 701.695312 511.574219 C 701.859375 512.109375 701.992188 512.648438 702.101562 513.199219 C 702.210938 513.746094 702.292969 514.300781 702.347656 514.855469 C 702.402344 515.410156 702.429688 515.96875 702.429688 516.527344 Z M 702.429688 516.527344 " fill-opacity="1" fill-rule="nonzero"/></g><path fill="#000000" d="M 614.242188 399.261719 C 527.648438 399.4375 441.046875 399.972656 354.441406 400.148438 L 353.171875 400.148438 L 352.472656 399.105469 L 284.125 297.351562 L 285.730469 298.207031 L 33.347656 298.351562 L 285.703125 294.359375 L 286.722656 294.339844 L 287.3125 295.195312 L 356.375 396.464844 L 354.410156 395.425781 C 441 394.726562 527.59375 393.671875 614.207031 392.972656 Z M 614.242188 399.261719 " fill-opacity="1" fill-rule="nonzero"/><path fill="#000000" d="M 631.246094 396.246094 C 631.246094 396.804688 631.21875 397.363281 631.164062 397.917969 C 631.109375 398.476562 631.027344 399.027344 630.917969 399.578125 C 630.808594 400.125 630.671875 400.667969 630.511719 401.203125 C 630.347656 401.734375 630.160156 402.261719 629.945312 402.777344 C 629.730469 403.292969 629.492188 403.800781 629.230469 404.292969 C 628.964844 404.785156 628.679688 405.265625 628.367188 405.730469 C 628.058594 406.195312 627.726562 406.644531 627.371094 407.074219 C 627.015625 407.507812 626.640625 407.921875 626.246094 408.316406 C 625.851562 408.710938 625.4375 409.085938 625.003906 409.441406 C 624.574219 409.796875 624.125 410.128906 623.660156 410.4375 C 623.195312 410.75 622.714844 411.035156 622.222656 411.300781 C 621.730469 411.5625 621.226562 411.800781 620.707031 412.015625 C 620.191406 412.230469 619.667969 412.417969 619.132812 412.582031 C 618.597656 412.742188 618.054688 412.878906 617.507812 412.988281 C 616.957031 413.097656 616.40625 413.179688 615.851562 413.234375 C 615.292969 413.289062 614.734375 413.316406 614.175781 413.316406 C 613.617188 413.316406 613.058594 413.289062 612.503906 413.234375 C 611.945312 413.179688 611.394531 413.097656 610.847656 412.988281 C 610.296875 412.878906 609.757812 412.742188 609.222656 412.582031 C 608.6875 412.417969 608.160156 412.230469 607.644531 412.015625 C 607.128906 411.800781 606.625 411.5625 606.128906 411.300781 C 605.636719 411.035156 605.160156 410.75 604.695312 410.4375 C 604.230469 410.128906 603.78125 409.796875 603.347656 409.441406 C 602.914062 409.085938 602.503906 408.710938 602.105469 408.316406 C 601.710938 407.921875 601.335938 407.507812 600.980469 407.074219 C 600.628906 406.644531 600.292969 406.195312 599.984375 405.730469 C 599.671875 405.265625 599.386719 404.785156 599.121094 404.292969 C 598.859375 403.800781 598.621094 403.292969 598.40625 402.777344 C 598.191406 402.261719 598.003906 401.734375 597.84375 401.203125 C 597.679688 400.667969 597.542969 400.125 597.433594 399.578125 C 597.328125 399.027344 597.246094 398.476562 597.191406 397.917969 C 597.136719 397.363281 597.109375 396.804688 597.109375 396.246094 C 597.109375 395.6875 597.136719 395.128906 597.191406 394.574219 C 597.246094 394.015625 597.328125 393.464844 597.433594 392.917969 C 597.542969 392.367188 597.679688 391.828125 597.84375 391.292969 C 598.003906 390.757812 598.191406 390.230469 598.40625 389.714844 C 598.621094 389.199219 598.859375 388.691406 599.121094 388.199219 C 599.386719 387.707031 599.671875 387.226562 599.984375 386.761719 C 600.292969 386.296875 600.628906 385.851562 600.980469 385.417969 C 601.335938 384.984375 601.710938 384.570312 602.105469 384.175781 C 602.503906 383.78125 602.914062 383.40625 603.347656 383.050781 C 603.78125 382.695312 604.230469 382.363281 604.695312 382.054688 C 605.160156 381.742188 605.636719 381.457031 606.128906 381.191406 C 606.625 380.929688 607.128906 380.691406 607.644531 380.476562 C 608.160156 380.261719 608.6875 380.074219 609.222656 379.914062 C 609.757812 379.75 610.296875 379.613281 610.847656 379.503906 C 611.394531 379.394531 611.945312 379.3125 612.503906 379.257812 C 613.058594 379.203125 613.617188 379.175781 614.175781 379.175781 C 614.734375 379.175781 615.292969 379.203125 615.851562 379.257812 C 616.40625 379.3125 616.957031 379.394531 617.507812 379.503906 C 618.054688 379.613281 618.597656 379.75 619.132812 379.914062 C 619.667969 380.074219 620.191406 380.261719 620.707031 380.476562 C 621.226562 380.691406 621.730469 380.929688 622.222656 381.191406 C 622.714844 381.457031 623.195312 381.742188 623.660156 382.054688 C 624.125 382.363281 624.574219 382.695312 625.003906 383.050781 C 625.4375 383.40625 625.851562 383.78125 626.246094 384.175781 C 626.640625 384.570312 627.015625 384.984375 627.371094 385.417969 C 627.726562 385.851562 628.058594 386.296875 628.367188 386.761719 C 628.679688 387.226562 628.964844 387.707031 629.230469 388.199219 C 629.492188 388.691406 629.730469 389.199219 629.945312 389.714844 C 630.160156 390.230469 630.347656 390.757812 630.511719 391.292969 C 630.671875 391.828125 630.808594 392.367188 630.917969 392.917969 C 631.027344 393.464844 631.109375 394.015625 631.164062 394.574219 C 631.21875 395.128906 631.246094 395.6875 631.246094 396.246094 Z M 631.246094 396.246094 " fill-opacity="1" fill-rule="nonzero"/><g clip-path="url(#9d5bf4167f)"><path fill="#000000" d="M 789.144531 293.460938 C 789.144531 294.023438 789.117188 294.578125 789.0625 295.136719 C 789.007812 295.691406 788.925781 296.246094 788.816406 296.792969 C 788.707031 297.339844 788.570312 297.882812 788.40625 298.417969 C 788.246094 298.953125 788.058594 299.476562 787.84375 299.996094 C 787.628906 300.511719 787.390625 301.015625 787.128906 301.507812 C 786.863281 302.003906 786.578125 302.480469 786.265625 302.945312 C 785.957031 303.410156 785.625 303.859375 785.269531 304.292969 C 784.914062 304.722656 784.539062 305.136719 784.144531 305.53125 C 783.75 305.925781 783.335938 306.300781 782.902344 306.65625 C 782.46875 307.011719 782.023438 307.34375 781.558594 307.65625 C 781.09375 307.964844 780.613281 308.253906 780.121094 308.515625 C 779.628906 308.78125 779.121094 309.019531 778.605469 309.234375 C 778.089844 309.445312 777.5625 309.632812 777.027344 309.796875 C 776.492188 309.960938 775.953125 310.09375 775.402344 310.203125 C 774.855469 310.3125 774.304688 310.394531 773.746094 310.449219 C 773.191406 310.503906 772.632812 310.53125 772.074219 310.53125 C 771.515625 310.53125 770.957031 310.503906 770.402344 310.449219 C 769.84375 310.394531 769.292969 310.3125 768.742188 310.203125 C 768.195312 310.09375 767.652344 309.960938 767.117188 309.796875 C 766.585938 309.632812 766.058594 309.445312 765.542969 309.234375 C 765.027344 309.019531 764.519531 308.78125 764.027344 308.515625 C 763.535156 308.253906 763.054688 307.964844 762.589844 307.65625 C 762.125 307.34375 761.675781 307.011719 761.246094 306.65625 C 760.8125 306.300781 760.398438 305.925781 760.003906 305.53125 C 759.609375 305.136719 759.234375 304.722656 758.878906 304.292969 C 758.523438 303.859375 758.191406 303.410156 757.882812 302.945312 C 757.570312 302.480469 757.285156 302.003906 757.019531 301.507812 C 756.757812 301.015625 756.519531 300.511719 756.304688 299.996094 C 756.089844 299.476562 755.902344 298.953125 755.738281 298.417969 C 755.578125 297.882812 755.441406 297.339844 755.332031 296.792969 C 755.222656 296.246094 755.140625 295.691406 755.085938 295.136719 C 755.03125 294.578125 755.003906 294.023438 755.003906 293.460938 C 755.003906 292.902344 755.03125 292.347656 755.085938 291.789062 C 755.140625 291.234375 755.222656 290.679688 755.332031 290.132812 C 755.441406 289.585938 755.578125 289.042969 755.738281 288.507812 C 755.902344 287.972656 756.089844 287.445312 756.304688 286.929688 C 756.519531 286.414062 756.757812 285.910156 757.019531 285.417969 C 757.285156 284.921875 757.570312 284.445312 757.882812 283.980469 C 758.191406 283.515625 758.523438 283.066406 758.878906 282.632812 C 759.234375 282.203125 759.609375 281.789062 760.003906 281.394531 C 760.398438 280.996094 760.8125 280.621094 761.246094 280.269531 C 761.675781 279.914062 762.125 279.582031 762.589844 279.269531 C 763.054688 278.960938 763.535156 278.671875 764.027344 278.410156 C 764.519531 278.144531 765.027344 277.90625 765.542969 277.691406 C 766.058594 277.480469 766.585938 277.292969 767.121094 277.128906 C 767.652344 276.964844 768.195312 276.832031 768.742188 276.722656 C 769.292969 276.613281 769.84375 276.53125 770.402344 276.476562 C 770.957031 276.421875 771.515625 276.394531 772.074219 276.394531 C 772.632812 276.394531 773.191406 276.421875 773.746094 276.476562 C 774.304688 276.53125 774.855469 276.613281 775.402344 276.722656 C 775.953125 276.832031 776.492188 276.964844 777.027344 277.128906 C 777.5625 277.292969 778.089844 277.480469 778.605469 277.691406 C 779.121094 277.90625 779.628906 278.144531 780.121094 278.410156 C 780.613281 278.671875 781.09375 278.960938 781.558594 279.269531 C 782.023438 279.582031 782.46875 279.914062 782.902344 280.269531 C 783.335938 280.621094 783.75 280.996094 784.144531 281.394531 C 784.539062 281.789062 784.914062 282.203125 785.269531 282.632812 C 785.625 283.066406 785.957031 283.515625 786.265625 283.980469 C 786.578125 284.445312 786.863281 284.921875 787.128906 285.417969 C 787.390625 285.910156 787.628906 286.414062 787.84375 286.929688 C 788.058594 287.445312 788.246094 287.972656 788.40625 288.507812 C 788.570312 289.042969 788.707031 289.585938 788.816406 290.132812 C 788.925781 290.679688 789.007812 291.234375 789.0625 291.789062 C 789.117188 292.347656 789.144531 292.902344 789.144531 293.460938 Z M 789.144531 293.460938 " fill-opacity="1" fill-rule="nonzero"/></g><path fill="#000000" d="M 496.441406 453.175781 L 33.230469 451.148438 L 496.414062 445.902344 Z M 496.441406 453.175781 " fill-opacity="1" fill-rule="nonzero"/></svg>