<svg xmlns="http://www.w3.org/2000/svg" xmlns:xlink="http://www.w3.org/1999/xlink" width="816" zoomAndPan="magnify" viewBox="0 0 612 791.999994" height="1056" preserveAspectRatio="xMidYMid meet" version="1.0"><defs><clipPath id="fadaac05ca"><path d="M 230 373 L 368 373 L 368 434.597656 L 230 434.597656 Z M 230 373 " clip-rule="nonzero"/></clipPath></defs><path fill="#b7d8cc" d="M 82.296875 303.730469 C 63.828125 311.558594 56.34375 336.773438 65.414062 354.65625 C 74.484375 372.539062 96.816406 381.574219 116.496094 377.695312 C 122.859375 376.4375 129.085938 373.953125 134.136719 369.882812 C 142.964844 362.761719 147.519531 351.101562 147.191406 339.773438 C 146.96875 331.925781 144.226562 324.460938 139.792969 318.0625 C 128.308594 301.453125 106.648438 295.210938 87.589844 301.886719 Z M 82.296875 303.730469 " fill-opacity="1" fill-rule="nonzero"/><path fill="#b7d8cc" d="M 107.355469 385.492188 C 87.332031 385.492188 67.8125 374.660156 59.242188 357.792969 C 53.808594 347.085938 53.171875 333.511719 57.550781 321.511719 C 61.671875 310.230469 69.5 301.660156 79.589844 297.382812 C 79.726562 297.332031 79.867188 297.28125 80.003906 297.230469 L 85.296875 295.382812 C 107.664062 287.554688 132.414062 295.261719 145.484375 314.148438 C 150.863281 321.925781 153.847656 330.71875 154.105469 339.582031 C 154.519531 353.707031 148.675781 367.054688 138.484375 375.28125 C 132.894531 379.800781 125.945312 382.886719 117.839844 384.492188 C 114.375 385.179688 110.855469 385.507812 107.371094 385.507812 Z M 84.816406 310.179688 C 78.382812 312.972656 73.328125 318.664062 70.570312 326.234375 C 67.464844 334.703125 67.863281 344.152344 71.589844 351.515625 C 78.953125 366.019531 97.699219 374.367188 115.167969 370.902344 C 120.960938 369.761719 126.03125 367.539062 129.808594 364.484375 C 136.550781 359.035156 140.570312 349.636719 140.292969 339.964844 C 140.121094 333.773438 137.984375 327.5625 134.121094 321.992188 C 124.601562 308.214844 106.40625 302.644531 89.886719 308.421875 L 84.816406 310.199219 Z M 84.816406 310.179688 " fill-opacity="1" fill-rule="nonzero"/><path fill="#ffffff" d="M 76.503906 315.492188 C 73.328125 321.597656 73.898438 329.597656 81.332031 334.304688 C 86.125 337.339844 92.128906 338.1875 97.078125 335.410156 C 98.25 334.753906 99.335938 333.925781 100.25 332.925781 C 103.199219 329.683594 103.976562 324.820312 102.75 320.613281 C 101.679688 316.941406 99.25 313.785156 96.230469 311.40625 C 95.371094 310.714844 94.371094 310.214844 93.351562 309.800781 C 87.109375 307.25 79.625 309.492188 76.519531 315.492188 Z M 76.503906 315.492188 " fill-opacity="1" fill-rule="nonzero"/><path fill="#b7d8cc" d="M 90.472656 341.703125 C 86.558594 341.703125 82.503906 340.53125 78.867188 338.222656 C 68.878906 331.875 68.519531 320.890625 72.414062 313.386719 C 76.519531 305.472656 86.488281 302.023438 95.09375 305.558594 C 96.664062 306.195312 97.972656 306.9375 99.078125 307.800781 C 103.09375 310.957031 105.90625 314.957031 107.183594 319.335938 C 108.925781 325.339844 107.578125 331.753906 103.648438 336.046875 C 102.441406 337.375 100.992188 338.515625 99.320312 339.445312 C 96.628906 340.945312 93.574219 341.703125 90.453125 341.703125 Z M 88.023438 313.371094 C 84.917969 313.371094 82.003906 314.921875 80.605469 317.613281 C 78.574219 321.527344 78.347656 326.941406 83.816406 330.410156 C 87.558594 332.789062 91.679688 333.132812 94.835938 331.375 C 95.628906 330.925781 96.300781 330.410156 96.835938 329.824219 C 98.558594 327.941406 99.144531 324.753906 98.316406 321.890625 C 97.59375 319.390625 95.835938 316.957031 93.367188 315.027344 C 92.9375 314.699219 92.351562 314.371094 91.574219 314.058594 C 90.402344 313.578125 89.179688 313.351562 87.988281 313.351562 Z M 76.519531 315.492188 Z M 76.519531 315.492188 " fill-opacity="1" fill-rule="nonzero"/><g clip-path="url(#fadaac05ca)"><path fill="#b7d8cc" d="M 294.191406 434.449219 C 271.960938 434.449219 249.421875 425.308594 233.023438 409.132812 C 230.296875 406.460938 230.28125 402.082031 232.953125 399.355469 C 235.625 396.632812 240.023438 396.613281 242.730469 399.285156 C 259.320312 415.652344 283.257812 423.480469 305.195312 419.707031 C 327.664062 415.824219 347.410156 399.269531 354.34375 378.507812 C 355.550781 374.886719 359.464844 372.917969 363.085938 374.125 C 366.707031 375.332031 368.675781 379.246094 367.46875 382.871094 C 358.964844 408.324219 334.890625 428.605469 307.539062 433.328125 C 303.140625 434.089844 298.675781 434.46875 294.191406 434.46875 Z M 294.191406 434.449219 " fill-opacity="1" fill-rule="nonzero"/></g><path fill="#b7d8cc" d="M 571.167969 368.46875 C 570.03125 368.46875 568.875 368.296875 567.738281 367.953125 C 529.296875 356.019531 488.132812 354 448.726562 362.15625 C 444.589844 363.003906 440.328125 361.535156 437.605469 358.328125 C 434.878906 355.121094 434.121094 350.671875 435.621094 346.742188 C 450.382812 308.300781 484.425781 278.484375 524.46875 268.910156 C 530.660156 267.429688 536.886719 271.257812 538.351562 277.449219 C 539.835938 283.640625 536.007812 289.863281 529.816406 291.332031 C 504.050781 297.46875 481.339844 313.871094 466.9375 335.875 C 503.015625 331.71875 539.800781 335.101562 574.582031 345.894531 C 580.652344 347.792969 584.050781 354.242188 582.171875 360.328125 C 580.636719 365.261719 576.085938 368.433594 571.167969 368.433594 Z M 571.167969 368.46875 " fill-opacity="1" fill-rule="nonzero"/></svg>