<svg width="528" height="228" viewBox="0 0 528 228" fill="none" xmlns="http://www.w3.org/2000/svg">
<path fill-rule="evenodd" clip-rule="evenodd" d="M418 24C418 10.7452 407.255 0 394 0H24C10.7452 0 0 10.7452 0 24V33C0 46.2548 10.7452 57 24 57H36C49.2548 57 60 67.7452 60 81V92C60 105.255 70.7452 116 84 116H136C149.255 116 160 126.745 160 140V146C160 159.255 149.255 170 136 170H25C11.7452 170 1 180.745 1 194V204C1 217.255 11.7452 228 25 228H443C456.255 228 467 217.255 467 204V197C467 183.745 477.745 173 491 173H504C517.255 173 528 162.255 528 149V139C528 125.745 517.255 115 504 115H379C365.745 115 355 104.255 355 91V81C355 67.7452 365.745 57 379 57H394C407.255 57 418 46.2548 418 33V24Z" fill="white"/>
</svg>
