<svg xmlns="http://www.w3.org/2000/svg" xmlns:xlink="http://www.w3.org/1999/xlink" viewBox="0 0 1080 675" width="1080" height="675" preserveAspectRatio="xMidYMid meet" style="width: 100%; height: 100%; transform: translate3d(0px, 0px, 0px); content-visibility: visible;"><defs><clipPath id="__lottie_element_2"><rect width="1080" height="675" x="0" y="0"/></clipPath></defs><g clip-path="url(#__lottie_element_2)"><g transform="matrix(3.3299999237060547,0,0,3.3299999237060547,-2.7333984375,-0.788543701171875)" opacity="1" style="display: block;"><g opacity="1" transform="matrix(1,0,0,1,162.98199462890625,101.43800354003906)"><path fill="rgb(250,250,250)" fill-opacity="1" d=" M40.5124397277832,-74.94335174560547 C40.5124397277832,-79.1153564453125 37.13043975830078,-82.49835205078125 32.958438873291016,-82.49835205078125 C32.958438873291016,-82.49835205078125 -32.92255783081055,-82.49835205078125 -32.92255783081055,-82.49835205078125 C-37.09455871582031,-82.49835205078125 -40.47755813598633,-79.1153564453125 -40.47755813598633,-74.94335174560547 C-40.47755813598633,-74.94335174560547 -40.494998931884766,-44 -40.494998931884766,-44 C-40.494998931884766,-39.827999114990234 -43.87699890136719,-36.44599914550781 -48.04999923706055,-36.44599914550781 C-48.04999923706055,-36.44599914550781 -89.63300323486328,-36.44599914550781 -89.63300323486328,-36.44599914550781 C-93.80599975585938,-36.44599914550781 -97.18800354003906,-33.0629997253418 -97.18800354003906,-28.891000747680664 C-97.18800354003906,-28.891000747680664 -97.18800354003906,20.79199981689453 -97.18800354003906,20.79199981689453 C-97.18800354003906,24.964000701904297 -100.57099914550781,28.347000122070312 -104.74299621582031,28.347000122070312 C-104.74299621582031,28.347000122070312 -135.8142852783203,28.41177749633789 -135.8142852783203,28.41177749633789 C-139.98728942871094,28.41177749633789 -143.36929321289062,31.793777465820312 -143.36929321289062,35.96577835083008 C-143.36929321289062,35.96577835083008 -143.36929321289062,93.7477798461914 -143.36929321289062,93.7477798461914 C-143.36929321289062,97.9197769165039 -139.98728942871094,101.30278015136719 -135.8142852783203,101.30278015136719 C-135.8142852783203,101.30278015136719 -39.95100021362305,101.23799896240234 -39.95100021362305,101.23799896240234 C-35.77799987792969,101.23799896240234 -32.39662170410156,97.8550033569336 -32.39662170410156,93.68299865722656 C-32.39662170410156,93.68299865722656 -32.39662170410156,44 -32.39662170410156,44 C-32.39662170410156,39.827999114990234 -29.01300048828125,36.44599914550781 -24.840999603271484,36.44599914550781 C-24.840999603271484,36.44599914550781 24.841999053955078,36.44599914550781 24.841999053955078,36.44599914550781 C29.013999938964844,36.44599914550781 32.39537811279297,39.827999114990234 32.39537811279297,44 C32.39537811279297,44 32.39537811279297,93.68299865722656 32.39537811279297,93.68299865722656 C32.39537811279297,97.8550033569336 35.77899932861328,101.23799896240234 39.95100021362305,101.23799896240234 C39.95100021362305,101.23799896240234 135.81466674804688,101.27101135253906 135.81466674804688,101.27101135253906 C139.9876708984375,101.27101135253906 143.36965942382812,97.88801574707031 143.36965942382812,93.71601104736328 C143.36965942382812,93.71601104736328 143.36965942382812,35.93401336669922 143.36965942382812,35.93401336669922 C143.36965942382812,31.762012481689453 139.9876708984375,28.38001251220703 135.81466674804688,28.38001251220703 C135.81466674804688,28.38001251220703 104.74400329589844,28.347000122070312 104.74400329589844,28.347000122070312 C100.57099914550781,28.347000122070312 97.18900299072266,24.964000701904297 97.18900299072266,20.79199981689453 C97.18900299072266,20.79199981689453 97.18900299072266,-28.891000747680664 97.18900299072266,-28.891000747680664 C97.18900299072266,-33.0629997253418 93.80599975585938,-36.44599914550781 89.63400268554688,-36.44599914550781 C89.63400268554688,-36.44599914550781 48.04999923706055,-36.44599914550781 48.04999923706055,-36.44599914550781 C43.87799835205078,-36.44599914550781 40.49437713623047,-39.827999114990234 40.49437713623047,-44 C40.49437713623047,-44 40.5124397277832,-74.94335174560547 40.5124397277832,-74.94335174560547z"/></g></g></g></svg>