<svg xmlns="http://www.w3.org/2000/svg" xmlns:xlink="http://www.w3.org/1999/xlink" width="1080" zoomAndPan="magnify" viewBox="0 0 810 1012.49997" height="1350" preserveAspectRatio="xMidYMid meet" version="1.0"><defs><clipPath id="0161daa367"><path d="M 243.078125 482.21875 L 293 482.21875 L 293 529 L 243.078125 529 Z M 243.078125 482.21875 " clip-rule="nonzero"/></clipPath><clipPath id="7f156cf717"><path d="M 312 482.21875 L 361 482.21875 L 361 529 L 312 529 Z M 312 482.21875 " clip-rule="nonzero"/></clipPath><clipPath id="ba5600bd7e"><path d="M 380 482.21875 L 430 482.21875 L 430 529 L 380 529 Z M 380 482.21875 " clip-rule="nonzero"/></clipPath><clipPath id="dab194bcf7"><path d="M 449 482.21875 L 498 482.21875 L 498 529 L 449 529 Z M 449 482.21875 " clip-rule="nonzero"/></clipPath><clipPath id="d1678ea47e"><path d="M 517 482.21875 L 566.921875 482.21875 L 566.921875 529 L 517 529 Z M 517 482.21875 " clip-rule="nonzero"/></clipPath></defs><g clip-path="url(#0161daa367)"><path fill="#e4fd4b" d="M 265.503906 484.390625 C 266.546875 482.222656 269.65625 482.222656 270.699219 484.390625 L 275.785156 494.992188 C 276.207031 495.863281 277.042969 496.46875 278.007812 496.59375 L 289.71875 498.128906 C 292.121094 498.441406 293.082031 501.382812 291.324219 503.039062 L 282.757812 511.121094 C 282.050781 511.789062 281.730469 512.765625 281.90625 513.71875 L 284.058594 525.265625 C 284.5 527.628906 281.984375 529.445312 279.855469 528.296875 L 269.472656 522.695312 C 268.617188 522.234375 267.585938 522.234375 266.726562 522.695312 L 256.34375 528.296875 C 254.21875 529.445312 251.703125 527.628906 252.144531 525.265625 L 254.292969 513.71875 C 254.472656 512.765625 254.152344 511.789062 253.445312 511.121094 L 244.878906 503.039062 C 243.121094 501.382812 244.082031 498.441406 246.480469 498.128906 L 258.195312 496.59375 C 259.160156 496.46875 259.996094 495.863281 260.417969 494.992188 Z M 265.503906 484.390625 " fill-opacity="1" fill-rule="nonzero"/></g><g clip-path="url(#7f156cf717)"><path fill="#e4fd4b" d="M 333.953125 484.390625 C 334.996094 482.222656 338.105469 482.222656 339.148438 484.390625 L 344.234375 494.992188 C 344.65625 495.863281 345.492188 496.46875 346.457031 496.59375 L 358.167969 498.128906 C 360.570312 498.441406 361.53125 501.382812 359.773438 503.039062 L 351.207031 511.121094 C 350.5 511.789062 350.179688 512.765625 350.359375 513.71875 L 352.507812 525.265625 C 352.949219 527.628906 350.433594 529.445312 348.308594 528.296875 L 337.921875 522.695312 C 337.066406 522.234375 336.035156 522.234375 335.179688 522.695312 L 324.792969 528.296875 C 322.667969 529.445312 320.152344 527.628906 320.59375 525.265625 L 322.742188 513.71875 C 322.921875 512.765625 322.601562 511.789062 321.894531 511.121094 L 313.328125 503.039062 C 311.570312 501.382812 312.53125 498.441406 314.929688 498.128906 L 326.644531 496.59375 C 327.609375 496.46875 328.445312 495.863281 328.867188 494.992188 Z M 333.953125 484.390625 " fill-opacity="1" fill-rule="nonzero"/></g><g clip-path="url(#ba5600bd7e)"><path fill="#e4fd4b" d="M 402.402344 484.390625 C 403.445312 482.222656 406.554688 482.222656 407.597656 484.390625 L 412.683594 494.992188 C 413.105469 495.863281 413.941406 496.46875 414.90625 496.59375 L 426.617188 498.128906 C 429.019531 498.441406 429.980469 501.382812 428.222656 503.039062 L 419.65625 511.121094 C 418.949219 511.789062 418.628906 512.765625 418.808594 513.71875 L 420.957031 525.265625 C 421.398438 527.628906 418.882812 529.445312 416.757812 528.296875 L 406.371094 522.695312 C 405.515625 522.234375 404.484375 522.234375 403.628906 522.695312 L 393.242188 528.296875 C 391.117188 529.445312 388.601562 527.628906 389.042969 525.265625 L 391.191406 513.71875 C 391.371094 512.765625 391.050781 511.789062 390.34375 511.121094 L 381.777344 503.039062 C 380.019531 501.382812 380.980469 498.441406 383.382812 498.128906 L 395.09375 496.59375 C 396.058594 496.46875 396.894531 495.863281 397.316406 494.992188 Z M 402.402344 484.390625 " fill-opacity="1" fill-rule="nonzero"/></g><g clip-path="url(#dab194bcf7)"><path fill="#e4fd4b" d="M 470.851562 484.390625 C 471.894531 482.222656 475.003906 482.222656 476.046875 484.390625 L 481.132812 494.992188 C 481.554688 495.863281 482.390625 496.46875 483.355469 496.59375 L 495.070312 498.128906 C 497.46875 498.441406 498.429688 501.382812 496.671875 503.039062 L 488.105469 511.121094 C 487.398438 511.789062 487.078125 512.765625 487.257812 513.71875 L 489.40625 525.265625 C 489.847656 527.628906 487.332031 529.445312 485.207031 528.296875 L 474.820312 522.695312 C 473.964844 522.234375 472.933594 522.234375 472.078125 522.695312 L 461.691406 528.296875 C 459.566406 529.445312 457.050781 527.628906 457.492188 525.265625 L 459.640625 513.71875 C 459.820312 512.765625 459.5 511.789062 458.792969 511.121094 L 450.226562 503.039062 C 448.46875 501.382812 449.429688 498.441406 451.832031 498.128906 L 463.542969 496.59375 C 464.507812 496.46875 465.34375 495.863281 465.765625 494.992188 Z M 470.851562 484.390625 " fill-opacity="1" fill-rule="nonzero"/></g><g clip-path="url(#d1678ea47e)"><path fill="#e4fd4b" d="M 539.300781 484.390625 C 540.34375 482.222656 543.453125 482.222656 544.496094 484.390625 L 549.585938 494.992188 C 550.003906 495.863281 550.839844 496.46875 551.804688 496.59375 L 563.519531 498.128906 C 565.917969 498.441406 566.878906 501.382812 565.121094 503.039062 L 556.554688 511.121094 C 555.847656 511.789062 555.527344 512.765625 555.707031 513.71875 L 557.855469 525.265625 C 558.296875 527.628906 555.78125 529.445312 553.65625 528.296875 L 543.273438 522.695312 C 542.414062 522.234375 541.382812 522.234375 540.527344 522.695312 L 530.144531 528.296875 C 528.015625 529.445312 525.5 527.628906 525.941406 525.265625 L 528.09375 513.71875 C 528.269531 512.765625 527.949219 511.789062 527.242188 511.121094 L 518.675781 503.039062 C 516.917969 501.382812 517.878906 498.441406 520.28125 498.128906 L 531.992188 496.59375 C 532.957031 496.46875 533.792969 495.863281 534.214844 494.992188 Z M 539.300781 484.390625 " fill-opacity="1" fill-rule="nonzero"/></g></svg>