<svg xmlns="http://www.w3.org/2000/svg" xmlns:xlink="http://www.w3.org/1999/xlink" width="1080" zoomAndPan="magnify" viewBox="0 0 810 1012.49997" height="1350" preserveAspectRatio="xMidYMid meet" version="1.0"><defs><clipPath id="0b61736630"><path d="M 66.351562 177.246094 L 416 177.246094 L 416 527 L 66.351562 527 Z M 66.351562 177.246094 " clip-rule="nonzero"/></clipPath><clipPath id="91a6f88943"><path d="M 415 177.246094 L 764.257812 177.246094 L 764.257812 527 L 415 527 Z M 415 177.246094 " clip-rule="nonzero"/></clipPath><clipPath id="2f48c39703"><path d="M 66.351562 526 L 416 526 L 416 875.152344 L 66.351562 875.152344 Z M 66.351562 526 " clip-rule="nonzero"/></clipPath><clipPath id="f137850ebe"><path d="M 415 526 L 764.257812 526 L 764.257812 875.152344 L 415 875.152344 Z M 415 526 " clip-rule="nonzero"/></clipPath></defs><g clip-path="url(#0b61736630)"><path fill="#292929" d="M 415.234375 526.128906 L 415.234375 177.246094 L 66.351562 177.246094 C 66.351562 182.957031 66.496094 188.660156 66.777344 194.363281 C 67.058594 200.066406 67.480469 205.757812 68.039062 211.441406 C 68.601562 217.121094 69.300781 222.785156 70.140625 228.433594 C 70.980469 234.082031 71.957031 239.703125 73.070312 245.304688 C 74.1875 250.902344 75.4375 256.472656 76.828125 262.007812 C 78.214844 267.546875 79.738281 273.046875 81.398438 278.511719 C 83.054688 283.972656 84.847656 289.390625 86.769531 294.769531 C 88.695312 300.144531 90.75 305.46875 92.933594 310.742188 C 95.121094 316.015625 97.433594 321.234375 99.875 326.394531 C 102.316406 331.554688 104.882812 336.652344 107.578125 341.6875 C 110.269531 346.722656 113.082031 351.6875 116.015625 356.585938 C 118.953125 361.480469 122.007812 366.304688 125.179688 371.050781 C 128.351562 375.796875 131.636719 380.464844 135.039062 385.050781 C 138.441406 389.636719 141.953125 394.132812 145.574219 398.546875 C 149.195312 402.960938 152.925781 407.28125 156.757812 411.511719 C 160.59375 415.742188 164.527344 419.875 168.566406 423.914062 C 172.601562 427.949219 176.738281 431.886719 180.964844 435.71875 C 185.195312 439.554688 189.519531 443.28125 193.933594 446.90625 C 198.34375 450.527344 202.84375 454.039062 207.429688 457.441406 C 212.015625 460.839844 216.679688 464.128906 221.429688 467.300781 C 226.175781 470.472656 230.996094 473.527344 235.894531 476.460938 C 240.789062 479.398438 245.757812 482.210938 250.792969 484.902344 C 255.824219 487.59375 260.921875 490.160156 266.085938 492.601562 C 271.246094 495.046875 276.464844 497.359375 281.738281 499.542969 C 287.011719 501.730469 292.335938 503.785156 297.710938 505.710938 C 303.085938 507.632812 308.507812 509.425781 313.96875 511.082031 C 319.433594 512.742188 324.933594 514.265625 330.46875 515.652344 C 336.007812 517.042969 341.578125 518.292969 347.175781 519.40625 C 352.777344 520.523438 358.398438 521.5 364.046875 522.339844 C 369.695312 523.179688 375.359375 523.878906 381.039062 524.4375 C 386.722656 525 392.414062 525.421875 398.117188 525.703125 C 403.816406 525.984375 409.523438 526.125 415.234375 526.128906 Z M 415.234375 526.128906 " fill-opacity="1" fill-rule="nonzero"/></g><g clip-path="url(#91a6f88943)"><path fill="#292929" d="M 415.234375 526.128906 L 764.113281 526.128906 L 764.113281 177.246094 C 758.40625 177.246094 752.699219 177.386719 746.996094 177.667969 C 741.292969 177.945312 735.601562 178.367188 729.917969 178.925781 C 724.234375 179.484375 718.570312 180.183594 712.921875 181.023438 C 707.273438 181.859375 701.652344 182.835938 696.050781 183.949219 C 690.453125 185.0625 684.882812 186.316406 679.34375 187.703125 C 673.804688 189.089844 668.304688 190.613281 662.839844 192.269531 C 657.375 193.925781 651.957031 195.71875 646.578125 197.640625 C 641.203125 199.5625 635.878906 201.617188 630.601562 203.804688 C 625.328125 205.988281 620.109375 208.300781 614.949219 210.742188 C 609.785156 213.183594 604.6875 215.75 599.652344 218.441406 C 594.617188 221.132812 589.652344 223.945312 584.753906 226.882812 C 579.855469 229.816406 575.035156 232.871094 570.285156 236.042969 C 565.539062 239.214844 560.871094 242.503906 556.285156 245.902344 C 551.699219 249.304688 547.199219 252.816406 542.785156 256.4375 C 538.371094 260.0625 534.050781 263.789062 529.820312 267.625 C 525.589844 271.457031 521.457031 275.394531 517.417969 279.429688 C 513.378906 283.46875 509.445312 287.601562 505.609375 291.832031 C 501.777344 296.0625 498.046875 300.386719 494.425781 304.800781 C 490.804688 309.214844 487.292969 313.714844 483.890625 318.300781 C 480.488281 322.886719 477.203125 327.550781 474.03125 332.300781 C 470.859375 337.046875 467.804688 341.871094 464.867188 346.765625 C 461.933594 351.664062 459.121094 356.632812 456.429688 361.667969 C 453.738281 366.703125 451.171875 371.800781 448.730469 376.960938 C 446.289062 382.125 443.976562 387.339844 441.789062 392.617188 C 439.605469 397.890625 437.550781 403.21875 435.628906 408.59375 C 433.703125 413.96875 431.914062 419.390625 430.253906 424.851562 C 428.597656 430.316406 427.074219 435.816406 425.6875 441.355469 C 424.300781 446.894531 423.050781 452.464844 421.9375 458.066406 C 420.824219 463.664062 419.847656 469.289062 419.007812 474.9375 C 418.171875 480.585938 417.472656 486.25 416.914062 491.933594 C 416.351562 497.613281 415.933594 503.304688 415.652344 509.007812 C 415.371094 514.710938 415.234375 520.417969 415.234375 526.128906 Z M 415.234375 526.128906 " fill-opacity="1" fill-rule="nonzero"/></g><g clip-path="url(#2f48c39703)"><path fill="#292929" d="M 415.234375 526.128906 L 66.351562 526.128906 L 66.351562 875.011719 C 72.058594 875.007812 77.765625 874.867188 83.46875 874.585938 C 89.171875 874.304688 94.863281 873.882812 100.542969 873.320312 C 106.226562 872.761719 111.890625 872.058594 117.539062 871.222656 C 123.183594 870.382812 128.808594 869.40625 134.40625 868.289062 C 140.007812 867.175781 145.574219 865.921875 151.113281 864.535156 C 156.652344 863.144531 162.152344 861.621094 167.613281 859.964844 C 173.078125 858.304688 178.496094 856.515625 183.871094 854.589844 C 189.246094 852.667969 194.574219 850.613281 199.847656 848.425781 C 205.121094 846.242188 210.339844 843.925781 215.5 841.484375 C 220.660156 839.042969 225.757812 836.476562 230.792969 833.785156 C 235.828125 831.09375 240.792969 828.277344 245.691406 825.34375 C 250.585938 822.40625 255.410156 819.355469 260.15625 816.183594 C 264.902344 813.007812 269.570312 809.722656 274.15625 806.320312 C 278.738281 802.921875 283.238281 799.410156 287.652344 795.785156 C 292.066406 792.164062 296.386719 788.4375 300.617188 784.601562 C 304.847656 780.769531 308.980469 776.832031 313.019531 772.796875 C 317.054688 768.757812 320.992188 764.625 324.824219 760.394531 C 328.660156 756.164062 332.386719 751.84375 336.011719 747.429688 C 339.632812 743.015625 343.144531 738.515625 346.542969 733.929688 C 349.945312 729.347656 353.234375 724.679688 356.40625 719.933594 C 359.578125 715.1875 362.632812 710.363281 365.566406 705.46875 C 368.503906 700.570312 371.316406 695.605469 374.007812 690.570312 C 376.699219 685.535156 379.265625 680.4375 381.707031 675.277344 C 384.148438 670.117188 386.464844 664.898438 388.648438 659.625 C 390.835938 654.347656 392.890625 649.023438 394.8125 643.648438 C 396.738281 638.273438 398.53125 632.855469 400.1875 627.390625 C 401.847656 621.929688 403.371094 616.429688 404.757812 610.890625 C 406.144531 605.351562 407.398438 599.785156 408.511719 594.183594 C 409.628906 588.585938 410.605469 582.960938 411.445312 577.316406 C 412.28125 571.667969 412.984375 566.003906 413.542969 560.320312 C 414.105469 554.640625 414.527344 548.949219 414.808594 543.246094 C 415.089844 537.542969 415.230469 531.835938 415.234375 526.128906 Z M 415.234375 526.128906 " fill-opacity="1" fill-rule="nonzero"/></g><g clip-path="url(#f137850ebe)"><path fill="#292929" d="M 764.113281 875.011719 C 764.113281 869.300781 763.972656 863.59375 763.695312 857.890625 C 763.414062 852.1875 762.996094 846.496094 762.433594 840.8125 C 761.875 835.132812 761.175781 829.464844 760.339844 823.816406 C 759.5 818.171875 758.523438 812.546875 757.410156 806.945312 C 756.296875 801.347656 755.046875 795.777344 753.660156 790.238281 C 752.273438 784.699219 750.75 779.199219 749.09375 773.734375 C 747.433594 768.269531 745.644531 762.851562 743.71875 757.476562 C 741.796875 752.097656 739.742188 746.773438 737.558594 741.5 C 735.371094 736.222656 733.058594 731.003906 730.617188 725.84375 C 728.175781 720.683594 725.609375 715.582031 722.917969 710.546875 C 720.226562 705.511719 717.414062 700.546875 714.480469 695.648438 C 711.542969 690.75 708.488281 685.929688 705.316406 681.179688 C 702.144531 676.433594 698.859375 671.765625 695.457031 667.179688 C 692.054688 662.59375 688.542969 658.09375 684.921875 653.679688 C 681.300781 649.269531 677.570312 644.945312 673.738281 640.714844 C 669.902344 636.484375 665.96875 632.351562 661.929688 628.3125 C 657.890625 624.277344 653.757812 620.339844 649.527344 616.503906 C 645.296875 612.671875 640.976562 608.941406 636.5625 605.320312 C 632.148438 601.699219 627.648438 598.1875 623.0625 594.785156 C 618.476562 591.382812 613.808594 588.097656 609.0625 584.925781 C 604.3125 581.753906 599.492188 578.699219 594.59375 575.765625 C 589.695312 572.828125 584.730469 570.015625 579.695312 567.324219 C 574.660156 564.632812 569.5625 562.066406 564.398438 559.625 C 559.238281 557.183594 554.019531 554.871094 548.746094 552.683594 C 543.46875 550.5 538.144531 548.445312 532.769531 546.523438 C 527.390625 544.597656 521.972656 542.808594 516.507812 541.152344 C 511.042969 539.492188 505.542969 537.972656 500.003906 536.582031 C 494.464844 535.195312 488.894531 533.945312 483.296875 532.832031 C 477.695312 531.71875 472.074219 530.742188 466.425781 529.902344 C 460.777344 529.066406 455.113281 528.367188 449.429688 527.808594 C 443.746094 527.25 438.054688 526.828125 432.351562 526.546875 C 426.648438 526.269531 420.941406 526.128906 415.234375 526.128906 L 415.234375 875.011719 Z M 764.113281 875.011719 " fill-opacity="1" fill-rule="nonzero"/></g></svg>