<svg width="279" height="279" viewBox="0 0 279 279" fill="none" xmlns="http://www.w3.org/2000/svg">
<g clip-path="url(#clip0_6190_3864)">
<mask id="mask0_6190_3864" style="mask-type:luminance" maskUnits="userSpaceOnUse" x="0" y="0" width="279" height="279">
<path d="M279 0H0V279H279V0Z" fill="white"/>
</mask>
<g mask="url(#mask0_6190_3864)">
<path d="M139.501 0L143.219 104.122L168.505 3.04841L150.494 105.669L196.242 12.0604L157.288 108.693L221.498 26.6421L163.304 113.064L243.169 46.1562L168.28 118.591L260.313 69.75L171.998 125.031L272.174 96.3921L174.297 132.104L278.237 124.918L175.074 139.5L278.237 154.082L174.297 146.896L272.174 182.608L171.998 153.969L260.313 209.25L168.28 160.41L243.169 232.844L163.304 165.935L221.498 252.358L157.288 170.307L196.242 266.94L150.494 173.332L168.505 275.952L143.219 174.877L139.501 279L135.783 174.877L110.498 275.952L128.509 173.332L82.7616 266.94L121.715 170.307L57.5054 252.358L115.699 165.935L35.8327 232.844L110.723 160.41L18.6909 209.25L107.004 153.969L6.82904 182.608L104.706 146.896L0.765625 154.082L103.929 139.5L0.765625 124.918L104.706 132.104L6.82904 96.3921L107.004 125.031L18.6909 69.75L110.723 118.591L35.8327 46.1562L115.699 113.064L57.5054 26.6421L121.715 108.693L82.7616 12.0604L128.509 105.669L110.498 3.04841L135.783 104.122L139.501 0Z" fill="#E2DFD2"/>
</g>
</g>
<defs>
<clipPath id="clip0_6190_3864">
<rect width="279" height="279" fill="white"/>
</clipPath>
</defs>
</svg>
