<svg xmlns="http://www.w3.org/2000/svg" xmlns:xlink="http://www.w3.org/1999/xlink" width="1600" zoomAndPan="magnify" viewBox="0 0 1200 675.000002" height="900" preserveAspectRatio="xMidYMid meet" version="1.0"><defs><clipPath id="aef5ecce77"><path d="M 376 32 L 906 32 L 906 620.671875 L 376 620.671875 Z M 376 32 " clip-rule="nonzero"/></clipPath></defs><path fill="#c1ff72" d="M 747.339844 546.964844 C 749.789062 547.175781 749.242188 546.964844 747.339844 546.964844 Z M 747.339844 546.964844 " fill-opacity="1" fill-rule="nonzero"/><g clip-path="url(#aef5ecce77)"><path fill="#c1ff72" d="M 771.855469 203.269531 C 735.164062 214.554688 700.082031 233.914062 666.097656 251.496094 C 627.121094 271.617188 588.613281 292.710938 548.628906 310.929688 C 528.464844 320.101562 507.964844 328.515625 486.957031 335.65625 C 470.34375 341.28125 450.390625 349.058594 432.34375 347.027344 C 432.46875 346.480469 432.597656 346.097656 432.597656 346.015625 C 433.484375 342.25 435.132812 338.320312 437.078125 334.980469 C 445.65625 320.230469 460.707031 308.730469 474.105469 298.671875 C 511.089844 270.859375 552.136719 249.089844 591.363281 224.78125 C 611.355469 212.398438 630.757812 199.292969 649.316406 184.839844 C 664.953125 172.664062 681.695312 159.601562 692.9375 143.03125 C 702.363281 129.167969 710.140625 112.386719 708.703125 95.140625 C 706.71875 71.132812 690.148438 50.882812 668.84375 40.695312 C 635.28125 24.59375 592.714844 36.003906 558.308594 44.121094 C 529.480469 51.011719 495.070312 60.816406 468.019531 58.871094 C 464.257812 58.621094 460.535156 58.15625 456.859375 57.519531 C 455.253906 57.222656 453.5625 56.929688 451.957031 56.546875 C 451.53125 56.421875 451.027344 56.253906 450.347656 56 C 448.828125 55.492188 442.277344 52.914062 443.078125 53.460938 C 440.035156 51.898438 437.078125 50.082031 434.246094 48.222656 C 424.183594 41.710938 404.953125 38.792969 400.003906 53.082031 C 394.847656 67.875 409.179688 83.261719 420.253906 90.449219 C 482.644531 130.859375 551.246094 102.582031 617.230469 90.449219 C 619.515625 90.027344 638.027344 88.039062 650.792969 87.066406 C 649.484375 90.828125 647.707031 95.054688 646.058594 97.847656 C 636.886719 113.445312 621.164062 125.746094 607.339844 136.988281 C 590.433594 150.683594 572.128906 162.644531 553.65625 174.101562 C 515.023438 198.109375 474.78125 219.667969 438.046875 246.550781 C 408.207031 268.40625 369.316406 297.824219 377.011719 340.011719 C 386.4375 391.496094 444.769531 407.515625 489.195312 396.398438 C 532.101562 385.664062 573.144531 368.207031 612.792969 348.886719 C 652.273438 329.65625 690.695312 308.308594 730.007812 288.695312 C 761.332031 273.054688 795.527344 253.652344 828.75 249.722656 C 833.191406 249.214844 837.585938 248.917969 842.023438 248.878906 C 839.359375 253.316406 836.273438 257.628906 832.007812 262.445312 C 817.042969 279.226562 799.628906 288.019531 780.054688 297.699219 C 721.003906 326.867188 663.6875 360.257812 610.847656 399.695312 C 577.75 424.425781 545.921875 451.140625 518.363281 482.039062 C 499.296875 503.425781 474.230469 531.15625 472.753906 561.210938 C 471.695312 582.21875 486.617188 600.988281 504.203125 610.710938 C 520.644531 619.753906 539.582031 620.9375 557.925781 619.542969 C 584.597656 617.515625 610.425781 609.992188 633.929688 597.265625 C 666.222656 579.765625 699.195312 560.746094 734.191406 549.207031 C 734.234375 549.207031 734.996094 548.953125 735.628906 548.785156 C 736.433594 548.570312 737.785156 548.277344 738.082031 548.191406 C 740.363281 547.769531 742.605469 547.304688 744.929688 547.09375 C 745.859375 547.007812 746.664062 546.964844 747.296875 546.964844 C 746.832031 546.921875 746.238281 546.882812 745.5625 546.796875 C 747.675781 547.050781 749.832031 547.007812 751.945312 547.21875 C 753.890625 547.429688 755.792969 547.769531 757.695312 548.066406 C 758.414062 548.148438 758.964844 548.234375 759.386719 548.277344 C 759.554688 548.359375 759.722656 548.402344 759.976562 548.488281 C 762.765625 549.503906 765.601562 550.304688 768.390625 551.402344 C 769.488281 551.828125 770.585938 552.335938 771.6875 552.800781 C 772.277344 553.09375 773.125 553.519531 773.925781 553.984375 C 776.886719 555.671875 779.761719 557.492188 782.675781 559.222656 C 783.3125 559.605469 783.777344 559.902344 784.199219 560.152344 C 785.847656 561.378906 787.453125 562.648438 789.015625 563.917969 C 796.5 570.003906 802.882812 576.175781 808.96875 583.066406 C 817.929688 593.125 834.625 605.214844 848.746094 598.070312 C 862.1875 591.222656 856.777344 572.371094 848.871094 563.492188 C 823.636719 535.089844 793.074219 508.414062 755.539062 498.3125 C 729.671875 491.378906 706.886719 494.128906 682.160156 504.359375 C 648.171875 518.433594 616.808594 537.160156 583.839844 553.179688 C 572.511719 558.675781 563.632812 561.421875 551.585938 563.703125 C 546.046875 564.761719 540.679688 565.605469 535.523438 566.199219 C 541.441406 555.335938 549.894531 544.980469 557.882812 535.382812 C 583.246094 504.949219 612.835938 478.148438 644.199219 454.054688 C 697.417969 413.097656 756.132812 378.941406 816.15625 349.058594 C 838.21875 338.109375 859.015625 327.921875 876.515625 309.703125 C 896.890625 288.484375 915.785156 259.699219 899.089844 230.660156 C 874.867188 188.304688 812.140625 190.882812 771.855469 203.269531 Z M 453.140625 56.972656 C 453.394531 57.054688 453.433594 57.054688 453.140625 56.972656 Z M 662.925781 86.898438 C 662.925781 86.984375 662.714844 86.855469 662.417969 86.644531 C 662.757812 86.730469 662.925781 86.8125 662.925781 86.898438 Z M 652.613281 76.667969 C 652.105469 75.402344 652.441406 75.273438 652.613281 76.667969 Z M 771.265625 552.585938 C 770.503906 552.25 770.671875 552.292969 771.265625 552.585938 Z M 771.265625 552.585938 " fill-opacity="1" fill-rule="nonzero"/></g></svg>