<?xml version="1.0" encoding="UTF-8"?><svg id="Layer_2" xmlns="http://www.w3.org/2000/svg" width="768" height="768" viewBox="0 0 768 768"><g id="_Layer_"><path d="M759.2695,408.8047l-192.0619-16.8048h192.7925c4.4181,0,7.9999-3.5815,7.9999-7.9999s-3.5818-7.9999-7.9999-7.9999h-192.775l192.0406-16.801c4.1297-.3602,7.3001-3.8153,7.3046-7.9608,0-.2304-.0079-.4687-.0312-.7032-.3828-4.3999-4.26-7.6565-8.6601-7.2737l-.0039,.0003-192.0542,16.8017,189.8592-33.4774c3.8205-.6734,6.6069-3.9917,6.6093-7.871,.0005-.469-.0412-.937-.125-1.3985-.7663-4.3498-4.9138-7.2547-9.2633-6.4884l-.0024,.0002-189.8417,33.4745,186.2009-49.8926c4.2672-1.1434,6.7995-5.5296,5.6561-9.7968s-5.5296-6.7997-9.7968-5.6564l-186.2177,49.8965,181.1631-65.9354c4.1505-1.5103,6.2913-6.0994,4.781-10.2502-1.5101-4.1505-6.0991-6.2913-10.2499-4.7813l-181.1914,65.9475,174.7539-81.4901c4.0041-1.8682,5.7355-6.6288,3.8673-10.6327-1.8684-4.0042-6.6288-5.7355-10.6329-3.8674l-174.6884,81.4589,166.9229-96.373c3.8261-2.2111,5.1355-7.1049,2.9247-10.9312-2.2097-3.8235-7.099-5.1341-10.9246-2.9283l-166.9337,96.379,157.8946-110.5587c3.6437-2.4986,4.572-7.4784,2.0731-11.122-2.4989-3.644-7.4784-4.572-11.1221-2.0734-.0413,.0283-.0823,.0571-.1229,.0862l-157.92,110.5759,147.6776-123.9161c3.3626-2.8656,3.7653-7.9142,.8997-11.2769-2.8339-3.3252-7.8115-3.7617-11.1809-.9804l-147.6698,123.9099,136.3104-136.3088c3.1238-3.1238,3.1238-8.1885,0-11.3124-3.1238-3.1238-8.1886-3.1238-11.3124,0l-136.3565,136.3546,123.9502-147.7178c2.8392-3.3828,2.3983-8.4264-.9843-11.2656-3.3828-2.839-8.4266-2.3984-11.2656,.9844l-123.924,147.6855,110.5803-157.9239c2.5291-3.624,1.6416-8.6121-1.9824-11.1415-3.6161-2.5236-8.592-1.6461-11.1271,1.9618l-110.546,157.8761,96.3663-166.9112c2.2092-3.827,.8976-8.7204-2.9297-10.9296-3.827-2.2092-8.7204-.8976-10.9296,2.9297h0l-96.3732,166.9227,81.4591-174.6884c1.8682-4.0041,.1368-8.7645-3.8671-10.6329-4.0042-1.8682-8.7646-.1368-10.633,3.8673h0l-81.4776,174.7284,65.9386-181.162c1.507-4.152-.6372-8.7394-4.7892-10.2464-4.1474-1.5052-8.7305,.6324-10.242,4.7777l-65.9546,181.206L489.0391,22.8828c1.1434-4.2672-1.3891-8.6534-5.6563-9.7968-4.2672-1.1434-8.6534,1.3889-9.7968,5.6561h0l-49.902,186.2433L457.164,15.1015c.0838-.4613,.1255-.9295,.125-1.3985-.0026-4.4172-3.5856-7.9958-8.003-7.9932-3.8798,.0024-7.1986,2.7891-7.872,6.6101l-33.475,189.8561L424.7422,10.128c.0235-.2383,.0312-.4766,.0312-.707-.0084-4.4182-3.5969-7.9932-8.0151-7.9848-4.1385,.0079-7.5881,3.1711-7.9536,7.2933l-16.8048,192.0634V7.9999c0-4.4181-3.5815-7.9999-7.9999-7.9999s-7.9999,3.5818-7.9999,7.9999V200.7754L359.1991,8.7343c-.384-4.4009-4.2629-7.6574-8.664-7.2734-4.4011,.3842-7.6574,4.2631-7.2734,8.6642h0l16.8017,192.0547L326.586,12.3199c-.768-4.3512-4.9181-7.2561-9.2695-6.4881-4.3515,.768-7.2564,4.918-6.4884,9.2695l33.4747,189.8419L294.4102,18.7421c-1.1434-4.2672-5.5296-6.7995-9.7968-5.6561-4.2675,1.1434-6.7997,5.5296-5.6564,9.7968h0l49.897,186.2177L262.9181,27.9374c-1.5135-4.1496-6.1042-6.2865-10.2538-4.7733-4.145,1.5117-6.2829,6.0948-4.7777,10.2422l65.947,181.1914L232.344,39.8438c-1.8682-4.0041-6.6288-5.7355-10.6327-3.8673-4.0042,1.8684-5.7355,6.6288-3.8674,10.6329l81.4589,174.6884L202.9296,54.3751c-2.2073-3.8282-7.0999-5.1422-10.9282-2.9349-3.8282,2.2075-5.1422,7.1001-2.9349,10.9284,.0014,.0021,.0026,.0043,.0038,.0064l96.3795,166.9335L174.8906,71.4142c-2.4991-3.6437-7.4786-4.5716-11.1223-2.0724-3.6434,2.4991-4.5713,7.4788-2.0721,11.1223,.0278,.041,.0564,.0816,.0852,.1219l110.5766,157.92L148.4414,90.8282c-2.8617-3.3657-7.9101-3.7744-11.2759-.9129-3.3341,2.8349-3.7713,7.8225-.9816,11.1941l123.9099,147.6698L123.785,112.4688c-3.1238-3.1238-8.1885-3.1238-11.3124,0-3.1238,3.1238-3.1238,8.1886,0,11.3124h0l136.3546,136.3565L101.1094,136.1875c-3.3828-2.8389-8.4264-2.3983-11.2656,.9845-2.839,3.3828-2.3984,8.4264,.9844,11.2656l147.686,123.9238L80.5898,161.7814c-3.6252-2.5277-8.6128-1.638-11.1405,1.9872-2.5205,3.6148-1.6438,8.5872,1.9608,11.122l157.8761,110.546L62.375,189.0703c-3.826-2.2109-8.7201-.9014-10.931,2.9247-2.2109,3.826-.9017,8.7199,2.9246,10.931,.0022,.0012,.0044,.0024,.0065,.0036l166.9227,96.3732L46.6094,217.8437c-4.0041-1.8682-8.7645-.1368-10.6329,3.8673-1.8682,4.004-.1368,8.7646,3.8673,10.6328l174.7284,81.4776L33.4102,247.8828c-4.1484-1.5166-8.7408,.617-10.2574,4.7654s.617,8.7408,4.7654,10.2574c.0077,.0029,.0156,.0058,.0233,.0084l181.206,65.9551L22.8828,278.9611c-4.2672-1.1436-8.6534,1.3889-9.7968,5.6561-1.1434,4.2672,1.3889,8.6534,5.6561,9.797l186.2433,49.9023L15.1015,310.836c-4.3481-.7747-8.5008,2.1221-9.2753,6.4704-.7747,4.3481,2.1221,8.5008,6.4702,9.2753,.0079,.0014,.0158,.0029,.0235,.0043l189.8561,33.4745L10.128,343.2578c-4.3344-.4418-8.2063,2.7135-8.6482,7.0479-.0076,.0751-.0141,.1502-.0196,.2256-.3855,4.3997,2.8687,8.2785,7.2684,8.664h.0009l192.0629,16.8048H7.9999c-4.4181,0-7.9999,3.5817-7.9999,7.9999s3.5818,7.9999,7.9999,7.9999H200.7749L8.7343,408.8009c-4.4009,.384-7.6574,4.2631-7.2734,8.664,.384,4.4011,4.2631,7.6574,8.6642,7.2734l192.054-16.8017L12.3199,441.4142c-4.3512,.768-7.2561,4.9181-6.4881,9.2693,.768,4.3515,4.918,7.2564,9.2695,6.4884h0l189.8412-33.4745L18.7421,473.5898c-4.2672,1.1434-6.7995,5.5296-5.6561,9.7968,1.1434,4.2675,5.5296,6.7997,9.7968,5.6564l186.2177-49.8965L27.9374,505.0819c-4.1517,1.5072-6.2959,6.0946-4.7889,10.2466,1.5069,4.1517,6.0943,6.2959,10.2463,4.7889,.0038-.0012,.0077-.0026,.0115-.004l181.1914-65.9472-174.7539,81.4898c-4.0041,1.8684-5.7355,6.6288-3.8673,10.633,1.8684,4.0039,6.6288,5.7352,10.6329,3.8671l174.6884-81.4589-166.9227,96.3732c-3.8273,2.2092-5.1389,7.1026-2.9297,10.9296,2.209,3.8273,7.1026,5.1389,10.9296,2.9297l166.9335-96.3787-157.8943,110.5584c-3.6435,2.4993-4.5708,7.4791-2.0715,11.1225,2.4994,3.6435,7.4791,4.5708,11.1226,2.0712,.0405-.0276,.0806-.0559,.1207-.0842l157.92-110.5762-147.6778,123.9159c-3.3768,2.8488-3.8049,7.8955-.9561,11.2723,2.837,3.3633,7.8581,3.8035,11.2373,.9854l147.6698-123.9101-136.3104,136.3088c-3.1238,3.1238-3.1238,8.1885,0,11.3124,3.1238,3.124,8.1886,3.124,11.3124,0l136.3565-136.3546-123.9502,147.7178c-2.8389,3.3828-2.3983,8.4267,.9845,11.2656,3.3828,2.8392,8.4264,2.3984,11.2656-.9844l123.9238-147.6855-110.58,157.9239c-2.5282,3.6247-1.6392,8.6128,1.9855,11.1408,3.6153,2.5216,8.5889,1.6447,11.1237-1.9611l110.546-157.8761-96.3663,166.9114c-2.2109,3.8261-.9017,8.7199,2.9247,10.931,3.826,2.2109,8.7199,.9015,10.931-2.9246,.0012-.0022,.0024-.0043,.0036-.0065l96.3732-166.9229-81.4591,174.6884c-1.8682,4.0041-.1368,8.7645,3.8673,10.6329,4.004,1.8682,8.7646,.1368,10.6328-3.8671l81.4776-174.7286-65.9386,181.162c-1.5058,4.1525,.6396,8.7392,4.7918,10.2452,4.1463,1.5036,8.7272-.6332,10.2394-4.7763l65.9546-181.206-49.9077,186.2645c-1.1434,4.2672,1.3891,8.6534,5.6563,9.7968,4.2672,1.1434,8.6534-1.3889,9.7968-5.6561l49.902-186.2431-33.48,189.8837c-.7817,4.3469,2.1084,8.5041,6.4553,9.2858s8.5041-2.1084,9.2858-6.4553c.0031-.0163,.006-.0328,.0089-.0492l33.475-189.856-16.8032,192.048c-.4418,4.3341,2.7135,8.2063,7.0479,8.6481,.0751,.0077,.1502,.0142,.2256,.0197,4.3997,.3854,8.2785-2.8687,8.664-7.2684v-.0012l16.8048-192.0629v192.793c0,4.4181,3.5817,7.9999,7.9999,7.9999s7.9999-3.5818,7.9999-7.9999v-192.7755l16.801,192.0411c.3602,4.1297,3.8155,7.3001,7.9608,7.3046,.2304,0,.4689-.0079,.7032-.0312,4.4001-.3828,7.6567-4.26,7.2737-8.6601,0,0,0-.0027-.0003-.0039l-16.8017-192.0547,33.4774,189.8597c.6734,3.8205,3.9917,6.6069,7.871,6.6093,.469,.0005,.9372-.0412,1.3985-.125,4.3498-.7663,7.2547-4.9135,6.4884-9.2633,0,0-.0002-.0017-.0002-.0024l-33.4745-189.8421,49.8926,186.2013c1.1434,4.2672,5.5296,6.7995,9.7968,5.6561,4.2675-1.1434,6.7997-5.5296,5.6564-9.7968l-49.897-186.2177,65.9359,181.1631c1.5103,4.1505,6.0994,6.2913,10.2502,4.7812,4.1508-1.5103,6.2913-6.0993,4.7813-10.2501h0l-65.947-181.1914,81.4896,174.7541c1.8684,4.0039,6.6288,5.7353,10.633,3.8671,4.0039-1.8684,5.7352-6.6288,3.8671-10.6329h0l-81.4589-174.6884,96.3732,166.9229c2.2092,3.8271,7.1026,5.1389,10.9296,2.9297,3.8273-2.2092,5.1389-7.1026,2.9297-10.9296h0l-96.3795-166.9337,110.5592,157.8946c2.4991,3.6434,7.4786,4.5713,11.1223,2.0721,3.6437-2.4991,4.5715-7.4786,2.0724-11.1223-.0281-.0408-.0564-.0813-.0852-.1217l-110.5767-157.92,123.9164,147.6776c2.849,3.3765,7.8957,3.8042,11.2723,.9552,3.3624-2.8373,3.8028-7.8572,.9854-11.2364l-123.9101-147.6698,136.3088,136.3104c3.1238,3.1238,8.1885,3.1238,11.3124,0,3.124-3.1238,3.124-8.1886,0-11.3124l-136.3546-136.3565,147.7178,123.9502c3.3828,2.8392,8.4267,2.3983,11.2656-.9845,2.8392-3.3826,2.3984-8.4264-.9844-11.2654l-147.686-123.924,157.9244,110.5803c3.6235,2.5298,8.6119,1.6433,11.1417-1.9803,2.5251-3.6165,1.6474-8.5944-1.962-11.1292l-157.8761-110.546,166.9114,96.3663c3.827,2.2092,8.7204,.8976,10.9296-2.9297,2.2092-3.827,.8974-8.7204-2.9297-10.9296l-166.9229-96.3732,174.6884,81.4591c4.0041,1.8682,8.7645,.1368,10.6329-3.8671,1.8682-4.0042,.1368-8.7646-3.8673-10.633l-174.7284-81.4776,181.162,65.9386c4.1508,1.5101,8.7399-.6305,10.25-4.7813,1.5103-4.1508-.6305-8.7398-4.7811-10.2499h0l-181.2062-65.9551,186.2647,49.9082c4.2672,1.1434,8.6534-1.3891,9.7968-5.6563s-1.3889-8.6534-5.6561-9.7968l-186.2433-49.9022,189.8839,33.4804c.4613,.0836,.9295,.1253,1.3985,.1248,4.4172-.0026,7.9958-3.5856,7.9932-8.003-.0024-3.8798-2.7891-7.1986-6.6101-7.8718l-189.8561-33.4747,192.048,16.8027c.2381,.0235,.4766,.0314,.707,.0314,4.4182-.0086,7.9932-3.5971,7.9848-8.0153-.0079-4.1385-3.1711-7.5881-7.2936-7.9536h-.0007Z" style="fill:#52b3d9;"/></g></svg>