<svg width="100%" height="100%" viewBox="0 0 259 105" fill="none" xmlns="http://www.w3.org/2000/svg"><path d="M69.5156 23.4397L69.5427 23.438C75.165 14.0309 85.5151 7.7168 97.3612 7.7168C109.053 7.7168 119.293 13.8631 124.956 23.0653H124.98C127.822 27.6872 132.943 30.7871 138.811 30.7871C144.013 30.7871 148.627 28.3504 151.588 24.582H151.606L151.611 24.5863C156.179 18.7193 163.348 14.938 171.411 14.938C179.629 14.938 186.923 18.8646 191.476 24.9192V24.9175L191.5 24.9192C194.661 29.1831 199.751 31.9606 205.504 31.9606C210.543 31.9606 215.066 29.8308 218.24 26.4411L218.263 26.4429L218.268 26.4472C221.941 22.3701 227.294 19.7976 233.255 19.7976C244.339 19.7976 253.324 28.6833 253.324 39.6452C253.324 50.6097 244.339 59.4945 233.255 59.4945C227.295 59.4945 221.942 56.9246 218.268 52.8458L218.263 52.8501H218.24C215.065 49.4657 210.542 47.3324 205.504 47.3324C199.751 47.3324 194.662 50.1099 191.5 54.3755H191.476C186.923 60.4319 179.629 64.355 171.411 64.355C163.348 64.355 156.179 60.5711 151.611 54.7092L151.606 54.711L151.588 54.7136C148.626 50.9408 144.013 48.5067 138.811 48.5067C132.943 48.5067 127.823 51.6049 124.98 56.2259L124.956 56.2294C119.293 65.429 109.053 71.5727 97.3612 71.5727C85.5151 71.5727 75.165 65.2621 69.5427 55.855L69.5156 55.8524C66.5584 51.0852 61.2518 47.8962 55.1818 47.8962C50.3264 47.8962 45.9632 49.9438 42.8924 53.1943L42.8889 53.1925L42.8845 53.1899C39.2243 57.0699 34.0086 59.4945 28.222 59.4945C17.133 59.4945 8.14697 50.6097 8.14697 39.6452C8.14697 28.6833 17.133 19.7976 28.222 19.7976C34.0077 19.7976 39.2243 22.2257 42.8845 26.1022L42.8889 26.097H42.8924C45.9632 29.3509 50.3264 31.3959 55.1818 31.3959C61.2518 31.3959 66.5584 28.2051 69.5156 23.4397Z" fill="#EBE7DB"/></svg>