<svg width="180" height="180" viewBox="0 0 180 180" fill="none" xmlns="http://www.w3.org/2000/svg">
<path d="M54.2038 153.409C53.8998 153.87 53.2795 153.997 52.8185 153.693C52.3574 153.389 52.2301 152.769 52.5341 152.308L54.2038 153.409ZM81.7294 111.666L54.2038 153.409L52.5341 152.308L80.0597 110.565L81.7294 111.666Z" fill="url(#paint0_linear_3589_74)"/>
<path d="M108.058 153.409C108.362 153.87 108.982 153.997 109.443 153.693C109.904 153.389 110.032 152.769 109.728 152.308L108.058 153.409ZM80.5324 111.666L108.058 153.409L109.728 152.308L82.202 110.565L80.5324 111.666Z" fill="url(#paint1_linear_3589_74)"/>
<path fill-rule="evenodd" clip-rule="evenodd" d="M147 105V19C147 16.2386 144.761 14 142 14L19 14C16.2386 14 14 16.2386 14 19L14 105C14 107.761 16.2386 110 19 110L142 110C144.761 110 147 107.761 147 105ZM149 19C149 15.134 145.866 12 142 12L19 12C15.134 12 12 15.134 12 19L12 105C12 108.866 15.134 112 19 112L142 112C145.866 112 149 108.866 149 105V19Z" fill="url(#paint2_linear_3589_74)"/>
<path d="M80 163C80 163.552 80.4477 164 81 164C81.5523 164 82 163.552 82 163L80 163ZM80 112L80 163L82 163L82 112L80 112Z" fill="url(#paint3_linear_3589_74)"/>
<path d="M104 62C104 66.7468 102.592 71.3869 99.9553 75.3337C97.3181 79.2805 93.5698 82.3566 89.1844 84.1731C84.799 85.9896 79.9734 86.4649 75.3178 85.5388C70.6623 84.6128 66.3859 82.327 63.0294 78.9706C59.673 75.6141 57.3872 71.3377 56.4612 66.6822C55.5351 62.0266 56.0104 57.201 57.8269 52.8156C59.6434 48.4302 62.7195 44.6819 66.6663 42.0447C70.6131 39.4076 75.2532 38 80 38V62H104Z" fill="url(#paint4_linear_3589_74)"/>
<path d="M83 34C86.283 34 89.5339 34.6466 92.5671 35.903C95.6002 37.1594 98.3562 39.0009 100.678 41.3223C102.999 43.6438 104.841 46.3998 106.097 49.4329C107.353 52.4661 108 55.7169 108 59L83 59L83 34Z" fill="url(#paint5_linear_3589_74)"/>
<defs>
<linearGradient id="paint0_linear_3589_74" x1="85.7349" y1="103.344" x2="45.162" y2="165.821" gradientUnits="userSpaceOnUse">
<stop offset="0.15" stop-color="#FF6E30"/>
<stop offset="0.68145" stop-color="#E9402B"/>
</linearGradient>
<linearGradient id="paint1_linear_3589_74" x1="76.5269" y1="103.344" x2="117.1" y2="165.821" gradientUnits="userSpaceOnUse">
<stop offset="0.15" stop-color="#FF6E30"/>
<stop offset="0.68145" stop-color="#E9402B"/>
</linearGradient>
<linearGradient id="paint2_linear_3589_74" x1="-13.0821" y1="61.4949" x2="191.034" y2="61.4949" gradientUnits="userSpaceOnUse">
<stop offset="0.15" stop-color="#FF6E30"/>
<stop offset="0.68145" stop-color="#E9402B"/>
</linearGradient>
<linearGradient id="paint3_linear_3589_74" x1="81" y1="102.663" x2="89.6804" y2="177.643" gradientUnits="userSpaceOnUse">
<stop offset="0.15" stop-color="#FF6E30"/>
<stop offset="0.68145" stop-color="#E9402B"/>
</linearGradient>
<linearGradient id="paint4_linear_3589_74" x1="47.2121" y1="61.7575" x2="118.727" y2="61.7575" gradientUnits="userSpaceOnUse">
<stop offset="0.15" stop-color="#FF6E30"/>
<stop offset="0.68145" stop-color="#E9402B"/>
</linearGradient>
<linearGradient id="paint5_linear_3589_74" x1="82.7474" y1="93.154" x2="82.7474" y2="18.6591" gradientUnits="userSpaceOnUse">
<stop offset="0.15" stop-color="#FF6E30"/>
<stop offset="0.68145" stop-color="#E9402B"/>
</linearGradient>
</defs>
</svg>
