<svg width="180" height="180" viewBox="0 0 180 180" fill="none" xmlns="http://www.w3.org/2000/svg">
<g clip-path="url(#clip0_3589_86)">
<circle cx="92.5" cy="90.5986" r="36.5" fill="url(#paint0_linear_3589_86)" stroke="url(#paint1_linear_3589_86)" stroke-width="2"/>
<path d="M63.7792 157.069C76.9276 162.786 91.476 164.476 105.585 161.925C119.694 159.374 132.729 152.697 143.043 142.737C153.356 132.777 160.485 119.983 163.528 105.972C166.57 91.9609 165.389 77.3623 160.134 64.0224" stroke="url(#paint2_linear_3589_86)" stroke-width="2" stroke-linecap="round"/>
<circle cx="54.5" cy="152.599" r="10.5" fill="#F5F5F7" stroke="url(#paint3_linear_3589_86)" stroke-width="2"/>
<circle cx="140.5" cy="38.5986" r="12.5" fill="#F5F5F7" stroke="url(#paint4_linear_3589_86)" stroke-width="2"/>
<path d="M36.8975 138.49C25.4209 125.123 19.125 108.081 19.1557 90.4631C19.1865 72.8457 25.5417 55.8249 37.0649 42.4986C48.588 29.1723 64.513 20.4264 81.9414 17.8526C99.3698 15.2788 117.143 19.0483 132.026 28.475" stroke="url(#paint5_linear_3589_86)" stroke-width="2" stroke-linecap="round"/>
</g>
<defs>
<linearGradient id="paint0_linear_3589_86" x1="41.2689" y1="90.2198" x2="153.011" y2="90.2198" gradientUnits="userSpaceOnUse">
<stop offset="0.15" stop-color="#FF6E30"/>
<stop offset="0.68145" stop-color="#E9402B"/>
</linearGradient>
<linearGradient id="paint1_linear_3589_86" x1="41.2689" y1="90.2198" x2="153.011" y2="90.2198" gradientUnits="userSpaceOnUse">
<stop offset="0.15" stop-color="#FF6E30"/>
<stop offset="0.68145" stop-color="#E9402B"/>
</linearGradient>
<linearGradient id="paint2_linear_3589_86" x1="184.801" y1="52.8336" x2="57.9111" y2="205.334" gradientUnits="userSpaceOnUse">
<stop offset="0.15" stop-color="#FF6E30"/>
<stop offset="0.68145" stop-color="#E9402B"/>
</linearGradient>
<linearGradient id="paint3_linear_3589_86" x1="38.7891" y1="152.482" x2="73.0568" y2="152.482" gradientUnits="userSpaceOnUse">
<stop offset="0.15" stop-color="#FF6E30"/>
<stop offset="0.68145" stop-color="#E9402B"/>
</linearGradient>
<linearGradient id="paint4_linear_3589_86" x1="122.057" y1="38.4623" x2="162.284" y2="38.4623" gradientUnits="userSpaceOnUse">
<stop offset="0.15" stop-color="#FF6E30"/>
<stop offset="0.68145" stop-color="#E9402B"/>
</linearGradient>
<linearGradient id="paint5_linear_3589_86" x1="142.304" y1="0.0195884" x2="-20.2941" y2="139.629" gradientUnits="userSpaceOnUse">
<stop offset="0.15" stop-color="#FF6E30"/>
<stop offset="0.68145" stop-color="#E9402B"/>
</linearGradient>
<clipPath id="clip0_3589_86">
<rect width="180" height="180" fill="white"/>
</clipPath>
</defs>
</svg>
