<svg width="180" height="180" viewBox="0 0 180 180" fill="none" xmlns="http://www.w3.org/2000/svg">
<mask id="path-1-inside-1_3589_23" fill="white">
<path fill-rule="evenodd" clip-rule="evenodd" d="M113 68C119.075 68 124 63.0751 124 57C124 50.9249 119.075 46 113 46C106.925 46 102 50.9249 102 57C102 61.2728 104.436 64.9767 107.995 66.7982L92.1393 102.474C91.4218 102.327 90.6789 102.25 89.918 102.25C86.2764 102.25 83.0481 104.02 81.0461 106.746L60.3438 89.8074C61.3936 88.122 62 86.1318 62 84C62 77.9249 57.0751 73 51 73C44.9249 73 40 77.9249 40 84C40 87.2892 41.4437 90.2412 43.7319 92.257L12.6109 151.535C12.3542 152.024 12.5425 152.629 13.0315 152.885C13.5205 153.142 14.125 152.954 14.3817 152.465L45.365 93.449C47.0131 94.434 48.9404 95 51 95C54.224 95 57.124 93.6131 59.1359 91.4033L80.0044 108.477C79.3082 109.921 78.918 111.54 78.918 113.25C78.918 119.325 83.8428 124.25 89.918 124.25C95.9931 124.25 100.918 119.325 100.918 113.25C100.918 108.643 98.0859 104.698 94.0678 103.06L109.853 67.5432C110.85 67.8404 111.906 68 113 68ZM60 84C60 88.9706 55.9706 93 51 93C46.0294 93 42 88.9706 42 84C42 79.0294 46.0294 75 51 75C55.9706 75 60 79.0294 60 84ZM89.918 122.25C94.8885 122.25 98.918 118.221 98.918 113.25C98.918 108.279 94.8885 104.25 89.918 104.25C84.9474 104.25 80.918 108.279 80.918 113.25C80.918 118.221 84.9474 122.25 89.918 122.25Z"/>
</mask>
<path fill-rule="evenodd" clip-rule="evenodd" d="M113 68C119.075 68 124 63.0751 124 57C124 50.9249 119.075 46 113 46C106.925 46 102 50.9249 102 57C102 61.2728 104.436 64.9767 107.995 66.7982L92.1393 102.474C91.4218 102.327 90.6789 102.25 89.918 102.25C86.2764 102.25 83.0481 104.02 81.0461 106.746L60.3438 89.8074C61.3936 88.122 62 86.1318 62 84C62 77.9249 57.0751 73 51 73C44.9249 73 40 77.9249 40 84C40 87.2892 41.4437 90.2412 43.7319 92.257L12.6109 151.535C12.3542 152.024 12.5425 152.629 13.0315 152.885C13.5205 153.142 14.125 152.954 14.3817 152.465L45.365 93.449C47.0131 94.434 48.9404 95 51 95C54.224 95 57.124 93.6131 59.1359 91.4033L80.0044 108.477C79.3082 109.921 78.918 111.54 78.918 113.25C78.918 119.325 83.8428 124.25 89.918 124.25C95.9931 124.25 100.918 119.325 100.918 113.25C100.918 108.643 98.0859 104.698 94.0678 103.06L109.853 67.5432C110.85 67.8404 111.906 68 113 68ZM60 84C60 88.9706 55.9706 93 51 93C46.0294 93 42 88.9706 42 84C42 79.0294 46.0294 75 51 75C55.9706 75 60 79.0294 60 84ZM89.918 122.25C94.8885 122.25 98.918 118.221 98.918 113.25C98.918 108.279 94.8885 104.25 89.918 104.25C84.9474 104.25 80.918 108.279 80.918 113.25C80.918 118.221 84.9474 122.25 89.918 122.25Z" fill="url(#paint0_linear_3589_23)"/>
<path d="M107.995 66.7982L108.985 67.2382L109.402 66.3011L108.489 65.8338L107.995 66.7982ZM92.1393 102.474L91.9217 103.536L92.7753 103.711L93.1293 102.914L92.1393 102.474ZM81.0461 106.746L80.3601 107.584L81.2436 108.307L81.9193 107.387L81.0461 106.746ZM60.3438 89.8074L59.4243 89.2347L58.9208 90.0429L59.6578 90.6459L60.3438 89.8074ZM43.7319 92.257L44.6911 92.7606L45.0868 92.0068L44.448 91.4441L43.7319 92.257ZM12.6109 151.535L13.5701 152.039L13.5701 152.039L12.6109 151.535ZM13.0315 152.885L13.535 151.926L13.535 151.926L13.0315 152.885ZM14.3817 152.465L13.4225 151.961L13.4225 151.961L14.3817 152.465ZM45.365 93.449L45.9208 92.5191L44.938 91.9318L44.4058 92.9454L45.365 93.449ZM59.1359 91.4033L59.8219 90.5648L59.0267 89.9141L58.3349 90.6739L59.1359 91.4033ZM80.0044 108.477L80.9802 108.948L81.3509 108.179L80.6904 107.639L80.0044 108.477ZM94.0678 103.06L93.0778 102.62L92.6239 103.641L93.6589 104.063L94.0678 103.06ZM109.853 67.5432L110.162 66.505L109.25 66.233L108.863 67.1032L109.853 67.5432ZM122.917 57C122.917 62.4768 118.477 66.9167 113 66.9167V69.0833C119.673 69.0833 125.083 63.6734 125.083 57H122.917ZM113 47.0833C118.477 47.0833 122.917 51.5232 122.917 57H125.083C125.083 50.3266 119.673 44.9167 113 44.9167V47.0833ZM103.083 57C103.083 51.5232 107.523 47.0833 113 47.0833V44.9167C106.327 44.9167 100.917 50.3266 100.917 57H103.083ZM108.489 65.8338C105.278 64.1903 103.083 60.8505 103.083 57H100.917C100.917 61.6952 103.595 65.763 107.502 67.7626L108.489 65.8338ZM107.005 66.3582L91.1493 102.034L93.1293 102.914L108.985 67.2382L107.005 66.3582ZM92.3569 101.413C91.5683 101.251 90.7524 101.167 89.918 101.167V103.333C90.6054 103.333 91.2754 103.403 91.9217 103.536L92.3569 101.413ZM89.918 101.167C85.917 101.167 82.3703 103.112 80.1729 106.104L81.9193 107.387C83.726 104.927 86.6358 103.333 89.918 103.333V101.167ZM81.7321 105.907L61.0298 88.969L59.6578 90.6459L80.3601 107.584L81.7321 105.907ZM61.2634 90.3802C62.4171 88.5279 63.0833 86.3401 63.0833 84H60.9167C60.9167 85.9235 60.3701 87.7161 59.4243 89.2347L61.2634 90.3802ZM63.0833 84C63.0833 77.3266 57.6734 71.9167 51 71.9167V74.0833C56.4768 74.0833 60.9167 78.5232 60.9167 84H63.0833ZM51 71.9167C44.3266 71.9167 38.9167 77.3266 38.9167 84H41.0833C41.0833 78.5232 45.5232 74.0833 51 74.0833V71.9167ZM38.9167 84C38.9167 87.6133 40.504 90.8572 43.0158 93.0699L44.448 91.4441C42.3833 89.6253 41.0833 86.9651 41.0833 84H38.9167ZM42.7728 91.7534L11.6517 151.032L13.5701 152.039L44.6911 92.7606L42.7728 91.7534ZM11.6517 151.032C11.1169 152.05 11.5092 153.31 12.5279 153.845L13.535 151.926C13.5758 151.948 13.5915 151.998 13.5701 152.039L11.6517 151.032ZM12.5279 153.845C13.5466 154.379 14.806 153.987 15.3409 152.968L13.4225 151.961C13.4439 151.921 13.4943 151.905 13.535 151.926L12.5279 153.845ZM15.3409 152.968L46.3242 93.9526L44.4058 92.9454L13.4225 151.961L15.3409 152.968ZM44.8092 94.3789C46.6206 95.4615 48.7394 96.0833 51 96.0833V93.9167C49.1415 93.9167 47.4055 93.4065 45.9208 92.5191L44.8092 94.3789ZM51 96.0833C54.5415 96.0833 57.7284 94.5584 59.937 92.1326L58.3349 90.6739C56.5196 92.6677 53.9064 93.9167 51 93.9167V96.0833ZM58.4499 92.2417L79.3184 109.316L80.6904 107.639L59.8219 90.5648L58.4499 92.2417ZM79.0286 108.007C78.2631 109.594 77.8346 111.374 77.8346 113.25H80.0013C80.0013 111.706 80.3532 110.248 80.9802 108.948L79.0286 108.007ZM77.8346 113.25C77.8346 119.923 83.2445 125.333 89.918 125.333V123.167C84.4411 123.167 80.0013 118.727 80.0013 113.25H77.8346ZM89.918 125.333C96.5914 125.333 102.001 119.923 102.001 113.25H99.8346C99.8346 118.727 95.3948 123.167 89.918 123.167V125.333ZM102.001 113.25C102.001 108.188 98.8886 103.855 94.4767 102.056L93.6589 104.063C97.2833 105.54 99.8346 109.099 99.8346 113.25H102.001ZM95.0578 103.5L110.843 67.9832L108.863 67.1032L93.0778 102.62L95.0578 103.5ZM113 66.9167C112.012 66.9167 111.06 66.7726 110.162 66.505L109.543 68.5814C110.64 68.9082 111.8 69.0833 113 69.0833V66.9167ZM51 94.0833C56.5689 94.0833 61.0833 89.5689 61.0833 84H58.9167C58.9167 88.3723 55.3723 91.9167 51 91.9167V94.0833ZM40.9167 84C40.9167 89.5689 45.4311 94.0833 51 94.0833V91.9167C46.6277 91.9167 43.0833 88.3723 43.0833 84H40.9167ZM51 73.9167C45.4311 73.9167 40.9167 78.4311 40.9167 84H43.0833C43.0833 79.6277 46.6277 76.0833 51 76.0833V73.9167ZM61.0833 84C61.0833 78.4311 56.5689 73.9167 51 73.9167V76.0833C55.3723 76.0833 58.9167 79.6277 58.9167 84H61.0833ZM97.8346 113.25C97.8346 117.622 94.2902 121.167 89.918 121.167V123.333C95.4868 123.333 100.001 118.819 100.001 113.25H97.8346ZM89.918 105.333C94.2902 105.333 97.8346 108.878 97.8346 113.25H100.001C100.001 107.681 95.4868 103.167 89.918 103.167V105.333ZM82.0013 113.25C82.0013 108.878 85.5457 105.333 89.918 105.333V103.167C84.3491 103.167 79.8346 107.681 79.8346 113.25H82.0013ZM89.918 121.167C85.5457 121.167 82.0013 117.622 82.0013 113.25H79.8346C79.8346 118.819 84.3491 123.333 89.918 123.333V121.167Z" fill="url(#paint1_linear_3589_23)" mask="url(#path-1-inside-1_3589_23)"/>
<path fill-rule="evenodd" clip-rule="evenodd" d="M13 25C13 24.4477 12.5523 24 12 24C11.4477 24 11 24.4477 11 25L11 152C11 153.105 11.8954 154 13 154H139C139.552 154 140 153.552 140 153C140 152.448 139.552 152 139 152L15 152C13.8954 152 13 151.105 13 150L13 25Z" fill="url(#paint2_linear_3589_23)"/>
<defs>
<linearGradient id="paint0_linear_3589_23" x1="-7.91813" y1="98.9596" x2="158.211" y2="98.9596" gradientUnits="userSpaceOnUse">
<stop offset="0.15" stop-color="#FF6E30"/>
<stop offset="0.68145" stop-color="#E9402B"/>
</linearGradient>
<linearGradient id="paint1_linear_3589_23" x1="-7.91813" y1="98.9596" x2="158.211" y2="98.9596" gradientUnits="userSpaceOnUse">
<stop offset="0.15" stop-color="#FF6E30"/>
<stop offset="0.68145" stop-color="#E9402B"/>
</linearGradient>
<linearGradient id="paint2_linear_3589_23" x1="-12.6174" y1="88.3434" x2="179.58" y2="88.3434" gradientUnits="userSpaceOnUse">
<stop offset="0.15" stop-color="#FF6E30"/>
<stop offset="0.68145" stop-color="#E9402B"/>
</linearGradient>
</defs>
</svg>
